<svg width="121" height="130" viewBox="0 0 121 130" fill="none" xmlns="http://www.w3.org/2000/svg">
<path fill-rule="evenodd" clip-rule="evenodd" d="M9.35224 10.4151H80.9362C88.1113 10.4446 94.9842 13.308 100.058 18.3816C105.131 23.4552 107.995 30.328 108.024 37.5031V81.7911C107.995 88.9662 105.131 95.839 100.058 100.913C94.9842 105.986 88.1113 108.85 80.9362 108.879L9.34424 109.095L9.35224 10.4151Z" fill="#0050A3"/>
<path fill-rule="evenodd" clip-rule="evenodd" d="M86.2085 0.927765L95.6965 9.62376L108.176 9.94376L108.752 22.8158L117.352 31.8958L108.672 41.4078L108.352 53.9198L95.5125 54.4958L86.4485 63.1118L76.9685 54.4158L64.4805 54.0958L63.9125 41.2238L55.3125 32.1438L63.9925 22.6318L64.3125 10.1198L77.1525 9.54376L86.2085 0.927765Z" fill="#E60013"/>
<path fill-rule="evenodd" clip-rule="evenodd" d="M86.3688 13.4155L95.6968 9.62355L99.4808 18.8955L108.753 22.8155L104.889 32.0555L108.673 41.4076L99.4248 45.1995L95.5128 54.4956L86.2888 50.6235L76.9688 54.4155L73.1768 45.1516L63.9128 41.2235L67.7768 31.9836L63.9928 22.6315L73.2328 18.8395L77.1528 9.54355L86.3688 13.4155Z" fill="#F08300"/>
<path fill-rule="evenodd" clip-rule="evenodd" d="M86.369 13.4156L91.705 19.1356L99.481 18.8956L99.217 26.7196L104.889 32.0556L99.185 37.4076L99.425 45.1996L91.617 44.9356L86.289 50.6236L80.961 44.9036L73.177 45.1516L73.441 37.3196L67.777 31.9836L73.481 26.6316L73.233 18.8396L81.041 19.1036L86.369 13.4156Z" fill="#ABCD05"/>
<path fill-rule="evenodd" clip-rule="evenodd" d="M86.3291 18.152C89.0734 18.1504 91.7565 18.9628 94.039 20.4865C96.3214 22.0102 98.1007 24.1766 99.1516 26.7117C100.203 29.2468 100.478 32.0367 99.9429 34.7283C99.4079 37.42 98.0866 39.8925 96.1461 41.833C94.2056 43.7735 91.7331 45.0948 89.0414 45.6298C86.3498 46.1648 83.5599 45.8894 81.0248 44.8385C78.4897 43.7876 76.3233 42.0083 74.7996 39.7259C73.2759 37.4434 72.4635 34.7603 72.4651 32.016C72.4651 28.339 73.9258 24.8127 76.5258 22.2127C79.1258 19.6127 82.6521 18.152 86.3291 18.152Z" fill="white"/>
<path fill-rule="evenodd" clip-rule="evenodd" d="M28.8568 71.9359L29.1288 97.3759C29.1288 100.824 30.2328 101.16 33.2248 101.44C34.3933 101.537 35.568 101.351 36.6488 100.896C37.2045 100.583 37.6427 100.097 37.8968 99.5119C38.1448 98.9359 38.2648 98.7119 38.2648 96.4879V69.5359C38.2648 67.2879 38.1448 67.1359 37.8968 66.5199C37.6473 65.9275 37.2046 65.4369 36.6408 65.1279C35.5632 64.6931 34.3992 64.5151 33.2408 64.6079V62.2079H50.6328C54.7928 62.2079 57.7448 62.6399 59.4728 63.4799C61.1886 64.3068 62.6158 65.6308 63.5688 67.2799C64.555 68.8966 65.0755 70.7542 65.0728 72.6479C65.0919 74.6011 64.4172 76.4976 63.1688 77.9999C61.742 79.8702 59.6982 81.1741 57.4008 81.6799C63.9048 82.5839 66.7368 86.5679 66.7368 92.2799C66.7768 93.7318 66.5031 95.1753 65.9342 96.5117C65.3654 97.8482 64.5149 99.0462 63.4408 100.024C60.7475 102.541 56.8302 103.8 51.6888 103.8H33.2248H18.1688V101.496C21.2728 101.352 22.6008 100.52 22.6008 97.4239V79.3999C22.6008 76.0239 21.7608 75.5279 18.4088 75.2319V73.2399C21.9305 73.2151 25.4371 72.7774 28.8568 71.9359ZM45.5208 83.3039V95.5599C45.5208 96.7759 45.2968 98.3359 46.4728 99.2799C47.3533 99.8322 48.3779 100.111 49.4168 100.08C58.3528 100.576 59.8888 96.1759 59.8168 91.9359C59.5688 82.7439 54.1528 83.2959 45.5608 83.3359L45.5208 83.3039ZM45.5208 79.9279C54.9128 81.5279 57.3288 78.0879 57.5208 72.9119C57.7208 67.2639 55.1208 65.8159 50.3688 65.7119C47.3128 65.6319 45.5288 66.0879 45.5288 68.7199V79.9199L45.5208 79.9279ZM26.0808 59.2399C25.2343 59.2399 24.4068 59.4909 23.703 59.9612C22.9991 60.4315 22.4506 61.1 22.1266 61.882C21.8027 62.6641 21.7179 63.5247 21.8831 64.3549C22.0482 65.1851 22.4558 65.9478 23.0544 66.5463C23.653 67.1449 24.4156 67.5525 25.2458 67.7177C26.0761 67.8828 26.9366 67.7981 27.7187 67.4741C28.5008 67.1502 29.1692 66.6016 29.6395 65.8978C30.1098 65.1939 30.3608 64.3664 30.3608 63.5199C30.3619 62.9576 30.2519 62.4005 30.0372 61.8808C29.8225 61.361 29.5072 60.8888 29.1096 60.4912C28.7119 60.0935 28.2397 59.7783 27.72 59.5636C27.2002 59.3488 26.6432 59.2389 26.0808 59.2399V59.2399Z" fill="white"/>
<path fill-rule="evenodd" clip-rule="evenodd" d="M9.66492 123.288H11.0409V120.184C11.3058 120.222 11.5734 120.238 11.8409 120.232C13.5209 120.232 15.3289 119.568 15.3289 117.64C15.3409 117.311 15.2746 116.985 15.1355 116.687C14.9964 116.39 14.7885 116.129 14.5289 115.928C13.7582 115.451 12.8567 115.23 11.9529 115.296C11.1929 115.293 10.4337 115.343 9.68092 115.448V123.288H9.66492ZM11.0409 116.312C11.3557 116.261 11.6741 116.237 11.9929 116.24C13.1209 116.24 13.9049 116.728 13.9049 117.688C13.9049 118.648 13.1049 119.288 11.8329 119.288C11.5647 119.296 11.2964 119.275 11.0329 119.224V116.32L11.0409 116.312ZM21.4409 122.2C20.8953 122.386 20.3213 122.475 19.7449 122.464C19.4921 122.499 19.2345 122.48 18.9897 122.407C18.7449 122.335 18.5185 122.211 18.3259 122.043C18.1333 121.875 17.9789 121.668 17.8731 121.436C17.7674 121.203 17.7127 120.951 17.7129 120.696H21.9769C21.9911 120.525 21.9911 120.354 21.9769 120.184C22.011 119.823 21.9667 119.459 21.847 119.118C21.7274 118.776 21.5352 118.464 21.2836 118.203C21.0321 117.942 20.7272 117.739 20.3898 117.607C20.0524 117.476 19.6905 117.418 19.3289 117.44C18.9241 117.421 18.52 117.488 18.1425 117.635C17.7651 117.783 17.4228 118.008 17.1378 118.296C16.8528 118.584 16.6314 118.928 16.4879 119.307C16.3444 119.686 16.2821 120.091 16.3049 120.496C16.3049 122.24 17.4729 123.392 19.5049 123.392C20.2291 123.405 20.9497 123.288 21.6329 123.048L21.4409 122.2ZM17.7209 119.8C17.737 119.395 17.9061 119.011 18.1942 118.726C18.4822 118.441 18.8678 118.276 19.2729 118.264C19.4727 118.26 19.6709 118.3 19.8534 118.381C20.0359 118.463 20.1982 118.583 20.3288 118.735C20.4594 118.886 20.5551 119.064 20.609 119.256C20.663 119.449 20.6739 119.651 20.6409 119.848L17.7209 119.8ZM26.7609 117.4C26.6437 117.391 26.5261 117.391 26.4089 117.4C26.0249 117.401 25.6503 117.518 25.3346 117.737C25.0189 117.955 24.777 118.265 24.6409 118.624H24.5929L24.5369 117.576H23.3049C23.3049 118.104 23.3529 118.656 23.3529 119.32V123.32H24.7609V120.296C24.7392 120.081 24.7634 119.865 24.8322 119.661C24.9009 119.456 25.0125 119.269 25.1595 119.112C25.3064 118.954 25.4854 118.83 25.6843 118.747C25.8832 118.664 26.0976 118.625 26.3129 118.632C26.4514 118.622 26.5904 118.622 26.7289 118.632V117.48L26.7609 117.4ZM29.2729 118.296V115H27.8409V121.792C27.8409 122.312 27.8409 122.936 27.7929 123.312H29.0009L29.0729 122.456C29.2892 122.778 29.5863 123.038 29.9345 123.209C30.2827 123.38 30.6697 123.457 31.0569 123.432C31.4489 123.434 31.8371 123.355 32.1966 123.199C32.5561 123.042 32.8788 122.813 33.1441 122.524C33.4093 122.235 33.6112 121.894 33.7368 121.523C33.8623 121.152 33.9087 120.758 33.8729 120.368C33.8729 118.624 32.8089 117.48 31.2729 117.48C30.8843 117.451 30.4946 117.52 30.1396 117.68C29.7845 117.841 29.4755 118.089 29.2409 118.4L29.2729 118.296ZM29.2729 119.832C29.2854 119.431 29.4536 119.05 29.7418 118.771C30.03 118.492 30.4156 118.335 30.8169 118.336C31.9449 118.336 32.4889 119.24 32.4889 120.32C32.4889 121.544 31.8969 122.36 30.8089 122.36C30.6151 122.37 30.421 122.342 30.2382 122.277C30.0554 122.212 29.8875 122.11 29.7443 121.979C29.6012 121.848 29.4858 121.69 29.4048 121.513C29.3239 121.337 29.279 121.146 29.2729 120.952V119.832V119.832ZM39.9929 119.8C39.9929 118.584 39.4489 117.48 37.4729 117.48C36.7208 117.466 35.9759 117.628 35.2969 117.952L35.5929 118.752C36.087 118.494 36.6358 118.36 37.1929 118.36C38.5449 118.36 38.5449 119.208 38.5449 119.632C36.2409 119.632 34.7929 120.336 34.7929 121.76C34.8044 122.002 34.8657 122.24 34.9731 122.458C35.0804 122.676 35.2315 122.869 35.4169 123.026C35.6023 123.183 35.8181 123.3 36.0507 123.37C36.2833 123.439 36.5278 123.461 36.7689 123.432C37.1213 123.441 37.4714 123.374 37.7957 123.236C38.1201 123.098 38.411 122.892 38.6489 122.632V122.632L38.7449 123.288H40.0249C39.9488 122.841 39.9167 122.388 39.9289 121.936V119.8H39.9929ZM38.6169 121.4C38.6018 121.568 38.5537 121.732 38.4751 121.882C38.3965 122.032 38.2892 122.166 38.1591 122.274C38.0291 122.383 37.879 122.464 37.7173 122.515C37.5556 122.565 37.3856 122.583 37.2169 122.568C37.0898 122.583 36.961 122.57 36.8392 122.531C36.7174 122.491 36.6056 122.426 36.5114 122.34C36.4172 122.253 36.3428 122.147 36.2934 122.029C36.2439 121.911 36.2206 121.784 36.2249 121.656C36.2249 120.632 37.5049 120.456 38.6249 120.456V121.4H38.6169ZM47.3209 119.8C47.3566 119.494 47.3248 119.185 47.2279 118.893C47.131 118.601 46.9713 118.334 46.76 118.11C46.5487 117.887 46.2911 117.713 46.0051 117.599C45.7192 117.486 45.4119 117.437 45.1049 117.456C44.7076 117.433 44.3109 117.51 43.9507 117.679C43.5904 117.848 43.2777 118.104 43.0409 118.424L42.9689 117.576H41.7289C41.7289 118.064 41.7769 118.552 41.7769 119.176V123.28H43.1929V119.84C43.1916 119.652 43.2286 119.466 43.3017 119.292C43.3747 119.119 43.4822 118.963 43.6177 118.832C43.7532 118.702 43.9138 118.601 44.0897 118.535C44.2656 118.469 44.4532 118.439 44.6409 118.448C45.6089 118.448 45.9209 119.136 45.9209 119.944V123.288H47.3369V119.8H47.3209ZM52.0329 119.928L54.4329 117.576H52.7209L51.0409 119.488C50.8552 119.697 50.6841 119.919 50.5289 120.152V120.152V115H49.1049V123.312H50.5209V121.24L51.0649 120.672L52.9929 123.288H54.6969L52.0329 119.928V119.928ZM60.2009 119.776C60.2009 118.56 59.6489 117.456 57.6729 117.456C56.9233 117.442 56.1808 117.603 55.5049 117.928L55.8009 118.728C56.295 118.47 56.8438 118.336 57.4009 118.336C58.7529 118.336 58.7529 119.184 58.7529 119.608C56.4489 119.608 54.9929 120.312 54.9929 121.736C55.0044 121.978 55.0657 122.216 55.1731 122.434C55.2804 122.652 55.4315 122.845 55.6169 123.002C55.8023 123.159 56.0181 123.276 56.2507 123.346C56.4833 123.415 56.7278 123.437 56.9689 123.408C57.3218 123.421 57.6733 123.356 57.9983 123.218C58.3233 123.079 58.6137 122.871 58.8489 122.608V122.608L58.9449 123.264H60.2249C60.1448 122.818 60.1126 122.364 60.1289 121.912V119.8L60.2009 119.776ZM58.8249 121.376C58.7925 121.717 58.6261 122.032 58.3622 122.251C58.0983 122.469 57.7584 122.575 57.4169 122.544C57.2905 122.558 57.1625 122.544 57.0417 122.504C56.9209 122.464 56.8101 122.399 56.7168 122.312C56.6235 122.226 56.5499 122.12 56.5009 122.003C56.4519 121.885 56.4287 121.759 56.4329 121.632C56.4329 120.608 57.7129 120.432 58.8329 120.432V121.4L58.8249 121.376ZM67.5289 119.8C67.5633 119.494 67.5304 119.184 67.4325 118.892C67.3346 118.6 67.1741 118.334 66.9622 118.11C66.7504 117.887 66.4923 117.713 66.206 117.6C65.9197 117.487 65.6122 117.437 65.3049 117.456C64.9129 117.439 64.5227 117.518 64.1684 117.687C63.8142 117.855 63.5067 118.109 63.2729 118.424H63.2329L63.1609 117.576H61.9289C61.9289 118.064 61.9769 118.552 61.9769 119.176V123.28H63.3929V119.84C63.3917 119.652 63.4285 119.466 63.5009 119.293C63.5734 119.12 63.6801 118.964 63.8146 118.833C63.9491 118.702 64.1086 118.6 64.2836 118.532C64.4586 118.465 64.6454 118.433 64.8329 118.44C65.7929 118.44 66.1129 119.128 66.1129 119.936V123.28H67.5289V119.8V119.8ZM76.8169 115.6C76.1966 115.341 75.5288 115.216 74.8569 115.232C73.0009 115.232 71.8169 116.176 71.8169 117.432C71.8169 118.512 72.7609 119.224 74.1449 119.704C75.2569 120.096 75.7449 120.504 75.7449 121.184C75.7449 121.864 75.1209 122.392 74.0089 122.392C73.307 122.392 72.6145 122.23 71.9849 121.92L71.6729 122.928C72.3757 123.257 73.1448 123.422 73.9209 123.408C76.0249 123.408 77.1769 122.408 77.1769 121.08C77.1769 119.992 76.4569 119.296 74.9609 118.736C73.7769 118.304 73.2569 117.936 73.2569 117.296C73.2569 116.792 73.7209 116.24 74.8569 116.24C75.4304 116.236 75.9979 116.356 76.5209 116.592L76.8569 115.6H76.8169ZM82.4169 117.576L81.3289 120.776C81.2089 121.16 81.0729 121.576 80.9769 121.92C80.8809 121.584 80.7529 121.12 80.6169 120.776L79.3929 117.576H77.8489L80.1529 122.848C80.1965 122.923 80.2212 123.008 80.2249 123.096C80.0582 123.527 79.7914 123.912 79.4464 124.219C79.1014 124.527 78.6882 124.748 78.2409 124.864L78.6009 125.88C79.171 125.754 79.7047 125.5 80.1609 125.136C80.9609 124.48 81.5289 123.416 82.3209 121.536L83.9209 117.576H82.4169ZM89.6169 119.776C89.6169 118.56 89.0729 117.456 87.0969 117.456C86.3448 117.442 85.5999 117.604 84.9209 117.928L85.2169 118.728C85.711 118.47 86.2598 118.336 86.8169 118.336C88.1689 118.336 88.1689 119.184 88.1689 119.608C85.8649 119.608 84.4169 120.312 84.4169 121.736C84.4284 121.978 84.4897 122.216 84.5971 122.434C84.7044 122.652 84.8555 122.845 85.0409 123.002C85.2263 123.159 85.4421 123.276 85.6747 123.346C85.9073 123.415 86.1518 123.437 86.3929 123.408C86.7453 123.417 87.0954 123.35 87.4197 123.212C87.7441 123.074 88.035 122.868 88.2729 122.608V122.608L88.3689 123.264H89.6489C89.5728 122.817 89.5407 122.364 89.5529 121.912V119.8L89.6169 119.776ZM88.2409 121.376C88.2258 121.544 88.1777 121.708 88.0991 121.858C88.0206 122.008 87.9132 122.142 87.7831 122.25C87.6531 122.359 87.503 122.44 87.3413 122.491C87.1796 122.541 87.0096 122.559 86.8409 122.544C86.7138 122.559 86.585 122.546 86.4632 122.507C86.3415 122.467 86.2296 122.402 86.1354 122.316C86.0412 122.229 85.9668 122.123 85.9174 122.005C85.8679 121.887 85.8446 121.76 85.8489 121.632C85.8489 120.608 87.1289 120.432 88.2489 120.432V121.4L88.2409 121.376ZM94.7769 117.496C94.6597 117.487 94.5421 117.487 94.4249 117.496C94.0515 117.497 93.6868 117.609 93.3766 117.816C93.0663 118.024 92.8243 118.319 92.6809 118.664H92.6409L92.5929 117.616H91.3609C91.3609 118.144 91.4089 118.696 91.4089 119.36V123.36H92.8249V120.336C92.8019 120.122 92.8251 119.905 92.8929 119.701C92.9606 119.497 93.0715 119.31 93.2178 119.152C93.3642 118.994 93.5427 118.87 93.7412 118.787C93.9398 118.704 94.1539 118.665 94.3689 118.672C94.5074 118.662 94.6464 118.662 94.7849 118.672V117.48L94.7769 117.496ZM97.4089 116.016C97.405 115.916 97.3809 115.818 97.338 115.728C97.2952 115.638 97.2345 115.558 97.1597 115.492C97.0849 115.427 96.9975 115.377 96.9029 115.346C96.8082 115.314 96.7082 115.303 96.6089 115.312C96.5062 115.293 96.4004 115.296 96.2993 115.323C96.1981 115.349 96.104 115.397 96.0236 115.464C95.9433 115.531 95.8786 115.615 95.8342 115.709C95.7898 115.804 95.7668 115.907 95.7668 116.012C95.7668 116.116 95.7898 116.219 95.8342 116.314C95.8786 116.409 95.9433 116.492 96.0236 116.559C96.104 116.626 96.1981 116.674 96.2993 116.701C96.4004 116.727 96.5062 116.731 96.6089 116.712C96.7075 116.72 96.8069 116.709 96.9011 116.679C96.9952 116.648 97.0823 116.599 97.157 116.534C97.2316 116.469 97.2925 116.389 97.3358 116.3C97.379 116.211 97.4039 116.115 97.4089 116.016V116.016ZM97.2889 117.616H95.8729V123.328H97.2889V117.616ZM103.841 119.8C103.841 118.584 103.297 117.48 101.321 117.48C100.571 117.466 99.8288 117.627 99.1529 117.952L99.4409 118.752C99.9353 118.495 100.484 118.361 101.041 118.36C102.401 118.36 102.401 119.208 102.401 119.632C100.089 119.632 98.6409 120.336 98.6409 121.76C98.6524 122.002 98.7137 122.24 98.8211 122.458C98.9284 122.676 99.0795 122.869 99.2649 123.026C99.4503 123.183 99.6661 123.3 99.8987 123.37C100.131 123.439 100.376 123.461 100.617 123.432C100.969 123.441 101.319 123.374 101.644 123.236C101.968 123.098 102.259 122.892 102.497 122.632V122.632L102.593 123.288H103.881C103.798 122.842 103.763 122.389 103.777 121.936V119.8H103.841ZM102.465 121.4C102.45 121.568 102.402 121.732 102.323 121.882C102.245 122.032 102.137 122.166 102.007 122.274C101.877 122.383 101.727 122.464 101.565 122.515C101.404 122.565 101.234 122.583 101.065 122.568C100.938 122.583 100.809 122.57 100.687 122.531C100.565 122.491 100.454 122.426 100.359 122.34C100.265 122.253 100.191 122.147 100.141 122.029C100.092 121.911 100.069 121.784 100.073 121.656C100.073 120.632 101.353 120.456 102.473 120.456V121.4H102.465ZM111.169 119.88C111.211 119.574 111.186 119.262 111.095 118.967C111.004 118.672 110.849 118.4 110.642 118.171C110.434 117.943 110.179 117.762 109.894 117.643C109.609 117.523 109.302 117.467 108.993 117.48C108.624 117.471 108.259 117.547 107.924 117.703C107.59 117.858 107.296 118.088 107.065 118.376V118.376V115H105.649V123.312H107.041V119.8C107.045 119.616 107.086 119.435 107.161 119.267C107.236 119.099 107.343 118.947 107.477 118.822C107.611 118.696 107.769 118.598 107.941 118.534C108.114 118.469 108.297 118.44 108.481 118.448C109.425 118.448 109.761 119.136 109.761 119.952V123.288H111.169V119.88Z" fill="#0050A3"/>
</svg>
