<svg width="250" height="250" viewBox="0 0 250 250" fill="none" xmlns="http://www.w3.org/2000/svg">
<path fill-rule="evenodd" clip-rule="evenodd" d="M214.335 123.25C214.335 175.578 171.967 218 119.705 218C67.4412 218 25.0732 175.578 25.0732 123.25C25.0732 70.9213 67.4412 28.5 119.705 28.5C171.967 28.5 214.335 70.9213 214.335 123.25Z" fill="#FFDEA8"/>
<mask id="mask0_347_65539" style="mask-type:alpha" maskUnits="userSpaceOnUse" x="25" y="28" width="190" height="190">
<path d="M119.318 28.5C67.2307 28.7059 25.074 71.0487 25.074 123.25C25.074 175.579 67.4404 218 119.704 218C171.967 218 214.335 175.579 214.335 123.25C214.335 71.0487 172.178 28.7059 120.091 28.5" fill="white"/>
</mask>
<g mask="url(#mask0_347_65539)">
<path fill-rule="evenodd" clip-rule="evenodd" d="M95.8117 168.712C70.1693 180.513 57.7065 245.723 54.7249 283.841C52.0177 318.438 36.7327 440.299 38.7039 455.165C101.548 460.146 139.386 437.669 139.386 437.669C112.284 347.66 142.823 147.077 95.8117 168.712Z" fill="#D69005"/>
</g>
<mask id="mask1_347_65539" style="mask-type:alpha" maskUnits="userSpaceOnUse" x="25" y="28" width="190" height="190">
<path d="M119.318 28.5C67.2307 28.7059 25.074 71.0487 25.074 123.25C25.074 175.579 67.4404 218 119.704 218C171.967 218 214.335 175.579 214.335 123.25C214.335 71.0487 172.178 28.7059 120.091 28.5" fill="white"/>
</mask>
<g mask="url(#mask1_347_65539)">
<path fill-rule="evenodd" clip-rule="evenodd" d="M170.415 234.09C168.415 253.49 163.181 275.632 152.658 295.024C146.465 296.718 140.179 298.049 133.831 299.008C101.611 303.873 81.4494 296.691 81.4494 296.691C81.4494 296.691 68.863 262.318 68.7258 232.581C68.6297 211.817 80.9537 178.293 88.3613 176.14C104.965 171.313 111.123 171.018 129.782 170.372C148.317 169.73 160.701 177.169 166.619 184.66C170.299 189.31 172.958 209.505 170.415 234.09Z" fill="white"/>
</g>
<mask id="mask2_347_65539" style="mask-type:alpha" maskUnits="userSpaceOnUse" x="25" y="28" width="190" height="190">
<path d="M119.318 28.5C67.2307 28.7059 25.074 71.0487 25.074 123.25C25.074 175.579 67.4404 218 119.704 218C171.967 218 214.335 175.579 214.335 123.25C214.335 71.0487 172.178 28.7059 120.091 28.5" fill="white"/>
</mask>
<g mask="url(#mask2_347_65539)">
<path fill-rule="evenodd" clip-rule="evenodd" d="M74.0792 199.015C71.2371 207.451 69.0867 216.192 68.1235 225.051C67.242 233.172 67.8658 241.41 68.9174 249.487C70.7193 263.337 74.0152 277.006 78.2284 290.314C78.7553 291.978 79.3019 293.635 79.868 295.286C80.0716 295.88 80.2531 296.949 80.722 297.418C81.1087 297.805 81.9536 297.939 82.45 298.085C83.735 298.465 85.0352 298.792 86.3422 299.089C98.8988 301.949 112.061 302.292 124.842 301.128C128.055 300.835 131.364 300.582 134.522 299.912C136.144 299.57 137.765 299.227 139.385 298.883C143.61 297.99 147.833 297.095 152.057 296.2L152.931 296.016C154.224 295.742 153.676 293.759 152.385 294.032L142.136 296.2C138.172 297.04 134.24 297.971 130.217 298.483C116.456 300.232 102.216 300.281 88.5819 297.473C86.2812 296.998 83.9409 296.487 81.7233 295.699L82.4394 296.417C79.6804 288.875 77.4994 281.08 75.5686 273.29C73.7399 265.905 72.2178 258.435 71.1639 250.898C70.0811 243.17 69.3459 235.22 69.9591 227.419C70.7003 217.944 73.0338 208.549 76.0597 199.562C76.4844 198.305 74.501 197.764 74.0792 199.015Z" fill="black"/>
</g>
<mask id="mask3_347_65539" style="mask-type:alpha" maskUnits="userSpaceOnUse" x="25" y="28" width="190" height="190">
<path d="M119.318 28.5C67.2307 28.7059 25.074 71.0487 25.074 123.25C25.074 175.579 67.4404 218 119.704 218C171.967 218 214.335 175.579 214.335 123.25C214.335 71.0487 172.178 28.7059 120.091 28.5" fill="white"/>
</mask>
<g mask="url(#mask3_347_65539)">
<path fill-rule="evenodd" clip-rule="evenodd" d="M110.764 219.127C109.941 218.9 109.068 218.929 108.262 219.211C107.456 219.493 106.755 220.015 106.254 220.706C106.016 221.036 105.827 221.399 105.697 221.785C105.56 220.977 105.187 220.228 104.625 219.631C104.063 219.035 103.337 218.618 102.538 218.433C101.74 218.249 100.905 218.304 100.138 218.593C99.3709 218.882 98.7065 219.391 98.2283 220.057C97.9902 220.387 97.8033 220.751 97.6739 221.136C97.5377 220.365 97.1888 219.647 96.6666 219.063C96.1444 218.48 95.4696 218.053 94.7182 217.832C93.8951 217.605 93.0224 217.635 92.2165 217.917C91.4105 218.198 90.7097 218.719 90.2075 219.41C89.5645 220.308 89.3042 221.424 89.4838 222.514C89.6634 223.604 90.2682 224.578 91.1653 225.222C91.6665 225.582 92.2417 225.826 92.849 225.937C93.4563 226.047 94.0805 226.02 94.6762 225.859C95.3311 225.675 95.9318 225.336 96.4266 224.869C96.9215 224.403 97.2959 223.823 97.5176 223.18C97.616 223.785 97.8455 224.36 98.194 224.863C98.632 225.496 99.2372 225.994 99.9421 226.303C100.647 226.611 101.424 226.718 102.186 226.61C102.948 226.503 103.665 226.186 104.257 225.695C104.849 225.203 105.293 224.557 105.539 223.828C105.639 224.432 105.872 225.008 106.219 225.511C106.708 226.217 107.403 226.754 108.209 227.049C109.015 227.343 109.893 227.381 110.722 227.157C111.55 226.932 112.289 226.457 112.836 225.796C113.384 225.135 113.713 224.32 113.779 223.465C113.847 222.506 113.586 221.553 113.037 220.764C112.489 219.974 111.687 219.397 110.764 219.127Z" fill="white"/>
</g>
<mask id="mask4_347_65539" style="mask-type:alpha" maskUnits="userSpaceOnUse" x="25" y="28" width="190" height="190">
<path d="M119.318 28.5C67.2307 28.7059 25.074 71.0487 25.074 123.25C25.074 175.579 67.4404 218 119.704 218C171.967 218 214.335 175.579 214.335 123.25C214.335 71.0487 172.178 28.7059 120.091 28.5" fill="white"/>
</mask>
<g mask="url(#mask4_347_65539)">
<path fill-rule="evenodd" clip-rule="evenodd" d="M92.5715 182.842C92.5715 182.842 68.998 234.638 62.2866 270.627C55.5759 306.616 74.4184 464.531 74.4184 464.531C74.4184 464.531 22.4161 452.263 12.058 440.108C4.38651 431.105 58.37 177.481 88.9599 169.398C92.3572 179.355 92.5715 182.842 92.5715 182.842Z" fill="#FDAF27"/>
</g>
<mask id="mask5_347_65539" style="mask-type:alpha" maskUnits="userSpaceOnUse" x="25" y="28" width="190" height="190">
<path d="M119.318 28.5C67.2307 28.7059 25.074 71.0487 25.074 123.25C25.074 175.579 67.4404 218 119.704 218C171.967 218 214.335 175.579 214.335 123.25C214.335 71.0487 172.178 28.7059 120.091 28.5" fill="white"/>
</mask>
<g mask="url(#mask5_347_65539)">
<path fill-rule="evenodd" clip-rule="evenodd" d="M72.39 191.841C72.255 191.841 72.1222 191.807 72.0041 191.742C71.8859 191.676 71.7862 191.582 71.7142 191.468C71.6423 191.354 71.6004 191.223 71.5926 191.089C71.5847 190.954 71.6111 190.819 71.6694 190.697C78.1131 177.181 83.7028 169.961 88.7564 168.625L89.4755 168.435L89.7157 169.139C93.1084 179.084 93.3593 182.646 93.3685 182.793C93.3812 183.004 93.3095 183.212 93.1691 183.371C93.0288 183.53 92.8311 183.626 92.6196 183.64C92.5148 183.647 92.4097 183.633 92.3104 183.599C92.211 183.565 92.1194 183.511 92.0408 183.442C91.9622 183.372 91.8982 183.288 91.8525 183.193C91.8069 183.098 91.7804 182.996 91.7747 182.891C91.7724 182.86 91.5184 179.51 88.4575 170.404C84.0948 172.116 78.9367 179.167 73.1106 191.386C72.9734 191.673 72.6874 191.841 72.39 191.841Z" fill="black"/>
</g>
<mask id="mask6_347_65539" style="mask-type:alpha" maskUnits="userSpaceOnUse" x="25" y="28" width="190" height="190">
<path d="M119.318 28.5C67.2307 28.7059 25.074 71.0487 25.074 123.25C25.074 175.579 67.4404 218 119.704 218C171.967 218 214.335 175.579 214.335 123.25C214.335 71.0487 172.178 28.7059 120.091 28.5" fill="white"/>
</mask>
<g mask="url(#mask6_347_65539)">
<path fill-rule="evenodd" clip-rule="evenodd" d="M59.9156 286.43C59.5702 299.02 60.059 311.636 60.698 324.208C61.4713 339.402 62.5801 354.576 63.8376 369.736C65.0623 384.509 66.4395 399.272 67.9173 414.024C69.0715 425.54 70.2873 437.05 71.5647 448.553C72.0856 453.241 72.6187 457.928 73.1639 462.613C73.2249 463.143 73.1974 463.81 73.3637 464.319C73.3865 464.382 73.382 464.464 73.3896 464.531L74.6913 463.538C69.258 462.256 63.8643 460.785 58.4995 459.249C48.2452 456.31 37.9817 453.09 28.1887 448.828C24.0388 447.02 19.8713 445.036 16.1758 442.395C15.4819 441.899 14.8116 441.373 14.1802 440.801C13.8957 440.545 13.62 440.28 13.3535 440.006C13.2544 439.905 12.5666 439.131 12.8869 439.516C12.8379 439.451 12.7965 439.38 12.7633 439.306C12.6474 439.074 12.8213 439.527 12.7252 439.207C12.6533 438.967 12.5922 438.724 12.5422 438.478C12.5201 438.382 12.4674 438.028 12.4857 438.155C12.504 438.287 12.4499 437.842 12.4407 437.741C12.4065 437.355 12.3821 436.968 12.3675 436.581C12.3309 435.612 12.3447 434.64 12.379 433.67C12.4705 430.957 12.716 428.25 13.002 425.551C13.8538 417.53 15.1136 409.55 16.4565 401.598C18.2523 390.967 20.2716 380.374 22.4107 369.805C24.8967 357.526 27.5542 345.281 30.3567 333.07C33.3426 320.035 36.5036 307.041 39.8386 294.091C43.1306 281.316 46.6011 268.585 50.324 255.927C53.7098 244.412 57.2954 232.95 61.257 221.619C62.134 219.11 63.0315 216.609 63.952 214.115C64.4095 212.869 62.4238 212.333 61.9693 213.566C57.9078 224.588 54.2711 235.762 50.8501 246.997C47.0235 259.556 43.4791 272.2 40.1169 284.891C36.6581 297.972 33.3823 311.099 30.2903 324.271C27.3268 336.862 24.5253 349.491 21.8868 362.154C19.5861 373.215 17.4097 384.305 15.4468 395.431C13.9186 404.092 12.4941 412.778 11.4143 421.508C10.7776 426.645 10.0165 431.977 10.3414 437.166C10.4199 438.409 10.5152 439.814 11.3205 440.824C13.6494 443.737 17.3449 445.755 20.5759 447.467C29.9876 452.453 40.2748 455.862 50.4216 458.994C57.8648 461.294 65.3744 463.374 72.9404 465.231C73.3415 465.33 73.7419 465.427 74.1438 465.523C74.7249 465.66 75.5286 465.228 75.4455 464.531C74.933 460.243 74.448 455.952 73.9669 451.66C72.7449 440.761 71.5791 429.856 70.4697 418.945C68.9864 404.439 67.6196 389.921 66.3693 375.392C65.0638 360.12 63.8978 344.831 63.0376 329.526C62.3056 316.48 61.7283 303.4 61.8938 290.329C61.909 289.028 61.9357 287.73 61.9715 286.43C62.0089 285.106 59.953 285.107 59.9164 286.43" fill="black"/>
</g>
<mask id="mask7_347_65539" style="mask-type:alpha" maskUnits="userSpaceOnUse" x="25" y="28" width="190" height="190">
<path d="M119.318 28.5C67.2307 28.7059 25.074 71.0487 25.074 123.25C25.074 175.579 67.4404 218 119.704 218C171.967 218 214.335 175.579 214.335 123.25C214.335 71.0487 172.178 28.7059 120.091 28.5" fill="white"/>
</mask>
<g mask="url(#mask7_347_65539)">
<path fill-rule="evenodd" clip-rule="evenodd" d="M60.5768 281.42C60.5768 281.42 56.1378 239.242 71.0927 186.452L80.6722 185.44L75.4226 177.358C75.4226 177.358 101.696 147.354 93.6291 182.168C76.8753 209.886 60.5768 281.42 60.5768 281.42Z" fill="#BA8426"/>
</g>
<mask id="mask8_347_65539" style="mask-type:alpha" maskUnits="userSpaceOnUse" x="25" y="28" width="190" height="190">
<path d="M119.318 28.5C67.2307 28.7059 25.074 71.0487 25.074 123.25C25.074 175.579 67.4404 218 119.704 218C171.967 218 214.335 175.579 214.335 123.25C214.335 71.0487 172.178 28.7059 120.091 28.5" fill="white"/>
</mask>
<g mask="url(#mask8_347_65539)">
<path fill-rule="evenodd" clip-rule="evenodd" d="M240.614 429.636C240.614 429.636 207.299 458.406 144.556 464.531C140.015 450.242 129.546 300.017 129.588 265.314C129.623 230.611 129.532 176.64 151.305 173.854C161.403 174.164 169.329 183.116 176.045 197.754C195.199 239.522 204.462 327.613 226.015 393.382C230.329 406.546 235.133 418.811 240.614 429.635" fill="#FEAE02"/>
</g>
<mask id="mask9_347_65539" style="mask-type:alpha" maskUnits="userSpaceOnUse" x="25" y="28" width="190" height="190">
<path d="M119.318 28.5C67.2307 28.7059 25.074 71.0487 25.074 123.25C25.074 175.579 67.4404 218 119.704 218C171.967 218 214.335 175.579 214.335 123.25C214.335 71.0487 172.178 28.7059 120.091 28.5" fill="white"/>
</mask>
<g mask="url(#mask9_347_65539)">
<path fill-rule="evenodd" clip-rule="evenodd" d="M157.027 176.427C133.376 171.61 151.169 228.18 162.263 285.482C165.742 303.456 179.461 367.398 179.461 367.398L207.298 366.152C207.298 366.152 196.08 301.167 191.256 277.414C182.693 235.242 178.222 180.744 157.027 176.426" fill="#FDAF27"/>
</g>
<mask id="mask10_347_65539" style="mask-type:alpha" maskUnits="userSpaceOnUse" x="25" y="28" width="190" height="190">
<path d="M119.318 28.5C67.2307 28.7059 25.074 71.0487 25.074 123.25C25.074 175.579 67.4404 218 119.704 218C171.967 218 214.335 175.579 214.335 123.25C214.335 71.0487 172.178 28.7059 120.091 28.5" fill="white"/>
</mask>
<g mask="url(#mask10_347_65539)">
<path fill-rule="evenodd" clip-rule="evenodd" d="M129.585 288.962C129.585 288.962 141.865 269.588 152.124 195.367C148.659 193.935 144.6 192.295 144.6 192.295L165.133 177.167C165.133 177.167 134.695 150.542 130.494 199.288C127.711 231.569 129.584 288.962 129.584 288.962" fill="#BA8426"/>
</g>
<mask id="mask11_347_65539" style="mask-type:alpha" maskUnits="userSpaceOnUse" x="25" y="28" width="190" height="190">
<path d="M119.318 28.5C67.2307 28.7059 25.074 71.0487 25.074 123.25C25.074 175.579 67.4404 218 119.704 218C171.967 218 214.335 175.579 214.335 123.25C214.335 71.0487 172.178 28.7059 120.091 28.5" fill="white"/>
</mask>
<g mask="url(#mask11_347_65539)">
<path fill-rule="evenodd" clip-rule="evenodd" d="M145.078 168.918C136.333 170.11 132.604 179.558 130.796 187.073C127.871 199.233 127.774 212.089 127.817 224.528C127.863 237.906 128.544 251.273 128.557 264.651C128.564 271.495 128.801 278.335 129.079 285.172C129.483 295.049 129.999 304.921 130.558 314.789C131.224 326.458 131.948 338.124 132.732 349.786C133.538 361.847 134.401 373.904 135.321 385.957C136.174 397.184 137.097 408.405 138.091 419.62C138.889 428.575 139.734 437.527 140.75 446.46C141.374 451.939 141.932 457.491 143.082 462.892C143.219 463.534 143.366 464.177 143.564 464.805C143.688 465.201 144.1 465.605 144.554 465.559C165.134 463.526 185.481 458.863 204.652 451.045C215.749 446.521 226.573 441.027 236.392 434.119C238.079 432.929 239.776 431.715 241.341 430.364C242.346 429.5 240.885 428.049 239.887 428.909C235.642 432.57 230.249 435.873 225.184 438.792C211.542 446.654 196.775 452.516 181.615 456.691C169.485 460.031 157.07 462.265 144.554 463.502C144.885 463.753 145.214 464.005 145.545 464.258C144.264 460.183 143.929 455.695 143.402 451.481C142.387 443.329 141.583 435.15 140.817 426.972C139.824 416.344 138.931 405.708 138.086 395.068C137.151 383.232 136.273 371.392 135.453 359.547C134.635 347.794 133.873 336.038 133.166 324.278C132.543 313.857 131.965 303.431 131.478 293.001C131.12 285.305 130.789 277.604 130.654 269.9C130.468 259.175 130.308 248.453 130.064 237.727C129.763 224.472 129.505 211.09 131.021 197.895C131.631 192.606 132.543 187.261 134.374 182.243C135.694 178.624 137.657 174.8 140.96 172.615C142.377 171.679 143.944 171.131 145.625 170.902C146.929 170.724 146.374 168.741 145.078 168.918Z" fill="black"/>
</g>
<mask id="mask12_347_65539" style="mask-type:alpha" maskUnits="userSpaceOnUse" x="83" y="174" width="82" height="30">
<path d="M83.2982 174.313H164.464V203.512H83.2982V174.313Z" fill="white"/>
</mask>
<g mask="url(#mask12_347_65539)">
<path fill-rule="evenodd" clip-rule="evenodd" d="M83.298 174.313C85.7932 185.754 89.8241 190.691 101.222 195.32C112.231 199.791 159.551 217.288 164.466 181.324C141.203 186.454 83.298 174.313 83.298 174.313Z" fill="#DFE0E7"/>
</g>
<mask id="mask13_347_65539" style="mask-type:alpha" maskUnits="userSpaceOnUse" x="25" y="28" width="190" height="190">
<path d="M119.318 28.5C67.2307 28.7059 25.074 71.0487 25.074 123.25C25.074 175.579 67.4404 218 119.704 218C171.967 218 214.335 175.579 214.335 123.25C214.335 71.0487 172.178 28.7059 120.091 28.5" fill="white"/>
</mask>
<g mask="url(#mask13_347_65539)">
<path fill-rule="evenodd" clip-rule="evenodd" d="M90.8839 154.523C82.5382 156.288 74.9079 183.699 99.5391 188.414C120.27 192.382 147.124 178.667 147.558 159.764C147.985 141.248 106.973 151.119 90.8839 154.523Z" fill="#52005B"/>
</g>
<mask id="mask14_347_65539" style="mask-type:alpha" maskUnits="userSpaceOnUse" x="25" y="28" width="190" height="190">
<path d="M119.318 28.5C67.2307 28.7059 25.074 71.0487 25.074 123.25C25.074 175.579 67.4404 218 119.704 218C171.967 218 214.335 175.579 214.335 123.25C214.335 71.0487 172.178 28.7059 120.091 28.5" fill="white"/>
</mask>
<g mask="url(#mask14_347_65539)">
<path fill-rule="evenodd" clip-rule="evenodd" d="M158.852 171.118C152.476 167.488 146.401 166.21 146.401 166.21L144.357 169.223C137.856 168.902 132.733 169.909 132.733 169.909L84.7819 175.828C77.4185 189.904 137.285 201.067 137.285 201.067C156.213 200.764 163.159 187.333 163.903 181.324C164.177 178.088 169.3 185.703 169.3 185.703C169.994 182.527 164.466 174.313 158.853 171.118" fill="#52005B"/>
</g>
<mask id="mask15_347_65539" style="mask-type:alpha" maskUnits="userSpaceOnUse" x="25" y="28" width="190" height="190">
<path d="M119.318 28.5C67.2307 28.7059 25.074 71.0487 25.074 123.25C25.074 175.579 67.4404 218 119.704 218C171.967 218 214.335 175.579 214.335 123.25C214.335 71.0487 172.178 28.7059 120.091 28.5" fill="white"/>
</mask>
<g mask="url(#mask15_347_65539)">
<path fill-rule="evenodd" clip-rule="evenodd" d="M91.6725 158.685C91.6725 158.685 92.0408 170.709 101.218 171.773C116.626 173.561 131.416 166.089 136.985 152.857C125.307 160.079 116.92 168.789 106.017 167.591C95.1163 166.394 91.6725 158.685 91.6725 158.685Z" fill="#52005B"/>
</g>
<mask id="mask16_347_65539" style="mask-type:alpha" maskUnits="userSpaceOnUse" x="25" y="28" width="190" height="190">
<path d="M119.318 28.5C67.2307 28.7059 25.074 71.0487 25.074 123.25C25.074 175.579 67.4404 218 119.704 218C171.967 218 214.335 175.579 214.335 123.25C214.335 71.0487 172.178 28.7059 120.091 28.5" fill="white"/>
</mask>
<g mask="url(#mask16_347_65539)">
<path fill-rule="evenodd" clip-rule="evenodd" d="M90.611 153.53C86.9873 154.331 84.7133 158.235 83.4474 161.409C81.6996 165.783 81.2893 170.832 82.5018 175.396C83.9423 180.814 87.8154 185.093 92.8804 187.399C99.6658 190.49 107.618 190.652 114.867 189.462C122.312 188.239 129.646 185.362 135.777 180.932C141.302 176.939 146.125 171.468 147.885 164.74C148.578 162.096 148.952 159.088 148.182 156.414C147.597 154.384 146.335 152.689 144.66 151.426C140.703 148.446 135.165 147.937 130.385 147.824C124.009 147.673 117.618 148.453 111.331 149.451C105.48 150.379 99.6765 151.583 93.8863 152.829C92.7943 153.063 91.703 153.298 90.611 153.53C89.3177 153.803 89.8652 155.788 91.1578 155.515C102.227 153.171 113.338 150.625 124.668 149.99C129.794 149.704 135.28 149.648 140.182 151.387C143.835 152.68 146.441 155.266 146.531 159.208C146.677 165.491 143.298 171.31 138.947 175.601C133.894 180.582 127.37 184.007 120.611 186.024C113.789 188.062 106.376 188.775 99.36 187.331C93.8314 186.193 88.5521 183.431 85.8205 178.291C83.7242 174.349 83.4207 169.608 84.3945 165.299C84.8414 163.319 85.5178 161.454 86.5282 159.711C87.3236 158.338 88.3881 156.984 89.5671 156.209C90.2259 155.775 90.444 155.672 91.1578 155.515C92.4496 155.229 91.9013 153.245 90.611 153.53Z" fill="black"/>
</g>
<mask id="mask17_347_65539" style="mask-type:alpha" maskUnits="userSpaceOnUse" x="25" y="28" width="190" height="190">
<path d="M119.318 28.5C67.2307 28.7059 25.074 71.0487 25.074 123.25C25.074 175.579 67.4404 218 119.704 218C171.967 218 214.335 175.579 214.335 123.25C214.335 71.0487 172.178 28.7059 120.091 28.5" fill="white"/>
</mask>
<g mask="url(#mask17_347_65539)">
<path fill-rule="evenodd" clip-rule="evenodd" d="M88.35 155.328C86.291 160.719 86.4069 167.784 90.3777 172.254C94.5764 176.983 101.764 177.729 107.687 177.595C114.319 177.445 120.849 175.709 126.743 172.68C129.691 171.166 132.691 169.332 135.105 167.031C136.065 166.116 134.609 164.662 133.652 165.575C131.878 167.267 129.835 168.584 127.598 169.872C122.472 172.829 116.719 174.765 110.824 175.346C107.241 175.701 103.514 175.663 99.9739 174.962C97.4956 174.471 94.9676 173.598 93.0086 171.946C90.1321 169.52 89.0554 165.952 89.1354 162.339C89.182 160.174 89.5198 158.004 90.3319 155.874C90.8047 154.636 88.8167 154.101 88.35 155.328Z" fill="black"/>
</g>
<mask id="mask18_347_65539" style="mask-type:alpha" maskUnits="userSpaceOnUse" x="25" y="28" width="190" height="190">
<path d="M119.318 28.5C67.2307 28.7059 25.074 71.0487 25.074 123.25C25.074 175.579 67.4404 218 119.704 218C171.967 218 214.335 175.579 214.335 123.25C214.335 71.0487 172.178 28.7059 120.091 28.5" fill="white"/>
</mask>
<g mask="url(#mask18_347_65539)">
<path fill-rule="evenodd" clip-rule="evenodd" d="M94.1386 188.335C96.1389 189.443 98.2108 190.434 100.282 191.395C105.206 193.681 110.259 195.708 115.426 197.383C121.549 199.367 127.883 200.88 134.315 201.365C140.381 201.82 146.72 201.294 152.252 198.583C158.113 195.711 162.083 190.416 164.122 184.295C164.417 183.407 164.671 182.506 164.896 181.597C165.212 180.312 163.232 179.763 162.913 181.051C161.407 187.149 158.216 192.766 152.688 196.013C147.686 198.954 141.715 199.652 136.009 199.408C129.742 199.138 123.55 197.742 117.57 195.903C112.403 194.314 107.356 192.358 102.473 190.146C100.034 189.042 97.6701 187.811 95.2787 186.613C95.244 186.596 95.2099 186.577 95.1765 186.558C94.0174 185.916 92.9803 187.694 94.1386 188.334" fill="black"/>
</g>
<mask id="mask19_347_65539" style="mask-type:alpha" maskUnits="userSpaceOnUse" x="25" y="28" width="190" height="190">
<path d="M119.318 28.5C67.2307 28.7059 25.074 71.0487 25.074 123.25C25.074 175.579 67.4404 218 119.704 218C171.967 218 214.335 175.579 214.335 123.25C214.335 71.0487 172.178 28.7059 120.091 28.5" fill="white"/>
</mask>
<g mask="url(#mask19_347_65539)">
<path fill-rule="evenodd" clip-rule="evenodd" d="M88.9699 82.4881C82.0694 93.3853 74.8897 164.131 101.006 165.784C136.478 168.031 149.125 126.771 154.166 115.241C159.209 103.711 159.913 74.6488 131.619 65.6634C108.246 58.2405 96.6079 70.4279 88.9699 82.4881Z" fill="#F8B498"/>
</g>
<mask id="mask20_347_65539" style="mask-type:alpha" maskUnits="userSpaceOnUse" x="25" y="28" width="190" height="190">
<path d="M119.318 28.5C67.2307 28.7059 25.074 71.0487 25.074 123.25C25.074 175.579 67.4404 218 119.704 218C171.967 218 214.335 175.579 214.335 123.25C214.335 71.0487 172.178 28.7059 120.091 28.5H119.318Z" fill="white"/>
</mask>
<g mask="url(#mask20_347_65539)">
<path fill-rule="evenodd" clip-rule="evenodd" d="M86.0232 90.3891C86.0232 90.3891 100.568 82.2989 116.811 86.7028C133.746 91.2973 141.019 105.071 141.019 105.071L137.078 77.8256L109.298 70.9548L92.3495 79.0763L86.0773 88.1829L86.0232 90.3891Z" fill="#DB7368"/>
</g>
<mask id="mask21_347_65539" style="mask-type:alpha" maskUnits="userSpaceOnUse" x="25" y="28" width="190" height="190">
<path d="M119.318 28.5C67.2307 28.7059 25.074 71.0487 25.074 123.25C25.074 175.579 67.4404 218 119.704 218C171.967 218 214.335 175.579 214.335 123.25C214.335 71.0487 172.178 28.7059 120.091 28.5" fill="white"/>
</mask>
<g mask="url(#mask21_347_65539)">
<path fill-rule="evenodd" clip-rule="evenodd" d="M81.2399 109.208C80.1441 121.931 80.3736 135.315 83.9997 147.646C85.4722 152.659 87.6478 157.719 91.2716 161.564C92.8623 163.251 94.726 164.675 96.8498 165.622C99.4273 166.772 102.266 167.108 105.063 167.156C112.885 167.291 120.183 164.066 126.262 159.307C127.303 158.491 126.095 156.826 125.05 157.644C119.91 161.668 113.915 164.591 107.333 165.049C104.525 165.244 101.461 165.127 98.7837 164.18C96.7926 163.477 95.0234 162.338 93.4891 160.893C89.9546 157.567 87.8423 152.907 86.3652 148.361C84.5289 142.704 83.6229 136.757 83.1463 130.842C82.5729 123.751 82.6606 116.611 83.2699 109.526C83.3827 108.214 81.3535 107.886 81.2399 109.208Z" fill="black"/>
</g>
<mask id="mask22_347_65539" style="mask-type:alpha" maskUnits="userSpaceOnUse" x="25" y="28" width="190" height="190">
<path d="M119.318 28.5C67.2307 28.7059 25.074 71.0487 25.074 123.25C25.074 175.579 67.4404 218 119.704 218C171.967 218 214.335 175.579 214.335 123.25C214.335 71.0487 172.178 28.7059 120.091 28.5" fill="white"/>
</mask>
<g mask="url(#mask22_347_65539)">
<path fill-rule="evenodd" clip-rule="evenodd" d="M113.49 124.569C113.49 124.569 115.34 120.985 118.491 120.039C123.049 118.669 125.772 121.797 128.143 126.47C128.143 126.47 120.205 132.336 113.49 124.569Z" fill="white"/>
</g>
<mask id="mask23_347_65539" style="mask-type:alpha" maskUnits="userSpaceOnUse" x="25" y="28" width="190" height="190">
<path d="M119.318 28.5C67.2307 28.7059 25.074 71.0487 25.074 123.25C25.074 175.579 67.4404 218 119.704 218C171.967 218 214.335 175.579 214.335 123.25C214.335 71.0487 172.178 28.7059 120.091 28.5" fill="white"/>
</mask>
<g mask="url(#mask23_347_65539)">
<path fill-rule="evenodd" clip-rule="evenodd" d="M114.425 124.993C114.583 124.693 114.586 124.7 114.708 124.513C115.042 124.004 115.413 123.52 115.818 123.065C116.873 121.886 118.191 121.024 119.777 120.803C123.521 120.279 125.72 123.979 127.186 126.845C127.784 128.013 129.704 127.276 129.099 126.094C127.226 122.429 124.445 118.218 119.749 118.732C116.59 119.078 113.988 121.395 112.552 124.146C111.939 125.322 113.815 126.163 114.425 124.992" fill="black"/>
</g>
<mask id="mask24_347_65539" style="mask-type:alpha" maskUnits="userSpaceOnUse" x="25" y="28" width="190" height="190">
<path d="M119.318 28.5C67.2307 28.7059 25.074 71.0487 25.074 123.25C25.074 175.579 67.4404 218 119.704 218C171.967 218 214.335 175.579 214.335 123.25C214.335 71.0487 172.178 28.7059 120.091 28.5" fill="white"/>
</mask>
<g mask="url(#mask24_347_65539)">
<path fill-rule="evenodd" clip-rule="evenodd" d="M125.298 125.655C125.225 126.118 125.063 126.562 124.819 126.962C124.575 127.363 124.255 127.711 123.876 127.987C123.498 128.263 123.069 128.462 122.613 128.573C122.158 128.683 121.685 128.703 121.222 128.631C120.295 128.475 119.466 127.96 118.916 127.198C118.366 126.435 118.138 125.486 118.284 124.557C118.429 123.628 118.935 122.793 119.692 122.235C120.449 121.676 121.395 121.439 122.326 121.575C122.789 121.647 123.233 121.81 123.633 122.055C124.033 122.299 124.381 122.62 124.657 122.999C124.933 123.378 125.131 123.807 125.241 124.263C125.351 124.718 125.37 125.191 125.298 125.654" fill="black"/>
</g>
<mask id="mask25_347_65539" style="mask-type:alpha" maskUnits="userSpaceOnUse" x="25" y="28" width="190" height="190">
<path d="M119.318 28.5C67.2307 28.7059 25.074 71.0487 25.074 123.25C25.074 175.579 67.4404 218 119.704 218C171.967 218 214.335 175.579 214.335 123.25C214.335 71.0487 172.178 28.7059 120.091 28.5" fill="white"/>
</mask>
<g mask="url(#mask25_347_65539)">
<path fill-rule="evenodd" clip-rule="evenodd" d="M124.485 124.001C124.466 124.132 124.421 124.258 124.353 124.372C124.285 124.485 124.195 124.584 124.088 124.662C123.981 124.741 123.86 124.798 123.732 124.829C123.603 124.86 123.469 124.866 123.338 124.845C123.208 124.825 123.082 124.779 122.969 124.709C122.856 124.64 122.759 124.549 122.681 124.441C122.604 124.334 122.548 124.212 122.518 124.083C122.488 123.954 122.484 123.821 122.506 123.69C122.525 123.559 122.57 123.433 122.638 123.319C122.706 123.206 122.796 123.107 122.903 123.029C123.01 122.95 123.131 122.893 123.26 122.862C123.388 122.831 123.522 122.825 123.653 122.846C123.784 122.866 123.909 122.913 124.022 122.982C124.135 123.051 124.233 123.142 124.31 123.25C124.388 123.357 124.443 123.479 124.473 123.608C124.503 123.737 124.507 123.87 124.485 124.001Z" fill="white"/>
</g>
<mask id="mask26_347_65539" style="mask-type:alpha" maskUnits="userSpaceOnUse" x="25" y="28" width="190" height="190">
<path d="M119.318 28.5C67.2307 28.7059 25.074 71.0487 25.074 123.25C25.074 175.579 67.4404 218 119.704 218C171.967 218 214.335 175.579 214.335 123.25C214.335 71.0487 172.178 28.7059 120.091 28.5" fill="white"/>
</mask>
<g mask="url(#mask26_347_65539)">
<path fill-rule="evenodd" clip-rule="evenodd" d="M128.346 125.266L130.545 123.796C130.649 123.726 130.753 123.656 130.858 123.588C131.304 123.287 131.418 122.572 131.082 122.15C130.918 121.934 130.677 121.79 130.409 121.748C130.142 121.706 129.868 121.769 129.646 121.924L127.447 123.394L127.136 123.604C126.686 123.903 126.574 124.618 126.911 125.041C127.269 125.491 127.869 125.586 128.346 125.266Z" fill="black"/>
</g>
<mask id="mask27_347_65539" style="mask-type:alpha" maskUnits="userSpaceOnUse" x="25" y="28" width="190" height="190">
<path d="M119.318 28.5C67.2307 28.7059 25.074 71.0487 25.074 123.25C25.074 175.579 67.4404 218 119.704 218C171.967 218 214.335 175.579 214.335 123.25C214.335 71.0487 172.178 28.7059 120.091 28.5" fill="white"/>
</mask>
<g mask="url(#mask27_347_65539)">
<path fill-rule="evenodd" clip-rule="evenodd" d="M86.1285 120.278C86.1285 120.278 87.9801 116.694 91.131 115.748C95.6874 114.378 98.4136 117.506 100.782 122.179C100.782 122.179 92.8445 128.045 86.1285 120.278Z" fill="white"/>
</g>
<mask id="mask28_347_65539" style="mask-type:alpha" maskUnits="userSpaceOnUse" x="25" y="28" width="190" height="190">
<path d="M119.318 28.5C67.2307 28.7059 25.074 71.0487 25.074 123.25C25.074 175.579 67.4404 218 119.704 218C171.967 218 214.335 175.579 214.335 123.25C214.335 71.0487 172.178 28.7059 120.091 28.5" fill="white"/>
</mask>
<g mask="url(#mask28_347_65539)">
<path fill-rule="evenodd" clip-rule="evenodd" d="M87.0659 120.702C87.2222 120.402 87.2253 120.409 87.3488 120.222C87.6829 119.713 88.0538 119.229 88.4584 118.774C89.5122 117.595 90.8315 116.734 92.4169 116.512C96.1611 115.988 98.3604 119.688 99.8261 122.554C100.423 123.722 102.345 122.985 101.739 121.803C99.8665 118.138 97.0854 113.927 92.3887 114.441C89.2301 114.787 86.6282 117.104 85.1922 119.855C84.5791 121.031 86.4543 121.872 87.0659 120.701" fill="black"/>
</g>
<mask id="mask29_347_65539" style="mask-type:alpha" maskUnits="userSpaceOnUse" x="25" y="28" width="190" height="190">
<path d="M119.318 28.5C67.2307 28.7059 25.074 71.0487 25.074 123.25C25.074 175.579 67.4404 218 119.704 218C171.967 218 214.335 175.579 214.335 123.25C214.335 71.0487 172.178 28.7059 120.091 28.5" fill="white"/>
</mask>
<g mask="url(#mask29_347_65539)">
<path fill-rule="evenodd" clip-rule="evenodd" d="M97.9653 121.276C97.8907 121.752 97.723 122.209 97.4719 122.62C97.2208 123.031 96.8912 123.389 96.5019 123.673C96.1125 123.956 95.6711 124.161 95.2029 124.274C94.7346 124.387 94.2486 124.407 93.7727 124.332C93.2968 124.257 92.8402 124.09 92.4291 123.839C92.0179 123.587 91.6603 123.258 91.3765 122.869C91.0928 122.479 90.8885 122.038 90.7754 121.57C90.6622 121.101 90.6424 120.615 90.717 120.139C90.791 119.663 90.9582 119.206 91.2089 118.795C91.4596 118.383 91.789 118.025 92.1783 117.741C92.5676 117.457 93.009 117.252 93.4775 117.139C93.9459 117.025 94.432 117.005 94.9082 117.08C95.3845 117.155 95.8414 117.323 96.2528 117.574C96.6642 117.825 97.022 118.155 97.3059 118.545C97.5898 118.935 97.7942 119.376 97.9073 119.845C98.0205 120.314 98.0402 120.8 97.9653 121.276Z" fill="black"/>
</g>
<mask id="mask30_347_65539" style="mask-type:alpha" maskUnits="userSpaceOnUse" x="25" y="28" width="190" height="190">
<path d="M119.318 28.5C67.2307 28.7059 25.074 71.0487 25.074 123.25C25.074 175.579 67.4404 218 119.704 218C171.967 218 214.335 175.579 214.335 123.25C214.335 71.0487 172.178 28.7059 120.091 28.5" fill="white"/>
</mask>
<g mask="url(#mask30_347_65539)">
<path fill-rule="evenodd" clip-rule="evenodd" d="M97.1295 119.574C97.1085 119.708 97.0615 119.836 96.991 119.952C96.9205 120.067 96.8279 120.168 96.7186 120.248C96.6093 120.327 96.4853 120.385 96.3538 120.417C96.2223 120.448 96.0857 120.454 95.9521 120.433C95.8184 120.412 95.6901 120.365 95.5746 120.295C95.4591 120.224 95.3586 120.132 95.2789 120.022C95.1991 119.913 95.1417 119.789 95.1099 119.657C95.0781 119.526 95.0725 119.389 95.0934 119.256C95.1105 119.119 95.155 118.986 95.2242 118.867C95.2934 118.747 95.3859 118.643 95.4963 118.56C95.6066 118.477 95.7325 118.417 95.8665 118.383C96.0005 118.35 96.1398 118.344 96.2763 118.365C96.4127 118.386 96.5435 118.435 96.6607 118.508C96.778 118.581 96.8795 118.677 96.9591 118.789C97.0386 118.902 97.0947 119.03 97.124 119.165C97.1533 119.3 97.1551 119.439 97.1295 119.575" fill="white"/>
</g>
<mask id="mask31_347_65539" style="mask-type:alpha" maskUnits="userSpaceOnUse" x="25" y="28" width="190" height="190">
<path d="M119.318 28.5C67.2307 28.7059 25.074 71.0487 25.074 123.25C25.074 175.579 67.4404 218 119.704 218C171.967 218 214.335 175.579 214.335 123.25C214.335 71.0487 172.178 28.7059 120.091 28.5" fill="white"/>
</mask>
<g mask="url(#mask31_347_65539)">
<path fill-rule="evenodd" clip-rule="evenodd" d="M88.375 117.258C87.4424 116.38 86.51 115.503 85.5779 114.625C85.3903 114.449 85.0578 114.371 84.8115 114.4C84.5652 114.428 84.2815 114.57 84.1313 114.772C83.779 115.245 83.8583 115.825 84.2777 116.22L86.7294 118.527L87.0756 118.852C87.2624 119.028 87.5949 119.106 87.8412 119.077C88.0868 119.049 88.3712 118.908 88.5215 118.706C88.8745 118.231 88.7952 117.652 88.375 117.257" fill="black"/>
</g>
<mask id="mask32_347_65539" style="mask-type:alpha" maskUnits="userSpaceOnUse" x="25" y="28" width="190" height="190">
<path d="M119.318 28.5C67.2307 28.7059 25.074 71.0487 25.074 123.25C25.074 175.579 67.4404 218 119.704 218C171.967 218 214.335 175.579 214.335 123.25C214.335 71.0487 172.178 28.7059 120.091 28.5" fill="white"/>
</mask>
<g mask="url(#mask32_347_65539)">
<path fill-rule="evenodd" clip-rule="evenodd" d="M99.357 154.952C99.816 155.364 100.461 155.637 101.042 155.821C102.719 156.352 104.494 156.35 106.219 156.063C106.747 155.974 107.214 155.491 107.122 154.923C107.038 154.396 106.553 153.922 105.985 154.018C105.502 154.098 105.015 154.159 104.524 154.189C104.292 154.204 104.061 154.206 103.829 154.21C103.598 154.214 103.977 154.22 103.732 154.209C103.646 154.204 103.556 154.201 103.468 154.195C103.125 154.173 102.784 154.132 102.446 154.069C102.3 154.042 102.155 154.011 102.011 153.975C101.943 153.957 101.867 153.925 101.796 153.918C101.908 153.928 102.003 153.985 101.834 153.928C101.471 153.804 101.119 153.648 100.783 153.462C100.701 153.419 101.042 153.639 100.848 153.501L100.736 153.422C100.709 153.402 100.682 153.38 100.656 153.357C100.256 152.996 99.5308 153.073 99.2098 153.504C98.8628 153.969 98.9292 154.567 99.357 154.952Z" fill="black"/>
</g>
<mask id="mask33_347_65539" style="mask-type:alpha" maskUnits="userSpaceOnUse" x="25" y="28" width="190" height="190">
<path d="M119.318 28.5C67.2307 28.7059 25.074 71.0487 25.074 123.25C25.074 175.579 67.4404 218 119.704 218C171.967 218 214.335 175.579 214.335 123.25C214.335 71.0487 172.178 28.7059 120.091 28.5" fill="white"/>
</mask>
<g mask="url(#mask33_347_65539)">
<path fill-rule="evenodd" clip-rule="evenodd" d="M125.127 160.086C126.535 157.943 139.881 150.032 139.739 113.255C139.593 75.3054 94.516 74.2835 85.436 94.1418C85.436 94.1418 91.0745 58.1002 126.72 62.5833C145.782 64.9809 161.99 84.3907 161.141 105.379C160.454 122.327 151.462 164.109 125.127 160.086Z" fill="#52005B"/>
</g>
<mask id="mask34_347_65539" style="mask-type:alpha" maskUnits="userSpaceOnUse" x="25" y="28" width="190" height="190">
<path d="M119.318 28.5C67.2307 28.7059 25.074 71.0487 25.074 123.25C25.074 175.579 67.4404 218 119.704 218C171.967 218 214.335 175.579 214.335 123.25C214.335 71.0487 172.178 28.7059 120.091 28.5" fill="white"/>
</mask>
<g mask="url(#mask34_347_65539)">
<path fill-rule="evenodd" clip-rule="evenodd" d="M141.582 157.722C146.857 151.856 151.628 145.476 155.112 138.367C158.228 132.012 160.197 125.167 161.279 118.181C162.413 110.867 163.089 103.319 161.465 96.03C159.904 89.0257 156.783 82.3532 152.424 76.6522C148.261 71.2028 142.828 66.4489 136.395 63.908C133.236 62.6604 129.837 62.0031 126.474 61.5882C123.458 61.2161 120.392 61.1086 117.361 61.3564C112.029 61.7911 106.838 63.4047 102.283 66.2323C98.0848 68.8373 94.5419 72.4366 91.7432 76.4958C85.8752 85.0016 82.9126 95.3177 81.6315 105.484C81.4751 106.723 81.3444 107.964 81.2395 109.208C81.1282 110.52 83.1582 110.849 83.2703 109.527C84.1091 99.6629 86.425 89.6693 91.333 80.9973C96.1029 72.5709 103.691 65.9845 113.324 64.0071C119.177 62.8053 125.214 63.2003 131.027 64.451C137.488 65.8427 143.087 69.4351 147.628 74.1814C152.447 79.2167 156.064 85.4424 158.25 92.0508C159.319 95.2842 160.026 98.6342 160.298 102.031C160.588 105.641 160.261 109.275 159.889 112.867C159.172 119.789 157.779 126.648 155.192 133.123C152.488 139.891 148.577 146.059 144.012 151.716C142.713 153.32 141.371 154.889 139.988 156.421C139.102 157.408 140.698 158.705 141.582 157.722Z" fill="black"/>
</g>
<mask id="mask35_347_65539" style="mask-type:alpha" maskUnits="userSpaceOnUse" x="25" y="28" width="190" height="190">
<path d="M119.318 28.5C67.2307 28.7059 25.074 71.0487 25.074 123.25C25.074 175.579 67.4404 218 119.704 218C171.967 218 214.335 175.579 214.335 123.25C214.335 71.0487 172.178 28.7059 120.091 28.5" fill="white"/>
</mask>
<g mask="url(#mask35_347_65539)">
<path fill-rule="evenodd" clip-rule="evenodd" d="M99.9869 121.771C98.0575 125.207 96.0718 128.73 95.1232 132.587C94.703 134.295 94.4841 136.292 95.3756 137.889C96.3669 139.667 98.7477 140.589 100.682 140.021C102.063 139.616 103.217 138.526 103.921 137.291C104.575 136.137 102.696 135.3 102.047 136.443C102.02 136.489 102.227 136.203 102.038 136.451C101.904 136.629 101.78 136.808 101.636 136.977C101.292 137.375 100.874 137.736 100.354 137.961C99.1526 138.48 97.497 137.795 97.0326 136.612C96.5087 135.276 96.9366 133.594 97.3209 132.28C97.8341 130.524 98.5944 128.835 99.4012 127.196C100.165 125.641 101.011 124.13 101.861 122.619C102.509 121.462 100.631 120.625 99.9869 121.771" fill="black"/>
</g>
<mask id="mask36_347_65539" style="mask-type:alpha" maskUnits="userSpaceOnUse" x="25" y="28" width="190" height="190">
<path d="M119.318 28.5C67.2307 28.7059 25.074 71.0487 25.074 123.25C25.074 175.579 67.4404 218 119.704 218C171.967 218 214.335 175.579 214.335 123.25C214.335 71.0487 172.178 28.7059 120.091 28.5" fill="white"/>
</mask>
<g mask="url(#mask36_347_65539)">
<path fill-rule="evenodd" clip-rule="evenodd" d="M87.0109 107.472C86.7615 107.472 86.5076 107.422 86.262 107.316C85.3187 106.907 84.8909 105.795 85.2996 104.849C85.4773 104.437 87.2152 100.768 93.2708 98.7524C99.1686 96.7888 102.8 98.0432 103.196 98.1927C103.658 98.3682 104.032 98.72 104.235 99.1708C104.438 99.6216 104.453 100.135 104.279 100.597C104.192 100.826 104.062 101.036 103.894 101.215C103.727 101.393 103.526 101.537 103.303 101.638C103.079 101.739 102.839 101.794 102.594 101.802C102.349 101.809 102.105 101.768 101.876 101.681C101.871 101.679 99.0893 100.745 94.4452 102.292C89.9742 103.78 88.7556 106.256 88.7045 106.361C88.5624 106.691 88.3261 106.973 88.0251 107.171C87.7242 107.369 87.3717 107.473 87.0116 107.472" fill="black"/>
</g>
<mask id="mask37_347_65539" style="mask-type:alpha" maskUnits="userSpaceOnUse" x="25" y="28" width="190" height="190">
<path d="M119.318 28.5C67.2307 28.7059 25.074 71.0487 25.074 123.25C25.074 175.579 67.4404 218 119.704 218C171.967 218 214.335 175.579 214.335 123.25C214.335 71.0487 172.178 28.7059 120.091 28.5" fill="white"/>
</mask>
<g mask="url(#mask37_347_65539)">
<path fill-rule="evenodd" clip-rule="evenodd" d="M132.813 113.654C132.354 113.654 131.912 113.484 131.571 113.177C131.229 112.87 131.013 112.448 130.964 111.992C130.94 111.822 130.507 109.016 126.659 106.448C122.625 103.756 119.694 104.067 119.573 104.084C119.085 104.144 118.593 104.008 118.203 103.707C117.814 103.407 117.559 102.965 117.493 102.477C117.426 101.993 117.553 101.502 117.847 101.11C118.141 100.719 118.577 100.46 119.061 100.389C119.235 100.364 123.423 99.8046 128.726 103.344C134.171 106.979 134.652 111.425 134.67 111.613C134.695 111.872 134.665 112.133 134.583 112.379C134.501 112.626 134.368 112.852 134.193 113.044C134.018 113.236 133.805 113.39 133.568 113.495C133.33 113.6 133.073 113.654 132.813 113.654Z" fill="black"/>
</g>
<mask id="mask38_347_65539" style="mask-type:alpha" maskUnits="userSpaceOnUse" x="25" y="28" width="190" height="190">
<path d="M119.318 28.5C67.2307 28.7059 25.074 71.0487 25.074 123.25C25.074 175.579 67.4404 218 119.704 218C171.967 218 214.335 175.579 214.335 123.25C214.335 71.0487 172.178 28.7059 120.091 28.5" fill="white"/>
</mask>
<g mask="url(#mask38_347_65539)">
<path fill-rule="evenodd" clip-rule="evenodd" d="M106.222 148.583C105.976 150.422 104.407 151.728 102.718 151.502C101.032 151.275 99.8618 149.599 100.108 147.761C100.355 145.921 101.925 144.614 103.612 144.841C105.3 145.068 106.469 146.743 106.222 148.582" fill="black"/>
</g>
<path fill-rule="evenodd" clip-rule="evenodd" d="M189.336 42.2729L155.022 101.784C152.063 106.913 155.762 113.326 161.677 113.326H230.307C236.222 113.326 239.92 106.913 236.963 101.784L202.647 42.2729C199.689 37.1431 192.294 37.1431 189.336 42.2729Z" fill="#FCD22A"/>
<path fill-rule="evenodd" clip-rule="evenodd" d="M230.307 114.924H220.401C219.977 114.924 219.57 114.756 219.271 114.456C218.971 114.156 218.802 113.75 218.802 113.326C218.802 112.902 218.971 112.495 219.271 112.195C219.57 111.895 219.977 111.727 220.401 111.727H230.307C232.508 111.727 234.479 110.587 235.58 108.679C236.121 107.754 236.406 106.702 236.406 105.63C236.406 104.559 236.121 103.507 235.58 102.582L201.266 43.0721C200.164 41.1642 198.193 40.0241 195.993 40.0241C193.791 40.0241 191.82 41.1642 190.719 43.0721L156.403 102.582C155.863 103.507 155.578 104.559 155.578 105.63C155.578 106.702 155.863 107.754 156.403 108.679C157.505 110.587 159.477 111.727 161.677 111.727H206.364C207.247 111.727 207.961 112.443 207.961 113.325C207.961 113.535 207.92 113.743 207.84 113.937C207.76 114.131 207.642 114.307 207.494 114.455C207.346 114.604 207.17 114.722 206.976 114.802C206.783 114.883 206.575 114.924 206.365 114.924H161.677C158.322 114.924 155.318 113.186 153.638 110.277C151.961 107.368 151.961 103.894 153.639 100.984L187.955 41.4738C189.633 38.5645 192.637 36.8274 195.993 36.8274C199.348 36.8274 202.352 38.5638 204.03 41.4738L238.344 100.984C240.023 103.894 240.023 107.368 238.345 110.277C236.668 113.186 233.663 114.924 230.307 114.924Z" fill="black"/>
<path fill-rule="evenodd" clip-rule="evenodd" d="M195.991 102.817C192.108 102.817 189.404 100.109 189.404 96.2205C189.404 92.6867 192.463 89.6235 195.992 89.6242C199.876 89.6242 202.579 92.3314 202.58 96.219C202.58 99.7528 199.522 102.817 195.991 102.817ZM195.209 58.377H196.775C200.311 58.377 203.129 61.3396 202.958 64.8764L202.174 80.9507C202.097 82.5393 201.413 84.0377 200.262 85.1352C199.111 86.2328 197.582 86.8455 195.991 86.8462C194.401 86.8453 192.872 86.2325 191.721 85.135C190.571 84.0374 189.886 82.5392 189.81 80.9507L189.027 64.8756C188.854 61.3396 191.672 58.377 195.209 58.377Z" fill="black"/>
</svg>
