<svg xmlns="http://www.w3.org/2000/svg" xmlns:xlink="http://www.w3.org/1999/xlink" width="30" height="30" viewBox="0 0 30 30">
    <defs>
        <path id="54syntea4a" d="M0.504 0.061L6.694 0.061 6.694 2.642 0.504 2.642z"/>
        <path id="gsubuul17c" d="M0.504 0.36L6.694 0.36 6.694 7.608 0.504 7.608z"/>
    </defs>
    <g fill="none" fill-rule="evenodd">
        <g>
            <g>
                <g>
                    <g>
                        <path fill="#FFAD00" d="M2.52 1.01c-1.157 0-2.095.94-2.095 2.097v18.468c0 1.157.938 2.096 2.095 2.096h1.597c.093-.996.92-1.78 1.941-1.78 1.02 0 1.85.784 1.941 1.78h7.705c1.157 0 2.096-.94 2.096-2.096V3.107c0-1.157-.939-2.096-2.096-2.096H2.52z" transform="translate(-32 -5) translate(32 5) translate(5.7 2) translate(0 .856)"/>
                        <path fill="#FF8B00" d="M2.566 1.033C1.41 1.033.473 1.97.473 3.127v18.39c0 1.157.937 2.094 2.093 2.094h1.622l5.57-22.578H2.566z" transform="translate(-32 -5) translate(32 5) translate(5.7 2) translate(0 .856)"/>
                        <path fill="#FFF" d="M2.448 23.254l-1.756-.709V3.36C.472 1.494 1.787.917 3.135.917h3.074l2.571.116-4.545.208c-.962 0-1.793 1.157-1.793 2.118l.006 19.895z" transform="translate(-32 -5) translate(32 5) translate(5.7 2) translate(0 .856)"/>
                        <g stroke="#000" stroke-linecap="round" stroke-linejoin="round">
                            <path d="M0 .463L5.72.463M1.775 3.461L5.72 3.461" transform="translate(-32 -5) translate(32 5) translate(5.7 2) translate(0 .856) translate(9.982 12.294)"/>
                        </g>
                        <path stroke="#000" stroke-linecap="round" stroke-linejoin="round" d="M12.483 7.31h-2.142c-.38 0-.687-.308-.687-.687V4.648c0-.379.307-.686.687-.686h2.142c.38 0 .687.307.687.686v1.975c0 .379-.307.687-.687.687z" transform="translate(-32 -5) translate(32 5) translate(5.7 2) translate(0 .856)"/>
                    </g>
                    <g>
                        <g transform="translate(-32 -5) translate(32 5) translate(5.7 2) translate(0 8.263)">
                            <mask id="wgylnv4r7b" fill="#fff">
                                <use xlink:href="#54syntea4a"/>
                            </mask>
                            <path fill="#FFF" d="M5.653.085c-.529-.104-1.079.139-1.357.6-.066.11-.113.228-.144.348-.122-.47-.508-.852-.999-.948-.529-.104-1.079.139-1.356.6-.066.11-.114.228-.144.348C1.53.563 1.145.181.654.085.125-.02-.425.224-.703.685c-.28.463-.235 1.07.109 1.487.343.417.926.579 1.434.396.406-.147.709-.492.814-.899.045.182.129.355.252.503.343.417.926.579 1.434.396.406-.147.709-.492.813-.899.046.182.13.355.252.503.344.417.926.579 1.435.396.507-.183.854-.678.854-1.217 0-.608-.443-1.149-1.04-1.266" mask="url(#wgylnv4r7b)"/>
                        </g>
                        <g transform="translate(-32 -5) translate(32 5) translate(5.7 2) translate(0 8.263) translate(0 2.778)">
                            <mask id="esabniakxd" fill="#fff">
                                <use xlink:href="#gsubuul17c"/>
                            </mask>
                            <path fill="#FFF" d="M1.423 3.772c.136.583.483 1.125 1.09 1.291.576.156 1.219-.098 1.515-.62.178-.313.155-.667.154-1.013l-.002-.701c0-.257 0-.515.002-.772 0-.328-.009-.648.155-.947.227-.414.677-.667 1.148-.649.475.019.909.318 1.097.754.126.29.105.604.106.913l.001.765c0 .55.034 1.124-.073 1.665-.247 1.255-1.117 2.346-2.294 2.848-1.177.503-2.572.369-3.634-.347-.523-.352-.955-.84-1.238-1.403C-.83 4.997-1 4.3-.893 3.676c.08-.465.448-.845.91-.94.482-.099.985.123 1.236.545.092.153.13.319.17.491" mask="url(#esabniakxd)"/>
                        </g>
                    </g>
                    <path stroke="#000" stroke-linecap="round" stroke-linejoin="round" d="M15.705 1.89H2.593c-1.171 0-2.12.948-2.12 2.12v18.337c0 1.17.949 2.12 2.12 2.12h1.53c.12-.968.936-1.72 1.936-1.72 1 0 1.815.752 1.934 1.72h7.712c1.171 0 2.12-.95 2.12-2.12V4.01c0-1.172-.949-2.12-2.12-2.12z" transform="translate(-32 -5) translate(32 5) translate(5.7 2)"/>
                </g>
            </g>
        </g>
    </g>
</svg>
