<svg xmlns="http://www.w3.org/2000/svg" width="30" height="30" viewBox="0 0 30 30">
    <g fill="none" fill-rule="evenodd">
        <g>
            <g>
                <g>
                    <path fill="#CCC" d="M18.739 23.538H4.484c-1.453 0-2.631-1.152-2.631-2.574V3.536c0-1.422 1.178-2.574 2.63-2.574H18.74c1.453 0 2.63 1.152 2.63 2.574v17.428c0 1.422-1.177 2.574-2.63 2.574" transform="translate(-32 -5) translate(32 5) translate(4 3)"/>
                    <path fill="#E2E2E2" d="M11.037.962H4.483c-1.452 0-2.63 1.152-2.63 2.574v17.428c0 1.422 1.178 2.574 2.63 2.574H6.02L11.037.962z" transform="translate(-32 -5) translate(32 5) translate(4 3)"/>
                    <path fill="#FFF" d="M3.387 20.907V3.093C3.387 1.64 4.483.462 4.483.462h-.419C2.611.462 2.11 1.64 2.11 3.092v17.815c0 1.453 1.179 2.632 2.63 2.632h1.278c-1.453 0-2.631-1.179-2.631-2.632" transform="translate(-32 -5) translate(32 5) translate(4 3)"/>
                    <path stroke="#000" stroke-linecap="round" stroke-linejoin="round" d="M18.739 23.538H4.484c-1.453 0-2.631-1.152-2.631-2.574V3.536c0-1.422 1.178-2.574 2.63-2.574H18.74c1.453 0 2.63 1.152 2.63 2.574v17.428c0 1.422-1.177 2.574-2.63 2.574zM6.018.986L6.018 13.651M6.018 18.547L6.018 23.514" transform="translate(-32 -5) translate(32 5) translate(4 3)"/>
                    <path fill="#000" d="M5.551 15.244c-.039.195.052.398.222.5.04.025.083.042.127.053-.173.045-.313.188-.349.368-.039.194.052.397.222.5.04.024.083.041.127.053-.173.046-.313.187-.349.368-.039.195.052.398.222.5.17.102.394.086.547-.04.154-.128.213-.342.146-.53-.054-.148-.181-.26-.332-.298.068-.017.132-.048.186-.094.154-.126.213-.34.146-.528-.054-.148-.181-.26-.332-.299.068-.017.132-.048.186-.093.154-.126.213-.34.146-.528-.068-.186-.25-.315-.448-.315-.224 0-.424.164-.467.383" transform="translate(-32 -5) translate(32 5) translate(4 3)"/>
                    <path stroke="#000" stroke-linecap="round" stroke-linejoin="round" d="M.462 5.764L2.694 5.764M.462 11.302L2.694 11.302M.462 16.841L2.694 16.841M9.01 16.16c0-2.001 1.622-3.623 3.622-3.623 2.002 0 3.623 1.622 3.623 3.623M14.781 10.389c0 1.186-.962 2.148-2.149 2.148-1.186 0-2.148-.962-2.148-2.148 0-1.187.962-2.149 2.148-2.149 1.187 0 2.15.962 2.15 2.149z" transform="translate(-32 -5) translate(32 5) translate(4 3)"/>
                </g>
            </g>
        </g>
    </g>
</svg>
