<svg xmlns="http://www.w3.org/2000/svg" width="30" height="30" viewBox="0 0 30 30">
    <g fill="none" fill-rule="evenodd">
        <g>
            <g>
                <g>
                    <path fill="#CCC" d="M22.541 21.402V6.614h1.851L12.505.222l-11.14 6.35H3.12v15.326c0 .772.626 1.398 1.398 1.398h16.13c1.046 0 1.894-.848 1.894-1.894" transform="translate(-32 -5) translate(32 5) translate(2 3)"/>
                    <path fill="#FFF" d="M14.16 23.295h-3.02c-.588 0-1.064-.477-1.064-1.064v-7.497c0-.587.476-1.064 1.064-1.064h3.02c.589 0 1.066.477 1.066 1.064v7.497c0 .587-.477 1.064-1.065 1.064" transform="translate(-32 -5) translate(32 5) translate(2 3)"/>
                    <path fill="#E2E2E2" d="M13.504.698L3.301 6.068V22.2c0 .59.474 1.07 1.064 1.077l2.477.018L13.504.698z" transform="translate(-32 -5) translate(32 5) translate(2 3)"/>
                    <path fill="#231F20" d="M7.418 7.557c.182.035.372-.048.467-.207.023-.037.039-.078.05-.119.042.161.174.293.343.326.182.035.372-.048.468-.207.022-.037.038-.078.049-.119.042.161.175.293.344.326.182.035.37-.048.467-.207.096-.159.08-.368-.038-.512-.118-.143-.318-.199-.494-.135-.14.05-.243.168-.28.31-.015-.063-.044-.123-.086-.175-.118-.143-.32-.199-.494-.135-.14.05-.243.168-.28.31-.016-.063-.044-.123-.086-.175-.118-.143-.32-.199-.494-.135-.175.062-.294.232-.294.417 0 .21.152.396.358.437" transform="translate(-32 -5) translate(32 5) translate(2 3)"/>
                    <path fill="#FFF" d="M3.272 22.947L3.119 7.121 0.64 6.598 12.505 0.222 13.64 1.111 2.958 6.989 4.435 7.121 4.435 23.447z" transform="translate(-32 -5) translate(32 5) translate(2 3)"/>
                    <path stroke="#000" stroke-linecap="round" stroke-linejoin="round" d="M4.306 7.12H.913c-.44 0-.574-.595-.177-.784L11.375.76c.717-.34 1.547-.346 2.268-.016l11.029 5.59c.403.184.27.787-.172.787H11.405" transform="translate(-32 -5) translate(32 5) translate(2 3)"/>
                    <path stroke="#000" stroke-linecap="round" stroke-linejoin="round" d="M4.719 7.12h-1.6v14.605c0 .868.704 1.57 1.571 1.57h16.125c.867 0 1.571-.702 1.571-1.57V7.12H11.104M15.368 16.25L15.368 22.698" transform="translate(-32 -5) translate(32 5) translate(2 3)"/>
                    <path stroke="#000" stroke-linecap="round" stroke-linejoin="round" d="M10.075 23.295v-8.35c0-.704.571-1.275 1.276-1.275h1.527M22.291 10.133L3.272 10.133" transform="translate(-32 -5) translate(32 5) translate(2 3)"/>
                </g>
            </g>
        </g>
    </g>
</svg>
