<svg xmlns="http://www.w3.org/2000/svg" width="30" height="30" viewBox="0 0 30 30">
    <defs>
        <linearGradient id="pd7y02tf1a" x1="7.332%" x2="93.204%" y1="10.83%" y2="100%">
            <stop offset="0%" stop-color="#FCD22A"/>
            <stop offset="100%" stop-color="#FDAF27"/>
        </linearGradient>
    </defs>
    <g fill="none" fill-rule="evenodd">
        <g>
            <g>
                <g>
                    <path fill="#FFAD00" d="M.5 4.238C.5 2.174 2.174.5 4.238.5c2.065 0 3.739 1.674 3.739 3.738S6.303 7.976 4.238 7.976C2.174 7.976.5 6.302.5 4.238" transform="translate(-32 -5) translate(32 5) translate(2 11)"/>
                    <path fill="#FF8B00" d="M3.273 6.014C2.24 4.226 2.853 1.94 4.641.907c.293-.17.6-.28.913-.363-1.017-.39-2.19-.35-3.207.237C.56 1.814-.05 4.1.983 5.888c.863 1.494 2.6 2.15 4.192 1.729-.772-.296-1.455-.832-1.9-1.603" transform="translate(-32 -5) translate(32 5) translate(2 11)"/>
                    <path fill="#FFF" d="M1.81 5.386c-.68-1.95.349-4.081 2.298-4.761.266-.093.535-.15.802-.178C4.293.326 3.644.343 3.007.566c-1.95.68-2.978 2.812-2.298 4.76.569 1.63 2.153 2.6 3.796 2.484-.02-.013-.037-.03-.057-.042-1.185-.29-2.205-1.144-2.637-2.382" transform="translate(-32 -5) translate(32 5) translate(2 11)"/>
                    <path fill="#FFAD00" d="M9.273 4.238C9.273 2.174 10.945.5 13.01.5c2.065 0 3.738 1.674 3.738 3.738s-1.673 3.738-3.738 3.738c-2.066 0-3.738-1.674-3.738-3.738" transform="translate(-32 -5) translate(32 5) translate(2 11)"/>
                    <path fill="#FF8B00" d="M12.046 6.014c-1.033-1.788-.421-4.074 1.366-5.107.294-.17.602-.28.915-.363-1.018-.39-2.19-.35-3.207.237-1.788 1.033-2.4 3.32-1.366 5.107.863 1.494 2.6 2.15 4.192 1.729-.771-.296-1.455-.832-1.9-1.603" transform="translate(-32 -5) translate(32 5) translate(2 11)"/>
                    <path fill="#FFF" d="M10.583 5.386c-.68-1.95.348-4.081 2.298-4.761.265-.093.534-.15.802-.178-.617-.121-1.267-.104-1.904.119-1.95.68-2.978 2.812-2.297 4.76.568 1.63 2.153 2.6 3.795 2.484-.02-.013-.037-.03-.057-.042-1.185-.29-2.204-1.144-2.637-2.382" transform="translate(-32 -5) translate(32 5) translate(2 11)"/>
                    <path fill="#FFAD00" d="M18.342 4.238C18.342 2.174 20.015.5 22.08.5s3.738 1.674 3.738 3.738-1.673 3.738-3.738 3.738-3.738-1.674-3.738-3.738" transform="translate(-32 -5) translate(32 5) translate(2 11)"/>
                    <path fill="#FF8B00" d="M21.116 6.014c-1.033-1.788-.421-4.074 1.366-5.107.294-.17.602-.28.914-.363-1.017-.39-2.19-.35-3.206.237-1.788 1.033-2.4 3.32-1.366 5.107.863 1.494 2.6 2.15 4.192 1.729-.771-.296-1.455-.832-1.9-1.603" transform="translate(-32 -5) translate(32 5) translate(2 11)"/>
                    <path fill="#FFF" d="M19.652 5.386c-.68-1.95.348-4.081 2.297-4.761.266-.093.535-.15.802-.178-.617-.121-1.266-.104-1.903.119-1.949.68-2.978 2.812-2.297 4.76.568 1.63 2.152 2.6 3.795 2.484-.02-.013-.037-.03-.057-.042-1.185-.29-2.205-1.144-2.637-2.382" transform="translate(-32 -5) translate(32 5) translate(2 11)"/>
                    <path stroke="#000" stroke-linecap="round" stroke-linejoin="round" d="M.5 4.238C.5 2.174 2.174.5 4.238.5c2.065 0 3.739 1.674 3.739 3.738S6.303 7.976 4.238 7.976C2.174 7.976.5 6.302.5 4.238zM9.262 4.238C9.262 2.174 10.936.5 13 .5c2.065 0 3.739 1.674 3.739 3.738s-1.674 3.738-3.74 3.738c-2.063 0-3.737-1.674-3.737-3.738zM24.182 7.33c-.599.408-1.323.646-2.102.646-2.065 0-3.738-1.673-3.738-3.738C18.342 2.174 20.015.5 22.08.5s3.738 1.674 3.738 3.738" transform="translate(-32 -5) translate(32 5) translate(2 11)"/>
                </g>
            </g>
        </g>
    </g>
</svg>
