<svg xmlns="http://www.w3.org/2000/svg" width="31" height="30" viewBox="0 0 31 30">
    <g fill="none" fill-rule="evenodd">
        <g>
            <g>
                <g>
                    <g>
                        <path fill="#C236C7" d="M18.277 23.077H4.022c-1.453 0-2.63-1.153-2.63-2.575V3.074C1.391 1.652 2.568.5 4.021.5h14.255c1.453 0 2.631 1.152 2.631 2.574v17.428c0 1.422-1.178 2.575-2.63 2.575" transform="translate(-172.000000, -5.000000) translate(150.000000, 0.000000) translate(22.500000, 5.000000) translate(4.461631, 3.461908)"/>
                        <path fill="#D87CDB" d="M10.576.5H4.022c-1.453 0-2.63 1.152-2.63 2.574v17.428c0 1.422 1.177 2.575 2.63 2.575h1.535L10.576.5z" transform="translate(-172.000000, -5.000000) translate(150.000000, 0.000000) translate(22.500000, 5.000000) translate(4.461631, 3.461908)"/>
                        <path fill="#FFF" d="M2.925 20.445V2.631C2.925 1.178 4.022 0 4.022 0h-.42C2.15 0 1.65 1.178 1.65 2.63v17.815c0 1.453 1.178 2.632 2.63 2.632h1.278c-1.454 0-2.632-1.179-2.632-2.632" transform="translate(-172.000000, -5.000000) translate(150.000000, 0.000000) translate(22.500000, 5.000000) translate(4.461631, 3.461908)"/>
                        <path stroke="#000" stroke-linecap="round" stroke-linejoin="round" d="M18.277 23.077H4.022c-1.453 0-2.63-1.153-2.63-2.575V3.074C1.391 1.652 2.568.5 4.021.5h14.255c1.453 0 2.631 1.152 2.631 2.574v17.428c0 1.422-1.178 2.575-2.63 2.575zM5.556.524L5.556 13.189M5.556 18.085L5.556 23.052" transform="translate(-172.000000, -5.000000) translate(150.000000, 0.000000) translate(22.500000, 5.000000) translate(4.461631, 3.461908)"/>
                        <path fill="#000" d="M5.09 14.782c-.04.195.051.398.221.5.04.025.083.042.127.053-.172.045-.313.188-.349.368-.038.195.052.398.222.5.04.024.083.042.127.053-.172.046-.313.187-.349.368-.038.195.052.398.222.5.17.102.394.086.547-.04.155-.128.214-.342.146-.53-.053-.148-.18-.26-.331-.298.067-.017.13-.048.185-.094.155-.126.214-.34.146-.528-.053-.148-.18-.26-.331-.299.067-.017.13-.048.185-.093.155-.126.214-.34.146-.528-.067-.186-.249-.315-.447-.315-.225 0-.424.164-.468.383" transform="translate(-172.000000, -5.000000) translate(150.000000, 0.000000) translate(22.500000, 5.000000) translate(4.461631, 3.461908)"/>
                        <path stroke="#000" stroke-linecap="round" stroke-linejoin="round" d="M0 5.302L2.232 5.302M0 10.84L2.232 10.84M0 16.379L2.232 16.379M8.548 15.698c0-2.001 1.622-3.623 3.623-3.623 2 0 3.623 1.622 3.623 3.623M14.32 9.927c0 1.186-.962 2.148-2.15 2.148-1.186 0-2.147-.962-2.147-2.148 0-1.187.961-2.149 2.148-2.149 1.187 0 2.149.962 2.149 2.15z" transform="translate(-172.000000, -5.000000) translate(150.000000, 0.000000) translate(22.500000, 5.000000) translate(4.461631, 3.461908)"/>
                    </g>
                </g>
            </g>
        </g>
    </g>
</svg>
