<svg xmlns="http://www.w3.org/2000/svg" width="31" height="30" viewBox="0 0 31 30">
    <g fill="none" fill-rule="evenodd">
        <g>
            <g>
                <g>
                    <g>
                        <path fill="#C236C7" d="M.02 3.95C.02 1.886 1.696.212 3.76.212c2.065 0 3.739 1.674 3.739 3.738s-1.674 3.738-3.74 3.738C1.696 7.688.022 6.014.022 3.95" transform="translate(-322.000000, -5.000000) translate(300.000000, 0.000000) translate(22.500000, 5.000000) translate(2.479142, 11.288490)"/>
                        <path fill="#D87CDB" d="M2.794 5.725C1.761 3.937 2.374 1.651 4.161.618c.293-.169.601-.28.914-.363-1.017-.39-2.19-.35-3.207.237C.08 1.525-.53 3.812.502 5.6c.863 1.494 2.601 2.151 4.192 1.73-.77-.297-1.454-.833-1.9-1.604" transform="translate(-322.000000, -5.000000) translate(300.000000, 0.000000) translate(22.500000, 5.000000) translate(2.479142, 11.288490)"/>
                        <path fill="#FFF" d="M1.331 5.097c-.68-1.949.348-4.08 2.297-4.76.266-.094.535-.15.802-.179-.617-.12-1.266-.104-1.903.12C.578.957-.45 3.088.23 5.037c.57 1.63 2.153 2.6 3.796 2.483-.02-.013-.037-.029-.057-.042-1.185-.289-2.205-1.144-2.637-2.382" transform="translate(-322.000000, -5.000000) translate(300.000000, 0.000000) translate(22.500000, 5.000000) translate(2.479142, 11.288490)"/>
                        <path fill="#C236C7" d="M8.793 3.95c0-2.064 1.673-3.738 3.738-3.738s3.74 1.674 3.74 3.738-1.675 3.738-3.74 3.738c-2.065 0-3.738-1.674-3.738-3.738" transform="translate(-322.000000, -5.000000) translate(300.000000, 0.000000) translate(22.500000, 5.000000) translate(2.479142, 11.288490)"/>
                        <path fill="#D87CDB" d="M11.567 5.725c-1.033-1.788-.421-4.074 1.366-5.107.294-.169.602-.28.915-.363-1.018-.39-2.19-.35-3.207.237-1.788 1.033-2.4 3.32-1.366 5.107.863 1.494 2.6 2.151 4.192 1.73-.771-.297-1.455-.833-1.9-1.604" transform="translate(-322.000000, -5.000000) translate(300.000000, 0.000000) translate(22.500000, 5.000000) translate(2.479142, 11.288490)"/>
                        <path fill="#FFF" d="M10.103 5.097c-.68-1.949.35-4.08 2.298-4.76.265-.094.534-.15.802-.179-.617-.12-1.267-.104-1.904.12-1.949.68-2.978 2.811-2.297 4.76.57 1.63 2.153 2.6 3.795 2.483-.02-.013-.037-.029-.057-.042-1.185-.289-2.204-1.144-2.637-2.382" transform="translate(-322.000000, -5.000000) translate(300.000000, 0.000000) translate(22.500000, 5.000000) translate(2.479142, 11.288490)"/>
                        <path fill="#C236C7" d="M17.863 3.95c0-2.064 1.673-3.738 3.738-3.738S25.34 1.886 25.34 3.95s-1.673 3.738-3.738 3.738-3.738-1.674-3.738-3.738" transform="translate(-322.000000, -5.000000) translate(300.000000, 0.000000) translate(22.500000, 5.000000) translate(2.479142, 11.288490)"/>
                        <path fill="#D87CDB" d="M20.637 5.725c-1.033-1.788-.421-4.074 1.366-5.107.294-.169.602-.28.914-.363-1.017-.39-2.19-.35-3.206.237-1.788 1.033-2.4 3.32-1.366 5.107.863 1.494 2.6 2.151 4.192 1.73-.771-.297-1.455-.833-1.9-1.604" transform="translate(-322.000000, -5.000000) translate(300.000000, 0.000000) translate(22.500000, 5.000000) translate(2.479142, 11.288490)"/>
                        <path fill="#FFF" d="M19.173 5.097c-.68-1.949.348-4.08 2.297-4.76.266-.094.535-.15.802-.179-.617-.12-1.266-.104-1.903.12-1.949.68-2.978 2.811-2.297 4.76.568 1.63 2.152 2.6 3.795 2.483-.02-.013-.037-.029-.057-.042-1.185-.289-2.205-1.144-2.637-2.382" transform="translate(-322.000000, -5.000000) translate(300.000000, 0.000000) translate(22.500000, 5.000000) translate(2.479142, 11.288490)"/>
                        <path stroke="#000" stroke-linecap="round" stroke-linejoin="round" d="M.02 3.95C.02 1.886 1.696.212 3.76.212c2.065 0 3.739 1.674 3.739 3.738s-1.674 3.738-3.74 3.738C1.696 7.688.022 6.014.022 3.95zM8.783 3.95c0-2.064 1.674-3.738 3.738-3.738 2.065 0 3.739 1.674 3.739 3.738s-1.674 3.738-3.74 3.738c-2.063 0-3.737-1.674-3.737-3.738zM23.703 7.042c-.599.408-1.322.646-2.102.646-2.065 0-3.738-1.673-3.738-3.738 0-2.064 1.673-3.738 3.738-3.738s3.738 1.674 3.738 3.738" transform="translate(-322.000000, -5.000000) translate(300.000000, 0.000000) translate(22.500000, 5.000000) translate(2.479142, 11.288490)"/>
                    </g>
                </g>
            </g>
        </g>
    </g>
</svg>
