<svg xmlns="http://www.w3.org/2000/svg" width="31" height="30" viewBox="0 0 31 30">
    <g fill="none" fill-rule="evenodd">
        <g>
            <g>
                <g>
                    <path fill="#C236C7" d="M22.041 21.18V6.392h1.851L12.005 0 .865 6.351H2.62v15.325c0 .772.626 1.398 1.398 1.398h16.13c1.046 0 1.894-.848 1.894-1.894" transform="translate(-22.000000, -5.000000) translate(22.500000, 5.000000) translate(2.499865, 3.221800)"/>
                    <path fill="#FFF" d="M13.661 23.074H10.64c-.588 0-1.064-.477-1.064-1.064v-7.497c0-.587.476-1.064 1.064-1.064h3.021c.588 0 1.065.477 1.065 1.064v7.497c0 .587-.477 1.064-1.065 1.064" transform="translate(-22.000000, -5.000000) translate(22.500000, 5.000000) translate(2.499865, 3.221800)"/>
                    <path fill="#D87CDB" d="M13.004.476L2.801 5.846v16.133c0 .59.474 1.07 1.064 1.077l2.477.018L13.004.476z" transform="translate(-22.000000, -5.000000) translate(22.500000, 5.000000) translate(2.499865, 3.221800)"/>
                    <path fill="#231F20" d="M6.918 7.335c.182.035.372-.048.467-.207.023-.037.039-.078.05-.119.042.161.174.293.343.326.182.035.372-.048.468-.207.022-.037.038-.078.049-.119.042.161.175.293.344.326.182.035.37-.048.467-.207.096-.159.08-.368-.038-.512-.118-.143-.318-.199-.494-.135-.14.05-.243.168-.28.31-.015-.063-.044-.123-.086-.175-.118-.143-.32-.199-.494-.135-.14.05-.243.168-.28.31-.016-.063-.044-.123-.086-.175-.118-.143-.32-.199-.494-.135-.175.062-.294.232-.294.417 0 .21.152.396.358.437" transform="translate(-22.000000, -5.000000) translate(22.500000, 5.000000) translate(2.499865, 3.221800)"/>
                    <path fill="#FFF" d="M2.772 22.725L2.619 6.899 0.14 6.376 12.005 0 13.14 0.889 2.458 6.767 3.935 6.899 3.935 23.225z" transform="translate(-22.000000, -5.000000) translate(22.500000, 5.000000) translate(2.499865, 3.221800)"/>
                    <path stroke="#000" stroke-linecap="round" stroke-linejoin="round" d="M3.806 6.899H.413c-.44 0-.574-.596-.177-.785L10.875.538c.717-.34 1.547-.346 2.268-.016l11.029 5.59c.403.184.271.787-.172.787H10.905M4.22 6.899h-1.6v14.604c0 .868.703 1.57 1.57 1.57h16.125c.867 0 1.571-.702 1.571-1.57V6.899H10.604M14.869 16.028L14.869 22.476" transform="translate(-22.000000, -5.000000) translate(22.500000, 5.000000) translate(2.499865, 3.221800)"/>
                    <path stroke="#000" stroke-linecap="round" stroke-linejoin="round" d="M9.576 23.074v-8.35c0-.704.57-1.275 1.276-1.275h1.527M21.791 9.912L2.772 9.912" transform="translate(-22.000000, -5.000000) translate(22.500000, 5.000000) translate(2.499865, 3.221800)"/>
                </g>
            </g>
        </g>
    </g>
</svg>
