<svg xmlns="http://www.w3.org/2000/svg" width="31" height="30" viewBox="0 0 31 30">
    <g fill="none" fill-rule="evenodd">
        <g>
            <g>
                <g>
                    <g>
                        <path fill="#C236C7" d="M16.886 23.077H2.63C1.178 23.077 0 21.925 0 20.503V3.074C0 1.652 1.178.5 2.63.5h14.256c1.453 0 2.63 1.152 2.63 2.574v17.429c0 1.422-1.177 2.574-2.63 2.574" transform="translate(-97.000000, -5.000000) translate(75.000000, 0.000000) translate(22.500000, 5.000000) translate(5.461538, 3.461723)"/>
                        <path fill="#D87CDB" d="M9.185.5H2.63C1.178.5.001 1.652.001 3.074v17.429c0 1.422 1.177 2.574 2.63 2.574h1.534L9.185.5z" transform="translate(-97.000000, -5.000000) translate(75.000000, 0.000000) translate(22.500000, 5.000000) translate(5.461538, 3.461723)"/>
                        <path fill="#FFF" d="M1.534 20.446V2.631C1.534 1.178 2.631 0 2.631 0h-.42C.758 0 .258 1.178.258 2.63v17.816c0 1.453 1.178 2.63 2.63 2.63h1.277c-1.453 0-2.63-1.177-2.63-2.63" transform="translate(-97.000000, -5.000000) translate(75.000000, 0.000000) translate(22.500000, 5.000000) translate(5.461538, 3.461723)"/>
                        <path stroke="#000" stroke-linecap="round" stroke-linejoin="round" d="M16.886 23.077H2.63C1.178 23.077 0 21.925 0 20.503V3.074C0 1.652 1.178.5 2.63.5h14.256c1.453 0 2.63 1.152 2.63 2.574v17.429c0 1.422-1.177 2.574-2.63 2.574zM17.658 10.991L17.658 11.452" transform="translate(-97.000000, -5.000000) translate(75.000000, 0.000000) translate(22.500000, 5.000000) translate(5.461538, 3.461723)"/>
                        <path stroke="#000" stroke-dasharray=".977 1.953" stroke-linecap="round" stroke-linejoin="round" d="M17.658 13.255v6.604c0 .8-.648 1.447-1.446 1.447H3.305c-.799 0-1.446-.648-1.446-1.447v-7.505" transform="translate(-97.000000, -5.000000) translate(75.000000, 0.000000) translate(22.500000, 5.000000) translate(5.461538, 3.461723)"/>
                        <path stroke="#000" stroke-linecap="round" stroke-linejoin="round" d="M1.859 11.452L1.859 10.991M17.658.961L17.658 6.612 9.759 10.991 9.703 10.991 1.804 6.612 1.804.961" transform="translate(-97.000000, -5.000000) translate(75.000000, 0.000000) translate(22.500000, 5.000000) translate(5.461538, 3.461723)"/>
                        <path stroke="#000" stroke-linecap="round" stroke-linejoin="round" d="M19.461 7.945L9.759 13.183 9.703 13.183 0 7.945M7.44 5.384c0-1.265 1.026-2.29 2.29-2.29 1.266 0 2.291 1.025 2.291 2.29 0 1.265-1.025 2.29-2.29 2.29-1.265 0-2.29-1.025-2.29-2.29z" transform="translate(-97.000000, -5.000000) translate(75.000000, 0.000000) translate(22.500000, 5.000000) translate(5.461538, 3.461723)"/>
                        <path fill="#000" d="M9.185 5.384c0-.301.245-.547.545-.547.302 0 .547.246.547.547 0 .302-.245.546-.547.546-.3 0-.545-.244-.545-.546" transform="translate(-97.000000, -5.000000) translate(75.000000, 0.000000) translate(22.500000, 5.000000) translate(5.461538, 3.461723)"/>
                    </g>
                </g>
            </g>
        </g>
    </g>
</svg>
