<?xml version="1.0" encoding="UTF-8"?>
<svg width="51px" height="55px" viewBox="0 0 51 55" version="1.1" xmlns="http://www.w3.org/2000/svg" xmlns:xlink="http://www.w3.org/1999/xlink">
    <!-- Generator: Sketch 61.2 (89653) - https://sketch.com -->
    <title>Slice</title>
    <desc>Created with Sketch.</desc>
    <defs>
        <linearGradient x1="92.962%" y1="11.6551326%" x2="50%" y2="73.4525183%" id="linearGradient-1">
            <stop stop-color="#A6C1FF" offset="0%"></stop>
            <stop stop-color="#ECADFF" offset="100%"></stop>
        </linearGradient>
        <linearGradient x1="92.962%" y1="10.106%" x2="50%" y2="74.4%" id="linearGradient-2">
            <stop stop-color="#A6C1FF" offset="0%"></stop>
            <stop stop-color="#ECADFF" offset="100%"></stop>
        </linearGradient>
    </defs>
    <g id="Page-1" stroke="none" stroke-width="1" fill="none" fill-rule="evenodd">
        <g id="ico-activate">
            <polygon id="Path" points="0 1 51 1 51 55 0 55"></polygon>
            <g id="Group" transform="translate(0.323000, 0.839000)" fill-rule="nonzero">
                <g id="b-link" transform="translate(0.000000, 4.000000)" fill="#B174C4">
                    <path d="M13.142,0 L37.503,0 C41.961,0 43.577,0.464 45.207,1.336 C46.8175381,2.18844796 48.134552,3.50546191 48.987,5.116 C49.858,6.746 50.323,8.362 50.323,12.819 L50.323,37.181 C50.323,41.638 49.858,43.255 48.987,44.884 C48.134552,46.4945381 46.8175381,47.811552 45.207,48.664 C43.577,49.536 41.96,50 37.503,50 L13.142,50 C8.684,50 7.068,49.536 5.438,48.664 C3.82746191,47.811552 2.51044796,46.4945381 1.658,44.884 C0.787,43.254 0.323,41.638 0.323,37.181 L0.323,12.819 C0.323,8.362 0.787,6.745 1.658,5.116 C2.51044796,3.50546191 3.82746191,2.18844796 5.438,1.336 C7.068,0.464 8.684,0 13.142,0 Z" id="b"></path>
                </g>
                <g id="d-link" fill="url(#linearGradient-2)">
                    <path d="M12.82,0 L37.503,0 C41.961,0 43.577,0.464 45.207,1.336 C46.8175381,2.18844796 48.134552,3.50546191 48.987,5.116 C49.858,6.746 50.323,8.362 50.323,12.819 L50.323,37.181 C50.323,41.638 49.858,43.255 48.987,44.884 C48.134552,46.4945381 46.8175381,47.811552 45.207,48.664 C43.577,49.536 41.96,50 37.503,50 L12.82,50 C8.363,50 6.746,49.536 5.117,48.664 C3.50646191,47.811552 2.18944796,46.4945381 1.337,44.884 C0.464,43.254 0,41.638 0,37.181 L0,12.819 C0,8.362 0.464,6.745 1.336,5.116 C2.18844796,3.50546191 3.50546191,2.18844796 5.116,1.336 C6.746,0.464 8.362,0 12.819,0 L12.82,0 Z" id="d"></path>
                </g>
                <g id="f-link" transform="translate(4.000000, 4.000000)" fill="#000000">
                    <path d="M32.704,0.161 C35.824,0.161 36.956,0.486 38.096,1.096 C39.2233841,1.69270353 40.1452965,2.61461592 40.742,3.742 C41.352,4.883 41.677,6.015 41.677,9.135 L41.677,32.188 C41.677,35.308 41.353,36.44 40.742,37.58 C40.1452965,38.7073841 39.2233841,39.6292965 38.096,40.226 C36.956,40.836 35.824,41.161 32.704,41.161 L9.65,41.161 C6.53,41.161 5.398,40.836 4.257,40.226 C3.12961592,39.6292965 2.20770353,38.7073841 1.611,37.58 C1.001,36.44 0.676,35.308 0.676,32.188 L0.676,9.135 C0.676,6.015 1.001,4.883 1.611,3.742 C2.20770353,2.61461592 3.12961592,1.69270353 4.257,1.096 C5.4,0.486 6.531,0.161 9.651,0.161 L32.704,0.161 Z M22.77,9.142 C22.77,8.112 21.39,7.782 20.944,8.695 L13.794,22.626 C13.444,23.267 13.929,24.045 14.648,24.045 L19.817,24.045 L19.817,32.088 C19.817,33.118 21.197,33.448 21.663,32.516 L28.579,18.682 C28.7246081,18.3804954 28.7053231,18.0253662 28.5279218,17.7414023 C28.3505205,17.4574384 28.0398207,17.2843654 27.705,17.283 L22.77,17.283 L22.77,9.142 Z" id="f"></path>
                </g>
                <g id="f-link" transform="translate(4.000000, 4.000000)" fill="#FFFFFF">
                    <path d="M32.704,0.161 C35.824,0.161 36.956,0.486 38.096,1.096 C39.2233841,1.69270353 40.1452965,2.61461592 40.742,3.742 C41.352,4.883 41.677,6.015 41.677,9.135 L41.677,32.188 C41.677,35.308 41.353,36.44 40.742,37.58 C40.1452965,38.7073841 39.2233841,39.6292965 38.096,40.226 C36.956,40.836 35.824,41.161 32.704,41.161 L9.65,41.161 C6.53,41.161 5.398,40.836 4.257,40.226 C3.12961592,39.6292965 2.20770353,38.7073841 1.611,37.58 C1.001,36.44 0.676,35.308 0.676,32.188 L0.676,9.135 C0.676,6.015 1.001,4.883 1.611,3.742 C2.20770353,2.61461592 3.12961592,1.69270353 4.257,1.096 C5.4,0.486 6.531,0.161 9.651,0.161 L32.704,0.161 Z M22.77,9.142 C22.77,8.112 21.39,7.782 20.944,8.695 L13.794,22.626 C13.444,23.267 13.929,24.045 14.648,24.045 L19.817,24.045 L19.817,32.088 C19.817,33.118 21.197,33.448 21.663,32.516 L28.579,18.682 C28.7246081,18.3804954 28.7053231,18.0253662 28.5279218,17.7414023 C28.3505205,17.4574384 28.0398207,17.2843654 27.705,17.283 L22.77,17.283 L22.77,9.142 Z" id="f"></path>
                </g>
            </g>
        </g>
    </g>
</svg>