<svg xmlns="http://www.w3.org/2000/svg" xmlns:xlink="http://www.w3.org/1999/xlink" width="30" height="30" viewBox="0 0 30 30">
    <defs>
        <path id="a" d="M16.5 0c1.709 0 3.094 1.373 3.094 3.067v13.29h4.125c.57 0 1.031.457 1.031 1.022V18.4c0 2.823-2.309 5.112-5.156 5.112H5.156C2.31 23.513 0 21.224 0 18.4V3.067C0 1.373 1.385 0 3.094 0zm6.188 18.401H10.313a5.031 5.031 0 0 1-1.032 3.067h10.313c1.708 0 3.094-1.373 3.094-3.067zM16.5 2.045H3.094c-.57 0-1.031.457-1.031 1.022V18.4c0 1.694 1.385 3.067 3.093 3.067 1.709 0 3.094-1.373 3.094-3.067V17.38c0-.565.462-1.022 1.031-1.022h8.25V3.067c0-.565-.461-1.022-1.031-1.022zm-2.062 10.222c.569 0 1.03.458 1.03 1.023 0 .564-.461 1.022-1.03 1.022H5.156c-.57 0-1.031-.458-1.031-1.022 0-.565.462-1.023 1.031-1.023zm0-4.089c.569 0 1.03.458 1.03 1.023 0 .564-.461 1.022-1.03 1.022H5.156c-.57 0-1.031-.458-1.031-1.022 0-.565.462-1.023 1.031-1.023zm0-4.089c.569 0 1.03.458 1.03 1.022 0 .565-.461 1.023-1.03 1.023H5.156c-.57 0-1.031-.458-1.031-1.023 0-.564.462-1.022 1.031-1.022z"/>
    </defs>
    <g fill="none" fill-rule="evenodd" transform="translate(2.5 3.75)">
        <mask id="b" fill="#fff">
            <use xlink:href="#a"/>
        </mask>
        <use fill="#000" fill-rule="nonzero" xlink:href="#a"/>
        <g fill="#000" mask="url(#b)">
            <path d="M-2.5-3.75h30v30h-30z"/>
        </g>
    </g>
</svg>
