<svg xmlns="http://www.w3.org/2000/svg" xmlns:xlink="http://www.w3.org/1999/xlink" width="40" height="40" viewBox="0 0 40 40">
    <defs>
        <path id="l67lr7e63a" d="M0 0L16.706 0 16.706 10.805 0 10.805z"/>
        <path id="1c9qx7e33c" d="M0 0L25.5 0 25.5 21.607 0 21.607z"/>
        <path id="zowj9zz75e" d="M5.204 5.177c.088 0 .172.036.233.1.062.063.097.149.097.239v3.528c0 .244.197.441.441.441h4.707v-.44c0-.114.029-.225.084-.323.055-.099.134-.18.23-.238.095-.057.203-.087.314-.087.11 0 .218.03.314.086l1.318.782c.096.056.175.138.23.236.056.098.085.21.085.323 0 .113-.029.225-.084.323-.056.098-.135.18-.231.236l-1.318.779c-.09.056-.194.087-.3.088-.11.001-.218-.03-.312-.088-.1-.054-.182-.134-.24-.233-.058-.098-.09-.21-.09-.326v-.441H5.758c-.488 0-.883-.394-.883-.882V5.516c0-.09.035-.176.096-.24.062-.063.146-.1.233-.1zm6.15 3.922v1.45l1.229-.725-1.229-.725zM7.896 3.75c.11 0 .218.03.312.089.1.054.182.134.24.233.058.098.09.21.09.326l-.001.44h4.942c.487 0 .882.395.882.883v3.764c0 .09-.034.176-.096.24-.062.063-.146.099-.233.099-.087 0-.171-.036-.233-.1-.062-.063-.096-.149-.096-.239V5.957c0-.244-.198-.441-.442-.441l-4.724-.001v.44c0 .173-.066.337-.184.459-.094.097-.215.16-.345.183l-.099.009-.083-.004c-.086-.01-.169-.039-.243-.084l-1.318-.782c-.096-.057-.175-.138-.23-.236-.056-.098-.085-.21-.085-.323 0-.114.029-.225.084-.323.056-.098.135-.18.231-.236l1.318-.78c.094-.057.202-.088.313-.088zm-.017.702l-1.225.725 1.225.725v-1.45z"/>
    </defs>
    <g fill="none" fill-rule="evenodd">
        <g>
            <g>
                <g>
                    <g>
                        <g>
                            <path fill="#D800B6" d="M4.766 10.673h3.033v-7.04c0-.352.282-.636.629-.636h8.645c.346 0 .628.284.628.636v7.04h3.033V2.36c0-1.02-.817-1.846-1.825-1.846H6.59c-1.007 0-1.825.826-1.825 1.846v8.313z" transform="translate(-36 -372) translate(16 352) translate(20 20) translate(6.5 3)"/>
                            <g transform="translate(-36 -372) translate(16 352) translate(20 20) translate(6.5 3) translate(4.397)">
                                <mask id="b10odynrmb" fill="#fff">
                                    <use xlink:href="#l67lr7e63a"/>
                                </mask>
                                <path fill="#000" d="M.369 10.805c-.204 0-.369-.167-.369-.373V2.219C0 .995.985-.001 2.194-.001h12.318c1.21 0 2.194.996 2.194 2.22v6.597c0 .205-.165.372-.369.372-.202 0-.367-.167-.367-.372V2.219c0-.812-.654-1.474-1.458-1.474H2.194c-.803 0-1.457.662-1.457 1.474v8.213c0 .206-.164.373-.368.373" mask="url(#b10odynrmb)"/>
                            </g>
                            <path fill="#000" d="M17.701 11.138c-.203 0-.369-.167-.369-.373V3.513c0-.028-.021-.051-.05-.051H8.429c-.144 0-.26.117-.26.263v5.299c0 .206-.165.373-.37.373-.202 0-.367-.167-.367-.373v-5.3c0-.555.447-1.007.997-1.007h8.855c.434 0 .787.357.787.796v7.252c0 .206-.165.373-.369.373" transform="translate(-36 -372) translate(16 352) translate(20 20) translate(6.5 3)"/>
                            <path fill="#FBD594" d="M21.089 31.628H4.412c-2.233 0-4.044-1.831-4.044-4.09V14.855c0-2.258 1.811-4.088 4.044-4.088h16.677c2.233 0 4.043 1.83 4.043 4.088v12.685c0 2.258-1.81 4.089-4.043 4.089" transform="translate(-36 -372) translate(16 352) translate(20 20) translate(6.5 3)"/>
                            <g transform="translate(-36 -372) translate(16 352) translate(20 20) translate(6.5 3) translate(0 10.393)">
                                <mask id="j9i0gydeld" fill="#fff">
                                    <use xlink:href="#1c9qx7e33c"/>
                                </mask>
                                <path fill="#000" d="M21.328 21.607H4.172c-2.3 0-4.172-1.893-4.172-4.219V4.22C0 1.892 1.872 0 4.172 0h17.156C23.629 0 25.5 1.892 25.5 4.219v6.471c0 .205-.165.372-.368.372-.204 0-.369-.167-.369-.372V4.22c0-1.916-1.54-3.474-3.435-3.474H4.172C2.28.745.737 2.303.737 4.219v13.17c0 1.914 1.542 3.473 3.435 3.473h17.156c1.895 0 3.435-1.559 3.435-3.474 0-.206.165-.373.37-.373.202 0 .367.167.367.373 0 2.326-1.871 4.22-4.172 4.22" mask="url(#j9i0gydeld)"/>
                            </g>
                            <path fill="#FFF" d="M12.75 21.937c-1.268 0-2.295-1.039-2.295-2.32 0-1.284 1.027-2.323 2.295-2.323s2.296 1.04 2.296 2.322-1.028 2.321-2.296 2.321" transform="translate(-36 -372) translate(16 352) translate(20 20) translate(6.5 3)"/>
                            <path fill="#FFF" d="M11.46 24.38v-3.44c0-.397.318-.718.71-.718h1.16c.392 0 .709.32.709.718v3.44c0 .396-.317.719-.709.719h-1.16c-.392 0-.71-.323-.71-.72" transform="translate(-36 -372) translate(16 352) translate(20 20) translate(6.5 3)"/>
                        </g>
                        <g transform="translate(-36 -372) translate(16 352) translate(20 20) translate(6.5 3) translate(13 20)">
                            <rect width="19.5" height="15" fill="#FFF" rx="2.534"/>
                            <path fill="#000" fill-rule="nonzero" d="M16.966 0c1.4 0 2.534 1.135 2.534 2.534v9.932c0 1.4-1.135 2.534-2.534 2.534H2.534C1.134 15 0 13.865 0 12.466V2.534C0 1.134 1.135 0 2.534 0h14.432zm0 .738H2.534c-.96 0-1.744.753-1.794 1.7l-.002.096v9.932c0 .96.753 1.744 1.7 1.794l.096.002h14.432c.96 0 1.744-.753 1.794-1.7l.002-.096V2.534c0-.96-.753-1.744-1.7-1.794l-.096-.002z"/>
                            <rect width="15.844" height="11.25" x="1.828" y="1.875" fill="#D8FFEF" rx="1.845"/>
                            <path fill="#000" fill-rule="nonzero" d="M15.827 1.875c1.019 0 1.845.826 1.845 1.845v7.56c0 1.02-.826 1.845-1.845 1.845H3.673c-1.019 0-1.845-.826-1.845-1.845V3.72c0-1.02.826-1.845 1.845-1.845h12.154zm0 .738H3.673c-.585 0-1.064.453-1.104 1.028l-.003.079v7.56c0 .585.453 1.064 1.028 1.104l.079.003h12.154c.585 0 1.064-.453 1.104-1.028l.003-.079V3.72c0-.585-.453-1.064-1.028-1.104l-.079-.003z"/>
                            <use fill="#000" fill-rule="nonzero" xlink:href="#zowj9zz75e"/>
                        </g>
                    </g>
                </g>
            </g>
        </g>
    </g>
</svg>