<svg xmlns="http://www.w3.org/2000/svg" xmlns:xlink="http://www.w3.org/1999/xlink" width="116" height="116" viewBox="0 0 116 116">
    <defs>
        <linearGradient id="crfl2lhi7c" x1="50%" x2="50%" y1="0%" y2="100%">
            <stop offset="0%" stop-color="#37BDFF"/>
            <stop offset="34.093%" stop-color="#6663FF"/>
            <stop offset="66.871%" stop-color="#AB5CE0"/>
            <stop offset="100%" stop-color="#ED4C98"/>
        </linearGradient>
        <filter id="x62zocvlqa" width="116.1%" height="116.1%" x="-8%" y="-5.7%" filterUnits="objectBoundingBox">
            <feOffset dy="2" in="SourceAlpha" result="shadowOffsetOuter1"/>
            <feGaussianBlur in="shadowOffsetOuter1" result="shadowBlurOuter1" stdDeviation="2"/>
            <feColorMatrix in="shadowBlurOuter1" values="0 0 0 0 0.420261549 0 0 0 0 0.420261549 0 0 0 0 0.420261549 0 0 0 0.180998689 0"/>
        </filter>
        <circle id="7p1ht7pujb" cx="57.5" cy="58.5" r="43.5"/>
    </defs>
    <g fill="none" fill-rule="evenodd">
        <g>
            <g>
                <g transform="translate(-129 -351) translate(7 319) translate(122 32)">
                    <circle cx="58" cy="58" r="58" fill="#000" fill-opacity=".1" opacity=".297"/>
                    <g>
                        <use fill="#000" filter="url(#x62zocvlqa)" xlink:href="#7p1ht7pujb"/>
                        <use fill="#FFF" xlink:href="#7p1ht7pujb"/>
                    </g>
                    <g>
                        <path stroke="#000" stroke-opacity=".012" stroke-width="0" d="M0 0L55 0 55 55 0 55z" transform="translate(30 31)"/>
                        <path fill="url(#crfl2lhi7c)" d="M39.748 9.681c-.182 0-.365-.046-.524-.138C34.85 7.266 31.068 6.3 26.534 6.3c-4.51 0-8.794 1.081-12.69 3.243-.546.299-1.23.092-1.549-.46-.296-.552-.091-1.265.456-1.564C16.988 5.196 21.636 4 26.534 4c4.853 0 9.09 1.081 13.738 3.496.57.299.775.989.478 1.541-.205.414-.592.644-1.002.644zM7.146 21.756c-.228 0-.455-.069-.66-.207-.524-.368-.638-1.081-.274-1.61 2.256-3.22 5.126-5.75 8.544-7.521 7.153-3.726 16.312-3.749 23.488-.023 3.418 1.771 6.288 4.278 8.544 7.475.364.506.25 1.242-.274 1.61-.524.368-1.23.253-1.594-.276-2.05-2.898-4.648-5.175-7.724-6.762-6.538-3.381-14.9-3.381-21.415.023-3.099 1.61-5.696 3.91-7.746 6.808-.182.322-.524.483-.889.483zm14.24 27.761c-.297 0-.593-.115-.798-.345-1.982-2.001-3.053-3.289-4.58-6.072-1.571-2.829-2.391-6.279-2.391-9.982 0-6.831 5.786-12.397 12.894-12.397 7.109 0 12.895 5.566 12.895 12.397 0 .644-.501 1.15-1.139 1.15s-1.139-.506-1.139-1.15c0-5.566-4.762-10.097-10.617-10.097-5.855 0-10.616 4.531-10.616 10.097 0 3.312.729 6.371 2.119 8.855 1.458 2.645 2.46 3.772 4.214 5.566.433.46.433 1.173 0 1.633-.25.23-.546.345-.843.345zm16.334-4.255c-2.71 0-5.103-.69-7.062-2.047-3.395-2.323-5.422-6.095-5.422-10.097 0-.644.5-1.15 1.139-1.15.638 0 1.139.506 1.139 1.15 0 3.243 1.64 6.302 4.42 8.188 1.617 1.104 3.508 1.633 5.786 1.633.547 0 1.458-.069 2.37-.23.615-.115 1.207.299 1.321.943.114.621-.296 1.219-.934 1.334-1.299.253-2.438.276-2.757.276zM33.141 50c-.091 0-.205-.023-.296-.046-3.622-1.012-5.992-2.369-8.475-4.83-3.19-3.197-4.944-7.452-4.944-12.006 0-3.726 3.144-6.762 7.017-6.762s7.017 3.036 7.017 6.762c0 2.461 2.119 4.462 4.739 4.462 2.62 0 4.739-2.001 4.739-4.462 0-8.671-7.405-15.709-16.518-15.709-6.47 0-12.393 3.634-15.059 9.269-.888 1.863-1.344 4.048-1.344 6.44 0 1.794.16 4.623 1.526 8.303.228.598-.068 1.265-.66 1.472-.593.23-1.253-.092-1.458-.667-1.117-3.013-1.664-6.003-1.664-9.108 0-2.76.524-5.267 1.55-7.452 3.03-6.417 9.75-10.58 17.11-10.58 10.365 0 18.795 8.073 18.795 18.009 0 3.726-3.144 6.762-7.017 6.762s-7.017-3.036-7.017-6.762c0-2.461-2.119-4.462-4.739-4.462-2.62 0-4.739 2.001-4.739 4.462 0 3.933 1.504 7.613 4.26 10.373 2.165 2.162 4.238 3.358 7.45 4.255.616.161.957.805.798 1.403-.114.529-.592.874-1.07.874z" transform="translate(30 31)"/>
                    </g>
                </g>
            </g>
        </g>
    </g>
</svg>
