<svg xmlns="http://www.w3.org/2000/svg" xmlns:xlink="http://www.w3.org/1999/xlink" width="116" height="116" viewBox="0 0 116 116">
    <defs>
        <circle id="b" cx="57.5" cy="58.5" r="43.5"/>
        <filter id="a" width="116.1%" height="116.1%" x="-8%" y="-5.7%" filterUnits="objectBoundingBox">
            <feOffset dy="2" in="SourceAlpha" result="shadowOffsetOuter1"/>
            <feGaussianBlur in="shadowOffsetOuter1" result="shadowBlurOuter1" stdDeviation="2"/>
            <feColorMatrix in="shadowBlurOuter1" values="0 0 0 0 0.420261549 0 0 0 0 0.420261549 0 0 0 0 0.420261549 0 0 0 0.180998689 0"/>
        </filter>
        <linearGradient id="c" x1="50%" x2="50%" y1="0%" y2="100%">
            <stop offset="0%" stop-color="#37BDFF"/>
            <stop offset="34.093%" stop-color="#6663FF"/>
            <stop offset="66.871%" stop-color="#AB5CE0"/>
            <stop offset="100%" stop-color="#ED4C98"/>
        </linearGradient>
    </defs>
    <g fill="none" fill-rule="evenodd">
        <circle cx="58" cy="58" r="58" fill="#000" fill-opacity=".1" opacity=".297"/>
        <use fill="#000" filter="url(#a)" xlink:href="#b"/>
        <use fill="#FFF" xlink:href="#b"/>
        <path fill="url(#c)" d="M85 77.084v-6.177a1.397 1.397 0 0 0-2.793 0v6.177a6.13 6.13 0 0 1-6.123 6.123h-6.177a1.397 1.397 0 0 0 0 2.793h6.177C81 86 85 82 85 77.084m-38.51 7.52c0-.772-.626-1.397-1.397-1.397h-6.177a6.13 6.13 0 0 1-6.123-6.123v-6.177a1.397 1.397 0 0 0-2.793 0v6.177C30 82 34 86 38.916 86h6.177c.771 0 1.396-.625 1.396-1.396M32.793 46.093v-6.177a6.13 6.13 0 0 1 6.123-6.123h6.177a1.397 1.397 0 0 0 0-2.793h-6.177C34 31 30 35 30 39.916v6.177a1.397 1.397 0 0 0 2.793 0m52.207 0v-6.177C85 35 81 31 76.084 31h-6.177a1.397 1.397 0 0 0 0 2.793h6.177a6.13 6.13 0 0 1 6.123 6.123v6.177a1.397 1.397 0 0 0 2.793 0M67.137 71.65a1.45 1.45 0 0 0-1.968-2.13 11.27 11.27 0 0 1-7.669 2.999 11.27 11.27 0 0 1-7.67-3 1.45 1.45 0 0 0-1.967 2.131A14.164 14.164 0 0 0 57.5 75.42c3.584 0 7.006-1.338 9.637-3.769M60.4 62.045V51.732a1.45 1.45 0 1 0-2.9 0v10.313a.807.807 0 0 1-.806.806h-1.181a1.45 1.45 0 1 0 0 2.9h1.181a3.71 3.71 0 0 0 3.706-3.706m9.99-6.257v-4.136a1.37 1.37 0 0 0-2.739 0v4.136a1.37 1.37 0 0 0 2.74 0m-24.09 1.37a1.37 1.37 0 0 1-1.37-1.37v-4.136a1.37 1.37 0 0 1 2.74 0v4.136a1.37 1.37 0 0 1-1.37 1.37"/>
    </g>
</svg>
