<svg xmlns="http://www.w3.org/2000/svg" width="16" height="16" viewBox="0 0 16 16">
    <g fill="none" fill-rule="evenodd">
        <g>
            <g>
                <g>
                    <g transform="translate(-50.000000, -497.000000) translate(0.000000, 303.000000) translate(26.000000, 194.000000) translate(24.000000, 0.000000)">
                        <rect width="16" height="16" fill="#00AB6B" fill-rule="nonzero" rx="8"/>
                        <path fill="#FFF" d="M9 4.8L8 6 7 4.8H4c-.6 0-1.2.6-1.2 1.2v4c0 .6.6 1.2 1.2 1.2h8c.6 0 1.2-.6 1.2-1.2V6c0-.6-.6-1.2-1.2-1.2H9zM8 6H4v4h8V6H8z"/>
                        <path fill="#FFF" fill-rule="nonzero" d="M9.4 7.4H10.6V8.6H9.4zM5.4 7.4H6.6000000000000005V8.6H5.4z"/>
                    </g>
                </g>
            </g>
        </g>
    </g>
</svg>
