<svg width="96" height="96" xmlns="http://www.w3.org/2000/svg" xmlns:xlink="http://www.w3.org/1999/xlink">
    <defs>
        <path id="a" d="M0 0h96v96H0z"/>
        <path id="c" d="M0 235h96V0H0z"/>
    </defs>
    <g fill="none" fill-rule="evenodd">
        <mask id="b" fill="#fff">
            <use xlink:href="#a"/>
        </mask>
        <g mask="url(#b)">
            <g transform="translate(0 8)">
                <path d="M51.393 31.732c-1.727-.697-3.294-1.733-3.02-7.324h-.161a.632.632 0 0 0-.625.596c-.118 1.758-.114 6.804 3.806 6.728" fill="#FFF"/>
                <path d="M94.726 83.008c-.297.482-.7.913-1.225 1.274 0 0-3.307 1.786-5.52-1.49L71.254 63.92s-.15-17.055 5.344-14.71c5.495 2.344 16.742 24.615 16.742 24.615.416.692.799 1.438 1.124 2.21 1.022 2.433 1.435 5.096.26 6.974" fill="#FEAE02"/>
                <path d="m94.726 83.008-2.312-1.43c1.512-.96 2.953-2.482 2.05-5.545 1.023 2.434 1.436 5.097.262 6.975" fill="#D69005"/>
                <path fill="#FEAE02" d="m10.362 75.857 25.762-12.56-2.554-14.788L11.91 62.78z"/>
                <path d="m28.989 66.285-5.568 2.698-8.806 4.268-2.031.984c-.44.213-.056.87.384.657l5.567-2.698 8.807-4.268 2.03-.984c.441-.214.056-.87-.383-.657" fill="#000"/>
                <path d="m15.142 35.487 2.377-2.626a11.796 11.796 0 0 0 2.631-4.796l.862-3.139a1.25 1.25 0 0 0-1.079-1.575 1.6 1.6 0 0 0-1.577.848l-1.607 3.058-.447-13.52a.968.968 0 0 0-1.102-.947l-.388.054a.968.968 0 0 0-.831.9l.014 8.015-1.29-9.204a.968.968 0 0 0-1.156-.874l-.282.057a.968.968 0 0 0-.773 1.023l1.057 9.617-2.26-7.528a.967.967 0 0 0-1.384-.6l-.11.059a.968.968 0 0 0-.5 1.033l1.504 8.11-1.542-4.78a.968.968 0 0 0-1.866.51l4.003 17.926 5.746-1.621z" fill="#F8B498"/>
                <path d="M13.104 31.119c.528-1.165 1.327-2.19 2.413-2.88.302-.192.674-.387.953-.491.147-.055.335-.081.471-.162.197-.115.3-.446.399-.636l.644-1.225c.262-.5.485-1.075.832-1.526.144-.187.323-.38.537-.487.265-.133.465 0 .7.135.196.112.414.241.51.455.138.307.033.69-.047.996-.125.474.609.676.733.202.22-.836.184-1.625-.568-2.156-.3-.212-.675-.443-1.05-.458-.405-.016-.77.198-1.062.461a3.074 3.074 0 0 0-.65.866l-.827 1.574-.67 1.279c.075-.06.15-.117.226-.176-.562.133-1.113.427-1.592.74-1.155.759-2.04 1.85-2.609 3.105-.2.442.455.83.657.384" fill="#000"/>
                <path d="m15.14 35.488-1.42 25.754-.552 10.037a6.107 6.107 0 0 1-6.622 5.229c-3.91-.37-6.456-4.283-5.216-8.01l1.775-6.997 7.052-27.807 4.984 1.794z" fill="#F8B498"/>
                <path d="M15.016 35.776c-.817.772-3.209.651-3.209.651s1.153 2.942 2.702 2.942c.638 0 .507-3.593.507-3.593" fill="#DB7368"/>
                <path d="M11.706 36.794c1.29.329 2.73-.157 3.705-1.038.364-.33-.176-.867-.538-.538l-.066.056c-.024.02-.127.097-.023.02-.037.026-.073.054-.11.081a4.88 4.88 0 0 1-.688.413c-.613.302-1.36.455-2.078.272-.474-.12-.677.613-.202.734" fill="#000"/>
                <path d="m13.72 60.988-.552 10.29a6.107 6.107 0 0 1-6.622 5.23c-3.91-.37-6.456-4.283-5.216-8.01l.757-2.986c4.432 6.426 11.978-.53 11.633-4.524" fill="#DB7368"/>
                <path d="M1.38 70.511a521.42 521.42 0 0 1 1.415-5.833 1667.8 1667.8 0 0 1 1.836-7.345 4312.498 4312.498 0 0 1 4.822-18.917c.119-.464.39-1.052.282-1.537a37883.547 37883.547 0 0 0-2.118-9.484l-1.285-5.753c-.19-.854-.38-1.708-.572-2.561-.009-.038-.016-.091-.007-.015a.853.853 0 0 1-.002-.235c.039-.224.242-.363.465-.437.463-.152.265-.887-.202-.733-.777.255-1.148.897-.974 1.685l.242 1.081 1.12 5.018 1.408 6.3 1.04 4.663.127.565c.013.056.016.184.052.232-.07-.092.035-.298-.028-.087-.038.125-.065.253-.098.38a4663 4663 0 0 0-4.485 17.57 1991.94 1991.94 0 0 0-1.92 7.65 750.076 750.076 0 0 0-1.56 6.366c-.098.408-.195.816-.291 1.225-.112.477.621.68.733.202M9.168 23.35l-1.433-7.719c-.024-.13-.051-.258-.072-.388.015.094 0 .112.017.015.014-.083.012-.132.03-.213.042-.184.096-.383.298-.427.478-.105.276-.84-.202-.735-.685.15-.972 1.006-.863 1.634.088.512.19 1.023.284 1.534l.955 5.14.252 1.362c.09.48.823.278.734-.202M11.932 22.378l-.44-3.993-.578-5.267c-.017-.154-.038-.307-.054-.46.012.119 0 .04.007-.034.004-.05.006-.086.034-.147.13-.285.47-.372.75-.43.478-.097.276-.831-.203-.733-.582.119-1.167.443-1.31 1.064-.037.163-.033.31-.013.472-.007-.055-.015-.127-.004-.018.06.596.131 1.192.197 1.788l.676 6.148.177 1.61c.053.482.814.487.76 0M14.375 21.76l-.008-4.638-.005-2.754c0-.182.04-.417-.001-.596-.015-.066-.004.041-.013.071.012-.039.016-.082.03-.122a.86.86 0 0 1 .273-.37 1.01 1.01 0 0 1 .422-.165c.043-.008.29-.03.182-.023-.104.007-.019 0 0 .002.177.014.249-.024.417.058.276.135.248.47.252.74.012.663.033 1.328.053 1.992.064 2.193.137 4.387.209 6.58.049 1.482.065 2.969.149 4.449l.002.072c.017.488.778.49.761 0-.046-1.33-.09-2.661-.134-3.992-.076-2.309-.152-4.617-.221-6.927-.021-.713-.045-1.427-.057-2.142-.008-.403-.016-.806-.283-1.137-.284-.35-.745-.482-1.182-.451-.778.054-1.601.562-1.62 1.43-.017.72.002 1.445.003 2.166.004 1.88-.024 3.761.01 5.64v.116c0 .49.762.491.76 0" fill="#000"/>
                <path d="M12.914 75.633c-2.774 2.95-9.029 4.6-11.901-.15-2.792-4.618 1.073-9.972 1.073-9.972.667 3.618 3.857 4.408 5.992 4.096 3.094-.457 5.404-4.031 5.59-7.401 2.21 1.576 2.157 10.329-.754 13.427" fill="#F96F08"/>
                <path d="M14.59 25.618c1.894-.672 1.642-3.701-.738-3.099-2.38.603-5.648 1.945-5.388 2.581.262.637 2.075 1.956 6.126.518" fill="#DB7368"/>
                <path d="M2.012 76.942c-1.415-5.815.794-9.074.89-9.21l.263.184c-.023.032-2.22 3.286-.84 8.95l-.313.076zM5.906 78.484c-.011-.045-1.161-4.567 0-9.03l.312.08c-1.142 4.384-.012 8.825 0 8.87l-.312.08zM10.201 77.485c0-.035-.014-3.552-1.14-8.149l.313-.076c1.135 4.636 1.149 8.19 1.149 8.225H10.2zM13.905 73.78c-.003-.053-.294-5.366-2.07-6.6l.183-.264c1.905 1.324 2.196 6.623 2.208 6.848l-.321.016zM15.587 69.047l-.321-.006c0-.04.05-4.025-1.972-4.806l.116-.3c2.23.862 2.18 4.939 2.177 5.112" fill="#FEAE02"/>
                <path d="M22.3 69.393c2.497-6.402 7.873-9.167 7.873-9.167l-.992 5.88-6.88 3.287z" fill="#D69005"/>
                <mask id="d" fill="#fff">
                    <use xlink:href="#c"/>
                </mask>
                <path d="M34.674 105.544s18.052 2.524 28.538 0c1.654-15.569-1.844-60.364-1.844-60.364l-13.925-.88s-6.873-.29-9.036 22.283l-3.733 38.96" fill="#FFF" mask="url(#d)"/>
                <path d="M34.573 105.91c2.263.317 4.543.535 6.82.717 4.705.378 9.446.564 14.163.306 2.602-.142 5.218-.415 7.757-1.022.176-.042.262-.203.28-.367.187-1.774.282-3.558.345-5.34.078-2.188.1-4.378.099-6.568a333.261 333.261 0 0 0-.1-7.446 520.809 520.809 0 0 0-.248-7.84c-.103-2.632-.221-5.265-.352-7.896a1031.181 1031.181 0 0 0-1.45-23.427c-.043-.59-.08-1.181-.133-1.77l-.006-.077a.392.392 0 0 0-.38-.38l-5.366-.34c-2.556-.16-5.113-.322-7.67-.484-.503-.031-.964-.1-1.456.026-.881.226-1.663.794-2.307 1.417-1.35 1.308-2.28 3.027-3.01 4.738-1.393 3.262-2.177 6.766-2.746 10.255-.427 2.608-.696 5.232-.948 7.861l-.795 8.296-1.361 14.205-.954 9.955-.443 4.62-.019.195c-.046.487.715.484.761 0l.299-3.117.825-8.604a107966.319 107966.319 0 0 1 2.004-20.925c.27-2.809.503-5.623.829-8.425.469-4.04 1.154-8.111 2.464-11.972.408-1.202.882-2.382 1.472-3.507.234-.447.487-.885.763-1.308.232-.355.473-.69.696-.962.22-.268.452-.526.701-.766a7.293 7.293 0 0 1 .496-.44c.107-.087-.003-.002.105-.08.187-.136.378-.265.58-.378.087-.048.175-.093.265-.135l.112-.052c.077-.035-.076.03-.022.01l.065-.026a3.73 3.73 0 0 1 .4-.128c.05-.012.101-.022.152-.032.021-.005.043-.007.064-.011.077-.016-.12.007-.035.004.104-.003.196-.006.3 0l6.375.403 6.993.442.411.025-.38-.38.092 1.217a1012.028 1012.028 0 0 1 .992 14.86c.146 2.447.284 4.895.41 7.342.135 2.6.259 5.2.367 7.8.11 2.64.206 5.28.279 7.921.07 2.517.12 5.035.14 7.553.017 2.281.01 4.563-.046 6.844a96.905 96.905 0 0 1-.28 5.657c-.033.39-.07.78-.11 1.17l.279-.367c-4.6 1.1-9.44 1.185-14.146 1.084a134.396 134.396 0 0 1-14.115-1.074c-.118-.016.096.013-.034-.005l-.041-.005c-.205-.03-.406.05-.468.266-.051.177.063.44.266.468" fill="#000" mask="url(#d)"/>
                <path d="M43.037 105.807s-4.063-40.155 4.568-59.665V44.3s-5.52 9.453-5.774 11.352c-.67 5-.902 16.365-2.018 21.25-1.117 4.886.185 28.717.185 28.717l3.04.187z" fill="#DFE0E7" mask="url(#d)"/>
                <path d="M46.047 47.895c.735 1.15 2.135 1.91 3.406 2.276 1.461.421 2.999.371 4.49.16a13.101 13.101 0 0 0 3.59-1.022c.503-.23 1.01-.493 1.441-.844.38-.308-.16-.844-.537-.538-.019.015.1-.07.001-.003-.067.046-.133.094-.201.139-.245.16-.501.302-.762.433-.957.478-1.998.789-3.047.987-2.299.435-4.906.425-6.839-1.075a5.007 5.007 0 0 1-.7-.659l-.101-.12c-.081-.098.022.03-.024-.032-.02-.028-.042-.056-.06-.086-.264-.411-.923-.03-.657.384" fill="#000" mask="url(#d)"/>
                <path d="M48.154 43.585s-13.241 4.118-15.042 5.26c-1.311 1.894-4.097 14.145-4.802 28.07-1.04 20.524 1.828 44.685 1.828 44.685h11.124s-3.965-65.105 6.225-76.727c.488-.556.108-.99.667-1.288" fill="#FEAE02" mask="url(#d)"/>
                <path d="M13.913 62.078c1.248-.894 2.503-1.78 3.76-2.66a401.363 401.363 0 0 1 7.925-5.432c2.29-1.525 4.593-3.093 7.035-4.37a14.543 14.543 0 0 1 .81-.393l.066-.028.219-.088a84.455 84.455 0 0 1 1.904-.73A282 282 0 0 1 40.57 46.6a669.63 669.63 0 0 1 7.549-2.601l.137-.047c.46-.155.263-.89-.203-.734-2.157.728-4.31 1.469-6.458 2.218-1.698.592-3.394 1.19-5.082 1.807-1.229.449-2.49.87-3.676 1.422-.96.447-1.875 1.002-2.78 1.552-1.285.782-2.55 1.599-3.807 2.426a355.577 355.577 0 0 0-8.116 5.527c-1.517 1.059-3.038 2.114-4.535 3.2l-.07.05c-.395.284-.016.944.384.658" fill="#000" mask="url(#d)"/>
                <path d="m59.006 33.652-.364 12.294s-7.148 4.423-10.957.3c-.2-4 .037-6.934.037-6.934l11.284-5.66z" fill="#F8B498" mask="url(#d)"/>
                <path d="M47.605 46.141s8.032.301 9.597-8.244c.302-3.872 0-4.706 0-4.706l-9.48 7.39-.117 5.56z" fill="#DB7368" mask="url(#d)"/>
                <path d="M36.78 9.292c-.628 4.73.137 32.085 11.195 32.538 13.203.542 15.619-18.536 16.803-23.038C65.962 14.29 63.83 3.39 52.936 1.968 42.04.547 37.406 4.561 36.779 9.292" fill="#F8B498" mask="url(#d)"/>
                <path d="M39.224 28.713c-2.855-.46-6.272-6.186-3.615-9.146 2.805-3.126 4.795 2.314 4.795 2.314l-1.18 6.832z" fill="#DB7368" mask="url(#d)"/>
                <path d="M39.325 28.346c-.919-.158-1.688-.775-2.305-1.444a7.872 7.872 0 0 1-1.678-2.864c-.328-1.007-.45-2.113-.097-3.13.28-.806 1.032-1.795 1.94-1.92.704-.098 1.306.457 1.725.976.413.513.734 1.11 1 1.71.012.026.08.186.037.083l.043.104c.008.02.027.106.046.12-.075-.053.028-.3-.012-.128-.017.077-.027.157-.04.234l-.356 2.062-.77 4.463c-.083.48.65.685.733.202l.729-4.221c.13-.759.262-1.517.393-2.275.027-.16.094-.378.057-.538-.034-.151-.122-.306-.183-.446-.568-1.294-1.627-3.134-3.253-3.116-1.081.012-2.026.921-2.522 1.813-.59 1.056-.644 2.305-.401 3.47.28 1.343.95 2.61 1.827 3.66.73.874 1.729 1.72 2.885 1.92.479.082.685-.651.202-.735" fill="#000" mask="url(#d)"/>
                <path d="M64.778 18.792C65.962 14.29 63.83 3.39 52.935 1.968 42.041.546 37.405 4.561 36.78 9.292c-.627 4.731.138 32.085 11.196 32.539 3.847.157 6.546-1.119 8.829-3.477" fill="#F8B498" mask="url(#d)"/>
                <path d="M65.145 18.893c.624-2.4.288-5.092-.444-7.427-.96-3.056-2.823-5.81-5.496-7.613-1.563-1.055-3.36-1.745-5.207-2.098a27.071 27.071 0 0 0-7.188-.382c-3.193.26-6.641 1.251-8.715 3.862a8.055 8.055 0 0 0-1.59 3.406c-.155.763-.2 1.547-.23 2.323-.093 2.334-.009 4.678.15 7.007.21 3.052.576 6.1 1.165 9.102.58 2.954 1.37 5.905 2.653 8.636 1.029 2.191 2.473 4.403 4.633 5.62 1.057.595 2.213.867 3.42.892 2.236.046 4.464-.438 6.374-1.63a12.927 12.927 0 0 0 2.403-1.968c.342-.35-.196-.89-.538-.538-1.45 1.488-3.192 2.609-5.229 3.085-1.103.258-2.248.334-3.378.278a5.914 5.914 0 0 1-1.525-.276c-2.111-.669-3.65-2.49-4.74-4.378-1.402-2.43-2.252-5.161-2.897-7.878-.693-2.921-1.132-5.9-1.412-8.888a75.79 75.79 0 0 1-.351-7.543c.01-1.78-.008-3.524.7-5.145 1.13-2.591 3.643-4.086 6.294-4.753 2.016-.507 4.119-.596 6.187-.491 2.165.11 4.341.377 6.363 1.197 2.986 1.21 5.31 3.573 6.678 6.467 1.098 2.323 1.646 5.007 1.417 7.574-.04.453-.11.89-.231 1.357-.123.474.61.677.734.202" fill="#000" mask="url(#d)"/>
                <path d="M54.59 20.758c1.793-.174 3.062.897 3.758 2.43.86 1.894.13 7.844-4.281 7.354 2.477.275 2.296-8.963 2.296-8.963M42.433 20.758c1.794-.174 3.057.9 3.758 2.43.633 1.38.13 7.844-4.281 7.354 2.478.275 2.296-8.963 2.296-8.963" fill="#DB7368" mask="url(#d)"/>
                <path d="M61.794 28.635s4.997 1.008 7.01-4.227c1.848-4.806-2.514-7.512-4.72-4.627-1.776 2.321-2.111 5.237-2.111 5.237" fill="#F8B498" mask="url(#d)"/>
                <path d="M61.693 29.003c.876.174 1.829.106 2.693-.087 1.887-.424 3.426-1.686 4.326-3.386 1.002-1.895 1.437-4.452-.084-6.206-1.145-1.321-3.084-1.456-4.382-.283-.516.467-.905 1.094-1.239 1.697a12.189 12.189 0 0 0-.874 2c-.25.738-.45 1.505-.54 2.28-.058.486.703.481.76 0 .009-.074-.018.104.003-.026l.061-.353c.074-.39.169-.776.279-1.156.335-1.154.829-2.267 1.525-3.25.44-.621 1.033-1.152 1.818-1.244.639-.075 1.288.159 1.765.583 1.474 1.31 1.193 3.553.45 5.17-.743 1.615-2.025 2.88-3.759 3.361-.613.171-1.215.241-1.854.228-.2-.004-.399-.02-.598-.04-.125-.012.044.009-.017-.001l-.072-.011a.795.795 0 0 1-.059-.01c-.478-.096-.683.638-.202.734" fill="#000" mask="url(#d)"/>
                <path d="M63.962 26.503c2.869.164 4.682-5.016 2.29-4.743-2.391.272-2.672 4.72-2.29 4.743" fill="#DB7368" mask="url(#d)"/>
                <path d="M46.246 22.573c-.44 2.032-.916 4.13-.812 6.223.046.914.203 1.966.871 2.651.707.725 2.025.855 2.869.305.593-.386 1.028-1.074 1.18-1.764.105-.477-.628-.681-.733-.202-.099.445-.317.883-.694 1.205-.58.498-1.61.44-2.116-.117-.524-.575-.6-1.507-.623-2.247-.033-1.027.081-2.058.243-3.07a50.76 50.76 0 0 1 .549-2.782c.103-.477-.63-.681-.734-.202M51.745 20.217c1.584-1.464 3.926-1.396 5.77-.388.861.47 1.63-.844.769-1.314-2.432-1.328-5.51-1.32-7.614.626-.303.279-.283.794 0 1.076.3.302.773.28 1.075 0M46.448 19.141c-.934-.905-2.298-1.283-3.566-1.363-1.263-.08-2.7.198-3.601 1.157-.67.713.403 1.791 1.076 1.076.044-.047.089-.093.136-.137.014-.013.15-.125.073-.066-.077.06.067-.045.083-.055.055-.036.112-.07.17-.103.06-.033.12-.062.181-.092.125-.064-.041.012.04-.018a4.201 4.201 0 0 1 .724-.198c.01-.002.243-.035.092-.016a5.834 5.834 0 0 1 1.027-.025c.063.004.128.008.192.015.003 0 .246.028.104.009a5.817 5.817 0 0 1 1.168.287c.057.02.112.041.169.063.08.031-.078-.04.046.021.123.06.246.119.364.188.094.055.183.116.273.177.159.108-.09-.1.041.034.042.043.09.08.132.122.704.682 1.781-.393 1.076-1.076M51.017 36.244s.855-2.081.66-3.28c-1.274.704-4.083 1.525-6.116 1.332.644 1.644 1.843 3.46 3.638 3.03 1.794-.43 1.818-1.082 1.818-1.082" fill="#000" mask="url(#d)"/>
                <path d="M46.884 36.772s.313-1.412 4.676-1.614c-.521 1.06-.954 1.685-2.361 2.169-1.407.483-2.315-.555-2.315-.555" fill="#EF033A" mask="url(#d)"/>
                <path d="M51.766 33.841s-2.63 1.529-6.057.982a15 15 0 0 1-.257-1.098s.854.592 2.861.267c2.007-.326 3.389-1.28 3.389-1.28l.064 1.13z" fill="#FFF" mask="url(#d)"/>
                <path d="M45.35 34.091c.61.25 1.327.318 1.977.326 1.625.019 3.2-.52 4.567-1.377l-.56-.227c.008.037.024.166.006.023a6.343 6.343 0 0 1 .032 1.257c-.06.79-.305 1.613-.884 2.18-.686.67-1.885.962-2.783.578-.705-.301-1.167-.982-1.459-1.664a6.2 6.2 0 0 1-.334-1.056 6.844 6.844 0 0 1-.07-.36c-.015-.082-.025-.177-.01-.046-.057-.48-.818-.487-.76 0 .166 1.392.811 3.03 2.111 3.716 1.041.55 2.42.39 3.383-.26.867-.584 1.348-1.546 1.505-2.561a6.175 6.175 0 0 0-.002-2.01c-.043-.24-.365-.348-.56-.227-1.278.802-2.731 1.305-4.252 1.271-.566-.012-1.174-.08-1.704-.296-.453-.186-.65.55-.202.733M64.347 25.27c.006-.135.02-.269.037-.402l.01-.084c.005-.048-.014.09.003-.023.013-.08.024-.16.039-.239.03-.178.067-.354.11-.53a6.574 6.574 0 0 1 .267-.842c.007-.018.037-.087.007-.019l.028-.061a3.703 3.703 0 0 1 .383-.669c.061-.086-.03.035.01-.015l.052-.063a2.888 2.888 0 0 1 .191-.2c.022-.02.117-.1.097-.085-.044.035.04-.029.039-.028.026-.018.053-.037.08-.054.046-.029.092-.056.14-.08l.059-.029c.095-.046-.071.024.03-.013a2.032 2.032 0 0 1 .325-.09c.074-.014.02-.004.004-.002a2.211 2.211 0 0 1 .314-.012c.026 0 .052.002.078.004.013.001.135.014.08.006.203.029.408-.049.467-.265.05-.178-.06-.44-.265-.468-.537-.075-1.069-.024-1.547.25-.411.237-.735.606-.977 1.01-.426.71-.641 1.546-.754 2.36-.03.214-.058.428-.068.643-.023.49.738.488.76 0" fill="#000" mask="url(#d)"/>
                <path d="M57.997 25.374c0 2.654-1.636 4.806-3.654 4.806s-3.654-2.152-3.654-4.806 1.58-4.281 3.598-4.281c2.017 0 3.71 1.627 3.71 4.281" fill="#F8B498" mask="url(#d)"/>
                <path d="M51.702 24.46s.421-1.26 1.399-1.73c1.415-.678 2.462.2 3.472 1.6 0 0-2.287 2.315-4.87.13" fill="#FFF" mask="url(#d)"/>
                <path d="M52.277 24.561a1.39 1.39 0 0 1 .051-.135c-.037.092.007-.014.012-.026.086-.182.179-.359.288-.528.278-.428.655-.77 1.15-.92 1.171-.355 2.063.728 2.674 1.57.12.166.332.25.521.137.163-.097.258-.353.136-.52-.809-1.114-1.944-2.351-3.468-1.939-1.026.278-1.766 1.177-2.098 2.158-.157.466.578.665.734.203" fill="#000" mask="url(#d)"/>
                <path d="M45.787 25.374c0 2.654-1.636 4.806-3.654 4.806s-3.654-2.152-3.654-4.806 1.58-4.281 3.598-4.281c2.017 0 3.71 1.627 3.71 4.281" fill="#F8B498" mask="url(#d)"/>
                <path d="M55.954 23.96a1.273 1.273 0 1 1-2.547.001 1.273 1.273 0 0 1 2.547 0" fill="#000" mask="url(#d)"/>
                <path d="M55.576 23.422a.358.358 0 1 1-.715 0 .358.358 0 0 1 .715 0M40.165 24.46s.42-1.26 1.398-1.73c1.415-.678 2.462.2 3.473 1.6 0 0-2.287 2.315-4.871.13" fill="#FFF" mask="url(#d)"/>
                <path d="m40.532 24.561.025-.069.027-.066.011-.026c.086-.182.179-.359.288-.528.278-.428.654-.77 1.15-.92 1.171-.355 2.062.728 2.674 1.57.12.166.331.25.52.137.164-.097.259-.353.137-.52-.809-1.114-1.944-2.351-3.469-1.939-1.025.278-1.765 1.177-2.097 2.158-.157.466.578.665.734.203" fill="#000" mask="url(#d)"/>
                <path d="M44.209 23.96a1.274 1.274 0 1 1-2.548 0 1.274 1.274 0 0 1 2.548 0" fill="#000" mask="url(#d)"/>
                <path d="M43.831 23.422a.358.358 0 1 1-.715 0 .358.358 0 0 1 .715 0" fill="#FFF" mask="url(#d)"/>
                <path d="M47.962 39.077c.258.168.58.244.88.279.682.078 1.318-.197 1.845-.608.158-.123.14-.411 0-.538-.167-.154-.37-.131-.538 0a2.54 2.54 0 0 1-.39.238c-.012.006-.103.047-.071.034.033-.014-.058.021-.07.025a1.99 1.99 0 0 1-.283.079c-.02.004-.135.02-.034.008a1.851 1.851 0 0 1-.409.006c-.039-.004-.083-.034.004.002-.076-.031-.176-.033-.256-.056a1.865 1.865 0 0 1-.155-.053c-.064-.023.016.003.034.016-.053-.036-.118-.054-.173-.089-.167-.11-.427-.04-.52.136-.1.19-.042.405.136.521M64.736 23.267c.036-.002.071-.001.107 0 .041.002.082.005.123.01.012 0 .023.002.035.003a2.619 2.619 0 0 1 .027.007 1.811 1.811 0 0 1 .262.074l.044.017c.068.025-.09-.042-.026-.011a1.733 1.733 0 0 1 .237.136c.052.037-.02-.005-.028-.023.012.027.073.062.095.084.032.03.062.062.09.096.005.006.02.02.022.026 0-.002-.058-.078-.029-.035l.04.058c.028.043.053.089.076.135l.012.026c.028.057-.028-.071-.011-.028.01.028.022.056.031.085.065.188.264.332.469.266.186-.06.334-.267.265-.468a1.707 1.707 0 0 0-.808-.977 2.188 2.188 0 0 0-1.033-.243c-.198.012-.39.167-.38.381.008.196.167.393.38.38" fill="#000" mask="url(#d)"/>
                <path d="M37.275 17.035s9.205 2.235 16.189-1.427c3.927-2.165 3.927-4.755 3.927-4.755l-12.355 1.302-7.761 4.88z" fill="#DB7368" mask="url(#d)"/>
                <path d="M64.76 8.063C63.967.838 55.616-.123 51.064.011c-10.867.321-17.717 6.814-17.652 18 .464-.746 1.164-1.39 1.592-1.944.25 1.936.651 3.724 1.676 5.12.006-2.978-.295-4.28-.295-4.28 5.885 1.018 15.372-.973 21.007-6.054.509 1.728 1.014 4.496 4.73 5.834.508 1.85-.381 8.396-.381 8.396s.908-5.253 3.629-6.632c1.462-.741 3.88-8.727-.608-10.388" fill="#000" mask="url(#d)"/>
                <path d="M79.728 121.793H62.617s-6.129-27.846-6.127-62.592c0-11.797 2.308-15.569 2.308-15.569 4.893 1.595 12.254 3.093 17.801 5.576 0 0-2.688 16.85-2.468 27.728.453 22.366 5.597 44.857 5.597 44.857" fill="#FEAE02" mask="url(#d)"/>
                <path d="M73.9 67.011c-.524 4.05-.503 8.166-.336 12.238.193 4.72.628 9.43 1.179 14.12.527 4.49 1.165 8.969 1.881 13.434a387.18 387.18 0 0 0 1.805 10.351c.201 1.065.407 2.13.619 3.193.096.483.146 1.015.3 1.484.007.02.01.043.013.063l.367-.481H62.617c-.49 0-.49.76 0 .76h17.111c.26 0 .417-.241.367-.481a215.232 215.232 0 0 1-.759-3.83 385.143 385.143 0 0 1-1.73-9.736A330.442 330.442 0 0 1 75.7 94.988c-.579-4.682-1.048-9.382-1.297-14.094-.222-4.189-.303-8.417.112-12.597.042-.43.091-.858.147-1.286.062-.484-.7-.48-.761 0" fill="#000" mask="url(#d)"/>
                <path d="M73.37 77.19s-4.685-7.158-3.382-15.046c2.582 2.58 3.532 5.121 3.532 5.121l-.15 9.925z" fill="#D69005" mask="url(#d)"/>
                <path d="M52.64 61.273a1.737 1.737 0 0 0-1.806.8c-.087.144-.152.3-.193.463a1.718 1.718 0 0 0-3.33 0 1.737 1.737 0 0 0-1.327-1.263 1.737 1.737 0 0 0-1.807.8 1.722 1.722 0 0 0 2.056 2.507c.535-.197.94-.645 1.083-1.197.06.246.174.474.334.67a1.717 1.717 0 0 0 2.993-.67 1.718 1.718 0 0 0 3.384-.424 1.737 1.737 0 0 0-1.386-1.686M47.148 69.628c.175.749.621 1.447 1.402 1.66a1.74 1.74 0 0 0 1.948-.797c.23-.403.2-.858.198-1.304v-1.893c0-.424-.01-.837.2-1.22a1.608 1.608 0 0 1 2.889.134c.161.374.134.779.135 1.176v.984c0 .708.044 1.446-.094 2.143a5.084 5.084 0 0 1-2.95 3.666 4.962 4.962 0 0 1-4.674-.447 4.784 4.784 0 0 1-1.593-1.808c-.36-.717-.579-1.613-.44-2.417a1.496 1.496 0 0 1 2.76-.509c.117.195.168.411.22.632" fill="#FDAF27" mask="url(#d)"/>
                <path d="m78.17 91.917-13.32 11.924a2.028 2.028 0 0 1-2.864-.159L46.259 86.098a2.03 2.03 0 0 1 .159-2.867l13.32-11.923a2.028 2.028 0 0 1 2.864.159L78.33 89.05a2.03 2.03 0 0 1-.159 2.866" fill="#000" mask="url(#d)"/>
                <path d="M95.7 83.805C92.5 87.902 63.137 95.06 63.137 95.06l-8.365-3.714 28.524-14.443 12.402 6.9z" fill="#F8B498" mask="url(#d)"/>
                <path d="m67.1 94.062-3.961 1.599s-1.149 2.27-3.997 3.879a4.018 4.018 0 0 1-.954.39c-3.798 1.003-8.041-4.033-7.584-7.243.042-.322.134-.627.281-.906 0 0-2.308 1.464-4.202.09-1.045-.757-.54-2.419.748-2.482 1.413-.068 3.507-2.002 5.656-2.147 2.962-.2 6.027.641 7.551.762l4.43.692 2.032 5.366z" fill="#F8B498" mask="url(#d)"/>
                <path d="M89.686 86.718a761.697 761.697 0 0 1-10.574 3.603c-3.011 1.001-6.029 1.983-9.059 2.924-1.42.44-2.844.872-4.272 1.286-.645.186-1.29.37-1.938.546-.275.075-.65.11-.896.255-.213.126-.384.426-.54.614-.174.209-.346.418-.518.627-.893 1.08-1.799 2.284-3.158 2.79-.16.06-.338.092-.492.16-.018.008-.152.034-.023.025-.036.003-.088-.014-.124-.018a2.374 2.374 0 0 0-.315-.023c-.366 0-.724.09-1.087.11-.347.02-.534-.047-.653-.388-.108-.309-.208-.62-.312-.93l-.048-.142c-.071-.212-.254-.298-.468-.265.175-.027-.011-.002-.057 0a1.708 1.708 0 0 1-.284-.008c-.266-.033-.536-.142-.705-.358-.221-.28-.354-.684-.486-1.015-.048-.121-.099-.244-.133-.37-.056-.212-.266-.303-.467-.266.173-.032-.128-.006-.12-.005a1.004 1.004 0 0 1-.524-.239c-.265-.226-.467-.583-.491-.932a1.097 1.097 0 0 1 .036-.365 1.6 1.6 0 0 1 .047-.145c-.006.016-.024.053-.005.015.108-.213.023-.497-.227-.56-.204-.05-.405-.203-.406-.48-.002-.49-.763-.49-.761 0 .002.583.398 1.073.964 1.214l-.227-.559c-.62 1.222.488 3.048 1.916 2.79l-.468-.266c.048.18.124.353.196.525.186.446.359.969.722 1.305.446.413 1.093.543 1.682.453l-.467-.266c.13.389.248.785.393 1.169.316.836 1.033.902 1.817.797.169-.023.338-.047.508-.055.192-.009.39.051.577.033.347-.033.726-.21 1.043-.349.613-.268 1.153-.666 1.632-1.13.609-.59 1.139-1.262 1.678-1.915l.502-.605c.066-.08.167-.243.22-.286.018-.015.135-.047.2-.064.306-.082.612-.166.917-.25 1.397-.387 2.788-.798 4.175-1.22 3.096-.94 6.176-1.933 9.248-2.946a740.967 740.967 0 0 0 8.05-2.71c1.31-.448 2.63-.878 3.929-1.357l.055-.02c.46-.161.262-.897-.202-.734" fill="#000" mask="url(#d)"/>
                <path d="M75.006 81.036c1.215 1.486 7.92 6.007 11.211 6.78 1.367-.502 4.7-1.863 4.7-1.863l-15.911-4.917z" fill="#DB7368" mask="url(#d)"/>
                <path d="M29.806 59.998c-.039.137-.07.276-.101.415-.099.436-.181.876-.259 1.316-.139.798-.255 1.6-.36 2.402a89.212 89.212 0 0 0-.38 3.459 134.065 134.065 0 0 0-.34 4.68 190.2 190.2 0 0 0-.24 6.028 262.661 262.661 0 0 0-.071 7.525c.012 3.022.07 6.045.16 9.066.108 3.585.264 7.169.457 10.75.227 4.206.504 8.409.823 12.608.084 1.118.172 2.235.263 3.353.039.485.8.49.76 0-.35-4.333-.66-8.67-.918-13.01a482.25 482.25 0 0 1-.54-11.188 372.985 372.985 0 0 1-.229-9.474c-.028-2.625-.025-5.25.02-7.875.037-2.13.1-4.26.203-6.387.08-1.672.184-3.343.32-5.012a100.127 100.127 0 0 1 .47-4.497l.023-.18c.007-.049.008-.059 0 .001l.013-.099.047-.336c.054-.384.112-.767.175-1.15.085-.518.177-1.035.286-1.548.044-.207.108-.413.145-.621l.006-.024c.134-.472-.6-.674-.733-.202" fill="#000" mask="url(#d)"/>
                <path d="M82.093 76.032 96 83.504s-1.253 2.225-5.742 3.558c-2.583.768-15.252-6.026-15.252-6.026l7.087-5.004z" fill="#F96F08" mask="url(#d)"/>
                <path d="m82.362 75.763-4.095-4.727-6.52-7.53-1.49-1.72c-.32-.37-.857.17-.538.539l4.095 4.728 6.52 7.529 1.49 1.72c.322.37.857-.17.538-.539" fill="#000" mask="url(#d)"/>
                <path fill="#FEAE02" mask="url(#d)" d="m76.575 81.937-.187-.26 6.816-4.904.187.261zM79.826 83.553l-.195-.256 6.668-5.08.194.255zM83.648 85.157l-.21-.243 5.856-5.078.21.243zM86.828 86.458l-.206-.246 5.69-4.757.205.246zM89.31 87.232l-.13-.294c.033-.015 3.412-1.537 5.718-4.07l.238.216c-2.353 2.585-5.792 4.132-5.826 4.148"/>
                <path d="M58.697 44c1.588.383 3.168.8 4.744 1.23 3.07.835 6.133 1.723 9.131 2.79 1.286.457 2.57.941 3.792 1.552.44.22.875.455 1.277.74.155.109.218.154.383.316.389.383.738.816 1.09 1.232 1.83 2.161 3.446 4.493 5.017 6.846 1.551 2.324 3.086 4.66 4.542 7.043 1.486 2.435 2.891 4.924 4.112 7.503a45.483 45.483 0 0 1 1.575 3.682c.423 1.145.784 2.373.658 3.607a4.109 4.109 0 0 1-.62 1.768c-.26.416.397.799.656.384 1.442-2.31.468-4.982-.481-7.274-1.098-2.652-2.41-5.206-3.841-7.692-1.443-2.507-3-4.945-4.59-7.36-1.57-2.387-3.146-4.775-4.884-7.043-.831-1.085-1.686-2.176-2.63-3.167-.292-.306-.652-.55-1.012-.769-1.08-.655-2.274-1.134-3.45-1.588-3.027-1.167-6.15-2.089-9.273-2.96-1.955-.546-3.92-1.105-5.9-1.552l-.093-.023c-.476-.115-.68.619-.203.734" fill="#000" mask="url(#d)"/>
                <path d="M42.895 29.714c-2.018 0-3.654-2.152-3.654-4.806 0-1.168.306-2.136.82-2.855-.739.74-1.201 1.868-1.201 3.3 0 2.654 1.636 4.806 3.654 4.806 1.026 0 1.952-.559 2.616-1.455-.618.63-1.392 1.01-2.235 1.01" fill="#FFF" mask="url(#d)"/>
                <path d="M45.406 25.374c-.057 1.858-1.035 4.425-3.273 4.425-2.197 0-3.275-2.559-3.273-4.425.002-1.9 1.089-3.92 3.217-3.9 2.172.02 3.266 1.936 3.329 3.9.016.49.778.492.762 0-.076-2.365-1.495-4.663-4.091-4.662-2.539.001-3.985 2.323-3.979 4.662.007 2.294 1.401 5.187 4.035 5.187 2.68 0 3.964-2.896 4.035-5.187.015-.49-.747-.49-.762 0" fill="#000" mask="url(#d)"/>
                <path d="M55.105 29.714c-2.018 0-3.654-2.152-3.654-4.806 0-1.168.306-2.136.82-2.855-.739.74-1.2 1.868-1.2 3.3 0 2.654 1.635 4.806 3.653 4.806 1.026 0 1.952-.559 2.616-1.455-.618.63-1.393 1.01-2.235 1.01" fill="#FFF" mask="url(#d)"/>
                <path d="M57.616 25.374c-.057 1.858-1.035 4.425-3.273 4.425-2.197 0-3.275-2.559-3.273-4.425.002-1.9 1.089-3.92 3.217-3.9 2.171.02 3.266 1.936 3.329 3.9.016.49.777.492.762 0-.076-2.365-1.495-4.663-4.091-4.662-2.54.001-3.985 2.323-3.979 4.662.007 2.294 1.401 5.187 4.035 5.187 2.68 0 3.964-2.896 4.035-5.187.015-.49-.747-.49-.762 0" fill="#000" mask="url(#d)"/>
                <path d="M45.633 23.441c1.487-1.486 3.75-.828 5.273.194.408.274.79-.386.385-.658-1.82-1.222-4.462-1.808-6.197-.075-.347.347.191.886.54.539M57.708 23.715l4.998-1.073c.48-.103.277-.838-.202-.735l-4.998 1.073c-.48.103-.277.838.202.735" fill="#000" mask="url(#d)"/>
            </g>
        </g>
    </g>
</svg>
