<svg width="40" height="40" viewBox="0 0 40 40" fill="none" xmlns="http://www.w3.org/2000/svg">
<rect width="40" height="40" rx="14" fill="#722B79"/>
<path fill-rule="evenodd" clip-rule="evenodd" d="M12.1281 28H27.7281C28.1409 28 28.5496 27.9183 28.9307 27.7596C29.3118 27.601 29.6577 27.3684 29.9485 27.0754C30.2392 26.7823 30.4691 26.4347 30.6249 26.0524C30.7807 25.6702 30.8593 25.2608 30.8561 24.848V15.128C30.8561 14.2984 30.5266 13.5028 29.9399 12.9162C29.3533 12.3296 28.5577 12 27.7281 12H25.3681H25.3281H12.1281C11.7153 12 11.3066 12.0817 10.9255 12.2404C10.5444 12.3991 10.1985 12.6316 9.90774 12.9246C9.61696 13.2177 9.38705 13.5653 9.23128 13.9476C9.0755 14.3298 8.99693 14.7392 9.00009 15.152V24.872C9.00009 25.7016 9.32965 26.4972 9.91627 27.0838C10.2067 27.3743 10.5516 27.6047 10.9311 27.7619C11.3106 27.9191 11.7173 28 12.1281 28ZM25.3281 13.6H12.1281C11.7235 13.6021 11.3361 13.7638 11.05 14.0498C10.8558 14.244 10.7189 14.4849 10.6504 14.7461L10.2321 14.48L9.36809 15.832L10.6001 16.6149V24.848C10.598 25.0504 10.6359 25.2512 10.7116 25.4389C10.7874 25.6266 10.8995 25.7974 11.0415 25.9416C11.1835 26.0858 11.3526 26.2006 11.539 26.2793C11.7255 26.3579 11.9257 26.399 12.1281 26.4H27.7281C28.1327 26.3979 28.5201 26.2362 28.8063 25.9502C29.0923 25.664 29.254 25.2766 29.2561 24.872V16.6149L30.4881 15.832L29.6241 14.48L29.2059 14.746C29.1894 14.6833 29.169 14.6215 29.1446 14.5611C29.0688 14.3734 28.9567 14.2026 28.8147 14.0583C28.6727 13.9142 28.5036 13.7994 28.3171 13.7207C28.1307 13.6421 27.9305 13.601 27.7281 13.6H25.3681H25.3281ZM29.2059 14.746L21.4241 19.696C20.9775 19.9818 20.4583 20.1336 19.9281 20.1336C19.3979 20.1336 18.8787 19.9818 18.4321 19.696L10.6504 14.7461C10.6179 14.8697 10.6008 14.998 10.6001 15.128V16.6149L17.5761 21.048C18.278 21.4978 19.0944 21.7366 19.9281 21.736C20.7616 21.7354 21.5776 21.4966 22.2801 21.048L29.2561 16.6149V15.152C29.2575 15.0147 29.2406 14.8782 29.2059 14.746Z" fill="#FDAF27"/>
<mask id="mask0_1024_50384" style="mask-type:alpha" maskUnits="userSpaceOnUse" x="9" y="12" width="22" height="16">
<path fill-rule="evenodd" clip-rule="evenodd" d="M12.1281 28H27.7281C28.1409 28 28.5496 27.9183 28.9307 27.7596C29.3118 27.601 29.6577 27.3684 29.9485 27.0754C30.2392 26.7823 30.4691 26.4347 30.6249 26.0524C30.7807 25.6702 30.8593 25.2608 30.8561 24.848V15.128C30.8561 14.2984 30.5266 13.5028 29.9399 12.9162C29.3533 12.3296 28.5577 12 27.7281 12H25.3681H25.3281H12.1281C11.7153 12 11.3066 12.0817 10.9255 12.2404C10.5444 12.3991 10.1985 12.6316 9.90774 12.9246C9.61696 13.2177 9.38705 13.5653 9.23128 13.9476C9.0755 14.3298 8.99693 14.7392 9.00009 15.152V24.872C9.00009 25.7016 9.32965 26.4972 9.91627 27.0838C10.2067 27.3743 10.5516 27.6047 10.9311 27.7619C11.3106 27.9191 11.7173 28 12.1281 28ZM25.3281 13.6H12.1281C11.7235 13.6021 11.3361 13.7638 11.05 14.0498C10.8558 14.244 10.7189 14.4849 10.6504 14.7461L10.2321 14.48L9.36809 15.832L10.6001 16.6149V24.848C10.598 25.0504 10.6359 25.2512 10.7116 25.4389C10.7874 25.6266 10.8995 25.7974 11.0415 25.9416C11.1835 26.0858 11.3526 26.2006 11.539 26.2793C11.7255 26.3579 11.9257 26.399 12.1281 26.4H27.7281C28.1327 26.3979 28.5201 26.2362 28.8063 25.9502C29.0923 25.664 29.254 25.2766 29.2561 24.872V16.6149L30.4881 15.832L29.6241 14.48L29.2059 14.746C29.1894 14.6833 29.169 14.6215 29.1446 14.5611C29.0688 14.3734 28.9567 14.2026 28.8147 14.0583C28.6727 13.9142 28.5036 13.7994 28.3171 13.7207C28.1307 13.6421 27.9305 13.601 27.7281 13.6H25.3681H25.3281ZM29.2059 14.746L21.4241 19.696C20.9775 19.9818 20.4583 20.1336 19.9281 20.1336C19.3979 20.1336 18.8787 19.9818 18.4321 19.696L10.6504 14.7461C10.6179 14.8697 10.6008 14.998 10.6001 15.128V16.6149L17.5761 21.048C18.278 21.4978 19.0944 21.7366 19.9281 21.736C20.7616 21.7354 21.5776 21.4966 22.2801 21.048L29.2561 16.6149V15.152C29.2575 15.0147 29.2406 14.8782 29.2059 14.746Z" fill="white"/>
</mask>
<g mask="url(#mask0_1024_50384)">
<path fill-rule="evenodd" clip-rule="evenodd" d="M8 8H32V32H8V8Z" fill="white"/>
</g>
</svg>
