<svg width="40" height="40" viewBox="0 0 40 40" xmlns="http://www.w3.org/2000/svg" xmlns:xlink="http://www.w3.org/1999/xlink">
    <defs>
        <path d="M24.856 31.44A5.744 5.744 0 0 1 21.6 30.4c-.672-.36-6.928-3.808-11.904-11.904a5.864 5.864 0 0 1 1.44-8 2.656 2.656 0 0 1 3.696.704l1.784 2.544a2.664 2.664 0 0 1-.616 3.68l-.512.36a27.097 27.097 0 0 0 6.888 6.856l.344-.496a2.664 2.664 0 0 1 3.68-.648l2.544 1.784a2.664 2.664 0 0 1 .656 3.704 5.759 5.759 0 0 1-3.72 2.4c-.34.047-.682.066-1.024.056zm-12.2-19.792c-.217 0-.43.068-.608.192a4.28 4.28 0 0 0-.984 5.84A32.6 32.6 0 0 0 22.4 29.024l.096.056a4.168 4.168 0 0 0 5.8-1.016A1.057 1.057 0 0 0 28 26.592L25.472 24.8a1.031 1.031 0 0 0-.8-.176 1.05 1.05 0 0 0-.68.432l-1.24 1.776-.64-.432a27.552 27.552 0 0 1-8.44-8.432l-.36-.64 1.736-1.216a1.024 1.024 0 0 0 .432-.68 1 1 0 0 0-.176-.8l-1.784-2.536a1.048 1.048 0 0 0-.864-.448z" id="9up3zukl9a"/>
    </defs>
    <g fill="none" fill-rule="evenodd">
        <path d="M17.178 0h5.644c5.318 0 7.734.65 10.016 1.87a12.721 12.721 0 0 1 5.292 5.292C39.35 9.444 40 11.86 40 17.178v5.644c0 5.318-.65 7.734-1.87 10.016a12.721 12.721 0 0 1-5.292 5.292C30.556 39.35 28.14 40 22.822 40h-5.644c-5.318 0-7.734-.65-10.016-1.87a12.721 12.721 0 0 1-5.292-5.292C.65 30.556 0 28.14 0 22.822v-5.644C0 11.86.65 9.444 1.87 7.162A12.721 12.721 0 0 1 7.162 1.87C9.444.65 11.86 0 17.178 0z" fill="#FDAF27"/>
        <path d="M8 8h24v24H8z"/>
        <mask id="jw36d5tpzb" fill="#fff">
            <use xlink:href="#9up3zukl9a"/>
        </mask>
        <use fill="#000" fill-rule="nonzero" xlink:href="#9up3zukl9a"/>
        <g mask="url(#jw36d5tpzb)" fill="#FFF">
            <path d="M8 8h24v24H8z"/>
        </g>
    </g>
</svg>
