<svg width="40" height="40" viewBox="0 0 40 40" xmlns="http://www.w3.org/2000/svg" xmlns:xlink="http://www.w3.org/1999/xlink">
    <defs>
        <path d="M19.728 20h-15.6A3.128 3.128 0 0 1 1 16.872v-9.72A3.131 3.131 0 0 1 4.128 4h13.24c.212 0 .212 1.6 0 1.6H4.128A1.536 1.536 0 0 0 2.6 7.128v9.72A1.536 1.536 0 0 0 4.128 18.4h15.6a1.536 1.536 0 0 0 1.528-1.528v-9.72A1.536 1.536 0 0 0 19.728 5.6h-2.4a.8.8 0 0 1 0-1.6h2.4a3.128 3.128 0 0 1 3.128 3.128v9.72A3.13 3.13 0 0 1 19.728 20zm-7.8-6.264c-.833 0-1.65-.238-2.352-.688L1.368 7.832l.864-1.352 8.2 5.216a2.776 2.776 0 0 0 2.992 0l8.2-5.216.864 1.352-8.208 5.216a4.376 4.376 0 0 1-2.352.688z" id="arsreghxoa"/>
    </defs>
    <g fill="none" fill-rule="evenodd">
        <path d="M17.178 0h5.644c5.318 0 7.734.65 10.016 1.87a12.721 12.721 0 0 1 5.292 5.292C39.35 9.444 40 11.86 40 17.178v5.644c0 5.318-.65 7.734-1.87 10.016a12.721 12.721 0 0 1-5.292 5.292C30.556 39.35 28.14 40 22.822 40h-5.644c-5.318 0-7.734-.65-10.016-1.87a12.721 12.721 0 0 1-5.292-5.292C.65 30.556 0 28.14 0 22.822v-5.644C0 11.86.65 9.444 1.87 7.162A12.721 12.721 0 0 1 7.162 1.87C9.444.65 11.86 0 17.178 0z" fill="#FDAF27"/>
        <g transform="translate(8 8)">
            <path d="M0 0h24v24H0z"/>
            <mask id="hv0kim0jgb" fill="#fff">
                <use xlink:href="#arsreghxoa"/>
            </mask>
            <use fill="#FDAF27" fill-rule="nonzero" xlink:href="#arsreghxoa"/>
            <g mask="url(#hv0kim0jgb)" fill="#FFF">
                <path d="M0 0h24v24H0z"/>
            </g>
        </g>
    </g>
</svg>
