<svg width="40" height="40" viewBox="0 0 40 40" fill="none" xmlns="http://www.w3.org/2000/svg">
<rect width="40" height="40" rx="14" fill="#722B79"/>
<path fill-rule="evenodd" clip-rule="evenodd" d="M22.4766 30.8314C23.5489 31.5814 24.8245 31.988 26.1339 31.9973C26.5185 32.008 26.9032 31.987 27.2842 31.9345C28.124 31.7832 28.9257 31.4676 29.6428 31.0058C30.36 30.5441 30.9785 29.9453 31.4628 29.244C31.9156 28.5954 32.0923 27.7942 31.9541 27.0158C31.816 26.2374 31.3743 25.5455 30.7259 25.0916L27.8683 23.0917C27.2215 22.6473 26.4257 22.4744 25.6525 22.6104C24.8791 22.7462 24.1904 23.18 23.7346 23.8181L23.3482 24.3742C20.3262 22.2985 17.705 19.6947 15.6111 16.6883L16.1862 16.2847C16.8198 15.8245 17.2473 15.1345 17.3767 14.3631C17.5061 13.5917 17.3271 12.8004 16.8782 12.1593L14.8742 9.30735C14.654 8.98295 14.3718 8.70513 14.0437 8.48981C13.7157 8.27449 13.3483 8.12591 12.9626 8.05258C12.5769 7.97927 12.1805 7.98265 11.7961 8.06254C11.4117 8.14243 11.0469 8.29725 10.7226 8.51814C9.34413 9.51476 8.40576 11.0053 8.10421 12.6772C7.80266 14.3492 8.16135 16.0726 9.10509 17.4865C14.6945 26.5625 21.7217 30.4278 22.4766 30.8314ZM11.7473 10.0249C11.9478 9.88565 12.186 9.81058 12.4303 9.80963C12.6207 9.80877 12.8085 9.85401 12.9775 9.94149C13.1465 10.029 13.2918 10.156 13.4008 10.3119L15.4047 13.1548C15.4992 13.2819 15.5657 13.4275 15.5998 13.5821C15.6339 13.7367 15.6348 13.8967 15.6024 14.0517C15.5774 14.2049 15.5215 14.3514 15.4381 14.4824C15.3547 14.6135 15.2455 14.7263 15.1172 14.814L13.1672 16.1772L13.5715 16.8946C16.002 20.6987 19.238 23.9252 23.052 26.3473L23.7709 26.8316L25.1637 24.8406C25.2527 24.7135 25.366 24.6053 25.4971 24.5222C25.6282 24.4392 25.7745 24.3827 25.9276 24.3563C26.0829 24.3262 26.2428 24.3282 26.3974 24.3621C26.5518 24.396 26.6979 24.4612 26.8262 24.5536L29.6658 26.5625C29.7969 26.6485 29.9095 26.7595 29.9973 26.8893C30.0851 27.019 30.1462 27.1648 30.1771 27.3184C30.2081 27.4718 30.2081 27.6298 30.1775 27.7834C30.1468 27.9369 30.0858 28.0828 29.9983 28.2127C29.2849 29.2248 28.1982 29.9132 26.9768 30.1268C25.7554 30.3403 24.499 30.0615 23.4833 29.3517L23.3755 29.2889C18.1362 26.1742 13.7593 21.8028 10.642 16.5718C9.94506 15.5488 9.67095 14.2966 9.8769 13.0767C10.0828 11.8568 10.753 10.7635 11.7473 10.0249Z" fill="white"/>
<mask id="mask0_1024_50363" style="mask-type:alpha" maskUnits="userSpaceOnUse" x="8" y="8" width="24" height="24">
<path fill-rule="evenodd" clip-rule="evenodd" d="M22.4766 30.8314C23.5489 31.5814 24.8245 31.988 26.1339 31.9973C26.5185 32.008 26.9032 31.987 27.2842 31.9345C28.124 31.7832 28.9257 31.4676 29.6428 31.0058C30.36 30.5441 30.9785 29.9453 31.4628 29.244C31.9156 28.5954 32.0923 27.7942 31.9541 27.0158C31.816 26.2374 31.3743 25.5455 30.7259 25.0916L27.8683 23.0917C27.2215 22.6473 26.4257 22.4744 25.6525 22.6104C24.8791 22.7462 24.1904 23.18 23.7346 23.8181L23.3482 24.3742C20.3262 22.2985 17.705 19.6947 15.6111 16.6883L16.1862 16.2847C16.8198 15.8245 17.2473 15.1345 17.3767 14.3631C17.5061 13.5917 17.3271 12.8004 16.8782 12.1593L14.8742 9.30735C14.654 8.98295 14.3718 8.70513 14.0437 8.48981C13.7157 8.27449 13.3483 8.12591 12.9626 8.05258C12.5769 7.97927 12.1805 7.98265 11.7961 8.06254C11.4117 8.14243 11.0469 8.29725 10.7226 8.51814C9.34413 9.51476 8.40576 11.0053 8.10421 12.6772C7.80266 14.3492 8.16135 16.0726 9.10509 17.4865C14.6945 26.5625 21.7217 30.4278 22.4766 30.8314ZM11.7473 10.0249C11.9478 9.88565 12.186 9.81058 12.4303 9.80963C12.6207 9.80877 12.8085 9.85401 12.9775 9.94149C13.1465 10.029 13.2918 10.156 13.4008 10.3119L15.4047 13.1548C15.4992 13.2819 15.5657 13.4275 15.5998 13.5821C15.6339 13.7367 15.6348 13.8967 15.6024 14.0517C15.5774 14.2049 15.5215 14.3514 15.4381 14.4824C15.3547 14.6135 15.2455 14.7263 15.1172 14.814L13.1672 16.1772L13.5715 16.8946C16.002 20.6987 19.238 23.9252 23.052 26.3473L23.7709 26.8316L25.1637 24.8406C25.2527 24.7135 25.366 24.6053 25.4971 24.5222C25.6282 24.4392 25.7745 24.3827 25.9276 24.3563C26.0829 24.3262 26.2428 24.3282 26.3974 24.3621C26.5518 24.396 26.6979 24.4612 26.8262 24.5536L29.6658 26.5625C29.7969 26.6485 29.9095 26.7595 29.9973 26.8893C30.0851 27.019 30.1462 27.1648 30.1771 27.3184C30.2081 27.4718 30.2081 27.6298 30.1775 27.7834C30.1468 27.9369 30.0858 28.0828 29.9983 28.2127C29.2849 29.2248 28.1982 29.9132 26.9768 30.1268C25.7554 30.3403 24.499 30.0615 23.4833 29.3517L23.3755 29.2889C18.1362 26.1742 13.7593 21.8028 10.642 16.5718C9.94506 15.5488 9.67095 14.2966 9.8769 13.0767C10.0828 11.8568 10.753 10.7635 11.7473 10.0249Z" fill="white"/>
</mask>
<g mask="url(#mask0_1024_50363)">
<rect width="26.9586" height="26.905" transform="translate(7.19971 5.72009)" fill="white"/>
<path fill-rule="evenodd" clip-rule="evenodd" d="M7.19971 5.72009H34.1583V32.6251H7.19971V5.72009Z" fill="white"/>
</g>
</svg>
