<svg xmlns="http://www.w3.org/2000/svg" xmlns:xlink="http://www.w3.org/1999/xlink" width="16" height="16" viewBox="0 0 16 16">
    <defs>
        <filter id="qs7hg8t5ta" width="160.4%" height="164.4%" x="-30.2%" y="-32.2%" filterUnits="objectBoundingBox">
            <feOffset dy="5" in="SourceAlpha" result="shadowOffsetOuter1"/>
            <feGaussianBlur in="shadowOffsetOuter1" result="shadowBlurOuter1" stdDeviation="6"/>
            <feColorMatrix in="shadowBlurOuter1" result="shadowMatrixOuter1" values="0 0 0 0 0 0 0 0 0 0 0 0 0 0 0 0 0 0 0.1 0"/>
            <feMerge>
                <feMergeNode in="shadowMatrixOuter1"/>
                <feMergeNode in="SourceGraphic"/>
            </feMerge>
        </filter>
        <path id="45ilr5ahgb" d="M0 0.358L12.8 0.358 12.8 14.758 0 14.758z"/>
    </defs>
    <g fill="none" fill-rule="evenodd">
        <g>
            <g>
                <g filter="url(#qs7hg8t5ta)" transform="translate(-99 -477) translate(0 375) translate(11 41)">
                    <g>
                        <g>
                            <g transform="translate(12 60) translate(76 1) translate(1.6 .442)">
                                <mask id="5o4nw2u9yc" fill="#fff">
                                    <use xlink:href="#45ilr5ahgb"/>
                                </mask>
                                <path fill="#FDAF27" d="M.08 8.445v-6.76C.08.98.653.405 1.36.405h10.054c.707 0 1.28.574 1.28 1.28v6.76c0 3.483-2.824 6.307-6.307 6.307-3.483 0-6.307-2.824-6.307-6.307" mask="url(#5o4nw2u9yc)"/>
                            </g>
                            <path fill="#FFF" d="M10.709 2.816c-.523-.103-1.068.138-1.344.595-.065.108-.112.224-.142.344-.121-.466-.503-.843-.989-.939-.523-.103-1.068.138-1.344.595-.065.108-.112.224-.141.344-.122-.466-.504-.843-.99-.939-.523-.103-1.068.138-1.343.595-.277.458-.233 1.059.108 1.472.34.412.917.572 1.42.39.401-.143.7-.485.805-.889.045.18.128.351.25.499.34.412.916.572 1.42.39.401-.143.7-.485.805-.889.045.18.128.351.25.499.339.412.916.572 1.42.39.502-.18.845-.67.845-1.202 0-.603-.438-1.139-1.03-1.255M6.625 9.026c.13.556.461 1.075 1.042 1.234.55.15 1.165-.094 1.449-.593.17-.3.149-.638.147-.97l-.002-.67.001-.737c.002-.314-.007-.62.15-.906.216-.395.647-.638 1.097-.62.455.018.869.303 1.05.72.12.278.1.579.1.874l.001.731c0 .526.033 1.075-.07 1.593-.236 1.2-1.067 2.243-2.193 2.724-1.126.48-2.46.352-3.475-.332-.5-.338-.913-.804-1.184-1.343-.269-.533-.431-1.2-.328-1.797.076-.445.429-.809.871-.9.46-.094.94.119 1.181.522.087.147.125.306.163.47" transform="translate(12 60) translate(76 1)"/>
                        </g>
                    </g>
                </g>
            </g>
        </g>
    </g>
</svg>
