<?xml version="1.0" encoding="UTF-8"?>
<svg width="12px" height="12px" viewBox="0 0 12 12" version="1.1" xmlns="http://www.w3.org/2000/svg" xmlns:xlink="http://www.w3.org/1999/xlink">
    <title>✦@1,5x</title>
    <g id="Debit-Card-V2" stroke="none" stroke-width="1" fill="none" fill-rule="evenodd" fill-opacity="0.25">
        <g id="CADD_V2_2_1" transform="translate(-58.000000, -457.000000)" fill="#000000" fill-rule="nonzero">
            <g id="Group-2" transform="translate(16.000000, 399.000000)">
                <g id="Group-3" transform="translate(42.000000, 54.000000)">
                    <path d="M6.10839844,15.1831055 C6.484375,14.2749023 6.81884766,13.5595703 7.11181641,13.0371094 C7.40478516,12.5146484 7.6953125,12.109375 7.98339844,11.8212891 C8.27636719,11.5332031 8.68530273,11.2426758 9.21020508,10.949707 C9.73510742,10.6567383 10.4394531,10.3271484 11.3232422,9.9609375 L11.3232422,9.9609375 L11.3232422,9.66064453 C10.4296875,9.29443359 9.72045898,8.96484375 9.19555664,8.671875 C8.6706543,8.37890625 8.26660156,8.08837891 7.98339844,7.80029297 C7.6953125,7.51220703 7.40478516,7.10693359 7.11181641,6.58447266 C6.81884766,6.06201172 6.484375,5.34667969 6.10839844,4.43847656 L6.10839844,4.43847656 L5.80810547,4.43847656 C5.42724609,5.34667969 5.09033203,6.06201172 4.79736328,6.58447266 C4.50439453,7.10693359 4.21630859,7.51220703 3.93310547,7.80029297 C3.64501953,8.08837891 3.23852539,8.37890625 2.71362305,8.671875 C2.1887207,8.96484375 1.47949219,9.29443359 0.5859375,9.66064453 L0.5859375,9.66064453 L0.5859375,9.9609375 C1.47460938,10.3271484 2.18139648,10.6567383 2.70629883,10.949707 C3.23120117,11.2426758 3.64013672,11.5332031 3.93310547,11.8212891 C4.21630859,12.109375 4.50439453,12.5146484 4.79736328,13.0371094 C5.09033203,13.5595703 5.42724609,14.2749023 5.80810547,15.1831055 L5.80810547,15.1831055 L6.10839844,15.1831055 Z" id="✦"></path>
                </g>
            </g>
        </g>
    </g>
</svg>