<svg width="32" height="32" viewBox="0 0 32 32" fill="none" xmlns="http://www.w3.org/2000/svg">
<path fill-rule="evenodd" clip-rule="evenodd" d="M17.5314 19.4841V19.4841L14.7961 22.0553C12.3754 24.3148 10.1046 21.9383 10.1046 21.9383C8.12442 20.0917 10.2162 17.6262 10.2162 17.6262L13.0183 14.9599L11.1523 13.0899L8.66335 15.4608C4.4574 19.8885 8.12363 23.7042 8.2814 23.8645L8.31105 23.893C9.19715 24.7113 10.1313 25.2525 11.1033 25.5129C11.6011 25.6463 12.1086 25.7057 12.624 25.6904C15.1115 25.6169 16.7883 23.8343 16.8373 23.7796L19.3908 21.3484L17.5314 19.4841Z" fill="#CBCBCB"/>
<path fill-rule="evenodd" clip-rule="evenodd" d="M15.5494 12.5387V12.5387L18.2802 9.96134C20.6951 7.6974 22.9709 10.0703 22.9709 10.0703C24.9551 11.913 22.8683 14.3828 22.8683 14.3828L20.0718 17.0546L21.9418 18.9207L24.4259 16.5456C28.6229 12.1096 24.9479 8.30033 24.7899 8.14104L24.7602 8.11245C23.8727 7.29578 22.9374 6.75524 21.9656 6.49779C21.4678 6.36441 20.9598 6.30691 20.4434 6.32188C17.9565 6.40046 16.2837 8.18709 16.2338 8.24154L13.6862 10.6773L15.5494 12.5387Z" fill="#CBCBCB"/>
<path fill-rule="evenodd" clip-rule="evenodd" d="M10.9217 12.8483C11.0528 12.7234 11.2596 12.7261 11.3875 12.8542L13.2535 14.7242C13.3169 14.7878 13.352 14.8742 13.3509 14.964C13.3497 15.0538 13.3124 15.1393 13.2473 15.2011L10.46 17.8534L10.4525 17.8626C10.4397 17.8786 10.4204 17.9032 10.396 17.9357C10.3471 18.0008 10.2782 18.0972 10.2009 18.2188C10.0455 18.4635 9.86057 18.8036 9.7341 19.1926C9.48367 19.963 9.46699 20.8884 10.3312 21.6943C10.3358 21.6986 10.3403 21.703 10.3447 21.7076M9.87067 22.1764C8.76072 21.1369 8.80023 19.9089 9.1001 18.9865C9.24905 18.5283 9.4633 18.1367 9.63819 17.8614C9.72607 17.723 9.80511 17.6123 9.86288 17.5354C9.8918 17.4969 9.91547 17.4667 9.93236 17.4457L9.95245 17.4209L9.95834 17.4138L9.96018 17.4116L9.96107 17.4106C9.96117 17.4105 9.96127 17.4104 10.2155 17.626L9.96107 17.4106C9.96874 17.4016 9.97708 17.3927 9.98567 17.3845L12.5405 14.9535L11.1457 13.5557L8.89863 15.6961C6.88253 17.822 6.77662 19.7603 7.15718 21.1762C7.54075 22.6033 8.43178 23.5419 8.51538 23.6275L8.53908 23.6503C9.39237 24.4377 10.2792 24.947 11.1888 25.1908C11.6553 25.3158 12.1305 25.3713 12.6134 25.357C13.7798 25.3226 14.7632 24.8869 15.4673 24.4454C15.8184 24.2252 16.0966 24.0057 16.2891 23.8389C16.3852 23.7555 16.4595 23.6857 16.5106 23.6358C16.5596 23.5879 16.5854 23.5601 16.588 23.5574C16.5939 23.5507 16.6003 23.5441 16.6067 23.538L18.9132 21.342L17.5232 19.9484L15.0237 22.298C14.3763 22.9023 13.7216 23.2115 13.0975 23.3186C12.4757 23.4252 11.9061 23.3284 11.4295 23.1577C10.9542 22.9875 10.5654 22.7418 10.2969 22.541C10.162 22.4401 10.0557 22.3493 9.9823 22.2827C9.94554 22.2494 9.91687 22.2221 9.89682 22.2024L9.87323 22.179L9.87067 22.1764ZM10.3447 21.7076L10.3477 21.7106L10.3631 21.726C10.3775 21.74 10.4 21.7615 10.43 21.7888C10.4902 21.8434 10.5803 21.9205 10.6961 22.0071C10.929 22.1813 11.2592 22.3886 11.6543 22.5301C12.0479 22.6711 12.4999 22.7447 12.9847 22.6615C13.4672 22.5787 14.0048 22.3369 14.5676 21.8118C14.5677 21.8117 14.5674 21.812 14.5676 21.8118L17.3024 19.241C17.4337 19.1176 17.6394 19.1209 17.7667 19.2485L19.6261 21.1128C19.6895 21.1764 19.7246 21.2628 19.7234 21.3525C19.7222 21.4423 19.685 21.5277 19.62 21.5896L17.0739 24.0137C16.9095 24.1893 15.1807 25.9482 12.6331 26.0234C12.0853 26.0396 11.5454 25.9765 11.0163 25.8347C9.98287 25.5578 9.00232 24.9855 8.08421 24.1377L8.07897 24.1329L8.04311 24.0982C7.94886 24.0025 6.94596 22.9588 6.51337 21.3492C6.07322 19.7117 6.23661 17.5305 8.42096 15.231L8.43244 15.2189L10.9217 12.8483" fill="black"/>
<path fill-rule="evenodd" clip-rule="evenodd" d="M20.4325 5.98817C20.9802 5.9723 21.5204 6.03329 22.0501 6.17518C22.5132 6.2979 22.9664 6.48056 23.4084 6.7212C23.9518 7.01704 24.4777 7.40016 24.9847 7.86665L24.9904 7.87188L25.0253 7.90571C25.1431 8.02446 26.9563 9.89641 26.7443 12.5645C26.6421 13.8513 26.0705 15.2905 24.6667 16.7742L24.6553 16.7863L22.1709 19.1611C22.0401 19.2863 21.8333 19.2841 21.7051 19.1562L19.8351 17.29C19.7715 17.2266 19.7363 17.1402 19.7372 17.0504C19.7382 16.9607 19.7754 16.8751 19.8403 16.813L22.622 14.1554L22.6373 14.1363C22.6553 14.1135 22.682 14.0788 22.7151 14.0333C22.7815 13.9421 22.8726 13.8088 22.9693 13.6432C23.1643 13.3091 23.3734 12.8579 23.4559 12.366C23.512 12.0319 23.5087 11.6851 23.4082 11.3436C23.3078 11.0022 23.106 10.6513 22.7428 10.3141C22.7382 10.3097 22.7336 10.3052 22.7292 10.3006L22.7272 10.2986L22.7154 10.2868C22.7042 10.2758 22.6866 10.2589 22.6629 10.2371C22.6154 10.1934 22.5439 10.1307 22.4513 10.0583C22.2652 9.91274 21.9983 9.73105 21.6734 9.58374C21.3708 9.4465 21.0233 9.34149 20.6473 9.31966C20.3108 9.30012 19.947 9.34686 19.5653 9.5017C19.2302 9.63761 18.8744 9.85962 18.5074 10.2036C18.5072 10.2037 18.5075 10.2035 18.5074 10.2036L15.7769 12.7806C15.6458 12.9043 15.4401 12.9014 15.3125 12.774L13.4493 10.9126C13.3858 10.8492 13.3506 10.7628 13.3516 10.6731C13.3526 10.5834 13.3897 10.4978 13.4545 10.4358L15.9952 8.00685C16.0947 7.90064 16.883 7.08919 18.1432 6.52742C18.5117 6.36314 18.922 6.21956 19.3684 6.12151C19.7034 6.04792 20.0596 5.99996 20.4325 5.98817ZM23.2025 9.83115C23.6453 10.2442 23.9124 10.6953 24.0478 11.1554C24.1823 11.6127 24.1826 12.0641 24.1134 12.4763C24.0128 13.0763 23.7631 13.6058 23.545 13.9792C23.4352 14.1674 23.3313 14.3196 23.2542 14.4256C23.2156 14.4786 23.1835 14.5203 23.1606 14.5493C23.1492 14.5638 23.14 14.5752 23.1334 14.5833L23.1255 14.5929L23.123 14.5958L23.1219 14.5971C23.1218 14.5972 23.1217 14.5974 22.867 14.3823L23.1219 14.5971C23.1142 14.6062 23.1059 14.6151 23.0973 14.6233L20.5476 17.0593L21.9455 18.4543L24.1882 16.31C25.4963 14.9251 25.9911 13.6269 26.0797 12.5118C26.2655 10.1733 24.6721 8.49732 24.5544 8.37772L24.5305 8.35465C24.0595 7.92162 23.5784 7.57282 23.0896 7.30671C22.6914 7.0899 22.2875 6.92774 21.879 6.8195C21.4134 6.69476 20.937 6.64054 20.4523 6.65455C20.1233 6.66497 19.809 6.70728 19.5115 6.77265C19.1146 6.85984 18.7473 6.98806 18.4147 7.13632C17.8213 7.40082 17.3418 7.72757 17.0067 7.99295C16.8394 8.12539 16.709 8.24179 16.6194 8.32632C16.5746 8.36856 16.54 8.40276 16.5162 8.42691L16.4886 8.45527L16.4812 8.46319L16.4791 8.46541C16.4786 8.46596 16.4791 8.46542 16.4791 8.46541C16.4741 8.47083 16.4682 8.47688 16.4629 8.48196L14.1618 10.682L15.5547 12.0736L18.0502 9.71841C18.4706 9.32429 18.8956 9.05391 19.3147 8.88393C19.7937 8.68962 20.2569 8.6292 20.686 8.65412C21.1614 8.68172 21.5895 8.81363 21.9488 8.97659C22.334 9.1513 22.6463 9.36443 22.8621 9.53321C22.9703 9.6179 23.0553 9.69226 23.1141 9.74636C23.1436 9.77343 23.1665 9.79551 23.1827 9.81135L23.2025 9.83115Z" fill="black"/>
<path fill-rule="evenodd" clip-rule="evenodd" d="M8.4995 11.0321C8.49664 11.0126 8.49591 10.9928 8.4973 10.9725C8.51002 10.8423 8.62922 10.7474 8.76166 10.7613L9.85179 10.8745C9.98517 10.8886 10.0826 11.0032 10.0712 11.1358C10.0585 11.266 9.94026 11.3611 9.80594 11.3468L8.71769 11.234C8.60481 11.2225 8.51654 11.1379 8.4995 11.0321" fill="#231F20"/>
<path fill-rule="evenodd" clip-rule="evenodd" d="M9.63897 9.44421C9.63076 9.37322 9.65443 9.29995 9.71115 9.24636C9.80695 9.15606 9.9605 9.15887 10.0541 9.25373L10.8196 10.0289C10.9125 10.1226 10.9111 10.2745 10.8153 10.3648C10.7195 10.4551 10.5662 10.4514 10.4717 10.3563L9.70686 9.5823C9.66787 9.54336 9.64575 9.49419 9.63897 9.44421" fill="#231F20"/>
<path fill-rule="evenodd" clip-rule="evenodd" d="M11.4232 9.32447C11.4226 9.31938 11.4212 9.31312 11.4206 9.30803L11.3232 8.24117C11.3109 8.11011 11.4101 7.99613 11.5439 7.98581C11.6785 7.97666 11.7977 8.07741 11.8079 8.20495L11.9065 9.27115C11.9178 9.40196 11.8185 9.51685 11.6846 9.52717C11.5571 9.53625 11.4439 9.44695 11.4232 9.32447" fill="#231F20"/>
<path fill-rule="evenodd" clip-rule="evenodd" d="M24.2193 20.5156C24.2231 20.5352 24.2241 20.5542 24.2224 20.5754C24.2107 20.7059 24.0933 20.8012 23.9595 20.7889L22.8694 20.6865C22.7358 20.6733 22.6372 20.5595 22.6476 20.4266C22.6594 20.2961 22.776 20.1996 22.9106 20.2131L23.9997 20.3152C24.1128 20.3258 24.2011 20.4104 24.2193 20.5156" fill="#231F20"/>
<path fill-rule="evenodd" clip-rule="evenodd" d="M23.0954 22.1143C23.1048 22.1846 23.0819 22.2591 23.0251 22.3127C22.9312 22.4035 22.7774 22.4016 22.6824 22.3083L21.91 21.5402C21.8159 21.4471 21.8161 21.2958 21.9102 21.2041C22.0053 21.1127 22.1601 21.1148 22.2546 21.2099L23.0276 21.9762C23.0654 22.0158 23.0877 22.0641 23.0954 22.1143" fill="#231F20"/>
<path fill-rule="evenodd" clip-rule="evenodd" d="M21.3127 22.2504C21.3134 22.2555 21.3147 22.2617 21.3154 22.2668L21.4232 23.3325C21.4366 23.4629 21.3392 23.5783 21.205 23.5896C21.0709 23.6008 20.9514 23.501 20.9391 23.3738L20.8316 22.3072C20.8169 22.1775 20.9153 22.0623 21.0497 22.0502C21.1774 22.0402 21.2912 22.1276 21.3127 22.2504" fill="#231F20"/>
<path fill-rule="evenodd" clip-rule="evenodd" d="M28.1973 4.9633V4.9633C28.6968 5.46274 28.7235 6.22862 28.2578 6.67581L23.1574 11.5509C22.6901 11.9966 21.9068 11.9538 21.4063 11.4541C20.9068 10.9547 20.8801 10.1888 21.3467 9.74187L26.4462 4.86657C26.9135 4.4208 27.6968 4.4636 28.1973 4.9633" fill="#E2E2E2"/>
<path fill-rule="evenodd" clip-rule="evenodd" d="M26.6761 5.10788C26.6761 5.10791 26.6761 5.10784 26.6761 5.10788L21.5772 9.9827C21.2659 10.2808 21.2536 10.8303 21.6419 11.2185C22.0339 11.6097 22.6099 11.6123 22.9272 11.3098C22.9272 11.3098 22.9272 11.3098 22.9272 11.3098L28.0268 6.43546C28.0269 6.4354 28.0267 6.43551 28.0268 6.43546C28.3373 6.13711 28.3496 5.58739 27.9616 5.19928C27.5697 4.80792 26.9934 4.80531 26.6761 5.10788ZM26.216 4.62544C26.8334 4.03657 27.8237 4.11951 28.4327 4.72751C29.0435 5.3382 29.1093 6.32033 28.4885 6.91635L23.3876 11.7919C22.7702 12.3808 21.7796 12.2981 21.1707 11.6901C20.5599 11.0794 20.4939 10.097 21.1161 9.50122L26.216 4.62544Z" fill="black"/>
<path fill-rule="evenodd" clip-rule="evenodd" d="M4.86821 27.0351V27.0351C4.36892 26.5348 4.34431 25.7685 4.81075 25.3225L9.92136 20.458C10.3887 20.0123 11.1715 20.0569 11.6708 20.5573C12.1703 21.0567 12.1956 21.8242 11.7285 22.269L6.61858 27.1346C6.15025 27.5801 5.36749 27.5355 4.86821 27.0351" fill="#E2E2E2"/>
<path fill-rule="evenodd" clip-rule="evenodd" d="M10.8572 20.4953C10.5891 20.4538 10.3317 20.5269 10.1511 20.6991L5.04081 25.5632C5.04073 25.5633 5.04088 25.5632 5.04081 25.5632C4.86539 25.7311 4.7868 25.9691 4.81543 26.2183C4.83866 26.4204 4.93285 26.6282 5.10385 26.7995C5.29707 26.9932 5.54282 27.095 5.77977 27.107C6.01211 27.1187 6.22935 27.0444 6.38852 26.893L11.4983 22.0275C11.4983 22.0275 11.4983 22.0275 11.4983 22.0275C11.674 21.8601 11.7525 21.622 11.7232 21.372C11.6996 21.1704 11.6053 20.9633 11.4348 20.7928C11.2684 20.6261 11.0627 20.527 10.8572 20.4953ZM9.69114 20.2165C10.0391 19.8847 10.5118 19.7673 10.959 19.8364C11.3033 19.8896 11.6388 20.0535 11.9063 20.3215C12.1815 20.5967 12.3441 20.942 12.3854 21.2945C12.4366 21.7324 12.2998 22.1849 11.9581 22.5103L6.84813 27.3759C6.54307 27.6661 6.14149 27.7927 5.74623 27.7728C5.34451 27.7526 4.94237 27.5815 4.63194 27.2704C4.35626 26.9942 4.19374 26.6479 4.15313 26.2944C4.1029 25.8574 4.24004 25.4065 4.58007 25.0814L9.69114 20.2165C9.69118 20.2165 9.69109 20.2166 9.69114 20.2165Z" fill="black"/>
</svg>
