<svg xmlns="http://www.w3.org/2000/svg" xmlns:xlink="http://www.w3.org/1999/xlink" width="32" height="32" viewBox="0 0 32 32">
    <defs>
        <path id="zr4mdb340a" d="M14.299.038c7.658 0 13.867 6.208 13.867 13.867 0 2.606-.722 5.109-2.061 7.277l2.02 4.934.048.135c.244.862-.532 1.69-1.412 1.493l-.115-.031-5.597-1.813-.994.515-.412.198c-1.738.76-3.621 1.159-5.558 1.159-7.658 0-13.867-6.209-13.867-13.867 0-.663.538-1.2 1.2-1.2.663 0 1.2.537 1.2 1.2 0 6.333 5.134 11.467 11.467 11.467 1.47 0 2.9-.277 4.234-.807l.36-.15.059-.027.733-.37.552-.29c.278-.275.682-.405 1.083-.324l.133.035 3.685 1.192-1.226-2.99-.048-.144c-.08-.296-.041-.603.093-.863.022-.172.082-.342.183-.498 1.195-1.84 1.84-3.987 1.84-6.231 0-6.333-5.134-11.467-11.467-11.467-.663 0-1.2-.537-1.2-1.2 0-.663.537-1.2 1.2-1.2zm4.667 15.867c.736 0 1.333.597 1.333 1.333s-.597 1.333-1.333 1.333c-.737 0-1.334-.597-1.334-1.333s.597-1.333 1.334-1.333zm-4 0c.736 0 1.333.597 1.333 1.333s-.597 1.333-1.333 1.333c-.737 0-1.334-.597-1.334-1.333s.597-1.333 1.334-1.333zm-4 0c.736 0 1.333.597 1.333 1.333s-.597 1.333-1.333 1.333c-.737 0-1.334-.597-1.334-1.333s.597-1.333 1.334-1.333zM1.086 0c.282.005.551.122.748.326L5.83 4.588l1.675-1.616c.302-.288.674-.491 1.078-.59.405-.1.83-.091 1.23.024.4.115.764.333 1.055.633.29.3.497.67.6 1.073l1.645 6.418c.102.405.095.83-.02 1.23-.116.401-.336.764-.638 1.052-.298.305-.673.523-1.086.632-.412.108-.846.102-1.256-.016l-6.395-1.832c-.4-.117-.763-.337-1.052-.637-.289-.3-.494-.672-.595-1.076-.102-.405-.095-.829.018-1.23s.33-.766.628-1.057L4.296 6.07.299 1.808C.103 1.604-.005 1.33 0 1.048.005.765.122.496.326.299.529.103.802-.005 1.086 0zm8.096 4.402l-.044.006c-.042.01-.081.031-.113.061L4.237 9.093c-.031.03-.054.07-.065.111-.011.043-.011.087 0 .13.01.041.032.08.062.11.03.031.067.054.109.066l6.395 1.831c.042.023.09.032.137.025.047-.007.09-.028.125-.06.034-.034.057-.077.065-.123.008-.047 0-.095-.02-.138L9.438 4.59c-.01-.042-.032-.08-.062-.111s-.067-.054-.109-.066c-.041-.013-.086-.014-.129-.005z"/>
    </defs>
    <g fill="none" fill-rule="evenodd">
        <g>
            <g>
                <g>
                    <path d="M0 0H32V32H0z" transform="translate(-293.000000, -525.000000) translate(259.000000, 505.000000) translate(34.000000, 20.000000)"/>
                    <g transform="translate(-293.000000, -525.000000) translate(259.000000, 505.000000) translate(34.000000, 20.000000) translate(1.333333, 2.666667)">
                        <mask id="8gu67havxb" fill="#fff">
                            <use xlink:href="#zr4mdb340a"/>
                        </mask>
                        <use fill="#979797" fill-rule="nonzero" xlink:href="#zr4mdb340a"/>
                        <g fill="#FDAF27" mask="url(#8gu67havxb)">
                            <path d="M0 0L32 0 32 32 0 32z" transform="translate(-2.367734, -2.761947)"/>
                        </g>
                    </g>
                </g>
            </g>
        </g>
    </g>
</svg>
