<svg width="24" height="24" viewBox="0 0 24 24" fill="none" xmlns="http://www.w3.org/2000/svg">
<g id="Icon / Rounded / Clear">
<circle id="Oval" cx="12" cy="12" r="10" fill="black" fill-opacity="0.25"/>
<path id="&#237;&#175;&#128;" d="M8.21687 14.6945L10.9092 12.0022L8.21687 9.30988C7.93255 9.02557 7.92095 8.51496 8.22267 8.21904C8.51859 7.92312 9.0292 7.93472 9.30771 8.21324L12 10.9055L14.6923 8.21904C14.9824 7.92892 15.4814 7.92312 15.7773 8.22484C16.0732 8.52076 16.0732 9.01976 15.7831 9.30988L13.0908 12.0022L15.7831 14.6887C16.0732 14.9788 16.0732 15.4778 15.7773 15.7737C15.4814 16.0754 14.9824 16.0696 14.6923 15.7795L12 13.093L9.30771 15.7853C9.0292 16.0638 8.51859 16.0754 8.22267 15.7795C7.92095 15.4836 7.93255 14.973 8.21687 14.6945Z" fill="white"/>
</g>
</svg>
