<svg xmlns="http://www.w3.org/2000/svg" width="40" height="40" viewBox="0 0 40 40">
    <g>
        <path d="M23.417 17.396h-1.605c-.441.025-.883-.04-1.299-.192-.415-.152-.795-.387-1.117-.69-.321-.305-.577-.67-.752-1.077-.175-.406-.265-.844-.265-1.286 0-.442.09-.88.265-1.286.175-.406.431-.773.752-1.076.322-.304.702-.539 1.117-.69.416-.152.858-.218 1.3-.193h1.604c.441-.025.883.04 1.299.192.415.152.795.387 1.117.69.321.304.577.67.752 1.077.175.406.266.844.266 1.286 0 .442-.09.88-.266 1.286-.175.406-.43.772-.752 1.076-.322.304-.702.539-1.117.69-.416.152-.858.218-1.3.193zm-1.605-4.834c-.226-.037-.458-.024-.68.037-.22.062-.426.17-.6.32-.176.148-.316.333-.413.541-.096.209-.146.435-.146.665 0 .23.05.456.146.665.097.208.237.393.412.542.175.148.38.257.602.319.221.061.453.074.68.037h1.604c.37-.061.707-.252.95-.538.244-.286.377-.65.377-1.025 0-.376-.133-.739-.377-1.025-.243-.286-.58-.477-.95-.537h-1.605z" transform="translate(3.333 10)"/>
        <path d="M28.667.563H4.708c-1.022 0-2.002.406-2.725 1.128C1.26 2.414.854 3.395.854 4.417v12c0 1.022.406 2.002 1.129 2.725.723.723 1.703 1.129 2.725 1.129h23.959c1.022 0 2.002-.406 2.725-1.129.723-.723 1.129-1.703 1.129-2.725v-12c0-1.022-.406-2.003-1.129-2.726C30.669.97 29.689.563 28.667.563zm-.542 7.562H2.469V6.156h25.656v1.969zM4.667 2.229h21.28c.578.006 1.13.238 1.538.648.407.409.637.962.64 1.54V4.5H2.469v-.083c.003-.581.235-1.138.647-1.548.412-.41.97-.64 1.55-.64zm2.718 16.375H4.667c-.581 0-1.139-.23-1.55-.64-.413-.41-.645-.966-.648-1.547V9.792h25.656v6.625c-.003.58-.236 1.137-.647 1.547-.412.41-.97.64-1.55.64H7.384zm23.48-2.187c-.014.487-.189.957-.498 1.334-.31.377-.735.64-1.21.749.41-.618.634-1.341.645-2.083v-12c.002-.759-.22-1.501-.635-2.136.484.11.916.382 1.226.77.31.388.48.87.482 1.366l-.01 12z" transform="translate(3.333 10)"/>
    </g>
</svg>
