<svg xmlns="http://www.w3.org/2000/svg" xmlns:xlink="http://www.w3.org/1999/xlink" width="23" height="29" viewBox="0 0 23 29">
    <defs>
        <path id="s0oz3bcnda" d="M0.604 0.073L8.033 0.073 8.033 3.171 0.604 3.171z"/>
        <path id="dghqlx0vhc" d="M0.604 0.432L8.033 0.432 8.033 9.129 0.604 9.129z"/>
    </defs>
    <g fill="none" fill-rule="evenodd">
        <g>
            <g stroke="#000" stroke-linecap="round" stroke-linejoin="round" stroke-width="1.2">
                <g>
                    <path d="M0 0.556L6.864 0.556" transform="translate(.84 .4) translate(11 3.027) translate(.979 10.752)"/>
                </g>
                <path d="M3.98 4.772H1.409c-.456 0-.825-.37-.825-.824v-2.37c0-.455.37-.824.825-.824h2.57c.456 0 .825.37.825.824v2.37c0 .454-.369.824-.824.824z" transform="translate(.84 .4) translate(11 3.027)"/>
            </g>
            <g>
                <g transform="translate(.84 .4) translate(0 7.916)">
                    <mask id="lck5mic2ob" fill="#fff">
                        <use xlink:href="#s0oz3bcnda"/>
                    </mask>
                    <path fill="#000" d="M6.784.102c-.635-.125-1.295.166-1.63.72-.078.132-.135.273-.171.418-.147-.564-.61-1.023-1.2-1.138-.634-.125-1.294.166-1.627.72-.079.132-.137.273-.172.418C1.836.676 1.374.217.784.102.15-.023-.51.268-.843.822c-.336.555-.281 1.284.131 1.784.412.5 1.111.695 1.721.476.487-.177.85-.591.977-1.08.053.219.154.426.302.604.411.5 1.111.695 1.721.476.487-.177.85-.591.976-1.08.054.219.155.426.302.604.412.5 1.111.695 1.722.476.608-.22 1.025-.814 1.025-1.46 0-.73-.531-1.38-1.25-1.52" mask="url(#lck5mic2ob)"/>
                </g>
                <g transform="translate(.84 .4) translate(0 7.916) translate(0 3.333)">
                    <mask id="md6nfgwq7d" fill="#fff">
                        <use xlink:href="#dghqlx0vhc"/>
                    </mask>
                    <path fill="#000" d="M1.708 4.527c.163.699.579 1.35 1.308 1.549.69.187 1.462-.118 1.817-.744.214-.376.187-.8.185-1.216l-.002-.842c0-.307 0-.617.002-.925.001-.395-.01-.778.187-1.137.272-.496.812-.8 1.377-.779.57.023 1.09.381 1.317.905.151.348.126.725.127 1.095v.918c0 .66.042 1.349-.087 1.999-.297 1.506-1.34 2.814-2.752 3.418C3.773 9.37 2.1 9.21.826 8.35.198 7.93-.32 7.343-.66 6.667c-.338-.67-.541-1.507-.412-2.256.097-.558.538-1.014 1.093-1.128.578-.119 1.181.148 1.482.655.11.183.157.382.205.589" mask="url(#md6nfgwq7d)"/>
                </g>
            </g>
            <path stroke="#000" stroke-linecap="round" stroke-linejoin="round" stroke-width="1.2" d="M18.846.267H3.112C1.706.267.567 1.406.567 2.811v22.005c0 1.404 1.139 2.544 2.545 2.544h1.836c.144-1.16 1.122-2.064 2.322-2.064s2.18.903 2.322 2.064h9.254c1.406 0 2.544-1.14 2.544-2.544V2.81c0-1.405-1.138-2.544-2.544-2.544z" transform="translate(.84 .4)"/>
        </g>
    </g>
</svg>
