<svg xmlns="http://www.w3.org/2000/svg" xmlns:xlink="http://www.w3.org/1999/xlink" width="24" height="25" viewBox="0 0 24 25">
    <defs>
        <path id="a" d="M.21 0h19.58v21.538H.21z"/>
    </defs>
    <g fill="none" fill-rule="evenodd" transform="translate(2 1)">
        <mask id="b" fill="#fff">
            <use xlink:href="#a"/>
        </mask>
        <path fill="#000" d="M18.811 14.685a.98.98 0 0 1 .973.865l.006.114v2.937a2.937 2.937 0 0 1-2.764 2.932l-.173.005H3.147a2.937 2.937 0 0 1-2.932-2.764l-.005-.173v-2.937a.979.979 0 0 1 1.951-.114l.007.114v2.937a.98.98 0 0 0 .865.973l.114.006h13.706a.98.98 0 0 0 .973-.864l.006-.115v-2.937c0-.54.438-.979.98-.979zM10 0c.54 0 .979.438.979.979v11.342l2.245-2.244a.979.979 0 0 1 1.466 1.292l-.082.093-3.916 3.916a.985.985 0 0 1-.088.078l.088-.078a.987.987 0 0 1-.547.276.976.976 0 0 1-.145.01l.083-.003a.986.986 0 0 1-.05.003H10a.996.996 0 0 1-.51-.143 1.013 1.013 0 0 1-.182-.143l-3.916-3.916a.979.979 0 0 1 1.292-1.466l.092.081 2.245 2.244V.979a.98.98 0 0 1 .865-.972L10 0z" mask="url(#b)"/>
    </g>
</svg>
