<svg xmlns="http://www.w3.org/2000/svg" xmlns:xlink="http://www.w3.org/1999/xlink" width="82" height="82" viewBox="0 0 82 82">
    <defs>
        <path id="wi2ajnaftb" d="M0 0L64 0 64 63.123 0 63.123z"/>
        <path id="zivbwztdad" d="M0 63.123L64 63.123 64 0 0 0z"/>
        <filter id="wh6lvmvtja" width="103.7%" height="103%" x="-1.9%" y="-1.5%" filterUnits="objectBoundingBox">
            <feOffset dy="2" in="SourceAlpha" result="shadowOffsetOuter1"/>
            <feGaussianBlur in="shadowOffsetOuter1" result="shadowBlurOuter1" stdDeviation="2"/>
            <feColorMatrix in="shadowBlurOuter1" result="shadowMatrixOuter1" values="0 0 0 0 0 0 0 0 0 0 0 0 0 0 0 0 0 0 0.5 0"/>
            <feMerge>
                <feMergeNode in="shadowMatrixOuter1"/>
                <feMergeNode in="SourceGraphic"/>
            </feMerge>
        </filter>
    </defs>
    <g fill="none" fill-rule="evenodd">
        <g>
            <g filter="url(#wh6lvmvtja)" transform="translate(-15 -337) translate(-127)">
                <g>
                    <g transform="translate(151 345) translate(0 1)">
                        <g>
                            <mask id="v0favsmozc" fill="#fff">
                                <use xlink:href="#wi2ajnaftb"/>
                            </mask>
                            <path fill="#FDD8FF" d="M47.2 3.799c11.414 9.143 18.622 31.372 16.398 45.348-3.995 25.136-43.838 10.466-56.576 1.445C-16.668 33.848 25.399-13.673 47.2 3.8" mask="url(#v0favsmozc)"/>
                        </g>
                        <path fill="#FDD8FF" d="M44.275 52.545H21.95c-3.527 0-6.385-2.859-6.385-6.386V17.432c0-3.526 2.858-6.385 6.385-6.385h22.325c3.526 0 6.286 1.682 6.386 6.385v28.727c0 3.527-2.86 6.386-6.386 6.386"/>
                        <path fill="#93E5F9" d="M21.31 10.904v12.274c0 .363.199.697.516.871l13.842 7.443 13.24-7.45c.316-.174.514-.508.514-.87v-12.09c0-.716-.578-1.297-1.295-1.302L22.621 9.6c-.722-.004-1.31.58-1.31 1.303"/>
                        <path fill="#FFF" d="M30.245 19.006c0-2.1 1.7-3.8 3.8-3.8 2.099 0 3.8 1.7 3.8 3.8 0 2.1-1.701 3.8-3.8 3.8-2.1 0-3.8-1.7-3.8-3.8"/>
                        <path fill="#00AEDC" d="M33.514 34.362h-.1l-16.479-9.157-.094-10.51c-1.828.519-3.169 2.196-3.169 4.191V47.45c0 3.87 3.137 7.007 7.008 7.007h21.08c3.87 0 7.008-3.138 7.008-7.007v-20.94l-15.254 7.853z"/>
                        <path fill="#000" d="M28.854 53.203h-8.56c-2.97 0-5.387-2.417-5.387-5.389V15.778c0-2.972 2.418-5.389 5.388-5.389h10.179c.363 0 .657.295.657.658 0 .363-.294.657-.657.657h-10.18c-2.245 0-4.072 1.827-4.072 4.074v32.036c0 2.247 1.827 4.074 4.073 4.074h8.56c2.245 0 4.072-1.827 4.072-4.074v-9.636c0-.363.295-.658.658-.658.364 0 .658.295.658.658v9.636c0 2.972-2.418 5.389-5.389 5.389M45.93 53.203h-9.308c-.362 0-.657-.295-.657-.658 0-.363.295-.657.657-.657h9.308c2.246 0 4.073-1.827 4.073-4.074V15.778c0-2.247-1.827-4.074-4.073-4.074h-2.275c-.363 0-.658-.294-.658-.657 0-.363.295-.658.658-.658h2.275c2.97 0 5.388 2.417 5.388 5.389v32.036c0 2.972-2.417 5.389-5.388 5.389"/>
                        <path fill="#231F20" d="M30.887 50.018h-.439c-.362 0-.657-.295-.657-.658 0-.363.295-.657.657-.657h.439c.363 0 .657.294.657.657 0 .363-.294.658-.657.658M18.906 35.596c-.362 0-.657-.294-.657-.657v-.92c0-.364.295-.658.657-.658.363 0 .658.294.658.657v.92c0 .364-.295.658-.658.658m0 3.68c-.362 0-.657-.294-.657-.657v-.92c0-.363.295-.658.657-.658.363 0 .658.295.658.658v.92c0 .363-.295.658-.658.658m0 3.681c-.362 0-.657-.293-.657-.657v-.92c0-.363.295-.658.657-.658.363 0 .658.295.658.658v.92c0 .364-.295.657-.658.657m0 3.682c-.362 0-.657-.294-.657-.657v-.92c0-.364.295-.658.657-.658.363 0 .658.294.658.657v.92c0 .364-.295.658-.658.658m1.46 3.114c-.098 0-.197-.021-.29-.068-.346-.17-.657-.396-.924-.674-.25-.262-.242-.68.02-.93.262-.251.679-.242.93.019.16.167.346.303.554.406.325.159.46.553.3.88-.115.232-.349.367-.59.367m3.64.263h-.92c-.362 0-.657-.294-.657-.657 0-.363.295-.658.658-.658h.92c.362 0 .657.295.657.658 0 .363-.295.657-.658.657m3.682 0h-.92c-.364 0-.658-.294-.658-.657 0-.363.294-.658.657-.658h.92c.364 0 .658.295.658.658 0 .363-.294.657-.657.657M18.906 31.907c-.362 0-.657-.294-.657-.657v-.439c0-.363.295-.657.657-.657.363 0 .658.294.658.657v.439c0 .363-.295.657-.658.657M47.318 31.907c-.363 0-.657-.294-.657-.657v-.439c0-.363.294-.657.657-.657.363 0 .658.294.658.657v.439c0 .363-.295.657-.658.657M47.318 35.531c-.363 0-.657-.294-.657-.657v-.906c0-.363.294-.657.657-.657.363 0 .658.294.658.657v.906c0 .363-.295.657-.658.657m0 3.626c-.363 0-.657-.295-.657-.658v-.906c0-.363.294-.658.657-.658.363 0 .658.295.658.658v.906c0 .363-.295.658-.658.658m0 3.624c-.363 0-.657-.295-.657-.658v-.906c0-.363.294-.658.657-.658.363 0 .658.295.658.658v.906c0 .363-.295.658-.658.658m0 3.624c-.363 0-.657-.294-.657-.657v-.907c0-.363.294-.657.657-.657.363 0 .658.294.658.657v.907c0 .363-.295.657-.658.657m-1.203 3.206c-.218 0-.43-.107-.555-.304-.196-.307-.106-.713.2-.908.191-.122.359-.275.498-.455.222-.288.635-.341.923-.12.287.222.34.636.119.923-.233.302-.513.558-.832.76-.11.07-.232.104-.353.104m-6.266.406h-.907c-.363 0-.657-.293-.657-.657 0-.363.294-.658.657-.658h.907c.363 0 .657.295.657.658 0 .364-.294.657-.657.657m3.624 0h-.906c-.363 0-.657-.293-.657-.657 0-.363.294-.658.657-.658h.906c.363 0 .658.295.658.658 0 .364-.295.657-.658.657M36.217 50.018h-.439c-.363 0-.657-.295-.657-.658 0-.363.294-.657.657-.657h.439c.363 0 .657.294.657.657 0 .363-.294.658-.657.658"/>
                        <path fill="#000" d="M33.112 31.469h-.099c-.112 0-.222-.028-.319-.083l-14.206-7.874c-.209-.117-.338-.337-.338-.575v-11.57c0-.363.294-.658.657-.658.363 0 .658.295.658.658v11.182l13.597 7.538 13.6-7.538V11.367c0-.363.294-.658.657-.658.363 0 .657.295.657.658v11.57c0 .238-.13.458-.34.575l-14.205 7.874c-.098.055-.207.083-.319.083"/>
                        <path fill="#000" d="M33.063 16.907c-1.909 0-3.462 1.553-3.462 3.462 0 1.909 1.553 3.462 3.462 3.462 1.908 0 3.462-1.553 3.462-3.462 0-1.909-1.554-3.462-3.462-3.462m0 8.239c-2.634 0-4.777-2.143-4.777-4.777 0-2.634 2.143-4.777 4.777-4.777 2.633 0 4.777 2.143 4.777 4.777 0 2.634-2.144 4.777-4.777 4.777"/>
                        <path fill="#000" d="M32.08 20.37c0-.543.44-.982.983-.982.542 0 .982.439.982.982 0 .541-.44.982-.982.982-.543 0-.982-.44-.982-.982"/>
                        <mask id="275uy9h44e" fill="#fff">
                            <use xlink:href="#zivbwztdad"/>
                        </mask>
                        <path fill="#FFAD00" d="M51.234 34.628L54.107 34.628 54.107 24.489 51.234 24.489z" mask="url(#275uy9h44e)"/>
                        <path fill="#231F20" d="M54.765 35.286h-3.53c-.364 0-.658-.295-.658-.658 0-.363.294-.657.657-.657h2.216v-6.462c0-.363.294-.657.657-.657.363 0 .658.294.658.657v7.777z" mask="url(#275uy9h44e)"/>
                        <path fill="#000" d="M30.544 40.038c-.204 0-.405-.094-.533-.272-.214-.293-.148-.704.146-.917l3.048-2.213c.23-.166.543-.167.773 0l3.037 2.213c.294.214.359.625.145.918-.215.295-.626.358-.919.145l-2.65-1.93-2.662 1.93c-.116.085-.251.126-.385.126" mask="url(#275uy9h44e)"/>
                        <path fill="#FDD8FF" d="M37.639 49.36c0-5.346 4.334-9.68 9.68-9.68 5.345 0 9.68 4.334 9.68 9.68s-4.335 9.68-9.68 9.68c-5.346 0-9.68-4.334-9.68-9.68" mask="url(#275uy9h44e)"/>
                        <path fill="#FFAD00" d="M41.324 49.36c0-3.31 2.683-5.994 5.994-5.994s5.995 2.684 5.995 5.994c0 3.31-2.684 5.995-5.995 5.995-3.31 0-5.994-2.684-5.994-5.995" mask="url(#275uy9h44e)"/>
                        <path fill="#000" d="M47.318 57.72c-4.61 0-8.36-3.75-8.36-8.36 0-4.61 3.75-8.36 8.36-8.36 4.61 0 8.36 3.75 8.36 8.36 0 .363-.294.658-.657.658-.363 0-.657-.295-.657-.658 0-3.884-3.161-7.045-7.046-7.045-3.884 0-7.045 3.16-7.045 7.045s3.16 7.046 7.045 7.046c1.251 0 2.479-.332 3.551-.96.312-.183.715-.078.9.236.183.313.077.717-.235.9-1.274.745-2.732 1.139-4.216 1.139" mask="url(#275uy9h44e)"/>
                        <path fill="#000" d="M50.317 50.027H44.32c-.368 0-.667-.299-.667-.667 0-.368.299-.666.667-.666h5.998c.369 0 .668.298.668.666 0 .368-.3.667-.668.667" mask="url(#275uy9h44e)"/>
                        <path fill="#000" d="M47.318 53.026c-.368 0-.667-.299-.667-.667v-5.998c0-.368.299-.667.667-.667.368 0 .667.3.667.667v5.998c0 .368-.299.667-.667.667" mask="url(#275uy9h44e)"/>
                    </g>
                </g>
            </g>
        </g>
    </g>
</svg>
