<svg xmlns="http://www.w3.org/2000/svg" xmlns:xlink="http://www.w3.org/1999/xlink" width="200" height="200" viewBox="0 0 200 200">
    <defs>
        <path id="v4fbsp6sjb" d="M0 0.726L84.584 0.726 84.584 70.578 0 70.578z"/>
        <path id="epdgpd2pjd" d="M1.069 0.476L13.046 0.476 13.046 6.059 1.069 6.059z"/>
        <filter id="jcltqyawya" width="204.7%" height="206.3%" x="-52.4%" y="-53.1%" filterUnits="objectBoundingBox">
            <feOffset dy="7" in="SourceAlpha" result="shadowOffsetOuter1"/>
            <feGaussianBlur in="shadowOffsetOuter1" result="shadowBlurOuter1" stdDeviation="8"/>
            <feColorMatrix in="shadowBlurOuter1" result="shadowMatrixOuter1" values="0 0 0 0 0 0 0 0 0 0 0 0 0 0 0 0 0 0 0.05 0"/>
            <feMerge>
                <feMergeNode in="shadowMatrixOuter1"/>
                <feMergeNode in="SourceGraphic"/>
            </feMerge>
        </filter>
    </defs>
    <g fill="none" fill-rule="evenodd" transform="translate(0 .5)">
        <path fill="#FFF" fill-opacity="0" d="M0 0H200V200H0z"/>
        <circle cx="6.52" cy="6.394" r="5.727" stroke="#FDAF27" stroke-width="2.4" opacity=".302" transform="rotate(-15 194.809 -574.673)"/>
        <circle cx="100" cy="100" r="71.2" fill="#FFF3DF"/>
        <path fill="#DEE2E9" fill-rule="nonzero" d="M40.473 39.142c1.013-.017 1.849.79 1.867 1.803l.118 6.728c.017 1.013-.79 1.849-1.803 1.867l-6.728.118c-1.013.017-1.849-.79-1.867-1.803l-.118-6.728c-.017-1.013.79-1.849 1.803-1.867l6.728-.118z"/>
        <path fill="#F7B500" fill-rule="nonzero" d="M35.643 141.132c.96-.133 1.846.535 1.982 1.494l1.043 7.417c.135.96-.39 1.26-1.157.682l-9.622-7.25c-.773-.583-.618-1.166.337-1.3l7.417-1.043zm-5.886 11.936c-.96.134-1.847-.535-1.982-1.494l-.277-1.97c-.135-.96.385-1.264 1.165-.677l3.392 2.557c.78.587.63 1.172-.328 1.307l-1.97.277z" opacity=".464"/>
        <path stroke="#DCE0E7" stroke-linecap="round" stroke-linejoin="round" stroke-width="2.4" d="M157.6 148.8L157.6 153.6 152.8 153.6 152.8 158.4 148 158.4 148 163.2 143.2 163.2 143.2 168 138.4 168" transform="rotate(-90 148 158.4)"/>
        <circle cx="89.636" cy="168.836" r="1.636" fill="#FCD22A" fill-rule="nonzero" opacity=".704"/>
        <path stroke="#EFEFEF" stroke-width="2.4" d="M91.192 176.143c-.63.49-1.801.53-2.461.085l-5.388-3.634c-.66-.446-1.061-1.548-.841-2.313l1.79-6.247c.22-.767 1.146-1.489 1.941-1.516l6.494-.227c.797-.028 1.768.63 2.041 1.378l2.222 6.106c.273.75-.052 1.877-.678 2.366l-5.121 4.002h0z"/>
        <circle cx="171.6" cy="91.6" r="2.8" stroke="#FDAF27" stroke-width="2.4" opacity=".302"/>
        <g filter="url(#jcltqyawya)" transform="translate(57 58.5)">
            <path fill="#F8A266" d="M62.248 79.76c-6.294 2.396-12.997 3.615-19.96 3.615-6.953 0-13.668-1.22-19.951-3.615-1.489-.562-2.235-2.235-1.673-3.724.13-.346.324-.65.572-.908.766-.864 2.018-1.198 3.164-.756C30.023 76.51 36.047 77.6 42.288 77.6c6.25 0 12.273-1.09 17.898-3.228 1.468-.561 3.098.15 3.691 1.587.01.021.022.054.033.077.572 1.49-.173 3.162-1.662 3.724"/>
            <g transform="translate(0 8.714)">
                <mask id="6xebmq4mdc" fill="#fff">
                    <use xlink:href="#v4fbsp6sjb"/>
                </mask>
                <path fill="#F8A266" d="M84.584 35.652c0 19.29-18.934 34.926-42.292 34.926C18.935 70.578 0 54.94 0 35.652 0 16.362 18.935.726 42.292.726c23.358 0 42.292 15.637 42.292 34.926" mask="url(#6xebmq4mdc)"/>
            </g>
            <path fill="#EB8945" d="M63.877 75.96c-6.055 2.773-13.03 4.35-20.445 4.35-8.14 0-15.74-1.9-22.196-5.183.766-.863 2.018-1.198 3.164-.755 5.623 2.137 11.647 3.229 17.888 3.229 6.25 0 12.273-1.092 17.898-3.23 1.468-.56 3.098.152 3.691 1.588"/>
            <path fill="#EB8945" d="M84.587 44.37c0 19.28-18.934 34.922-42.295 34.922-12.965 0-24.57-4.814-32.32-12.404 4.059 1.19 8.408 1.824 12.954 1.824 21.514 0 38.97-14.41 38.97-32.19 0-11.357-7.125-21.331-17.888-27.054 22.563.734 40.58 16.085 40.58 34.902"/>
            <path fill="#FFF" d="M6.541 36.158l1.739.481c.548.152.884.7.773 1.26-.232 1.163-.424 2.32-.55 3.492-.086.463-.076.939-.13 1.403-.064.474-.108.94-.118 1.425-.02.455-.042.912-.091 1.377-.005.038-.006.077-.006.116.01.458-.002.924-.022 1.4-.087.993.021 1.975-.043 3.023l-.001.074c-.02 1.096-1.47 1.484-2.02.538l-.016-.029c-.017-.03-.032-.058-.047-.09-.458-.978-.975-1.978-1.23-3.041-.148-.526-.285-1.062-.402-1.599-.006-.029-.012-.056-.015-.085-.083-.536-.136-1.083-.199-1.631-.13-1.122-.043-2.266.054-3.4.148-1.391.503-2.762 1.024-4.065.205-.516.765-.797 1.3-.649M10.813 30.963c-.328 1.076-.623 2.102-.884 3.106-.067.256-.329.41-.585.339l-1.826-.502c-.32-.088-.458-.473-.258-.739.794-1.06 1.735-2.012 2.842-2.743.37-.243.84.117.711.54"/>
            <path fill="#164321" d="M73.76 14.045c0 4.373-14.089 7.918-31.468 7.918-17.379 0-31.468-3.545-31.468-7.918s14.089-7.917 31.468-7.917c17.38 0 31.467 3.544 31.467 7.917"/>
            <path fill="#EB8945" d="M73.758 16.199v4.318c0 4.383-14.086 7.923-31.472 7.923-17.373 0-31.46-3.54-31.46-7.923v-4.318c0 .744.412 1.468 1.188 2.16.85.777 2.175 1.5 3.887 2.158 5.6 2.17 15.324 3.605 26.385 3.605 11.062 0 20.786-1.435 26.399-3.605 1.711-.658 3.037-1.38 3.887-2.158.774-.692 1.186-1.416 1.186-2.16"/>
            <path fill="#F8A266" d="M42.292 8.287c-18.118 0-28.865 3.816-29.311 5.777.446 1.923 11.193 5.739 29.311 5.739 18.058 0 28.796-3.79 29.306-5.757-.51-1.967-11.248-5.758-29.306-5.758m0 15.834c-12.49 0-33.627-2.122-33.627-10.076 0-7.955 21.138-10.077 33.627-10.077 12.49 0 33.627 2.122 33.627 10.077 0 7.954-21.138 10.076-33.627 10.076"/>
            <path fill="#FFF" d="M32.03 21.69c-4.319.06-8.647-.409-12.866-1.485-2.095-.575-4.186-1.29-6.083-2.44-.944-.57-1.828-1.286-2.524-2.169-.668-.897-1.091-2.018-.965-3.104.07.538.222 1.047.446 1.517.238.466.564.873.92 1.244.732.728 1.61 1.3 2.537 1.778 1.87.94 3.895 1.589 5.946 2.13 4.112 1.085 8.344 1.742 12.589 2.529"/>
            <path fill="#EB9522" d="M62.493 17.204L62.493 16.065 61.863 16.244 62.014 17.319zM50.021 17.204L50.021 16.065 50.586 16.065 50.586 17.124z"/>
            <path fill="#EB9522" d="M62.493 17.204c0 1.205-2.793 2.181-6.236 2.181-3.444 0-6.236-.976-6.236-2.18 0-1.207 2.792-2.183 6.236-2.183 3.443 0 6.236.976 6.236 2.182"/>
            <path fill="#FAB418" d="M51.027 14.875c1.876-1.011 5.737-1.299 8.626-.642 2.888.657 3.71 2.008 1.834 3.019-1.876 1.01-5.738 1.298-8.627.642-2.887-.656-3.709-2.008-1.833-3.019"/>
            <path fill="#F9E54B" d="M59.517 17.925c-.782.197-1.585.304-2.392.355-.403.028-.807.034-1.21.026-.405-.003-.808-.026-1.211-.057-.403-.041-.804-.09-1.203-.163-.397-.069-.793-.157-1.182-.274-.388-.113-.768-.259-1.13-.44-.357-.189-.709-.414-.953-.738.268.304.62.51.983.675.363.165.743.298 1.13.398.774.206 1.568.332 2.368.401.798.074 1.6.09 2.404.063.4-.014.801-.04 1.2-.081.4-.04.798-.097 1.196-.165"/>
            <path fill="#F9E54B" d="M51.955 15.086c.903-.487 2.365-.77 3.899-.812 1.087-.03 2.21.06 3.196.284 2.377.54 3.051 1.653 1.509 2.483-.854.461-2.21.739-3.652.803-1.165.052-2.383-.034-3.444-.275-2.375-.54-3.052-1.651-1.508-2.483"/>
            <path fill="#FAB418" d="M52.192 15.077c.857-.461 2.216-.74 3.662-.803 1.088-.032 2.211.06 3.197.284 2.376.54 3.05 1.652 1.508 2.484-.854.459-2.21.738-3.652.802-1.091.033-2.219-.06-3.207-.283-2.375-.541-3.05-1.652-1.508-2.484"/>
            <path fill="#EB9522" d="M57.79 14.35c.315.019.629.058.942.106.312.053.622.12.927.207.307.085.605.2.892.345.281.149.563.327.758.606.094.138.155.31.143.486-.007.177-.088.336-.19.469-.208.26-.488.434-.776.572-.579.273-1.201.421-1.825.508.307-.072.612-.15.91-.251.299-.097.591-.21.867-.355.27-.148.54-.316.723-.555.087-.117.152-.253.156-.394.007-.141-.043-.281-.128-.402-.165-.245-.43-.424-.698-.57-.275-.144-.567-.256-.864-.355-.595-.192-1.214-.319-1.837-.418"/>
            <path fill="#EB9522" d="M54.044 15.452c.271-.055.582-.063.855-.029.08-.096.28-.181.564-.225.52-.081 1.13.001 1.361.183.144.113.135.235.047.349.131-.07.27-.139.414-.207.233-.112.487-.218.756-.321.252-.098.477-.2.766-.288.017-.005.09.003.105-.002l.356.172c-.313.072-.624.147-.913.234-.29.086-.573.175-.838.273-.124.046-.246.09-.367.138.233-.055.502-.092.8-.092.57 0 1.031.162 1.03.36-.001.109-.139.207-.356.273.196.072.307.174.273.284-.058.198-.566.342-1.131.32-.484-.017-.857-.129-1.128-.255.132.15.173.322-.07.47-.284.172-.914.232-1.405.132-.27-.055-.444-.146-.497-.245-.28.023-.587.005-.839-.06-.461-.116-.564-.342-.23-.503.288-.137.753-.194 1.2-.213-.441-.036-.886-.11-1.128-.256-.285-.173-.116-.393.375-.492"/>
            <path fill="#F9E54B" d="M53.939 15.454c.271-.055.581-.063.855-.028.08-.097.279-.182.564-.226.52-.081 1.13.002 1.36.183.144.114.135.236.047.35.132-.07.27-.14.414-.208.233-.11.487-.218.756-.321.267-.104.565-.198.872-.29l.356.173c-.314.07-.625.147-.913.233-.29.086-.573.176-.839.273-.124.046-.246.091-.366.138.233-.055.502-.092.8-.092.57 0 1.03.162 1.03.36-.001.109-.14.208-.356.273.196.072.306.175.273.284-.059.199-.566.342-1.131.32-.484-.016-.857-.128-1.13-.255.134.15.175.322-.068.47-.284.172-.915.232-1.405.132-.271-.055-.445-.146-.498-.244-.28.022-.587.004-.838-.06-.462-.116-.565-.343-.231-.503.288-.138.753-.194 1.2-.214-.44-.036-.885-.11-1.128-.256-.285-.172-.116-.393.376-.492"/>
            <path fill="#EB9522" d="M29.416 16.707L29.416 15.568 28.786 15.747 28.937 16.822zM16.944 16.707L16.944 15.568 17.51 15.568 17.51 16.627z"/>
            <path fill="#EB9522" d="M29.416 16.707c0 1.205-2.793 2.181-6.236 2.181-3.444 0-6.235-.976-6.235-2.18 0-1.207 2.791-2.183 6.235-2.183 3.443 0 6.236.976 6.236 2.182"/>
            <path fill="#FAB418" d="M17.95 14.379c1.876-1.012 5.738-1.3 8.626-.643 2.888.657 3.71 2.008 1.834 3.02-1.876 1.01-5.738 1.297-8.626.641-2.888-.656-3.71-2.008-1.834-3.018"/>
            <path fill="#F9E54B" d="M26.44 17.427c-.782.198-1.586.305-2.391.356-.403.027-.808.034-1.212.026-.403-.004-.807-.026-1.21-.057-.403-.04-.805-.09-1.202-.163-.399-.069-.795-.157-1.182-.274-.388-.114-.77-.259-1.131-.44-.357-.188-.71-.414-.953-.738.27.304.62.51.984.675.363.165.742.298 1.13.398.773.206 1.568.332 2.366.4.798.075 1.602.09 2.404.064.402-.013.802-.04 1.202-.081.4-.04.798-.097 1.195-.166"/>
            <path fill="#F9E54B" d="M18.878 14.588c.903-.486 2.366-.768 3.899-.81 1.088-.032 2.21.06 3.196.283 2.377.54 3.051 1.652 1.51 2.483-.855.461-2.211.739-3.653.802-1.165.053-2.383-.033-3.444-.274-2.375-.54-3.052-1.65-1.508-2.484"/>
            <path fill="#FAB418" d="M19.116 14.58c.856-.461 2.214-.74 3.66-.802 1.09-.033 2.213.06 3.198.283 2.376.54 3.051 1.652 1.508 2.484-.854.46-2.21.738-3.652.801-1.092.033-2.218-.058-3.206-.282-2.376-.541-3.051-1.652-1.508-2.484"/>
            <path fill="#EB9522" d="M24.714 13.852c.314.02.628.06.941.107.312.053.622.12.927.207.307.085.606.2.892.345.281.149.563.327.758.606.094.138.155.31.145.486-.008.177-.09.337-.191.469-.208.26-.49.434-.775.572-.58.273-1.202.421-1.827.509.307-.073.612-.15.91-.252.299-.096.591-.21.867-.355.27-.148.54-.316.723-.555.088-.117.152-.254.156-.394.007-.141-.043-.282-.128-.402-.165-.244-.43-.424-.698-.57-.275-.144-.567-.256-.864-.354-.595-.193-1.214-.32-1.836-.419M36.42 13.391L36.42 12.251 35.791 12.43 35.941 13.506zM23.949 13.391L23.949 12.251 24.514 12.252 24.514 13.311z"/>
            <path fill="#EB9522" d="M36.42 13.391c0 1.205-2.792 2.182-6.236 2.182-3.443 0-6.234-.977-6.234-2.182 0-1.206 2.79-2.182 6.234-2.182s6.236.976 6.236 2.182"/>
            <path fill="#FAB418" d="M24.955 11.062c1.875-1.011 5.737-1.298 8.626-.642 2.888.658 3.71 2.008 1.833 3.02-1.875 1.01-5.737 1.297-8.626.641-2.888-.655-3.709-2.007-1.833-3.02"/>
            <path fill="#F9E54B" d="M33.445 14.111c-.783.198-1.586.305-2.392.357-.403.026-.807.033-1.21.025-.405-.004-.808-.025-1.211-.056-.404-.043-.804-.09-1.203-.164-.397-.068-.794-.157-1.182-.274-.388-.114-.768-.259-1.13-.44-.357-.188-.709-.414-.954-.737.27.303.62.508.984.674.363.165.743.298 1.13.398.774.206 1.568.331 2.367.4.799.075 1.602.09 2.404.064.401-.013.802-.04 1.2-.082.402-.038.8-.096 1.197-.165"/>
            <path fill="#F9E54B" d="M25.883 11.272c.903-.485 2.365-.77 3.898-.81 1.088-.031 2.212.06 3.197.283 2.377.54 3.051 1.652 1.508 2.484-.853.46-2.21.738-3.651.801-1.165.053-2.384-.033-3.444-.274-2.375-.54-3.052-1.65-1.508-2.484"/>
            <path fill="#FAB418" d="M26.12 11.265c.856-.462 2.215-.741 3.661-.803 1.088-.032 2.212.06 3.197.283 2.377.54 3.051 1.651 1.508 2.484-.853.46-2.21.738-3.651.802-1.091.032-2.22-.06-3.207-.283-2.376-.541-3.051-1.652-1.508-2.483"/>
            <path fill="#EB9522" d="M31.718 10.537c.315.02.628.058.942.106.311.053.621.121.927.206.307.086.604.201.891.346.282.15.563.327.758.606.095.138.155.31.144.485-.007.178-.088.338-.19.469-.209.26-.489.435-.776.573-.579.273-1.202.42-1.825.509.306-.074.612-.15.91-.252.298-.096.591-.21.867-.355.27-.15.54-.316.722-.555.088-.117.153-.254.156-.395.007-.14-.042-.281-.127-.4-.165-.246-.43-.425-.698-.57-.275-.145-.568-.257-.864-.356-.595-.192-1.214-.319-1.837-.417"/>
            <path fill="#EB9522" d="M27.972 11.64c.271-.056.581-.064.855-.03.08-.096.28-.18.564-.225.52-.081 1.131 0 1.36.183.144.114.135.236.048.35.13-.07.271-.14.413-.208.234-.112.487-.219.756-.321.253-.098.478-.2.766-.288.018-.005.09.003.106-.003l.356.174c-.313.07-.625.147-.913.233-.29.085-.573.176-.839.273-.124.045-.245.091-.366.138.233-.056.502-.093.8-.092.57-.001 1.031.162 1.03.36 0 .109-.14.206-.356.273.196.072.306.175.273.284-.058.199-.566.342-1.131.32-.484-.017-.857-.13-1.128-.256.132.15.173.323-.07.471-.284.172-.915.231-1.405.131-.271-.054-.445-.145-.497-.245-.28.024-.587.006-.839-.058-.462-.116-.564-.343-.23-.503.287-.138.753-.196 1.2-.214-.442-.036-.886-.11-1.128-.256-.285-.172-.117-.394.375-.492"/>
            <path fill="#F9E54B" d="M27.867 11.642c.27-.056.58-.064.854-.03.08-.096.28-.18.564-.224.52-.082 1.13 0 1.361.182.144.114.135.236.047.35.131-.07.272-.14.414-.207.233-.113.487-.22.756-.322.267-.103.565-.197.872-.29l.356.173c-.314.071-.625.147-.913.233-.291.085-.574.176-.839.274-.124.044-.246.09-.366.137.233-.056.502-.093.8-.092.569 0 1.03.162 1.03.36 0 .11-.14.207-.357.273.197.073.307.175.274.284-.059.199-.567.342-1.132.32-.483-.017-.857-.13-1.128-.256.132.15.174.323-.07.471-.283.173-.914.231-1.405.131-.27-.054-.444-.144-.497-.244-.28.024-.587.005-.838-.059-.462-.116-.564-.342-.231-.503.288-.138.753-.195 1.2-.214-.441-.035-.886-.109-1.128-.256-.285-.172-.116-.393.376-.491"/>
            <path fill="#EB9522" d="M73.445 13.473L73.445 12.334 72.816 12.513 72.967 13.588zM60.974 13.473L60.974 12.334 61.539 12.334 61.539 13.393z"/>
            <path fill="#EB9522" d="M73.445 13.473c0 1.206-2.792 2.183-6.236 2.183-3.443 0-6.235-.977-6.235-2.183s2.792-2.182 6.235-2.182c3.444 0 6.236.976 6.236 2.182"/>
            <path fill="#FAB418" d="M61.98 11.145c1.876-1.011 5.738-1.298 8.626-.643 2.888.657 3.708 2.008 1.832 3.02-1.874 1.01-5.737 1.298-8.625.641-2.887-.656-3.709-2.008-1.833-3.018"/>
            <path fill="#F9E54B" d="M70.47 14.195c-.782.196-1.586.304-2.392.354-.403.028-.806.034-1.21.027-.405-.004-.808-.027-1.211-.058-.404-.04-.805-.09-1.203-.162-.398-.07-.794-.158-1.182-.275-.388-.113-.769-.259-1.13-.44-.358-.188-.71-.414-.954-.738.27.304.62.51.984.675.364.165.743.298 1.13.398.774.206 1.569.332 2.367.401.798.074 1.601.09 2.404.063.401-.013.802-.04 1.202-.081.4-.038.797-.096 1.194-.164"/>
            <path fill="#F9E54B" d="M62.908 11.355c.903-.487 2.366-.77 3.898-.812 1.088-.03 2.211.06 3.198.284 2.376.541 3.051 1.653 1.507 2.483-.853.462-2.21.74-3.651.803-1.164.052-2.384-.034-3.444-.274-2.375-.541-3.052-1.652-1.508-2.484"/>
            <path fill="#FAB418" d="M63.145 11.346c.857-.461 2.216-.74 3.662-.802 1.088-.031 2.211.06 3.197.283 2.376.541 3.05 1.652 1.508 2.484-.854.46-2.21.74-3.653.803-1.091.032-2.218-.06-3.206-.284-2.375-.54-3.05-1.652-1.508-2.484"/>
            <path fill="#EB9522" d="M68.743 10.62c.315.018.628.057.942.105.311.053.621.12.927.207.306.085.604.201.891.345.282.149.563.328.758.606.096.138.155.31.144.486-.007.177-.089.337-.19.469-.208.26-.489.434-.775.573-.579.272-1.202.42-1.826.509.306-.074.612-.152.91-.253.298-.097.59-.21.867-.355.27-.148.54-.316.722-.554.089-.118.153-.253.156-.395.007-.141-.042-.281-.126-.4-.167-.246-.43-.424-.7-.572-.274-.144-.567-.256-.862-.354-.596-.193-1.215-.32-1.838-.417M36.498 17.774L36.498 16.634 35.869 16.814 36.019 17.889zM24.027 17.774L24.027 16.634 24.592 16.634 24.592 17.695z"/>
            <path fill="#EB9522" d="M36.498 17.774c0 1.206-2.792 2.182-6.236 2.182-3.443 0-6.234-.976-6.234-2.182 0-1.205 2.79-2.182 6.234-2.182s6.236.977 6.236 2.182"/>
            <path fill="#FAB418" d="M25.033 15.445c1.875-1.01 5.737-1.298 8.626-.642 2.888.657 3.709 2.008 1.833 3.019-1.876 1.012-5.737 1.299-8.626.642-2.888-.656-3.71-2.008-1.833-3.019"/>
            <path fill="#F9E54B" d="M33.522 18.495c-.78.197-1.585.305-2.391.355-.403.028-.808.034-1.21.027-.405-.004-.808-.027-1.211-.058-.404-.041-.805-.09-1.203-.162-.398-.07-.794-.158-1.182-.275-.388-.113-.768-.259-1.13-.44-.358-.189-.709-.413-.954-.738.27.303.62.51.984.676.364.165.743.297 1.13.397.774.207 1.568.332 2.367.4.798.074 1.601.09 2.404.064.401-.014.802-.04 1.202-.081.4-.038.798-.096 1.194-.165"/>
            <path fill="#F9E54B" d="M25.96 15.656c.904-.487 2.367-.77 3.9-.812 1.087-.03 2.21.061 3.196.284 2.377.54 3.05 1.653 1.508 2.483-.853.462-2.21.74-3.651.803-1.165.053-2.384-.033-3.444-.274-2.375-.541-3.052-1.652-1.508-2.484"/>
            <path fill="#FAB418" d="M26.198 15.647c.857-.46 2.215-.74 3.66-.803 1.09-.03 2.213.061 3.199.284 2.375.541 3.05 1.652 1.508 2.483-.855.461-2.21.74-3.653.803-1.091.032-2.218-.06-3.206-.283-2.375-.54-3.05-1.652-1.508-2.484"/>
            <path fill="#EB9522" d="M31.796 14.92c.315.019.628.058.942.106.311.053.621.122.927.207.307.085.604.2.891.344.282.15.563.329.758.607.095.138.155.31.145.486-.008.177-.09.336-.19.468-.21.261-.49.434-.777.573-.579.273-1.2.42-1.825.51.306-.074.612-.152.91-.253.298-.097.591-.21.867-.355.27-.148.54-.316.722-.554.089-.118.153-.254.156-.395.007-.141-.042-.282-.127-.401-.165-.246-.43-.424-.698-.57-.275-.146-.568-.257-.864-.356-.595-.193-1.214-.32-1.837-.417M54.671 17.9L54.671 16.76 54.042 16.939 54.192 18.014zM42.2 17.9L42.2 16.76 42.765 16.76 42.765 17.82z"/>
            <path fill="#EB9522" d="M54.671 17.9c0 1.206-2.792 2.182-6.236 2.182-3.443 0-6.234-.976-6.234-2.182 0-1.205 2.79-2.182 6.234-2.182s6.236.977 6.236 2.182"/>
            <path fill="#FAB418" d="M54.671 16.76c0 1.206-2.792 2.182-6.236 2.182-3.443 0-6.234-.976-6.234-2.182 0-1.205 2.79-2.181 6.234-2.181s6.236.976 6.236 2.18"/>
            <path fill="#F9E54B" d="M51.696 18.62c-.783.198-1.586.305-2.392.357-.403.026-.807.033-1.21.025-.405-.003-.808-.025-1.211-.056-.404-.043-.804-.09-1.203-.163-.397-.07-.794-.158-1.182-.276-.388-.112-.768-.257-1.13-.439-.357-.188-.709-.413-.954-.737.27.303.62.509.984.674.363.166.743.299 1.13.398.774.206 1.568.332 2.367.4.799.075 1.602.091 2.404.065.401-.014.802-.04 1.2-.083.402-.038.8-.095 1.197-.164"/>
            <path fill="#EB9522" d="M53.565 16.76c0 .581-.787 1.097-2.007 1.424-.865.233-1.947.371-3.122.371-2.834 0-5.13-.804-5.13-1.795 0-.55.704-1.04 1.814-1.368.895-.267 2.052-.426 3.316-.426 2.832 0 5.129.803 5.129 1.794"/>
            <path fill="#FAB418" d="M53.38 16.813c0 .55-.707 1.043-1.82 1.371-.866.233-1.949.372-3.124.372-2.834 0-5.13-.805-5.13-1.796 0-.548.704-1.04 1.814-1.368.866-.235 1.951-.374 3.13-.374 2.832 0 5.13.803 5.13 1.795"/>
            <path fill="#F9E54B" d="M49.817 18.49c-.341.05-.687.077-1.032.096-.346.016-.691.017-1.037.008-.692-.022-1.383-.1-2.062-.246-.339-.075-.674-.17-1-.294-.325-.124-.647-.27-.927-.488-.14-.107-.27-.233-.364-.387-.1-.15-.146-.34-.115-.52.032-.18.135-.336.256-.459.122-.127.265-.226.415-.312-.14.099-.276.209-.386.337-.112.128-.198.281-.216.444-.02.163.026.327.121.462.092.137.219.25.354.348.276.192.586.339.906.454.32.116.653.204.987.276.668.155 1.35.231 2.037.276.684.043 1.373.043 2.063.005"/>
            <path fill="#EB9522" d="M69.74 15.821L69.74 14.68 69.111 14.86 69.261 15.936zM57.269 15.821L57.269 14.68 57.834 14.682 57.834 15.741z"/>
            <path fill="#EB9522" d="M69.74 15.821c0 1.205-2.791 2.181-6.236 2.181-3.443 0-6.235-.976-6.235-2.181 0-1.206 2.792-2.182 6.235-2.182 3.445 0 6.236.976 6.236 2.182"/>
            <path fill="#FAB418" d="M69.74 14.68c0 1.206-2.791 2.183-6.236 2.183-3.443 0-6.235-.977-6.235-2.183 0-1.205 2.792-2.181 6.235-2.181 3.445 0 6.236.976 6.236 2.181"/>
            <path fill="#F9E54B" d="M66.765 16.541c-.782.198-1.585.305-2.392.356-.403.027-.807.034-1.21.026-.405-.004-.808-.026-1.211-.057-.403-.042-.805-.09-1.203-.163-.398-.069-.793-.157-1.182-.275-.388-.113-.768-.258-1.13-.44-.357-.188-.709-.413-.953-.737.269.304.62.51.983.675.363.165.743.298 1.13.397.774.207 1.568.332 2.367.4.799.076 1.602.092 2.405.065.4-.014.802-.04 1.2-.083.401-.037.798-.095 1.196-.164"/>
            <path fill="#EB9522" d="M68.634 14.681c0 .58-.787 1.096-2.007 1.424-.864.233-1.946.37-3.123.37-2.832 0-5.128-.804-5.128-1.794 0-.55.704-1.04 1.813-1.369.895-.266 2.052-.426 3.315-.426 2.833 0 5.13.803 5.13 1.795"/>
            <path fill="#FAB418" d="M68.45 14.733c0 .55-.707 1.043-1.821 1.372-.865.233-1.949.372-3.125.372-2.832 0-5.129-.806-5.129-1.796 0-.549.705-1.04 1.814-1.369.866-.234 1.952-.373 3.13-.373 2.833 0 5.13.803 5.13 1.794"/>
            <path fill="#F9E54B" d="M64.885 16.41c-.34.05-.685.077-1.03.096-.346.017-.693.018-1.038.008-.692-.021-1.382-.1-2.062-.245-.34-.076-.674-.17-1-.294-.325-.124-.646-.271-.927-.489-.14-.106-.27-.233-.365-.387-.097-.149-.145-.34-.115-.52.033-.18.136-.335.258-.458.121-.128.265-.225.414-.313-.141.099-.275.21-.387.337-.111.128-.197.281-.215.444-.02.163.027.328.121.462.092.137.218.25.354.348.277.192.587.339.907.454.32.116.652.204.986.277.667.155 1.35.23 2.036.275.686.043 1.374.043 2.063.005"/>
            <path fill="#EB9522" d="M56.572 12.82L56.572 11.681 55.942 11.86 56.093 12.935zM44.1 12.82L44.1 11.681 44.665 11.681 44.665 12.741z"/>
            <path fill="#EB9522" d="M56.572 12.82c0 1.206-2.793 2.183-6.236 2.183-3.444 0-6.236-.977-6.236-2.183 0-1.205 2.792-2.18 6.236-2.18 3.443 0 6.236.975 6.236 2.18"/>
            <path fill="#FAB418" d="M55.892 12.671c-1.563 1.074-5.318 1.501-8.388.954-3.068-.547-4.287-1.861-2.724-2.936 1.563-1.073 5.318-1.5 8.386-.954 3.07.548 4.29 1.862 2.726 2.936"/>
            <path fill="#F9E54B" d="M53.596 13.542c-.783.197-1.585.304-2.392.356-.403.026-.807.032-1.21.025-.405-.003-.808-.026-1.211-.057-.403-.042-.805-.09-1.203-.162-.397-.07-.793-.158-1.182-.276-.388-.113-.768-.258-1.13-.439-.357-.188-.709-.413-.953-.737.268.302.62.509.983.674.363.165.743.299 1.13.398.774.206 1.568.331 2.366.4.8.074 1.603.09 2.406.064.4-.013.801-.04 1.2-.082.4-.038.798-.095 1.196-.164"/>
            <path fill="#EB9522" d="M54.906 12.495c-.752.517-2.123.852-3.634.95-1.074.071-2.218.022-3.265-.164-2.525-.45-3.529-1.531-2.242-2.416.712-.49 1.977-.815 3.393-.931 1.142-.096 2.38-.053 3.506.147 2.524.45 3.528 1.53 2.242 2.414"/>
            <path fill="#FAB418" d="M54.673 12.513c-.715.49-1.983.817-3.402.933-1.074.07-2.218.02-3.264-.166-2.524-.45-3.529-1.53-2.242-2.415.712-.488 1.977-.816 3.393-.932 1.075-.071 2.224-.023 3.274.164 2.523.45 3.527 1.532 2.24 2.416"/>
            <path fill="#F9E54B" d="M49.323 13.44c-.319-.006-.636-.031-.953-.066-.316-.039-.63-.092-.942-.158-.312-.067-.62-.157-.92-.271-.3-.114-.595-.252-.859-.446-.13-.099-.253-.214-.35-.352-.097-.136-.164-.307-.158-.484.003-.176.083-.34.182-.472.101-.135.227-.242.362-.335.538-.365 1.164-.543 1.786-.665-.304.089-.608.183-.9.306-.29.12-.575.26-.822.449-.123.093-.238.197-.327.318-.088.12-.15.26-.15.402-.004.143.05.283.14.403.086.12.2.224.322.316.246.185.53.323.82.44.29.116.595.202.9.284.61.157 1.238.258 1.869.332"/>
            <path fill="#EB9522" d="M52.987 12.191c-.253.066-.56.083-.841.06-.052.1-.225.19-.495.245-.493.1-1.125.04-1.407-.133-.177-.107-.204-.228-.152-.345-.11.074-.227.15-.35.221-.198.12-.417.235-.656.347-.235.112-.502.216-.78.32l-.105.011c.053-.123.277-.338.538-.434.265-.097.518-.196.753-.304l.323-.15c-.216.063-.472.11-.77.12-.563.022-1.072-.122-1.13-.318-.032-.11.076-.213.274-.285-.219-.066-.359-.163-.358-.274 0-.198.462-.36 1.03-.36.486 0 .891.098 1.199.213-.178-.144-.27-.313-.071-.47.23-.181.84-.263 1.357-.182.285.045.486.128.568.225.27-.033.581-.026.852.029.494.098.663.319.378.491-.245.147-.69.222-1.13.256.45.02.914.076 1.2.215.334.16.232.386-.227.502"/>
            <path fill="#F9E54B" d="M52.823 12.202c-.253.065-.56.083-.84.06-.053.099-.226.19-.496.245-.493.1-1.125.04-1.407-.134-.177-.106-.203-.228-.152-.344-.109.075-.227.15-.349.222-.199.119-.418.234-.657.345-.234.113-.502.217-.78.32l-.405-.158c.29-.082.577-.169.838-.265.266-.095.518-.196.753-.303.111-.05.217-.1.323-.15-.215.064-.472.11-.77.121-.563.02-1.072-.124-1.13-.32-.032-.11.076-.212.274-.284-.218-.067-.358-.164-.357-.274-.001-.2.46-.36 1.028-.36.487 0 .892.099 1.2.213-.178-.144-.27-.313-.071-.47.23-.18.84-.262 1.358-.182.285.045.486.129.567.225.271-.033.581-.026.852.029.494.099.663.32.378.49-.244.148-.689.223-1.129.258.45.02.913.075 1.2.214.334.16.231.385-.228.502"/>
            <path fill="#EB9522" d="M23.59 14.644L23.59 13.505 22.961 13.684 23.111 14.759zM11.118 14.644L11.118 13.505 11.683 13.505 11.683 14.565z"/>
            <path fill="#EB9522" d="M23.59 14.644c0 1.206-2.792 2.183-6.236 2.183s-6.236-.977-6.236-2.183c0-1.205 2.792-2.18 6.236-2.18s6.236.975 6.236 2.18"/>
            <path fill="#FAB418" d="M22.91 14.495c-1.563 1.075-5.318 1.501-8.387.954-3.068-.547-4.288-1.861-2.725-2.935 1.564-1.074 5.319-1.502 8.387-.955 3.069.548 4.289 1.862 2.725 2.936"/>
            <path fill="#F9E54B" d="M20.614 15.366c-.782.197-1.585.304-2.391.356-.404.026-.808.032-1.211.025-.404-.004-.808-.025-1.21-.056-.404-.043-.806-.09-1.203-.163-.398-.07-.794-.158-1.182-.276-.389-.113-.769-.259-1.13-.439-.358-.188-.71-.413-.954-.737.269.302.62.509.983.674.363.165.743.299 1.13.397.775.207 1.568.332 2.367.401.8.075 1.602.091 2.405.065.4-.014.802-.04 1.2-.083.401-.038.799-.095 1.196-.164"/>
            <path fill="#EB9522" d="M21.924 14.32c-.752.516-2.122.851-3.634.949-1.074.071-2.218.023-3.264-.164-2.525-.45-3.53-1.531-2.243-2.416.713-.49 1.977-.815 3.394-.93 1.141-.096 2.38-.054 3.505.146 2.525.45 3.529 1.53 2.242 2.415"/>
            <path fill="#FAB418" d="M21.691 14.337c-.714.49-1.983.817-3.401.933-1.074.07-2.218.021-3.265-.166-2.523-.45-3.528-1.53-2.242-2.415.712-.489 1.977-.816 3.393-.93 1.075-.073 2.224-.025 3.274.162 2.524.452 3.527 1.532 2.241 2.416"/>
            <path fill="#F9E54B" d="M16.34 15.265c-.317-.006-.634-.032-.951-.067-.316-.039-.63-.092-.942-.158-.313-.067-.62-.157-.921-.271-.3-.114-.594-.252-.858-.446-.131-.099-.253-.213-.35-.352-.097-.136-.165-.307-.158-.483.002-.177.083-.341.181-.473.101-.135.228-.242.362-.334.539-.366 1.165-.544 1.786-.666-.304.089-.607.184-.9.306-.29.12-.575.26-.822.449-.122.093-.237.199-.327.318-.087.12-.15.26-.15.402-.004.144.051.283.14.403.086.12.2.225.323.316.245.185.53.324.82.44.29.116.595.202.9.285.61.156 1.237.257 1.868.33"/>
            <path fill="#EB9522" d="M46.97 13.806L46.97 12.667 46.34 12.846 46.491 13.921zM34.498 13.806L34.498 12.667 35.063 12.667 35.063 13.727z"/>
            <path fill="#EB9522" d="M46.97 13.806c0 1.206-2.793 2.183-6.236 2.183-3.444 0-6.236-.977-6.236-2.183 0-1.205 2.792-2.18 6.236-2.18 3.443 0 6.236.975 6.236 2.18"/>
            <path fill="#FAB418" d="M46.29 13.657c-1.563 1.074-5.318 1.501-8.387.954-3.069-.547-4.288-1.861-2.725-2.936 1.563-1.073 5.318-1.5 8.386-.954 3.07.548 4.29 1.861 2.726 2.936"/>
            <path fill="#F9E54B" d="M43.994 14.528c-.783.196-1.585.304-2.392.356-.403.026-.807.032-1.21.025-.405-.003-.808-.026-1.211-.057-.403-.042-.805-.09-1.203-.162-.397-.07-.793-.159-1.182-.276-.388-.113-.768-.258-1.13-.439-.357-.19-.709-.413-.953-.738.268.303.62.51.983.675.363.165.743.298 1.13.398.774.206 1.568.331 2.366.4.8.074 1.603.09 2.406.064.4-.013.801-.04 1.2-.082.4-.038.798-.095 1.196-.164"/>
            <path fill="#EB9522" d="M45.304 13.481c-.752.517-2.123.852-3.634.95-1.074.071-2.218.022-3.265-.164-2.525-.45-3.528-1.531-2.242-2.416.712-.49 1.977-.815 3.393-.931 1.142-.096 2.38-.053 3.506.147 2.525.45 3.528 1.53 2.242 2.414"/>
            <path fill="#FAB418" d="M45.07 13.499c-.714.49-1.982.817-3.4.933-1.075.07-2.219.02-3.265-.166-2.524-.45-3.529-1.53-2.242-2.415.712-.488 1.977-.816 3.393-.932 1.075-.071 2.224-.023 3.274.164 2.523.45 3.527 1.532 2.24 2.416"/>
            <path fill="#F9E54B" d="M39.72 14.427c-.318-.007-.635-.032-.952-.068-.316-.038-.63-.09-.942-.157-.312-.067-.62-.157-.92-.271-.3-.114-.595-.252-.859-.446-.13-.099-.253-.214-.35-.352-.097-.136-.164-.307-.158-.484.003-.176.083-.34.182-.472.101-.135.227-.242.362-.335.538-.365 1.164-.543 1.786-.665-.305.089-.609.183-.9.306-.29.12-.575.26-.822.448-.123.094-.238.199-.327.32-.088.12-.15.258-.15.401-.004.143.05.283.14.403.085.12.2.224.322.316.246.185.53.323.82.439.29.117.595.203.9.285.61.157 1.238.258 1.869.332"/>
            <path fill="#EB9522" d="M53.515 9.217L53.515 8.078 52.886 8.257 53.036 9.332zM41.044 9.217L41.044 8.078 41.609 8.078 41.609 9.137z"/>
            <path fill="#EB9522" d="M53.515 9.217c0 1.205-2.791 2.183-6.236 2.183-3.444 0-6.235-.978-6.235-2.183 0-1.206 2.791-2.182 6.235-2.182 3.445 0 6.236.976 6.236 2.182"/>
            <path fill="#FAB418" d="M52.836 9.068c-1.564 1.074-5.318 1.502-8.388.954-3.068-.547-4.289-1.862-2.724-2.936 1.563-1.073 5.318-1.5 8.386-.954 3.07.548 4.29 1.861 2.726 2.936"/>
            <path fill="#F9E54B" d="M50.54 9.939c-.783.196-1.586.303-2.392.355-.403.027-.807.033-1.21.026-.405-.003-.808-.026-1.211-.057-.403-.042-.805-.09-1.203-.164-.398-.068-.794-.157-1.182-.274-.388-.113-.768-.258-1.13-.44-.357-.188-.709-.413-.953-.737.268.303.62.508.983.674.363.165.742.299 1.13.398.774.206 1.568.332 2.366.401.8.074 1.603.09 2.406.063.4-.013.801-.04 1.2-.081.4-.038.798-.097 1.196-.164"/>
            <path fill="#EB9522" d="M51.85 8.892c-.753.517-2.123.851-3.635.95-1.074.071-2.218.022-3.264-.165-2.525-.45-3.529-1.531-2.242-2.415.712-.49 1.977-.815 3.393-.931 1.142-.096 2.38-.054 3.506.146 2.524.451 3.528 1.53 2.242 2.415"/>
            <path fill="#FAB418" d="M51.616 8.909c-.714.492-1.982.818-3.4.933-1.075.071-2.219.022-3.265-.166-2.524-.45-3.529-1.53-2.242-2.414.712-.488 1.977-.816 3.393-.932 1.075-.07 2.224-.023 3.272.165 2.525.45 3.529 1.53 2.242 2.414"/>
            <path fill="#F9E54B" d="M46.266 9.838c-.318-.007-.635-.032-.952-.068-.316-.038-.63-.092-.942-.157-.312-.068-.62-.158-.92-.271-.3-.115-.595-.252-.859-.446-.13-.099-.253-.214-.35-.353-.097-.136-.165-.306-.158-.483.003-.177.083-.34.182-.472.1-.135.227-.243.362-.335.538-.365 1.164-.544 1.786-.666-.306.09-.609.184-.9.307-.29.12-.575.26-.822.448-.123.094-.238.198-.327.318-.088.12-.152.26-.15.403-.004.142.05.283.14.403.085.12.2.224.322.315.245.186.53.324.82.44.29.117.595.203.9.285.61.157 1.238.258 1.868.332"/>
            <path fill="#EB9522" d="M49.93 8.588c-.252.065-.559.083-.84.06-.052.099-.225.19-.495.245-.493.1-1.125.04-1.407-.134-.177-.106-.204-.228-.152-.344-.11.074-.228.148-.35.22-.198.12-.417.236-.656.347-.235.113-.502.217-.78.32l-.106.012c.054-.123.278-.339.539-.435.265-.096.518-.197.752-.303.112-.05.217-.1.324-.15-.216.063-.472.11-.77.12-.564.022-1.072-.123-1.13-.32-.032-.109.076-.211.274-.283-.219-.067-.359-.165-.358-.274 0-.2.461-.36 1.028-.36.487 0 .893.097 1.2.213-.177-.144-.27-.313-.07-.47.23-.181.84-.264 1.357-.182.285.043.486.128.568.225.27-.033.58-.026.852.028.494.1.663.32.378.491-.245.148-.69.222-1.13.257.45.02.914.076 1.2.215.334.16.232.385-.228.502"/>
            <path fill="#F9E54B" d="M49.767 8.598c-.253.066-.56.083-.841.061-.052.099-.225.19-.495.244-.493.1-1.125.04-1.407-.132-.177-.107-.204-.23-.152-.345-.109.075-.227.148-.35.22-.199.12-.417.235-.656.347-.234.112-.502.217-.78.32l-.406-.158c.291-.082.578-.169.839-.265.264-.097.517-.196.752-.303.112-.05.217-.1.324-.152-.216.066-.472.112-.77.122-.563.02-1.072-.123-1.13-.32-.032-.109.076-.21.273-.284-.217-.066-.358-.163-.356-.274-.002-.198.46-.36 1.028-.36.487 0 .892.098 1.2.214-.178-.145-.27-.314-.071-.47.23-.182.84-.264 1.357-.182.285.044.485.127.568.224.27-.033.581-.025.852.029.494.1.663.32.378.491-.245.148-.69.222-1.13.258.45.018.914.075 1.2.213.334.16.232.386-.227.502"/>
            <path fill="#EB9522" d="M41.016 9.421L41.016 8.281 40.387 8.46 40.537 9.535zM28.545 9.421L28.545 8.281 29.11 8.281 29.11 9.34z"/>
            <path fill="#EB9522" d="M41.016 9.42c0 1.205-2.792 2.182-6.236 2.182-3.443 0-6.235-.977-6.235-2.181 0-1.207 2.792-2.183 6.235-2.183 3.444 0 6.236.976 6.236 2.183"/>
            <path fill="#FAB418" d="M40.336 9.271c-1.563 1.074-5.318 1.502-8.386.954-3.07-.547-4.289-1.862-2.726-2.936 1.564-1.074 5.32-1.5 8.388-.954 3.068.547 4.288 1.861 2.724 2.936"/>
            <path fill="#F9E54B" d="M38.04 10.142c-.782.196-1.584.303-2.39.355-.404.027-.808.033-1.211.025-.405-.002-.81-.025-1.212-.056-.402-.042-.804-.09-1.202-.163-.398-.07-.795-.158-1.182-.275-.388-.113-.768-.258-1.131-.44-.356-.188-.708-.413-.952-.737.268.303.62.509.983.674.363.165.742.299 1.13.399.774.205 1.568.331 2.366.4.8.074 1.603.09 2.406.064.4-.014.801-.04 1.2-.082.4-.039.798-.096 1.196-.164"/>
            <path fill="#EB9522" d="M39.35 9.095c-.752.517-2.122.851-3.634.95-1.073.071-2.217.022-3.264-.165-2.524-.45-3.528-1.531-2.243-2.415.714-.489 1.978-.815 3.394-.931 1.141-.096 2.38-.054 3.506.146 2.524.451 3.528 1.53 2.241 2.415"/>
            <path fill="#FAB418" d="M39.118 9.112c-.715.492-1.983.817-3.402.933-1.074.07-2.218.022-3.264-.166-2.524-.45-3.529-1.53-2.242-2.414.712-.488 1.977-.816 3.392-.932 1.076-.07 2.224-.023 3.273.165 2.525.45 3.53 1.53 2.243 2.414"/>
            <path fill="#F9E54B" d="M33.767 10.04c-.317-.006-.635-.033-.951-.067-.317-.038-.63-.092-.943-.157-.313-.068-.62-.158-.921-.271-.299-.115-.594-.252-.858-.446-.131-.099-.253-.214-.35-.353-.097-.136-.164-.306-.158-.483.002-.177.083-.34.182-.474.1-.133.228-.24.361-.333.539-.365 1.166-.544 1.786-.666-.304.089-.607.184-.898.307-.29.12-.577.26-.824.448-.122.094-.237.199-.327.318-.087.12-.15.26-.15.403-.003.143.052.283.14.403.086.12.2.224.323.315.245.186.53.324.82.44.291.117.595.203.9.285.611.157 1.237.258 1.868.332"/>
            <path fill="#EB9522" d="M37.432 8.79c-.254.066-.56.084-.841.06-.052.1-.225.19-.495.246-.493.1-1.125.04-1.407-.134-.177-.106-.204-.228-.152-.344-.109.074-.227.148-.35.22-.199.12-.417.236-.656.347-.234.113-.502.217-.78.32l-.106.012c.054-.123.278-.339.539-.435.264-.096.517-.197.752-.303l.324-.15c-.216.063-.472.11-.77.12-.563.02-1.072-.123-1.13-.32-.032-.109.076-.211.273-.285-.217-.065-.358-.163-.356-.272-.002-.2.46-.36 1.028-.36.487 0 .892.097 1.2.213-.178-.146-.27-.313-.071-.47.23-.182.84-.264 1.357-.182.285.043.485.127.568.225.27-.033.581-.026.852.028.494.1.663.32.378.491-.245.148-.69.222-1.13.257.45.02.914.076 1.2.214.334.16.232.386-.227.502"/>
            <path fill="#F9E54B" d="M37.268 8.801c-.254.066-.56.083-.842.061-.05.099-.224.19-.494.244-.493.1-1.125.04-1.407-.132-.177-.107-.203-.229-.152-.345-.109.075-.227.148-.349.22-.2.12-.42.235-.657.347-.234.112-.502.218-.78.32l-.405-.158c.29-.082.577-.168.838-.265.264-.096.517-.196.753-.303.11-.05.217-.1.323-.152-.215.066-.472.112-.77.122-.563.02-1.072-.123-1.13-.32-.032-.109.076-.21.273-.284-.217-.066-.357-.163-.357-.274-.002-.198.461-.36 1.029-.36.487 0 .891.098 1.2.214-.178-.145-.27-.314-.072-.47.23-.182.84-.263 1.359-.183.285.045.484.129.566.225.272-.033.582-.026.853.029.494.1.663.32.378.491-.244.149-.69.222-1.13.257.45.02.914.075 1.2.214.335.16.232.386-.227.502"/>
            <path fill="#EB9522" d="M28.036 11.442L28.036 10.301 27.406 10.482 27.557 11.557zM15.564 11.442L15.564 10.301 16.129 10.302 16.129 11.361z"/>
            <path fill="#EB9522" d="M28.036 11.442c0 1.205-2.793 2.181-6.236 2.181-3.444 0-6.235-.976-6.235-2.181 0-1.206 2.79-2.183 6.235-2.183 3.443 0 6.236.977 6.236 2.183"/>
            <path fill="#FAB418" d="M27.356 11.292c-1.564 1.075-5.318 1.5-8.388.954-3.068-.548-4.288-1.862-2.724-2.936 1.563-1.074 5.318-1.5 8.386-.954 3.07.548 4.29 1.862 2.726 2.936"/>
            <path fill="#F9E54B" d="M25.06 12.162c-.782.198-1.585.304-2.391.356-.404.027-.808.033-1.212.025-.403-.003-.808-.025-1.21-.056-.403-.041-.805-.09-1.202-.163-.399-.069-.795-.157-1.182-.275-.389-.113-.77-.258-1.132-.44-.356-.188-.709-.413-.952-.737.269.303.62.509.983.674.363.166.742.299 1.13.399.774.206 1.568.332 2.367.4.798.074 1.602.09 2.404.064.402-.014.802-.04 1.201-.083.401-.038.799-.095 1.196-.164"/>
            <path fill="#EB9522" d="M26.37 11.117c-.753.515-2.123.85-3.635.95-1.072.07-2.216.021-3.264-.166-2.524-.45-3.528-1.531-2.242-2.414.713-.49 1.978-.816 3.393-.932 1.142-.095 2.38-.054 3.506.146 2.524.45 3.528 1.531 2.242 2.416"/>
            <path fill="#FAB418" d="M26.137 11.133c-.715.49-1.983.817-3.401.933-1.074.07-2.218.022-3.266-.165-2.522-.45-3.527-1.531-2.24-2.415.711-.49 1.976-.815 3.391-.931 1.076-.073 2.224-.023 3.274.164 2.524.45 3.528 1.531 2.242 2.414"/>
            <path fill="#F9E54B" d="M20.786 12.062c-.317-.007-.635-.033-.95-.068-.318-.037-.631-.091-.944-.158-.312-.067-.62-.156-.921-.271-.299-.114-.594-.25-.858-.445-.131-.098-.253-.213-.35-.352-.097-.137-.164-.308-.158-.484.003-.177.083-.34.183-.473.1-.133.227-.241.36-.333.54-.366 1.166-.545 1.787-.666-.305.088-.608.183-.9.306-.29.12-.575.26-.822.448-.123.093-.238.199-.328.318-.087.121-.15.26-.15.402-.003.144.052.284.14.404.086.12.2.225.323.315.246.187.53.324.82.44.292.116.595.203.9.285.61.156 1.238.258 1.868.332"/>
            <path fill="#EB9522" d="M31.756 5.537L31.344 4.475 30.823 4.869 31.35 5.816zM20.125 10.039L19.714 8.975 20.241 8.772 20.624 9.759z"/>
            <path fill="#EB9522" d="M31.756 5.537c.435 1.125-1.816 3.043-5.028 4.286-3.212 1.243-6.168 1.339-6.602.216-.436-1.125 1.814-3.043 5.026-4.287 3.212-1.243 6.168-1.34 6.604-.215"/>
            <path fill="#FAB418" d="M31.068 5.644c-1.07 1.565-4.419 3.32-7.478 3.915-3.058.599-4.671-.188-3.6-1.752 1.07-1.566 4.418-3.321 7.477-3.917 3.059-.598 4.672.188 3.601 1.754"/>
            <path fill="#F9E54B" d="M29.24 7.284c-.657.465-1.368.855-2.101 1.194-.365.17-.741.322-1.12.46-.378.144-.763.268-1.15.386-.39.105-.782.206-1.18.281-.396.08-.797.14-1.201.171-.403.033-.81.036-1.214-.002-.4-.046-.81-.13-1.153-.345.36.186.761.252 1.159.275.4.024.8.01 1.198-.037.796-.086 1.582-.256 2.352-.48.77-.22 1.527-.494 2.264-.809.37-.157.734-.326 1.091-.51.36-.179.71-.377 1.056-.584"/>
            <path fill="#EB9522" d="M30.085 5.835c-.515.754-1.672 1.56-3.046 2.198-.975.454-2.06.82-3.105 1.024-2.516.49-3.842-.155-2.962-1.442.488-.714 1.55-1.474 2.828-2.094 1.03-.501 2.2-.909 3.323-1.128 2.516-.492 3.843.154 2.962 1.442"/>
            <path fill="#FAB418" d="M29.874 5.935c-.49.716-1.554 1.477-2.836 2.098-.975.453-2.06.82-3.104 1.024-2.516.492-3.843-.155-2.962-1.442.488-.714 1.55-1.474 2.827-2.094.979-.455 2.066-.824 3.113-1.028 2.516-.492 3.843.155 2.962 1.442"/>
            <path fill="#F9E54B" d="M25.22 8.732c-.3.109-.605.199-.913.281-.307.078-.62.143-.936.192-.316.05-.635.078-.955.08-.322.002-.646-.02-.963-.105-.157-.045-.312-.108-.453-.202-.14-.092-.264-.227-.321-.394-.062-.166-.047-.348-.003-.507.046-.162.127-.308.218-.442.37-.535.89-.928 1.425-1.266-.253.193-.5.39-.727.611-.229.216-.443.45-.607.715-.08.132-.149.27-.19.415-.037.144-.047.297.006.429.048.134.15.246.275.325.124.083.268.138.415.18.296.083.611.11.925.112.313.004.627-.026.94-.059.627-.075 1.248-.206 1.863-.365"/>
            <path fill="#EB9522" d="M65.452 11.229L65.452 10.089 64.822 10.268 64.973 11.344zM52.98 11.229L52.98 10.089 53.546 10.089 53.546 11.149z"/>
            <path fill="#EB9522" d="M65.452 11.229c0 1.206-2.791 2.182-6.236 2.182-3.444 0-6.235-.976-6.235-2.182 0-1.205 2.791-2.182 6.235-2.182 3.445 0 6.236.977 6.236 2.182"/>
            <path fill="#FAB418" d="M64.773 11.08c-1.564 1.074-5.319 1.5-8.388.953-3.068-.547-4.289-1.86-2.724-2.936 1.563-1.073 5.318-1.5 8.386-.953 3.07.547 4.289 1.862 2.726 2.936"/>
            <path fill="#F9E54B" d="M62.476 11.95c-.782.198-1.585.304-2.391.356-.403.026-.807.032-1.21.025-.405-.003-.808-.026-1.211-.057-.404-.041-.806-.09-1.203-.162-.399-.069-.794-.157-1.182-.276-.388-.112-.768-.258-1.13-.439-.357-.188-.709-.413-.954-.737.27.302.62.509.984.674.363.166.742.299 1.13.398.774.206 1.568.332 2.366.4.8.074 1.603.09 2.405.065.401-.014.802-.04 1.2-.083.402-.038.8-.095 1.196-.164"/>
            <path fill="#EB9522" d="M63.787 10.903c-.753.517-2.123.853-3.635.95-1.074.072-2.218.022-3.264-.164-2.525-.45-3.529-1.531-2.242-2.415.712-.49 1.977-.816 3.393-.932 1.142-.095 2.38-.053 3.505.147 2.525.45 3.53 1.531 2.243 2.414"/>
            <path fill="#FAB418" d="M63.553 10.921c-.714.49-1.982.817-3.4.933-1.075.07-2.219.02-3.265-.165-2.524-.45-3.529-1.531-2.242-2.416.712-.488 1.976-.816 3.393-.932 1.075-.07 2.223-.022 3.273.165 2.524.45 3.528 1.53 2.241 2.415"/>
            <path fill="#F9E54B" d="M58.203 11.849c-.318-.006-.635-.032-.952-.067-.316-.039-.63-.092-.942-.158-.312-.067-.62-.156-.921-.271-.299-.114-.594-.252-.858-.446-.131-.099-.253-.214-.35-.351-.097-.137-.165-.308-.158-.485.003-.176.083-.34.182-.472.1-.135.227-.241.362-.334.538-.366 1.164-.544 1.786-.666-.306.089-.61.183-.9.306-.29.12-.575.26-.822.45-.123.092-.238.197-.328.317-.087.12-.15.26-.15.402-.003.143.052.283.14.404.086.12.2.223.323.315.245.185.53.324.82.44.29.116.595.202.9.284.61.157 1.238.258 1.868.332"/>
            <path fill="#EB9522" d="M61.867 10.6c-.252.065-.559.082-.84.06-.052.099-.226.19-.496.244-.492.1-1.124.04-1.407-.132-.177-.108-.203-.229-.151-.346-.11.075-.228.15-.35.222-.198.12-.418.234-.656.347-.235.11-.502.215-.78.319l-.106.011c.054-.123.278-.337.539-.434.265-.096.518-.196.753-.304.11-.05.217-.099.323-.15-.216.064-.472.11-.77.121-.564.02-1.072-.123-1.131-.32-.031-.108.077-.212.274-.284-.218-.066-.358-.163-.357-.274 0-.198.46-.36 1.028-.36.487 0 .893.099 1.2.213-.177-.144-.27-.313-.07-.47.23-.18.84-.262 1.357-.182.285.045.486.129.568.225.27-.033.58-.026.852.029.494.099.663.32.378.491-.245.149-.69.222-1.13.257.45.02.914.075 1.2.214.334.16.232.386-.228.502"/>
            <path fill="#F9E54B" d="M61.704 10.61c-.253.065-.56.083-.841.06-.052.1-.225.19-.495.245-.493.1-1.125.04-1.407-.133-.177-.107-.204-.229-.152-.345-.11.075-.227.15-.35.222-.2.12-.417.234-.656.346-.235.112-.502.217-.78.32l-.406-.158c.291-.083.578-.17.839-.266.264-.095.517-.196.752-.303.112-.05.217-.1.324-.15-.216.064-.472.11-.77.121-.563.021-1.072-.124-1.13-.319-.032-.11.076-.213.273-.285-.218-.067-.358-.164-.357-.273 0-.2.461-.361 1.028-.361.487.001.893.099 1.2.214-.177-.145-.27-.314-.07-.47.23-.182.84-.263 1.357-.183.285.045.485.129.568.225.27-.033.58-.026.852.03.494.098.663.318.378.49-.245.148-.69.222-1.13.257.45.02.914.076 1.2.215.334.16.232.384-.227.502"/>
            <path fill="#EB9522" d="M45.642 18.503L45.642 17.364 45.013 17.543 45.163 18.618zM33.17 18.503L33.17 17.364 33.735 17.364 33.735 18.423z"/>
            <path fill="#EB9522" d="M45.642 18.503c0 1.205-2.792 2.181-6.236 2.181s-6.236-.976-6.236-2.18c0-1.207 2.792-2.183 6.236-2.183s6.236.976 6.236 2.182"/>
            <path fill="#FAB418" d="M44.962 18.353c-1.563 1.075-5.318 1.502-8.387.954-3.068-.548-4.288-1.862-2.725-2.936 1.564-1.074 5.319-1.5 8.387-.953 3.069.547 4.289 1.86 2.725 2.935"/>
            <path fill="#F9E54B" d="M42.666 19.223c-.782.198-1.585.305-2.391.356-.403.028-.808.034-1.211.026-.404-.003-.807-.026-1.21-.057-.404-.041-.806-.09-1.203-.163-.398-.069-.794-.157-1.182-.274-.388-.114-.769-.259-1.13-.44-.358-.189-.71-.414-.954-.738.269.304.62.51.983.675.363.165.744.298 1.13.398.775.206 1.569.332 2.367.401.8.074 1.602.09 2.405.063.401-.014.802-.04 1.2-.081.401-.04.799-.097 1.196-.166"/>
            <path fill="#EB9522" d="M43.976 18.178c-.752.517-2.122.851-3.634.95-1.074.071-2.218.022-3.264-.166-2.525-.45-3.528-1.53-2.243-2.414.713-.49 1.977-.816 3.394-.932 1.141-.095 2.38-.054 3.505.146 2.525.452 3.529 1.531 2.242 2.416"/>
            <path fill="#FAB418" d="M43.743 18.195c-.714.491-1.983.816-3.401.932-1.074.072-2.218.022-3.265-.165-2.523-.45-3.527-1.531-2.242-2.415.712-.488 1.977-.815 3.393-.931 1.076-.072 2.224-.023 3.274.164 2.524.45 3.528 1.531 2.241 2.415"/>
            <path fill="#F9E54B" d="M38.393 19.123c-.318-.007-.635-.033-.952-.067-.316-.038-.63-.092-.942-.158-.313-.068-.62-.157-.921-.27-.299-.116-.594-.252-.858-.447-.131-.098-.253-.213-.35-.352-.097-.137-.165-.307-.158-.484.002-.177.083-.34.181-.473.101-.133.228-.241.362-.333.539-.365 1.165-.545 1.786-.666-.304.088-.607.184-.899.306-.29.12-.575.26-.822.448-.123.095-.238.2-.328.319-.087.12-.15.26-.15.403-.004.142.051.282.14.403.086.12.2.224.323.315.245.186.53.324.82.44.29.117.595.203.9.284.61.157 1.237.259 1.868.332"/>
            <path fill="#EB9522" d="M28.141 11.482L27.723 10.421 27.204 10.819 27.738 11.764zM16.537 16.051L16.119 14.991 16.645 14.783 17.033 15.77z"/>
            <path fill="#EB9522" d="M28.141 11.482c.441 1.122-1.798 3.053-5.002 4.316-3.205 1.26-6.16 1.375-6.603.254-.44-1.123 1.799-3.055 5.003-4.316 3.204-1.262 6.16-1.376 6.602-.254"/>
            <path fill="#FAB418" d="M27.723 10.421c.442 1.122-1.798 3.053-5.002 4.316-3.205 1.26-6.16 1.376-6.603.255-.44-1.123 1.8-3.056 5.003-4.316 3.204-1.262 6.161-1.377 6.602-.255"/>
            <path fill="#F9E54B" d="M25.636 13.243c-.655.469-1.363.864-2.095 1.206-.365.174-.739.328-1.117.47-.377.144-.761.27-1.147.39-.39.109-.781.21-1.179.288-.396.081-.797.145-1.2.178-.403.036-.81.04-1.214.005-.4-.044-.81-.124-1.156-.337.361.183.763.247 1.162.266.398.022.8.006 1.198-.044.795-.091 1.58-.264 2.348-.493.77-.224 1.524-.503 2.26-.821.369-.16.732-.332 1.088-.517.358-.183.708-.382 1.052-.59"/>
            <path fill="#EB9522" d="M26.694 10.827c.212.54-.33 1.308-1.345 2.06-.72.534-1.676 1.059-2.77 1.49-2.636 1.037-5.067 1.13-5.43.209-.201-.512.273-1.227 1.185-1.94.735-.575 1.754-1.147 2.93-1.61 2.635-1.038 5.067-1.132 5.43-.209"/>
            <path fill="#FAB418" d="M26.54 10.944c.202.51-.275 1.228-1.192 1.942-.719.534-1.675 1.06-2.769 1.49-2.636 1.038-5.068 1.132-5.43.21-.202-.511.274-1.227 1.185-1.94.72-.534 1.68-1.061 2.776-1.493 2.636-1.039 5.068-1.133 5.43-.21"/>
            <path fill="#F9E54B" d="M23.84 13.81c-.3.17-.61.321-.925.466-.316.141-.636.27-.963.387-.65.233-1.322.414-2.007.528-.344.052-.69.088-1.039.093-.348.003-.7-.015-1.042-.114-.168-.05-.335-.12-.48-.228-.147-.103-.26-.263-.297-.44-.037-.181.003-.362.07-.523.066-.161.164-.307.27-.44-.093.143-.178.294-.235.453-.056.161-.08.334-.038.493.042.159.145.295.282.385.137.093.295.154.457.194.327.077.67.101 1.01.09.342-.01.682-.048 1.019-.104.677-.1 1.342-.28 1.996-.49.654-.21 1.294-.463 1.922-.75"/>
            <path fill="#EB9522" d="M48.261 7.247L48.07 6.123 47.48 6.406 47.809 7.44zM35.966 9.336L35.774 8.212 36.333 8.118 36.509 9.163z"/>
            <path fill="#EB9522" d="M48.261 7.247c.203 1.188-2.387 2.62-5.782 3.196-3.395.577-6.31.082-6.513-1.107-.202-1.188 2.387-2.619 5.783-3.196 3.394-.577 6.31-.081 6.512 1.107"/>
            <path fill="#FAB418" d="M36.567 6.872c1.68-1.312 5.44-2.241 8.397-2.078 2.958.163 3.994 1.359 2.313 2.67-1.679 1.31-5.439 2.24-8.396 2.077-2.958-.163-3.993-1.357-2.314-2.67"/>
            <path fill="#F9E54B" d="M45.449 8.456c-.739.325-1.513.565-2.299.751-.393.094-.79.169-1.19.23-.398.063-.8.108-1.203.146-.404.026-.807.046-1.212.041-.405-.001-.81-.023-1.211-.074-.402-.047-.802-.126-1.189-.244-.383-.125-.767-.289-1.063-.568.316.254.698.4 1.083.501.385.102.782.169 1.18.202.797.075 1.603.065 2.401 0 .8-.062 1.594-.18 2.381-.34.393-.081.784-.174 1.17-.283.389-.103.771-.228 1.152-.362"/>
            <path fill="#F9E54B" d="M37.518 6.925c.809-.632 2.203-1.156 3.707-1.455 1.068-.212 2.19-.31 3.2-.255 2.433.135 3.285 1.117 1.902 2.196-.765.597-2.054 1.099-3.465 1.403-1.139.246-2.355.365-3.44.306-2.433-.135-3.287-1.118-1.904-2.195"/>
            <path fill="#FAB418" d="M37.75 6.876c.768-.598 2.06-1.1 3.475-1.406 1.068-.212 2.19-.31 3.2-.255 2.433.135 3.284 1.117 1.902 2.196-.765.597-2.054 1.099-3.465 1.403-1.07.214-2.197.314-3.208.257-2.433-.134-3.286-1.117-1.904-2.195"/>
            <path fill="#EB9522" d="M43.147 5.22c.314-.033.63-.048.947-.052.316-.001.633.016.947.048.318.032.631.097.938.19.303.1.61.23.848.47.117.122.205.28.225.457.021.174-.031.348-.11.492-.161.292-.41.512-.67.695-.524.367-1.113.617-1.713.809.29-.124.578-.253.855-.402.278-.145.548-.306.795-.494.24-.192.48-.402.619-.667.067-.132.108-.277.088-.417-.017-.14-.09-.27-.193-.374-.203-.213-.494-.347-.784-.444-.294-.098-.602-.158-.911-.206-.62-.09-1.25-.111-1.88-.104"/>
            <path fill="#EB9522" d="M39.64 6.935c.258-.1.562-.159.837-.171.063-.11.245-.226.519-.317.498-.167 1.114-.189 1.371-.048.161.088.171.21.105.337.117-.092.243-.183.374-.273.212-.15.442-.298.692-.444.232-.139.436-.277.706-.412.016-.007.089-.012.105-.02l.379.11c-.298.122-.59.25-.86.383-.275.133-.537.27-.783.41l-.338.198c.221-.094.48-.175.775-.225.559-.095 1.043-.013 1.075.182.017.108-.102.228-.307.329.207.039.332.122.318.234-.024.206-.5.432-1.061.507-.48.063-.867.015-1.156-.065.155.127.225.29.01.476-.25.218-.863.381-1.364.365-.274-.008-.462-.069-.53-.157-.272.069-.578.103-.838.081-.474-.036-.612-.243-.31-.457.26-.185.71-.318 1.147-.412-.44.039-.89.041-1.155-.063-.31-.122-.18-.37.288-.548"/>
            <path fill="#F9E54B" d="M39.535 6.955c.259-.1.563-.159.838-.171.063-.11.246-.225.519-.317.499-.167 1.114-.189 1.371-.048.161.088.172.21.105.336.118-.09.245-.183.374-.273.212-.15.443-.297.692-.443.245-.147.524-.29.81-.433l.381.112c-.297.122-.591.25-.861.382-.274.134-.537.27-.783.41l-.337.198c.22-.094.48-.175.774-.225.56-.095 1.043-.014 1.075.182.017.108-.102.228-.306.329.206.04.332.122.318.234-.025.206-.501.432-1.062.507-.48.062-.867.015-1.155-.064.156.126.225.288.009.475-.25.218-.863.381-1.362.365-.276-.008-.463-.069-.532-.157-.271.069-.577.103-.837.082-.475-.037-.613-.244-.31-.458.26-.185.709-.318 1.147-.412-.441.04-.892.04-1.156-.063-.31-.123-.18-.369.288-.548"/>
            <path fill="#EB9522" d="M59.697 10.67L60.084 9.597 59.432 9.553 59.208 10.615zM47.968 6.432L48.355 5.359 48.887 5.552 48.526 6.549z"/>
            <path fill="#EB9522" d="M59.697 10.67c-.409 1.133-3.367 1.104-6.606-.066-3.239-1.17-5.533-3.038-5.123-4.171.41-1.135 3.367-1.104 6.606.065 3.24 1.17 5.532 3.038 5.123 4.172"/>
            <path fill="#FAB418" d="M49.706 4.584c2.106-.313 5.837.729 8.33 2.327 2.493 1.599 2.806 3.15.7 3.463-2.109.312-5.838-.73-8.332-2.327-2.493-1.6-2.806-3.15-.698-3.463"/>
            <path fill="#F9E54B" d="M56.654 10.337c-.802-.08-1.595-.254-2.37-.48-.388-.11-.77-.241-1.149-.386-.378-.14-.75-.299-1.119-.464-.364-.177-.726-.359-1.075-.562-.351-.2-.693-.42-1.017-.66-.328-.24-.636-.505-.915-.799-.272-.297-.526-.63-.645-1.016.15.375.41.69.695.968.286.28.597.533.928.758.658.457 1.362.846 2.09 1.181.725.34 1.475.63 2.239.876.381.126.768.236 1.158.331.39.101.783.182 1.18.253"/>
            <path fill="#F9E54B" d="M50.507 5.097c1.014-.15 2.486.08 3.942.56 1.035.342 2.06.808 2.91 1.355 2.05 1.315 2.31 2.59.575 2.848-.96.143-2.33-.055-3.707-.485-1.113-.347-2.23-.843-3.146-1.43-2.05-1.314-2.309-2.59-.574-2.848"/>
            <path fill="#FAB418" d="M50.732 5.17c.963-.143 2.336.057 3.716.488 1.035.342 2.06.808 2.912 1.355 2.05 1.314 2.308 2.589.575 2.847-.96.143-2.33-.056-3.708-.486-1.038-.342-2.067-.81-2.92-1.356-2.05-1.315-2.308-2.59-.575-2.848"/>
            <path fill="#EB9522" d="M56.245 6.388c.29.124.572.267.85.419.274.156.542.326.8.51.261.184.502.394.722.627.214.236.418.5.506.827.043.163.042.345-.028.507-.067.164-.198.288-.337.376-.286.175-.609.242-.926.275-.637.06-1.273-.013-1.89-.142.314.035.628.067.941.073.314.01.629.002.937-.04.304-.049.615-.112.867-.275.123-.082.23-.187.282-.318.054-.132.054-.28.016-.422-.072-.287-.26-.544-.464-.773-.208-.23-.445-.433-.691-.627-.494-.384-1.033-.712-1.585-1.017"/>
            <path fill="#EB9522" d="M52.347 6.152c.274.04.569.139.813.263.11-.063.326-.075.608-.02.517.1 1.063.385 1.218.634.096.155.046.267-.075.344.147-.02.302-.04.46-.053.257-.026.531-.041.82-.045.27-.006.517-.026.819-.01.017.001.082.032.1.033l.276.283c-.319-.04-.637-.074-.938-.091-.303-.018-.6-.029-.882-.026-.132 0-.263 0-.393.004.239.027.505.084.786.185.534.193.914.502.845.688-.038.104-.201.148-.427.136.16.136.228.27.16.36-.121.166-.648.129-1.173-.082-.448-.182-.762-.414-.974-.625.073.187.054.362-.226.419-.325.066-.938-.093-1.365-.355-.237-.142-.369-.287-.385-.397-.271-.074-.554-.196-.77-.341-.394-.268-.413-.515-.045-.552.318-.032.775.073 1.202.207-.403-.183-.796-.404-.974-.625-.21-.258.024-.409.52-.334"/>
            <path fill="#F9E54B" d="M52.247 6.118c.274.04.568.14.814.263.109-.063.325-.074.607-.02.517.1 1.063.385 1.218.635.096.155.046.266-.075.343.147-.02.302-.039.46-.053.257-.026.532-.041.82-.044.286-.007.598.004.919.023l.277.282c-.32-.039-.638-.073-.939-.09-.304-.019-.6-.03-.882-.027-.133 0-.263.001-.393.005.239.026.504.083.786.184.534.193.914.502.845.688-.038.104-.2.149-.428.136.16.137.23.27.16.36-.121.166-.647.13-1.172-.082-.448-.181-.762-.414-.974-.625.073.187.054.362-.225.42-.325.065-.939-.094-1.367-.356-.236-.142-.368-.287-.384-.397-.271-.073-.554-.195-.77-.341-.394-.268-.413-.515-.044-.551.317-.033.774.072 1.201.206-.403-.182-.796-.404-.974-.625-.209-.258.024-.409.52-.334"/>
            <path fill="#EB9522" d="M59.217 9.503L59.604 8.432 58.951 8.386 58.729 9.448zM47.487 5.266L47.874 4.194 48.406 4.386 48.046 5.383z"/>
            <path fill="#EB9522" d="M59.217 9.503c-.41 1.134-3.367 1.104-6.606-.066-3.24-1.17-5.533-3.037-5.123-4.17.41-1.135 3.367-1.105 6.606.065 3.239 1.171 5.533 3.039 5.123 4.171"/>
            <path fill="#FAB418" d="M49.225 3.418c2.108-.313 5.837.728 8.331 2.327 2.493 1.6 2.806 3.15.698 3.462-2.107.314-5.837-.728-8.33-2.327-2.493-1.599-2.807-3.15-.7-3.462"/>
            <path fill="#F9E54B" d="M56.174 9.17c-.802-.079-1.595-.252-2.37-.477-.388-.112-.77-.244-1.149-.388-.379-.14-.75-.3-1.119-.465-.364-.176-.726-.357-1.075-.56-.351-.201-.694-.42-1.019-.662-.326-.239-.635-.504-.914-.797-.271-.299-.525-.63-.644-1.018.149.376.41.69.695.968.285.28.597.533.928.759.657.458 1.362.845 2.09 1.18.725.342 1.475.63 2.239.878.381.124.767.234 1.158.33.39.102.783.181 1.18.252"/>
            <path fill="#F9E54B" d="M50.026 3.93c1.015-.15 2.486.081 3.943.562 1.033.342 2.06.808 2.91 1.354 2.05 1.316 2.308 2.59.575 2.847-.96.144-2.33-.055-3.708-.485-1.112-.347-2.23-.842-3.145-1.43-2.05-1.314-2.31-2.589-.575-2.847"/>
            <path fill="#FAB418" d="M50.252 4.004c.962-.144 2.335.057 3.716.489 1.035.341 2.06.807 2.912 1.353 2.05 1.315 2.307 2.59.574 2.848-.96.143-2.33-.057-3.708-.486-1.037-.341-2.066-.809-2.92-1.357-2.05-1.314-2.307-2.589-.574-2.847"/>
            <path fill="#EB9522" d="M55.765 5.222c.29.124.572.268.848.42.276.155.544.324.802.51.26.183.501.393.722.625.213.238.418.501.506.828.043.162.041.346-.029.508-.067.162-.198.286-.336.374-.286.175-.61.243-.926.276-.637.06-1.273-.012-1.89-.141.314.034.628.065.941.071.314.01.629.004.936-.039.305-.048.616-.113.868-.276.123-.08.23-.187.282-.318.054-.13.054-.278.016-.421-.072-.286-.26-.544-.464-.773-.209-.23-.445-.433-.691-.628-.495-.382-1.033-.712-1.585-1.016M70.199 11.81L70.514 10.715 69.86 10.714 69.707 11.788z"/>
            <path fill="#EB9522" d="M58.213 8.364L58.528 7.268 59.071 7.425 58.778 8.442z"/>
            <path fill="#EB9522" d="M70.199 11.81c-.333 1.159-3.286 1.326-6.596.374-3.31-.95-5.723-2.661-5.39-3.82.333-1.16 3.286-1.326 6.597-.375 3.309.953 5.722 2.663 5.389 3.82"/>
            <path fill="#FAB418" d="M59.824 6.404c2.08-.454 5.873.338 8.467 1.767 2.594 1.429 3.01 2.954.927 3.408-2.081.452-5.873-.338-8.466-1.767-2.595-1.429-3.01-2.954-.928-3.408"/>
            <path fill="#F9E54B" d="M67.14 11.68c-.806-.026-1.608-.145-2.396-.319-.395-.086-.786-.19-1.172-.31-.387-.113-.768-.248-1.147-.39-.376-.15-.748-.307-1.11-.487-.365-.177-.72-.371-1.061-.59-.341-.218-.668-.462-.965-.737-.29-.278-.567-.592-.712-.972.174.366.456.662.76.92.302.261.63.492.975.695.686.413 1.416.753 2.163 1.04.748.292 1.515.53 2.294.726.388.097.781.182 1.176.252.397.075.794.13 1.195.173"/>
            <path fill="#F9E54B" d="M60.658 6.863c1.001-.218 2.485-.086 3.97.297 1.055.27 2.108.669 2.994 1.157 2.134 1.174 2.476 2.43.764 2.803-.95.207-2.329.099-3.732-.238-1.133-.271-2.281-.691-3.233-1.216-2.134-1.175-2.477-2.43-.763-2.803"/>
            <path fill="#FAB418" d="M60.888 6.92c.95-.208 2.332-.099 3.74.24 1.055.27 2.108.669 2.994 1.157 2.134 1.174 2.477 2.43.764 2.803-.949.206-2.328.098-3.732-.238-1.058-.271-2.116-.67-3.003-1.16-2.134-1.174-2.476-2.43-.763-2.802"/>
            <path fill="#EB9522" d="M66.469 7.768c.297.105.588.229.875.36.286.139.564.29.834.458.271.164.526.358.761.577.23.22.45.47.561.791.054.16.064.342.006.509-.057.166-.18.297-.313.396-.272.193-.591.283-.905.336-.632.102-1.27.073-1.894-.014.315.012.63.023.943.009.314-.01.627-.04.932-.102.3-.07.606-.154.847-.332.118-.09.217-.203.26-.338.046-.134.037-.281-.012-.42-.091-.282-.295-.526-.514-.741-.223-.216-.473-.403-.73-.58-.521-.35-1.08-.643-1.651-.909M68.425 13.968L68.875 12.92 68.226 12.838 67.94 13.884zM56.967 9.044L57.417 7.996 57.936 8.22 57.517 9.193z"/>
            <path fill="#EB9522" d="M68.425 13.968c-.477 1.107-3.426.903-6.59-.456-3.165-1.361-5.344-3.361-4.869-4.468.477-1.108 3.428-.903 6.592.456 3.164 1.36 5.343 3.36 4.867 4.468"/>
            <path fill="#FAB418" d="M58.81 7.301c2.123-.188 5.785 1.073 8.18 2.816 2.394 1.745 2.613 3.31.492 3.499-2.123.187-5.785-1.074-8.179-2.817-2.394-1.744-2.615-3.31-.492-3.497"/>
            <path fill="#F9E54B" d="M65.406 13.455c-.796-.127-1.577-.347-2.337-.618-.382-.133-.755-.288-1.124-.454-.368-.162-.73-.343-1.09-.53-.352-.196-.703-.4-1.04-.624-.338-.221-.666-.46-.977-.719-.312-.258-.604-.542-.865-.852-.253-.312-.488-.658-.583-1.053.126.384.367.713.636 1.008.268.297.564.566.881.811.63.496 1.31.925 2.016 1.304.704.382 1.437.715 2.185 1.007.373.146.752.28 1.136.4.382.123.77.226 1.162.32"/>
            <path fill="#F9E54B" d="M59.58 7.861c1.021-.09 2.477.228 3.902.793 1.012.402 2.008.93 2.826 1.524 1.969 1.435 2.15 2.722.404 2.876-.966.088-2.321-.193-3.672-.704-1.09-.411-2.176-.972-3.054-1.611-1.97-1.434-2.153-2.723-.406-2.878"/>
            <path fill="#FAB418" d="M59.801 7.947c.97-.085 2.327.195 3.682.707 1.01.402 2.007.93 2.825 1.523 1.97 1.435 2.15 2.723.405 2.878-.968.086-2.322-.194-3.673-.704-1.014-.403-2.014-.93-2.833-1.527-1.97-1.434-2.152-2.722-.406-2.877"/>
            <path fill="#EB9522" d="M65.231 9.489c.283.141.555.302.824.469.265.172.523.358.77.558.249.197.476.422.683.667.2.248.387.524.456.856.033.164.02.347-.059.504-.075.159-.214.274-.358.355-.295.156-.622.206-.94.22-.64.022-1.27-.088-1.878-.253.31.053.622.102.934.128.313.028.627.04.938.015.306-.03.621-.075.882-.224.127-.072.241-.172.3-.302.062-.126.072-.273.042-.418-.056-.29-.227-.558-.417-.8-.195-.24-.42-.459-.653-.666-.471-.413-.99-.773-1.524-1.11M41.111 18.191L41.411 17.091 40.756 17.099 40.619 18.175zM29.078 14.912L29.378 13.813 29.922 13.961 29.644 14.984z"/>
            <path fill="#EB9522" d="M41.11 18.191c-.315 1.163-3.266 1.372-6.589.467-3.323-.906-5.76-2.583-5.443-3.745.317-1.164 3.268-1.373 6.59-.467 3.324.905 5.76 2.582 5.443 3.745"/>
            <path fill="#FAB418" d="M41.411 17.09c-.317 1.164-3.268 1.372-6.59.467-3.323-.905-5.76-2.58-5.443-3.744.317-1.163 3.268-1.372 6.59-.467 3.323.905 5.759 2.581 5.443 3.745"/>
            <path fill="#F9E54B" d="M38.05 18.104c-.806-.015-1.608-.123-2.4-.285-.396-.08-.788-.18-1.175-.294-.39-.11-.773-.238-1.154-.372-.377-.146-.752-.299-1.117-.474-.366-.172-.725-.361-1.068-.575-.345-.213-.673-.453-.975-.723-.294-.274-.576-.584-.725-.961.18.362.464.654.77.909.307.256.64.483.986.68.693.403 1.427.732 2.178 1.01.751.28 1.522.508 2.303.693.392.092.785.172 1.18.236.397.07.797.118 1.198.156"/>
            <path fill="#EB9522" d="M40.343 16.8c-.152.56-1.046.852-2.31.847-.896-.002-1.977-.153-3.11-.463-2.734-.743-4.739-2.124-4.478-3.08.145-.53.952-.82 2.11-.845.933-.022 2.092.129 3.312.46 2.731.746 4.737 2.125 4.476 3.081"/>
            <path fill="#FAB418" d="M40.15 16.803c-.144.53-.955.82-2.116.844-.896-.002-1.977-.153-3.112-.463-2.733-.743-4.737-2.124-4.477-3.08.144-.53.953-.82 2.11-.845.898.002 1.981.153 3.12.463 2.73.744 4.736 2.124 4.476 3.08"/>
            <path fill="#F9E54B" d="M36.272 17.483c-.343-.04-.682-.106-1.02-.176-.338-.077-.672-.167-1.003-.267-.662-.202-1.307-.46-1.925-.778-.307-.164-.605-.342-.887-.547-.281-.205-.554-.432-.767-.714-.106-.141-.198-.297-.25-.47-.055-.17-.05-.367.026-.533.08-.165.22-.287.369-.374.15-.09.314-.148.48-.192-.161.058-.32.129-.46.223-.141.094-.264.22-.325.372-.06.152-.06.322-.004.477.052.156.144.3.25.43.217.257.477.48.756.675.278.197.574.369.879.527.603.323 1.242.577 1.891.8.65.222 1.316.403 1.99.547"/>
            <path fill="#EB9522" d="M39.879 3.501L39.434 2.451 38.924 2.862 39.482 3.793zM28.394 8.365L27.95 7.315 28.47 7.096 28.884 8.07z"/>
            <path fill="#EB9522" d="M39.879 3.501c.47 1.11-1.72 3.098-4.891 4.442-3.172 1.343-6.124 1.531-6.594.421-.47-1.11 1.721-3.099 4.891-4.441C36.457 2.58 39.41 2.39 39.88 3.5"/>
            <path fill="#FAB418" d="M39.434 2.451c.47 1.111-1.72 3.1-4.89 4.442-3.172 1.343-6.124 1.531-6.594.422-.47-1.11 1.72-3.098 4.891-4.442 3.172-1.343 6.124-1.531 6.593-.422"/>
            <path fill="#F9E54B" d="M37.42 5.325c-.643.487-1.342.898-2.063 1.26-.36.183-.73.345-1.106.496-.372.155-.754.29-1.137.42-.386.119-.775.232-1.17.319-.394.092-.793.164-1.195.209-.403.046-.81.06-1.215.034-.4-.034-.812-.103-1.163-.307.365.174.77.227 1.168.237.399.012.8-.013 1.196-.073.792-.112 1.573-.307 2.335-.555.764-.243 1.51-.54 2.239-.878.364-.17.723-.35 1.075-.545.354-.19.697-.4 1.036-.617"/>
            <path fill="#EB9522" d="M38.416 2.883c.226.534-.298 1.316-1.292 2.093-.706.554-1.65 1.101-2.732 1.561-2.607 1.105-5.037 1.259-5.424.346-.213-.505.243-1.233 1.138-1.967.72-.595 1.722-1.193 2.886-1.685 2.609-1.105 5.037-1.261 5.424-.348"/>
            <path fill="#FAB418" d="M38.266 3.004c.214.507-.245 1.235-1.142 1.972-.705.553-1.65 1.102-2.732 1.56-2.608 1.105-5.036 1.26-5.424.347-.213-.504.243-1.232 1.138-1.967.706-.554 1.65-1.105 2.736-1.565 2.608-1.105 5.038-1.26 5.424-.347"/>
            <path fill="#F9E54B" d="M35.638 5.937c-.295.179-.602.338-.912.492-.311.148-.63.284-.952.41-.646.25-1.313.447-1.994.58-.343.06-.688.105-1.036.119-.347.011-.701.002-1.043-.089-.172-.045-.34-.11-.487-.214-.15-.1-.267-.258-.31-.435-.04-.178-.005-.36.058-.523.063-.163.156-.31.26-.449-.091.147-.172.3-.224.462-.052.16-.073.336-.026.493.046.157.153.29.292.378.138.09.299.145.462.182.33.068.672.083 1.012.064.341-.016.68-.065 1.016-.129.675-.12 1.334-.315 1.982-.541.649-.227 1.283-.496 1.902-.8"/>
            <path fill="#EB9522" d="M58.997 15.591L58.997 14.452 58.367 14.631 58.518 15.706zM46.525 15.591L46.525 14.452 47.091 14.452 47.091 15.511z"/>
            <path fill="#EB9522" d="M58.997 15.591c0 1.206-2.791 2.182-6.236 2.182-3.444 0-6.235-.976-6.235-2.182s2.791-2.182 6.235-2.182c3.445 0 6.236.976 6.236 2.182"/>
            <path fill="#FAB418" d="M58.997 14.451c0 1.205-2.791 2.182-6.236 2.182-3.444 0-6.235-.977-6.235-2.182 0-1.206 2.791-2.182 6.235-2.182 3.445 0 6.236.976 6.236 2.182"/>
            <path fill="#F9E54B" d="M56.021 16.312c-.782.197-1.585.305-2.391.355-.403.028-.808.034-1.21.027-.405-.004-.808-.027-1.211-.058-.404-.041-.806-.09-1.203-.162-.399-.07-.794-.158-1.182-.275-.388-.113-.768-.259-1.13-.44-.358-.189-.709-.414-.954-.738.27.304.62.51.984.675.363.165.742.298 1.13.398.774.206 1.568.332 2.366.401.8.074 1.602.09 2.405.063.401-.014.802-.04 1.2-.081.402-.038.799-.096 1.196-.165"/>
            <path fill="#EB9522" d="M57.89 14.451c0 .58-.786 1.096-2.006 1.424-.865.233-1.947.37-3.123.37-2.833 0-5.129-.802-5.129-1.794 0-.549.704-1.04 1.814-1.369.895-.266 2.051-.425 3.315-.425 2.833 0 5.13.803 5.13 1.794"/>
            <path fill="#FAB418" d="M57.706 14.504c0 .55-.707 1.042-1.82 1.37-.866.234-1.949.373-3.125.373-2.833 0-5.129-.804-5.129-1.796 0-.548.704-1.04 1.814-1.369.866-.234 1.951-.373 3.13-.373 2.832 0 5.13.804 5.13 1.795"/>
            <path fill="#F9E54B" d="M54.142 16.181c-.341.05-.686.076-1.03.097-.346.015-.693.016-1.039.007-.691-.022-1.382-.102-2.062-.245-.338-.077-.674-.171-.999-.295-.325-.123-.647-.271-.927-.487-.14-.108-.27-.235-.365-.389-.098-.149-.145-.34-.115-.52.032-.18.136-.334.257-.458.122-.127.266-.225.415-.312-.141.1-.276.208-.387.337-.111.129-.198.28-.216.445-.018.161.028.326.122.46.092.138.218.25.354.348.276.192.586.339.907.455.32.116.651.203.985.277.668.154 1.351.23 2.037.274.686.043 1.374.043 2.063.006"/>
            <path fill="#EB9522" d="M52.774 12.309L52.18 11.336 51.736 11.817 52.425 12.656zM42.132 18.812L41.537 17.839 42.019 17.543 42.572 18.449z"/>
            <path fill="#EB9522" d="M52.774 12.309c.628 1.03-1.244 3.318-4.184 5.114-2.938 1.795-5.83 2.418-6.459 1.388-.628-1.028 1.244-3.318 4.184-5.113 2.94-1.796 5.83-2.418 6.459-1.39"/>
            <path fill="#FAB418" d="M52.18 11.336c.628 1.03-1.244 3.319-4.184 5.114-2.94 1.795-5.83 2.418-6.459 1.389-.63-1.028 1.244-3.319 4.183-5.114s5.831-2.418 6.46-1.389"/>
            <path fill="#F9E54B" d="M50.61 14.476c-.564.576-1.194 1.086-1.855 1.55-.33.233-.672.449-1.02.653-.347.208-.703.399-1.063.584-.365.173-.732.342-1.111.487-.376.148-.76.28-1.151.382-.39.105-.792.18-1.195.214-.402.026-.82.017-1.197-.132.386.117.795.111 1.19.063.397-.048.79-.134 1.172-.25.768-.227 1.512-.536 2.23-.893.719-.353 1.414-.758 2.084-1.198.336-.222.663-.454.982-.697.322-.241.631-.499.934-.763"/>
            <path fill="#EB9522" d="M51.235 11.913c.303.495-.099 1.346-.97 2.262-.615.649-1.467 1.332-2.471 1.944-2.417 1.477-4.796 1.99-5.313 1.143-.286-.468.059-1.255.834-2.114.625-.693 1.529-1.434 2.608-2.092 2.416-1.477 4.795-1.988 5.312-1.143"/>
            <path fill="#FAB418" d="M51.104 12.054c.288.47-.058 1.26-.838 2.12-.617.65-1.468 1.333-2.472 1.945-2.417 1.477-4.796 1.99-5.312 1.143-.287-.468.057-1.255.833-2.114.617-.652 1.472-1.337 2.477-1.95 2.417-1.478 4.796-1.99 5.312-1.144"/>
            <path fill="#F9E54B" d="M48.938 15.343c-.265.22-.545.423-.829.62-.287.193-.582.375-.881.548-.602.342-1.234.634-1.888.866-.329.11-.664.205-1.007.27-.342.064-.693.106-1.045.067-.176-.02-.353-.059-.513-.141-.162-.077-.301-.215-.37-.384-.066-.171-.059-.356-.02-.526.038-.17.11-.33.19-.481-.068.157-.124.321-.153.489-.028.167-.022.342.048.49.068.15.193.266.344.331.15.07.317.1.483.113.337.02.678-.017 1.011-.085.334-.068.663-.166.986-.278.65-.216 1.273-.508 1.881-.827.608-.322 1.195-.68 1.763-1.072"/>
            <path fill="#EB9522" d="M63.542 16.875L64.088 15.874 63.449 15.731 63.068 16.747zM52.591 10.908L53.137 9.906 53.633 10.177 53.125 11.108z"/>
            <path fill="#EB9522" d="M63.542 16.875c-.577 1.058-3.495.58-6.52-1.068-3.024-1.647-5.008-3.84-4.431-4.899.578-1.059 3.496-.581 6.52 1.066 3.024 1.649 5.008 3.842 4.431 4.901"/>
            <path fill="#FAB418" d="M64.088 15.874c-.577 1.059-3.496.581-6.52-1.067-3.024-1.648-5.008-3.841-4.431-4.9.576-1.058 3.496-.58 6.52 1.067 3.024 1.648 5.007 3.842 4.43 4.9"/>
            <path fill="#F9E54B" d="M60.585 16.085c-.781-.203-1.538-.493-2.27-.833-.368-.169-.725-.357-1.076-.556-.354-.196-.698-.41-1.036-.63-.334-.23-.663-.464-.978-.719-.317-.251-.622-.518-.906-.806-.287-.286-.552-.596-.782-.928-.224-.335-.425-.7-.484-1.103.09.394.3.745.54 1.063.24.32.51.617.803.89.58.551 1.217 1.042 1.886 1.485.665.446 1.363.846 2.08 1.205.358.182.724.35 1.095.503.368.16.746.299 1.128.429"/>
            <path fill="#EB9522" d="M63.116 15.345c-.278.51-1.215.586-2.443.29-.87-.21-1.888-.605-2.92-1.168-2.486-1.354-4.119-3.16-3.644-4.03.262-.482 1.115-.577 2.248-.335.912.194 2.004.608 3.115 1.212 2.487 1.356 4.119 3.16 3.644 4.031"/>
            <path fill="#FAB418" d="M62.928 15.303c-.263.483-1.12.576-2.254.332-.872-.21-1.889-.606-2.921-1.168-2.487-1.355-4.12-3.16-3.645-4.031.263-.481 1.115-.577 2.248-.334.873.208 1.893.606 2.928 1.17 2.487 1.356 4.119 3.16 3.644 4.03"/>
            <path fill="#F9E54B" d="M58.997 15.07c-.324-.12-.639-.261-.951-.408-.311-.152-.616-.317-.916-.49-.596-.351-1.164-.75-1.693-1.202-.26-.23-.509-.474-.736-.738-.226-.264-.439-.548-.581-.87-.071-.162-.124-.336-.135-.516-.013-.18.036-.369.149-.512.114-.143.279-.229.444-.28.168-.052.341-.072.513-.075-.17.02-.34.05-.5.11-.159.06-.308.153-.402.287-.095.133-.134.3-.114.463.016.164.071.325.145.476.15.3.351.577.579.832.225.256.474.492.732.715.513.455 1.077.849 1.657 1.216.581.365 1.186.695 1.809.993"/>
            <path fill="#EB9522" d="M45.238 9.841L44.794 8.791 44.284 9.201 44.842 10.133zM33.749 14.694L33.306 13.644 33.826 13.424 34.238 14.4z"/>
            <path fill="#EB9522" d="M45.238 9.841c.468 1.11-1.723 3.097-4.896 4.436-3.172 1.34-6.124 1.527-6.593.417-.469-1.11 1.723-3.098 4.896-4.437 3.172-1.34 6.124-1.527 6.593-.416"/>
            <path fill="#FAB418" d="M44.554 9.968c-1.023 1.598-4.316 3.453-7.355 4.14-3.04.691-4.675-.045-3.653-1.642 1.022-1.598 4.316-3.452 7.355-4.142 3.04-.689 4.675.046 3.653 1.644"/>
            <path fill="#F9E54B" d="M42.777 11.663c-.644.486-1.342.897-2.064 1.258-.362.182-.732.345-1.106.495-.373.155-.755.29-1.137.419-.387.118-.777.23-1.172.317-.394.092-.792.165-1.196.208-.402.046-.808.06-1.212.034-.401-.034-.814-.105-1.164-.309.365.175.77.229 1.167.24.4.01.8-.015 1.197-.074.792-.11 1.573-.305 2.335-.552.765-.242 1.512-.54 2.24-.876.365-.169.724-.35 1.075-.545.354-.189.698-.398 1.037-.615"/>
            <path fill="#EB9522" d="M43.577 10.19c-.492.768-1.624 1.61-2.978 2.288-.962.484-2.035.883-3.073 1.119-2.5.567-3.845-.038-3.004-1.352.465-.728 1.504-1.52 2.763-2.178 1.015-.532 2.172-.976 3.287-1.23 2.5-.566 3.846.038 3.005 1.353"/>
            <path fill="#FAB418" d="M43.369 10.297c-.468.729-1.508 1.523-2.77 2.18-.962.484-2.035.884-3.072 1.12-2.5.567-3.846-.038-3.005-1.352.466-.729 1.504-1.521 2.763-2.178.963-.485 2.04-.887 3.08-1.124 2.5-.566 3.845.038 3.004 1.354"/>
            <path fill="#F9E54B" d="M38.801 13.233c-.295.119-.598.216-.903.31-.305.087-.616.159-.93.22-.314.06-.632.096-.953.109-.32.01-.645-.001-.965-.078-.158-.04-.315-.098-.459-.187-.142-.089-.27-.22-.333-.385-.066-.163-.056-.346-.017-.506.04-.163.116-.312.203-.448.355-.546.863-.954 1.387-1.308-.246.2-.488.406-.709.632-.222.224-.43.464-.583.733-.077.134-.142.274-.178.42-.034.145-.038.298.018.43.053.132.157.24.285.317.126.077.272.128.421.164.298.076.614.093.926.086.314-.006.627-.045.94-.087.623-.094 1.24-.245 1.85-.422"/>
            <path fill="#EB9522" d="M36.267 8.995L35.794 7.959 35.296 8.383 35.88 9.299zM24.922 14.174L24.448 13.138 24.963 12.904 25.402 13.866z"/>
            <path fill="#EB9522" d="M36.267 8.995c.5 1.096-1.634 3.145-4.766 4.575-3.132 1.432-6.079 1.702-6.58.605-.5-1.096 1.634-3.145 4.766-4.576 3.134-1.43 6.079-1.7 6.58-.604"/>
            <path fill="#FAB418" d="M24.87 11.638c1.286-1.699 4.68-3.564 7.58-4.166 2.9-.602 4.209.287 2.922 1.986-1.286 1.698-4.68 3.563-7.581 4.166-2.9.602-4.208-.287-2.921-1.986"/>
            <path fill="#F9E54B" d="M33.86 10.887c-.63.503-1.317.935-2.029 1.316-.355.192-.72.366-1.09.526-.37.165-.747.312-1.126.453-.382.128-.768.252-1.161.35-.39.103-.788.187-1.189.241-.4.058-.806.084-1.212.069-.402-.022-.815-.082-1.171-.275.368.165.775.206 1.174.206.398 0 .798-.039 1.193-.108.79-.133 1.565-.35 2.32-.618.756-.265 1.494-.583 2.213-.94.36-.18.713-.37 1.059-.575.348-.2.685-.418 1.019-.645"/>
            <path fill="#F9E54B" d="M25.802 11.444c.619-.817 1.832-1.682 3.209-2.357.977-.48 2.037-.864 3.027-1.07 2.384-.494 3.46.237 2.403 1.633-.586.774-1.704 1.59-2.99 2.248-1.036.53-2.182.958-3.246 1.18-2.385.496-3.461-.236-2.403-1.634"/>
            <path fill="#FAB418" d="M26.014 11.339c.588-.777 1.708-1.594 2.996-2.252.978-.48 2.037-.863 3.027-1.07 2.386-.494 3.462.236 2.403 1.633-.586.774-1.702 1.59-2.989 2.247-.98.482-2.042.868-3.034 1.074-2.385.496-3.461-.236-2.403-1.632"/>
            <path fill="#EB9522" d="M30.804 8.351c.295-.113.597-.209.901-.294.306-.081.616-.148.93-.197.313-.05.633-.068.953-.056.319.02.649.065.94.236.145.086.271.218.335.383.066.163.058.343.021.504-.081.324-.265.598-.468.843-.414.49-.918.882-1.449 1.222.248-.194.494-.391.723-.606.23-.213.45-.438.64-.684.185-.247.361-.512.428-.804.031-.143.033-.295-.022-.426-.053-.13-.155-.237-.282-.31-.252-.155-.567-.208-.873-.229-.31-.018-.622.004-.933.036-.621.071-1.237.214-1.844.382M54.496 13.177L54.933 12.125 54.283 12.049 54.011 13.1zM42.977 8.396L43.415 7.343 43.937 7.56 43.53 8.539z"/>
            <path fill="#EB9522" d="M54.496 13.177c-.461 1.114-3.416.946-6.596-.374-3.18-1.321-5.384-3.293-4.922-4.406.462-1.115 3.415-.946 6.595.374 3.181 1.32 5.385 3.293 4.923 4.406"/>
            <path fill="#FAB418" d="M53.926 12.779c-1.856.393-5.488-.652-8.112-2.334-2.624-1.682-3.247-3.365-1.392-3.757 1.856-.392 5.488.653 8.113 2.335 2.624 1.681 3.246 3.363 1.391 3.756"/>
            <path fill="#F9E54B" d="M51.472 12.703c-.797-.119-1.58-.328-2.346-.59-.382-.128-.758-.278-1.128-.44-.372-.157-.736-.334-1.097-.516-.355-.193-.707-.39-1.047-.611-.341-.216-.673-.45-.987-.707-.315-.254-.61-.534-.875-.84-.258-.31-.496-.653-.598-1.046.133.381.378.708.65 1 .272.292.571.56.892.8.635.487 1.32.909 2.032 1.278.709.374 1.445.696 2.196.98.376.141.756.271 1.14.384.384.12.775.218 1.168.308"/>
            <path fill="#EB9522" d="M53.083 12.238c-.893.19-2.287-.026-3.721-.515-1.019-.347-2.056-.83-2.952-1.405-2.158-1.383-2.672-2.766-1.145-3.089.845-.18 2.139.005 3.49.439 1.092.351 2.22.864 3.182 1.482 2.16 1.383 2.673 2.766 1.146 3.088"/>
            <path fill="#FAB418" d="M52.861 12.165c-.848.18-2.144-.005-3.499-.443-1.019-.346-2.056-.83-2.952-1.404-2.16-1.384-2.672-2.767-1.145-3.09.845-.178 2.139.005 3.49.44 1.022.347 2.064.833 2.96 1.409 2.16 1.383 2.673 2.766 1.146 3.088"/>
            <path fill="#F9E54B" d="M47.563 10.97c-.29-.126-.574-.273-.853-.425-.277-.158-.547-.327-.81-.508-.263-.182-.514-.383-.747-.603-.232-.22-.451-.46-.621-.741-.083-.141-.152-.294-.189-.46-.036-.163-.033-.346.04-.506.07-.163.207-.283.35-.368.145-.085.302-.135.46-.17.64-.13 1.286-.055 1.906.072-.316-.037-.632-.065-.948-.062-.314-.002-.631.018-.932.097-.148.04-.294.093-.424.17-.126.077-.239.18-.293.314-.057.13-.06.28-.025.425.033.145.098.284.177.416.156.265.365.502.589.72.224.22.472.414.721.607.506.378 1.045.713 1.6 1.023"/>
            <path fill="#EB9522" d="M51.725 6.886L52.065 5.799 51.41 5.783 51.234 6.853zM39.819 3.171L40.159 2.084 40.698 2.251 40.383 3.263z"/>
            <path fill="#EB9522" d="M51.725 6.886c-.359 1.151-3.315 1.253-6.603.226-3.287-1.025-5.661-2.79-5.303-3.94.36-1.151 3.315-1.252 6.604-.227 3.287 1.026 5.66 2.79 5.302 3.941"/>
            <g transform="translate(39.054 .673)">
                <mask id="eov8hzkuqe" fill="#fff">
                    <use xlink:href="#epdgpd2pjd"/>
                </mask>
                <path fill="#FAB418" d="M2.42.575c2.091-.407 5.864.47 8.425 1.957 2.562 1.487 2.942 3.022.851 3.427-2.091.407-5.864-.47-8.425-1.956C.708 2.516.328.981 2.42.575" mask="url(#eov8hzkuqe)"/>
            </g>
            <path fill="#F9E54B" d="M48.67 6.688c-.806-.045-1.604-.181-2.39-.372-.392-.094-.78-.21-1.163-.337-.385-.124-.763-.266-1.138-.416-.373-.158-.741-.325-1.1-.513-.36-.184-.712-.387-1.046-.613-.338-.224-.657-.477-.949-.757-.285-.285-.554-.606-.69-.988.166.369.44.67.738.936.297.266.62.505.96.717.677.427 1.398.784 2.14 1.088.74.307 1.503.562 2.276.776.387.108.778.201 1.172.28.392.083.79.146 1.19.199"/>
            <path fill="#F9E54B" d="M42.297 1.725c1.006-.195 2.488-.028 3.962.387 1.05.295 2.094.716 2.969 1.223 2.106 1.224 2.42 2.485.699 2.82-.952.186-2.33.047-3.725-.322-1.127-.296-2.265-.74-3.206-1.288-2.107-1.222-2.42-2.485-.7-2.82"/>
            <path fill="#FAB418" d="M42.525 1.788c.956-.186 2.336-.047 3.735.324 1.048.294 2.094.716 2.967 1.223 2.107 1.224 2.421 2.486.7 2.82-.952.185-2.33.047-3.725-.322-1.05-.294-2.1-.717-2.977-1.225-2.107-1.223-2.42-2.486-.7-2.82"/>
            <path fill="#EB9522" d="M48.086 2.76c.296.113.584.243.868.383.281.143.557.301.823.474.268.173.517.37.748.595.224.226.44.48.543.804.05.16.057.343-.007.506-.06.167-.185.295-.32.39-.278.188-.597.27-.912.318-.634.087-1.273.043-1.894-.059.314.02.63.038.943.03.313-.003.627-.024.932-.08.304-.062.612-.14.856-.314.12-.087.222-.198.268-.33.048-.134.042-.282-.002-.421-.085-.284-.285-.533-.499-.753-.217-.22-.464-.413-.718-.596-.511-.36-1.064-.667-1.629-.946M48.855 8.449L49.056 7.327 48.405 7.392 48.363 8.477zM36.58 6.242L36.781 5.119 37.338 5.219 37.151 6.263z"/>
            <path fill="#EB9522" d="M48.855 8.45c-.214 1.186-3.135 1.652-6.525 1.043-3.388-.609-5.963-2.065-5.75-3.252.214-1.186 3.134-1.652 6.523-1.044 3.39.61 5.965 2.066 5.752 3.252"/>
            <path fill="#FAB418" d="M49.056 7.327c-.214 1.186-3.133 1.653-6.523 1.044-3.39-.61-5.965-2.065-5.751-3.251.213-1.187 3.133-1.654 6.524-1.044 3.389.608 5.964 2.065 5.75 3.251"/>
            <path fill="#F9E54B" d="M45.799 8.632c-.806.055-1.615.018-2.417-.074-.402-.044-.8-.11-1.197-.19-.398-.074-.79-.167-1.182-.27-.388-.112-.775-.229-1.153-.372-.38-.138-.754-.296-1.116-.48-.361-.18-.71-.39-1.035-.633-.318-.247-.623-.532-.806-.894.21.346.52.611.848.837.328.229.678.425 1.042.592.724.341 1.485.604 2.258.814.773.214 1.56.372 2.355.488.397.058.797.103 1.198.131.4.035.801.047 1.205.05"/>
            <path fill="#EB9522" d="M47.967 7.131c-.102.57-.968.94-2.226 1.046-.892.077-1.983.022-3.14-.187-2.788-.5-4.906-1.697-4.73-2.674.096-.54.876-.9 2.027-1.028.928-.102 2.095-.055 3.338.169 2.79.5 4.907 1.698 4.731 2.674"/>
            <path fill="#FAB418" d="M47.776 7.15c-.097.542-.88.902-2.035 1.028-.892.076-1.983.02-3.14-.188-2.788-.501-4.906-1.698-4.73-2.674.096-.54.876-.9 2.027-1.027.894-.078 1.987-.022 3.147.187 2.788.5 4.906 1.698 4.73 2.674"/>
            <path fill="#F9E54B" d="M43.972 8.17c-.345-.012-.69-.046-1.032-.088-.343-.045-.683-.105-1.022-.175-.676-.144-1.344-.345-1.986-.607-.32-.135-.633-.288-.933-.467-.297-.18-.588-.382-.826-.645-.118-.13-.223-.276-.29-.444-.069-.167-.083-.362-.02-.533.064-.172.192-.306.333-.407.142-.102.301-.174.463-.233-.156.074-.307.156-.44.264-.132.105-.243.241-.29.398-.048.157-.032.327.037.475.067.152.17.286.287.407.239.236.518.436.813.606.294.173.604.317.92.448.63.27 1.29.465 1.956.63.668.164 1.345.287 2.03.37"/>
            <path fill="#EB9522" d="M63.755 9.945L64.135 8.87 63.483 8.829 63.266 9.893zM51.998 5.785L52.379 4.71 52.91 4.899 52.558 5.898z"/>
            <path fill="#EB9522" d="M63.755 9.945c-.402 1.136-3.36 1.126-6.606-.024-3.247-1.148-5.552-3-5.15-4.136.402-1.136 3.36-1.127 6.606.022 3.247 1.149 5.552 3.002 5.15 4.138"/>
            <path fill="#FAB418" d="M53.724 3.925c2.105-.327 5.842.69 8.346 2.273 2.504 1.58 2.826 3.13.721 3.457-2.105.327-5.842-.69-8.346-2.272-2.504-1.582-2.827-3.13-.721-3.458"/>
            <path fill="#F9E54B" d="M60.71 9.632c-.803-.074-1.597-.243-2.373-.462-.389-.11-.772-.238-1.15-.38-.38-.138-.754-.295-1.124-.458-.365-.173-.728-.351-1.078-.555-.353-.197-.696-.413-1.022-.653-.329-.237-.64-.5-.92-.792-.274-.296-.53-.626-.652-1.013.152.375.415.688.702.964.287.278.6.53.933.752.66.453 1.368.837 2.097 1.169.728.335 1.48.619 2.245.861.382.12.77.23 1.16.323.39.099.784.176 1.182.244"/>
            <path fill="#F9E54B" d="M54.528 4.433c1.014-.157 2.487.065 3.946.536 1.036.334 2.064.793 2.92 1.333 2.06 1.303 2.325 2.575.593 2.845-.96.149-2.33-.041-3.71-.461-1.116-.34-2.237-.829-3.155-1.407-2.06-1.303-2.326-2.577-.594-2.846"/>
            <path fill="#FAB418" d="M54.754 4.504c.962-.15 2.336.041 3.72.464 1.036.334 2.065.795 2.92 1.334 2.06 1.302 2.325 2.576.592 2.845-.959.15-2.33-.04-3.71-.46-1.04-.336-2.072-.798-2.928-1.338-2.06-1.301-2.326-2.576-.594-2.845"/>
            <path fill="#EB9522" d="M60.275 5.686c.29.122.574.263.852.414.277.154.545.323.805.505s.503.39.725.622c.216.234.421.496.512.824.044.161.044.344-.025.507-.067.163-.197.287-.334.377-.285.175-.608.247-.925.281-.636.064-1.273-.005-1.89-.129.314.033.628.062.941.067.314.007.628-.001.936-.046.305-.05.615-.117.866-.281.122-.083.229-.19.28-.32.053-.132.053-.28.013-.421-.074-.287-.263-.544-.468-.77-.21-.23-.45-.432-.696-.624-.498-.38-1.038-.706-1.592-1.006"/>
        </g>
    </g>
</svg>
