<svg xmlns="http://www.w3.org/2000/svg" xmlns:xlink="http://www.w3.org/1999/xlink" width="200" height="200" viewBox="0 0 200 200">
    <defs>
        <path id="rslh54n4la" d="M0 160L188 160 188 0 0 0z"/>
        <path id="6pad3zdlnc" d="M0 2.315s2.202 1.41 3.626-1.152c0 0-.59-.981-1.415-1.134C2.102.01 1.999 0 1.9 0 .91 0 .397.975 0 2.315"/>
        <path id="wxsj82dvge" d="M0 2.315s2.202 1.41 3.626-1.152c0 0-.59-.981-1.415-1.134C2.102.01 1.999 0 1.9 0 .91 0 .397.975 0 2.315"/>
        <path id="zhcesqmk3g" d="M0 1.882S2.092 3.027 3.445.945c0 0-.56-.798-1.345-.921C1.997.008 1.9 0 1.806 0 .866 0 .376.793 0 1.882"/>
        <path id="d87xzcq6ri" d="M0 1.882S2.092 3.027 3.445.945c0 0-.56-.798-1.345-.921C1.997.008 1.9 0 1.806 0 .866 0 .376.793 0 1.882"/>
    </defs>
    <g fill="none" fill-rule="evenodd">
        <g>
            <g>
                <g>
                    <g transform="translate(-89 -292) translate(89 292) translate(6 20)">
                        <path fill="#DFE0E7" d="M155.513 148.504c0 1.903-12.825 3.445-28.645 3.445s-28.644-1.542-28.644-3.445c0-1.903 12.824-3.446 28.644-3.446 15.82 0 28.645 1.543 28.645 3.446"/>
                        <path fill="#6D4744" d="M153.583 50.597L146.897 148.288 106.84 148.288 100.154 50.597z"/>
                        <path fill="#3D2027" d="M153.138 57.104L100.805 60.117 100.43 54.636 153.307 54.636z"/>
                        <path fill="#8A5C54" d="M155.576 54.636H98.161c-.67 0-1.212-.542-1.212-1.21v-3.64c0-.668.542-1.21 1.212-1.21h57.415c.67 0 1.211.542 1.211 1.21v3.64c0 .668-.542 1.21-1.211 1.21"/>
                        <path fill="#3D2027" d="M147.598 65.765L146.284 88.891 107.452 88.891 106.139 65.765z"/>
                        <path fill="#6D4744" d="M128.807 78.283c0 1.07-.868 1.936-1.939 1.936-1.07 0-1.938-.867-1.938-1.936 0-1.07.868-1.937 1.938-1.937 1.07 0 1.939.867 1.939 1.937"/>
                        <path fill="#3D2027" d="M145.77 94.308L144.572 115.395 109.164 115.395 107.967 94.308z"/>
                        <path fill="#6D4744" d="M128.807 105.618c0 1.07-.868 1.936-1.939 1.936-1.07 0-1.938-.867-1.938-1.936 0-1.07.868-1.936 1.938-1.936 1.07 0 1.939.866 1.939 1.936"/>
                        <path fill="#3D2027" d="M144.193 120.722L143.095 140.049 110.642 140.049 109.544 120.722z"/>
                        <path fill="#6D4744" d="M128.807 130.385c0 1.07-.868 1.937-1.939 1.937-1.07 0-1.938-.868-1.938-1.937 0-1.07.868-1.936 1.938-1.936 1.07 0 1.939.867 1.939 1.936"/>
                        <path fill="#006C60" d="M144.001 14.19c-.591 3.234-1.268 5.74-1.268 5.74s-1.624 3.62-3.073 4.688c-1.01.746-1.937.246-2.162-3.605-.038-.626-.056-1.34-.053-2.15 0 0-.229-1.848-.337-4.385-.24-5.523.085-14.316 4.55-14.476 4.22-.15 3.427 8.249 2.343 14.188"/>
                        <path fill="#00433B" d="M137.108 14.478c.65 1.297 1.726 2.719 3.286 2.598 1.619-.127 2.852-1.628 3.607-2.886-.591 3.234-1.268 5.74-1.268 5.74s-1.624 3.62-3.073 4.688c-.888-.56-1.616-1.861-2.162-3.605l-.39-6.535z"/>
                        <path fill="#00433B" d="M139.86 23.748c-.134 0-.248-.105-.256-.242-.25-3.836 1.04-16.278 1.095-16.806.015-.142.14-.244.284-.23.141.015.245.141.23.283-.014.13-1.34 12.927-1.094 16.72.01.142-.099.265-.241.274h-.017"/>
                        <path fill="#006C60" d="M140.917 31.185h-5.393s-4.912-.365-3.378-4.509c1.535-4.144-.438-5.13-2.807-7.856-2.368-2.729-5.92-8.508-1.973-10.284 3.947-1.777 7.894 2.506 9.48 7.086.489 1.412.65 2.733.826 4.01.093.685.19 1.359.345 2.028.272 1.18.723 2.346 1.642 3.538l.073.094c2.5 3.156 1.185 5.893 1.185 5.893"/>
                        <path fill="#00433B" d="M140.917 31.185h-4.71c-.878-4.18.642-7.608 1.81-9.525.272 1.18.723 2.346 1.642 3.538l.073.094c2.5 3.156 1.185 5.893 1.185 5.893"/>
                        <path fill="#00433B" d="M137.05 31.074c-.14 0-.255-.11-.258-.25-.258-9.267-6.462-17.295-6.524-17.375-.088-.112-.068-.275.044-.362.112-.088.274-.069.362.044.064.081 6.371 8.238 6.633 17.678.004.143-.108.261-.25.265h-.008"/>
                        <path fill="#006C60" d="M153.415 18.82c-4.079 3.319-6.183 3.675-5.658 6.85.174 1.047.32 2.065.318 2.97-.004 1.835-.615 3.208-2.818 3.426-3.288.326-6.051-.88-6.051-.88s-.98-2.341-1.13-5.105c-.14-2.57.438-5.504 3.187-7.261 5.705-3.647 4.653-18.054 12.152-16.7 7.5 1.353 4.079 13.38 0 16.7"/>
                        <path fill="#00433B" d="M148.075 28.64c-.004 1.835-.615 3.208-2.818 3.426-3.288.326-6.051-.88-6.051-.88s-.98-2.341-1.13-5.105c1.272.792 5.224 2.948 9.999 2.56"/>
                        <path fill="#00433B" d="M142.4 30.592c-.13 0-.24-.096-.257-.227-.009-.072-.816-7.279 3.896-11.656 4.559-4.234 6.355-11.175 6.373-11.244.035-.138.175-.222.313-.187s.222.175.187.313c-.018.071-1.849 7.157-6.52 11.496-4.523 4.2-3.744 11.147-3.736 11.216.017.142-.084.27-.225.288l-.032.001"/>
                        <path fill="#ED043F" d="M147.563 48.665L148.881 37.426 148.942 36.903 149.123 35.362 149.185 34.837 149.361 33.336 149.422 32.812 149.793 29.654 130.998 29.654 131.369 32.812 131.43 33.336 131.606 34.837 131.668 35.362 131.849 36.903 131.91 37.426 133.229 48.665z"/>
                        <path fill="#CE101D" d="M149.422 32.812L149.361 33.336 131.43 33.336 131.369 32.812zM149.185 34.837L149.123 35.362 131.668 35.362 131.607 34.837zM148.943 36.903L148.881 37.426 131.91 37.426 131.849 36.903z"/>
                        <path fill="#006C60" d="M119.77 30.686L119.633 32.262 119.562 33.074 119.493 33.839 119.399 34.917 119.354 35.426 119.158 37.685 118.941 40.142 118.932 40.258 118.796 41.815 118.73 42.581 118.687 43.073 118.468 45.583 118.197 48.696 109.538 48.696 109.475 47.983 109.213 44.956 109.052 43.13 109.005 42.581 108.938 41.815 108.792 40.142 108.788 40.092 108.627 38.273 108.381 35.426 108.363 35.221 108.242 33.839 108.205 33.409 108.176 33.074 107.966 30.686z"/>
                        <path fill="#00433B" d="M119.562 33.074L119.493 33.839 108.242 33.839 108.205 33.409 108.176 33.074zM118.796 41.815L118.73 42.581 109.005 42.581 108.938 41.815z"/>
                        <path fill="#FFF" d="M119.354 35.426L119.158 37.685 118.941 40.142 108.792 40.142 108.788 40.093 108.627 38.272 108.381 35.426z"/>
                        <mask id="4yoge3u1zb" fill="#fff">
                            <use xlink:href="#rslh54n4la"/>
                        </mask>
                        <path fill="#008889" d="M107.36 30.686L120.376 30.686 120.376 28.383 107.36 28.383z" mask="url(#4yoge3u1zb)"/>
                        <path fill="#006C60" d="M119.395 28.383H108.34v-1.657c0-.165.134-.298.3-.298h10.455c.165 0 .299.133.299.298v1.657z" mask="url(#4yoge3u1zb)"/>
                        <path fill="#DFE0E7" d="M188 155.401c0 2.54-40.114 4.599-89.597 4.599s-89.597-2.059-89.597-4.599 40.114-4.599 89.597-4.599 89.597 2.06 89.597 4.6" mask="url(#4yoge3u1zb)"/>
                        <path fill="#6D4744" d="M166.251 157.166L161.571 157.166 161.534 157 157.562 139.324 164.064 139.324zM28.387 157.166L23.708 157.166 25.894 139.324 32.396 139.324z" mask="url(#4yoge3u1zb)"/>
                        <path fill="#3D2027" d="M153.289 153.122L148.61 153.122 148.572 152.956 144.6 135.28 151.102 135.28zM41.349 153.122L36.67 153.122 38.856 135.28 45.358 135.28z" mask="url(#4yoge3u1zb)"/>
                        <path fill="#6448BC" d="M37.947 111.881L151.892 111.881 157.063 111.455 166.266 114.014 169.302 119.417 171.579 130.602 168.638 136.29 44.28 137.712 17.431 132.972 18.38 122.45 24.51 113.635 31.852 110.033z" mask="url(#4yoge3u1zb)"/>
                        <path fill="#B3A2DE" d="M169.303 119.423L169.302 119.417 166.266 114.014 157.063 111.455 151.892 111.881 37.947 111.881 31.852 110.033 24.511 113.635 20.485 119.423z" mask="url(#4yoge3u1zb)"/>
                        <path fill="#8A73CC" d="M2.75 103.979l16.336-5.143c1.385-.456 2.164-1.34 2.579-2.827l4.897-19.638c.58-2.289 1.985-3.51 4.27-3.59h7.435L34.46 93.895l-13.163 11.66H7.208l-4.458-1.576zM187.23 103.979l-16.336-5.143c-1.385-.456-2.164-1.34-2.58-2.827l-4.897-19.638c-.58-2.289-1.984-3.51-4.27-3.59h-7.435l3.807 21.114 13.163 11.66h14.09l4.458-1.576z" mask="url(#4yoge3u1zb)"/>
                        <path fill="#8A73CC" d="M25.175 131.183v-11.126c.018-1.582.658-3.004 2.108-3.724l10.664-1.605c1.921-8.389-4.114-15.966-11.171-15.359l-16.063 4.666-.73 10.216 2.372 7.915 5.882 7.82 5.909 2.154 1.029-.957zM164.664 131.183v-11.126c-.018-1.582-.658-3.004-2.108-3.724l-10.664-1.605c-1.921-8.389 4.114-15.966 11.171-15.359l16.063 4.666 1.774 5.287-4.554 9.029s-2.348 9.74-2.348 10.024c0 .284-1.637 6.754-1.637 6.754h-6.146l-1.55-3.946z" mask="url(#4yoge3u1zb)"/>
                        <path fill="#6448BC" d="M157.185 76.635c-.742-2.482-2.492-3.854-5.238-3.854H38.012c-2.747 0-4.496 1.372-5.239 3.854l-5.843 24.67 11.017 13.423h113.945l11.136-13.423-5.843-24.67z" mask="url(#4yoge3u1zb)"/>
                        <path fill="#3F1DAB" d="M186.497 103.848h-5.859c-1.15 0-1.903.052-2.482 1.556l-10.562 23.54c-.925 1.617-2.17 2.505-4.554 2.559H26.918c-2.384-.054-3.629-.942-4.554-2.56l-10.561-23.539c-.58-1.504-1.333-1.556-2.483-1.556H3.46c-1.22 0-1.742.936-1.397 1.94l12.403 33.18c.694 1.706 2.58 3.27 5.194 3.27h150.638c2.615 0 4.5-1.564 5.194-3.27l12.403-33.18c.346-1.004-.176-1.94-1.398-1.94" mask="url(#4yoge3u1zb)"/>
                        <path fill="#F6A706" d="M21.324 118.71c-5.568.5-21.766-16.667-21.315-20.07.247-1.859 3.789-4.615 7.968-6.713 3.47-1.748 7.38-3.042 10.214-3 .042 0 .087.003.131.005 6.299.255 19.577 11.952 21.768 18.67.768 2.943-13.199 10.609-18.766 11.108" mask="url(#4yoge3u1zb)"/>
                        <path fill="#F96F08" d="M21.89 103.169c-4.401-1.834-9.562-10.31-13.911-11.243h-.002c3.47-1.747 7.38-3.04 10.214-2.998.042 0 .087.002.131.004l3.568 14.237z" mask="url(#4yoge3u1zb)"/>
                        <path fill="#F5C704" d="M26.37 73.56c-6.018-1.663-18.748 1.642-20.044 4.82-1.296 3.18 10.05 23.872 15.564 24.79 5.514.918 20.963-2.984 20.963-6.025-.43-7.101-10.465-21.92-16.483-23.585" mask="url(#4yoge3u1zb)"/>
                        <path fill="#B50839" d="M47.562 83.594c3.415.43 5.754 3.835 7.455 4.616 3.446 1.585 10.032 4.357 12.821 4.053 2.79-.304 4.077-.186 4.268 1.24.19 1.426-1.136 2.492-3.669 2.492-2.533 0-14.64-4.137-17.59-6.55-2.951-2.412-3.285-5.85-3.285-5.85" mask="url(#4yoge3u1zb)"/>
                        <path fill="#F8B498" d="M155.647 91.67c4.692 2.164 8.49 4.718 10.882 2.781 2.39-1.937 6.796-7.29 8.994-5.605-1.437 5.558-8.622 15.727-8.622 15.727s-11.758-5.403-14.816-7.75c-3.37-2.587 3.562-5.153 3.562-5.153" mask="url(#4yoge3u1zb)"/>
                        <path fill="#000" d="M155.494 91.932c1.92.888 3.781 1.914 5.741 2.714 1.353.551 2.977 1.1 4.432.617.622-.207 1.108-.607 1.59-1.036.52-.462 1.02-.946 1.523-1.426 1.081-1.033 2.166-2.09 3.393-2.952.85-.598 2.206-1.481 3.197-.741l-.14-.343c-.328 1.26-.839 2.468-1.391 3.643-.651 1.382-1.378 2.729-2.137 4.054-1.301 2.27-2.703 4.482-4.166 6.65-.295.439-.592.876-.897 1.308l.415-.109c-.888-.408-1.772-.826-2.655-1.246-1.914-.911-3.82-1.841-5.709-2.805-1.827-.933-3.662-1.88-5.397-2.977-.607-.384-1.383-.807-1.713-1.473-.142-.288-.148-.557-.052-.852.098-.3.322-.595.555-.837.578-.597 1.309-1.039 2.04-1.425.317-.167.641-.324.97-.47.23-.103.31-.136.55-.23.028-.012.057-.023.085-.033.363-.135.206-.721-.161-.585-1.224.454-2.445 1.074-3.458 1.9-.602.49-1.2 1.151-1.249 1.965-.056.907.667 1.56 1.341 2.04 1.573 1.122 3.325 2.016 5.034 2.908 2.002 1.045 4.028 2.042 6.064 3.019 1.129.54 2.256 1.085 3.397 1.6l.052.025c.16.073.313.036.415-.11.878-1.241 1.713-2.514 2.532-3.795 1.614-2.523 3.163-5.103 4.47-7.8.654-1.352 1.271-2.747 1.651-4.203.037-.143-.029-.26-.14-.343-.924-.69-2.13-.265-3.03.243-1.27.719-2.374 1.737-3.434 2.729-.541.506-1.073 1.021-1.612 1.53-.449.424-.9.887-1.408 1.241-1.214.845-2.768.473-4.057.016-2.191-.776-4.229-1.961-6.334-2.935-.353-.163-.661.36-.307.524" mask="url(#4yoge3u1zb)"/>
                        <path fill="#DB7368" d="M160.033 100.715c1.433-4.495-.326-6.498-.326-6.498l-2.801 4.989s1.9 1.04 3.127 1.51" mask="url(#4yoge3u1zb)"/>
                        <path fill="#000" d="M161.536 102.693c.911 1.732 8.489 4.698 8.489 4.698l8.443-22.501c.275-.732-.096-1.548-.829-1.822l-.985-.37s-2.109.722-6.454 6.145c-2.623 3.274-5.105 4.786-6.51 5.44-.537.25-.726.911-.403 1.407.554.848 1.12 2.2.66 3.82-.788 2.778-2.411 3.183-2.411 3.183" mask="url(#4yoge3u1zb)"/>
                        <path fill="#FFF" d="M165.343 93.124c-.257.718-.475 1.453-.575 2.211-.061.466-.08.953.04 1.412.17.653.682 1.132 1.378 1.112.655-.019 1.295-.393 1.735-.86.736-.78.381-1.882-.092-2.7-.388-.67-.895-1.304-1.452-1.845-.28-.272-.71.156-.43.429.394.382.752.81 1.064 1.261.245.353.475.731.614 1.14.12.348.181.727.04 1.032-.073.158-.182.27-.312.389l-.073.064-.065.054c-.02.015-.115.083-.168.118-.116.075-.24.143-.368.198.061-.026-.026.01-.044.016-.03.01-.062.022-.093.031-.062.02-.124.035-.186.048-.025.005-.105.017-.034.008l-.091.008c-.063.004-.125.002-.188-.001-.077-.004.049.013-.026-.003l-.073-.016-.081-.024c-.08-.024.026.018-.034-.014-.19-.1-.313-.244-.384-.439-.147-.405-.137-.826-.088-1.273.083-.75.318-1.487.572-2.195.131-.368-.455-.527-.586-.161" mask="url(#4yoge3u1zb)"/>
                        <path fill="#B79276" d="M76.355 100.364c8.804-6.903 35.972-22.246 40.344-24.715 4.372-2.469 7.495.085 13.116 2.864 5.621 2.78 31.228 15.241 31.228 15.241l-3.747 6.61-35.6-9.748s-15.927 14.425-24.358 18.62c-8.432 4.193-20.983-8.872-20.983-8.872" mask="url(#4yoge3u1zb)"/>
                        <path fill="#000" d="M76.57 100.578c2.376-1.86 4.912-3.523 7.443-5.162 3.266-2.115 6.58-4.155 9.911-6.167 3.4-2.053 6.821-4.074 10.254-6.073 2.823-1.644 5.654-3.275 8.492-4.893.963-.549 1.927-1.096 2.892-1.642 1.024-.58 2.035-1.22 3.19-1.507 2.207-.549 4.361.314 6.317 1.277 1.834.903 3.625 1.889 5.46 2.791 2.374 1.17 4.753 2.33 7.132 3.493 3.17 1.548 6.34 3.094 9.512 4.64 2.895 1.412 5.792 2.823 8.689 4.233l4.8 2.337.228.111c.35.17.658-.352.306-.524l-3.445-1.677-8.141-3.965c-3.217-1.568-6.433-3.136-9.649-4.706-2.665-1.3-5.33-2.602-7.994-3.909-1.2-.589-2.4-1.174-3.586-1.791-2.145-1.116-4.34-2.49-6.747-2.952-1.92-.37-3.67.094-5.347 1.042-.754.425-1.508.852-2.26 1.28-2.586 1.467-5.165 2.945-7.738 4.434-3.376 1.954-6.742 3.927-10.091 5.928-3.45 2.06-6.884 4.149-10.278 6.3-2.812 1.78-5.614 3.592-8.302 5.557-.498.364-.991.736-1.478 1.116-.307.24.126.667.43.43" mask="url(#4yoge3u1zb)"/>
                        <path fill="#FFF" d="M158.242 98.545c-.596-.218-1.194-.433-1.792-.646-1.552-.556-3.107-1.103-4.664-1.643-2.175-.755-4.355-1.495-6.54-2.219-2.439-.807-4.884-1.594-7.34-2.348-2.367-.726-4.743-1.424-7.137-2.056-1.952-.515-3.919-1-5.911-1.335-.742-.124-1.491-.231-2.243-.273-.514-.029-1.05-.035-1.555.083-.271.063-.52.193-.768.318-.465.236-.916.498-1.36.771-1.111.683-2.182 1.432-3.236 2.2-2.336 1.703-4.596 3.511-6.825 5.352-1.42 1.173-2.827 2.36-4.217 3.57-.07.06-.139.12-.208.182-.294.258.137.685.43.429.985-.865 1.986-1.714 2.99-2.557 2.124-1.784 4.275-3.538 6.483-5.218 1.109-.845 2.232-1.672 3.384-2.456.93-.632 1.879-1.25 2.883-1.758.097-.05.195-.097.294-.143.03-.015.06-.03.091-.042-.063.027-.039.013.006 0 .085-.027.168-.054.255-.073.046-.01.092-.017.137-.025.012-.002.106-.015.05-.008-.05.007.04-.004.056-.006.12-.011.242-.02.364-.024.632-.021 1.267.042 1.893.122 1.767.227 3.653.668 5.43 1.112 2.328.582 4.636 1.24 6.933 1.93 2.463.737 4.914 1.513 7.358 2.311 2.262.74 4.518 1.498 6.768 2.272 1.725.593 3.448 1.195 5.167 1.806.85.302 1.7.606 2.548.915l.114.042c.369.134.526-.452.162-.585" mask="url(#4yoge3u1zb)"/>
                        <path fill="#F8B498" d="M120.756 137.01c-.414 5.147-1.502 9.59 1.142 11.164 2.646 1.574 9.194 3.858 8.37 6.5-5.717.571-17.749-2.657-17.749-2.657s1.017-12.89 2.167-16.57c1.267-4.051 6.07 1.564 6.07 1.564" mask="url(#4yoge3u1zb)"/>
                        <path fill="#000" d="M120.452 137.01c-.165 2.04-.474 4.07-.559 6.116-.06 1.436-.046 3.112.813 4.34.375.536.876.889 1.442 1.2.601.33 1.218.628 1.833.93 1.383.676 2.785 1.343 4.067 2.2.875.586 2.284 1.603 1.927 2.798l.293-.223c-1.302.127-2.62.065-3.92-.046-1.516-.13-3.025-.346-4.526-.6-2.58-.436-5.143-.987-7.685-1.61-.513-.126-1.026-.254-1.537-.39l.223.292c.077-.977.164-1.953.255-2.929.194-2.105.41-4.208.663-6.307.243-2.019.498-4.049.928-6.038.15-.694.279-1.578.789-2.11.472-.494 1.146-.394 1.759-.124 1.288.57 2.32 1.633 3.264 2.648l.06.068c.254.297.683-.133.43-.429-.838-.977-1.843-1.909-2.958-2.557-.663-.386-1.518-.74-2.29-.477-.861.293-1.218 1.165-1.436 1.975-.507 1.878-.744 3.84-.994 5.766-.29 2.24-.528 4.487-.743 6.736-.079.824-.154 1.649-.225 2.474-.036.413-.093.831-.105 1.246 0 .02-.003.039-.005.058-.01.13.102.26.223.292 1.47.394 2.954.739 4.44 1.065 2.933.643 5.898 1.204 8.889 1.503 1.49.15 3.007.247 4.501.1.138-.012.252-.084.293-.222.343-1.15-.504-2.155-1.335-2.839-1.172-.963-2.55-1.662-3.902-2.335-.677-.336-1.358-.662-2.033-1.002-.537-.27-1.142-.53-1.602-.923-1.094-.933-1.212-2.522-1.205-3.86.012-2.27.392-4.527.575-6.785.032-.39-.575-.387-.607 0" mask="url(#4yoge3u1zb)"/>
                        <path fill="#DB7368" d="M113.773 144.245c4.717-.208 5.991-2.548 5.991-2.548l-5.652-.906s-.322 2.14-.34 3.454" mask="url(#4yoge3u1zb)"/>
                        <path fill="#000" d="M112.434 146.336c-1.313 1.453-1.485 9.582-1.485 9.582l24.052.153c.782.005 1.42-.624 1.425-1.406l.007-1.051s-1.405-1.729-7.999-3.932c-3.981-1.33-6.257-3.136-7.357-4.228-.42-.417-1.107-.366-1.461.108-.605.812-1.68 1.81-3.36 1.938-2.882.22-3.822-1.164-3.822-1.164" mask="url(#4yoge3u1zb)"/>
                        <path fill="#FFF" d="M122.254 146.341c-.685.343-1.352.727-1.951 1.206-.372.297-.735.65-.96 1.075-.317.602-.26 1.3.277 1.755.512.433 1.263.608 1.923.538.958-.101 1.477-.948 1.71-1.8.173-.629.248-1.312.222-1.964-.015-.389-.622-.39-.607 0 .018.456-.023.93-.096 1.343-.066.362-.163.735-.322 1.05-.153.3-.368.57-.643.688-.165.072-.305.087-.479.088-.071.001-.143-.001-.214-.006-.038-.002-.076-.006-.113-.01-.085-.007-.006.002-.073-.01-.144-.024-.285-.057-.423-.104-.03-.01-.058-.02-.087-.032-.054-.02-.01-.003 0 .001l-.047-.02c-.06-.029-.12-.06-.178-.094l-.082-.052c-.017-.01-.09-.067-.035-.023-.048-.038-.094-.08-.137-.124l-.059-.067c.038.046.002.004-.012-.02-.02-.03-.095-.178-.068-.11-.02-.05-.034-.102-.047-.156-.009-.033-.01-.079-.005-.019-.003-.038-.005-.076-.005-.114l.005-.083c0 .004-.008.026.006-.03.018-.073.037-.146.064-.217-.005.013.015-.034.036-.074.02-.042.044-.084.068-.124.045-.075.098-.152.144-.21.16-.204.352-.384.55-.55.582-.492 1.265-.867 1.945-1.207.349-.175.042-.698-.307-.524" mask="url(#4yoge3u1zb)"/>
                        <path fill="#E5BF9E" d="M76.355 100.364c11.996-.392 51.217-1.616 51.626 2.058.409 3.673-5.72 39.349-5.72 39.349h-11.03l3.268-28.744S93.92 123.3 69.687 119.8c.28-13.705 6.668-19.436 6.668-19.436" mask="url(#4yoge3u1zb)"/>
                        <path fill="#FFF" d="M113.227 141.77l.385-3.18.918-7.578 1.11-9.158.959-7.916.317-2.62c.05-.407.124-.82.15-1.23 0-.018.004-.037.006-.055.03-.252-.274-.346-.457-.262-.794.367-1.46.636-2.27.962-2.066.833-4.163 1.59-6.28 2.287-3.017.994-6.077 1.86-9.17 2.585-3.666.859-7.38 1.52-11.126 1.914-3.994.42-8.029.542-12.036.235-.497-.038-.994-.083-1.49-.134-.389-.04-.386.566 0 .606 4.026.417 8.09.385 12.12.035 3.825-.332 7.625-.945 11.373-1.771 3.214-.708 6.393-1.572 9.528-2.572 2.265-.723 4.508-1.516 6.718-2.39.671-.265 1.34-.539 2.004-.822.291-.125.626-.23.898-.394.012-.007.025-.012.038-.017l-.457-.262-.385 3.18-.918 7.579-1.11 9.158-.959 7.915-.317 2.62c-.05.408-.124.82-.15 1.23 0 .019-.004.037-.006.056-.046.386.56.383.607 0" mask="url(#4yoge3u1zb)"/>
                        <path fill="#000" d="M76.355 100.667c1.34-.044 2.682-.086 4.023-.127 1.708-.051 3.417-.099 5.125-.142 1.969-.05 3.937-.094 5.906-.13 2.12-.04 4.24-.07 6.362-.09 2.165-.02 4.33-.028 6.495-.02 2.101.007 4.203.03 6.304.075 1.923.042 3.845.104 5.766.2 1.655.083 3.31.19 4.96.352 1.27.126 2.495.272 3.747.529.457.093.913.201 1.357.344.094.03.187.062.28.095.041.016.083.031.124.048.03.011.152.063.073.029.14.06.279.126.41.205.057.035.112.072.166.11-.006-.003-.039-.037.019.016l.066.06c.039.038.115.147.06.062.026.04.05.08.073.122-.038-.068-.007 0 .013.064.007.024-.005-.091-.002-.004l.006.082c.009.129.01.257.009.386-.006.88-.098 1.76-.188 2.634-.138 1.35-.308 2.696-.485 4.042-.22 1.665-.456 3.33-.699 4.992-.272 1.861-.554 3.721-.841 5.58-.294 1.903-.595 3.805-.9 5.707-.287 1.802-.58 3.604-.875 5.405-.255 1.553-.512 3.106-.771 4.658-.197 1.178-.394 2.355-.594 3.532-.11.652-.22 1.303-.332 1.954l-.043.253c-.066.382.52.546.585.161l.178-1.043.484-2.86c.236-1.404.47-2.809.703-4.214.283-1.715.565-3.43.843-5.147.304-1.882.606-3.764.902-5.648.301-1.913.597-3.827.885-5.742.268-1.782.53-3.566.778-5.35.214-1.53.42-3.062.601-4.597.133-1.113.26-2.23.334-3.349.025-.354.044-.71.042-1.065-.001-.256.002-.528-.12-.76-.288-.547-1.01-.801-1.558-.982-.99-.327-2.032-.498-3.061-.644-1.48-.212-2.971-.35-4.462-.457-1.804-.13-3.61-.215-5.417-.278-2.035-.072-4.07-.114-6.106-.139-2.166-.026-4.332-.032-6.497-.025-2.167.007-4.334.028-6.5.058-2.068.03-4.136.068-6.204.114-1.86.041-3.72.088-5.58.14-1.55.043-3.098.09-4.647.14l-1.797.057c-.39.013-.391.62 0 .607" mask="url(#4yoge3u1zb)"/>
                        <path fill="#ED043F" d="M32.811 84.45c-4.036 1.033-10.727.907-9.88 7.665.64 5.103 10.333 22.174 18.036 26.404 7.702 4.23 28.9 3.914 32.06 2.335 3.16-1.579-2.667-17.123 7.921-23.755-10.905-3-23.41-4.248-27.36-7.932-3.951-3.684-4.32-6.784-11.643-6.181-7.323.603-9.134 1.464-9.134 1.464" mask="url(#4yoge3u1zb)"/>
                        <path fill="#B50839" d="M51.903 120.811s5.847-15.853 3.693-19.009c-4.88 3.156-16.421 15.536-16.421 15.536s8.03 2.544 12.728 3.473" mask="url(#4yoge3u1zb)"/>
                        <path fill="#000" d="M41.945 83.29c2.439-.197 5.036-.096 7.018 1.51 1.706 1.381 2.91 3.284 4.567 4.723.77.669 1.673 1.168 2.596 1.588 1.167.53 2.383.948 3.61 1.317 3.058.92 6.195 1.57 9.316 2.233 3.524.748 7.054 1.48 10.541 2.39.426.11.85.224 1.275.34l-.073-.554c-.39.175-.75.439-1.086.697-.948.729-1.755 1.621-2.444 2.596-1.08 1.529-1.848 3.269-2.382 5.058-.792 2.658-1.079 5.456-1.078 8.222 0 .468-.047.986.045 1.447.028.142.059.283.082.426l.025.156c.015.102.005.03.018.133.016.14.03.278.042.418.026.336.034.672.02 1.009-.064 1.593-.71 3.165-2.265 3.838-.892.386-1.869.4-2.822.463-.96.065-1.921.125-2.883.174-2.48.124-4.965.17-7.447.088-2.904-.096-5.807-.359-8.666-.884-2.968-.544-5.908-1.364-8.66-2.615-.668-.304-1.324-.633-1.966-.987-.342-.19-.65.334-.306.524 2.67 1.473 5.573 2.496 8.537 3.196 2.898.685 5.863 1.071 8.832 1.264 2.636.171 5.282.185 7.921.095 1.95-.067 3.907-.167 5.853-.331 1.07-.09 2.126-.409 2.95-1.123.635-.55 1.058-1.309 1.288-2.11.346-1.21.312-2.54.06-3.765-.039-.19-.036-.342-.04-.545-.019-.816-.013-1.633.022-2.449.062-1.43.21-2.855.483-4.26.4-2.078 1.061-4.12 2.115-5.962.67-1.172 1.478-2.236 2.485-3.141.173-.154.35-.303.533-.445l.07-.053.116-.086c.071-.051.144-.101.216-.15.182-.122.37-.232.562-.337l.077-.037c.247-.11.16-.49-.073-.554-3.5-.961-7.05-1.721-10.599-2.473-3.21-.68-6.435-1.333-9.596-2.22-1.282-.359-2.557-.758-3.79-1.263-.969-.397-1.932-.867-2.77-1.5-.909-.688-1.679-1.59-2.431-2.44-.682-.77-1.345-1.565-2.113-2.252-.755-.675-1.608-1.21-2.567-1.545-1.257-.44-2.621-.534-3.943-.501-.426.01-.85.035-1.275.07-.386.03-.39.637 0 .606" mask="url(#4yoge3u1zb)"/>
                        <path fill="#ED043F" d="M23.807 81.46c2.54-2.785 9.897-4.139 13.37-4.29 3.474-.153.4 6.152.4 6.152l-8.74.152-5.03-2.014z" mask="url(#4yoge3u1zb)"/>
                        <path fill="#F8B498" d="M29.976 76.765l2.835 7.685s7.38 2.766 9.103-1.363c-.948-3.05-1.93-5.18-1.93-5.18l-10.008-1.142z" mask="url(#4yoge3u1zb)"/>
                        <path fill="#DB7368" d="M41.945 82.986s-5.936 2.427-9.453-3.539c-1.288-2.815-1.29-3.522-1.29-3.522l9.13 2.931 1.613 4.13z" mask="url(#4yoge3u1zb)"/>
                        <path fill="#ED043F" d="M41.267 84.406s-1.274-4.036-.738-5.696c1.613-5 4.929 4.671 4.929 4.671l-4.191 1.025z" mask="url(#4yoge3u1zb)"/>
                        <path fill="#000" d="M70.022 79.69c-.006.066-.019.133-.035.2l-3.084 13.132c-.21.894-1.105 1.618-2 1.618h-6.77c-.02 0-.042 0-.062-.002-.858-.032-1.382-.742-1.178-1.616L59.98 79.89c.21-.893 1.105-1.617 2-1.617h6.769c.825 0 1.362.619 1.273 1.417" mask="url(#4yoge3u1zb)"/>
                        <path fill="#000" d="M70.022 79.69c-.006.066-.019.133-.035.2l-3.084 13.132c-.21.894-1.105 1.618-2 1.618h-6.77c-.02 0-.042 0-.062-.002.008-.065.02-.131.037-.2l3.086-13.133c.21-.894 1.105-1.618 2-1.618h6.769c.02 0 .04 0 .059.002" mask="url(#4yoge3u1zb)"/>
                        <path fill="#F8B498" d="M54.94 100.364l2.887-2.074s1.864-.612 4.431-1.082c.282-.051.543-.137.784-.248 1.598-.747 1.496-1.319 1.467-3.223-.022-1.481.32-2.912-.52-3.67-.19-.174-.402-.314-.635-.41 0 0 .948.122 1.406-1.687.254-.996-.446-1.678-1.321-1.137-2.348 1.451-3.375 1.173-4.765 2.182-1.918 1.39-2.355 2.46-3.227 3.312l-4.6 5.366 4.092 2.67z" mask="url(#4yoge3u1zb)"/>
                        <path fill="#000" d="M60.395 90.908c.641-.194 1.279-.404 1.925-.58 1.042-.283 2.24-.821 2.613-1.914.128-.374.195-.792.043-1.168-.148-.365-.456-.612-.768-.834-.319-.226-.622.3-.307.524.2.143.432.31.52.55.102.275-.006.611-.11.869-.192.478-.675.778-1.117 1-.563.281-1.185.43-1.786.612l-1.174.356c-.373.114-.214.7.161.585" mask="url(#4yoge3u1zb)"/>
                        <path fill="#ED043F" d="M24.538 87.062c-4.052 1.67-4.264 6.015-2.454 12.273s7.86 19.423 12.492 19.737c4.632.314 13.98-8.3 22.777-18.972l-5.855-4.081s-11.452 9.416-15.32 10.986c-3.868-3.924-6.282-22.152-11.64-19.943" mask="url(#4yoge3u1zb)"/>
                        <path fill="#ED043F" d="M39.377 85.559c-6.056-4.463-11.838-7.938-17.653-5.238-5.633 2.615-.002 9.125-.002 9.125s6.416-3.66 8.254-4.173c1.837-.512 9.401.286 9.401.286" mask="url(#4yoge3u1zb)"/>
                        <path fill="#F8B498" d="M72.175 94.284c-.897 1.24-2.925.802-3.797-1.352-.169-.418-1.43-1.407-1.424-1.906-1.504-1.425-.104-2.478-.104-2.478s-.652-1.061.184-2.284c-.446-.473-.318-1.431.136-1.742.454-.31 2.233-1.525 3.796-.812 2.156.982 1.684 1.778 2.009 2.428.325.65.096 6.905-.8 8.146" mask="url(#4yoge3u1zb)"/>
                        <path fill="#000" d="M66.912 86.557c.39-.123.755-.309 1.141-.442.43-.148.866-.215 1.319-.145.162.024.326-.041.373-.212.04-.144-.049-.349-.212-.373-.533-.082-1.058-.046-1.572.122-.412.134-.798.334-1.21.465-.371.117-.213.703.161.585M66.71 88.816c.39-.124.755-.309 1.14-.442.43-.148.866-.215 1.32-.145.161.024.326-.041.373-.212.04-.144-.05-.349-.212-.374-.534-.08-1.059-.045-1.573.123-.411.134-.797.334-1.21.465-.37.117-.212.703.162.585M67.046 91.046l.133-.116.074-.061c.036-.03.005-.008-.012.009.012-.013.03-.023.044-.033.058-.042.118-.081.18-.117.032-.02.066-.038.1-.055.02-.01.132-.058.056-.028.08-.031.162-.06.246-.082.04-.01.082-.02.124-.027.025-.006.052-.01.078-.014-.056.01.008-.001.029-.003.221-.023.474-.011.666.018.157.025.335-.04.374-.211.033-.145-.044-.347-.212-.373-.49-.076-1-.082-1.466.107-.32.13-.588.327-.843.558-.122.11-.112.317 0 .428.121.122.307.11.43 0M24.62 87.354c.123-.05.25-.093.379-.124.164-.039.179-.04.33-.048.27-.012.391.005.655.089.204.065.415.174.638.328.197.136.419.336.615.544 1.027 1.088 1.7 2.544 2.295 3.912.775 1.78 1.41 3.618 2.048 5.45.632 1.816 1.247 3.641 1.973 5.423.564 1.383 1.173 2.825 2.135 3.986.088.105.18.207.275.306.069.07.2.117.296.078 1.077-.44 2.074-1.076 3.046-1.708 1.331-.866 2.624-1.79 3.902-2.73 2.389-1.757 4.729-3.582 7.04-5.439.49-.394.98-.788 1.466-1.188l-.368.048 5.12 3.567.735.513-.061-.476c-.518.651-1.052 1.29-1.588 1.926-1.32 1.567-2.674 3.105-4.062 4.612-1.755 1.905-3.566 3.763-5.465 5.527-1.83 1.7-3.742 3.342-5.836 4.713-.865.567-1.767 1.094-2.72 1.498-.749.318-1.579.573-2.348.613-.182.01-.363.008-.544-.006-.39-.028-.389.579 0 .607 1.806.13 3.613-.784 5.116-1.684 2.121-1.27 4.05-2.863 5.885-4.511 1.967-1.767 3.834-3.645 5.641-5.574 1.488-1.589 2.935-3.216 4.345-4.873.67-.787 1.336-1.576 1.977-2.385l.028-.034c.127-.161.112-.356-.062-.477-1.706-1.19-3.412-2.378-5.119-3.567l-.735-.513c-.118-.082-.27-.034-.368.047-1.342 1.103-2.703 2.184-4.072 3.254-2.518 1.968-5.066 3.914-7.727 5.688-.627.418-1.261.825-1.912 1.205-.466.271-1.037.582-1.476.762.099.025.197.052.296.078-.96-.98-1.571-2.391-2.107-3.668-.748-1.782-1.369-3.616-2.003-5.44-.654-1.886-1.309-3.775-2.089-5.613-.62-1.462-1.314-2.97-2.367-4.178-.75-.862-1.793-1.525-2.976-1.25-.134.031-.265.075-.393.127-.358.145-.201.732.161.585" mask="url(#4yoge3u1zb)"/>
                        <path fill="#000" d="M56.525 99.597l1.347-.968c.027-.019.07-.039.09-.064.04-.047-.075.017-.045.016.062-.004.128-.025.189-.037.305-.06.61-.122.914-.186.882-.186 1.764-.38 2.629-.632.352-.102.692-.234 1.04-.35.361-.12.729-.226 1.075-.387.365-.17.698-.424.887-.785.267-.508.232-1.096.14-1.645-.064-.384-.649-.22-.585.162.069.41.104.889-.125 1.258-.155.25-.42.401-.683.513-.34.145-.7.236-1.046.359-.34.12-.678.24-1.027.337-.83.232-1.674.419-2.518.596-.283.06-.566.117-.85.173-.12.023-.222.036-.326.102-.487.308-.944.678-1.412 1.014-.315.226-.012.752.306.524M39.592 85.345c-.699-.75-1.489-1.428-2.291-2.063-1.665-1.317-3.501-2.467-5.521-3.152-1.204-.41-2.48-.634-3.754-.56-.388.021-.39.628 0 .606 2.215-.127 4.36.676 6.251 1.767 1.497.863 2.882 1.921 4.144 3.1.253.236.505.476.741.73.267.287.696-.143.43-.428M41.529 84.253c-.186-.3-.29-.574-.395-.904-.226-.708-.303-1.462-.154-2.194.078-.381-.507-.544-.585-.161-.169.824-.109 1.674.14 2.477.117.372.264.754.47 1.088.204.332.73.027.524-.306" mask="url(#4yoge3u1zb)"/>
                        <path fill="#F6A706" d="M93.516 60.946v9.904c0 1.309-1.063 2.371-2.373 2.371H73.145L67.71 75.17c-.558.2-1.092-.348-.878-.9l2.056-5.303v-8.02c0-1.31 1.062-2.371 2.374-2.371h19.88c1.31 0 2.373 1.062 2.373 2.371" mask="url(#4yoge3u1zb)"/>
                        <path fill="#F5C704" d="M77.88 66.18c0 .947-.768 1.715-1.716 1.715-.949 0-1.717-.768-1.717-1.715 0-.948.768-1.716 1.717-1.716.948 0 1.716.768 1.716 1.716M83.315 66.18c0 .947-.768 1.715-1.717 1.715-.948 0-1.717-.768-1.717-1.715 0-.948.77-1.716 1.717-1.716.949 0 1.717.768 1.717 1.716M88.75 66.18c0 .947-.769 1.715-1.717 1.715-.948 0-1.717-.768-1.717-1.715 0-.948.769-1.716 1.717-1.716.948 0 1.717.768 1.717 1.716" mask="url(#4yoge3u1zb)"/>
                        <path fill="#FFF" d="M41.945 84.098c.057-.002.113.004.17.008.02.002.118.016.035.003.034.005.067.01.1.017.092.017.182.038.272.063.525.146 1.008.43 1.417.79.3.264.57.565.803.891.308.433.536.913.828 1.356.414.627.915 1.201 1.53 1.638.259.184.564.372.877.448.38.092.542-.493.162-.585-.017-.004-.035-.009-.052-.015-.029-.01-.163-.063-.094-.033-.18-.078-.351-.178-.513-.288-.62-.42-1.11-1.024-1.503-1.655-.27-.434-.497-.889-.805-1.3-.252-.337-.53-.653-.851-.928-.451-.386-.967-.695-1.536-.874-.264-.083-.56-.152-.84-.143-.39.013-.391.62 0 .607M37.472 85.59c.057-.003.113.003.17.007.019.002.117.016.035.004l.1.016c.091.017.182.038.271.063.525.146 1.009.43 1.417.79.302.264.571.565.803.891.308.433.536.913.829 1.356.414.627.915 1.201 1.53 1.638.259.184.564.372.877.448.38.092.541-.493.162-.585-.018-.004-.035-.009-.052-.015-.029-.01-.163-.063-.094-.033-.18-.078-.351-.177-.514-.287-.62-.42-1.11-1.025-1.502-1.656-.27-.434-.497-.889-.805-1.3-.252-.337-.531-.653-.852-.928-.45-.386-.966-.695-1.535-.874-.264-.082-.56-.152-.84-.142-.39.012-.391.619 0 .606" mask="url(#4yoge3u1zb)"/>
                        <path fill="#F8B498" d="M38.847 54.681c1.563 3.468 7.244 24.526-1.105 27.404-9.97 3.436-16.185-10.575-18.122-13.74-1.936-3.167-2.803-11.976 5.2-15.556 8.002-3.58 12.465-1.576 14.027 1.892" mask="url(#4yoge3u1zb)"/>
                        <path fill="#DB7368" d="M41.427 70.067c2.077-1.005 3.377-6.159.669-7.81-2.86-1.744-3.136 2.864-3.136 2.864l2.467 4.946z" mask="url(#4yoge3u1zb)"/>
                        <path fill="#000" d="M41.58 70.33c.723-.36 1.244-1.062 1.602-1.765.429-.844.68-1.78.738-2.724.058-.918-.082-1.887-.548-2.692-.44-.76-1.243-1.412-2.125-1.558-1.516-.25-2.203 1.32-2.452 2.544-.05.244-.086.49-.115.736-.016.146-.04.264.018.404.157.382.374.749.558 1.118.622 1.247 1.216 2.514 1.868 3.745l.04.082c.175.35.699.043.525-.306l-1.502-3.012-.833-1.67c-.03-.062-.06-.127-.094-.188-.087-.156.052.026.004.076.033-.034.023-.246.028-.29.012-.102 0-.005.012-.088l.02-.137c.02-.125.044-.25.07-.374.062-.288.14-.574.244-.85.177-.47.484-1.004.948-1.16.646-.218 1.428.25 1.875.716.557.58.804 1.39.853 2.176.061.96-.125 1.948-.507 2.83-.318.733-.796 1.496-1.533 1.862-.35.174-.043.697.306.524" mask="url(#4yoge3u1zb)"/>
                        <path fill="#F8B498" d="M19.62 68.344c-1.936-3.166-2.803-11.975 5.2-15.555 8.002-3.58 11.322-.808 13.623 1.868 2.482 2.884 7.648 24.55-.701 27.428-2.905 1-5.334.768-7.545-.633-1.552-.983-3.036-2.416-3.036-2.416" mask="url(#4yoge3u1zb)"/>
                        <path fill="#000" d="M19.883 68.19c-1.013-1.665-1.333-3.798-1.268-5.729.085-2.535.98-5.03 2.734-6.893 1.094-1.162 2.442-2.005 3.9-2.638 1.721-.75 3.564-1.36 5.448-1.507 1.287-.1 2.582.034 3.787.513.96.38 1.817.985 2.566 1.688.358.335.694.693 1.018 1.062l.188.217c.014.017.07.09.013.015l.056.075c.068.097.133.196.194.297.358.593.613 1.206.851 1.825.744 1.934 1.267 3.958 1.687 5.985.501 2.42.837 4.88.928 7.35.084 2.275-.01 4.615-.653 6.812-.498 1.706-1.404 3.393-3.017 4.246-.623.33-1.332.521-2.025.673-.934.204-1.901.277-2.852.156-1.929-.244-3.533-1.338-4.988-2.56-.367-.307-.73-.623-1.074-.955-.282-.272-.711.157-.43.429 1.108 1.068 2.359 2.11 3.726 2.826 1.727.905 3.662 1.11 5.565.734 1.242-.246 2.449-.652 3.414-1.492.703-.613 1.243-1.404 1.642-2.242.973-2.044 1.255-4.377 1.313-6.616.067-2.573-.192-5.153-.62-7.688-.381-2.265-.902-4.517-1.63-6.697-.465-1.395-.976-2.83-1.968-3.943-.702-.786-1.476-1.515-2.369-2.084-1.026-.654-2.182-1.05-3.388-1.199-1.59-.196-3.217.053-4.75.486-1.858.524-3.755 1.269-5.336 2.396-2.312 1.647-3.849 4.119-4.345 6.91-.394 2.215-.234 4.623.606 6.724.156.39.334.772.552 1.131.203.333.728.029.525-.306" mask="url(#4yoge3u1zb)"/>
                        <path fill="#DB7368" d="M22.467 64.533s1.358-3.05 6.864-3.058c6.662-.01 9.328-.542 10.53-2.787-3.106-1.78-9.913-1.007-9.913-1.007l-5.35 3.345-2.392 2.36.26 1.147z" mask="url(#4yoge3u1zb)"/>
                        <path fill="#F8B498" d="M24.156 75.175s-3.59 1.913-6.327-1.622c-2.513-3.246.2-6.31 2.549-4.613 1.888 1.365 2.813 3.514 2.813 3.514" mask="url(#4yoge3u1zb)"/>
                        <path fill="#000" d="M24.003 74.913c-.043.023-.088.043-.132.064-.095.043-.003.004-.096.04-.072.028-.143.055-.215.08-.404.14-.825.236-1.25.273-1.375.118-2.667-.377-3.652-1.339-1.1-1.074-2.098-2.904-1.176-4.392.29-.469.78-.817 1.338-.872.738-.072 1.352.353 1.88.818.928.816 1.736 1.883 2.229 3.023.154.357.678.048.524-.307-.476-1.1-1.251-2.14-2.119-2.959-.616-.582-1.316-1.117-2.19-1.183-.683-.052-1.366.233-1.837.723-1.29 1.34-.802 3.402.201 4.747 1.015 1.358 2.482 2.31 4.207 2.364.867.027 1.82-.146 2.594-.556.346-.183.04-.707-.306-.524" mask="url(#4yoge3u1zb)"/>
                        <path fill="#DB7368" d="M22.01 74.043c-2.155.783-4.728-2.757-2.837-3.096 1.89-.34 3.124 2.992 2.837 3.096" mask="url(#4yoge3u1zb)"/>
                        <path fill="#000" d="M35.026 67.77c.575 1.037 1.157 2.086 1.522 3.219.161.503.327 1.085.226 1.616-.095.505-.6.872-1.12.796-.388-.056-.716-.387-.88-.68-.19-.34-.715-.035-.524.306.215.383.578.72.986.881.665.265 1.525-.015 1.916-.617.341-.526.28-1.218.159-1.802-.155-.742-.453-1.454-.773-2.138-.301-.644-.643-1.266-.987-1.888-.19-.342-.714-.036-.525.306M30.504 65.39c-2.052-1.002-4.408-.336-5.968 1.24-.55.556.308 1.414.858.858 1.185-1.197 2.968-1.796 4.497-1.05.294.144.656.08.83-.218.157-.266.079-.685-.217-.83M34.77 65.008c.045-.078.093-.152.143-.225.04-.057-.061.067.014-.018l.104-.117c.069-.073.14-.142.215-.209l.106-.092c.135-.118-.09.061.058-.046.17-.122.344-.235.527-.335.099-.054.199-.104.3-.151l.097-.043.127-.05c.2-.073.406-.134.615-.18.058-.013.117-.025.176-.035.014-.003.168-.024.095-.016-.072.009.08-.007.094-.008.058-.004.116-.008.173-.01.094-.002.188 0 .282.005.041.003.168.017.058.002.053.007.106.017.159.029.087.019.17.047.254.072.15.044-.089-.055.047.018l.136.074c.677.392 1.29-.656.612-1.048-.912-.528-2.068-.425-3.023-.072-.945.349-1.912.94-2.417 1.842-.382.682.667 1.295 1.049.613M34.656 78.03s-1.25-1.287-1.461-2.231c1.153.143 3.478-.08 4.927-.826.01 1.408-.341 3.107-1.798 3.32-1.457.213-1.668-.263-1.668-.263" mask="url(#4yoge3u1zb)"/>
                        <path fill="#EF033A" d="M37.875 77.198s-.65-.953-3.943.19c.7.63 1.206.963 2.392.905 1.185-.059 1.551-1.095 1.551-1.095" mask="url(#4yoge3u1zb)"/>
                        <path fill="#FFF" d="M33.39 76.474s2.4.352 4.779-1.067c-.051-.463-.136-.889-.136-.889s-.457.692-2.04 1.045c-1.584.353-2.89.056-2.89.056l.286.855z" mask="url(#4yoge3u1zb)"/>
                        <path fill="#000" d="M37.819 74.304c-.025.024-.052.047-.079.07-.104.088-.064.056-.194.147-.278.194-.579.36-.891.491-1.094.461-2.313.525-3.472.314-.233-.042-.423.136-.373.373.237 1.145.973 2.359 2.1 2.788.876.334 1.986.145 2.7-.461.604-.514.835-1.322.87-2.088.021-.496-.025-1.02-.154-1.5-.1-.377-.687-.217-.585.16.095.358.122.619.133.988.02.608-.066 1.277-.456 1.77-.482.607-1.41.813-2.138.614-.654-.178-1.124-.696-1.442-1.271-.2-.364-.356-.744-.443-1.16l-.373.372c1.28.234 2.61.177 3.822-.326.496-.206 1.013-.474 1.404-.852.281-.272-.148-.701-.43-.43M22.017 73.023c-.14-.4-.333-.788-.552-1.15-.38-.622-.899-1.241-1.615-1.473-.459-.147-.93-.074-1.36.123-.15.068-.187.283-.11.415.09.153.266.177.416.109.049-.023.142-.057.222-.079l.12-.028c.008-.001.07-.01.035-.006-.03.004.05-.004.061-.005.08-.005.16-.003.24.005-.063-.007.04.007.056.01.04.008.08.018.12.03.26.076.496.24.713.455.246.244.38.431.563.728.142.23.268.47.379.717l.037.082.016.038.014.035.02.05.04.105c.054.154.207.257.373.212.15-.041.267-.218.212-.373" mask="url(#4yoge3u1zb)"/>
                        <path fill="#FFF" d="M30.914 69.677s-.61-.866-1.465-1c-1.237-.194-1.836.716-2.288 2.016 0 0 2.279 1.244 3.753-1.016" mask="url(#4yoge3u1zb)"/>
                    </g>
                    <g>
                        <g transform="translate(-89 -292) translate(89 292) translate(6 20) translate(27.537 68.435)">
                            <mask id="brxebu8avd" fill="#fff">
                                <use xlink:href="#6pad3zdlnc"/>
                            </mask>
                            <path fill="#000" d="M1.481 2.307c.156.608.703.953 1.223.771.519-.182.814-.824.658-1.432-.156-.609-.703-.954-1.222-.772-.52.183-.814.824-.659 1.433" mask="url(#brxebu8avd)"/>
                        </g>
                        <g transform="translate(-89 -292) translate(89 292) translate(6 20) translate(27.537 68.435)">
                            <mask id="920vydb2zf" fill="#fff">
                                <use xlink:href="#wxsj82dvge"/>
                            </mask>
                            <path fill="#FFF" d="M1.836 1.757c.044.17.198.268.344.216.146-.05.228-.23.185-.402-.044-.17-.198-.268-.344-.217-.145.052-.228.232-.185.403" mask="url(#920vydb2zf)"/>
                        </g>
                    </g>
                    <g>
                        <path fill="#000" d="M4.4 3.625c-.375-.534-.953-1.023-1.596-1.16-.425-.091-.866-.065-1.264.113-.355.16-.633.442-.857.757-.301.424-.495.923-.664 1.414-.132.38.464.544.595.166.255-.736.65-1.763 1.534-1.87.444-.054.87.107 1.216.382.14.11.269.24.387.374.037.042.073.087.11.131-.006-.007-.031-.043.005.01.097.137.27.202.423.111.134-.08.207-.29.11-.428" transform="translate(-89 -292) translate(89 292) translate(6 20) translate(26.89 66.182)"/>
                        <path fill="#FFF" d="M13.1 1.059S12.48.165 11.61.027c-1.257-.2-1.866.739-2.325 2.08 0 0 2.316 1.283 3.816-1.048" transform="translate(-89 -292) translate(89 292) translate(6 20) translate(26.89 66.182)"/>
                    </g>
                    <g>
                        <g transform="translate(-89 -292) translate(89 292) translate(6 20) translate(35.816 66.178)">
                            <mask id="r03afi27bh" fill="#fff">
                                <use xlink:href="#zhcesqmk3g"/>
                            </mask>
                            <path fill="#000" d="M1.222 1.863c.148.494.668.775 1.161.627.493-.148.773-.67.625-1.164C2.861.832 2.341.551 1.848.7c-.494.149-.774.67-.626 1.164" mask="url(#r03afi27bh)"/>
                        </g>
                        <g transform="translate(-89 -292) translate(89 292) translate(6 20) translate(35.816 66.178)">
                            <mask id="2ire6hp3ej" fill="#fff">
                                <use xlink:href="#d87xzcq6ri"/>
                            </mask>
                            <path fill="#FFF" d="M1.374 1.405c.041.14.187.218.326.176.139-.041.217-.188.176-.327-.042-.138-.188-.217-.326-.175-.139.041-.218.187-.176.326" mask="url(#2ire6hp3ej)"/>
                        </g>
                    </g>
                    <g fill="#000">
                        <path d="M23.957 18.035c-.366-.524-.933-1.002-1.563-1.137-.416-.09-.848-.064-1.238.111-.348.156-.62.433-.84.742-.295.415-.485.905-.65 1.386-.13.373.455.533.583.163.249-.722.636-1.729 1.503-1.834.435-.053.851.106 1.192.375.136.108.262.235.378.366.037.042.072.086.107.13-.005-.008-.03-.043.006.008.094.135.264.199.414.11.131-.078.203-.284.108-.42M21.229 30.17c-.032.047.065-.079.018-.024-.025.03-.051.059-.079.087-.017.018-.035.035-.054.052-.025.023-.117.08-.025.024-.06.037-.116.083-.178.119-.036.02-.073.039-.11.057l-.032.014c.042-.018.052-.022.03-.014l-.06.023c-.047.017-.097.031-.147.043-.02.005-.04.01-.059.013-.022.004-.105.033-.023.006-.099.033-.243.015-.344.007-.026-.002-.05-.004-.076-.008.076.01-.036-.006-.05-.009-.074-.014-.148-.033-.22-.054-.152-.045-.337.054-.373.214-.037.164.049.33.212.377.685.202 1.452.082 1.96-.454.048-.05.093-.106.132-.163.091-.132.028-.346-.108-.42-.155-.082-.317-.03-.414.11M4.544 22.368c-.13.032-.26.091-.377.156-.242.133-.46.334-.591.581-.103.195-.154.406-.162.626-.006.16.143.314.302.306.169-.007.296-.134.303-.306 0-.038.004-.076.008-.114l-.01.082c.009-.07.024-.138.046-.204l.016-.046c.016-.045-.034.075-.01.024.015-.03.03-.06.046-.088.014-.025.029-.049.045-.072l.022-.031c-.064.091-.025.033-.007.011.035-.04.072-.08.113-.115l.03-.026.011-.01c.027-.023-.038.03-.038.03.003.002.059-.043.065-.047.038-.026.076-.05.116-.071.036-.02.073-.038.11-.055.048-.022-.068.028-.04.017l.023-.01.043-.016c.032-.011.064-.022.097-.03.154-.037.26-.224.21-.378-.051-.162-.206-.253-.371-.214M23.096 4.26c.869-.492 1.595-1.673 1.07-2.657-1.095-2.05-4.548-1.629-6.411-1.42C13.099.708-1.12 2.572 2.524 10.617c0 0-2.983 1.394-2.463 4.65.53 3.316 1.826 4.732 1.826 4.732s2.577-.999 4.87 2.796c0 0 .924-2.714-.263-7.135.9-2.995 6.176-3.907 9.425-4.147 4.228-.312 7.9-1.11 9.122-2.791 1.472-2.023.41-3.147-1.945-4.46" transform="translate(-89 -292) translate(89 292) translate(6 20) translate(15.768 49.073)"/>
                    </g>
                </g>
            </g>
        </g>
    </g>
</svg>
