<?xml version="1.0" encoding="UTF-8"?>
<svg width="28px" height="29px" viewBox="0 0 28 29" version="1.1" xmlns="http://www.w3.org/2000/svg" xmlns:xlink="http://www.w3.org/1999/xlink">
    <!-- Generator: Sketch 61.2 (89653) - https://sketch.com -->
    <title>Slice</title>
    <desc>Created with Sketch.</desc>
    <g id="Page-1" stroke="none" stroke-width="1" fill="none" fill-rule="evenodd">
        <g id="explain_saving_goals" transform="translate(-1.000000, -1.000000)">
            <polygon id="Path" points="0 0 30 0 30 30 0 30"></polygon>
            <path d="M22.9,7.1 C22.45,7.55 22.413,8.25 22.813,8.75 C24.625,11.025 25.575,14.137 24.725,17.4 C23.737,21.213 20.75,24.063 16.962,24.825 C10.588,26.087 5,21.163 5,15 C5,9.9 8.813,5.7 13.75,5.088 L13.75,7.612 C9.70706198,8.29451101 6.96209069,12.0979133 7.588,16.15 C8.075,19.413 10.788,22.038 14.062,22.438 C18.613,23 22.5,19.45 22.5,15 C22.5,13.437 22.025,12 21.212,10.8 C20.788,10.175 19.875,10.137 19.337,10.662 L19.325,10.675 C18.9,11.1 18.863,11.762 19.188,12.262 C19.9910049,13.4885395 20.2147663,15.0058759 19.8,16.412 C19.293118,18.1470434 17.8870676,19.4719829 16.125,19.875 C14.6396721,20.2179939 13.0790099,19.8646511 11.8862699,18.9153275 C10.69353,17.9660039 9.99902242,16.5244156 10,15 C10,12.675 11.6,10.738 13.75,10.175 L13.75,12.85 C12.9773769,13.2900965 12.5002089,14.1108254 12.5,15 C12.5,16.375 13.625,17.5 15,17.5 C16.375,17.5 17.5,16.375 17.5,15 C17.5,14.075 17,13.275 16.25,12.85 L16.25,3.388 C16.2489026,2.89841645 15.852582,2.50164906 15.363,2.5 C8.663,2.25 2.887,7.575 2.525,14.25 C2.075,22.438 9.287,29.025 17.538,27.25 C22.388,26.212 26.138,22.5 27.225,17.663 C28.112,13.713 26.975,9.963 24.762,7.2 C24.5394282,6.92210231 24.2089128,6.75230431 23.853384,6.73321039 C23.4978552,6.71411647 23.1510551,6.84753876 22.9,7.1 Z" id="Path" fill="#FFFFFF" fill-rule="nonzero"></path>
            <path d="M13.75,7.612 C9.70706198,8.29451101 6.96209069,12.0979133 7.588,16.15 C8.075,19.413 10.788,22.038 14.062,22.438 C18.613,23 22.5,19.45 22.5,15 C22.5,13.437 22.025,12 21.212,10.8 C20.788,10.175 19.875,10.137 19.337,10.662 L19.325,10.675 C18.9,11.1 18.863,11.762 19.188,12.262 C19.9910049,13.4885395 20.2147663,15.0058759 19.8,16.412 C19.293118,18.1470434 17.8870676,19.4719829 16.125,19.875 C14.6396721,20.2179939 13.0790099,19.8646511 11.8862699,18.9153275 C10.69353,17.9660039 9.99902242,16.5244156 10,15 C10,12.675 11.6,10.738 13.75,10.175 L13.75,7.612 Z" id="Path" fill="#FDAF27" fill-rule="nonzero" opacity="0.5"></path>
        </g>
    </g>
</svg>