<?xml version="1.0" encoding="UTF-8"?>
<svg width="28px" height="28px" viewBox="0 0 28 28" version="1.1" xmlns="http://www.w3.org/2000/svg" xmlns:xlink="http://www.w3.org/1999/xlink">
    <!-- Generator: Sketch 61.2 (89653) - https://sketch.com -->
    <title>Slice</title>
    <desc>Created with Sketch.</desc>
    <g id="Page-1" stroke="none" stroke-width="1" fill="none" fill-rule="evenodd">
        <g id="explain_multiple_post" transform="translate(-1.000000, -1.000000)">
            <polygon id="Path" points="0 0 30 0 30 30 0 30"></polygon>
            <path d="M10,23.75 L20,23.75 C20.688,23.75 21.25,23.187 21.25,22.5 L21.25,6.25 C21.25,5.562 20.687,5 20,5 L10,5 C9.312,5 8.75,5.563 8.75,6.25 L8.75,22.5 C8.75,23.188 9.313,23.75 10,23.75 Z" id="Path" fill="#FFFFFF" fill-rule="nonzero"></path>
            <path d="M3.75,21.25 L6.25,21.25 C6.938,21.25 7.5,20.687 7.5,20 L7.5,8.75 C7.5,8.062 6.937,7.5 6.25,7.5 L3.75,7.5 C3.062,7.5 2.5,8.063 2.5,8.75 L2.5,20 C2.5,20.688 3.063,21.25 3.75,21.25 Z M22.5,8.75 L22.5,20 C22.5,20.688 23.063,21.25 23.75,21.25 L26.25,21.25 C26.938,21.25 27.5,20.687 27.5,20 L27.5,8.75 C27.5,8.062 26.937,7.5 26.25,7.5 L23.75,7.5 C23.062,7.5 22.5,8.063 22.5,8.75 Z" id="Shape" fill="#FFFFFF" fill-rule="nonzero" opacity="0.5"></path>
        </g>
    </g>
</svg>