<!-- Generated by IcoMoon.io -->
<svg version="1.1" xmlns="http://www.w3.org/2000/svg" width="32" height="32" viewBox="0 0 32 32">
<title>show</title>
<path fill="#fdaf27" d="M23.333 15.333c0 4.050-3.283 7.333-7.333 7.333s-7.333-3.283-7.333-7.333c0-4.050 3.283-7.333 7.333-7.333s7.333 3.283 7.333 7.333z"></path>
<path fill="#000" d="M30.391 26.078l-27.407-21.914c-0.111-0.091-0.316-0.165-0.458-0.165-0.194 0-0.451 0.126-0.572 0.281l-0.458 0.585c-0.089 0.114-0.161 0.324-0.161 0.469 0 0.199 0.123 0.462 0.275 0.586l27.407 21.914c0.111 0.091 0.316 0.165 0.458 0.165 0.194 0 0.451-0.126 0.572-0.281l0.458-0.585c0.089-0.114 0.161-0.324 0.161-0.469 0-0.199-0.123-0.462-0.275-0.586zM14.047 10.007l7.511 6.006c-0.124-3.416-2.847-6.147-6.218-6.147-0.361 0.001-0.94 0.064-1.293 0.141zM16.844 20.673l-6.178-4.94c0.102 2.809 2.342 5.055 5.114 5.055 0.297-0.001 0.773-0.052 1.064-0.115zM15.996 7.699c5.024 0 9.631 2.864 12.118 7.497-0.507 0.948-1.511 2.353-2.241 3.134l1.922 1.536c0.89-0.974 2.097-2.726 2.694-3.911 0.098-0.198 0.177-0.538 0.177-0.76s-0.079-0.562-0.177-0.76c-2.765-5.509-8.233-9.236-14.494-9.236-1.869 0-3.652 0.364-5.329 0.979l2.364 1.889c0.965-0.224 1.953-0.37 2.965-0.37zM16.003 22.834c1.013 0 2.001-0.146 2.966-0.369l2.364 1.889c-1.677 0.612-3.46 0.979-5.33 0.979-6.262 0-11.73-3.727-14.493-9.237-0.098-0.198-0.177-0.538-0.177-0.76s0.079-0.562 0.177-0.76c0.597-1.185 1.804-2.937 2.694-3.91l1.923 1.536c-0.731 0.782-1.736 2.186-2.244 3.134 2.488 4.634 7.095 7.498 12.12 7.498z"></path>
</svg>
