<svg xmlns="http://www.w3.org/2000/svg" xmlns:xlink="http://www.w3.org/1999/xlink" width="40" height="40" viewBox="0 0 40 40">
    <defs>
        <path id="prefix__a" d="M40 33.516v-4.493c0-.56-.455-1.015-1.016-1.015-.56 0-1.015.455-1.015 1.015v4.493c0 2.455-1.998 4.453-4.453 4.453h-4.493c-.56 0-1.015.454-1.015 1.015 0 .561.455 1.016 1.015 1.016h4.493C37.09 40 40 37.091 40 33.516m-28.008 5.468c0-.56-.455-1.015-1.015-1.015H6.484c-2.455 0-4.453-1.998-4.453-4.453v-4.493c0-.56-.454-1.015-1.015-1.015-.561 0-1.016.455-1.016 1.015v4.493C0 37.09 2.909 40 6.484 40h4.493c.56 0 1.015-.455 1.015-1.016m-9.96-28.007V6.484c0-2.455 1.997-4.453 4.452-4.453h4.493c.56 0 1.015-.454 1.015-1.015C11.992.455 11.537 0 10.977 0H6.484C2.91 0 0 2.909 0 6.484v4.493c0 .56.455 1.015 1.016 1.015.56 0 1.015-.455 1.015-1.015m37.969 0V6.484C40 2.91 37.091 0 33.516 0h-4.493c-.56 0-1.015.455-1.015 1.016 0 .56.455 1.015 1.015 1.015h4.493c2.455 0 4.453 1.998 4.453 4.453v4.493c0 .56.454 1.015 1.015 1.015.561 0 1.016-.455 1.016-1.015M27.009 29.564c.428-.395.454-1.063.059-1.49-.395-.428-1.062-.455-1.49-.06-1.523 1.407-3.504 2.181-5.578 2.181-2.074 0-4.055-.774-5.578-2.18-.428-.396-1.095-.37-1.49.059-.395.427-.369 1.095.06 1.49 1.913 1.767 4.402 2.74 7.008 2.74s5.095-.973 7.009-2.74m-4.9-6.986v-7.5c0-.582-.472-1.055-1.054-1.055-.583 0-1.055.473-1.055 1.055v7.5c0 .323-.263.586-.586.586h-.86c-.582 0-1.054.472-1.054 1.055 0 .582.472 1.054 1.055 1.054h.86c1.485 0 2.694-1.209 2.694-2.695m7.266-4.55V15.02c0-.55-.446-.997-.996-.997s-.996.446-.996.997v3.007c0 .55.446.996.996.996s.996-.446.996-.996m-17.52.996c-.55 0-.996-.446-.996-.996V15.02c0-.55.446-.997.996-.997s.997.446.997.997v3.007c0 .55-.446.996-.997.996"/>
    </defs>
    <g fill="none" fill-rule="evenodd">
        <mask id="prefix__b" fill="#fff">
            <use xlink:href="#prefix__a"/>
        </mask>
        <use fill="#000" xlink:href="#prefix__a"/>
        <g fill="#000" mask="url(#prefix__b)">
            <path d="M0 0H40V40H0z"/>
        </g>
    </g>
</svg>
