<svg width="40" height="40" viewBox="0 0 40 40" xmlns="http://www.w3.org/2000/svg" xmlns:xlink="http://www.w3.org/1999/xlink">
    <defs>
        <circle id="zcgqpdnkpa" cx="20" cy="20" r="20"/>
    </defs>
    <g fill="none" fill-rule="evenodd">
        <mask id="t3y0osf7gb" fill="#fff">
            <use xlink:href="#zcgqpdnkpa"/>
        </mask>
        <use fill="#F1D8A6" xlink:href="#zcgqpdnkpa"/>
        <ellipse fill="#FFF" fill-rule="nonzero" opacity=".73" mask="url(#t3y0osf7gb)" cx="27.195" cy="13.156" rx="6.996" ry="7"/>
        <g mask="url(#t3y0osf7gb)" fill-rule="nonzero">
            <path d="M19.908 28.459c-1.338-.54-2.548-1.334-2.338-5.643h-.123a.484.484 0 0 0-.482.458c-.093 1.351-.093 5.243 2.943 5.185" fill="#FFF"/>
            <path d="m25.794 29.937-.279 9.476s-5.526 3.41-8.475.232c-.157-3.085.03-5.347.03-5.347l8.724-4.36z" fill="#F0BDA8"/>
            <path d="M16.976 39.564s6.212.232 7.422-6.356c.233-2.986 0-3.63 0-3.63l-7.334 5.695-.088 4.291z" fill="#D78A7F"/>
            <path d="M8.606 11.16c-.483 3.647.105 24.727 8.661 25.081 10.214.418 12.081-14.29 12.994-17.757.914-3.468-.732-11.871-9.16-12.967-8.429-1.096-12.012 2-12.495 5.642" fill="#F0BDA8"/>
            <path d="M10.497 26.133c-2.21-.354-4.851-4.767-2.798-7.052 2.17-2.407 3.71 1.786 3.71 1.786l-.912 5.266z" fill="#D78A7F"/>
            <path d="M10.572 25.849c-.71-.122-1.308-.597-1.785-1.114a5.986 5.986 0 0 1-1.298-2.21c-.255-.776-.349-1.629-.075-2.412.215-.62.797-1.386 1.5-1.478.547-.076 1.013.353 1.333.753.32.395.57.859.773 1.317.006.017.064.145.03.064.01.029.022.052.034.08.006.018.023.082.035.094-.058-.04.023-.232-.012-.099a1.926 1.926 0 0 0-.029.18c-.093.528-.186 1.061-.273 1.589-.198 1.148-.396 2.29-.593 3.439-.064.371.5.528.57.156.186-1.084.378-2.169.564-3.253.099-.586.203-1.171.302-1.751.024-.122.07-.29.047-.418-.03-.116-.093-.238-.14-.342-.442-.998-1.256-2.418-2.513-2.4-.837.01-1.564.707-1.948 1.397-.454.812-.5 1.774-.308 2.673.215 1.038.733 2.012 1.413 2.824.564.673 1.338 1.328 2.234 1.48.354.057.512-.505.14-.57" fill="#000"/>
            <path d="M30.256 18.484c.913-3.468-.733-11.871-9.162-12.967-8.428-1.096-12.01 2-12.494 5.642-.482 3.648.105 24.728 8.661 25.076 2.978.122 5.06-.864 6.829-2.679" fill="#F0BDA8"/>
            <path d="M30.54 18.565c.483-1.85.222-3.926-.343-5.724-.744-2.354-2.18-4.477-4.251-5.869-1.21-.812-2.6-1.345-4.026-1.618a21.272 21.272 0 0 0-5.56-.295c-2.472.197-5.136.962-6.742 2.975a6.22 6.22 0 0 0-1.233 2.627c-.122.585-.151 1.194-.18 1.792-.07 1.797-.006 3.607.116 5.399.163 2.354.448 4.703.902 7.017.448 2.279 1.058 4.552 2.053 6.657.797 1.688 1.914 3.393 3.583 4.332.82.459 1.71.667 2.647.69 1.727.035 3.455-.336 4.926-1.252a9.916 9.916 0 0 0 1.856-1.52c.262-.272-.151-.684-.419-.417-1.123 1.148-2.466 2.012-4.043 2.378a9.646 9.646 0 0 1-2.611.214 4.407 4.407 0 0 1-1.181-.214c-1.634-.517-2.821-1.92-3.664-3.376-1.082-1.873-1.745-3.978-2.24-6.071-.535-2.25-.872-4.547-1.093-6.85a58.785 58.785 0 0 1-.274-5.81c.006-1.375-.006-2.714.541-3.967.873-1.995 2.815-3.149 4.869-3.665 1.559-.389 3.187-.458 4.787-.377 1.675.087 3.356.29 4.92.922 2.31.934 4.107 2.755 5.166 4.988.849 1.791 1.274 3.856 1.093 5.84-.029.347-.087.684-.18 1.043-.081.36.489.516.582.151" fill="#000"/>
            <path d="M27.952 26.07s3.862.776 5.421-3.26c1.431-3.706-1.942-5.788-3.652-3.566-1.373 1.786-1.635 4.036-1.635 4.036" fill="#F0BDA8"/>
            <path d="M27.87 26.353c.676.134 1.414.082 2.083-.07 1.46-.324 2.647-1.298 3.345-2.609.773-1.461 1.11-3.433-.064-4.784-.884-1.02-2.385-1.125-3.391-.22-.402.359-.698.84-.96 1.304a9.326 9.326 0 0 0-.675 1.543 8.687 8.687 0 0 0-.419 1.757c-.046.371.547.371.588 0 .006-.058-.012.081 0-.017.017-.093.029-.18.046-.273.059-.302.128-.597.216-.893.261-.887.64-1.746 1.18-2.505.344-.482.797-.888 1.408-.957.494-.058.995.122 1.367.452 1.14 1.01.925 2.737.349 3.984-.576 1.247-1.565 2.221-2.908 2.592a4.808 4.808 0 0 1-1.437.174c-.157-.005-.308-.017-.465-.029-.1-.011.034.006-.012 0-.018 0-.035-.005-.058-.005-.018 0-.03-.006-.047-.006-.355-.076-.517.487-.145.562" fill="#000"/>
            <path d="M29.627 24.428c2.217.128 3.624-3.868 1.769-3.653-1.85.208-2.065 3.636-1.769 3.653" fill="#D78A7F"/>
            <path d="M15.924 21.4c-.344 1.567-.71 3.185-.629 4.797.035.702.157 1.513.675 2.041.547.557 1.565.661 2.216.238.46-.296.797-.83.913-1.357.082-.365-.482-.528-.57-.157a1.686 1.686 0 0 1-.535.928c-.448.383-1.245.337-1.634-.093-.407-.44-.466-1.16-.483-1.734-.023-.794.064-1.583.186-2.366.116-.719.268-1.432.425-2.145.087-.366-.483-.522-.564-.151M20.181 19.58c1.228-1.131 3.037-1.079 4.462-.302.663.36 1.262-.65.593-1.015-1.879-1.02-4.264-1.014-5.886.482-.233.214-.222.609 0 .83.226.237.593.225.831.005M16.08 18.75c-.72-.695-1.78-.991-2.757-1.05-.977-.063-2.088.152-2.786.894-.517.55.314 1.38.832.83l.105-.105c.011-.012.116-.099.058-.052-.058.046.052-.035.064-.04.04-.03.087-.053.134-.082l.14-.07c.098-.046-.036.012.028-.011.093-.035.187-.064.285-.093.094-.023.18-.046.274-.064l.07-.011a4.885 4.885 0 0 1 .797-.017c.052.005.098.005.15.01.007 0 .193.024.082.007.099.011.198.029.291.052.21.04.413.098.61.168.047.017.088.035.129.046.064.024-.058-.029.035.018.093.046.192.093.279.145.07.04.14.087.21.133.121.081-.07-.075.034.03.035.034.07.063.105.092.547.528 1.378-.302.832-.83M19.617 31.938s.663-1.606.512-2.528c-.983.545-3.158 1.177-4.729 1.026.5 1.27 1.425 2.668 2.815 2.337 1.385-.336 1.402-.835 1.402-.835" fill="#000"/>
            <path d="M16.418 32.344s.244-1.09 3.618-1.241c-.401.818-.739 1.299-1.827 1.67-1.087.371-1.791-.429-1.791-.429" fill="#E23058"/>
            <path d="M20.193 30.082s-2.036 1.178-4.682.754c-.123-.435-.198-.846-.198-.846s.663.458 2.21.203c1.553-.25 2.623-.986 2.623-.986l.047.875z" fill="#FFF"/>
            <path d="M15.231 30.274c.471.191 1.024.243 1.53.25 1.256.016 2.472-.401 3.53-1.062-.145-.058-.29-.116-.43-.174.006.029.018.127.006.017a5.106 5.106 0 0 1 .023.968c-.046.61-.238 1.242-.686 1.682-.53.517-1.46.743-2.152.447-.547-.232-.902-.754-1.128-1.282a5.055 5.055 0 0 1-.309-1.09c-.011-.064-.017-.14-.006-.035-.046-.37-.634-.377-.587 0 .128 1.073.628 2.337 1.634 2.865.803.424 1.873.302 2.618-.197.669-.452 1.041-1.195 1.163-1.978a4.77 4.77 0 0 0 0-1.548c-.035-.186-.285-.267-.43-.174-.989.62-2.112 1.01-3.292.98-.437-.011-.908-.064-1.32-.226-.356-.15-.507.418-.164.557M29.924 23.477c.006-.104.018-.209.03-.307 0-.024.005-.041.005-.064.006-.035-.012.07 0-.018.012-.063.017-.121.03-.185.022-.14.051-.273.086-.406.035-.15.082-.296.128-.44.024-.07.053-.14.076-.21.006-.011.029-.063.006-.011a.173.173 0 0 1 .023-.047c.017-.04.035-.08.058-.116.07-.139.151-.272.239-.4.046-.064-.024.03.005-.011.012-.018.03-.035.041-.047.023-.023.047-.052.07-.075.023-.03.052-.052.081-.081.018-.018.093-.076.076-.064-.035.029.03-.023.03-.023.017-.012.04-.03.063-.04.035-.024.07-.041.11-.065.018-.005.03-.017.047-.023.076-.035-.052.018.023-.011.041-.018.082-.03.123-.041.04-.012.087-.023.128-.03.058-.01.017 0 0 0 .029-.005.058-.005.08-.005a.711.711 0 0 1 .158 0c.017 0 .04 0 .058.006.012 0 .105.012.064.006.157.023.314-.04.36-.203.041-.14-.046-.337-.203-.36-.413-.058-.826-.017-1.198.192-.32.18-.57.464-.756.777-.332.545-.495 1.194-.582 1.82-.023.163-.046.331-.052.494-.012.365.576.365.593-.012" fill="#000"/>
            <path d="M25.015 23.558c0 2.047-1.268 3.706-2.827 3.706s-2.827-1.659-2.827-3.706c0-2.047 1.222-3.3 2.78-3.3 1.565 0 2.874 1.253 2.874 3.3" fill="#F0BDA8"/>
            <path d="M20.146 22.85s.326-.974 1.082-1.333c1.094-.522 1.902.156 2.688 1.235-.006 0-1.775 1.786-3.77.099" fill="#FFF"/>
            <path d="m20.588 22.932.018-.052c.006-.018.012-.035.023-.053-.029.07.006-.011.012-.017.064-.14.14-.278.22-.406.216-.33.507-.591.89-.707.908-.273 1.595.562 2.071 1.212.094.127.256.191.402.104.128-.075.198-.273.105-.4-.629-.858-1.501-1.81-2.682-1.496-.791.214-1.367.904-1.623 1.664-.122.354.442.505.564.15" fill="#000"/>
            <path d="M15.569 23.558c0 2.047-1.268 3.706-2.827 3.706s-2.827-1.659-2.827-3.706c0-2.047 1.221-3.3 2.78-3.3 1.565 0 2.874 1.253 2.874 3.3" fill="#F0BDA8"/>
            <path d="M23.433 22.468a.984.984 0 0 1-1.966 0 .984.984 0 0 1 1.966 0" fill="#000"/>
            <path d="M23.142 22.05c0 .151-.122.279-.28.279a.279.279 0 1 1 .28-.278M11.224 22.85s.325-.974 1.082-1.333c1.093-.522 1.902.156 2.687 1.235-.006 0-1.774 1.786-3.77.099" fill="#FFF"/>
            <path d="m11.509 22.932.017-.052c.006-.018.012-.035.023-.053-.029.07.006-.011.012-.017.064-.14.14-.278.221-.406.215-.33.506-.591.89-.707.907-.273 1.594.562 2.07 1.212.094.127.257.191.402.104.128-.075.198-.273.105-.4-.628-.858-1.507-1.81-2.682-1.496-.79.214-1.367.904-1.622 1.664-.128.354.442.505.564.15" fill="#000"/>
            <path d="M14.347 22.468a.984.984 0 0 1-1.966 0 .984.984 0 0 1 1.966 0" fill="#000"/>
            <path d="M14.056 22.05a.279.279 0 1 1-.279-.278c.157.006.28.128.28.278" fill="#FFF"/>
            <path d="M17.256 34.119c.197.127.447.185.68.214.53.058 1.018-.15 1.425-.47.122-.092.105-.319 0-.417-.128-.116-.285-.099-.419 0-.07.058-.197.133-.302.185-.012.006-.082.035-.052.024.023-.012-.047.017-.053.017-.046.017-.099.03-.145.046l-.07.018c-.017.006-.105.017-.023.006-.047.005-.088.011-.134.011h-.122c-.018 0-.041 0-.058-.006-.03-.005-.064-.023 0 0-.059-.023-.134-.023-.198-.04-.03-.006-.053-.018-.082-.03a.083.083 0 0 0-.034-.01c-.053-.018.011 0 .029.01-.041-.028-.093-.04-.134-.069-.128-.08-.332-.029-.402.105a.285.285 0 0 0 .094.406M30.227 21.934h.081c.03 0 .064.006.093.006.012 0 .018 0 .03.006.01 0-.094-.012-.042-.006.024.006.041.006.064.012.047.011.088.017.134.035.023.005.047.017.07.023a.083.083 0 0 0 .035.011c.052.018-.07-.034-.023-.005.052.023.099.046.145.075.012.006.023.017.04.029.041.029-.017-.006-.023-.017.012.023.059.046.076.063a.893.893 0 0 1 .07.076l.017.017-.023-.029c.012.018.023.03.03.047.022.034.04.07.057.104.006.006.006.012.012.017.023.04-.023-.058-.012-.023.006.023.018.04.024.064.052.145.203.255.36.203.146-.047.256-.203.204-.36a1.333 1.333 0 0 0-.623-.754 1.725 1.725 0 0 0-.68-.185c-.04 0-.082-.006-.122 0-.151.011-.303.127-.297.296.012.15.14.301.303.295" fill="#000"/>
            <path d="M8.984 17.133s7.12 1.722 12.523-1.102c3.037-1.67 3.037-3.665 3.037-3.665l-9.557 1.003-6.003 3.764z" fill="#D78A7F"/>
            <path d="M30.244 10.214c-.617-5.567-7.073-6.31-10.592-6.205C11.247 4.259 5.948 9.263 6 17.88c.361-.574.902-1.073 1.234-1.497.191 1.49.506 2.871 1.297 3.95.005-2.297-.227-3.3-.227-3.3 4.548.783 11.889-.748 16.246-4.668.395 1.333.785 3.468 3.658 4.494.396 1.427-.296 6.472-.296 6.472s.703-4.048 2.809-5.11c1.123-.573 2.996-6.726-.477-8.008" fill="#000"/>
        </g>
    </g>
</svg>
