<svg xmlns="http://www.w3.org/2000/svg" xmlns:xlink="http://www.w3.org/1999/xlink" width="30" height="30" viewBox="0 0 30 30">
    <defs>
        <path id="prefix__a" d="M1.6 8.14c.265 0 .52.105.707.293.188.187.293.442.293.707v10.72c0 .552.448 1 1 1h14.629l.001-1.3c0-.335.087-.664.254-.955.167-.29.407-.532.697-.7.29-.168.619-.257.954-.258.335 0 .664.086.955.253l4 2.31c.291.166.533.406.701.696.168.29.257.619.257.954 0 .335-.089.664-.257.954-.168.29-.41.53-.701.696l-4 2.3c-.274.167-.589.257-.91.26-.335.004-.664-.086-.95-.26-.3-.159-.552-.396-.728-.687-.176-.29-.27-.623-.272-.963l-.001-1.3H2.6c-1.105 0-2-.895-2-2V9.14c0-.265.105-.52.293-.707.187-.188.442-.293.707-.293zm18.67 11.58V24L24 21.86l-3.73-2.14zM9.77 3.927c.335 0 .663.091.95.263.3.159.552.396.728.687.176.29.27.623.272.963v1.3H27.4c1.105 0 2 .895 2 2v11.72c0 .265-.105.52-.293.707-.187.188-.442.293-.707.293-.265 0-.52-.105-.707-.293-.188-.187-.293-.442-.293-.707V10.14c0-.552-.448-1-1-1H11.72v1.3c-.003.507-.204.992-.562 1.351-.317.32-.735.516-1.18.56l-.165.008-.168-.003c-.29-.02-.573-.108-.825-.256l-4-2.31c-.291-.166-.533-.406-.701-.696-.168-.29-.257-.619-.257-.954 0-.335.089-.664.257-.954.168-.29.41-.53.701-.696l4-2.3c.287-.172.615-.263.95-.263zm6.758 7.239c.759.314 1.407.846 1.863 1.528.456.683.699 1.485.699 2.306 0 1.1-.437 2.156-1.215 2.934-.779.779-1.834 1.216-2.935 1.216-.82 0-1.623-.243-2.306-.7-.682-.455-1.214-1.104-1.528-1.862-.314-.758-.396-1.593-.236-2.398.16-.805.555-1.544 1.136-2.124.58-.58 1.32-.976 2.124-1.136.805-.16 1.64-.078 2.398.236zM14.94 12.85c-.425 0-.84.126-1.194.362-.354.237-.63.572-.792.965-.163.393-.206.825-.123 1.242.083.417.288.8.589 1.101.3.3.684.506 1.1.589.418.083.85.04 1.243-.123.393-.162.728-.438.965-.791.236-.354.362-.77.362-1.195 0-.282-.056-.562-.164-.823-.108-.26-.266-.498-.466-.697-.2-.2-.436-.358-.697-.466-.261-.108-.54-.164-.823-.164zM9.72 6L6 8.14l3.72 2.14V6z"/>
    </defs>
    <g fill="none" fill-rule="evenodd">
        <path d="M0 0H30V30H0z"/>
        <mask id="prefix__b" fill="#fff">
            <use xlink:href="#prefix__a"/>
        </mask>
        <use fill="#000" fill-rule="nonzero" xlink:href="#prefix__a"/>
        <g fill="#000" mask="url(#prefix__b)">
            <path d="M0 0L30 0 30 30 0 30z"/>
        </g>
    </g>
</svg>
