<svg xmlns="http://www.w3.org/2000/svg" xmlns:xlink="http://www.w3.org/1999/xlink" width="83" height="82" viewBox="0 0 83 82">
    <defs>
        <filter id="4ayndu0mca" width="103.7%" height="103%" x="-1.9%" y="-1.5%" filterUnits="objectBoundingBox">
            <feOffset dy="2" in="SourceAlpha" result="shadowOffsetOuter1"/>
            <feGaussianBlur in="shadowOffsetOuter1" result="shadowBlurOuter1" stdDeviation="2"/>
            <feColorMatrix in="shadowBlurOuter1" result="shadowMatrixOuter1" values="0 0 0 0 0 0 0 0 0 0 0 0 0 0 0 0 0 0 0.5 0"/>
            <feMerge>
                <feMergeNode in="shadowMatrixOuter1"/>
                <feMergeNode in="SourceGraphic"/>
            </feMerge>
        </filter>
        <path id="o3cskf3dub" d="M0 0L64.889 0 64.889 64 0 64z"/>
    </defs>
    <g fill="none" fill-rule="evenodd">
        <g>
            <g filter="url(#4ayndu0mca)" transform="translate(-15 -529) translate(-127)">
                <g>
                    <g>
                        <g transform="translate(151 537) translate(0 1)">
                            <mask id="z20re3wiuc" fill="#fff">
                                <use xlink:href="#o3cskf3dub"/>
                            </mask>
                            <path fill="#FDD8FF" d="M47.856 3.851c11.572 9.27 18.88 31.808 16.625 45.979-4.05 25.484-44.446 10.61-57.362 1.465C-16.9 34.318 25.752-13.862 47.856 3.85" mask="url(#z20re3wiuc)"/>
                        </g>
                        <path fill="#FDD8FF" d="M53.149 50.94H12.216c-2.06 0-3.73-1.67-3.73-3.73V29.086c0-2.06 1.67-3.73 3.73-3.73H53.15c2.06 0 3.73 1.67 3.73 3.73V47.21c0 2.06-1.67 3.73-3.73 3.73" transform="translate(151 537) translate(0 1)"/>
                        <path fill="#FFAD00" d="M53.353 48.913H13.465c-1.946 0-3.525-1.578-3.525-3.526V28.882c0-1.948 1.579-3.527 3.525-3.527h39.888c1.947 0 3.526 1.579 3.526 3.527v16.505c0 1.948-1.579 3.526-3.526 3.526" transform="translate(151 537) translate(0 1)"/>
                        <path fill="#000" d="M53.023 24.585H11.908c-2.363 0-4.286 1.922-4.286 4.285v18.18c0 2.364 1.923 4.287 4.286 4.287h36.775c.357 0 .647-.29.647-.648 0-.356-.29-.646-.647-.646H11.908c-1.65 0-2.992-1.342-2.992-2.993V28.87c0-1.649 1.343-2.992 2.992-2.992h41.115c1.65 0 2.992 1.343 2.992 2.992v18.18c0 1.651-1.342 2.993-2.992 2.993-.357 0-.647.29-.647.646 0 .359.29.648.647.648 2.363 0 4.285-1.923 4.285-4.287V28.87c0-2.363-1.922-4.285-4.285-4.285" transform="translate(151 537) translate(0 1)"/>
                        <path fill="#000" d="M11.908 25.767h41.115c1.71 0 3.103 1.392 3.103 3.103v18.18c0 1.712-1.392 3.104-3.103 3.104-.295 0-.536.24-.536.536 0 .295.24.536.536.536 2.302 0 4.175-1.873 4.175-4.176V28.87c0-2.302-1.873-4.174-4.175-4.174H11.908c-2.302 0-4.175 1.872-4.175 4.174v18.18c0 2.303 1.873 4.176 4.175 4.176h36.775c.295 0 .536-.241.536-.536 0-.296-.24-.536-.536-.536H11.908c-1.711 0-3.103-1.392-3.103-3.104V28.87c0-1.711 1.392-3.103 3.103-3.103m41.115 25.68c-.418 0-.758-.34-.758-.757 0-.418.34-.758.758-.758 1.59 0 2.88-1.293 2.88-2.882V28.87c0-1.588-1.29-2.88-2.88-2.88H11.908c-1.588 0-2.88 1.292-2.88 2.88v18.18c0 1.589 1.292 2.882 2.88 2.882h36.775c.418 0 .758.34.758.758 0 .417-.34.758-.758.758H11.908c-2.425 0-4.397-1.973-4.397-4.398V28.87c0-2.424 1.972-4.396 4.397-4.396h41.115c2.425 0 4.397 1.972 4.397 4.396v18.18c0 2.425-1.972 4.398-4.397 4.398" transform="translate(151 537) translate(0 1)"/>
                        <path fill="#FFF" d="M20.215 29.78H49.34c.175 1.5 1.435 2.668 2.98 2.668v10.677c-1.665 0-3.015 1.349-3.015 3.015H15.627c0-1.666-1.35-3.015-3.016-3.015V32.448c1.547 0 2.806-1.168 2.98-2.667h4.624z" transform="translate(151 537) translate(0 1)"/>
                        <path fill="#231F20" d="M49.304 46.807H15.627c-.368 0-.667-.299-.667-.667 0-1.295-1.053-2.35-2.349-2.35-.368 0-.666-.298-.666-.666V32.45c0-.368.298-.667.666-.667 1.184 0 2.18-.893 2.319-2.078.041-.366.369-.623.74-.585.365.042.627.373.584.74-.19 1.63-1.42 2.907-2.976 3.195v9.465c1.497.274 2.68 1.457 2.955 2.954h32.465c.274-1.497 1.457-2.68 2.955-2.954v-9.465c-1.363-.253-2.476-1.264-2.858-2.606h-28.58c-.368 0-.667-.299-.667-.667 0-.368.299-.667.667-.667h29.124c.338 0 .623.254.663.59.137 1.185 1.134 2.078 2.318 2.078.368 0 .667.299.667.667v10.675c0 .368-.3.667-.667.667-1.295 0-2.35 1.054-2.35 2.35 0 .367-.298.666-.666.666" transform="translate(151 537) translate(0 1)"/>
                        <path fill="#000" d="M21.975 35.085l.02 6.632c0 .521-.301.838-.823.84-.52 0-.813-.313-.815-.834l-.016-5.47-.775.343c-.11.049-.23.085-.376.086-.412 0-.752-.339-.754-.774-.002-.303.157-.571.508-.719l1.816-.827c.146-.05.277-.1.424-.1.435 0 .79.374.79.823M25.457 38.348c.004 1.771.518 2.679 1.5 2.676.981-.004 1.476-.914 1.471-2.685-.006-1.747-.494-2.58-1.488-2.577-1.007.002-1.489.84-1.483 2.586m4.657-.025c.007 2.595-1.2 4.21-3.153 4.216-1.966.006-3.182-1.602-3.19-4.198-.007-2.558 1.175-4.09 3.165-4.096 1.976-.006 3.17 1.52 3.178 4.078M33.164 38.325c.005 1.772.518 2.68 1.5 2.676.982-.002 1.476-.913 1.472-2.685-.006-1.747-.494-2.58-1.488-2.577-1.008.003-1.49.84-1.484 2.586m4.656-.025c.008 2.596-1.2 4.21-3.152 4.216-1.965.006-3.182-1.603-3.19-4.198-.006-2.558 1.176-4.089 3.165-4.095 1.976-.006 3.17 1.519 3.177 4.077M40.871 38.303c.005 1.771.518 2.68 1.5 2.676.982-.003 1.476-.914 1.472-2.685-.006-1.746-.494-2.58-1.488-2.577-1.007.002-1.49.84-1.484 2.586m4.656-.025c.008 2.595-1.199 4.21-3.152 4.216-1.965.006-3.181-1.603-3.19-4.199-.006-2.558 1.176-4.089 3.165-4.095 1.976-.006 3.17 1.52 3.177 4.078" transform="translate(151 537) translate(0 1)"/>
                        <path fill="#FDD8FF" d="M51.08 38.251H14.241c-1.854 0-3.357-1.503-3.357-3.357V18.583c0-1.854 1.503-3.358 3.357-3.358h36.84c1.854 0 3.357 1.504 3.357 3.358v16.31c0 1.855-1.503 3.358-3.358 3.358" transform="translate(151 537) translate(0 1)"/>
                        <path fill="#FFAD00" d="M51.265 36.427h-35.9c-1.752 0-3.173-1.42-3.173-3.173V18.398c0-1.753 1.421-3.173 3.173-3.173h35.9c1.752 0 3.172 1.42 3.172 3.173v14.856c0 1.752-1.42 3.173-3.172 3.173" transform="translate(151 537) translate(0 1)"/>
                        <path fill="#000" d="M50.967 14.53H13.964c-2.127 0-3.857 1.731-3.857 3.859V34.75c0 2.127 1.73 3.857 3.857 3.857H47.06c.322 0 .584-.26.584-.581 0-.323-.262-.583-.584-.583H13.964c-1.485 0-2.693-1.208-2.693-2.693V18.39c0-1.486 1.208-2.693 2.693-2.693h37.003c1.485 0 2.693 1.207 2.693 2.693V34.75c0 1.485-1.208 2.693-2.693 2.693-.322 0-.582.26-.582.583 0 .32.26.581.582.581 2.127 0 3.857-1.73 3.857-3.857V18.39c0-2.128-1.73-3.858-3.857-3.858" transform="translate(151 537) translate(0 1)"/>
                        <path fill="#000" d="M13.964 15.596h37.003c1.54 0 2.794 1.252 2.794 2.793V34.75c0 1.54-1.254 2.792-2.794 2.792-.265 0-.482.218-.482.483 0 .266.217.482.482.482 2.072 0 3.757-1.686 3.757-3.757V18.39c0-2.072-1.685-3.759-3.757-3.759H13.964c-2.072 0-3.758 1.687-3.758 3.759V34.75c0 2.071 1.686 3.757 3.758 3.757h33.097c.266 0 .483-.216.483-.482 0-.265-.217-.483-.483-.483H13.964c-1.54 0-2.793-1.252-2.793-2.792V18.39c0-1.54 1.254-2.793 2.793-2.793m37.003 23.112c-.375 0-.682-.306-.682-.682 0-.376.307-.682.682-.682 1.43 0 2.594-1.163 2.594-2.593V18.39c0-1.43-1.164-2.593-2.594-2.593H13.964c-1.43 0-2.593 1.162-2.593 2.593V34.75c0 1.43 1.164 2.593 2.593 2.593h33.097c.376 0 .682.306.682.682 0 .376-.306.682-.682.682H13.964c-2.182 0-3.957-1.775-3.957-3.957V18.39c0-2.183 1.775-3.959 3.957-3.959h37.003c2.182 0 3.957 1.776 3.957 3.959V34.75c0 2.182-1.775 3.957-3.957 3.957" transform="translate(151 537) translate(0 1)"/>
                        <path fill="#FFF" d="M21.44 19.208h26.212c.157 1.35 1.29 2.4 2.682 2.4v9.61c-1.5 0-2.713 1.215-2.713 2.712H17.31c0-1.497-1.216-2.712-2.714-2.712v-9.61c1.392 0 2.525-1.05 2.682-2.4h4.161z" transform="translate(151 537) translate(0 1)"/>
                        <path fill="#231F20" d="M47.62 34.53H17.311c-.332 0-.6-.268-.6-.6 0-1.165-.948-2.113-2.114-2.113-.331 0-.6-.268-.6-.6v-9.608c0-.332.269-.6.6-.6 1.065 0 1.962-.804 2.086-1.87.039-.33.346-.561.665-.527.33.039.566.337.527.665-.17 1.467-1.278 2.617-2.679 2.877v8.517c1.349.248 2.413 1.313 2.66 2.66h29.219c.248-1.347 1.312-2.412 2.66-2.66v-8.517c-1.228-.227-2.228-1.138-2.573-2.346H21.44c-.33 0-.6-.268-.6-.6 0-.331.27-.6.6-.6h26.212c.304 0 .561.229.596.53.124 1.067 1.021 1.871 2.086 1.871.332 0 .6.268.6.6v9.608c0 .332-.268.6-.6.6-1.165 0-2.114.948-2.114 2.114 0 .331-.268.6-.6.6" transform="translate(151 537) translate(0 1)"/>
                        <path fill="#000" d="M23.024 23.982l.018 5.969c0 .468-.27.753-.74.755-.47 0-.733-.282-.734-.75l-.015-4.922-.697.307c-.098.045-.207.077-.339.078-.37 0-.677-.305-.678-.697 0-.273.141-.513.457-.647l1.635-.744c.131-.045.25-.09.381-.09.392-.001.711.337.712.741M26.158 26.918c.003 1.595.465 2.411 1.35 2.409.883-.003 1.328-.822 1.324-2.417-.006-1.572-.445-2.323-1.34-2.32-.906.003-1.34.756-1.334 2.328m4.19-.022c.007 2.336-1.08 3.788-2.837 3.793-1.768.006-2.863-1.44-2.87-3.776-.006-2.303 1.057-3.681 2.848-3.688 1.779-.005 2.853 1.368 2.86 3.67M33.094 26.898c.004 1.595.466 2.412 1.35 2.408.884-.003 1.329-.822 1.324-2.416-.005-1.572-.444-2.323-1.339-2.32-.906.003-1.34.756-1.335 2.328m4.19-.022c.008 2.336-1.079 3.788-2.836 3.794-1.769.005-2.864-1.443-2.87-3.78-.007-2.301 1.057-3.68 2.848-3.685 1.778-.005 2.852 1.368 2.859 3.67M40.03 26.878c.004 1.595.466 2.41 1.35 2.408.884-.003 1.329-.822 1.325-2.417-.006-1.57-.445-2.322-1.34-2.32-.906.004-1.34.757-1.335 2.329m4.192-.023c.006 2.336-1.08 3.79-2.838 3.795-1.769.005-2.863-1.443-2.87-3.78-.006-2.301 1.057-3.68 2.848-3.685 1.779-.005 2.852 1.368 2.86 3.67" transform="translate(151 537) translate(0 1)"/>
                        <path fill="#FDD8FF" d="M53.149 48.913H12.216c-2.06 0-3.73-1.67-3.73-3.73V27.059c0-2.06 1.67-3.73 3.73-3.73H53.15c2.06 0 3.73 1.67 3.73 3.73v18.124c0 2.06-1.67 3.73-3.73 3.73" transform="translate(151 537) translate(0 1)"/>
                        <path fill="#FFAD00" d="M53.353 48.913H13.465c-1.946 0-3.525-1.578-3.525-3.526V28.882c0-1.948 1.579-3.527 3.525-3.527h39.888c1.947 0 3.526 1.579 3.526 3.527v16.505c0 1.948-1.579 3.526-3.526 3.526" transform="translate(151 537) translate(0 1)"/>
                        <path fill="#000" d="M53.023 24.585H11.908c-2.363 0-4.286 1.922-4.286 4.285v18.18c0 2.364 1.923 4.287 4.286 4.287h36.775c.357 0 .647-.29.647-.648 0-.356-.29-.646-.647-.646H11.908c-1.65 0-2.992-1.342-2.992-2.993V28.87c0-1.649 1.343-2.992 2.992-2.992h41.115c1.65 0 2.992 1.343 2.992 2.992v18.18c0 1.651-1.342 2.993-2.992 2.993-.357 0-.647.29-.647.646 0 .359.29.648.647.648 2.363 0 4.285-1.923 4.285-4.287V28.87c0-2.363-1.922-4.285-4.285-4.285" transform="translate(151 537) translate(0 1)"/>
                        <path fill="#000" d="M11.908 25.767h41.115c1.71 0 3.103 1.392 3.103 3.103v18.18c0 1.712-1.392 3.104-3.103 3.104-.295 0-.536.24-.536.536 0 .295.24.536.536.536 2.302 0 4.175-1.873 4.175-4.176V28.87c0-2.302-1.873-4.174-4.175-4.174H11.908c-2.302 0-4.175 1.872-4.175 4.174v18.18c0 2.303 1.873 4.176 4.175 4.176h36.775c.295 0 .536-.241.536-.536 0-.296-.24-.536-.536-.536H11.908c-1.711 0-3.103-1.392-3.103-3.104V28.87c0-1.711 1.392-3.103 3.103-3.103m41.115 25.68c-.418 0-.758-.34-.758-.757 0-.418.34-.758.758-.758 1.59 0 2.88-1.293 2.88-2.882V28.87c0-1.588-1.29-2.88-2.88-2.88H11.908c-1.588 0-2.88 1.292-2.88 2.88v18.18c0 1.589 1.292 2.882 2.88 2.882h36.775c.418 0 .758.34.758.758 0 .417-.34.758-.758.758H11.908c-2.425 0-4.397-1.973-4.397-4.398V28.87c0-2.424 1.972-4.396 4.397-4.396h41.115c2.425 0 4.397 1.972 4.397 4.396v18.18c0 2.425-1.972 4.398-4.397 4.398" transform="translate(151 537) translate(0 1)"/>
                        <path fill="#FFF" d="M20.215 29.78H49.34c.175 1.5 1.435 2.668 2.98 2.668v10.677c-1.665 0-3.015 1.349-3.015 3.015H15.627c0-1.666-1.35-3.015-3.016-3.015V32.448c1.547 0 2.806-1.168 2.98-2.667h4.624z" transform="translate(151 537) translate(0 1)"/>
                        <path fill="#231F20" d="M49.304 46.807H15.627c-.368 0-.667-.299-.667-.667 0-1.295-1.053-2.35-2.349-2.35-.368 0-.666-.298-.666-.666V32.45c0-.368.298-.667.666-.667 1.184 0 2.18-.893 2.319-2.078.041-.366.369-.623.74-.585.365.042.627.373.584.74-.19 1.63-1.42 2.907-2.976 3.195v9.465c1.497.274 2.68 1.457 2.955 2.954h32.465c.274-1.497 1.457-2.68 2.955-2.954v-9.465c-1.363-.253-2.476-1.264-2.858-2.606h-28.58c-.368 0-.667-.299-.667-.667 0-.368.299-.667.667-.667h29.124c.338 0 .623.254.663.59.137 1.185 1.134 2.078 2.318 2.078.368 0 .667.299.667.667v10.675c0 .368-.3.667-.667.667-1.295 0-2.35 1.054-2.35 2.35 0 .367-.298.666-.666.666" transform="translate(151 537) translate(0 1)"/>
                        <path fill="#000" d="M21.975 35.085l.02 6.632c0 .521-.301.838-.823.84-.52 0-.813-.313-.815-.834l-.016-5.47-.775.343c-.11.049-.23.085-.376.086-.412 0-.752-.339-.754-.774-.002-.303.157-.571.508-.719l1.816-.827c.146-.05.277-.1.424-.1.435 0 .79.374.79.823M25.457 38.348c.004 1.771.518 2.679 1.5 2.676.981-.004 1.476-.914 1.471-2.685-.006-1.747-.494-2.58-1.488-2.577-1.007.002-1.489.84-1.483 2.586m4.657-.025c.007 2.595-1.2 4.21-3.153 4.216-1.966.006-3.182-1.602-3.19-4.198-.007-2.558 1.175-4.09 3.165-4.096 1.976-.006 3.17 1.52 3.178 4.078M33.164 38.325c.005 1.772.518 2.68 1.5 2.676.982-.002 1.476-.913 1.472-2.685-.006-1.747-.494-2.58-1.488-2.577-1.008.003-1.49.84-1.484 2.586m4.656-.025c.008 2.596-1.2 4.21-3.152 4.216-1.965.006-3.182-1.603-3.19-4.198-.006-2.558 1.176-4.089 3.165-4.095 1.976-.006 3.17 1.519 3.177 4.077M40.871 38.303c.005 1.771.518 2.68 1.5 2.676.982-.003 1.476-.914 1.472-2.685-.006-1.746-.494-2.58-1.488-2.577-1.007.002-1.49.84-1.484 2.586m4.656-.025c.008 2.595-1.199 4.21-3.152 4.216-1.965.006-3.181-1.603-3.19-4.199-.006-2.558 1.176-4.089 3.165-4.095 1.976-.006 3.17 1.52 3.177 4.078" transform="translate(151 537) translate(0 1)"/>
                        <path fill="#FDD8FF" d="M12.077 53.941L9.691 51.304 53.245 11.89 55.63 14.527z" transform="translate(151 537) translate(0 1)"/>
                        <path fill="#231F20" d="M10.884 53.223c-.164 0-.326-.066-.445-.198-.222-.245-.203-.625.042-.848l43.554-39.414c.245-.221.625-.204.848.043.222.246.203.625-.043.848L11.286 53.067c-.114.104-.258.156-.402.156" transform="translate(151 537) translate(0 1)"/>
                    </g>
                </g>
            </g>
        </g>
    </g>
</svg>
