<svg xmlns="http://www.w3.org/2000/svg" width="30" height="30" viewBox="0 0 30 30">
    <defs>
        <linearGradient id="prefix__a" x1="23.918%" x2="100.159%" y1="49.961%" y2="49.961%">
            <stop offset="0%" stop-color="#FF0048"/>
            <stop offset="100%" stop-color="#BA023B"/>
        </linearGradient>
        <linearGradient id="prefix__b" x1="42.083%" x2="99.526%" y1="50.052%" y2="50.052%">
            <stop offset="0%" stop-color="#BC0335"/>
            <stop offset="100%" stop-color="#BA023B"/>
        </linearGradient>
        <linearGradient id="prefix__c" x1="42.083%" x2="99.526%" y1="50.052%" y2="50.052%">
            <stop offset="0%" stop-color="#BC0335"/>
            <stop offset="100%" stop-color="#BA023B"/>
        </linearGradient>
        <linearGradient id="prefix__d" x1="42.083%" x2="99.526%" y1="50.052%" y2="50.052%">
            <stop offset="0%" stop-color="#BC0335"/>
            <stop offset="100%" stop-color="#BA023B"/>
        </linearGradient>
        <linearGradient id="prefix__e" x1=".194%" x2="99.885%" y1="50.121%" y2="50.121%">
            <stop offset="0%" stop-color="#FFF"/>
            <stop offset="100%" stop-color="#F4F4F4"/>
        </linearGradient>
        <linearGradient id="prefix__f" x1="15.891%" x2="84.138%" y1="26.625%" y2="73.392%">
            <stop offset="0%" stop-color="#FFF"/>
            <stop offset="100%" stop-color="#F4F4F4"/>
        </linearGradient>
        <linearGradient id="prefix__g" x1="23.918%" x2="100.159%" y1="49.961%" y2="49.961%">
            <stop offset="0%" stop-color="#FF0048"/>
            <stop offset="100%" stop-color="#BA023B"/>
        </linearGradient>
    </defs>
    <g fill="none">
        <path fill="url(#prefix__a)" d="M16.918 24.295l-1.643.877c-.298.197-.684.197-.982 0l-1.133-.877c-.3-.189-.682-.189-.982 0l-1.643.877c-.298.197-.684.197-.982 0l-1.133-.877c-.3-.189-.682-.189-.982 0l-1.643.885c-.3.189-.682.189-.982 0l-1.14-.885c-.3-.189-.683-.189-.983 0l-1.808.967c-.18.098-.352 0-.3-.195L7.528.933c.052-.18.285-.293.412-.196l1.245.968c.3.189.682.189.982 0L11.81.827c.295-.197.68-.197.975 0l1.14.878c.297.19.678.19.975 0l1.65-.878c.295-.197.68-.197.975 0l1.14.878c.3.189.682.189.983 0L21.29.82c.3-.189.682-.189.983 0l1.14.885c.3.189.682.189.982 0l1.808-.968c.18-.097.352 0 .3.196l-6.945 24.134c-.053.18-.285.293-.413.195l-1.245-.967c-.3-.189-.682-.189-.982 0z"/>
        <path fill="url(#prefix__b)" d="M19.91 8.148H9.965c-.129.007-.252-.053-.327-.158-.074-.105-.09-.24-.04-.36.096-.288.357-.49.66-.51h9.945c.128-.01.252.047.327.151.075.105.09.24.04.359-.094.29-.355.496-.66.518z"/>
        <path fill="url(#prefix__c)" d="M17.788 5.155h-3.96c-.13.007-.253-.052-.327-.157-.075-.105-.09-.241-.041-.36.096-.288.357-.49.66-.51h3.96c.128-.01.252.047.327.151.076.104.09.24.04.359-.093.29-.355.495-.66.517z"/>
        <path fill="url(#prefix__d)" d="M19.047 11.133H9.102c-.126.007-.248-.052-.321-.155-.074-.104-.088-.238-.039-.355.094-.291.356-.496.66-.518h9.946c.127-.004.248.056.32.16.073.105.088.24.04.357-.097.288-.358.49-.66.51z"/>
        <path fill="#4A4A4A" d="M24.823 13.967H8.863c-1.31.053-2.433.949-2.775 2.213L4.1 24.017c-.195.528-.112 1.12.222 1.572.334.454.873.708 1.436.678h15.96c1.319-.057 2.446-.97 2.774-2.25l1.988-7.837c.183-.524.093-1.104-.24-1.548-.332-.444-.864-.693-1.417-.665z" opacity=".4"/>
        <path fill="url(#prefix__e)" d="M22.468 25.488H6.5c-.562.03-1.101-.225-1.435-.679-.334-.453-.418-1.044-.223-1.572L6.83 15.4c.343-1.264 1.466-2.16 2.775-2.213h15.968c.553-.028 1.085.221 1.418.665.332.444.422 1.024.239 1.548l-1.98 7.867c-.34 1.27-1.469 2.17-2.782 2.22z"/>
        <path fill="#DEE2E9" d="M22.295 24.453H7.197c-.375.015-.734-.154-.961-.453-.228-.299-.294-.69-.178-1.047l1.814-7.155c.248-.858 1.014-1.461 1.905-1.5h15.106c.375-.017.734.152.96.451.227.3.291.692.172 1.048l-1.808 7.155c-.253.856-1.02 1.458-1.912 1.5z"/>
        <ellipse cx="16.039" cy="19.35" fill="url(#prefix__f)" rx="3.405" ry="2.647" transform="rotate(-41.39 16.04 19.35)"/>
        <path fill="url(#prefix__g)" d="M28.392 20.611c-1.573-1.573-3.94-2.043-5.996-1.192C20.341 20.27 19 22.276 19 24.5s1.34 4.23 3.396 5.081 4.423.38 5.996-1.192c2.144-2.15 2.144-5.628 0-7.778z"/>
        <path fill="#FFF" d="M26.649 25.666l-1.245-1.246 1.245-1.247c.166-.282.12-.64-.11-.872-.231-.231-.59-.277-.87-.11l-1.246 1.247-1.245-1.247c-.277-.255-.703-.255-.98 0-.264.274-.264.708 0 .982l1.245 1.247-1.245 1.246c-.264.274-.264.708 0 .982.277.255.703.255.98 0l1.245-1.247 1.245 1.247c.153.258.449.394.743.34.294-.052.525-.283.578-.578.053-.294-.083-.591-.34-.744z"/>
    </g>
</svg>
