<svg width="28" height="28" viewBox="0 0 28 28" fill="none" xmlns="http://www.w3.org/2000/svg">
<path fill-rule="evenodd" clip-rule="evenodd" d="M14 0.875C21.2188 0.875 27.125 6.78125 27.125 14C27.125 21.2188 21.2188 27.125 14 27.125C6.78125 27.125 0.875 21.2188 0.875 14C0.875 6.78125 6.78125 0.875 14 0.875ZM14 2.51562C7.65625 2.51562 2.51562 7.65625 2.51562 14C2.51562 20.3438 7.65625 25.4844 14 25.4844C20.3438 25.4844 25.4844 20.3438 25.4844 14C25.4844 7.65625 20.3438 2.51562 14 2.51562ZM20.0156 15.8594C19.25 15.75 18.5938 15.3125 18.1562 14.7656L18.0469 14.875C17.9375 15.0938 17.7188 15.2031 17.5 15.3125V17.5C17.5 17.8281 17.2812 18.0469 16.9531 18.0469H11.2656C10.9375 18.0469 10.7188 17.8281 10.7188 17.5V15.4219C10.6094 15.3672 10.5273 15.3125 10.4453 15.2578C10.3633 15.2031 10.2812 15.1484 10.1719 15.0938L9.95312 14.875C9.51562 15.4219 8.75 15.8594 8.09375 15.8594C8.09375 17.1719 8.20312 18.4844 8.3125 19.0312C8.53125 20.2344 9.40625 21.2188 10.6094 21.4375C12.9062 21.9844 15.4219 21.875 17.7188 21.4375C18.9219 21.2188 19.7969 20.2344 19.9063 19.0312C20.0156 18.4844 20.0156 17.1719 20.0156 15.8594V15.8594ZM14 21C14.6562 21 15.3125 20.4531 15.2031 19.7969C15.2031 19.1406 14.6562 18.5938 14 18.5938C13.3438 18.5938 12.7969 19.1406 12.7969 19.7969C12.7969 20.4531 13.3438 21 14 21ZM21.875 14.2187C22.2031 13.7812 22.2031 13.5625 22.2031 13.2344C22.2031 13.125 22.2031 12.9062 22.0938 12.7969V12.5781C21.7656 11.1562 21.2188 9.73438 20.5625 8.42188C20.125 7.54688 19.25 6.89062 18.2656 6.78125L15.6406 6.45312H12.3594C11.4844 6.45312 10.6094 6.5625 9.625 6.78125C8.64062 6.89062 7.875 7.54688 7.4375 8.42188C6.78125 9.73438 6.23438 11.1562 5.90625 12.5781V12.7969C5.90625 12.8516 5.87891 12.9336 5.85156 13.0156C5.82422 13.0977 5.79688 13.1797 5.79688 13.2344C5.79688 13.4531 5.79688 13.6719 5.90625 13.8906C6.23438 14.6562 7 15.2031 7.875 15.2031H7.98438C8.75 15.2031 9.29688 14.7656 9.625 14.1094C9.625 14 9.73438 14 9.84375 14C9.95312 14 10.0625 14 10.0625 14.1094C10.1719 14.3281 10.2812 14.4375 10.5 14.6562L10.5 14.6562L10.6094 14.7656C10.9375 15.0938 11.4844 15.3125 11.9219 15.3125C12.4688 15.3125 12.9062 15.0938 13.3438 14.7656C13.5625 14.6562 13.6719 14.4375 13.7812 14.2187C13.7812 14.1094 13.8906 14.1094 14 14.1094C14.1094 14.1094 14.2188 14.1094 14.2188 14.2187C14.3281 14.4375 14.4375 14.6562 14.6562 14.7656C15.4219 15.5312 16.625 15.5312 17.3906 14.7656L17.5 14.6562C17.5547 14.6016 17.6094 14.5195 17.6641 14.4375C17.7188 14.3555 17.7734 14.2734 17.8281 14.2187C17.8281 14.1094 17.9375 14.1094 18.0469 14.1094C18.1562 14.1094 18.2656 14.1094 18.2656 14.2187C18.5938 14.875 19.25 15.3125 19.9062 15.3125H20.0156C20.7812 15.3125 21.5469 14.875 21.875 14.2187Z" fill="#93328E"/>
</svg>
