<?xml version="1.0" encoding="UTF-8"?>
<svg width="64px" height="64px" viewBox="0 0 64 64" version="1.1" xmlns="http://www.w3.org/2000/svg" xmlns:xlink="http://www.w3.org/1999/xlink">
    <title>Avatar/Gobiz2</title>
    <g id="Avatar/Gobiz2" stroke="none" stroke-width="1" fill="none" fill-rule="evenodd">
        <path d="M32,7.49999999 C18.4666667,7.49999999 7.49999999,18.4666666 7.49999999,32 C7.49999999,45.5333332 18.4666667,56.5 32,56.5 C45.5333333,56.5 56.5,45.5333332 56.5,32 C56.5,18.4666666 45.5333333,7.49999999 32,7.49999999 Z M32,4 C47.4,4 60,16.6 60,32 C60,47.4 47.4,60 32,60 C16.6,60 4,47.4 4,32 C4,16.6 16.6,4 32,4 Z M40.8666666,33.6333333 C41.8000001,34.8000001 43.1999999,35.7333333 44.8333333,35.9666666 C44.8333333,38.7666666 44.8333333,41.5666667 44.6,42.7333332 C44.3666668,45.3 42.4999999,47.4 39.9333332,47.8666665 C35.0333334,48.7999998 29.6666666,49.0333333 24.7666666,47.8666665 C22.2,47.4 20.3333333,45.3 19.8666667,42.7333332 C19.6333333,41.5666667 19.4,38.7666666 19.4,35.9666666 C20.8,35.9666666 22.4333333,35.0333333 23.3666667,33.8666665 L23.8333333,34.3333333 C24.3,34.5666666 24.5333333,34.8000001 25,35.0333333 L25,39.4666666 C25,40.1666667 25.4666667,40.6333333 26.1666667,40.6333333 L38.2999999,40.6333333 C38.9999999,40.6333333 39.4666667,40.1666667 39.4666667,39.4666666 L39.4666667,34.8000001 C39.9333332,34.5666666 40.4,34.3333333 40.6333333,33.8666665 C40.6333333,33.8666665 40.8666666,33.6333333 40.8666666,33.6333333 Z M32,46.9333333 C33.4000001,46.9333333 34.7999999,45.7666665 34.5666667,44.3666665 C34.5666667,42.9666667 33.4000001,41.7999999 32,41.7999999 C30.5999999,41.7999999 29.4333333,42.9666667 29.4333333,44.3666665 C29.4333333,45.7666665 30.5999999,46.9333333 32,46.9333333 Z M49.5,30.3666667 C49.5,31.0666665 49.5,31.5333333 48.8000001,32.4666665 C48.1,33.8666665 46.4666667,34.8000001 44.8333333,34.8000001 L44.6,34.8000001 C43.1999999,34.8000001 41.8000001,33.8666665 41.1000001,32.4666665 C41.1000001,32.2333333 40.8666666,32.2333333 40.6333333,32.2333333 C40.4,32.2333333 40.1666668,32.2333333 40.1666668,32.4666665 C39.9333332,32.7 39.7,33.1666665 39.4666667,33.4 L39.2333332,33.6333333 C37.6000001,35.2666666 35.0333334,35.2666666 33.4000001,33.6333333 C32.9333333,33.4 32.7,32.9333333 32.4666668,32.4666665 C32.4666668,32.2333333 32.2333333,32.2333333 32,32.2333333 C31.7666667,32.2333333 31.5333332,32.2333333 31.5333332,32.4666665 C31.3,32.9333333 31.0666667,33.4 30.5999999,33.6333333 C29.6666666,34.3333333 28.7333333,34.8000001 27.5666666,34.8000001 C26.6333333,34.8000001 25.4666667,34.3333333 24.7666666,33.6333333 L24.5333333,33.4 C24.0666667,32.9333333 23.8333333,32.7 23.6,32.2333333 C23.6,32 23.3666667,32 23.1333333,32 C22.9,32 22.6666667,32 22.6666667,32.2333333 C21.9666667,33.6333333 20.8,34.5666666 19.1666667,34.5666666 L18.9333333,34.5666666 C17.0666667,34.5666666 15.4333333,33.4 14.7333333,31.7666665 C14.5,31.3 14.5,30.8333332 14.5,30.3666667 C14.5,30.1333332 14.7333333,29.6666667 14.7333333,29.4333332 L14.7333333,28.9666667 C15.4333333,25.9333334 16.6,22.9 18,20.1 C18.9333333,18.2333333 20.5666667,16.8333333 22.6666667,16.6 C24.7666666,16.1333333 26.6333333,15.9 28.5,15.9 L35.5,15.9 L41.1000001,16.6 C43.1999999,16.8333333 45.0666666,18.2333333 46,20.1 C47.4,22.9 48.5666665,25.9333334 49.2666666,28.9666667 L49.2666666,29.4333332 C49.5,29.6666667 49.5,30.1333332 49.5,30.3666667 Z" id="Shape" fill="#FFFFFF" fill-rule="nonzero"></path>
    </g>
</svg>