<svg width="48" height="48" viewBox="0 0 48 48" fill="none" xmlns="http://www.w3.org/2000/svg">
<path fill-rule="evenodd" clip-rule="evenodd" d="M24 3C35.55 3 45 12.45 45 24C45 35.55 35.55 45 24 45C12.45 45 3 35.55 3 24C3 12.45 12.45 3 24 3ZM24 5.625C13.85 5.625 5.625 13.85 5.625 24C5.625 34.15 13.85 42.375 24 42.375C34.15 42.375 42.375 34.15 42.375 24C42.375 13.85 34.15 5.625 24 5.625ZM33.6249 26.975C32.3999 26.8 31.3499 26.1 30.6499 25.225L30.4749 25.4C30.2999 25.75 29.9499 25.925 29.5999 26.1V29.6C29.5999 30.125 29.2499 30.475 28.7249 30.475H19.6249C19.0999 30.475 18.7499 30.125 18.7499 29.6V26.275C18.5749 26.1875 18.4437 26.1 18.3124 26.0125C18.1812 25.925 18.0499 25.8375 17.8749 25.75L17.5249 25.4C16.8249 26.275 15.5999 26.975 14.5499 26.975C14.5499 29.075 14.7249 31.175 14.8999 32.05C15.2499 33.975 16.6499 35.55 18.5749 35.9C22.2499 36.775 26.2749 36.6 29.9499 35.9C31.8749 35.55 33.2749 33.975 33.4499 32.05C33.6249 31.175 33.6249 29.075 33.6249 26.975V26.975ZM23.9998 35.2C25.0498 35.2 26.0998 34.325 25.9248 33.275C25.9248 32.225 25.0498 31.35 23.9998 31.35C22.9498 31.35 22.0748 32.225 22.0748 33.275C22.0748 34.325 22.9498 35.2 23.9998 35.2ZM36.6 24.3499C37.125 23.6499 37.125 23.2999 37.125 22.7749C37.125 22.5999 37.125 22.2499 36.95 22.0749V21.7249C36.425 19.4499 35.55 17.1749 34.5 15.0749C33.8 13.6749 32.4 12.6249 30.825 12.4499L26.625 11.9249H21.375C19.975 11.9249 18.575 12.0999 17 12.4499C15.425 12.6249 14.2 13.6749 13.5 15.0749C12.45 17.1749 11.575 19.4499 11.05 21.7249V22.0749C11.05 22.1624 11.0063 22.2937 10.9625 22.4249C10.9187 22.5562 10.875 22.6874 10.875 22.7749C10.875 23.1249 10.875 23.4749 11.05 23.8249C11.575 25.0499 12.8 25.9249 14.2 25.9249H14.375C15.6 25.9249 16.475 25.2249 17 24.1749C17 23.9999 17.175 23.9999 17.35 23.9999C17.525 23.9999 17.7 23.9999 17.7 24.1749C17.875 24.5249 18.05 24.6999 18.4 25.0499L18.575 25.2249C19.1 25.7499 19.975 26.0999 20.675 26.0999C21.55 26.0999 22.25 25.7499 22.95 25.2249C23.3 25.0499 23.475 24.6999 23.65 24.3499C23.65 24.1749 23.825 24.1749 24 24.1749C24.175 24.1749 24.35 24.1749 24.35 24.3499C24.525 24.6999 24.7 25.0499 25.05 25.2249C26.275 26.4499 28.2 26.4499 29.425 25.2249L29.6 25.0499C29.6875 24.9624 29.775 24.8312 29.8625 24.6999C29.95 24.5687 30.0375 24.4374 30.125 24.3499C30.125 24.1749 30.3 24.1749 30.475 24.1749C30.65 24.1749 30.825 24.1749 30.825 24.3499C31.35 25.3999 32.4 26.0999 33.45 26.0999H33.625C34.85 26.0999 36.075 25.3999 36.6 24.3499Z" fill="#832A90"/>
</svg>
