<svg xmlns="http://www.w3.org/2000/svg" xmlns:xlink="http://www.w3.org/1999/xlink" width="37" height="34" viewBox="0 0 37 34">
    <defs>
        <path id="a8jbmrmdwa" d="M16.5 0c1.709 0 3.094 1.373 3.094 3.067v13.29h4.125c.57 0 1.031.457 1.031 1.022V18.4c0 2.823-2.309 5.112-5.156 5.112H5.156C2.31 23.513 0 21.224 0 18.4V3.067C0 1.373 1.385 0 3.094 0zm6.188 18.401H10.313c.003 1.107-.359 2.184-1.032 3.067h10.313c1.708 0 3.094-1.373 3.094-3.067zM16.5 2.045H3.094c-.57 0-1.031.457-1.031 1.022V18.4c0 1.694 1.385 3.067 3.093 3.067 1.709 0 3.094-1.373 3.094-3.067V17.38c0-.565.462-1.022 1.031-1.022h8.25V3.067c0-.565-.461-1.022-1.031-1.022zm-2.062 10.222c.569 0 1.03.458 1.03 1.023 0 .564-.461 1.022-1.03 1.022H5.156c-.57 0-1.031-.458-1.031-1.022 0-.565.462-1.023 1.031-1.023zm0-4.089c.569 0 1.03.458 1.03 1.023 0 .564-.461 1.022-1.03 1.022H5.156c-.57 0-1.031-.458-1.031-1.022 0-.565.462-1.023 1.031-1.023zm0-4.089c.569 0 1.03.458 1.03 1.022 0 .565-.461 1.023-1.03 1.023H5.156c-.57 0-1.031-.458-1.031-1.023 0-.564.462-1.022 1.031-1.022z"/>
    </defs>
    <g fill="none" fill-rule="evenodd">
        <g>
            <g>
                <g>
                    <g>
                        <g transform="translate(-32 -76) translate(16 60) translate(16 16) translate(0 4) translate(2.5 3.75)">
                            <mask id="dyyr0345bb" fill="#fff">
                                <use xlink:href="#a8jbmrmdwa"/>
                            </mask>
                            <g fill="#000" mask="url(#dyyr0345bb)">
                                <path d="M0 0L30 0 30 30 0 30z" transform="translate(-2.5 -3.75)"/>
                            </g>
                        </g>
                    </g>
                    <g>
                        <g transform="translate(-32 -76) translate(16 60) translate(16 16) translate(13) rotate(-180 11.143 11.143)">
                            <path d="M0 0L20.571 0 20.571 20.571 0 20.571z"/>
                            <path fill="#FDAF27" d="M10.286 1.714c-4.732 0-8.572 3.84-8.572 8.572 0 4.731 3.84 8.571 8.572 8.571 4.731 0 8.571-3.84 8.571-8.571 0-4.732-3.84-8.572-8.571-8.572z"/>
                            <path fill="#000" d="M10.286 14.571c-.472 0-.857-.385-.857-.857v-3.428c0-.472.385-.857.857-.857.471 0 .857.385.857.857v3.428c0 .472-.386.857-.857.857z"/>
                            <circle cx="10.286" cy="6.857" r="1" fill="#000"/>
                        </g>
                    </g>
                </g>
            </g>
        </g>
    </g>
</svg>
