<svg xmlns="http://www.w3.org/2000/svg" width="16" height="11" viewBox="0 0 16 11">
    <g opacity=".4">
        <path d="M9.324 2.092c0-.995-.81-1.804-1.807-1.804-.995 0-1.803.809-1.803 1.804 0 1 .808 1.807 1.803 1.807.997 0 1.807-.808 1.807-1.807zM5.885 4.007c-1.656.788-2.519 2.643-2.051 4.418 2.346 1.042 5.024 1.042 7.37 0 .468-1.775-.396-3.63-2.053-4.418-.957.76-2.308.76-3.266 0zM13.398 1.566c0-.766-.622-1.39-1.391-1.39-.766 0-1.39.624-1.39 1.39 0 .766.624 1.39 1.39 1.39.769 0 1.39-.624 1.39-1.39z" transform="translate(.5 .625)"/>
        <path d="M9.744 3.937c.275-.332.619-.6 1.006-.784.737.585 1.778.585 2.515 0 1.277.608 1.941 2.037 1.58 3.401-.997.447-2.086.65-3.178.597-.096-1.317-.808-2.509-1.923-3.214zM4.42 1.566C4.42.8 3.797.176 3.03.176c-.768 0-1.39.624-1.39 1.39 0 .766.621 1.39 1.39 1.39.767 0 1.39-.624 1.39-1.39zM3.37 7.151c.095-1.317.809-2.509 1.923-3.214-.275-.332-.618-.6-1.006-.784-.737.585-1.778.585-2.515 0C.495 3.76-.17 5.19.19 6.554c.999.447 2.087.65 3.18.597z" transform="translate(.5 .625)"/>
    </g>
</svg>
