<svg xmlns="http://www.w3.org/2000/svg" width="40" height="40" viewBox="0 0 40 40">
    <g fill="none" fill-rule="evenodd">
        <path d="M0 0H40V40H0z"/>
        <rect width="31" height="19" x="5" y="11" fill="#FDAF27" rx="5"/>
        <path fill="#000" fill-rule="nonzero" d="M32.105 10H7.895c-1.033 0-2.024.412-2.754 1.146C4.41 11.879 4 12.874 4 13.91V26.09c0 1.037.41 2.032 1.14 2.765C5.872 29.588 6.863 30 7.896 30h24.21c1.033 0 2.024-.412 2.754-1.146.73-.733 1.141-1.728 1.141-2.765V13.91c0-1.037-.41-2.032-1.14-2.765-.731-.734-1.722-1.146-2.755-1.146zm-.547 7.674H5.632v-1.997h25.926v1.997zM7.853 11.691h21.505c.583.006 1.141.242 1.553.657.412.416.644.977.647 1.563v.085H5.632v-.085c.002-.59.238-1.154.654-1.57.416-.416.98-.65 1.567-.65zM10.6 28.31H7.853c-.588 0-1.151-.234-1.567-.65-.416-.416-.652-.98-.654-1.57v-6.723h25.926v6.723c-.003.59-.238 1.154-.654 1.57-.417.416-.98.65-1.567.65H10.6zm23.726-2.22c-.013.495-.19.97-.502 1.354-.313.382-.743.65-1.224.76.415-.627.641-1.361.653-2.114V13.91c.001-.77-.222-1.523-.642-2.167.489.112.926.388 1.24.781.313.394.484.882.486 1.386l-.01 12.178z"/>
    </g>
</svg>
