<svg xmlns="http://www.w3.org/2000/svg" width="36" height="38" viewBox="0 0 36 38">
    <g fill="none" fill-rule="evenodd">
        <g fill="#FFF">
            <g>
                <g transform="translate(-73 -387) translate(57 364) translate(16 23)">
                    <circle cx="18" cy="20" r="18" fill-opacity=".3"/>
                    <path d="M23.387 36.878c-1.065.285-2.577-.09-3.386-.846l-8.415-7.872c-.869-.864-.872-2.263.008-3.138.873-.869 2.287-.87 3.155-.008l2.523 2.51-2.999-11.19-.961-3.588c-.316-1.177.386-2.388 1.586-2.71 1.192-.319 2.417.39 2.73 1.554l2.301 8.591 9.733-1.075s2.35.137 3.118 3.005l.38 1.421.192.715.383 1.43c.332 1.238.353 3.432.058 4.75-.393 1.752-1.126 3.17-1.126 3.17-.232.5-.857 1.024-1.378 1.163l-7.902 2.118z"/>
                    <g>
                        <path d="M5.212 6.701c0 .411-.333.745-.744.745-.412 0-.745-.334-.745-.745V2.542L1.27 4.994c-.29.29-.762.29-1.053 0-.29-.29-.29-.762 0-1.053L3.941.218c.29-.29.762-.29 1.053 0l3.723 3.723c.29.29.29.762 0 1.053-.29.29-.762.29-1.053 0L5.212 2.542v4.16zM5.212 11.169c0-.411-.333-.745-.744-.745-.412 0-.745.334-.745.745v4.159L1.27 12.876c-.29-.29-.762-.29-1.053 0-.29.29-.29.762 0 1.053l3.723 3.723c.29.29.762.29 1.053 0l3.723-3.723c.29-.29.29-.762 0-1.053-.29-.29-.762-.29-1.053 0l-2.452 2.452v-4.16z" transform="rotate(90 11.5 12)"/>
                    </g>
                </g>
            </g>
        </g>
    </g>
</svg>
