<svg xmlns="http://www.w3.org/2000/svg" xmlns:xlink="http://www.w3.org/1999/xlink" width="36" height="36" viewBox="0 0 36 36">
    <defs>
        <filter id="prefix__c" width="245.8%" height="225%" x="-72.9%" y="-55.4%" filterUnits="objectBoundingBox">
            <feOffset dy="2" in="SourceAlpha" result="shadowOffsetOuter1"/>
            <feGaussianBlur in="shadowOffsetOuter1" result="shadowBlurOuter1" stdDeviation="5.5"/>
            <feColorMatrix in="shadowBlurOuter1" values="0 0 0 0 0 0 0 0 0 0 0 0 0 0 0 0 0 0 0.0961811626 0"/>
        </filter>
        <circle id="prefix__a" cx="18" cy="18" r="18"/>
        <path id="prefix__d" d="M19.957 34.896c-1.108.296-2.68-.092-3.523-.876l-8.756-8.158c-.904-.896-.907-2.346.008-3.252.909-.9 2.38-.903 3.283-.008l2.625 2.6-3.12-11.596-1-3.718c-.328-1.22.402-2.475 1.65-2.808 1.24-.331 2.515.402 2.84 1.61l2.395 8.903 10.127-1.114s2.445.141 3.244 3.114l.397 1.473.199.74.399 1.482c.345 1.283.366 3.558.06 4.923-.41 1.816-1.179 3.301-1.179 3.301-.238.51-.885 1.045-1.427 1.19l-8.222 2.194z"/>
    </defs>
    <g fill="none" fill-rule="evenodd">
        <mask id="prefix__b" fill="#fff">
            <use xlink:href="#prefix__a"/>
        </mask>
        <use fill="#FFF" fill-opacity=".3" xlink:href="#prefix__a"/>
        <g fill="#CA69CE" mask="url(#prefix__b)">
            <g transform="translate(7 7)">
                <circle cx="3" cy="3" r="3"/>
                <circle cx="11" cy="3" r="3"/>
                <circle cx="3" cy="11" r="3"/>
                <circle cx="3" cy="19" r="3"/>
                <circle cx="11" cy="11" r="3"/>
                <circle cx="19" cy="3" r="3"/>
                <circle cx="19" cy="11" r="3"/>
            </g>
        </g>
        <g mask="url(#prefix__b)">
            <use fill="#000" filter="url(#prefix__c)" xlink:href="#prefix__d"/>
            <use fill="#FFF" xlink:href="#prefix__d"/>
        </g>
    </g>
</svg>
