<svg xmlns="http://www.w3.org/2000/svg" width="40" height="40" viewBox="0 0 40 40">
    <g fill="none" fill-rule="evenodd">
        <circle cx="20" cy="20" r="20" fill="#6236FF"/>
        <path fill="#FFF" fill-rule="nonzero" d="M13.368 27.757c.28-.481.445-1.039.445-1.636 0-1.795-1.455-3.25-3.25-3.25-.037 0-.073.004-.11.005-.52-2.074-.373-4.316.538-6.371l-2.019-1.198c-1.285 2.729-1.465 5.746-.685 8.495-.601.59-.975 1.41-.975 2.319 0 1.795 1.455 3.25 3.25 3.25.334 0 .657-.051.96-.145.667.646 1.419 1.225 2.252 1.72 1.586.94 3.3 1.476 5.026 1.642l.003-2.347c-1.319-.157-2.625-.582-3.839-1.302-.582-.346-1.114-.744-1.596-1.182zm9.368-16.713c.776.226 1.537.55 2.263.981 1.214.72 2.214 1.663 2.983 2.744l2.058-1.127c-.972-1.435-2.264-2.683-3.85-3.624-.966-.573-1.981-.994-3.016-1.275-.277-1.515-1.6-2.664-3.195-2.664-1.598 0-2.924 1.154-3.196 2.674-2.59.706-4.95 2.259-6.62 4.546l2.019 1.198c1.303-1.7 3.087-2.876 5.044-3.448.574.918 1.591 1.53 2.753 1.53 1.165 0 2.183-.615 2.757-1.535zM31.69 23.78c.762-2.71.546-5.568-.531-8.09l-2.057 1.127c.76 1.901.926 4.024.418 6.058-.028-.001-.054-.005-.082-.005-1.795 0-3.25 1.455-3.25 3.25 0 .59.16 1.14.433 1.617-1.535 1.403-3.465 2.263-5.484 2.504l-.003 2.346c2.711-.261 5.306-1.428 7.313-3.372.313.1.646.156.991.156 1.795 0 3.25-1.455 3.25-3.25 0-.92-.384-1.75-.998-2.341z"/>
    </g>
</svg>
