<?xml version="1.0" encoding="UTF-8"?>
<svg width="32px" height="32px" viewBox="0 0 32 32" version="1.1" xmlns="http://www.w3.org/2000/svg" xmlns:xlink="http://www.w3.org/1999/xlink">
    <!-- Generator: Sketch 61.2 (89653) - https://sketch.com -->
    <title>ic_close</title>
    <desc>Created with Sketch.</desc>
    <defs>
        <path d="M24.4,7.61333333 C23.88,7.09333333 23.04,7.09333333 22.52,7.61333333 L16,14.12 L9.48,7.6 C8.96,7.08 8.12,7.08 7.6,7.6 C7.08,8.12 7.08,8.96 7.6,9.48 L14.12,16 L7.6,22.52 C7.08,23.04 7.08,23.88 7.6,24.4 C8.12,24.92 8.96,24.92 9.48,24.4 L16,17.88 L22.52,24.4 C23.04,24.92 23.88,24.92 24.4,24.4 C24.92,23.88 24.92,23.04 24.4,22.52 L17.88,16 L24.4,9.48 C24.9066667,8.97333333 24.9066667,8.12 24.4,7.61333333 Z" id="path-1"></path>
    </defs>
    <g id="ic_close" stroke="none" stroke-width="1" fill="none" fill-rule="evenodd">
        <g id="Close">
            <polygon id="Path" points="0 0 32 0 32 32 0 32"></polygon>
            <mask id="mask-2" fill="white">
                <use xlink:href="#path-1"></use>
            </mask>
            <use id="Path" fill="#FFFFFF" fill-rule="nonzero" xlink:href="#path-1"></use>
        </g>
    </g>
</svg>