<svg xmlns="http://www.w3.org/2000/svg" width="40" height="40" viewBox="0 0 40 40">
    <g fill="none" fill-rule="evenodd">
        <circle cx="20" cy="20" r="20" fill="#44D7B6"/>
        <g>
            <path d="M0 0L26.667 0 26.667 26.667 0 26.667z" transform="translate(6.667 6.667)"/>
            <path fill="#FFF" fill-rule="nonzero" d="M13.333 2.222C7.2 2.222 2.223 7.2 2.223 13.333c0 6.134 4.977 11.111 11.11 11.111 6.134 0 11.111-4.977 11.111-11.11 0-6.134-4.977-11.112-11.11-11.112zm8.811 10h-7.7v-7.7c4.012.5 7.2 3.69 7.7 7.7zm-17.7 1.111c0-4.522 3.4-8.266 7.778-8.81v17.621c-4.378-.544-7.778-4.288-7.778-8.81zm10 8.811v-7.7h7.7c-.5 4.012-3.688 7.2-7.7 7.7z" transform="translate(6.667 6.667)"/>
        </g>
    </g>
</svg>
