<?xml version="1.0" encoding="UTF-8"?>
<svg width="32px" height="32px" viewBox="0 0 32 32" version="1.1" xmlns="http://www.w3.org/2000/svg" xmlns:xlink="http://www.w3.org/1999/xlink">
    <!-- Generator: Sketch 61.2 (89653) - https://sketch.com -->
    <title>ic_inversecamera</title>
    <desc>Created with Sketch.</desc>
    <g id="ic_inversecamera" stroke="none" stroke-width="1" fill="none" fill-rule="evenodd">
        <g id="flip_camera_android-24px">
            <g id="Bounding_Box">
                <rect id="Rectangle" x="0" y="0" width="32" height="32"></rect>
                <rect id="Rectangle" x="0" y="0" width="32" height="32"></rect>
            </g>
            <g id="Master" transform="translate(2.666667, 2.666667)" fill="#FFFFFF" fill-rule="nonzero">
                <g id="Group">
                    <path d="M9.33333333,13.3333333 C9.33333333,15.5466667 11.12,17.3333333 13.3333333,17.3333333 C15.5466667,17.3333333 17.3333333,15.5466667 17.3333333,13.3333333 C17.3333333,11.12 15.5466667,9.33333333 13.3333333,9.33333333 C11.12,9.33333333 9.33333333,11.12 9.33333333,13.3333333 Z" id="Path"></path>
                    <path d="M8,9.33333333 L8,9.33333333 C8,8.6 7.4,8 6.66666667,8 L4.12,8 C5.96,4.81333333 9.4,2.66666667 13.3333333,2.66666667 C17.9866667,2.66666667 21.9333333,5.65333333 23.3866667,9.81333333 C23.5733333,10.3333333 24.0933333,10.6666667 24.64,10.6666667 L24.64,10.6666667 C25.5466667,10.6666667 26.2133333,9.77333333 25.92,8.92 C24.0933333,3.72 19.1466667,0 13.3333333,0 C8.97333333,0 5.09333333,2.10666667 2.66666667,5.34666667 L2.66666667,4 C2.66666667,3.26666667 2.06666667,2.66666667 1.33333333,2.66666667 L1.33333333,2.66666667 C0.6,2.66666667 0,3.26666667 0,4 L0,9.33333333 C0,10.0666667 0.6,10.6666667 1.33333333,10.6666667 L6.66666667,10.6666667 C7.4,10.6666667 8,10.0666667 8,9.33333333 Z" id="Path"></path>
                    <path d="M18.6666667,17.3333333 L18.6666667,17.3333333 C18.6666667,18.0666667 19.2666667,18.6666667 20,18.6666667 L22.5466667,18.6666667 C20.7066667,21.8533333 17.2666667,24 13.3333333,24 C8.68,24 4.73333333,21.0133333 3.28,16.8533333 C3.09333333,16.3333333 2.57333333,16 2.02666667,16 L2.02666667,16 C1.12,16 0.453333333,16.8933333 0.746666667,17.7466667 C2.57333333,22.9466667 7.52,26.6666667 13.3333333,26.6666667 C17.6933333,26.6666667 21.5733333,24.56 24,21.32 L24,22.6666667 C24,23.4 24.6,24 25.3333333,24 L25.3333333,24 C26.0666667,24 26.6666667,23.4 26.6666667,22.6666667 L26.6666667,17.3333333 C26.6666667,16.6 26.0666667,16 25.3333333,16 L20,16 C19.2666667,16 18.6666667,16.6 18.6666667,17.3333333 Z" id="Path"></path>
                </g>
            </g>
        </g>
    </g>
</svg>