<svg xmlns="http://www.w3.org/2000/svg" width="18" height="18" viewBox="0 0 18 18">
    <g fill="none" fill-rule="evenodd">
        <g>
            <g>
                <g>
                    <g>
                        <path stroke="#B5B5B5" stroke-linecap="round" stroke-linejoin="round" stroke-width="1.5" d="M8 13.333L13.333 8 15.619 10.286 10.286 15.619z" transform="translate(-38 -191) translate(16 86) translate(23 103) translate(0 3)"/>
                        <path stroke="#B5B5B5" stroke-linecap="round" stroke-linejoin="round" stroke-width="1.5" d="M12.571 8.763L11.429 3.048.381.382 3.048 11.429 8.762 12.572zM.381.382L7.467 7.468" transform="translate(-38 -191) translate(16 86) translate(23 103) translate(0 3)"/>
                        <path fill="#B5B5B5" fill-rule="nonzero" d="M7.673 9.633c1.082 0 1.96-.878 1.96-1.96 0-1.082-.878-1.959-1.96-1.959-1.082 0-1.959.877-1.959 1.96 0 1.081.877 1.959 1.96 1.959z" transform="translate(-38 -191) translate(16 86) translate(23 103) translate(0 3)"/>
                    </g>
                </g>
            </g>
        </g>
    </g>
</svg>
