<?xml version="1.0" encoding="UTF-8"?>
<svg width="32px" height="32px" viewBox="0 0 32 32" version="1.1" xmlns="http://www.w3.org/2000/svg" xmlns:xlink="http://www.w3.org/1999/xlink">
    <!-- Generator: Sketch 61.2 (89653) - https://sketch.com -->
    <title>Icon / Rounded / Close</title>
    <desc>Created with Sketch.</desc>
    <g id="Icon-/-Rounded-/-Close" stroke="none" stroke-width="1" fill="none" fill-rule="evenodd">
        <g id="Close-Button" transform="translate(2.666667, 2.666667)">
            <circle id="oval" fill-opacity="0.12" fill="#767680" cx="13.3333333" cy="13.3333333" r="13.3333333"></circle>
            <path d="M8.94777778,16.8888889 L12.17,13.6666667 L8.94777778,10.4444444 C8.6075,10.1041667 8.59361111,9.49305556 8.95472222,9.13888889 C9.30888889,8.78472222 9.92,8.79861111 10.2533333,9.13194444 L13.4755556,12.3541667 L16.6977778,9.13888889 C17.045,8.79166667 17.6422222,8.78472222 17.9963889,9.14583333 C18.3505556,9.5 18.3505556,10.0972222 18.0033333,10.4444444 L14.7811111,13.6666667 L18.0033333,16.8819444 C18.3505556,17.2291667 18.3505556,17.8263889 17.9963889,18.1805556 C17.6422222,18.5416667 17.045,18.5347222 16.6977778,18.1875 L13.4755556,14.9722222 L10.2533333,18.1944444 C9.92,18.5277778 9.30888889,18.5416667 8.95472222,18.1875 C8.59361111,17.8333333 8.6075,17.2222222 8.94777778,16.8888889 Z" id="close" fill-opacity="0.6" fill="#3C3C43" fill-rule="nonzero"></path>
        </g>
    </g>
</svg>