<svg width="21" height="21" viewBox="0 0 21 21" xmlns="http://www.w3.org/2000/svg">
    <g fill-rule="nonzero" fill="none">
        <g fill="#C42126">
            <path d="M.8 11.362h19.374v1H.8zM1.81 6.074h17.354v1H1.81zM1.12 7.836h18.733v1H1.12zM4.939 18.442h11.096v-.001H4.938zM10.486.785c-.19 0-.38.017-.568.043h1.137a4.127 4.127 0 0 0-.569-.043zM.797 9.599h19.379v1H.796z"/>
        </g>
        <path d="M13.362 4.311h4.646a9.762 9.762 0 0 0-1.904-1.762h-3.488c.288.505.537 1.102.746 1.762z" fill="#E7E7E7"/>
        <path d="M12.616 2.549h3.488A9.703 9.703 0 0 0 11.055.786h-.3c.883.11 1.289.761 1.86 1.763z" fill="#DC3027"/>
        <path d="M19.854 7.836a9.598 9.598 0 0 0-.69-1.762h-5.346c.109.566.194 1.157.257 1.762h5.779z" fill="#E7E7E7"/>
        <path d="M13.518 6.074h5.645a9.689 9.689 0 0 0-1.155-1.763h-4.931c.174.548.321 1.14.44 1.763z" fill="#DC3027"/>
        <path d="M14.28 11.361h5.892c.028-.298.044-.6.044-.905 0-.289-.015-.574-.04-.857h-5.895c.02.586.02 1.177-.001 1.762z" fill="#E7E7E7"/>
        <path d="M20.176 9.599a9.61 9.61 0 0 0-.322-1.763h-6.027c.06.578.1 1.168.12 1.763h6.23z" fill="#DC3027"/>
        <path d="M13.717 14.887h5.42c.29-.558.526-1.148.702-1.763h-5.86a20.768 20.768 0 0 1-.262 1.763z" fill="#E7E7E7"/>
        <path d="M19.84 13.124a9.59 9.59 0 0 0 .333-1.762h-6.077c-.02.595-.062 1.185-.123 1.762h5.867z" fill="#DC3027"/>
        <path d="M16.035 18.412a9.77 9.77 0 0 0 1.932-1.763h-4.565a8.982 8.982 0 0 1-.76 1.763h3.393z" fill="#E7E7E7"/>
        <g fill="#DC3027">
            <path d="M13.23 16.65h4.737a9.698 9.698 0 0 0 1.17-1.763h-5.46c-.121.623-.27 1.215-.447 1.762zM10.175 20.167l-.1-.005.1.005zM10.486 20.143a9.714 9.714 0 0 0 5.549-1.73h-3.522c-.625 1.071-1.037 1.73-2.027 1.73z"/>
        </g>
        <path d="M10.486 20.178z" fill="#C42126"/>
        <path d="M12.938 2.549h-8.07A9.763 9.763 0 0 0 2.966 4.31h10.72a9.187 9.187 0 0 0-.747-1.762z" fill="#F3F4F5"/>
        <path d="M4.869 2.549h8.069c-.572-1.002-1.3-1.652-2.182-1.763h-.838a9.702 9.702 0 0 0-5.05 1.763z" fill="#E73625"/>
        <path d="M1.12 7.836h13.262a21.044 21.044 0 0 0-.257-1.762H1.81a9.596 9.596 0 0 0-.69 1.762z" fill="#F3F4F5"/>
        <path d="M2.965 4.311A9.695 9.695 0 0 0 1.81 6.073h12.315a15.477 15.477 0 0 0-.44-1.762H2.964z" fill="#E73625"/>
        <path d="M.757 10.456c0 .305.016.607.044.905h13.7c.02-.585.02-1.176.001-1.762H.797c-.025.283-.04.568-.04.857z" fill="#F3F4F5"/>
        <path d="M.797 9.599h13.705c-.02-.595-.06-1.185-.12-1.763H1.12A9.599 9.599 0 0 0 .797 9.6z" fill="#E73625"/>
        <path d="M14.377 13.124H1.134c.176.615.412 1.205.701 1.763h12.28c.11-.566.198-1.157.262-1.763z" fill="#F3F4F5"/>
        <path d="M1.134 13.124h13.243c.062-.577.103-1.167.124-1.762H.801c.056.605.17 1.194.333 1.762z" fill="#E73625"/>
        <path d="M4.938 18.412h7.97c.294-.504.548-1.1.76-1.763H3.007c.56.67 1.21 1.263 1.932 1.763z" fill="#F3F4F5"/>
        <g fill="#E73625">
            <path d="M1.835 14.887a9.7 9.7 0 0 0 1.171 1.762h10.663c.176-.547.325-1.139.446-1.762H1.835zM10.075 20.134l.059.002c.117.004.234.007.352.007.99 0 1.797-.659 2.422-1.73h-7.97a9.707 9.707 0 0 0 5.137 1.721z"/>
        </g>
        <path d="M10.285.773C5.3.874 1.235 4.707.798 9.583h9.487V.773z" fill="#283991"/>
        <g fill="#EFEFEF">
            <path d="m2.704 6.257.148.454h.48l-.388.281.148.455-.388-.281-.389.281.148-.455-.388-.28h.48zM2.704 7.862l.148.455h.48l-.388.281.148.455-.388-.281-.389.281.148-.455-.388-.28h.48zM4.316 3.848l.149.455h.48l-.389.281.149.454-.389-.28-.388.28.148-.454-.388-.281h.48zM4.316 5.454l.149.455h.48l-.389.28.149.455-.389-.28-.388.28.148-.455-.388-.28h.48zM4.316 7.06l.149.454h.48l-.389.281.149.455-.389-.281-.388.28.148-.454-.388-.28h.48zM1.48 8.25l-.15-.455.39-.28h-.48l-.012-.034c-.052.162-.1.327-.144.493l.007-.005.388.28zM2.315 5.841l.389-.28.388.28-.148-.454.388-.281h-.48l-.149-.455-.148.455h-.177l-.096.15.181.13-.148.455zM4.316 3.152l.389.28-.149-.454.389-.28h-.278c-.235.174-.463.36-.68.556l-.06.179.39-.281zM5.54 2.63l.39-.281.387.28-.148-.454.388-.28h-.48l-.02-.062a9.64 9.64 0 0 0-.48.26l.112.082-.148.455zM5.93 3.046l.147.454h.48l-.388.28.148.456-.388-.281-.388.28.148-.454-.388-.281h.48zM5.93 4.651l.147.455h.48l-.388.28.148.455-.388-.28-.388.28.148-.454-.388-.281h.48zM5.93 6.257l.147.454h.48l-.388.281.148.455-.388-.281-.388.281.148-.455-.388-.28h.48zM5.93 7.862l.147.455h.48l-.388.281.148.455-.388-.281-.388.281.148-.455-.388-.28h.48zM7.542 2.242l.148.455h.48l-.388.281.148.455-.388-.281-.389.28.149-.454-.389-.28h.48zM7.542 3.848l.148.455h.48l-.388.281.148.454-.388-.28-.389.28.149-.454-.389-.281h.48zM7.542 5.454l.148.455h.48l-.388.28.148.455-.388-.28-.389.28.149-.455-.389-.28h.48zM7.542 7.06l.148.454h.48l-.388.281.148.455-.388-.281-.389.28.149-.454-.389-.28h.48zM9.155 1.44l.148.454h.48l-.388.281.148.455-.388-.281-.389.28.149-.454-.389-.28h.48zM9.155 3.046l.148.454h.48l-.388.28.148.456-.388-.281-.389.28.149-.454-.389-.281h.48zM9.155 4.651l.148.455h.48l-.388.28.148.455-.388-.28-.389.28.149-.454-.389-.281h.48zM9.155 6.257l.148.454h.48l-.388.281.148.455-.388-.281-.389.281.149-.455-.389-.28h.48zM9.155 7.862l.148.455h.48l-.388.281.148.455-.388-.281-.389.281.149-.455-.389-.28h.48z"/>
        </g>
    </g>
</svg>
