<svg xmlns="http://www.w3.org/2000/svg" xmlns:xlink="http://www.w3.org/1999/xlink" width="24" height="24" viewBox="0 0 24 24">
    <defs>
        <path id="kt97o785ra" d="M2.47 18h15.06c1.54 0 2.5-1.67 1.73-3L11.73 1.99c-.77-1.33-2.69-1.33-3.46 0L.74 15c-.77 1.33.19 3 1.73 3zM10 11c-.55 0-1-.45-1-1V8c0-.55.45-1 1-1s1 .45 1 1v2c0 .55-.45 1-1 1zm1 4H9v-2h2v2z"/>
    </defs>
    <g fill="none" fill-rule="evenodd">
        <g>
            <g>
                <g>
                    <g transform="translate(-321 -210) translate(16 201) translate(305 9) translate(2 3)">
                        <mask id="ug12stq0vb" fill="#fff">
                            <use xlink:href="#kt97o785ra"/>
                        </mask>
                        <g fill="#000" mask="url(#ug12stq0vb)">
                            <path d="M0 0L24 0 24 24 0 24z" transform="translate(-2 -3)"/>
                        </g>
                    </g>
                </g>
            </g>
        </g>
    </g>
</svg>
