<svg width="32" height="32" xmlns="http://www.w3.org/2000/svg">
    <g fill="none" fill-rule="evenodd">
        <path d="M0 0h32v32H0z"/>
        <path d="M15.837 28.504H5.467a2.093 2.093 0 0 1-2.092-2.093V5.468c0-1.155.937-2.093 2.093-2.093h10.369c1.156 0 2.093.938 2.093 2.093V26.41a2.093 2.093 0 0 1-2.093 2.093" fill="#FFAC00"/>
        <path d="m13.757 3.444-8.795-.162a1.777 1.777 0 0 0-1.809 1.803l.325 21.755a1.92 1.92 0 0 0 1.874 1.892l.748.02 7.657-25.308z" fill="#FF8A00"/>
        <path fill="#FFF" d="M3.699 24.068H17.93V7.298H3.699z"/>
        <path fill="#FFAC00" d="M16.5 7h1.4v18h-1.4z"/>
        <path fill="#FF8A00" d="M3.5 7h1.4v18H3.5z"/>
        <path d="M15.837 28.879H5.467A2.47 2.47 0 0 1 3 26.41V5.468A2.471 2.471 0 0 1 5.468 3h10.369a2.471 2.471 0 0 1 2.468 2.468v4.769a.375.375 0 0 1-.75 0v-4.77a1.72 1.72 0 0 0-1.718-1.717H5.467A1.72 1.72 0 0 0 3.75 5.468V26.41a1.72 1.72 0 0 0 1.718 1.718h10.369a1.72 1.72 0 0 0 1.718-1.718V13.37a.375.375 0 0 1 .75 0v13.04a2.47 2.47 0 0 1-2.468 2.469" fill="#000"/>
        <path d="M16.791 7.674H4.613c-.173 0-.313-.168-.313-.375s.14-.375.313-.375h12.178c.173 0 .314.168.314.375s-.14.375-.314.375M10.755 24.443h-6.22c-.13 0-.234-.168-.234-.375s.105-.375.234-.375h6.22c.13 0 .234.168.234.375s-.105.375-.234.375M9.77 26.22a.882.882 0 1 1 1.765 0 .882.882 0 0 1-1.764 0" fill="#000"/>
        <path d="M14.634 22.068a6.542 6.542 0 1 1 13.085 0 6.543 6.543 0 0 1-13.085 0" fill="#A605AD"/>
        <path d="M16.012 24.615a6.384 6.384 0 0 1 7.559-8.354 6.356 6.356 0 0 0-4.806-.2 6.384 6.384 0 0 0 .61 12.2 6.357 6.357 0 0 1-3.363-3.646" fill="#FFF"/>
        <path d="M16.664 22.068a4.514 4.514 0 1 1 9.027 0 4.514 4.514 0 0 1-9.027 0" fill="#FFF"/>
        <path d="M21.177 28.986c-3.814 0-6.917-3.104-6.917-6.918s3.103-6.918 6.917-6.918a6.927 6.927 0 0 1 6.918 6.918.375.375 0 0 1-.75 0 6.175 6.175 0 0 0-6.168-6.168 6.174 6.174 0 0 0-6.167 6.168 6.174 6.174 0 0 0 6.167 6.168 6.17 6.17 0 0 0 3.109-.84.374.374 0 1 1 .379.647 6.914 6.914 0 0 1-3.488.943" fill="#000"/>
        <path d="M20.817 23.492v-1.03h-1.068c-.23 0-.374-.16-.374-.366 0-.207.145-.375.374-.375h1.068v-1.029c0-.22.168-.389.389-.389.22 0 .389.168.389.39v1.028h1.03c.237 0 .374.168.374.375 0 .206-.137.366-.374.366h-1.03v1.03a.382.382 0 0 1-.39.396.382.382 0 0 1-.388-.396" fill="#000"/>
    </g>
</svg>
