<svg xmlns="http://www.w3.org/2000/svg" xmlns:xlink="http://www.w3.org/1999/xlink" width="24" height="24" viewBox="0 0 24 24">
    <defs>
        <path id="a" d="M13 0H2C.9 0 0 .9 0 2v13c0 .55.45 1 1 1s1-.45 1-1V3c0-.55.45-1 1-1h10c.55 0 1-.45 1-1s-.45-1-1-1zm.59 4.59l4.83 4.83c.37.37.58.88.58 1.41V20c0 1.1-.9 2-2 2H5.99C4.89 22 4 21.1 4 20l.01-14c0-1.1.89-2 1.99-2h6.17c.53 0 1.04.21 1.42.59zM13 11h4.5L12 5.5V10c0 .55.45 1 1 1z"/>
    </defs>
    <g fill="none" fill-rule="evenodd">
        <path d="M0 0h24v24H0z"/>
        <g transform="translate(2 1)">
            <mask id="b" fill="#fff">
                <use xlink:href="#a"/>
            </mask>
            <use fill="#000" fill-rule="nonzero" xlink:href="#a"/>
            <g fill="#FFF" mask="url(#b)">
                <path d="M-2-1h24v24H-2z"/>
            </g>
        </g>
    </g>
</svg>
