<svg xmlns="http://www.w3.org/2000/svg" width="20" height="21" viewBox="0 0 20 21">
    <g fill="none" fill-rule="evenodd">
        <g>
            <g>
                <g transform="translate(-241.000000, -805.000000) translate(16.000000, 790.000000) translate(225.000000, 15.913514)">
                    <path fill="#FDAF27" d="M10 .995c-4.968 0-9 4.01-9 8.95 0 4.942 4.032 8.952 9 8.952s9-4.01 9-8.951c0-4.941-4.032-8.951-9-8.951z"/>
                    <path fill="#000" d="M10 14.919c-.55 0-1-.448-1-.995V9.946c0-.547.45-.995 1-.995s1 .448 1 .995v3.978c0 .547-.45.995-1 .995z"/>
                    <circle cx="10" cy="5.968" r="1" fill="#000"/>
                </g>
            </g>
        </g>
    </g>
</svg>
