<svg xmlns="http://www.w3.org/2000/svg" width="24" height="24" viewBox="0 0 24 24">
    <g fill="none" fill-rule="evenodd">
        <g>
            <g>
                <g transform="translate(-243 -558) translate(16 212) translate(227 346)">
                    <circle cx="12" cy="12" r="11.25" fill="#FF0048" fill-rule="nonzero"/>
                    <g>
                        <path d="M0 0L18 0 18 18 0 18z" transform="translate(3 3)"/>
                        <path fill="#FFF" fill-rule="nonzero" d="M13.725 4.282c-.293-.292-.765-.292-1.057 0L9 7.125l-3.668-2.85c-.292-.293-.764-.293-1.057 0-.293.292-.293.765 0 1.057L7.125 9l-2.85 3.668c-.293.292-.293.764 0 1.057.292.293.765.293 1.057 0L9 10.875l3.668 2.85c.292.293.764.293 1.057 0 .293-.293.293-.765 0-1.057L10.875 9l2.85-3.668c.285-.284.285-.764 0-1.05z" transform="translate(3 3)"/>
                    </g>
                </g>
            </g>
        </g>
    </g>
</svg>
