<svg xmlns="http://www.w3.org/2000/svg" width="24" height="24" viewBox="0 0 24 24">
    <g fill="none" fill-rule="evenodd">
        <g>
            <g>
                <path d="M0 0H24V24H0z" transform="translate(-335 -33) translate(335 33)"/>
                <g fill="#000" fill-rule="nonzero">
                    <path d="M16 0H2C.9 0 0 .9 0 2v14c0 1.1.9 2 2 2h14c1.1 0 2-.9 2-2V2c0-1.1-.9-2-2-2zm0 16H2V2h14v14z" transform="translate(-335 -33) translate(335 33) translate(3 3)"/>
                    <path d="M4 9H6V14H4zM12 4H14V14H12zM8 11H10V14H8zM8 7H10V9H8z" transform="translate(-335 -33) translate(335 33) translate(3 3)"/>
                </g>
            </g>
        </g>
    </g>
</svg>
