<svg xmlns="http://www.w3.org/2000/svg" xmlns:xlink="http://www.w3.org/1999/xlink" width="40" height="40" viewBox="0 0 40 40">
    <defs>
        <path id="p0lmvw5qza" d="M0 0L37.588 0 37.588 37.073 0 37.073z"/>
    </defs>
    <g fill="none" fill-rule="evenodd">
        <g>
            <g transform="translate(1 1)">
                <mask id="qyavhytkib" fill="#fff">
                    <use xlink:href="#p0lmvw5qza"/>
                </mask>
                <path fill="#FFF" d="M27.721 2.23c6.703 5.37 10.937 18.427 9.631 26.635-2.347 14.762-25.746 6.147-33.228.848C-9.789 19.879 14.917-8.03 27.721 2.23" mask="url(#qyavhytkib)"/>
            </g>
            <g>
                <path fill="#FDAF27" stroke="#000" stroke-width=".889" d="M9.358 9.35c.41-.11.827-.043 1.168.151.34.194.606.515.713.916h0l2.145 8.006 8.986-.993c.147.018.827.13 1.437.718.364.351.7.869.901 1.621h0l.339 1.263.17.636.34 1.27c.28 1.046.296 2.899.047 4.01-.336 1.5-.968 2.726-.968 2.726-.163.35-.585.7-.939.795h0l-7.024 1.882c-.815.218-1.971-.068-2.59-.647h0l-7.47-6.988c-.3-.297-.45-.687-.45-1.078.002-.39.154-.78.456-1.081.302-.3.697-.45 1.091-.451.394-.001.787.146 1.086.444h0l3.413 3.395-3.092-11.541-.855-3.19c-.108-.404-.042-.815.156-1.151.198-.338.526-.602.94-.712z" transform="translate(8 3)"/>
                <g>
                    <path fill="#52005B" d="M4.633 5.957c0 .365-.296.662-.662.662-.365 0-.662-.297-.662-.662V2.26L1.13 4.44c-.258.258-.677.258-.935 0-.259-.26-.259-.678 0-.937l3.31-3.31c.258-.258.677-.258.935 0l3.31 3.31c.258.259.258.678 0 .936-.26.259-.678.259-.937 0L4.633 2.26v3.698z" transform="translate(8 3) rotate(90 8.222 8.667)"/>
                    <path fill="#A605AD" d="M4.633 9.928c0-.366-.296-.662-.662-.662-.365 0-.662.296-.662.662v3.697l-2.18-2.18c-.258-.258-.677-.258-.935 0-.259.259-.259.678 0 .936l3.31 3.31c.258.258.677.258.935 0l3.31-3.31c.258-.258.258-.677 0-.936-.26-.258-.678-.258-.937 0l-2.179 2.18V9.928z" transform="translate(8 3) rotate(90 8.222 8.667)"/>
                </g>
            </g>
        </g>
    </g>
</svg>
