<svg xmlns="http://www.w3.org/2000/svg" xmlns:xlink="http://www.w3.org/1999/xlink" width="24" height="24" viewBox="0 0 24 24">
    <defs>
        <path id="c24cdmnq8a" d="M18 8h-1V6c0-2.76-2.24-5-5-5S7 3.24 7 6v2H6c-1.1 0-2 .9-2 2v10c0 1.1.9 2 2 2h12c1.1 0 2-.9 2-2V10c0-1.1-.9-2-2-2zm-6 9c-1.1 0-2-.9-2-2s.9-2 2-2 2 .9 2 2-.9 2-2 2zM9 8V6c0-1.66 1.34-3 3-3s3 1.34 3 3v2H9z"/>
    </defs>
    <g fill="none" fill-rule="evenodd" opacity=".25">
        <g>
            <g>
                <g transform="translate(-176 -274) translate(145 274) translate(31)">
                    <g>
                        <path d="M0 0L24 0 24 24 0 24z"/>
                        <path d="M0 0L24 0 24 24 0 24z" opacity=".87"/>
                    </g>
                    <mask id="ftf48o1dyb" fill="#fff">
                        <use xlink:href="#c24cdmnq8a"/>
                    </mask>
                    <g fill="#000" mask="url(#ftf48o1dyb)">
                        <path d="M0 0L24 0 24 24 0 24z"/>
                    </g>
                </g>
            </g>
        </g>
    </g>
</svg>
