<svg xmlns="http://www.w3.org/2000/svg" xmlns:xlink="http://www.w3.org/1999/xlink" width="32" height="32" viewBox="0 0 32 32">
    <defs>
        <path id="vtyvlef0ea" d="M0 0L16.597 0 16.597 10.805 0 10.805z"/>
        <path id="d6qweuhlec" d="M0 0L25.333 0 25.333 21.607 0 21.607z"/>
    </defs>
    <g fill="none" fill-rule="evenodd">
        <g>
            <g>
                <g>
                    <g>
                        <g>
                            <path fill="#A605AD" d="M4.735 10.673h3.013v-7.04c0-.352.28-.636.625-.636h8.589c.343 0 .623.284.623.636v7.04H20.6V2.36c0-1.02-.812-1.846-1.814-1.846H6.548c-1.001 0-1.813.826-1.813 1.846v8.313z" transform="translate(-39 -519) translate(0 326) translate(16 177) translate(23 16) translate(4)"/>
                            <g transform="translate(-39 -519) translate(0 326) translate(16 177) translate(23 16) translate(4) translate(4.368)">
                                <mask id="y3b8kd1jcb" fill="#fff">
                                    <use xlink:href="#vtyvlef0ea"/>
                                </mask>
                                <path fill="#000" d="M.366 10.805c-.202 0-.366-.167-.366-.373V2.219C0 .995.979-.001 2.18-.001h12.237c1.202 0 2.18.996 2.18 2.22v6.597c0 .205-.164.372-.366.372-.202 0-.366-.167-.366-.372V2.219c0-.812-.65-1.474-1.448-1.474H2.18c-.798 0-1.448.662-1.448 1.474v8.213c0 .206-.163.373-.366.373" mask="url(#y3b8kd1jcb)"/>
                            </g>
                            <path fill="#000" d="M17.586 11.138c-.203 0-.367-.167-.367-.373V3.513c0-.028-.022-.051-.05-.051H8.374c-.143 0-.259.117-.259.263v5.299c0 .206-.164.373-.366.373-.202 0-.366-.167-.366-.373v-5.3c0-.555.444-1.007.99-1.007h8.798c.431 0 .782.357.782.796v7.252c0 .206-.164.373-.366.373" transform="translate(-39 -519) translate(0 326) translate(16 177) translate(23 16) translate(4)"/>
                            <path fill="#FFAD00" d="M20.95 31.628H4.384c-2.218 0-4.017-1.831-4.017-4.09V14.855c0-2.258 1.799-4.088 4.017-4.088h16.568c2.218 0 4.016 1.83 4.016 4.088v12.685c0 2.258-1.798 4.089-4.016 4.089" transform="translate(-39 -519) translate(0 326) translate(16 177) translate(23 16) translate(4)"/>
                            <path fill="#FF8A00" d="M10.786 10.765H4.513c-2.087 0-3.779 1.722-3.779 3.847v13.17c0 2.124 1.692 3.846 3.779 3.846h3.13l3.143-20.863z" transform="translate(-39 -519) translate(0 326) translate(16 177) translate(23 16) translate(4)"/>
                            <g transform="translate(-39 -519) translate(0 326) translate(16 177) translate(23 16) translate(4) translate(0 10.393)">
                                <mask id="muw6nojr3d" fill="#fff">
                                    <use xlink:href="#d6qweuhlec"/>
                                </mask>
                                <path fill="#000" d="M21.188 21.607H4.145C1.86 21.607 0 19.714 0 17.388V4.22C0 1.892 1.86 0 4.145 0h17.043c2.287 0 4.145 1.892 4.145 4.219v6.471c0 .205-.164.372-.365.372-.202 0-.367-.167-.367-.372V4.22c0-1.916-1.53-3.474-3.413-3.474H4.145C2.264.745.732 2.303.732 4.219v13.17c0 1.914 1.532 3.473 3.413 3.473h17.043c1.883 0 3.413-1.559 3.413-3.474 0-.206.165-.373.367-.373.201 0 .365.167.365.373 0 2.326-1.858 4.22-4.145 4.22" mask="url(#muw6nojr3d)"/>
                            </g>
                            <path fill="#FFF" d="M12.667 21.937c-1.26 0-2.28-1.039-2.28-2.32 0-1.284 1.02-2.323 2.28-2.323 1.26 0 2.28 1.04 2.28 2.322s-1.02 2.321-2.28 2.321" transform="translate(-39 -519) translate(0 326) translate(16 177) translate(23 16) translate(4)"/>
                            <path fill="#FFF" d="M11.386 24.38v-3.44c0-.397.315-.718.705-.718h1.152c.389 0 .704.32.704.718v3.44c0 .396-.315.719-.704.719H12.09c-.39 0-.705-.323-.705-.72" transform="translate(-39 -519) translate(0 326) translate(16 177) translate(23 16) translate(4)"/>
                        </g>
                    </g>
                </g>
            </g>
        </g>
    </g>
</svg>
