<svg xmlns="http://www.w3.org/2000/svg" xmlns:xlink="http://www.w3.org/1999/xlink" width="32" height="32" viewBox="0 0 32 32">
    <defs>
        <path id="prefix__a" d="M25.333 4H6.667C5.2 4 4 5.2 4 6.667v18.666C4 26.8 5.2 28 6.667 28h18.666C26.8 28 28 26.8 28 25.333V6.667C28 5.2 26.8 4 25.333 4zm-8 18.667h-6.666c-.734 0-1.334-.6-1.334-1.334 0-.733.6-1.333 1.334-1.333h6.666c.734 0 1.334.6 1.334 1.333 0 .734-.6 1.334-1.334 1.334zm4-5.334H10.667c-.734 0-1.334-.6-1.334-1.333s.6-1.333 1.334-1.333h10.666c.734 0 1.334.6 1.334 1.333s-.6 1.333-1.334 1.333zm0-5.333H10.667c-.734 0-1.334-.6-1.334-1.333 0-.734.6-1.334 1.334-1.334h10.666c.734 0 1.334.6 1.334 1.334 0 .733-.6 1.333-1.334 1.333z"/>
    </defs>
    <g fill="none" fill-rule="evenodd">
        <path d="M0 0L32 0 32 32 0 32z"/>
        <mask id="prefix__b" fill="#fff">
            <use xlink:href="#prefix__a"/>
        </mask>
        <use fill="#000" fill-rule="nonzero" xlink:href="#prefix__a"/>
        <g fill="#000" mask="url(#prefix__b)">
            <path d="M0 0L32 0 32 32 0 32z"/>
        </g>
    </g>
</svg>
