<svg width="24" height="24" viewBox="0 0 24 24" xmlns="http://www.w3.org/2000/svg" xmlns:xlink="http://www.w3.org/1999/xlink">
    <defs>
        <path d="M17.833 5.2H17V3.5h-1.667v1.7H8.667V3.5H7v1.7h-.833c-.925 0-1.659.765-1.659 1.7L4.5 18.8c0 .935.742 1.7 1.667 1.7h11.666c.917 0 1.667-.765 1.667-1.7V6.9c0-.935-.75-1.7-1.667-1.7zM18 9v10H6V9h12zm-6.75 6.4h-3a.75.75 0 1 0 0 1.5h3a.75.75 0 1 0 0-1.5zm0-4h-3a.75.75 0 1 0 0 1.5h3a.75.75 0 1 0 0-1.5z" id="a"/>
    </defs>
    <g fill="none" fill-rule="evenodd">
        <path d="M0 0h24v24H0z"/>
        <mask id="b" fill="#fff">
            <use xlink:href="#a"/>
        </mask>
        <use fill="#000" fill-rule="nonzero" xlink:href="#a"/>
        <g mask="url(#b)" fill="#000">
            <path d="M0 0h24v24H0z"/>
        </g>
        <path stroke="#000" stroke-width="1.2" stroke-linejoin="round" d="m13.473 11.389 1.152 1.194 1.742-1.764M13.473 15.389l1.152 1.194 1.742-1.764"/>
    </g>
</svg>
