<?xml version="1.0" encoding="UTF-8"?>
<svg width="30px" height="34px" viewBox="0 0 30 34" version="1.1" xmlns="http://www.w3.org/2000/svg" xmlns:xlink="http://www.w3.org/1999/xlink">
    <!-- Generator: sketchtool 61 (101010) - https://sketch.com -->
    <title>EBE60B9D-0049-463E-8CBF-2ADD60ECEE28</title>
    <desc>Created with sketchtool.</desc>
    <g id="contacts---22-oct" stroke="none" stroke-width="1" fill="none" fill-rule="evenodd">
        <g id="Artboard-/-Authentication-Pin-Process" transform="translate(-70.000000, -582.000000)">
            <g id="Group-2" transform="translate(0.000000, 40.000000)">
                <g id="PIN-/-Keypad-01-Grey" transform="translate(47.000000, 243.000000)">
                    <g id="Keyboard-/-Keypad-01">
                        <g id="ico_fingerprint" transform="translate(0.000000, 276.000000)">
                            <circle id="Oval" cx="38" cy="38" r="38"></circle>
                            <g id="Icon-/-Line-/-fingerprint" transform="translate(18.000000, 20.000000)">
                                <g>
                                    <polygon id="Path" points="0 0 40 0 40 40 0 40"></polygon>
                                    <path d="M29.6833333,7.45 C29.55,7.45 29.4166667,7.41666667 29.3,7.35 C26.1,5.7 23.3333333,5 20.0166667,5 C16.7166667,5 13.5833333,5.78333333 10.7333333,7.35 C10.3333333,7.56666667 9.83333333,7.41666667 9.6,7.01666667 C9.38333333,6.61666667 9.53333333,6.1 9.93333333,5.88333333 C13.0333333,4.2 16.4333333,3.33333333 20.0166667,3.33333333 C23.5666667,3.33333333 26.6666667,4.11666667 30.0666667,5.86666667 C30.4833333,6.08333333 30.6333333,6.58333333 30.4166667,6.98333333 C30.2666667,7.28333333 29.9833333,7.45 29.6833333,7.45 L29.6833333,7.45 Z M5.83333333,16.2 C5.66666667,16.2 5.5,16.15 5.35,16.05 C4.96666667,15.7833333 4.88333333,15.2666667 5.15,14.8833333 C6.8,12.55 8.9,10.7166667 11.4,9.43333333 C16.6333333,6.73333333 23.3333333,6.71666667 28.5833333,9.41666667 C31.0833333,10.7 33.1833333,12.5166667 34.8333333,14.8333333 C35.1,15.2 35.0166667,15.7333333 34.6333333,16 C34.25,16.2666667 33.7333333,16.1833333 33.4666667,15.8 C31.9666667,13.7 30.0666667,12.05 27.8166667,10.9 C23.0333333,8.45 16.9166667,8.45 12.15,10.9166667 C9.88333333,12.0833333 7.98333333,13.75 6.48333333,15.85 C6.35,16.0833333 6.1,16.2 5.83333333,16.2 L5.83333333,16.2 Z M16.25,36.3166667 C16.0333333,36.3166667 15.8166667,36.2333333 15.6666667,36.0666667 C14.2166667,34.6166667 13.4333333,33.6833333 12.3166667,31.6666667 C11.1666667,29.6166667 10.5666667,27.1166667 10.5666667,24.4333333 C10.5666667,19.4833333 14.8,15.45 20,15.45 C25.2,15.45 29.4333333,19.4833333 29.4333333,24.4333333 C29.4333333,24.9 29.0666667,25.2666667 28.6,25.2666667 C28.1333333,25.2666667 27.7666667,24.9 27.7666667,24.4333333 C27.7666667,20.4 24.2833333,17.1166667 20,17.1166667 C15.7166667,17.1166667 12.2333333,20.4 12.2333333,24.4333333 C12.2333333,26.8333333 12.7666667,29.05 13.7833333,30.85 C14.85,32.7666667 15.5833333,33.5833333 16.8666667,34.8833333 C17.1833333,35.2166667 17.1833333,35.7333333 16.8666667,36.0666667 C16.6833333,36.2333333 16.4666667,36.3166667 16.25,36.3166667 Z M28.2,33.2333333 C26.2166667,33.2333333 24.4666667,32.7333333 23.0333333,31.75 C20.55,30.0666667 19.0666667,27.3333333 19.0666667,24.4333333 C19.0666667,23.9666667 19.4333333,23.6 19.9,23.6 C20.3666667,23.6 20.7333333,23.9666667 20.7333333,24.4333333 C20.7333333,26.7833333 21.9333333,29 23.9666667,30.3666667 C25.15,31.1666667 26.5333333,31.55 28.2,31.55 C28.6,31.55 29.2666667,31.5 29.9333333,31.3833333 C30.3833333,31.3 30.8166667,31.6 30.9,32.0666667 C30.9833333,32.5166667 30.6833333,32.95 30.2166667,33.0333333 C29.2666667,33.2166667 28.4333333,33.2333333 28.2,33.2333333 L28.2,33.2333333 Z M24.85,36.6666667 C24.7833333,36.6666667 24.7,36.65 24.6333333,36.6333333 C21.9833333,35.9 20.25,34.9166667 18.4333333,33.1333333 C16.1,30.8166667 14.8166667,27.7333333 14.8166667,24.4333333 C14.8166667,21.7333333 17.1166667,19.5333333 19.95,19.5333333 C22.7833333,19.5333333 25.0833333,21.7333333 25.0833333,24.4333333 C25.0833333,26.2166667 26.6333333,27.6666667 28.55,27.6666667 C30.4666667,27.6666667 32.0166667,26.2166667 32.0166667,24.4333333 C32.0166667,18.15 26.6,13.05 19.9333333,13.05 C15.2,13.05 10.8666667,15.6833333 8.91666667,19.7666667 C8.26666667,21.1166667 7.93333333,22.7 7.93333333,24.4333333 C7.93333333,25.7333333 8.05,27.7833333 9.05,30.45 C9.21666667,30.8833333 9,31.3666667 8.56666667,31.5166667 C8.13333333,31.6833333 7.65,31.45 7.5,31.0333333 C6.68333333,28.85 6.28333333,26.6833333 6.28333333,24.4333333 C6.28333333,22.4333333 6.66666667,20.6166667 7.41666667,19.0333333 C9.63333333,14.3833333 14.55,11.3666667 19.9333333,11.3666667 C27.5166667,11.3666667 33.6833333,17.2166667 33.6833333,24.4166667 C33.6833333,27.1166667 31.3833333,29.3166667 28.55,29.3166667 C25.7166667,29.3166667 23.4166667,27.1166667 23.4166667,24.4166667 C23.4166667,22.6333333 21.8666667,21.1833333 19.95,21.1833333 C18.0333333,21.1833333 16.4833333,22.6333333 16.4833333,24.4166667 C16.4833333,27.2666667 17.5833333,29.9333333 19.6,31.9333333 C21.1833333,33.5 22.7,34.3666667 25.05,35.0166667 C25.5,35.1333333 25.75,35.6 25.6333333,36.0333333 C25.55,36.4166667 25.2,36.6666667 24.85,36.6666667 L24.85,36.6666667 Z" id="Shape" fill="#000000" fill-rule="nonzero"></path>
                                </g>
                            </g>
                        </g>
                    </g>
                </g>
            </g>
        </g>
    </g>
</svg>