<svg xmlns="http://www.w3.org/2000/svg" width="32" height="32" viewBox="0 0 32 32">
    <g fill="none" fill-rule="evenodd">
        <g>
            <g>
                <g>
                    <g>
                        <g>
                            <path fill="#FFAC00" d="M20.224 30.268H4.288C2.14 30.268.4 28.541.4 26.41V4.256c0-2.13 1.74-3.858 3.887-3.858h15.936c2.146 0 3.887 1.728 3.887 3.858V26.41c0 2.131-1.74 3.858-3.887 3.858" transform="translate(-39 -508) translate(0 492) translate(16) translate(23 16) translate(2.667 .667)"/>
                            <path fill="#FFAC00" d="M20.224 30.268H4.288C2.14 30.268.4 28.541.4 26.41V4.256c0-2.13 1.74-3.858 3.887-3.858h15.936c2.146 0 3.887 1.728 3.887 3.858V26.41c0 2.131-1.74 3.858-3.887 3.858" transform="translate(-39 -508) translate(0 492) translate(16) translate(23 16) translate(2.667 .667)"/>
                            <path fill="#FF8A00" d="M3.46 26.41V4.257C3.46 2.126 5.202.4 7.348.4h-3.06C2.141.399.401 2.125.401 4.256v22.155c0 2.13 1.74 3.858 3.886 3.858h3.06c-2.146 0-3.886-1.727-3.886-3.858" transform="translate(-39 -508) translate(0 492) translate(16) translate(23 16) translate(2.667 .667)"/>
                            <path fill="#000" fill-rule="nonzero" d="M20.664 0c.221 0 .401.178.401.398 0 .193-.138.353-.32.39l-.081.009H3.848C2.226.797.9 2.056.808 3.643l-.005.177v23.027c0 1.61 1.268 2.926 2.866 3.018l.179.005h16.816c1.622 0 2.948-1.259 3.04-2.845l.006-.178V10.796c0-.22.18-.398.401-.398.194 0 .356.136.393.318l.009.08v16.051c0 2.041-1.615 3.709-3.645 3.814l-.204.006H3.848c-2.057 0-3.736-1.602-3.843-3.617L0 26.847V3.82C0 1.78 1.614.11 3.644.005L3.848 0h16.816z" transform="translate(-39 -508) translate(0 492) translate(16) translate(23 16) translate(2.667 .667)"/>
                            <path fill="#FFF" d="M5.868 15.369c0-3.865 3.156-6.996 7.05-6.996 3.893 0 7.049 3.131 7.049 6.996 0 3.864-3.156 6.997-7.05 6.997-3.893 0-7.049-3.133-7.049-6.997" transform="translate(-39 -508) translate(0 492) translate(16) translate(23 16) translate(2.667 .667)"/>
                            <path fill="#FDD8FF" d="M8.016 15.369c0-2.687 2.194-4.865 4.901-4.865 2.708 0 4.902 2.178 4.902 4.865 0 2.687-2.194 4.866-4.902 4.866-2.707 0-4.901-2.179-4.901-4.866" transform="translate(-39 -508) translate(0 492) translate(16) translate(23 16) translate(2.667 .667)"/>
                            <path fill="#000" fill-rule="nonzero" d="M12.918 7.974c1.463 0 2.865.42 4.065 1.197.186.12.238.367.117.551-.12.185-.37.236-.555.116-1.07-.693-2.32-1.067-3.627-1.067-3.672 0-6.648 2.954-6.648 6.598 0 3.644 2.976 6.598 6.648 6.598 3.67 0 6.647-2.954 6.647-6.598 0-.585-.076-1.159-.225-1.711-.058-.213.07-.431.284-.488.214-.057.434.07.491.282.167.62.253 1.262.253 1.917 0 4.084-3.336 7.395-7.45 7.395-4.115 0-7.45-3.311-7.45-7.395s3.335-7.395 7.45-7.395z" transform="translate(-39 -508) translate(0 492) translate(16) translate(23 16) translate(2.667 .667)"/>
                            <path fill="#000" fill-rule="nonzero" d="M12.917 9.839c1.095 0 2.144.314 3.04.894.186.12.239.367.118.551-.121.185-.37.237-.556.117-.767-.497-1.664-.766-2.602-.766-2.634 0-4.769 2.12-4.769 4.734 0 2.615 2.135 4.735 4.77 4.735 2.634 0 4.77-2.12 4.77-4.735 0-.42-.056-.83-.163-1.228-.057-.212.07-.43.284-.488.214-.057.434.07.491.282.126.464.19.945.19 1.434 0 3.055-2.495 5.531-5.573 5.531-3.077 0-5.572-2.476-5.572-5.53 0-3.055 2.495-5.531 5.572-5.531z" transform="translate(-39 -508) translate(0 492) translate(16) translate(23 16) translate(2.667 .667)"/>
                            <path fill="#000" fill-rule="nonzero" d="M12.917 11.725c.72 0 1.412.207 2.004.589.186.12.239.366.118.55-.121.185-.37.237-.555.117-.463-.298-1.003-.46-1.567-.46-1.585 0-2.87 1.275-2.87 2.848s1.286 2.849 2.87 2.849c1.585 0 2.87-1.276 2.87-2.85 0-.251-.033-.5-.097-.737-.058-.213.07-.431.283-.488.214-.057.434.069.492.281.082.305.125.623.125.945 0 2.013-1.645 3.645-3.673 3.645s-3.672-1.632-3.672-3.645 1.644-3.644 3.672-3.644zM12.92 5.45c.194 0 .356.137.394.318l.008.08V7.99c0 .22-.18.398-.403.398-.195 0-.357-.136-.395-.318l-.008-.08V5.848c0-.22.18-.398.403-.398zM12.92 22.083c.194 0 .356.136.394.318l.008.08v2.141c0 .22-.18.398-.403.398-.195 0-.357-.136-.395-.318l-.008-.08v-2.141c0-.22.18-.398.403-.398zM22.374 14.837c.222 0 .402.178.402.398 0 .192-.138.353-.32.39l-.082.008h-2.157c-.222 0-.401-.178-.401-.398 0-.193.137-.353.32-.39l.08-.008h2.158zM5.618 14.837c.221 0 .401.178.401.398 0 .192-.137.353-.32.39l-.081.008H3.46c-.222 0-.402-.178-.402-.398 0-.193.138-.353.32-.39l.082-.008h2.157z" transform="translate(-39 -508) translate(0 492) translate(16) translate(23 16) translate(2.667 .667)"/>
                            <path stroke="#000" stroke-linecap="round" stroke-linejoin="round" stroke-width=".5" d="M14.308 15.074L23.123 6.325" transform="translate(-39 -508) translate(0 492) translate(16) translate(23 16) translate(2.667 .667)"/>
                            <path fill="#D800B6" d="M25.45 3.929L24.733 1.796 19.915 6.578 20.632 8.711 22.782 9.422 27.599 4.64z" transform="translate(-39 -508) translate(0 492) translate(16) translate(23 16) translate(2.667 .667)"/>
                            <path stroke="#000" stroke-linecap="round" stroke-linejoin="round" stroke-width=".5" d="M25.95 6.277L27.599 4.64 25.45 3.928 24.733 1.795 19.915 6.577 20.632 8.71 22.782 9.422" transform="translate(-39 -508) translate(0 492) translate(16) translate(23 16) translate(2.667 .667)"/>
                            <path fill="#000" fill-rule="nonzero" d="M20.664 0c.221 0 .401.178.401.398 0 .193-.138.353-.32.39l-.081.009H3.848C2.226.797.9 2.056.808 3.643l-.005.177v23.027c0 1.61 1.268 2.926 2.866 3.018l.179.005h16.816c1.622 0 2.948-1.259 3.04-2.845l.006-.178V10.796c0-.22.18-.398.401-.398.194 0 .356.136.393.318l.009.08v16.051c0 2.041-1.615 3.709-3.645 3.814l-.204.006H3.848c-2.057 0-3.736-1.602-3.843-3.617L0 26.847V3.82C0 1.78 1.614.11 3.644.005L3.848 0h16.816z" transform="translate(-39 -508) translate(0 492) translate(16) translate(23 16) translate(2.667 .667)"/>
                            <path fill="#FFF" d="M5.868 15.369c0-3.865 3.156-6.996 7.05-6.996 3.893 0 7.049 3.131 7.049 6.996 0 3.864-3.156 6.997-7.05 6.997-3.893 0-7.049-3.133-7.049-6.997" transform="translate(-39 -508) translate(0 492) translate(16) translate(23 16) translate(2.667 .667)"/>
                            <path fill="#A605AD" d="M8.016 15.369c0-2.687 2.194-4.865 4.901-4.865 2.708 0 4.902 2.178 4.902 4.865 0 2.687-2.194 4.866-4.902 4.866-2.707 0-4.901-2.179-4.901-4.866" transform="translate(-39 -508) translate(0 492) translate(16) translate(23 16) translate(2.667 .667)"/>
                            <path fill="#FFF" d="M9.868 15.369c0-1.672 1.366-3.026 3.05-3.026 1.683 0 3.049 1.354 3.049 3.026 0 1.672-1.366 3.027-3.05 3.027-1.683 0-3.049-1.355-3.049-3.027" transform="translate(-39 -508) translate(0 492) translate(16) translate(23 16) translate(2.667 .667)"/>
                            <path fill="#000" fill-rule="nonzero" d="M12.918 7.974c1.463 0 2.865.42 4.065 1.197.186.12.238.367.117.551-.12.185-.37.236-.555.116-1.07-.693-2.32-1.067-3.627-1.067-3.672 0-6.648 2.954-6.648 6.598 0 3.644 2.976 6.598 6.648 6.598 3.67 0 6.647-2.954 6.647-6.598 0-.585-.076-1.159-.225-1.711-.058-.213.07-.431.284-.488.214-.057.434.07.491.282.167.62.253 1.262.253 1.917 0 4.084-3.336 7.395-7.45 7.395-4.115 0-7.45-3.311-7.45-7.395s3.335-7.395 7.45-7.395z" transform="translate(-39 -508) translate(0 492) translate(16) translate(23 16) translate(2.667 .667)"/>
                            <path fill="#000" fill-rule="nonzero" d="M12.92 5.45c.194 0 .356.137.394.318l.008.08V7.99c0 .22-.18.398-.403.398-.195 0-.357-.136-.395-.318l-.008-.08V5.848c0-.22.18-.398.403-.398zM12.92 22.083c.194 0 .356.136.394.318l.008.08v2.141c0 .22-.18.398-.403.398-.195 0-.357-.136-.395-.318l-.008-.08v-2.141c0-.22.18-.398.403-.398zM22.374 14.837c.222 0 .402.178.402.398 0 .192-.138.353-.32.39l-.082.008h-2.157c-.222 0-.401-.178-.401-.398 0-.193.137-.353.32-.39l.08-.008h2.158zM5.618 14.837c.221 0 .401.178.401.398 0 .192-.137.353-.32.39l-.081.008H3.46c-.222 0-.402-.178-.402-.398 0-.193.138-.353.32-.39l.082-.008h2.157zM22.839 6.044c.157-.156.41-.156.567 0 .135.133.154.337.058.491l-.058.072-8.814 8.75c-.157.155-.411.155-.568 0-.134-.134-.153-.339-.057-.492l.057-.072 8.815-8.75z" transform="translate(-39 -508) translate(0 492) translate(16) translate(23 16) translate(2.667 .667)"/>
                            <path fill="#A605AD" d="M25.45 3.929L24.733 1.796 19.915 6.578 20.632 8.711 22.782 9.422 27.599 4.64z" transform="translate(-39 -508) translate(0 492) translate(16) translate(23 16) translate(2.667 .667)"/>
                            <path fill="#000" fill-rule="nonzero" d="M24.45 1.514c.19-.189.499-.14.628.077l.036.078.653 1.944 1.958.649c.255.084.35.381.212.592l-.055.067-1.648 1.638c-.157.155-.411.155-.568 0-.134-.134-.153-.338-.057-.492l.057-.072 1.19-1.182-1.533-.507c-.096-.031-.175-.098-.224-.184l-.03-.068-.511-1.522-4.184 4.152.575 1.71 1.96.65c.184.06.294.241.271.425l-.018.079c-.061.182-.243.291-.428.27l-.08-.018-2.15-.712c-.095-.031-.174-.097-.223-.184l-.03-.068-.716-2.132c-.039-.115-.023-.239.04-.339l.056-.07 4.818-4.781z" transform="translate(-39 -508) translate(0 492) translate(16) translate(23 16) translate(2.667 .667)"/>
                        </g>
                    </g>
                </g>
            </g>
        </g>
    </g>
</svg>
