<svg xmlns="http://www.w3.org/2000/svg" xmlns:xlink="http://www.w3.org/1999/xlink" width="24" height="24" viewBox="0 0 24 24">
    <defs>
        <path id="5dty5y6xsa" d="M5 20.3c-.677 0-1.227-.508-1.293-1.166L3.7 19v-3.04c0-.302.099-.583.284-.814l.1-.112 10.81-10.81c.664-.663 1.714-.7 2.42-.11l.122.11 2.34 2.34c.663.664.7 1.714.11 2.42l-.11.122L17.38 11.5 10.171 18.7H19.7c.442 0 .8.358.8.8 0 .442-.358.8-.8.8H5zm8.56-12.479l-8.261 8.26V18.7h2.608l8.271-8.261-2.618-2.618zm2.517-2.503l-.051.038L14.76 6.62l2.619 2.619 1.264-1.265c.047-.046.065-.11.056-.17l-.018-.057-.038-.051-2.34-2.34c-.062-.062-.153-.075-.227-.038z"/>
    </defs>
    <g fill="none" fill-rule="evenodd">
        <g>
            <path d="M0 0L24 0 24 24 0 24z"/>
            <mask id="4x70j3d3zb" fill="#fff">
                <use xlink:href="#5dty5y6xsa"/>
            </mask>
            <g fill="#000" fill-opacity=".4" mask="url(#4x70j3d3zb)">
                <path d="M0 0L24 0 24 24 0 24z"/>
            </g>
        </g>
    </g>
</svg>
