<svg xmlns="http://www.w3.org/2000/svg" width="32" height="32" viewBox="0 0 32 32">
    <g fill="none" fill-rule="evenodd">
        <g>
            <g>
                <g>
                    <g>
                        <path fill="#FFAC00" fill-rule="nonzero" d="M11.341 13.038l-3.403-2.314c-1.39-.945-3.264-.554-4.181.874L.515 16.64c-.173.268-.15.62.056.863.253.298.692.33.984.07l3.15-2.809c.707-.629 1.755-.638 2.471-.019l2.56 2.211" transform="translate(-39 -342) translate(16 326) translate(23 16) translate(0 .667)"/>
                        <path fill="#FF8A00" fill-rule="nonzero" d="M3.56 13.262c.917-1.428 2.791-1.82 4.182-.875l3.024 2.057.576-1.406-3.403-2.314c-1.39-.945-3.265-.554-4.183.873L.515 16.64c-.173.268-.15.62.056.863.05.058.109.104.17.142l2.819-4.383z" transform="translate(-39 -342) translate(16 326) translate(23 16) translate(0 .667)"/>
                        <path fill="#000" fill-rule="nonzero" d="M.368 17.683c-.283-.333-.315-.825-.077-1.194l3.241-5.042c.484-.752 1.224-1.265 2.085-1.445.86-.18 1.737-.005 2.47.493l3.403 2.315c.122.082.157.254.075.381-.082.126-.248.16-.372.076L7.79 10.953c-.612-.416-1.346-.564-2.066-.412-.72.15-1.34.58-1.744 1.208L.738 16.791c-.105.164-.09.383.035.531.155.183.426.203.606.044l3.15-2.809c.811-.722 1.997-.733 2.82-.023l2.56 2.212c.113.098.129.271.033.387-.096.116-.265.132-.378.033l-2.56-2.211c-.62-.535-1.512-.527-2.123.017l-3.15 2.809c-.403.358-1.013.314-1.363-.098" transform="translate(-39 -342) translate(16 326) translate(23 16) translate(0 .667)"/>
                        <path fill="#000" fill-rule="nonzero" d="M5.59 9.87c-.894.186-1.664.72-2.168 1.502L.18 16.414c-.27.42-.235.979.088 1.358.397.468 1.09.518 1.549.111l3.15-2.809c.562-.5 1.381-.507 1.95-.016l2.56 2.211c.169.147.422.125.565-.048.142-.172.12-.432-.048-.578l-2.56-2.213c-.874-.752-2.132-.741-2.993.025l-3.15 2.81c-.124.109-.312.095-.42-.031-.086-.103-.096-.255-.023-.37l3.242-5.04c.384-.599.973-1.007 1.66-1.15.684-.145 1.382-.005 1.966.392l3.403 2.314c.185.125.432.074.555-.114.122-.189.071-.445-.113-.57L8.16 10.383c-.762-.518-1.674-.7-2.57-.513zm2.424.738l3.403 2.314c.062.042.08.13.038.194s-.126.082-.189.039L7.863 10.84c-.642-.437-1.412-.591-2.166-.433-.754.158-1.404.608-1.827 1.267L.628 16.716c-.138.216-.12.501.045.695.203.24.558.265.792.058l3.15-2.81c.763-.679 1.876-.688 2.65-.022l2.56 2.213c.057.05.064.138.016.196-.049.06-.135.067-.192.017L7.09 14.85c-.669-.577-1.634-.569-2.295.019l-3.15 2.809c-.347.309-.875.271-1.176-.084-.245-.288-.272-.713-.067-1.032l3.241-5.042c.465-.722 1.175-1.214 2.001-1.387.827-.172 1.668-.005 2.371.474z" transform="translate(-39 -342) translate(16 326) translate(23 16) translate(0 .667)"/>
                        <path fill="#FFAC00" fill-rule="nonzero" d="M16.99 19.697l1.765 3.775c.72 1.542.08 3.39-1.426 4.125l-5.32 2.59c-.283.138-.62.066-.825-.176-.253-.297-.224-.749.068-1.008l3.15-2.808c.707-.63.86-1.694.362-2.506l-1.781-2.908" transform="translate(-39 -342) translate(16 326) translate(23 16) translate(0 .667)"/>
                        <path fill="#FF8A00" fill-rule="nonzero" d="M16.794 21.36l1.763 3.776c.13.277.214.566.259.855.317-.783.324-1.693-.062-2.519l-1.764-3.776-4.008 1.086.847 1.38 2.965-.802zM14.205 27.857c.59-.526.793-1.356.553-2.089-.097.157-.215.3-.356.426l-3.15 2.81c-.291.258-.322.71-.069 1.008.096.112.222.188.356.222l2.666-2.377z" transform="translate(-39 -342) translate(16 326) translate(23 16) translate(0 .667)"/>
                        <path fill="#000" fill-rule="nonzero" d="M10.98 30.191c-.348-.41-.307-1.038.096-1.395l3.15-2.81c.61-.543.742-1.449.311-2.151l-1.781-2.907c-.08-.128-.04-.298.084-.378.125-.08.29-.04.37.086l1.781 2.907c.573.933.398 2.136-.413 2.858l-3.15 2.81c-.179.158-.198.437-.043.62.126.148.336.194.508.108l5.322-2.591c.663-.322 1.164-.892 1.41-1.602.245-.71.205-1.475-.113-2.154l-1.763-3.776c-.065-.137-.008-.302.126-.367.133-.066.293-.008.357.129l1.764 3.775c.38.812.427 1.728.134 2.577-.294.849-.892 1.529-1.685 1.914l-5.322 2.591c-.389.191-.859.09-1.142-.244" transform="translate(-39 -342) translate(16 326) translate(23 16) translate(0 .667)"/>
                        <path fill="#000" fill-rule="nonzero" d="M16.817 19.327c-.199.097-.283.343-.187.548l1.763 3.775c.303.646.341 1.374.108 2.05-.235.677-.711 1.219-1.343 1.526l-5.322 2.591c-.118.059-.264.028-.351-.075-.108-.126-.094-.32.03-.43l3.15-2.808c.86-.767 1.045-2.044.438-3.033l-1.781-2.907c-.12-.19-.366-.248-.552-.129-.187.12-.244.374-.125.566l1.78 2.905c.396.647.276 1.478-.286 1.979l-3.15 2.809c-.457.406-.505 1.119-.108 1.586.323.38.857.495 1.3.277l5.32-2.59c.825-.401 1.448-1.109 1.753-1.992.305-.883.256-1.836-.14-2.68l-1.763-3.775c-.095-.205-.334-.292-.534-.193zm.114.244c.069-.034.15-.005.181.065l1.765 3.775c.365.78.41 1.659.128 2.474-.282.815-.855 1.467-1.617 1.837l-5.321 2.591c-.336.165-.742.078-.987-.21-.301-.355-.265-.897.082-1.205l3.15-2.81c.66-.587.802-1.566.337-2.325l-1.781-2.907c-.04-.065-.021-.15.042-.192.063-.04.148-.02.19.046l1.78 2.905c.537.876.374 2.005-.389 2.684l-3.15 2.81c-.233.207-.259.572-.055.811.165.194.439.253.664.141l5.321-2.59c.695-.338 1.22-.935 1.478-1.68.257-.744.215-1.547-.118-2.258l-1.763-3.776c-.033-.07-.005-.153.063-.186z" transform="translate(-39 -342) translate(16 326) translate(23 16) translate(0 .667)"/>
                        <path fill="#FFAC00" fill-rule="nonzero" d="M24.42 11.17c-1.164.936-2.857.815-3.883-.277-1.198-1.275-1.058-3.325.3-4.417 1.165-.936 2.858-.815 3.883.277 1.198 1.275 1.06 3.325-.3 4.418m4.361 1.805c1.803-3.204 2.518-6.632 2.797-9.05C31.79 2.083 30.412.456 28.6.417c-2.374-.053-5.785.197-9.131 1.584-4.616 1.912-9.212 8.439-11.671 14.67-.128.324-.066.694.158.958l4.13 4.868c.223.262.573.377.903.292 6.36-1.631 13.304-5.393 15.791-9.813" transform="translate(-39 -342) translate(16 326) translate(23 16) translate(0 .667)"/>
                        <path fill="#FF8A00" fill-rule="nonzero" d="M15.788 21.895c-4.044-6.765-1.44-12.658 1.003-14.968 1.274-1.195 2.6-2.128 3.927-2.678 3.346-1.388 6.758-1.638 9.132-1.585.654.014 1.25.237 1.737.601C31.447 1.711 30.19.452 28.6.417c-2.375-.053-5.785.197-9.131 1.585-1.372.567-2.742 1.546-4.055 2.802l-.014.012c-3.134 3.008-5.459 6.831-7.182 10.839l-.075.176c-.12.281-.234.56-.345.84-.128.324-.067.694.158.958l1.091 1.286 3.038 3.582c.224.263.573.377.904.291.93-.238 1.875-.524 2.816-.85l-.018-.043z" transform="translate(-39 -342) translate(16 326) translate(23 16) translate(0 .667)"/>
                        <path fill="#000" fill-rule="nonzero" d="M26.696 5.149C24.665 2.754 24.641.688 24.641.6c0-.151.12-.274.268-.274.148 0 .268.122.269.273 0 .02.032 1.96 1.923 4.188.6.706 1.256 1.292 1.951 1.738.125.082.164.251.085.38-.079.127-.244.167-.37.086-.74-.475-1.436-1.096-2.071-1.843" transform="translate(-39 -342) translate(16 326) translate(23 16) translate(0 .667)"/>
                        <path fill="#000" fill-rule="nonzero" d="M24.909.192c-.22 0-.4.183-.4.41 0 1.112.53 2.8 2.087 4.635.645.759 1.352 1.388 2.102 1.87.185.12.433.062.55-.128.118-.192.062-.444-.124-.567-.684-.439-1.331-1.015-1.924-1.713-.816-.962-1.345-1.937-1.644-2.876-.105-.328-.174-.628-.213-.894L25.32.758l-.01-.12L25.31.6c-.002-.226-.18-.408-.401-.408zm0 .27c.075 0 .136.062.137.14 0 .24.07.715.259 1.306.31.972.857 1.979 1.696 2.968.61.718 1.276 1.312 1.981 1.765.064.042.083.128.043.193-.04.065-.124.084-.187.043-.727-.467-1.415-1.079-2.042-1.817-.88-1.037-1.447-2.084-1.763-3.092-.194-.615-.26-1.09-.26-1.367 0-.076.061-.139.136-.139z" transform="translate(-39 -342) translate(16 326) translate(23 16) translate(0 .667)"/>
                        <path fill="#000" fill-rule="nonzero" d="M24.617 7.044l-.09-.1c-.926-.986-2.473-1.096-3.524-.252-.589.473-.956 1.18-1.007 1.943-.052.762.218 1.512.734 2.067.926.986 2.474 1.097 3.524.252.588-.472.955-1.181 1.007-1.942.049-.717-.185-1.426-.644-1.968zm-4.382 3.918c-.552-.65-.833-1.503-.774-2.364.063-.918.504-1.77 1.211-2.338 1.265-1.017 3.127-.884 4.24.303.62.66.947 1.57.884 2.486-.062.917-.503 1.769-1.21 2.338-1.265 1.016-3.128.883-4.242-.304l-.11-.12zm10.411-9.286c-.516-.608-1.263-.967-2.05-.984-2.275-.05-5.686.18-9.027 1.563-3.447 1.43-8.347 6.473-11.522 14.52-.09.227-.047.486.112.673l4.13 4.868c.158.186.402.266.636.206 8.213-2.106 13.765-6.38 15.624-9.682 1.8-3.2 2.496-6.63 2.764-8.946.092-.801-.151-1.61-.667-2.218zm-18.763 21l-4.13-4.868c-.29-.343-.368-.818-.203-1.24 3.234-8.196 8.266-13.35 11.819-14.822C22.793.328 26.282.092 28.607.142c.938.021 1.829.448 2.444 1.173.615.725.904 1.688.794 2.643-.274 2.367-.987 5.878-2.832 9.156-1.915 3.403-7.592 7.796-15.958 9.94-.43.112-.879-.034-1.172-.378z" transform="translate(-39 -342) translate(16 326) translate(23 16) translate(0 .667)"/>
                        <path fill="#000" fill-rule="nonzero" d="M28.053 0l.557.006.224.013c.892.08 1.726.512 2.316 1.207.64.754.94 1.755.826 2.748-.37 3.205-1.262 6.388-2.849 9.207-2.218 3.943-8.42 8.051-16.04 10.005-.43.111-.878-.009-1.2-.313l-.103-.109-4.13-4.867c-.324-.382-.41-.91-.226-1.38C10.373 9.053 15.203 3.327 19.32 1.62 22.09.473 25.084-.004 28.053 0zm.551.277C25.487.21 22.325.667 19.42 1.87c-4.044 1.676-8.826 7.346-11.746 14.747-.131.334-.091.703.101.996l.08.105 4.129 4.868c.26.306.658.435 1.04.337 7.556-1.938 13.697-6.006 15.875-9.878 1.568-2.784 2.45-5.933 2.816-9.104.106-.917-.172-1.842-.763-2.538C30.406.76 29.636.362 28.811.289l-.207-.012zm-.55.273l.544.006c.825.019 1.608.394 2.148 1.031.54.637.794 1.484.698 2.323-.363 3.135-1.232 6.245-2.781 8.998-2.154 3.826-8.224 7.827-15.706 9.745-.247.064-.503-.002-.691-.17l-.077-.078-4.129-4.868c-.192-.225-.244-.538-.135-.813 2.891-7.33 7.6-12.938 11.595-14.594C22.056 1.08 24.789.605 27.51.555l.545-.005zM19.62 2.38c-3.922 1.627-8.583 7.179-11.45 14.445-.059.15-.045.318.034.456l.056.079 4.13 4.867c.125.148.319.211.504.164 7.418-1.902 13.428-5.863 15.541-9.619 1.529-2.716 2.389-5.793 2.747-8.894.088-.763-.143-1.534-.634-2.114-.492-.579-1.204-.92-1.955-.937-3.044-.067-6.136.38-8.973 1.554zm.972 3.773c1.263-1.015 3.096-.93 4.268.167l.149.149.144.163c.553.673.836 1.548.776 2.427-.065.955-.524 1.842-1.261 2.435-1.318 1.058-3.258.92-4.419-.318l-.113-.125c-.576-.68-.867-1.568-.805-2.463.065-.955.524-1.842 1.26-2.435zm4.227.503c-1.067-1.136-2.853-1.264-4.064-.29-.679.546-1.101 1.362-1.161 2.241-.057.823.211 1.641.741 2.266l.105.117c1.067 1.136 2.854 1.264 4.065.291.678-.546 1.101-1.363 1.16-2.241.056-.803-.201-1.603-.703-2.22l-.143-.164zm-.195.195l.094.105c.483.57.727 1.314.676 2.065-.055.8-.44 1.543-1.057 2.04-1.104.887-2.728.771-3.702-.266-.543-.584-.824-1.372-.77-2.169.054-.8.44-1.543 1.058-2.04 1.104-.888 2.727-.772 3.701.265zm-3.538-.053c-.56.45-.909 1.123-.958 1.847-.048.72.206 1.434.698 1.963.88.936 2.35 1.042 3.348.24.559-.45.907-1.122.956-1.846.046-.68-.174-1.353-.61-1.868l-.087-.096c-.879-.936-2.35-1.041-3.347-.24z" transform="translate(-39 -342) translate(16 326) translate(23 16) translate(0 .667)"/>
                        <path fill="#000" fill-rule="nonzero" d="M29.601 7.429c-.066-.078-.086-.191-.043-.292.06-.14.219-.201.353-.14.584.264.964.323.968.324.146.022.248.16.226.31-.02.15-.155.254-.301.234-.019-.002-.452-.068-1.11-.366-.036-.016-.068-.042-.093-.07" transform="translate(-39 -342) translate(16 326) translate(23 16) translate(0 .667)"/>
                        <path fill="#000" fill-rule="nonzero" d="M29.437 7.083c-.063.146-.037.315.064.435.04.045.088.082.14.105.227.103.44.184.626.245l.253.076c.113.03.206.049.27.056.214.03.415-.126.446-.35.029-.194-.084-.378-.26-.443l-.244-.057-.084-.023c-.205-.058-.434-.14-.683-.254-.202-.091-.439.002-.528.21zm.421.038c.448.203.794.301.99.331.086.014.138.084.127.16-.01.077-.079.13-.153.12-.038-.005-.088-.014-.148-.028l-.21-.056c-.197-.06-.447-.15-.716-.273-.018-.007-.035-.02-.049-.036-.033-.04-.042-.097-.02-.147.024-.056.08-.088.137-.083l.042.012z" transform="translate(-39 -342) translate(16 326) translate(23 16) translate(0 .667)"/>
                        <path fill="#A605AD" fill-rule="nonzero" d="M10.401 23.057L7.18 19.262 8.061 17.751 11.982 22.373z" transform="translate(-39 -342) translate(16 326) translate(23 16) translate(0 .667)"/>
                        <path fill="#000" fill-rule="nonzero" d="M7.51 19.232l2.965 3.495 1.063-.46-3.437-4.05-.59 1.015zm2.688 4.005l-3.22-3.794c-.076-.091-.088-.22-.027-.322l.88-1.511c.044-.076.12-.124.206-.133.085-.007.17.028.226.094l3.921 4.621c.057.068.079.157.059.243-.02.086-.078.158-.157.192l-1.58.684c-.108.046-.232.016-.308-.074z" transform="translate(-39 -342) translate(16 326) translate(23 16) translate(0 .667)"/>
                        <path fill="#000" fill-rule="nonzero" d="M8.102 17.344c.075.008.146.037.205.085l.055.053 3.922 4.622c.084.1.117.234.087.361-.022.103-.083.192-.167.25l-.067.036-1.58.684c-.133.058-.284.037-.396-.05l-.063-.059-3.22-3.796c-.095-.112-.122-.265-.076-.4l.035-.078.88-1.513c.054-.09.137-.154.233-.182l.075-.014h.077zm-.053.268l-.042.01-.036.024-.027.033-.88 1.513c-.023.038-.026.084-.01.124l.023.038 3.22 3.794c.03.035.073.052.115.049l.042-.01 1.582-.686c.039-.016.068-.052.078-.097.007-.029.004-.059-.007-.085l-.022-.038-3.921-4.62c-.02-.023-.045-.039-.073-.045l-.042-.004zm.152.517l3.436 4.05-.048.213-1.062.46-.151-.036L7.41 19.32l-.014-.158.59-1.015.214-.02zm-.08.317l-.45.77 2.84 3.348.806-.35-3.196-3.768z" transform="translate(-39 -342) translate(16 326) translate(23 16) translate(0 .667)"/>
                        <path fill="#A605AD" fill-rule="nonzero" d="M14.598 16.918l-.75-.882c-.144-.17-.389-.203-.571-.076l-2.09 1.462c-.265.186-.508.403-.722.647-.886 1.006-3.366 3.815-4.484 4.96-.217.222-.229.581-.026.82.2.238.548.275.794.085 1.262-.976 4.319-3.103 5.415-3.863.266-.185.509-.4.725-.643l1.702-1.92c.148-.166.151-.42.007-.59" transform="translate(-39 -342) translate(16 326) translate(23 16) translate(0 .667)"/>
                        <path fill="#000" fill-rule="nonzero" d="M13.646 16.216c-.055-.065-.149-.077-.218-.028l-2.09 1.46c-.247.173-.474.377-.674.604-.765.87-3.35 3.8-4.493 4.971-.117.121-.124.316-.015.445.11.129.299.15.432.046 1.243-.961 4.209-3.028 5.426-3.872.248-.17.475-.373.676-.599l1.703-1.919c.056-.064.057-.16.002-.226l-.749-.882zm-7.894 7.813c-.294-.346-.276-.87.04-1.194 1.134-1.162 3.71-4.083 4.474-4.95.23-.261.488-.493.77-.69l2.09-1.463c.293-.205.692-.152.925.123l.75.883c.232.275.228.686-.012.956l-1.702 1.918c-.23.26-.49.49-.773.687-1.214.841-4.17 2.9-5.403 3.855-.357.275-.866.22-1.16-.125z" transform="translate(-39 -342) translate(16 326) translate(23 16) translate(0 .667)"/>
                        <path fill="#000" fill-rule="nonzero" d="M13.051 15.62c.314-.22.729-.19 1.01.056l.09.09.75.883c.248.295.27.72.063 1.035l-.077.101-1.703 1.918c-.235.267-.503.504-.796.708l-1.623 1.13-1.979 1.4-.92.665-.39.288-.486.368c-.412.318-.999.255-1.338-.145-.339-.399-.318-1.004.047-1.378l.4-.417.87-.944 1.102-1.22.703-.788 1.394-1.575c.177-.202.37-.387.58-.552l.213-.16 2.09-1.463zm.9.324c-.166-.196-.434-.253-.658-.153l-.093.053-2.09 1.463c-.273.191-.524.416-.746.669L8.97 19.552l-1.392 1.554-.795.872-.64.686-.256.267c-.268.273-.283.717-.035 1.009.248.292.68.338.98.106l.489-.37.604-.444.708-.511 2.296-1.621 1.312-.913c.207-.144.4-.305.577-.483l.172-.183 1.703-1.918c.17-.192.194-.471.07-.688l-.061-.089-.75-.882zm-.26.133l.055.05.748.882c.083.098.096.235.039.344l-.043.062-1.703 1.92c-.21.236-.445.444-.7.62l-1.299.904-2.043 1.44-1.19.86-.574.424-.314.24c-.188.145-.456.116-.61-.067-.155-.182-.145-.456.021-.628l.608-.64.98-1.07.911-1.012 1.989-2.244c.155-.177.326-.34.51-.485l.188-.14 2.09-1.461c.082-.059.186-.068.274-.034l.063.035zm-.158.218l-.015-.002-.016.006-2.09 1.461c-.238.167-.457.363-.65.583l-.759.861-1.233 1.387-1.125 1.248-.77.837-.475.503-.135.14c-.069.07-.073.185-.009.26.064.075.175.087.252.027l.494-.373.841-.616 1.58-1.128 1.534-1.076.983-.683c.178-.122.345-.262.501-.418l.151-.16 1.703-1.919c.008-.008.01-.02.008-.03l-.008-.016-.75-.883-.012-.009zM2.8 26.275l2.128-1.854c.113-.099.282-.085.377.031.097.115.083.289-.03.387l-2.129 1.855c-.113.098-.281.084-.377-.032-.096-.115-.083-.288.03-.387" transform="translate(-39 -342) translate(16 326) translate(23 16) translate(0 .667)"/>
                        <path fill="#000" fill-rule="nonzero" d="M4.842 24.318l-2.128 1.854c-.168.147-.189.406-.046.578.144.173.395.194.564.047l2.13-1.854c.167-.148.187-.407.044-.578-.142-.173-.395-.195-.564-.047zm.363.221c.049.06.042.148-.015.198L3.06 26.59c-.057.05-.143.043-.192-.016-.048-.059-.041-.147.016-.197l2.128-1.854c.058-.05.143-.043.192.015zM2.617 24.274l2.129-1.854c.113-.098.282-.084.378.03.097.117.082.29-.03.389l-2.129 1.854c-.113.099-.282.085-.378-.031-.096-.115-.083-.289.03-.388" transform="translate(-39 -342) translate(16 326) translate(23 16) translate(0 .667)"/>
                        <path fill="#000" fill-rule="nonzero" d="M4.66 22.317l-2.128 1.854c-.168.147-.189.406-.046.578.143.173.396.194.565.047l2.128-1.854c.147-.13.181-.344.092-.511l-.046-.068c-.144-.172-.397-.193-.565-.046zm.364.222c.048.058.041.147-.016.197L2.88 24.59c-.058.05-.144.043-.193-.016-.048-.058-.041-.147.016-.197l2.128-1.854c.058-.05.144-.043.193.016zM4.707 26.738l2.128-1.856c.113-.098.283-.083.379.032.096.116.081.288-.03.387l-2.13 1.855c-.112.099-.282.084-.378-.031-.095-.116-.082-.289.03-.387" transform="translate(-39 -342) translate(16 326) translate(23 16) translate(0 .667)"/>
                        <path fill="#000" fill-rule="nonzero" d="M6.75 24.78L4.62 26.634c-.168.146-.188.404-.046.577.145.173.397.194.565.047l2.129-1.855c.147-.13.181-.343.091-.51l-.046-.068c-.144-.172-.396-.193-.564-.047zm.364.222c.048.058.04.146-.017.196L4.97 27.053c-.057.05-.143.043-.193-.016-.048-.059-.041-.146.016-.196l2.129-1.856c.057-.05.143-.042.193.017z" transform="translate(-39 -342) translate(16 326) translate(23 16) translate(0 .667)"/>
                    </g>
                </g>
            </g>
        </g>
    </g>
</svg>
