<svg xmlns="http://www.w3.org/2000/svg" width="32" height="32" viewBox="0 0 32 32">
    <g fill="none" fill-rule="evenodd">
        <g>
            <g>
                <g>
                    <g transform="translate(-32 -484) translate(0 84) translate(16 384) translate(16 16)">
                        <circle cx="16" cy="16" r="15" fill="#FDAF27"/>
                        <path fill="#000" fill-rule="nonzero" d="M14.866 14.89V9.092c0-.603.514-1.092 1.138-1.092.618 0 1.137.49 1.137 1.092v5.798h5.729c.616 0 1.13.503 1.13 1.114 0 .605-.516 1.113-1.13 1.113H17.14v5.79c0 .603-.519 1.093-1.137 1.093-.624 0-1.138-.489-1.138-1.092v-5.79H9.138c-.615 0-1.138-.51-1.138-1.114 0-.611.521-1.114 1.138-1.114h5.728z"/>
                    </g>
                </g>
            </g>
        </g>
    </g>
</svg>
