<svg xmlns="http://www.w3.org/2000/svg" xmlns:xlink="http://www.w3.org/1999/xlink" width="32" height="32" viewBox="0 0 32 32">
    <defs>
        <path id="ix77hp512a" d="M0 0L8.064 0 8.064 3.404 0 3.404z"/>
        <path id="ji3jkk5e7c" d="M0 0L8.064 0 8.064 9.558 0 9.558z"/>
    </defs>
    <g fill="none" fill-rule="evenodd">
        <g>
            <g>
                <g>
                    <g>
                        <g>
                            <g>
                                <path fill="#FFAC00" d="M19.902.124H2.73C1.223.124 0 1.36 0 2.888v25.014c0 1.527 1.223 2.765 2.73 2.765H4.81c.12-1.314 1.2-2.346 2.529-2.346 1.328 0 2.407 1.032 2.527 2.346h10.035c1.508 0 2.731-1.238 2.731-2.765V2.888c0-1.527-1.223-2.764-2.73-2.764" transform="translate(-35 -342) translate(16 326) translate(19 16) translate(5.333 .667)"/>
                                <path fill="#FF8A00" d="M2.79.153C1.284.153.063 1.389.063 2.913v24.914c0 1.525 1.22 2.761 2.727 2.761h2.112L12.157.153H2.79z" transform="translate(-35 -342) translate(16 326) translate(19 16) translate(5.333 .667)"/>
                                <path fill="#FF8A00" d="M2.636 30.116l-2.287-.934V3.221C.063.76 1.776 0 3.53 0h4.006l3.349.152-5.922.275C3.71.427 2.63 1.952 2.63 3.221l.007 26.895z" transform="translate(-35 -342) translate(16 326) translate(19 16) translate(5.333 .667)"/>
                                <path stroke="#000" stroke-linecap="round" stroke-linejoin="round" stroke-width=".5" d="M12.45 15.614L19.901 15.614M14.762 19.568L19.902 19.568" transform="translate(-35 -342) translate(16 326) translate(19 16) translate(5.333 .667)"/>
                                <path fill="#A605AD" d="M15.9 8.694h-3.175c-.39 0-.704-.318-.704-.71V4.99c0-.393.315-.712.704-.712H15.9c.388 0 .703.319.703.712v2.992c0 .393-.315.711-.703.711" transform="translate(-35 -342) translate(16 326) translate(19 16) translate(5.333 .667)"/>
                                <path stroke="#000" stroke-linecap="round" stroke-linejoin="round" stroke-width=".5" d="M15.9 8.694h-3.175c-.39 0-.704-.318-.704-.71V4.99c0-.393.315-.712.704-.712H15.9c.388 0 .703.319.703.712v2.992c0 .393-.315.711-.703.711z" transform="translate(-35 -342) translate(16 326) translate(19 16) translate(5.333 .667)"/>
                            </g>
                            <g>
                                <g transform="translate(-35 -342) translate(16 326) translate(19 16) translate(5.333 .667) translate(.103 9.3)">
                                    <mask id="gbij102t2b" fill="#fff">
                                        <use xlink:href="#ix77hp512a"/>
                                    </mask>
                                    <path fill="#FFF" d="M6.708.032C6.02-.106 5.303.216 4.94.824c-.086.144-.147.3-.186.458C4.594.662 4.091.16 3.453.032c-.69-.138-1.406.184-1.769.792-.086.144-.147.3-.186.458C1.338.662.835.16.196.032c-.689-.138-1.405.184-1.768.792-.363.61-.305 1.41.142 1.96.447.55 1.206.763 1.869.521.528-.191.923-.648 1.06-1.184.059.24.167.467.327.663.447.55 1.206.763 1.869.521.528-.191.922-.648 1.06-1.184.059.24.168.467.328.663.446.55 1.205.763 1.868.521.66-.24 1.113-.893 1.113-1.603C8.064.9 7.487.187 6.708.032" mask="url(#gbij102t2b)"/>
                                </g>
                                <g transform="translate(-35 -342) translate(16 326) translate(19 16) translate(5.333 .667) translate(.103 9.3) translate(0 4.059)">
                                    <mask id="1tp8trfn0d" fill="#fff">
                                        <use xlink:href="#ji3jkk5e7c"/>
                                    </mask>
                                    <path fill="#FFF" d="M1.198 4.499c.177.767.629 1.483 1.42 1.702.75.208 1.586-.129 1.973-.817.232-.414.202-.88.2-1.338 0-.307-.003-.615-.003-.923 0-.339 0-.678.002-1.017.002-.433-.01-.856.204-1.25.295-.544.882-.88 1.494-.855.62.024 1.185.418 1.43.994.163.382.136.797.138 1.205v1.007c0 .725.045 1.482-.094 2.197C7.64 7.058 6.508 8.498 4.974 9.16c-1.534.664-3.35.486-4.733-.457-.681-.466-1.244-1.109-1.614-1.853-.365-.735-.587-1.654-.447-2.478.105-.613.584-1.114 1.187-1.24.627-.13 1.282.163 1.61.719.118.202.169.423.221.648" mask="url(#1tp8trfn0d)"/>
                                </g>
                            </g>
                            <path stroke="#000" stroke-linecap="round" stroke-linejoin="round" stroke-width=".5" d="M12.157.153H2.825C1.3.153.063 1.405.063 2.95v24.842c0 1.544 1.237 2.796 2.762 2.796h1.994c.156-1.276 1.218-2.267 2.52-2.267 1.303 0 2.365.99 2.52 2.267h10.046c1.525 0 2.762-1.252 2.762-2.796V2.95c0-1.545-1.237-2.797-2.762-2.797" transform="translate(-35 -342) translate(16 326) translate(19 16) translate(5.333 .667)"/>
                        </g>
                    </g>
                </g>
            </g>
        </g>
    </g>
</svg>
