<?xml version="1.0" encoding="UTF-8"?>
<svg width="27px" height="19px" viewBox="0 0 27 19" version="1.1" xmlns="http://www.w3.org/2000/svg" xmlns:xlink="http://www.w3.org/1999/xlink">
    <title>Icon / Shortcut / More / Send to Friend</title>
    <g id="BO-Revamp" stroke="none" stroke-width="1" fill="none" fill-rule="evenodd">
        <g id="Group" transform="translate(-3.000000, -7.000000)">
            <rect id="Rectangle" x="0" y="0" width="32" height="32"></rect>
            <path d="M25.6777,22.9617 C26.3017,22.9617 26.8067,22.4557 26.8067,21.8327 L26.8067,12.0817 C26.8067,11.4587 26.3017,10.9527 25.6777,10.9527 L4.8307,10.9527 C4.0357,10.9527 3.3907,11.5977 3.3907,12.3927 L3.3907,21.8327 C3.3907,22.4557 3.8967,22.9617 4.5197,22.9617 L9.9047,22.9617 L9.0337,24.8277 C8.8957,25.1057 9.1907,25.3997 9.4677,25.2587 L13.3407,23.1997 C13.6357,23.0437 13.9637,22.9617 14.2977,22.9617 L23.1427,22.9617 L25.6777,22.9617 Z" id="Fill-1" fill="#FFAC00"></path>
            <path d="M14.8555,10.9529 L4.8305,10.9529 C4.0355,10.9529 3.3915,11.5979 3.3915,12.3919 L3.3915,21.8329 C3.3915,22.4559 3.8965,22.9619 4.5205,22.9619 L9.8035,22.9619 L14.8555,10.9529 Z" id="Fill-3" fill="#FF8A00"></path>
            <path d="M9.0347,24.8269 L9.0347,24.8279 C8.8957,25.1049 9.1917,25.3989 9.4677,25.2589 L10.3417,24.7949 L9.0347,24.8269 Z" id="Fill-5" fill="#FF8A00"></path>
            <path d="M9.3013,25.6697 C9.1233,25.6697 8.9503,25.6007 8.8153,25.4667 C8.5983,25.2507 8.5463,24.9347 8.6823,24.6607 L9.3003,23.3367 L4.5043,23.3367 C3.6753,23.3367 3.0003,22.6617 3.0003,21.8327 L3.0003,12.3927 C3.0003,11.3917 3.8143,10.5777 4.8143,10.5777 L13.9393,10.5777 C14.1463,10.5777 14.3143,10.7457 14.3143,10.9527 C14.3143,11.1597 14.1463,11.3277 13.9393,11.3277 L4.8143,11.3277 C4.2273,11.3277 3.7503,11.8057 3.7503,12.3927 L3.7503,21.8327 C3.7503,22.2487 4.0883,22.5867 4.5043,22.5867 L9.8883,22.5867 C10.0163,22.5867 10.1363,22.6517 10.2053,22.7607 C10.2743,22.8677 10.2823,23.0037 10.2283,23.1197 L9.4213,24.8497 L13.1483,22.8687 C13.4963,22.6847 13.8883,22.5867 14.2813,22.5867 L25.6933,22.5867 C26.1093,22.5867 26.4473,22.2487 26.4473,21.8327 L26.4473,14.3107 C26.4473,14.1037 26.6153,13.9357 26.8223,13.9357 C27.0303,13.9357 27.1973,14.1037 27.1973,14.3107 L27.1973,21.8327 C27.1973,22.6617 26.5233,23.3367 25.6933,23.3367 L14.2813,23.3367 C14.0103,23.3367 13.7403,23.4037 13.5003,23.5307 L9.6273,25.5897 C9.5223,25.6437 9.4103,25.6697 9.3013,25.6697" id="Fill-7" fill="#000000"></path>
            <path d="M21.5298,12.7117 C21.5298,12.7117 15.9728,13.7547 14.9358,16.9857 C14.9358,16.9857 15.0108,9.4777 23.2258,9.1047 L23.2258,8.0247 C23.2258,7.5267 23.7648,7.2147 24.1978,7.4627 L29.0488,10.2407 C29.4838,10.4907 29.4838,11.1177 29.0488,11.3667 L24.1978,14.1467 C23.7648,14.3947 23.2258,14.0817 23.2258,13.5827 L23.2258,12.1817" id="Fill-9" fill="#FFFFFF"></path>
            <path d="M21.5298,12.7117 C21.5298,12.7117 15.9728,13.7547 14.9358,16.9857 C14.9358,16.9857 15.0108,9.4777 23.2258,9.1047 L23.2258,8.0247 C23.2258,7.5267 23.7648,7.2147 24.1978,7.4627 L29.0488,10.2407 C29.4838,10.4907 29.4838,11.1177 29.0488,11.3667 L24.1978,14.1467 C23.7648,14.3947 23.2258,14.0817 23.2258,13.5827 L23.2258,12.1817" id="Fill-11" fill="#A605AD"></path>
            <path d="M16.3066,15.0437 C17.1306,12.8557 19.1276,10.1127 24.0136,9.8917 L24.0136,8.8137 C24.0136,8.3147 24.5526,8.0017 24.9846,8.2497 L29.3626,10.7577 C29.3486,10.5557 29.2496,10.3567 29.0486,10.2407 L24.1976,7.4627 C23.7646,7.2147 23.2256,7.5267 23.2256,8.0247 L23.2256,9.1047 C15.0106,9.4777 14.9356,16.9857 14.9356,16.9857 C15.1816,16.2197 15.6866,15.5797 16.3066,15.0437" id="Fill-13" fill="#FFFFFF"></path>
            <path d="M14.9365,17.3611 C14.9165,17.3611 14.8965,17.3591 14.8765,17.3561 C14.6935,17.3271 14.5595,17.1681 14.5614779,16.9821 C14.5614779,16.9051 14.7325,9.3361 22.8515,8.7511 L22.8515,8.0251 C22.8515,7.6561 23.0415,7.3251 23.3615,7.1391 C23.6805,6.9551 24.0635,6.9531 24.3845,7.1371 L29.2345,9.9161 C29.5575,10.1011 29.7495,10.4331 29.7495,10.8051 C29.7495,11.1761 29.5565,11.5071 29.2345,11.6921 L24.3845,14.4711 C24.0635,14.6571 23.6825,14.6551 23.3615,14.4691 C23.0415,14.2841 22.8515,13.9531 22.8515,13.5831 L22.8515,12.1811 C22.8515,11.9741 23.0195,11.8061 23.2265,11.8061 C23.4335,11.8061 23.6015,11.9741 23.6015,12.1811 L23.6015,13.5831 C23.6015,13.7251 23.6965,13.7971 23.7375,13.8201 C23.7795,13.8441 23.8885,13.8921 24.0115,13.8211 L28.8615,11.0421 C28.9865,10.9701 28.9995,10.8521 28.9995,10.8041 C28.9995,10.7571 28.9865,10.6371 28.8615,10.5661 L24.0115,7.7881 C23.8885,7.7181 23.7795,7.7651 23.7375,7.7891 C23.6965,7.8121 23.6015,7.8831 23.6015,8.0251 L23.6015,9.1041 C23.6015,9.3041 23.4435,9.4691 23.2435,9.4791 C17.8975,9.7211 16.1545,13.0611 15.5855,15.2081 C17.5495,13.1011 21.2685,12.3801 21.4605,12.3431 C21.6655,12.2991 21.8595,12.4391 21.8985,12.6421 C21.9365,12.8451 21.8025,13.0421 21.5995,13.0801 C21.5455,13.0901 16.2485,14.1211 15.2925,17.1001 C15.2425,17.2571 15.0965,17.3611 14.9365,17.3611" id="Fill-15" fill="#000000"></path>
            <path d="M7.3345,16.9861 C7.3345,17.5371 6.8885,17.9831 6.3375,17.9831 C5.7875,17.9831 5.3415,17.5371 5.3415,16.9861 C5.3415,16.4361 5.7875,15.9901 6.3375,15.9901 C6.8885,15.9901 7.3345,16.4361 7.3345,16.9861" id="Fill-17" fill="#FFFFFF"></path>
            <path d="M10.1562,16.9861 C10.1562,17.5371 9.7102,17.9831 9.1592,17.9831 C8.6092,17.9831 8.1632,17.5371 8.1632,16.9861 C8.1632,16.4361 8.6092,15.9901 9.1592,15.9901 C9.7102,15.9901 10.1562,16.4361 10.1562,16.9861" id="Fill-19" fill="#FFFFFF"></path>
            <path d="M12.978,16.9861 C12.978,17.5371 12.532,17.9831 11.981,17.9831 C11.431,17.9831 10.985,17.5371 10.985,16.9861 C10.985,16.4361 11.431,15.9901 11.981,15.9901 C12.532,15.9901 12.978,16.4361 12.978,16.9861" id="Fill-21" fill="#FFFFFF"></path>
            <path d="M19.3335,16.9861 C19.3335,17.5371 18.8875,17.9831 18.3365,17.9831 C17.7865,17.9831 17.3405,17.5371 17.3405,16.9861 C17.3405,16.4361 17.7865,15.9901 18.3365,15.9901 C18.8875,15.9901 19.3335,16.4361 19.3335,16.9861" id="Fill-23" fill="#FFFFFF"></path>
            <path d="M22.1553,16.9861 C22.1553,17.5371 21.7093,17.9831 21.1583,17.9831 C20.6083,17.9831 20.1623,17.5371 20.1623,16.9861 C20.1623,16.4361 20.6083,15.9901 21.1583,15.9901 C21.7093,15.9901 22.1553,16.4361 22.1553,16.9861" id="Fill-25" fill="#FFFFFF"></path>
            <path d="M24.9771,16.9861 C24.9771,17.5371 24.5311,17.9831 23.9801,17.9831 C23.4301,17.9831 22.9841,17.5371 22.9841,16.9861 C22.9841,16.4361 23.4301,15.9901 23.9801,15.9901 C24.5311,15.9901 24.9771,16.4361 24.9771,16.9861" id="Fill-27" fill="#FFFFFF"></path>
        </g>
    </g>
</svg>