<svg width="24" height="24" xmlns="http://www.w3.org/2000/svg" xmlns:xlink="http://www.w3.org/1999/xlink">
    <defs>
        <path d="M4 11.775c0-2.33 1.02-4.42 2.62-5.88l1.53 1.53a.5.5 0 0 0 .85-.36v-4.29c0-.28-.22-.5-.5-.5H4.21c-.45 0-.67.54-.35.85l1.34 1.35c-1.96 1.82-3.2 4.41-3.2 7.3 0 4.75 3.32 8.73 7.76 9.75.63.14 1.24-.33 1.24-.98 0-.47-.33-.87-.79-.98-3.55-.81-6.21-3.99-6.21-7.79zm18 0c0-4.75-3.32-8.73-7.76-9.75-.63-.14-1.24.33-1.24.98 0 .47.33.87.79.98 3.55.81 6.21 3.99 6.21 7.79 0 2.33-1.02 4.42-2.62 5.88l-1.53-1.53a.5.5 0 0 0-.85.36v4.29c0 .28.22.5.5.5h4.29c.45 0 .67-.54.35-.85l-1.34-1.35c1.96-1.82 3.2-4.41 3.2-7.3z" id="a"/>
    </defs>
    <g fill="none" fill-rule="evenodd">
        <path d="M0 0h24v24H0z"/>
        <mask id="b" fill="#fff">
            <use xlink:href="#a"/>
        </mask>
        <g mask="url(#b)" fill="#FFF">
            <path d="M0 0h24v24H0z"/>
        </g>
    </g>
</svg>
