<svg xmlns="http://www.w3.org/2000/svg" width="32" height="32" viewBox="0 0 32 32">
    <g fill="none" fill-rule="evenodd">
        <g fill="#FDAF27" fill-rule="nonzero">
            <path d="M18.022 30h-.465c-.435-.255-.705-.772-.696-1.332v-5.994H3.16c-.31.02-.612-.127-.813-.4-.218-.246-.344-.581-.348-.932V10.685c0-.736.52-1.332 1.161-1.332h13.7V3.359c.012-.537.28-1.022.696-1.266.445-.201.952-.07 1.277.333L29.69 15.081c.413.53.413 1.334 0 1.865L18.834 29.6c-.214.251-.506.395-.812.4z"/>
        </g>
    </g>
</svg>
