<svg xmlns="http://www.w3.org/2000/svg" xmlns:xlink="http://www.w3.org/1999/xlink" width="27" height="23" viewBox="0 0 27 23">
    <defs>
        <path id="qx9xz5no2a" d="M4.804.494L.487 4.811c-.65.65-.65 1.7 0 2.35l4.317 4.316c1.05 1.05 2.85.3 2.85-1.183V1.661c0-1.484-1.8-2.217-2.85-1.167z"/>
        <path id="jjaebny44c" d="M10.488 15.77L4.02 9.305l6.467-6.466c.65-.65.65-1.7 0-2.35-.65-.65-1.7-.65-2.35 0l-7.65 7.65c-.65.65-.65 1.7 0 2.35l7.65 7.65c.65.65 1.7.65 2.35 0 .633-.65.65-1.717 0-2.367z"/>
        <path id="qq7pkd193e" d="M12.585 18.925l-7.76-7.76 7.76-7.76c.78-.78.78-2.04 0-2.82-.78-.78-2.04-.78-2.82 0l-9.18 9.18c-.78.78-.78 2.04 0 2.82l9.18 9.18c.78.78 2.04.78 2.82 0 .76-.78.78-2.06 0-2.84z"/>
    </defs>
    <g fill="none" fill-rule="evenodd" opacity=".501">
        <g>
            <g>
                <g opacity=".303" transform="translate(-324 -617) matrix(-1 0 0 1 351 617) translate(18.68 6.023)">
                    <mask id="qlrlxw972b" fill="#fff">
                        <use xlink:href="#qx9xz5no2a"/>
                    </mask>
                    <use fill="#000" fill-rule="nonzero" xlink:href="#qx9xz5no2a"/>
                    <g fill="#FFF" mask="url(#qlrlxw972b)">
                        <path d="M0 0L40 0 40 40 0 40z" transform="translate(-15.68 -14.023)"/>
                    </g>
                </g>
                <g opacity=".505">
                    <g transform="translate(-324 -617) matrix(-1 0 0 1 351 617) translate(9.667 2)">
                        <mask id="feybgm3wmd" fill="#fff">
                            <use xlink:href="#jjaebny44c"/>
                        </mask>
                        <use fill="#000" fill-rule="nonzero" xlink:href="#jjaebny44c"/>
                        <g fill="#FFF" mask="url(#feybgm3wmd)">
                            <path d="M0 0L40 0 40 40 0 40z" transform="translate(-13.333 -10)"/>
                        </g>
                    </g>
                </g>
                <g opacity=".6">
                    <g transform="translate(-324 -617) matrix(-1 0 0 1 351 617)">
                        <mask id="cxl62iijgf" fill="#fff">
                            <use xlink:href="#qq7pkd193e"/>
                        </mask>
                        <use fill="#000" fill-rule="nonzero" xlink:href="#qq7pkd193e"/>
                        <g fill="#FFF" mask="url(#cxl62iijgf)">
                            <path d="M0 0L48 0 48 48 0 48z" transform="translate(-16 -12)"/>
                        </g>
                    </g>
                </g>
            </g>
        </g>
    </g>
</svg>
