<svg xmlns="http://www.w3.org/2000/svg" width="24" height="24" viewBox="0 0 24 24">
    <g fill="none" fill-rule="evenodd">
        <g>
            <path fill="#000" fill-rule="nonzero" d="M14.074 0H2.814C1.265 0 0 1.122 0 2.5v3c0 .276.252.5.563.5h3.94v9.499c0 .032.014.06.021.09.007.032.006.064.02.096l.002.003c.039.084.106.15.186.203.02.013.036.023.057.033.083.043.174.075.278.075.07 0 .14-.011.21-.036l.01-.004 2.594-.92 2.606.925c.134.048.284.048.418 0l2.606-.926 2.606.926c.173.062.37.042.524-.05.154-.094.248-.249.248-.415v-13C16.889 1.123 15.626 0 14.074 0zM4.47 4.444H1.49V2.967c0-.754.668-1.367 1.49-1.367.821 0 1.49.613 1.49 1.367v1.477zm10.819 9.598l-1.865-.656c-.122-.043-.259-.043-.38 0l-2.38.836-2.379-.837c-.122-.043-.259-.043-.381 0l-1.866.656V3.045c0-.51-.2-1.066-.527-1.445h8.236c.85 0 1.542.697 1.542 1.445v10.997z" transform="rotate(180 10.5 10)"/>
            <path stroke="#000" stroke-linecap="round" stroke-width="1.333" d="M13.333 11.111L8 11.111M13.333 8.444L8 8.444M13.333 4L8 4" transform="rotate(180 10.5 10)"/>
        </g>
    </g>
</svg>
