<svg xmlns="http://www.w3.org/2000/svg" xmlns:xlink="http://www.w3.org/1999/xlink" width="200" height="200" viewBox="0 0 200 200">
    <defs>
        <path id="by0nww996a" d="M0 0.36L13.175 0.36 13.175 1.36 0 1.36z"/>
        <path id="9bm4vbgg4c" d="M77.398.254C34.663.254.02 34.897.02 77.632s34.643 77.377 77.378 77.377c42.734 0 77.376-34.642 77.376-77.377 0-42.735-34.642-77.378-77.376-77.378z"/>
        <path id="w27as66uie" d="M77.398.254C34.663.254.02 34.897.02 77.632s34.643 77.377 77.378 77.377c42.734 0 77.376-34.642 77.376-77.377"/>
        <path id="3zk3s1ykvg" d="M77.398.254C34.663.254.02 34.897.02 77.632s34.643 77.377 77.378 77.377c42.734 0 77.376-34.642 77.376-77.377 0-42.735-34.642-77.378-77.376-77.378z"/>
        <path id="3uyeftucui" d="M77.398.254C34.663.254.02 34.897.02 77.632s34.643 77.377 77.378 77.377c42.734 0 77.376-34.642 77.376-77.377"/>
        <path id="rcq2hpmspk" d="M77.398.254C34.663.254.02 34.897.02 77.632s34.643 77.377 77.378 77.377c42.734 0 77.376-34.642 77.376-77.377"/>
        <path id="ceqlaust3m" d="M77.398.254C34.663.254.02 34.897.02 77.632s34.643 77.377 77.378 77.377c42.734 0 77.376-34.642 77.376-77.377 0-42.735-34.642-77.378-77.376-77.378z"/>
        <path id="klhl13lzdo" d="M77.398.254C34.663.254.02 34.897.02 77.632s34.643 77.377 77.378 77.377c42.734 0 77.376-34.642 77.376-77.377 0-42.735-34.642-77.378-77.376-77.378z"/>
        <path id="94wfujfjhq" d="M77.398.254C34.663.254.02 34.897.02 77.632s34.643 77.377 77.378 77.377c42.734 0 77.376-34.642 77.376-77.377"/>
        <path id="yq6t2b1f2s" d="M77.398.254C34.663.254.02 34.897.02 77.632s34.643 77.377 77.378 77.377c42.734 0 77.376-34.642 77.376-77.377"/>
        <path id="dclpwe98tu" d="M77.398.254C34.663.254.02 34.897.02 77.632s34.643 77.377 77.378 77.377c42.734 0 77.376-34.642 77.376-77.377"/>
        <path id="vtvqmiepgw" d="M77.398.254C34.663.254.02 34.897.02 77.632s34.643 77.377 77.378 77.377c42.734 0 77.376-34.642 77.376-77.377"/>
        <path id="qdf8zxbxfy" d="M77.398.254C34.663.254.02 34.897.02 77.632s34.643 77.377 77.378 77.377c42.734 0 77.376-34.642 77.376-77.377"/>
        <path id="s0p7lsqwnA" d="M77.398.254C34.663.254.02 34.897.02 77.632s34.643 77.377 77.378 77.377c42.734 0 77.376-34.642 77.376-77.377"/>
        <path id="mhfs7qo1lC" d="M77.398.254C34.663.254.02 34.897.02 77.632s34.643 77.377 77.378 77.377c42.734 0 77.376-34.642 77.376-77.377"/>
        <path id="1arrxutg0E" d="M77.398.254C34.663.254.02 34.897.02 77.632s34.643 77.377 77.378 77.377c42.734 0 77.376-34.642 77.376-77.377"/>
        <path id="46kkplxjvG" d="M77.398.254C34.663.254.02 34.897.02 77.632s34.643 77.377 77.378 77.377c42.734 0 77.376-34.642 77.376-77.377 0-42.735-34.642-77.378-77.376-77.378z"/>
        <path id="x1udefpaiI" d="M77.398.254C34.663.254.02 34.897.02 77.632s34.643 77.377 77.378 77.377c42.734 0 77.376-34.642 77.376-77.377 0-42.735-34.642-77.378-77.376-77.378z"/>
        <path id="zb7lz4l78K" d="M77.398.254C34.663.254.02 34.897.02 77.632s34.643 77.377 77.378 77.377c42.734 0 77.376-34.642 77.376-77.377 0-42.735-34.642-77.378-77.376-77.378z"/>
        <path id="twd78bj4nM" d="M77.398.254C34.663.254.02 34.897.02 77.632s34.643 77.377 77.378 77.377c42.734 0 77.376-34.642 77.376-77.377"/>
        <path id="f97qayms6O" d="M77.398.254C34.663.254.02 34.897.02 77.632s34.643 77.377 77.378 77.377c42.734 0 77.376-34.642 77.376-77.377"/>
        <path id="hhygsxhpsQ" d="M77.398.254C34.663.254.02 34.897.02 77.632s34.643 77.377 77.378 77.377c42.734 0 77.376-34.642 77.376-77.377"/>
        <path id="1fhxzv8m9S" d="M77.398.254C34.663.254.02 34.897.02 77.632s34.643 77.377 77.378 77.377c42.734 0 77.376-34.642 77.376-77.377"/>
        <path id="i1x1njvanU" d="M77.398.254C34.663.254.02 34.897.02 77.632s34.643 77.377 77.378 77.377c42.734 0 77.376-34.642 77.376-77.377"/>
        <path id="no3tvon2xW" d="M77.398.254C34.663.254.02 34.897.02 77.632s34.643 77.377 77.378 77.377c42.734 0 77.376-34.642 77.376-77.377"/>
        <path id="beddoa0o9Y" d="M77.398.254C34.663.254.02 34.897.02 77.632s34.643 77.377 77.378 77.377c42.734 0 77.376-34.642 77.376-77.377"/>
        <path id="6yi9cxkyoaa" d="M77.398.254C34.663.254.02 34.897.02 77.632s34.643 77.377 77.378 77.377c42.734 0 77.376-34.642 77.376-77.377"/>
        <path id="k84ka5dgqac" d="M77.398.254C34.663.254.02 34.897.02 77.632s34.643 77.377 77.378 77.377c42.734 0 77.376-34.642 77.376-77.377"/>
        <path id="mjhxc9l4kae" d="M77.398.254C34.663.254.02 34.897.02 77.632s34.643 77.377 77.378 77.377c42.734 0 77.376-34.642 77.376-77.377"/>
        <path id="f3pyxl3n9ag" d="M8.034 1.091L5.837 5.487l-4.915.707C.04 6.32-.313 7.393.326 8.007l3.557 3.42-.841 4.83c-.152.873.78 1.527 1.56 1.118L9 15.095l4.397 2.28c.78.406 1.713-.245 1.561-1.118l-.84-4.83 3.556-3.42c.639-.614.286-1.687-.596-1.813l-4.915-.707L9.966 1.09c-.394-.783-1.535-.793-1.932 0z"/>
    </defs>
    <g fill="none" fill-rule="evenodd">
        <g>
            <g>
                <g>
                    <g>
                        <g>
                            <path fill="#EFEFEF" d="M80.397.255C37.663.255 3.02 34.898 3.02 77.632c0 42.735 34.645 77.378 77.378 77.378 42.734 0 77.377-34.643 77.377-77.378 0-42.734-34.642-77.377-77.377-77.377" transform="translate(-88 -270) translate(32 270) translate(56) translate(21 22) translate(0 .746)"/>
                            <path fill="#B2B2B2" d="M129.002 37.23c-.276 0-.5-.225-.5-.5V24.554c0-.277.224-.5.5-.5s.5.223.5.5V36.73c0 .276-.224.5-.5.5" transform="translate(-88 -270) translate(32 270) translate(56) translate(21 22) translate(0 .746)"/>
                            <path fill="#B2B2B2" d="M135.089 31.142h-12.174c-.276 0-.5-.224-.5-.5s.224-.5.5-.5h12.174c.276 0 .5.224.5.5s-.224.5-.5.5M132.046 105.053c-.276 0-.5-.224-.5-.5v-6.087c0-.276.224-.5.5-.5s.5.224.5.5v6.087c0 .276-.224.5-.5.5" transform="translate(-88 -270) translate(32 270) translate(56) translate(21 22) translate(0 .746)"/>
                            <path fill="#B2B2B2" d="M135.089 102.01h-6.087c-.276 0-.5-.225-.5-.5 0-.276.224-.5.5-.5h6.087c.276 0 .5.224.5.5 0 .275-.224.5-.5.5M56.251 13.737c-.276 0-.5-.224-.5-.5V7.15c0-.277.224-.5.5-.5s.5.223.5.5v6.087c0 .276-.224.5-.5.5" transform="translate(-88 -270) translate(32 270) translate(56) translate(21 22) translate(0 .746)"/>
                            <path fill="#B2B2B2" d="M59.295 10.693h-6.087c-.276 0-.5-.224-.5-.5s.224-.5.5-.5h6.087c.276 0 .5.224.5.5s-.224.5-.5.5M6.587 132.447c-.276 0-.5-.224-.5-.5v-12.174c0-.277.224-.5.5-.5s.5.223.5.5v12.174c0 .276-.224.5-.5.5" transform="translate(-88 -270) translate(32 270) translate(56) translate(21 22) translate(0 .746)"/>
                            <g transform="translate(-88 -270) translate(32 270) translate(56) translate(21 22) translate(0 .746) translate(0 125)">
                                <mask id="dyj35puaab" fill="#fff">
                                    <use xlink:href="#by0nww996a"/>
                                </mask>
                                <path fill="#B2B2B2" d="M12.675 1.36H.5c-.276 0-.5-.224-.5-.5s.224-.5.5-.5h12.175c.276 0 .5.224.5.5s-.224.5-.5.5" mask="url(#dyj35puaab)"/>
                            </g>
                            <path fill="#B2B2B2" d="M23.934 86.095c-.276 0-.5-.224-.5-.5v-8.461c0-.276.224-.5.5-.5s.5.224.5.5v8.46c0 .277-.224.5-.5.5" transform="translate(-88 -270) translate(32 270) translate(56) translate(21 22) translate(0 .746)"/>
                            <path fill="#B2B2B2" d="M28.164 81.864h-8.46c-.277 0-.5-.224-.5-.5s.223-.5.5-.5h8.46c.276 0 .5.224.5.5s-.224.5-.5.5M134.682 67.68c-.751 0-1.362.61-1.362 1.363 0 .75.61 1.363 1.362 1.363.752 0 1.363-.612 1.363-1.363 0-.752-.611-1.363-1.363-1.363m0 3.726c-1.303 0-2.362-1.06-2.362-2.363s1.059-2.363 2.362-2.363c1.303 0 2.363 1.06 2.363 2.363s-1.06 2.363-2.363 2.363M4.725 45.209c-.752 0-1.363.61-1.363 1.363 0 .75.61 1.363 1.363 1.363.75 0 1.362-.612 1.362-1.363 0-.752-.611-1.363-1.362-1.363m0 3.726c-1.303 0-2.363-1.06-2.363-2.363s1.06-2.363 2.363-2.363 2.362 1.06 2.362 2.363-1.06 2.363-2.362 2.363M152.21 126.782c-.751 0-1.362.61-1.362 1.363 0 .75.61 1.363 1.363 1.363.75 0 1.362-.612 1.362-1.363 0-.752-.611-1.363-1.362-1.363m0 3.726c-1.303 0-2.363-1.06-2.363-2.363s1.06-2.363 2.363-2.363 2.362 1.06 2.362 2.363-1.06 2.363-2.362 2.363M58.265 125.992c-.751 0-1.362.611-1.362 1.363 0 .751.61 1.363 1.362 1.363.752 0 1.363-.612 1.363-1.363 0-.752-.611-1.363-1.363-1.363m0 3.726c-1.303 0-2.362-1.06-2.362-2.363s1.059-2.363 2.362-2.363c1.303 0 2.363 1.06 2.363 2.363s-1.06 2.363-2.363 2.363" transform="translate(-88 -270) translate(32 270) translate(56) translate(21 22) translate(0 .746)"/>
                        </g>
                        <g>
                            <g transform="translate(-88 -270) translate(32 270) translate(56) translate(21 22) translate(3 .746)">
                                <mask id="w0vrr46qyd" fill="#fff">
                                    <use xlink:href="#9bm4vbgg4c"/>
                                </mask>
                                <path fill="#FCE6D0" d="M104.769 103.701l-14.681-25.55c-.042-.073-.088-.139-.141-.204-1.942-2.36-39.607-48.122-40.017-48.575-.985-1.085-2.402-1.737-3.862-1.615-.806.067-1.68.356-2.484 1.072-1.37 1.22-1.68 3.022-1.693 4.355-.01 1.016.337 2 .948 2.81l20.752 27.32c.543.716.352 1.75-.421 2.208-3.743 2.225-13.37 9.158-14.738 22.241-.368 3.518 1.137 6.975 3.859 9.232l35.065 29.07c.162.136.295.303.39.493l18.42 37.153c.416.838 1.485 1.102 2.243.553l22.937-16.605c.65-.47.819-1.368.385-2.043l-26.962-41.915z" mask="url(#w0vrr46qyd)"/>
                            </g>
                            <g transform="translate(-88 -270) translate(32 270) translate(56) translate(21 22) translate(3 .746)">
                                <mask id="cp34nh79cf" fill="#fff">
                                    <use xlink:href="#w27as66uie"/>
                                </mask>
                                <path fill="#F3CEAD" d="M92.118 133.724l-3.936-6.282s14.57-6.974 26.898-7.456l1.038 2.238s-21.93 7.625-24 11.5" mask="url(#cp34nh79cf)"/>
                            </g>
                            <g transform="translate(-88 -270) translate(32 270) translate(56) translate(21 22) translate(3 .746)">
                                <mask id="le023uaunh" fill="#fff">
                                    <use xlink:href="#3zk3s1ykvg"/>
                                </mask>
                                <path fill="#EFEFEF" d="M72.809 25.163L53.916 25.163 49.984 28.257 49.984 105.821 51.473 107.699 60.431 107.479z" mask="url(#le023uaunh)"/>
                            </g>
                            <g transform="translate(-88 -270) translate(32 270) translate(56) translate(21 22) translate(3 .746)">
                                <mask id="onf67bvp3j" fill="#fff">
                                    <use xlink:href="#3uyeftucui"/>
                                </mask>
                                <path fill="#FFF" d="M88.418 107.479H55.509c-3.051 0-5.526-2.474-5.526-5.525V30.083c0-3.052 2.475-5.525 5.526-5.525h32.909c3.052 0 5.525 2.473 5.525 5.525v71.87c0 3.052-2.473 5.526-5.525 5.526" mask="url(#onf67bvp3j)"/>
                            </g>
                            <g transform="translate(-88 -270) translate(32 270) translate(56) translate(21 22) translate(3 .746)">
                                <mask id="xl2afatvbl" fill="#fff">
                                    <use xlink:href="#rcq2hpmspk"/>
                                </mask>
                                <path fill="#B2B2B2" d="M55.41 31.148c0-1.018.824-1.843 1.842-1.843 1.017 0 1.843.825 1.843 1.843s-.826 1.842-1.843 1.842c-1.018 0-1.843-.824-1.843-1.842" mask="url(#xl2afatvbl)"/>
                            </g>
                            <g transform="translate(-88 -270) translate(32 270) translate(56) translate(21 22) translate(3 .746)">
                                <mask id="63izeumfhn" fill="#fff">
                                    <use xlink:href="#ceqlaust3m"/>
                                </mask>
                                <path fill="#EFEFEF" d="M72.057 25.432H54.114s-3.62-.082-3.736 4.163c-.09 3.272-.337 55.196-.416 72.384-.014 3.023 2.429 5.483 5.452 5.49l4.887.013 11.756-82.05z" mask="url(#63izeumfhn)"/>
                            </g>
                            <g transform="translate(-88 -270) translate(32 270) translate(56) translate(21 22) translate(3 .746)">
                                <mask id="q24dvnz0rp" fill="#fff">
                                    <use xlink:href="#klhl13lzdo"/>
                                </mask>
                                <path fill="#FFF" d="M58.831 107.47c-3.023-.008-5.467-2.468-5.452-5.491.08-17.188.326-69.113.416-72.384.116-4.245 3.734-4.163 3.734-4.163h-3.416s-3.618-.082-3.735 4.163c-.09 3.27-.336 55.196-.416 72.384-.014 3.023 2.43 5.483 5.452 5.49l4.887.013.001-.008-1.47-.004z" mask="url(#q24dvnz0rp)"/>
                            </g>
                            <g transform="translate(-88 -270) translate(32 270) translate(56) translate(21 22) translate(3 .746)">
                                <mask id="kxb70rxh9r" fill="#fff">
                                    <use xlink:href="#94wfujfjhq"/>
                                </mask>
                                <path fill="#B2B2B2" d="M59.383 67.255c-.396-.042-.707-.376-.71-.785-.004-.44.35-.798.789-.8l25.982-.199c.439-.004.797.35.8.79.004.44-.35.798-.79.801l-25.98.197c-.03.001-.061 0-.091-.004" mask="url(#kxb70rxh9r)"/>
                            </g>
                            <g transform="translate(-88 -270) translate(32 270) translate(56) translate(21 22) translate(3 .746)">
                                <mask id="cils3wj1zt" fill="#fff">
                                    <use xlink:href="#yq6t2b1f2s"/>
                                </mask>
                                <path fill="#B2B2B2" d="M59.383 76.941c-.396-.042-.707-.376-.71-.785-.004-.439.35-.798.789-.8l25.982-.199c.439-.003.797.35.8.79.004.44-.35.798-.79.802l-25.98.197c-.03 0-.061-.002-.091-.005" mask="url(#cils3wj1zt)"/>
                            </g>
                            <g transform="translate(-88 -270) translate(32 270) translate(56) translate(21 22) translate(3 .746)">
                                <mask id="ygu1r4167v" fill="#fff">
                                    <use xlink:href="#dclpwe98tu"/>
                                </mask>
                                <path fill="#B2B2B2" d="M59.383 86.628c-.396-.042-.707-.376-.71-.785-.004-.44.35-.798.789-.801l25.982-.198c.439-.004.797.35.8.79.004.439-.35.798-.79.802l-25.98.197c-.03 0-.061-.002-.091-.005" mask="url(#ygu1r4167v)"/>
                            </g>
                            <g>
                                <g transform="translate(-88 -270) translate(32 270) translate(56) translate(21 22) translate(3 .746)">
                                    <mask id="nlax6sncex" fill="#fff">
                                        <use xlink:href="#vtvqmiepgw"/>
                                    </mask>
                                    <path fill="#B2B2B2" d="M93.788 95.25c-.553 0-1-.448-1-1V30.154c0-2.2-1.79-3.99-3.992-3.99H55.131c-2.2 0-3.99 1.79-3.99 3.99v39.781c0 .552-.449 1-1 1-.554 0-1-.448-1-1v-39.78c0-3.305 2.686-5.992 5.99-5.992h33.665c3.304 0 5.992 2.687 5.992 5.991V94.25c0 .552-.447 1-1 1" mask="url(#nlax6sncex)"/>
                                </g>
                                <g transform="translate(-88 -270) translate(32 270) translate(56) translate(21 22) translate(3 .746)">
                                    <mask id="ovkv11fvzz" fill="#fff">
                                        <use xlink:href="#qdf8zxbxfy"/>
                                    </mask>
                                    <path fill="#B2B2B2" d="M88.796 109H55.13c-3.304 0-5.991-2.688-5.991-5.99 0-.553.447-1 1-1 .552 0 1 .447 1 1 0 2.2 1.79 3.99 3.99 3.99h33.666c2.2 0 3.992-1.79 3.992-3.99 0-.553.447-1 1-1 .553 0 1 .447 1 1 0 3.302-2.688 5.99-5.992 5.99" mask="url(#ovkv11fvzz)"/>
                                </g>
                                <g transform="translate(-88 -270) translate(32 270) translate(56) translate(21 22) translate(3 .746)">
                                    <mask id="ghebl70oyB" fill="#fff">
                                        <use xlink:href="#s0p7lsqwnA"/>
                                    </mask>
                                    <path fill="#B2B2B2" d="M93.585 37.609H50.67c-.553 0-1-.448-1-1s.447-1 1-1h42.915c.553 0 1 .448 1 1s-.447 1-1 1" mask="url(#ghebl70oyB)"/>
                                </g>
                                <g transform="translate(-88 -270) translate(32 270) translate(56) translate(21 22) translate(3 .746)">
                                    <mask id="al29xqjyeD" fill="#fff">
                                        <use xlink:href="#mhfs7qo1lC"/>
                                    </mask>
                                    <path fill="#B2B2B2" d="M75.602 31.96h-5.287c-.538 0-.98-.442-.98-.98 0-.539.442-.979.98-.979h5.287c.538 0 .979.44.979.98 0 .537-.441.978-.98.978" mask="url(#al29xqjyeD)"/>
                                </g>
                                <g transform="translate(-88 -270) translate(32 270) translate(56) translate(21 22) translate(3 .746)">
                                    <mask id="09el00ouxF" fill="#fff">
                                        <use xlink:href="#1arrxutg0E"/>
                                    </mask>
                                    <path fill="#B2B2B2" d="M66.766 30.966c0-.506.409-.917.913-.917.505 0 .913.411.913.917s-.408.917-.913.917c-.504 0-.913-.411-.913-.917" mask="url(#09el00ouxF)"/>
                                </g>
                                <g transform="translate(-88 -270) translate(32 270) translate(56) translate(21 22) translate(3 .746)">
                                    <mask id="653kmpb03H" fill="#fff">
                                        <use xlink:href="#46kkplxjvG"/>
                                    </mask>
                                    <path fill="#FCE6D0" d="M49.661 57.898s-3.093-1.115-4.986 2.05c-1.895 3.164-1.896 5.576.017 7.422 1.914 1.847 12.646 6.72 12.646 6.72s3.424.549 4.948-2.302c.618-1.156.625-2.404.416-3.48-.302-1.551-1.253-2.898-2.58-3.753l-10.46-6.657z" mask="url(#653kmpb03H)"/>
                                </g>
                                <g transform="translate(-88 -270) translate(32 270) translate(56) translate(21 22) translate(3 .746)">
                                    <mask id="424ukxlyxJ" fill="#fff">
                                        <use xlink:href="#x1udefpaiI"/>
                                    </mask>
                                    <path fill="#FCE6D0" d="M44.64 78.755c-1.928-1.068-4.417-.432-5.46 1.51l-.047.09c-1.554 3.015-1.437 5.213.38 6.764 1.537 1.311 6.39 1.781 9.606 3.188.825.361 1.746.458 2.61.213.943-.266 2.054-.874 2.68-2.245.709-1.55.305-3.187-.168-4.3-.35-.823-.971-1.495-1.752-1.928l-7.848-3.292z" mask="url(#424ukxlyxJ)"/>
                                </g>
                                <g transform="translate(-88 -270) translate(32 270) translate(56) translate(21 22) translate(3 .746)">
                                    <mask id="b8p5w3abcL" fill="#fff">
                                        <use xlink:href="#zb7lz4l78K"/>
                                    </mask>
                                    <path fill="#FCE6D0" d="M45.447 67.642s-3.109-1.039-4.804 2.05c-1.694 3.09-1.564 5.426.422 7.19 1.986 1.762 12.137 5.342 12.137 5.342s3.404.487 4.751-2.294c.628-1.297.453-2.702.088-3.833-.41-1.274-1.283-2.349-2.434-3.036l-10.16-5.419z" mask="url(#b8p5w3abcL)"/>
                                </g>
                                <g transform="translate(-88 -270) translate(32 270) translate(56) translate(21 22) translate(3 .746)">
                                    <mask id="89sb0bomtN" fill="#fff">
                                        <use xlink:href="#twd78bj4nM"/>
                                    </mask>
                                    <path fill="#FCE6D0" d="M104.394 108.334s4.391-29.86.11-37.908c-4.23-7.954-9.457-19.98-14.886-18.766-5.428 1.216-6.882 4.74-4.944 9.17 1.941 4.43 6.386 13.997 6.386 13.997s-11.263 1.525-6.912 21.787c0 0-.218 21.352 20.246 11.72" mask="url(#89sb0bomtN)"/>
                                </g>
                                <g transform="translate(-88 -270) translate(32 270) translate(56) translate(21 22) translate(3 .746)">
                                    <mask id="y45wkje05P" fill="#fff">
                                        <use xlink:href="#f97qayms6O"/>
                                    </mask>
                                    <path fill="#FDAF27" d="M179.115 213.416c-20.649-32.984-41.563-72.047-56.58-93.805-13.003 1.488-23.482 6.142-35.046 15.133 9.913 28.317 30.57 87.301 45.367 123.256 18.764-12.639 34.48-27.802 46.26-44.584" mask="url(#y45wkje05P)"/>
                                </g>
                                <g transform="translate(-88 -270) translate(32 270) translate(56) translate(21 22) translate(3 .746)">
                                    <mask id="xnh7xfisbR" fill="#fff">
                                        <use xlink:href="#hhygsxhpsQ"/>
                                    </mask>
                                    <path fill="#FF8B00" d="M122.534 119.611c-1.595.182-3.149.404-4.674.668 10.225 19.908 19.311 43.053 26.57 67.49 5.244 17.656 9.157 35.035 11.792 51.717 8.737-8.115 16.43-16.872 22.922-26.123-20.65-32.983-41.59-71.994-56.61-93.752" mask="url(#xnh7xfisbR)"/>
                                </g>
                                <g transform="translate(-88 -270) translate(32 270) translate(56) translate(21 22) translate(3 .746)">
                                    <mask id="shvqlij8pT" fill="#fff">
                                        <use xlink:href="#1fhxzv8m9S"/>
                                    </mask>
                                    <path fill="#B2B2B2" d="M94.766 116.724c-.337 0-.666-.17-.854-.48-.29-.47-.14-1.086.333-1.374 7.179-4.382 8.896-10.033 8.913-10.09.155-.53.712-.832 1.237-.682.529.153.836.703.685 1.233-.074.26-1.906 6.432-9.794 11.247-.163.099-.342.146-.52.146" mask="url(#shvqlij8pT)"/>
                                </g>
                                <g transform="translate(-88 -270) translate(32 270) translate(56) translate(21 22) translate(3 .746)">
                                    <mask id="i42bwdlozV" fill="#fff">
                                        <use xlink:href="#i1x1njvanU"/>
                                    </mask>
                                    <path fill="#B2B2B2" d="M86.245 107.058c-.433 0-.83-.282-.959-.717-6.84-23.166 1.472-30.253 4.462-31.981l-5.983-13.115c-.05-.095-1.763-3.44-.708-6.303.513-1.392 1.561-2.416 3.114-3.044 5.464-2.21 7.987-1.832 11.26 4.712.246.494.045 1.095-.449 1.342-.494.247-1.093.047-1.34-.447-2.73-5.46-4.18-5.59-8.72-3.753-1.022.413-1.67 1.026-1.986 1.875-.753 2.029.613 4.715.626 4.743l6.86 15.03-1.024.368c-.11.042-11.666 4.703-4.194 30.006.156.53-.147 1.086-.676 1.242-.095.028-.189.042-.283.042" mask="url(#i42bwdlozV)"/>
                                </g>
                                <g transform="translate(-88 -270) translate(32 270) translate(56) translate(21 22) translate(3 .746)">
                                    <mask id="waagww5cfX" fill="#fff">
                                        <use xlink:href="#no3tvon2xW"/>
                                    </mask>
                                    <path fill="#B2B2B2" d="M50.036 46.182c-.305 0-.606-.139-.803-.402l-7.025-9.414c-1.065-1.427-1.524-3.1-1.292-4.716.485-3.372 3.49-4.669 5.012-4.884.55-.08 1.052.305 1.13.851.077.545-.302 1.05-.846 1.13-.119.018-2.926.474-3.316 3.187-.154 1.071.18 2.25.915 3.236l7.026 9.414c.33.443.24 1.07-.204 1.4-.179.134-.389.198-.597.198" mask="url(#waagww5cfX)"/>
                                </g>
                                <g transform="translate(-88 -270) translate(32 270) translate(56) translate(21 22) translate(3 .746)">
                                    <mask id="jxwef3ujpZ" fill="#fff">
                                        <use xlink:href="#beddoa0o9Y"/>
                                    </mask>
                                    <path fill="#B2B2B2" d="M54.307 73.674c-.163 0-.33-.04-.482-.126l-9.85-5.481c-.12-.123-2.888-3.058-.403-7.685 2.033-3.79 5.089-3.9 6.423-3.426l.204.097 4.646 2.958c.466.296.604.914.307 1.38-.296.467-.912.605-1.381.308l-4.528-2.883c-.457-.111-2.363-.372-3.91 2.511-1.58 2.945-.34 4.826-.002 5.252l9.46 5.22c.484.265.66.874.393 1.357-.183.33-.524.517-.877.517" mask="url(#jxwef3ujpZ)"/>
                                </g>
                                <g transform="translate(-88 -270) translate(32 270) translate(56) translate(21 22) translate(3 .746)">
                                    <mask id="gbsz61ljmab" fill="#fff">
                                        <use xlink:href="#6yi9cxkyoaa"/>
                                    </mask>
                                    <path fill="#B2B2B2" d="M50.139 82.062c-.14 0-.282-.03-.418-.092l-8.073-3.72c-1.052-.484-1.907-1.305-2.407-2.31-.52-1.046-.781-2.147-.774-3.272.018-2.997 2.456-4.952 2.56-5.033.433-.343 1.064-.266 1.405.167.34.433.267 1.059-.164 1.402-.02.014-1.79 1.456-1.801 3.476-.005.809.185 1.607.565 2.37.296.597.813 1.089 1.453 1.384l8.074 3.72c.5.23.72.825.489 1.326-.17.367-.53.582-.91.582" mask="url(#gbsz61ljmab)"/>
                                </g>
                                <g transform="translate(-88 -270) translate(32 270) translate(56) translate(21 22) translate(3 .746)">
                                    <mask id="xlk72drx2ad" fill="#fff">
                                        <use xlink:href="#k84ka5dgqac"/>
                                    </mask>
                                    <path fill="#B2B2B2" d="M46.935 90.532c-.104 0-.211-.017-.315-.052l-5.5-1.83c-.493-.164-.943-.387-1.337-.662-.773-.539-2.572-2.038-2.572-4.318 0-3.003 2.458-4.959 2.563-5.04.435-.343 1.063-.264 1.404.171.339.434.264 1.06-.17 1.401-.016.014-1.797 1.454-1.797 3.468 0 1.376 1.313 2.397 1.715 2.677.238.166.516.302.826.406l5.498 1.83c.525.174.808.74.634 1.264-.14.42-.53.685-.95.685" mask="url(#xlk72drx2ad)"/>
                                </g>
                                <g transform="translate(-88 -270) translate(32 270) translate(56) translate(21 22) translate(3 .746)">
                                    <mask id="12dc575m1af" fill="#fff">
                                        <use xlink:href="#mjhxc9l4kae"/>
                                    </mask>
                                    <path fill="#B2B2B2" d="M98.54 167.145c-.413 0-.8-.257-.944-.668l-11.234-31.923.345-.432c8.343-10.487 34.54-15.296 35.65-15.496.544-.098 1.064.264 1.161.808.098.544-.263 1.064-.807 1.161-.26.047-25.819 4.737-34.09 14.351l10.861 30.866c.184.521-.09 1.092-.61 1.276-.11.038-.223.057-.333.057" mask="url(#12dc575m1af)"/>
                                </g>
                            </g>
                        </g>
                    </g>
                    <g>
                        <g transform="translate(-88 -270) translate(32 270) translate(56) translate(85.01 62.32) translate(3 3)">
                            <mask id="r0xkaq12kah" fill="#fff">
                                <use xlink:href="#f3pyxl3n9ag"/>
                            </mask>
                            <use fill="#000" xlink:href="#f3pyxl3n9ag"/>
                            <g fill="#FDAF27" mask="url(#r0xkaq12kah)">
                                <path d="M0 0L24 0 24 24 0 24z" transform="translate(-3 -3)"/>
                            </g>
                        </g>
                    </g>
                </g>
            </g>
        </g>
    </g>
</svg>
