<svg xmlns="http://www.w3.org/2000/svg" width="40" height="40" viewBox="0 0 40 40">
    <g fill="none" fill-rule="evenodd">
        <g>
            <g>
                <g transform="translate(-30 -316) translate(16 302) translate(14 14)">
                    <circle cx="20" cy="20" r="18.75" fill="#FF0048" fill-rule="nonzero"/>
                    <g>
                        <path d="M0 0L30 0 30 30 0 30z" transform="translate(5 5)"/>
                        <path fill="#FFF" fill-rule="nonzero" d="M22.875 7.138c-.488-.488-1.275-.488-1.762 0L15 11.875l-6.113-4.75c-.487-.487-1.275-.487-1.762 0-.487.487-.487 1.275 0 1.762L11.875 15l-4.75 6.113c-.487.487-.487 1.274 0 1.762s1.275.488 1.762 0L15 18.125l6.113 4.75c.487.488 1.274.488 1.762 0s.488-1.275 0-1.762L18.125 15l4.75-6.113c.475-.475.475-1.275 0-1.75z" transform="translate(5 5)"/>
                    </g>
                </g>
            </g>
        </g>
    </g>
</svg>
