<svg xmlns="http://www.w3.org/2000/svg" width="24" height="24" viewBox="0 0 24 24">
    <g fill="none" fill-rule="evenodd">
        <g fill-rule="nonzero">
            <g transform="translate(-291 -386) translate(291 386)">
                <circle cx="12" cy="12" r="12"/>
                <g fill="#939393">
                    <path d="M13.093 9.333H11.76V5c0-2.025-1.642-3.667-3.667-3.667S4.427 2.975 4.427 5v4.333H3.093V5c0-2.761 2.239-5 5-5 2.762 0 5 2.239 5 5v4.333z" transform="translate(3.543 2.824)"/>
                    <path d="M15.13 7.333c.59 0 1.07.48 1.07 1.07v8.394c0 .59-.48 1.07-1.07 1.07H1.07c-.59 0-1.07-.48-1.07-1.07V8.403c0-.59.48-1.07 1.07-1.07h14.06zM8.093 10.8c-.994 0-1.8.806-1.8 1.8s.806 1.8 1.8 1.8 1.8-.806 1.8-1.8-.806-1.8-1.8-1.8z" transform="translate(3.543 2.824)"/>
                </g>
            </g>
        </g>
    </g>
</svg>
