<svg xmlns="http://www.w3.org/2000/svg" width="32" height="32" viewBox="0 0 32 32">
    <defs>
        <filter id="3slx4bno6a">
            <feColorMatrix in="SourceGraphic" values="0 0 0 0 1.000000 0 0 0 0 1.000000 0 0 0 0 1.000000 0 0 0 1.000000 0"/>
        </filter>
    </defs>
    <g fill="none" fill-rule="evenodd">
        <g>
            <g>
                <g filter="url(#3slx4bno6a)" transform="translate(-40 -100) translate(0 84) translate(24)">
                    <g>
                        <path d="M0 0H32V32H0z" transform="translate(16 16)"/>
                        <g fill="#000" fill-rule="nonzero" transform="translate(16 16) translate(2 6)">
                            <circle cx="22.564" cy="6.1" r="3.055"/>
                            <circle cx="4.682" cy="6.1" r="3.055"/>
                            <path d="M20.127 17.364c.015.3-.149.582-.418.718-1.887.934-3.966 1.417-6.073 1.409-2.094 0-4.162-.465-6.054-1.364-.266-.134-.43-.411-.418-.709.09-2.327.909-6.418 2.254-8.018.253-.319.71-.387 1.046-.155 1.901 1.366 4.462 1.366 6.363 0 .332-.238.792-.174 1.046.146 1.272 1.6 2.127 5.673 2.254 7.973z"/>
                            <circle cx="13.618" cy="4.773" r="4.264"/>
                            <path d="M7.736 8.99c-.172-.2-.409 0-.409 0-1.238 1.146-3.074 1.363-4.545.537-.515-.282-1.16-.115-1.473.382-.654 1-1.09 4-1.218 5.264-.068.513.225 1.006.709 1.19 1.596.607 3.31.834 5.01.664.145-2.072.826-5.927 1.9-7.582 0-.027.172-.29.026-.454zM25.955 9.91c-.316-.493-.955-.663-1.473-.392-.583.337-1.245.512-1.918.51-.981 0-1.927-.37-2.646-1.037 0 0-.227-.2-.409 0-.182.2 0 .427 0 .427 1.082 1.655 1.818 5.51 1.927 7.582.369.037.74.056 1.11.055 1.338.006 2.665-.244 3.909-.737.472-.186.76-.668.7-1.173-.119-1.254-.555-4.236-1.2-5.236z"/>
                        </g>
                    </g>
                </g>
            </g>
        </g>
    </g>
</svg>
