<svg xmlns="http://www.w3.org/2000/svg" xmlns:xlink="http://www.w3.org/1999/xlink" width="40" height="40" viewBox="0 0 40 40">
    <defs>
        <path id="xgfpzsiica" d="M0 35.293L35 35.293 35 0.293 0 0.293z"/>
    </defs>
    <g fill="none" fill-rule="evenodd">
        <g>
            <g>
                <g>
                    <g transform="translate(-16 -639) translate(16 639) translate(2.5 2.188) translate(0 .02)">
                        <path fill="#FFAC00" d="M18.546 33.423H5.585c-1.445 0-2.616-1.171-2.616-2.616V4.627c0-1.444 1.17-2.615 2.616-2.615h12.961c1.445 0 2.616 1.17 2.616 2.616v26.179c0 1.445-1.17 2.616-2.616 2.616"/>
                        <path fill="#FF8A00" d="M15.947 2.098L4.953 1.896c-1.255-.024-2.28.997-2.261 2.252l.406 27.195c.019 1.29 1.052 2.334 2.342 2.365l.935.024 9.572-31.634z"/>
                        <mask id="jkc0byixpb" fill="#fff">
                            <use xlink:href="#xgfpzsiica"/>
                        </mask>
                        <path fill="#FFF" d="M3.374 27.878L21.163 27.878 21.163 6.915 3.374 6.915z" mask="url(#jkc0byixpb)"/>
                        <path fill="#000" d="M18.546 33.892H5.585c-1.701 0-3.085-1.384-3.085-3.085V4.627c0-1.7 1.384-3.084 3.085-3.084h12.961c1.701 0 3.085 1.385 3.085 3.085v5.96c0 .259-.21.469-.469.469-.258 0-.468-.21-.468-.47v-5.96c0-1.183-.964-2.147-2.148-2.147H5.585c-1.184 0-2.148.964-2.148 2.148v26.179c0 1.183.964 2.147 2.148 2.147h12.961c1.184 0 2.148-.964 2.148-2.147V14.504c0-.259.21-.469.468-.469.26 0 .47.21.47.47v16.302c0 1.7-1.385 3.085-3.086 3.085" mask="url(#jkc0byixpb)"/>
                        <path fill="#000" d="M21.162 7.384H2.968c-.258 0-.468-.21-.468-.469 0-.258.21-.468.468-.468h18.194c.259 0 .469.21.469.468 0 .259-.21.469-.469.469" mask="url(#jkc0byixpb)"/>
                        <path fill="#A605AD" d="M15.25 24.063L17.75 24.063 17.75 12.813 15.25 12.813zM10.625 24.063L13.125 24.063 13.125 16.563 10.625 16.563zM6 24.063L8.5 24.063 8.5 20.313 6 20.313z" mask="url(#jkc0byixpb)"/>
                        <path fill="#000" d="M15.393 28.346H2.97c-.258 0-.468-.21-.468-.469 0-.258.21-.468.468-.468h12.424c.259 0 .469.21.469.468 0 .259-.21.469-.469.469M10.963 30.568c0-.61.494-1.104 1.103-1.104.608 0 1.102.495 1.102 1.104 0 .607-.494 1.102-1.102 1.102-.61 0-1.103-.495-1.103-1.102" mask="url(#jkc0byixpb)"/>
                        <path fill="#FFF" d="M17.076 25.422c0-4.516 3.661-8.178 8.178-8.178 4.517 0 8.18 3.662 8.18 8.178 0 4.517-3.663 8.18-8.18 8.18-4.517 0-8.178-3.663-8.178-8.18" mask="url(#jkc0byixpb)"/>
                        <path fill="#000" d="M25.46 34.063c-4.767 0-8.647-3.88-8.647-8.648 0-4.767 3.88-8.648 8.648-8.648 4.767 0 8.647 3.88 8.647 8.648 0 .259-.21.469-.468.469-.26 0-.47-.21-.47-.469 0-4.251-3.458-7.71-7.71-7.71-4.25 0-7.71 3.459-7.71 7.71 0 4.251 3.46 7.71 7.71 7.71 1.37 0 2.713-.362 3.887-1.049.224-.132.511-.056.641.168.132.224.057.51-.167.641-1.318.77-2.825 1.178-4.36 1.178" mask="url(#jkc0byixpb)"/>
                        <path fill="#A605AD" d="M22.739 28.801c.79.625 1.707.96 2.736.957 1.021-.004 1.934-.338 2.721-.964l1.84 1.84c-2.55 2.358-6.715 2.264-9.139.01L22.74 28.8M30.698 29.999l-1.84-1.84c1.282-1.825 1.278-3.663-.002-5.495l1.835-1.834c.931 1.07 1.509 2.314 1.671 3.736.235 2.053-.336 3.864-1.664 5.433M30.05 20.212c-.595.594-1.181 1.178-1.765 1.767-.069.068-.113.045-.172-.002-.552-.428-1.172-.707-1.858-.833-.844-.153-1.671-.083-2.457.265-.38.167-.733.393-1.095.592L20.89 20.19c2.613-2.395 6.784-2.217 9.16.023M20.258 20.824c.598.598 1.185 1.188 1.776 1.775.077.075.022.119-.02.172-.376.493-.645 1.04-.78 1.645-.272 1.22-.067 2.357.61 3.408.037.057.08.11.12.165l.113.151c-.618.615-1.229 1.228-1.841 1.839-2.335-2.515-2.278-6.694.022-9.155" mask="url(#jkc0byixpb)"/>
                    </g>
                    <path fill="#000" fill-rule="nonzero" d="M26.276 24.118c.123 0 .23.056.298.145l.045.073.025.074.07-.056c.126-.09.274-.154.436-.192l.166-.029.175-.01c.834 0 1.45.656 1.45 1.534 0 .884-.616 1.54-1.45 1.54-.232 0-.448-.052-.634-.147l-.133-.08-.063-.05.001.897c0 .162-.084.295-.213.359l-.082.029-.091.01c-.19 0-.342-.127-.382-.305l-.01-.093V24.51c0-.222.167-.392.392-.392zm1.12.733c-.442 0-.74.322-.74.806 0 .492.294.812.74.812.434 0 .75-.337.75-.806 0-.473-.316-.812-.75-.812zM23.905 23.235c.804 0 1.354.496 1.354 1.23 0 .447-.208.82-.567 1.036l-.04.02.75 1.03c.033.04.058.082.076.124l.022.062.012.096c0 .203-.165.364-.37.364-.106 0-.203-.043-.283-.123l-.057-.068-.897-1.305-.66-.001v1.1c0 .224-.17.397-.392.397-.19 0-.342-.127-.382-.305l-.01-.093v-3.167c0-.193.126-.347.305-.387l.093-.01h1.046zm-.66.715v1.034h.649c.357 0 .564-.193.564-.513 0-.285-.167-.474-.452-.512l-.112-.008-.649-.001z" transform="translate(-16 -639) translate(16 639) translate(2.5 2.188)"/>
                </g>
            </g>
        </g>
    </g>
</svg>
