<svg xmlns="http://www.w3.org/2000/svg" xmlns:xlink="http://www.w3.org/1999/xlink" width="24" height="25" viewBox="0 0 24 25">
    <defs>
        <path id="p3d8got41a" d="M12 2C6.48 2 2 6.48 2 12s4.48 10 10 10 10-4.48 10-10S17.52 2 12 2zm1 17h-2v-2h2v2zm2.07-7.75l-.9.92c-.5.51-.86.97-1.04 1.69-.08.32-.13.68-.13 1.14h-2v-.5c0-.46.08-.9.22-1.31.2-.58.53-1.1.95-1.52l1.24-1.26c.46-.44.68-1.1.55-1.8-.13-.72-.69-1.33-1.39-1.53-1.11-.31-2.14.32-2.47 1.27-.12.37-.43.65-.82.65h-.3C8.4 9 8 8.44 8.16 7.88c.43-1.47 1.68-2.59 3.23-2.83 1.52-.24 2.97.55 3.87 1.8 1.18 1.63.83 3.38-.19 4.4z"/>
    </defs>
    <g fill="none" fill-rule="evenodd">
        <g>
            <g>
                <g>
                    <g>
                        <g transform="translate(-335 -31) translate(-134) translate(134) translate(8 30.862) translate(327 .431)">
                            <path d="M0 0L24 0 24 24 0 24z"/>
                            <mask id="f8lc658hlb" fill="#fff">
                                <use xlink:href="#p3d8got41a"/>
                            </mask>
                            <use fill="#000" fill-rule="nonzero" xlink:href="#p3d8got41a"/>
                            <g fill="#FFF" mask="url(#f8lc658hlb)">
                                <path d="M0 0L24 0 24 24 0 24z"/>
                            </g>
                        </g>
                    </g>
                </g>
            </g>
        </g>
    </g>
</svg>
