<svg width="200" height="200" viewBox="0 0 200 200" xmlns="http://www.w3.org/2000/svg" xmlns:xlink="http://www.w3.org/1999/xlink">
    <defs>
        <path id="a" d="M0 158h158V0H0z"/>
        <path d="M77.43 0C34.666 0 0 35.37 0 79s34.665 79 77.43 79c42.771 0 77.442-35.37 77.442-79" id="c"/>
        <path d="M77.43 0C34.666 0 0 35.37 0 79s34.665 79 77.43 79c42.771 0 77.442-35.37 77.442-79" id="e"/>
        <path d="M77.43 0C34.666 0 0 35.37 0 79s34.665 79 77.43 79c42.771 0 77.442-35.37 77.442-79S120.202 0 77.43 0z" id="g"/>
        <path d="M77.43 0C34.666 0 0 35.37 0 79s34.665 79 77.43 79c42.771 0 77.442-35.37 77.442-79S120.202 0 77.43 0z" id="i"/>
        <path d="M77.43 0C34.666 0 0 35.37 0 79s34.665 79 77.43 79c42.771 0 77.442-35.37 77.442-79S120.202 0 77.43 0z" id="k"/>
        <path d="M77.43 0C34.666 0 0 35.37 0 79s34.665 79 77.43 79c42.771 0 77.442-35.37 77.442-79" id="m"/>
        <path d="M77.43 0C34.666 0 0 35.37 0 79s34.665 79 77.43 79c42.771 0 77.442-35.37 77.442-79" id="o"/>
        <path d="M77.43 0C34.666 0 0 35.37 0 79s34.665 79 77.43 79c42.771 0 77.442-35.37 77.442-79" id="q"/>
        <path d="M77.43 0C34.666 0 0 35.37 0 79s34.665 79 77.43 79c42.771 0 77.442-35.37 77.442-79" id="s"/>
        <path d="M77.43 0C34.666 0 0 35.37 0 79s34.665 79 77.43 79c42.771 0 77.442-35.37 77.442-79" id="u"/>
        <path d="M77.43 0C34.666 0 0 35.37 0 79s34.665 79 77.43 79c42.771 0 77.442-35.37 77.442-79" id="w"/>
        <path d="M77.43 0C34.666 0 0 35.37 0 79s34.665 79 77.43 79c42.771 0 77.442-35.37 77.442-79" id="y"/>
        <path d="M77.43 0C34.666 0 0 35.37 0 79s34.665 79 77.43 79c42.771 0 77.442-35.37 77.442-79" id="A"/>
        <path d="M77.43 0C34.666 0 0 35.37 0 79s34.665 79 77.43 79c42.771 0 77.442-35.37 77.442-79" id="C"/>
        <path d="M77.43 0C34.666 0 0 35.37 0 79s34.665 79 77.43 79c42.771 0 77.442-35.37 77.442-79" id="E"/>
        <path d="M77.43 0C34.666 0 0 35.37 0 79s34.665 79 77.43 79c42.771 0 77.442-35.37 77.442-79" id="G"/>
        <path d="M77.43 0C34.666 0 0 35.37 0 79s34.665 79 77.43 79c42.771 0 77.442-35.37 77.442-79S120.202 0 77.43 0z" id="I"/>
        <path d="M77.43 0C34.666 0 0 35.37 0 79s34.665 79 77.43 79c42.771 0 77.442-35.37 77.442-79S120.202 0 77.43 0z" id="K"/>
        <path d="M77.43 0C34.666 0 0 35.37 0 79s34.665 79 77.43 79c42.771 0 77.442-35.37 77.442-79S120.202 0 77.43 0z" id="M"/>
        <path d="M77.43 0C34.666 0 0 35.37 0 79s34.665 79 77.43 79c42.771 0 77.442-35.37 77.442-79" id="O"/>
        <path d="M77.43 0C34.666 0 0 35.37 0 79s34.665 79 77.43 79c42.771 0 77.442-35.37 77.442-79" id="Q"/>
        <path d="M77.43 0C34.666 0 0 35.37 0 79s34.665 79 77.43 79c42.771 0 77.442-35.37 77.442-79" id="S"/>
        <path d="M77.43 0C34.666 0 0 35.37 0 79s34.665 79 77.43 79c42.771 0 77.442-35.37 77.442-79" id="U"/>
        <path d="M77.43 0C34.666 0 0 35.37 0 79s34.665 79 77.43 79c42.771 0 77.442-35.37 77.442-79S120.202 0 77.43 0z" id="W"/>
        <path d="M77.43 0C34.666 0 0 35.37 0 79s34.665 79 77.43 79c42.771 0 77.442-35.37 77.442-79S120.202 0 77.43 0z" id="Y"/>
        <path d="M77.43 0C34.666 0 0 35.37 0 79s34.665 79 77.43 79c42.771 0 77.442-35.37 77.442-79S120.202 0 77.43 0z" id="aa"/>
        <path d="M77.43 0C34.666 0 0 35.37 0 79s34.665 79 77.43 79c42.771 0 77.442-35.37 77.442-79" id="ac"/>
        <path d="M77.43 0C34.666 0 0 35.37 0 79s34.665 79 77.43 79c42.771 0 77.442-35.37 77.442-79" id="ae"/>
        <path d="M77.43 0C34.666 0 0 35.37 0 79s34.665 79 77.43 79c42.771 0 77.442-35.37 77.442-79" id="ag"/>
        <path d="M77.43 0C34.666 0 0 35.37 0 79s34.665 79 77.43 79c42.771 0 77.442-35.37 77.442-79" id="ai"/>
        <path d="M77.43 0C34.666 0 0 35.37 0 79s34.665 79 77.43 79c42.771 0 77.442-35.37 77.442-79" id="ak"/>
        <path d="M77.43 0C34.666 0 0 35.37 0 79s34.665 79 77.43 79c42.771 0 77.442-35.37 77.442-79" id="am"/>
        <path d="M77.43 0C34.666 0 0 35.37 0 79s34.665 79 77.43 79c42.771 0 77.442-35.37 77.442-79" id="ao"/>
        <path d="M77.43 0C34.666 0 0 35.37 0 79s34.665 79 77.43 79c42.771 0 77.442-35.37 77.442-79" id="aq"/>
        <path d="M77.43 0C34.666 0 0 35.37 0 79s34.665 79 77.43 79c42.771 0 77.442-35.37 77.442-79" id="as"/>
    </defs>
    <g transform="translate(21 21)" fill="none" fill-rule="evenodd">
        <path d="M155.728 79c0 43.63-34.67 79-77.435 79C35.523 158 .857 122.63.857 79S35.522 0 78.293 0c42.765 0 77.435 35.37 77.435 79" fill="#EFEFEF"/>
        <path d="M138.07 26.624c-1.16 0-2.107.964-2.107 2.149s.948 2.149 2.106 2.149c1.164 0 2.107-.964 2.107-2.15 0-1.184-.943-2.148-2.107-2.148m0 6.04c-2.101 0-3.813-1.742-3.813-3.891s1.712-3.892 3.813-3.892c2.107 0 3.819 1.743 3.819 3.892s-1.712 3.892-3.819 3.892" fill="#B2B2B2"/>
        <mask id="b" fill="#fff">
            <use xlink:href="#a"/>
        </mask>
        <path fill="#B2B2B2" mask="url(#b)" d="M42.56 31.252h.853V24.4h-.853z"/>
        <path fill="#B2B2B2" mask="url(#b)" d="M39.626 28.266h6.715v-.874h-6.715zM144.467 79.435c-.737 0-1.332.611-1.332 1.359 0 .753.595 1.364 1.332 1.364.738 0 1.333-.611 1.333-1.364 0-.748-.595-1.359-1.333-1.359m0 3.597c-1.206 0-2.19-1.006-2.19-2.238 0-1.227.984-2.233 2.19-2.233s2.191 1.006 2.191 2.233c0 1.232-.985 2.238-2.19 2.238M58.85 145.981h.853v-6.851h-.853z"/>
        <path fill="#B2B2B2" mask="url(#b)" d="M55.916 142.99h6.715v-.874h-6.715zM4.408 105.48h.853V98.63h-.853z"/>
        <path fill="#B2B2B2" mask="url(#b)" d="M1.475 102.49H8.19v-.875H1.475zM3.6 65.492c-1.043 0-1.891.863-1.891 1.927s.848 1.928 1.89 1.928c1.044 0 1.886-.864 1.886-1.928s-.842-1.927-1.885-1.927m0 5.598c-1.986 0-3.603-1.648-3.603-3.67 0-2.029 1.617-3.672 3.603-3.672 1.98 0 3.597 1.643 3.597 3.671 0 2.023-1.617 3.671-3.597 3.671M151.86 138.698h.858v-11.645h-.859z"/>
        <path fill="#B2B2B2" mask="url(#b)" d="M146.587 133.31H158v-.874h-11.413zM127.626 104.15a.958.958 0 0 0-.948.964c0 .532.427.964.948.964a.953.953 0 0 0 .943-.964.953.953 0 0 0-.943-.964m0 2.802c-.99 0-1.801-.827-1.801-1.838 0-1.011.81-1.838 1.801-1.838.99 0 1.796.827 1.796 1.838 0 1.011-.806 1.838-1.796 1.838M32.795 132.343c-1.043 0-1.89.864-1.89 1.928s.847 1.928 1.89 1.928 1.89-.864 1.89-1.928-.847-1.928-1.89-1.928m0 5.599c-1.986 0-3.602-1.649-3.602-3.671 0-2.028 1.616-3.676 3.602-3.676 1.986 0 3.597 1.648 3.597 3.676 0 2.022-1.611 3.67-3.597 3.67"/>
        <g>
            <g transform="translate(.858)">
                <mask id="d" fill="#fff">
                    <use xlink:href="#c"/>
                </mask>
                <path d="M102.558 119.606h-3.175c-15.416 0-27.92-12.503-27.92-27.919V74.702c0-15.42 12.504-27.923 27.92-27.923h3.175c15.421 0 27.919 12.503 27.919 27.923v16.985c0 15.416-12.498 27.919-27.919 27.919" fill="#CCCBCB" mask="url(#d)"/>
            </g>
            <g transform="translate(.858)">
                <mask id="f" fill="#fff">
                    <use xlink:href="#e"/>
                </mask>
                <path d="m88.166 46.986-8.453 72.828h43.091c4.335 0 7.848-3.392 7.848-7.58V54.56c0-4.182-3.513-7.574-7.848-7.574H88.166z" fill="#D8D7D6" mask="url(#f)"/>
            </g>
            <g transform="translate(.858)">
                <mask id="h" fill="#fff">
                    <use xlink:href="#g"/>
                </mask>
                <path d="M80.72 48.192c-4.234 0-7.679 3.323-7.679 7.416v55.379c0 4.087 3.445 7.415 7.68 7.415h40.942c4.235 0 7.679-3.328 7.679-7.415v-55.38c0-4.092-3.444-7.415-7.679-7.415H80.72zm40.943 72.828H80.72c-5.73 0-10.391-4.503-10.391-10.033v-55.38c0-5.535 4.661-10.032 10.391-10.032h40.943c5.73 0 10.391 4.497 10.391 10.033v55.379c0 5.53-4.66 10.033-10.39 10.033z" fill="#B2B2B2" mask="url(#h)"/>
            </g>
            <g transform="translate(.858)">
                <mask id="j" fill="#fff">
                    <use xlink:href="#i"/>
                </mask>
                <path fill="#B2B2B2" mask="url(#j)" d="m100.753 88.135-29.14-17.733 1.448-2.212 27.745 16.88 29.862-16.901 1.369 2.259z"/>
            </g>
            <g transform="translate(.858)">
                <mask id="l" fill="#fff">
                    <use xlink:href="#k"/>
                </mask>
                <path fill="#B2B2B2" mask="url(#l)" d="M100.522 79.087 76.885 65.49l-.216-17.807 2.707-.031.2 16.337 20.972 12.071 22.462-12.392v-16h2.707v17.516z"/>
            </g>
            <g transform="translate(.858)">
                <mask id="n" fill="#fff">
                    <use xlink:href="#m"/>
                </mask>
                <path d="M104.356 59.767c0 2.397-2.012 4.335-4.493 4.335-2.48 0-4.492-1.938-4.492-4.335 0-2.396 2.012-4.334 4.492-4.334 2.481 0 4.493 1.938 4.493 4.334" fill="#FFF" mask="url(#n)"/>
            </g>
            <g transform="translate(.858)">
                <mask id="p" fill="#fff">
                    <use xlink:href="#o"/>
                </mask>
                <path d="M99.863 56.74c-1.732 0-3.139 1.36-3.139 3.029 0 1.67 1.407 3.028 3.14 3.028 1.727 0 3.138-1.359 3.138-3.028 0-1.67-1.411-3.029-3.139-3.029m0 8.67c-3.223 0-5.846-2.529-5.846-5.641 0-3.113 2.623-5.646 5.846-5.646 3.224 0 5.846 2.533 5.846 5.646 0 3.112-2.622 5.64-5.846 5.64" fill="#B2B2B2" mask="url(#p)"/>
            </g>
            <g transform="translate(.858)">
                <mask id="r" fill="#fff">
                    <use xlink:href="#q"/>
                </mask>
                <path d="M78.704 79.37c-.748 0-1.354-.584-1.354-1.31v-4.361c0-.722.606-1.307 1.354-1.307.748 0 1.354.585 1.354 1.307v4.36c0 .727-.606 1.312-1.354 1.312" fill="#B2B2B2" mask="url(#r)"/>
            </g>
            <g transform="translate(.858)">
                <mask id="t" fill="#fff">
                    <use xlink:href="#s"/>
                </mask>
                <path d="M78.704 99.25c-.748 0-1.354-.585-1.354-1.307V88c0-.722.606-1.306 1.354-1.306.748 0 1.354.584 1.354 1.306v9.943c0 .722-.606 1.306-1.354 1.306" fill="#B2B2B2" mask="url(#t)"/>
            </g>
            <g transform="translate(.858)">
                <mask id="v" fill="#fff">
                    <use xlink:href="#u"/>
                </mask>
                <path d="M83.22 113.552h-4.514c-.753 0-1.359-.584-1.359-1.31v-4.362c0-.716.606-1.306 1.36-1.306.747 0 1.353.59 1.353 1.306v3.055h3.16c.748 0 1.353.585 1.353 1.306 0 .727-.605 1.311-1.353 1.311" fill="#B2B2B2" mask="url(#v)"/>
            </g>
            <g transform="translate(.858)">
                <mask id="x" fill="#fff">
                    <use xlink:href="#w"/>
                </mask>
                <path d="M97.266 113.552h-7.02c-.748 0-1.36-.584-1.36-1.31 0-.722.612-1.307 1.36-1.307h7.02c.748 0 1.353.585 1.353 1.306 0 .727-.605 1.311-1.353 1.311m14.046 0h-7.026c-.748 0-1.353-.584-1.353-1.31 0-.722.605-1.307 1.353-1.307h7.026c.748 0 1.354.585 1.354 1.306 0 .727-.606 1.311-1.354 1.311" fill="#B2B2B2" mask="url(#x)"/>
            </g>
            <g transform="translate(.858)">
                <mask id="z" fill="#fff">
                    <use xlink:href="#y"/>
                </mask>
                <path d="M122.85 113.552h-4.513c-.753 0-1.359-.584-1.359-1.31 0-.722.606-1.307 1.36-1.307h3.16v-3.055c0-.716.605-1.306 1.353-1.306s1.353.59 1.353 1.306v4.361c0 .727-.605 1.311-1.353 1.311" fill="#B2B2B2" mask="url(#z)"/>
            </g>
            <g transform="translate(.858)">
                <mask id="B" fill="#fff">
                    <use xlink:href="#A"/>
                </mask>
                <path d="M122.85 99.558c-.747 0-1.353-.585-1.353-1.311v-9.633c0-.722.606-1.306 1.354-1.306.748 0 1.353.584 1.353 1.306v9.633c0 .726-.605 1.31-1.353 1.31" fill="#B2B2B2" mask="url(#B)"/>
            </g>
            <g transform="translate(.858)">
                <mask id="D" fill="#fff">
                    <use xlink:href="#C"/>
                </mask>
                <path d="M122.85 80.289c-.747 0-1.353-.585-1.353-1.306v-4.361c0-.722.606-1.312 1.354-1.312.748 0 1.353.59 1.353 1.312v4.36c0 .722-.605 1.307-1.353 1.307" fill="#B2B2B2" mask="url(#D)"/>
            </g>
            <g transform="translate(.858)">
                <mask id="F" fill="#fff">
                    <use xlink:href="#E"/>
                </mask>
                <path d="M78.017 119.503h-3.176c-15.42 0-27.918-12.498-27.918-27.918V74.6c0-15.421 12.498-27.924 27.918-27.924h3.176c15.421 0 27.919 12.503 27.919 27.924v16.985c0 15.42-12.498 27.918-27.919 27.918" fill="#CCCBCB" mask="url(#F)"/>
            </g>
            <g transform="translate(.858)">
                <mask id="H" fill="#fff">
                    <use xlink:href="#G"/>
                </mask>
                <path d="M98.264 46.883H63.625l-8.453 72.828h43.092c4.334 0 7.847-3.392 7.847-7.579v-57.67c0-4.187-3.513-7.579-7.847-7.579" fill="#FFCA6E" mask="url(#H)"/>
            </g>
            <g transform="translate(.858)">
                <mask id="J" fill="#fff">
                    <use xlink:href="#I"/>
                </mask>
                <path d="M56.177 48.09c-4.234 0-7.679 3.323-7.679 7.415v55.379c0 4.087 3.445 7.415 7.679 7.415h40.948c4.235 0 7.679-3.328 7.679-7.415v-55.38c0-4.091-3.444-7.415-7.679-7.415H56.177zm40.948 72.827H56.177c-5.725 0-10.391-4.503-10.391-10.033v-55.38c0-5.534 4.666-10.032 10.39-10.032h40.95c5.724 0 10.39 4.498 10.39 10.033v55.379c0 5.53-4.666 10.033-10.39 10.033z" fill="#B2B2B2" mask="url(#J)"/>
            </g>
            <g transform="translate(.858)">
                <mask id="L" fill="#fff">
                    <use xlink:href="#K"/>
                </mask>
                <path fill="#B2B2B2" mask="url(#L)" d="M76.21 88.03 47.07 70.301l1.448-2.212 27.744 16.88 29.862-16.901 1.37 2.254z"/>
            </g>
            <g transform="translate(.858)">
                <mask id="N" fill="#fff">
                    <use xlink:href="#M"/>
                </mask>
                <path fill="#B2B2B2" mask="url(#N)" d="M75.978 78.985 52.341 65.386l-.216-17.806 2.707-.032.2 16.342 20.972 12.066 22.463-12.392v-16h2.712V65.08z"/>
            </g>
            <g transform="translate(.858)">
                <mask id="P" fill="#fff">
                    <use xlink:href="#O"/>
                </mask>
                <path d="M72.725 113.45h-7.02c-.753 0-1.359-.585-1.359-1.312 0-.716.606-1.306 1.359-1.306h7.02c.748 0 1.354.59 1.354 1.306 0 .727-.606 1.312-1.354 1.312m14.046 0h-7.025c-.748 0-1.354-.585-1.354-1.312 0-.716.606-1.306 1.354-1.306h7.025c.748 0 1.354.59 1.354 1.306 0 .727-.606 1.312-1.354 1.312" fill="#B2B2B2" mask="url(#P)"/>
            </g>
            <g transform="translate(.858)">
                <mask id="R" fill="#fff">
                    <use xlink:href="#Q"/>
                </mask>
                <path d="M98.31 113.45h-4.519c-.747 0-1.353-.585-1.353-1.312 0-.716.606-1.306 1.353-1.306h3.166v-3.05c0-.72.605-1.31 1.353-1.31s1.354.59 1.354 1.31v4.356c0 .727-.606 1.312-1.354 1.312" fill="#B2B2B2" mask="url(#R)"/>
            </g>
            <g transform="translate(.858)">
                <mask id="T" fill="#fff">
                    <use xlink:href="#S"/>
                </mask>
                <path d="M98.31 99.455c-.748 0-1.353-.585-1.353-1.312v-9.632c0-.722.605-1.307 1.353-1.307s1.354.585 1.354 1.307v9.632c0 .727-.606 1.312-1.354 1.312" fill="#B2B2B2" mask="url(#T)"/>
            </g>
            <g transform="translate(.858)">
                <mask id="V" fill="#fff">
                    <use xlink:href="#U"/>
                </mask>
                <path d="M98.31 80.186c-.748 0-1.353-.585-1.353-1.312V74.52c0-.722.605-1.312 1.353-1.312s1.354.59 1.354 1.312v4.355c0 .727-.606 1.312-1.354 1.312" fill="#B2B2B2" mask="url(#V)"/>
            </g>
        </g>
        <rect fill="#FFF" x="25" y="48" width="58" height="72" rx="6"/>
        <path d="M27 48h12l-8 72h-1a6 6 0 0 1-6-6V51a3 3 0 0 1 3-3z" fill="#EFEFEF"/>
        <g>
            <g transform="translate(.858)">
                <mask id="X" fill="#fff">
                    <use xlink:href="#W"/>
                </mask>
                <path d="M31.846 47.987c-4.234 0-7.678 3.323-7.678 7.41v55.384c0 4.087 3.444 7.416 7.678 7.416H72.79c4.234 0 7.678-3.329 7.678-7.416V55.397c0-4.087-3.444-7.41-7.678-7.41H31.846zm40.944 72.827H31.846c-5.73 0-10.39-4.503-10.39-10.033V55.397c0-5.53 4.66-10.028 10.39-10.028H72.79c5.73 0 10.39 4.498 10.39 10.028v55.384c0 5.53-4.66 10.033-10.39 10.033z" fill="#B2B2B2" mask="url(#X)"/>
            </g>
            <g transform="translate(.858)">
                <mask id="Z" fill="#fff">
                    <use xlink:href="#Y"/>
                </mask>
                <path fill="#B2B2B2" mask="url(#Z)" d="M51.88 87.926 22.738 70.2l1.443-2.217 27.745 16.885L81.794 67.96l1.37 2.259z"/>
            </g>
            <g transform="translate(.858)">
                <mask id="ab" fill="#fff">
                    <use xlink:href="#aa"/>
                </mask>
                <path fill="#B2B2B2" mask="url(#ab)" d="m51.648 78.88-23.642-13.6-.216-17.806 2.712-.031.2 16.342 20.972 12.066L74.137 63.46v-16h2.707v17.516z"/>
            </g>
            <g transform="translate(.858)">
                <mask id="ad" fill="#fff">
                    <use xlink:href="#ac"/>
                </mask>
                <path d="M55.48 59.561c0 2.397-2.012 4.335-4.493 4.335-2.48 0-4.492-1.938-4.492-4.335 0-2.396 2.012-4.34 4.492-4.34s4.493 1.944 4.493 4.34" fill="#FFF" mask="url(#ad)"/>
            </g>
            <g transform="translate(.858)">
                <mask id="af" fill="#fff">
                    <use xlink:href="#ae"/>
                </mask>
                <path d="M50.987 56.532c-1.727 0-3.134 1.359-3.134 3.028 0 1.67 1.407 3.029 3.134 3.029 1.733 0 3.14-1.36 3.14-3.029 0-1.67-1.407-3.028-3.14-3.028m0 8.674c-3.223 0-5.846-2.533-5.846-5.646 0-3.112 2.623-5.646 5.846-5.646s5.846 2.534 5.846 5.646c0 3.113-2.623 5.646-5.846 5.646" fill="#B2B2B2" mask="url(#af)"/>
            </g>
            <g transform="translate(.858)">
                <mask id="ah" fill="#fff">
                    <use xlink:href="#ag"/>
                </mask>
                <path d="M29.83 79.162c-.747 0-1.353-.584-1.353-1.311v-4.356c0-.721.606-1.311 1.353-1.311.748 0 1.354.59 1.354 1.311v4.356c0 .727-.606 1.311-1.354 1.311" fill="#B2B2B2" mask="url(#ah)"/>
            </g>
            <g transform="translate(.858)">
                <mask id="aj" fill="#fff">
                    <use xlink:href="#ai"/>
                </mask>
                <path d="M29.83 99.043c-.747 0-1.353-.584-1.353-1.311v-9.938c0-.722.606-1.306 1.353-1.306.748 0 1.354.584 1.354 1.306v9.938c0 .727-.606 1.311-1.354 1.311" fill="#B2B2B2" mask="url(#aj)"/>
            </g>
            <g transform="translate(.858)">
                <mask id="al" fill="#fff">
                    <use xlink:href="#ak"/>
                </mask>
                <path d="M34.346 113.344h-4.513c-.754 0-1.36-.585-1.36-1.306v-4.361c0-.722.606-1.311 1.36-1.311.742 0 1.353.59 1.353 1.311v3.05h3.16c.748 0 1.354.59 1.354 1.31 0 .722-.606 1.307-1.354 1.307" fill="#B2B2B2" mask="url(#al)"/>
            </g>
            <g transform="translate(.858)">
                <mask id="an" fill="#fff">
                    <use xlink:href="#am"/>
                </mask>
                <path d="M48.392 113.344h-7.02c-.753 0-1.359-.585-1.359-1.306 0-.722.606-1.312 1.359-1.312h7.02c.748 0 1.354.59 1.354 1.312 0 .721-.606 1.306-1.354 1.306m14.046 0h-7.025c-.748 0-1.354-.585-1.354-1.306 0-.722.606-1.312 1.354-1.312h7.025c.748 0 1.354.59 1.354 1.312 0 .721-.606 1.306-1.354 1.306" fill="#B2B2B2" mask="url(#an)"/>
            </g>
            <g transform="translate(.858)">
                <mask id="ap" fill="#fff">
                    <use xlink:href="#ao"/>
                </mask>
                <path d="M73.978 113.344h-4.52c-.747 0-1.353-.585-1.353-1.306 0-.722.606-1.312 1.354-1.312h3.165v-3.049c0-.722.606-1.311 1.354-1.311.748 0 1.353.59 1.353 1.311v4.36c0 .722-.605 1.307-1.353 1.307" fill="#B2B2B2" mask="url(#ap)"/>
            </g>
            <g transform="translate(.858)">
                <mask id="ar" fill="#fff">
                    <use xlink:href="#aq"/>
                </mask>
                <path d="M73.978 99.35c-.748 0-1.354-.585-1.354-1.307V88.41c0-.721.606-1.31 1.354-1.31.748 0 1.353.589 1.353 1.31v9.633c0 .722-.605 1.306-1.353 1.306" fill="#B2B2B2" mask="url(#ar)"/>
            </g>
            <g transform="translate(.858)">
                <mask id="at" fill="#fff">
                    <use xlink:href="#as"/>
                </mask>
                <path d="M73.978 80.083c-.748 0-1.354-.585-1.354-1.312v-4.36c0-.722.606-1.307 1.354-1.307.748 0 1.353.585 1.353 1.307v4.36c0 .727-.605 1.312-1.353 1.312" fill="#B2B2B2" mask="url(#at)"/>
            </g>
        </g>
    </g>
</svg>
