<svg width="140" height="50" viewBox="0 0 140 50" xmlns="http://www.w3.org/2000/svg">
    <g fill="none" fill-rule="evenodd">
        <path d="M23.965 7.249c-1.937-.379-3.954.508-4.974 2.187a4.575 4.575 0 0 0-.525 1.265c-.45-1.712-1.864-3.1-3.662-3.452-1.937-.379-3.954.508-4.974 2.187a4.58 4.58 0 0 0-.525 1.265c-.45-1.712-1.864-3.1-3.662-3.452C3.706 6.87 1.69 7.757.67 9.436a4.717 4.717 0 0 0 .4 5.412 4.798 4.798 0 0 0 5.258 1.44 4.762 4.762 0 0 0 2.98-3.273c.167.662.474 1.292.923 1.833a4.798 4.798 0 0 0 5.258 1.44 4.762 4.762 0 0 0 2.98-3.273 4.63 4.63 0 0 0 .923 1.833 4.798 4.798 0 0 0 5.258 1.44c1.858-.665 3.13-2.465 3.13-4.426 0-2.216-1.623-4.185-3.814-4.613M8.847 30.084c.482 2.046 1.709 3.955 3.857 4.538 2.04.554 4.314-.345 5.364-2.18.63-1.1.55-2.347.546-3.564-.004-.822-.008-1.643-.008-2.464 0-.904 0-1.808.004-2.711.006-1.158-.028-2.282.552-3.333a4.473 4.473 0 0 1 4.064-2.281 4.466 4.466 0 0 1 3.885 2.65c.445 1.02.368 2.127.373 3.212.003.896.003 1.793.003 2.689 0 1.934.122 3.953-.257 5.858-.877 4.41-3.952 8.248-8.121 10.016-4.168 1.768-9.107 1.295-12.864-1.22a13.114 13.114 0 0 1-4.384-4.94C.867 34.395.265 31.943.647 29.747c.284-1.636 1.587-2.973 3.226-3.307 1.702-.346 3.482.435 4.371 1.918.323.539.462 1.124.603 1.727" fill="#FAAE27"/>
        <path fill="#020303" d="M123.429 29.82c0 3.246 2.262 5.576 5.361 5.576 3.058 0 5.361-2.372 5.361-5.576 0-3.245-2.303-5.658-5.361-5.658-3.1 0-5.361 2.371-5.361 5.658m16.502-.041c0 5.991-4.942 10.776-11.183 10.776-6.199 0-11.057-4.743-11.057-10.776 0-6.033 4.858-10.735 11.099-10.735 6.199 0 11.141 4.743 11.141 10.735M50.47 33.831c1.051.6 2.062 1.215 3.325 1.14a3.944 3.944 0 0 0 2.998-1.684c.64-.916.625-1.963.625-3.023V15.317c0-.618-.034-1.229.206-1.817.71-1.748 3.01-2.31 4.455-1.087.773.655.994 1.553.994 2.511 0 1.93.056 15.29-.014 16.615-.128 2.392-1.222 4.705-2.942 6.376-1.782 1.73-4.223 2.683-6.709 2.682-2.385-.002-4.906-.912-6.467-2.763-.628-.743-.992-1.623-.745-2.597a2.65 2.65 0 0 1 1.952-1.912c.863-.202 1.59.087 2.322.506M77.475 35.48c-3.141 0-5.36-2.373-5.36-5.66s2.261-5.7 5.36-5.7c3.1 0 5.236 2.33 5.236 5.7s-2.094 5.66-5.236 5.66m12.177.075.002-.002a2.923 2.923 0 0 1-1.42-2.46v-11.24a2.818 2.818 0 0 0-2.827-2.809 2.82 2.82 0 0 0-2.798 2.426c-1.427-1.528-3.587-2.426-6.18-2.426-5.823 0-10.053 4.535-10.053 10.776 0 6.242 4.23 10.777 10.052 10.777l.08-.002.08.002c2.792 0 5.215-1.045 6.982-2.821a6.185 6.185 0 0 0 4.103 2.73c.171.031.34.046.508.046l.03-.003.04.002a2.702 2.702 0 0 0 2.711-2.693c0-.978-.526-1.831-1.31-2.303M103.8 35.48c-3.14 0-5.36-2.372-5.36-5.66 0-3.287 2.261-5.7 5.36-5.7 3.1 0 5.236 2.33 5.236 5.7s-2.094 5.66-5.235 5.66zm10.807-13.607c0-1.622-1.173-2.829-2.764-2.829-1.466 0-2.64 1.082-2.765 2.58-1.424-1.623-3.644-2.58-6.325-2.58-5.821 0-10.052 4.535-10.052 10.776 0 6.242 4.23 10.777 10.052 10.777 2.614 0 4.775-.9 6.2-2.493v.67c-.02 3.357-2.12 5.609-5.236 5.609-1.336 0-2.536-.422-3.472-1.22a5.062 5.062 0 0 1-.918-1.034 2.838 2.838 0 0 0-3.92-.782 2.797 2.797 0 0 0-.787 3.894 10.68 10.68 0 0 0 1.942 2.184c1.975 1.685 4.45 2.575 7.155 2.575 6.239 0 10.783-4.637 10.885-11.057l.005-1.216V21.873z"/>
        <path d="M86.576 11.11c-.326-.205-.464-.444-.464-.769 0-.46.36-.87.876-.87.19 0 .395.068.602.188.635.392 1.254.665 2.112.665.945 0 1.53-.358 1.53-.972 0-.512-.293-.803-1.375-.905l-.893-.085c-1.7-.188-2.543-1.024-2.543-2.423 0-1.57 1.134-2.594 3.213-2.594.945 0 1.838.256 2.508.614.378.205.584.444.584.785 0 .478-.327.836-.808.836-.189 0-.343-.051-.6-.187-.533-.256-1.169-.444-1.787-.444-.86 0-1.254.375-1.254.853s.309.768 1.357.87l.893.086c1.752.17 2.56 1.058 2.56 2.423 0 1.638-1.237 2.765-3.488 2.765-1.27 0-2.336-.376-3.023-.837M95.732 14.83c-.55 0-.91-.376-.91-.854s.343-.836.91-.853c.601-.017.927-.188 1.237-1.024l.24-.666-2.731-6.638a1.043 1.043 0 0 1-.103-.443c0-.512.412-.905.962-.905.446 0 .721.24.893.683l1.873 4.931h.034l1.77-4.931c.154-.444.446-.683.892-.683.533 0 .928.393.928.905 0 .153-.034.29-.086.443l-3.04 7.697c-.722 1.825-1.41 2.337-2.749 2.337h-.12zM108.117 9.096v-.734c0-.069-.034-.103-.103-.103h-1.374c-1.271 0-1.787.359-1.787 1.11 0 .682.499 1.024 1.443 1.024 1.117 0 1.821-.427 1.821-1.297m2.405 1.86c0 .511-.412.887-.962.887-.343 0-.618-.12-.807-.392l-.275-.41h-.017c-.481.563-1.323.904-2.44.904-1.958 0-3.006-.921-3.006-2.491 0-1.775 1.254-2.628 3.298-2.628h1.701c.069 0 .103-.034.103-.102v-.205c0-.956-.55-1.519-1.855-1.519-.584 0-1.151.17-1.512.341a1.367 1.367 0 0 1-.498.103c-.464 0-.79-.307-.79-.785 0-.273.137-.58.481-.751.533-.307 1.391-.563 2.525-.563 2.354 0 3.47 1.16 3.47 3.19V9.13c0 .426.052.597.172.819l.258.444c.103.187.154.375.154.563M114.301 4.488h.018c.36-.631 1.116-1.143 2.095-1.143.464 0 .79.102 1.048.222.36.187.516.46.516.785 0 .563-.378.972-.945.972a1.47 1.47 0 0 1-.447-.085c-.24-.068-.515-.137-.773-.137-1.065 0-1.512.837-1.512 2.082v3.652c0 .632-.395 1.007-.962 1.007-.55 0-.962-.375-.962-1.007V4.454c0-.631.396-1.007.962-1.007.567 0 .962.376.962 1.007v.034zM119.592 10.836V4.454c0-.631.395-1.007.962-1.007s.962.376.962 1.007v6.382c0 .632-.395 1.007-.962 1.007s-.962-.375-.962-1.007M120.554 0c.636 0 1.151.512 1.151 1.143 0 .632-.515 1.144-1.15 1.144-.636 0-1.152-.512-1.152-1.144 0-.631.516-1.143 1.151-1.143M128.748 9.096v-.734c0-.069-.034-.103-.103-.103h-1.374c-1.271 0-1.787.359-1.787 1.11 0 .682.499 1.024 1.443 1.024 1.117 0 1.821-.427 1.821-1.297m2.405 1.86c0 .511-.412.887-.962.887-.343 0-.618-.12-.807-.392l-.275-.41h-.017c-.481.563-1.323.904-2.44.904-1.958 0-3.006-.921-3.006-2.491 0-1.775 1.254-2.628 3.298-2.628h1.701c.069 0 .103-.034.103-.102v-.205c0-.956-.55-1.519-1.855-1.519-.584 0-1.151.17-1.512.341a1.368 1.368 0 0 1-.498.103c-.464 0-.79-.307-.79-.785a.83.83 0 0 1 .48-.751c.534-.307 1.392-.563 2.526-.563 2.354 0 3.47 1.16 3.47 3.19V9.13c0 .426.052.597.172.819l.258.444c.103.187.154.375.154.563M138.076 10.836V6.843c0-1.058-.515-1.792-1.563-1.792-1.014 0-1.58.734-1.58 1.792v3.993c0 .632-.396 1.007-.963 1.007-.566 0-.962-.375-.962-1.007v-9.76c0-.632.396-1.008.962-1.008.567 0 .962.376.962 1.007v3.226h.018c.429-.598 1.202-.956 2.181-.956 1.77 0 2.869 1.297 2.869 3.054v4.437c0 .632-.395 1.007-.962 1.007s-.962-.375-.962-1.007" fill="#231F20"/>
    </g>
</svg>
