<svg xmlns="http://www.w3.org/2000/svg" xmlns:xlink="http://www.w3.org/1999/xlink" width="140" height="44" viewBox="0 0 140 44">
    <defs>
        <path id="a" d="M0 .089h9.452v9.453H0z"/>
        <path id="c" d="M.129.089H9.58v9.453H.13z"/>
        <path id="e" d="M.08.089h9.453v9.453H.081z"/>
        <path id="g" d="M.099.007h22.227v21.641H.1z"/>
    </defs>
    <g fill="none" fill-rule="evenodd">
        <g transform="translate(0 .088)">
            <mask id="b" fill="#fff">
                <use xlink:href="#a"/>
            </mask>
            <path fill="#FCB026" d="M9.452 4.817a4.774 4.774 0 0 1-3.128 4.452 4.775 4.775 0 0 1-5.256-1.448A4.771 4.771 0 0 1 .67 2.376 4.775 4.775 0 0 1 5.64.176c2.19.43 3.812 2.411 3.812 4.64" mask="url(#b)"/>
        </g>
        <g transform="translate(9.027 .088)">
            <mask id="d" fill="#fff">
                <use xlink:href="#c"/>
            </mask>
            <path fill="#FCB026" d="M9.581 4.817a4.774 4.774 0 0 1-3.129 4.452 4.775 4.775 0 0 1-5.255-1.448 4.771 4.771 0 0 1-.399-5.445 4.775 4.775 0 0 1 4.97-2.2c2.19.43 3.813 2.411 3.813 4.64" mask="url(#d)"/>
        </g>
        <g transform="translate(18.23 .088)">
            <mask id="f" fill="#fff">
                <use xlink:href="#e"/>
            </mask>
            <path fill="#FCB026" d="M9.533 4.817a4.774 4.774 0 0 1-3.129 4.452A4.774 4.774 0 0 1 1.15 7.821a4.771 4.771 0 0 1-.4-5.445 4.775 4.775 0 0 1 4.972-2.2c2.19.43 3.812 2.411 3.812 4.64" mask="url(#f)"/>
        </g>
        <path fill="#FCB026" d="M8.842 23.237c.481 2.059 1.708 3.979 3.855 4.566 2.038.557 4.311-.347 5.36-2.193.63-1.108.55-2.361.546-3.586-.004-.827-.008-1.653-.008-2.479 0-.91 0-1.818.004-2.728.006-1.164-.028-2.295.552-3.352a4.465 4.465 0 0 1 4.061-2.296 4.463 4.463 0 0 1 3.883 2.667c.444 1.026.368 2.139.372 3.231.004.902.004 1.804.004 2.705 0 1.946.122 3.978-.257 5.893-.877 4.438-3.95 8.299-8.116 10.078-4.166 1.778-9.102 1.302-12.856-1.229a13.163 13.163 0 0 1-4.382-4.968C.867 27.573.265 25.106.646 22.898A4.151 4.151 0 0 1 3.87 19.57a4.155 4.155 0 0 1 4.37 1.93c.322.542.461 1.13.602 1.737"/>
        <g transform="translate(117.522 12.124)">
            <mask id="h" fill="#fff">
                <use xlink:href="#g"/>
            </mask>
            <path fill="#000" d="M22.326 10.807c0 6.028-4.94 10.841-11.176 10.841-6.195 0-11.051-4.772-11.051-10.841 0-6.07 4.856-10.8 11.093-10.8 6.195 0 11.134 4.772 11.134 10.8m-16.492.042c0 3.265 2.26 5.609 5.358 5.609 3.055 0 5.358-2.386 5.358-5.61 0-3.264-2.303-5.692-5.358-5.692-3.098 0-5.358 2.386-5.358 5.693" mask="url(#h)"/>
        </g>
        <path fill="#000" d="M50.44 27.007c1.05.604 2.061 1.222 3.323 1.148a3.937 3.937 0 0 0 2.996-1.695c.64-.921.625-1.975.625-3.042V8.381c0-.622-.034-1.236.206-1.828.71-1.758 3.008-2.325 4.452-1.094.773.659.994 1.563.994 2.527 0 1.942.056 15.381-.015 16.715-.127 2.406-1.22 4.734-2.94 6.415-1.78 1.74-4.22 2.7-6.704 2.698-2.384-.002-4.904-.918-6.464-2.78-.627-.747-.99-1.632-.745-2.613a2.658 2.658 0 0 1 1.951-1.924c.863-.202 1.589.089 2.321.51M89.599 28.741l.002-.002a2.945 2.945 0 0 1-1.42-2.474l.001-11.309a2.824 2.824 0 1 0-5.622-.385c-1.427-1.537-3.585-2.44-6.177-2.44-5.818 0-10.046 4.562-10.046 10.841 0 6.28 4.228 10.842 10.046 10.842l.08-.002.079.002c2.79 0 5.213-1.052 6.978-2.838a6.179 6.179 0 0 0 4.102 2.747c.17.03.34.045.507.045l.03-.002.04.002a2.71 2.71 0 0 0 1.4-5.027m-12.17-.076c-3.14 0-5.357-2.386-5.357-5.693 0-3.307 2.26-5.734 5.357-5.734 3.098 0 5.233 2.343 5.233 5.734 0 3.39-2.093 5.693-5.233 5.693M114.539 14.977c0-1.633-1.172-2.846-2.763-2.846-1.465 0-2.637 1.088-2.763 2.595-1.423-1.633-3.641-2.595-6.32-2.595-5.819 0-10.047 4.562-10.047 10.841 0 6.28 4.228 10.842 10.046 10.842 2.613 0 4.772-.905 6.196-2.508v.673c-.02 3.378-2.118 5.644-5.233 5.644-1.334 0-2.534-.424-3.47-1.227-.348-.3-.657-.65-.917-1.04a2.825 2.825 0 1 0-4.704 3.13c.546.822 1.2 1.561 1.94 2.197 1.975 1.695 4.447 2.591 7.151 2.591 6.236 0 10.778-4.665 10.88-11.124l.004-1.223V14.977zm-10.8 13.688c-3.14 0-5.358-2.386-5.358-5.693 0-3.307 2.26-5.735 5.358-5.735s5.233 2.345 5.233 5.735-2.093 5.693-5.233 5.693z"/>
    </g>
</svg>
