<svg xmlns="http://www.w3.org/2000/svg" width="40" height="40" viewBox="0 0 40 40">
    <defs>
        <linearGradient id="5u7c04nm9a" x1="1.753%" x2="99.79%" y1="56.097%" y2="51.057%">
            <stop offset="0%" stop-color="#DDE8ED"/>
            <stop offset="76%" stop-color="#F3F8FB"/>
        </linearGradient>
        <linearGradient id="0xpd2lm9fb" x1="0%" x2="99.885%" y1="49.966%" y2="49.966%">
            <stop offset="0%" stop-color="#FFF"/>
            <stop offset="100%" stop-color="#F4F4F4"/>
        </linearGradient>
        <linearGradient id="ggp81d2r6c" x1="1376.716%" x2="2200.916%" y1="2441.326%" y2="2441.326%">
            <stop offset="0%" stop-color="#FFF"/>
            <stop offset="100%" stop-color="#F4F4F4"/>
        </linearGradient>
    </defs>
    <g fill="none">
        <path fill="url(#5u7c04nm9a)" d="M29.06 37c6.79-5.6 11.09-19.21 9.76-27.77C36.44-6.16 12.7 2.82 5.11 8.34-9 18.6 16.06 47.7 29.06 37z"/>
        <path fill="#4A4A4A" d="M37.25 28.45L34.8 17.38l-.35-1.56c-.233-.943-.765-1.785-1.517-2.4-.752-.615-1.683-.97-2.653-1.01H10.74l-.58-2.61c-.034-.206-.116-.402-.238-.571-.123-.17-.283-.308-.468-.405-.185-.097-.39-.15-.6-.154-.208-.004-.415.04-.604.13L3.4 12.56c-.146.105-.255.253-.313.423-.057.17-.06.355-.007.527l3.3 14.94c.266 1.069.87 2.023 1.723 2.72.852.697 1.907 1.1 3.007 1.15h23.13c.48.022.958-.07 1.395-.272.436-.2.818-.504 1.113-.883.295-.38.495-.824.582-1.296.087-.473.06-.96-.08-1.42z" opacity=".4"/>
        <path fill="#A605AD" d="M3.43 13.46l6.88 3.71c.235.13.505.178.77.14H35l-.55-2.49c-.233-.943-.765-1.785-1.517-2.4-.752-.615-1.683-.97-2.653-1.01H10.74l-.58-2.61c-.034-.206-.116-.402-.238-.571-.122-.17-.283-.308-.468-.405-.185-.097-.39-.15-.599-.154-.209-.004-.416.04-.605.13L3 11.56c-.61.44-.38 1.44.43 1.9z"/>
        <path fill="url(#0xpd2lm9fb)" d="M2.68 12.51h27.39c1.1.049 2.155.452 3.007 1.15.853.697 1.457 1.651 1.723 2.72l2.45 11.07c.14.459.167.944.08 1.416-.087.472-.285.916-.58 1.295-.293.379-.673.682-1.108.883-.436.202-.913.296-1.392.276H10.72c-1.098-.052-2.15-.456-3.001-1.153-.85-.697-1.453-1.65-1.719-2.717L2.68 12.51z"/>
        <path fill="#DEE2E9" d="M4.76 14.09h25.17c.75.034 1.47.311 2.05.79.581.477.991 1.13 1.17 1.86l2.3 10.35c.092.314.109.645.047.967-.06.321-.198.624-.4.882-.2.258-.46.464-.757.602-.297.137-.623.202-.95.189H10.86c-.75-.034-1.47-.309-2.053-.784-.582-.476-.995-1.127-1.177-1.856l-2.87-13z"/>
        <path fill="url(#ggp81d2r6c)" d="M24.224 25.343c1.518-1.696 1.034-4.605-1.081-6.498-2.115-1.894-5.06-2.055-6.578-.36-1.518 1.695-1.034 4.605 1.081 6.498 2.115 1.894 5.06 2.055 6.578.36z"/>
    </g>
</svg>
