<svg xmlns="http://www.w3.org/2000/svg" width="24" height="24" viewBox="0 0 24 24">
    <g fill="none" fill-rule="evenodd" transform="translate(1.714 1.714)">
        <path d="M0 0L20.571 0 20.571 20.571 0 20.571z"/>
        <path fill="#FDAF27" d="M10.286 1.714c-4.732 0-8.572 3.84-8.572 8.572 0 4.731 3.84 8.571 8.572 8.571 4.731 0 8.571-3.84 8.571-8.571 0-4.732-3.84-8.572-8.571-8.572z"/>
        <path fill="#000" d="M10.286 14.571c-.472 0-.857-.385-.857-.857v-3.428c0-.472.385-.857.857-.857.471 0 .857.385.857.857v3.428c0 .472-.386.857-.857.857z"/>
        <circle cx="10.286" cy="6.857" r="1" fill="#000"/>
    </g>
</svg>
