<?xml version="1.0" encoding="UTF-8"?>
<svg width="72px" height="72px" viewBox="0 0 72 72" version="1.1" xmlns="http://www.w3.org/2000/svg" xmlns:xlink="http://www.w3.org/1999/xlink">
    <title>6B997FCD-2354-4C6C-8468-927D257D25FE</title>
    <defs>
        <path d="M0,19.1251601 C0,29.687647 8.56267314,38.25 19.1248399,38.25 L19.1248399,38.25 C29.6873269,38.25 38.25,29.687647 38.25,19.1251601 L38.25,19.1251601 C38.25,8.56267314 29.6873269,0 19.1248399,0 L19.1248399,0 C8.56267314,0 0,8.56267314 0,19.1251601" id="path-1"></path>
    </defs>
    <g id="Bigbang" stroke="none" stroke-width="1" fill="none" fill-rule="evenodd">
        <g id="FintaminGames_Eng_Soon" transform="translate(-152.000000, -525.000000)">
            <g id="Badge-/-Medal_bw" transform="translate(152.000000, 525.000000)">
                <g id="Group" transform="translate(12.150000, 4.500000)">
                    <polygon id="Fill-13499" fill="#CCCCCC" points="27.5457727 0.45 20.25 14.4 26.9042273 14.4 34.2 0.45"></polygon>
                    <g id="Group-13516">
                        <path d="M33.7218051,0.64255488 L26.8868463,13.8149299 L21.2215044,13.8149299 L28.0567855,0.64255488 L33.7218051,0.64255488 Z M34.8617706,0.149072732 C34.7828078,0.00995960064 34.6351956,0 34.476303,0 L27.7937909,0 L27.7937909,0 L27.7937909,0 C27.6329645,0 27.4843855,0.0247383629 27.4041334,0.169313211 L20.0796051,14.0282581 C20.002576,14.1660862 20.0035429,14.3633505 20.0815389,14.5011785 C20.1611463,14.6399704 20.3087584,14.7787622 20.4670064,14.7787622 L27.1495186,14.7787622 C27.3097003,14.7787622 27.4582794,14.6576406 27.539176,14.5127445 L34.8640267,0.557095081 C34.9410557,0.418945782 34.9400889,0.285936922 34.8617706,0.149072732 L34.8617706,0.149072732 Z" id="Fill-13500" fill="#000000"></path>
                        <path d="M27.1228001,16.9024382 L27.1228001,14.4967128 C27.1228001,14.3177612 26.8994481,14.1609778 26.6445109,14.1609778 L21.0555535,14.1609778 C20.8009386,14.1609778 20.5775866,14.3177612 20.5775866,14.4967128 L20.5775866,16.9024382 L18.6489596,16.9024382 L18.6489596,14.4967128 C18.6489596,13.3622821 19.7286555,12.4398946 21.0555535,12.4398946 L26.6445109,12.4398946 C27.9714089,12.4398946 29.0511049,13.3622821 29.0511049,14.4967128 L29.0511049,16.9024382 L27.1228001,16.9024382 Z" id="Fill-13502" fill="#FFFFFF"></path>
                        <path d="M26.6445432,13.8149299 L21.0555857,13.8149299 C20.9682432,13.8149299 20.8857351,13.8210342 20.8067722,13.8415959 C20.3987439,13.8991046 20.1438067,14.0992604 20.1438067,14.4963594 L20.1438067,16.3851494 L19.1769148,16.3851494 L19.1769148,14.4963594 C19.1769148,13.6507571 20.0177884,12.8510976 21.0555857,12.8510976 L26.6445432,12.8510976 C27.6820182,12.8510976 28.5235364,13.6507571 28.5235364,14.4963594 L28.5235364,16.3851494 L27.5566445,16.3851494 L27.5566445,14.4963594 C27.5566445,14.0992604 27.3013851,13.8991046 26.8933567,13.8415959 C26.8140716,13.8210342 26.7318857,13.8149299 26.6445432,13.8149299 M28.6134574,12.603714 C28.0684526,12.1513553 27.3964628,11.8872653 26.6445432,11.8872653 L21.0555857,11.8872653 C20.3039884,11.8872653 19.6316763,12.1513553 19.086027,12.603714 C18.5020243,13.0882003 18.2100229,13.7876213 18.2100229,14.4963594 L18.2100229,17.3489818 L21.1106986,17.3489818 L21.1106986,14.7787622 L26.5897526,14.7787622 L26.5897526,17.3489818 L29.4904283,17.3489818 L29.4904283,14.4963594 C29.4904283,13.7873001 29.1977824,13.0878791 28.6134574,12.603714" id="Fill-13504" fill="#000000"></path>
                        <polygon id="Fill-13506" fill="#FFFFFF" points="13.0382793 0.297663548 20.5017178 14.3558005 27.187453 14.3558005 19.7240145 0.297663548"></polygon>
                        <path d="M20.7641001,13.8149299 L13.794421,0.64255488 L19.4616967,0.64255488 L26.4313757,13.8149299 L20.7641001,13.8149299 Z M27.5771426,14.1754032 L20.1120926,0.152606784 C20.0331298,0.0115659878 19.8845507,0 19.7240467,0 L13.0383116,0 C12.8797413,0 12.7318068,0.0064255488 12.6525217,0.14553868 C12.5742034,0.282724147 12.5732366,0.37396694 12.6486541,0.509224742 L20.1137041,14.5638276 C20.1929893,14.7045471 20.341246,14.7787622 20.5017501,14.7787622 L27.1874852,14.7787622 C27.3460555,14.7787622 27.4936676,14.7251089 27.5732751,14.586317 C27.6515933,14.4491316 27.6522379,14.310661 27.5771426,14.1754032 L27.5771426,14.1754032 Z" id="Fill-13508" fill="#000000"></path>
                        <path d="M47.2064661,39.2254694 C47.2064661,52.0839564 36.7495303,62.507803 23.8499033,62.507803 C10.9509209,62.507803 0.49366277,52.0839564 0.49366277,39.2254694 C0.49366277,26.3669825 10.9509209,15.9428147 23.8499033,15.9428147 C36.7495303,15.9428147 47.2064661,26.3669825 47.2064661,39.2254694" id="Fill-13510" fill="#FFFFFF"></path>
                        <path d="M23.85,16.4350117 C17.7431108,16.4350117 12.0017068,18.8057179 7.68388986,23.1101931 C3.36542838,27.4146682 0.987518919,33.1379045 0.987518919,39.2254694 C0.987518919,45.3130344 3.36542838,51.0362707 7.68388986,55.3407458 C12.0020291,59.645221 17.7431108,62.0159272 23.85,62.0159272 C29.9568892,62.0159272 35.6982932,59.645221 40.0164324,55.3407458 C44.3345716,51.0362707 46.7128034,45.3130344 46.7128034,39.2254694 C46.7128034,33.1379045 44.3345716,27.4146682 40.0164324,23.1101931 C35.6982932,18.8057179 29.9568892,16.4350117 23.85,16.4350117 M23.85,63 C17.4794716,63 11.4902209,60.5268063 6.98547162,56.0366328 C2.48104459,51.546138 0,45.5758393 0,39.2254694 C0,32.8750996 2.48104459,26.9048009 6.98547162,22.4143061 C11.4902209,17.9238113 17.4794716,15.4509389 23.85,15.4509389 C30.2205284,15.4509389 36.2097791,17.9238113 40.7145284,22.4143061 C45.2192777,26.9048009 47.7,32.8750996 47.7,39.2254694 C47.7,45.5758393 45.2192777,51.546138 40.7145284,56.0366328 C36.2097791,60.5268063 30.2205284,63 23.85,63" id="Fill-13512" fill="#000000"></path>
                        <path d="M4.59573385,39.2253731 C4.59573385,28.6248239 13.216542,20.0316162 23.850419,20.0316162 C34.4846183,20.0316162 43.1054264,28.6248239 43.1054264,39.2253731 C43.1054264,49.8259222 34.4846183,58.4191299 23.850419,58.4191299 C13.216542,58.4191299 4.59573385,49.8259222 4.59573385,39.2253731" id="Fill-13514" fill="#CCCCCC"></path>
                    </g>
                    <g id="Group-13519" transform="translate(4.500000, 20.250000)">
                        <mask id="mask-2" fill="white">
                            <use xlink:href="#path-1"></use>
                        </mask>
                        <g id="Clip-13518"></g>
                        <path d="M3.21980583,19.125128 C3.21980583,8.56264113 11.782479,0.000288111478 22.3446458,0.000288111478 C32.9071327,0.000288111478 41.4698058,8.56264113 41.4698058,19.125128 C41.4698058,29.687615 32.9071327,38.249968 22.3446458,38.249968 C11.782479,38.249968 3.21980583,29.687615 3.21980583,19.125128" id="Fill-13517" fill="#FFFFFF" mask="url(#mask-2)"></path>
                    </g>
                    <path d="M42.2693646,36.45 C42.0346749,36.45 41.835769,36.2831496 41.7967615,36.0529667 C41.0765737,31.8280184 38.8660421,27.9576674 35.5723275,25.1552876 C32.2415396,22.3210809 27.998428,20.760274 23.6250764,20.760274 C19.2517249,20.760274 15.0086132,22.3210809 11.6778254,25.1552876 C8.38411072,27.9576674 6.17357913,31.8280184 5.45371373,36.0529667 C5.41438387,36.2828281 5.21547794,36.45 4.98078828,36.45 C4.83894288,36.45 4.7048345,36.3879535 4.61295737,36.2796133 C4.52172499,36.171916 4.48303988,36.0304628 4.5068957,35.891903 C5.26447908,31.4460949 7.59009886,27.3735302 11.0549951,24.424875 C14.5595436,21.4424639 19.0234827,19.8 23.6250764,19.8 C28.2266701,19.8 32.6906093,21.4424639 36.1951578,24.424875 C39.6603764,27.3738516 41.9856738,31.4460949 42.7432572,35.891903 C42.7667906,36.0307843 42.7281055,36.171916 42.6368731,36.2796133 C42.5453184,36.3879535 42.41121,36.45 42.2693646,36.45" id="Fill-13520" fill="#000000"></path>
                    <path d="M23.625,58.5 C18.8825535,58.5 14.3225334,56.7523964 10.7860215,53.5786612 C7.27703357,50.4305413 5.04599062,46.134536 4.50319205,41.4818376 C4.48750978,41.3470371 4.53007594,41.2115962 4.62064905,41.1100956 C4.71122216,41.0082748 4.84116097,40.95 4.97718066,40.95 C5.21913569,40.95 5.4230052,41.1305878 5.45084923,41.3700909 C5.96644386,45.7916112 8.08707083,49.8746894 11.4222736,52.8668762 C14.7837202,55.8827571 19.1174675,57.5435889 23.625,57.5435889 C28.1325325,57.5435889 32.4662798,55.8827571 35.8277264,52.8668762 C39.1629292,49.8746894 41.2835561,45.7916112 41.7988307,41.3700909 C41.8269948,41.1305878 42.0302242,40.95 42.2718592,40.95 C42.408519,40.95 42.5387778,41.0082748 42.6293509,41.1100956 C42.7199241,41.2115962 42.7624902,41.3470371 42.746808,41.4818376 C42.2040094,46.134536 39.9726464,50.4305413 36.4639785,53.5786612 C32.9271465,56.7523964 28.3674465,58.5 23.625,58.5" id="Fill-13522" fill="#000000"></path>
                    <path d="M29.9902158,27.9538505 C28.7661113,27.7183582 27.4919577,28.2702635 26.8481,29.31528 C26.6950466,29.5631 26.5859072,29.8289376 26.5161613,30.1029936 C26.2313657,29.0374308 25.3385541,28.1725896 24.2026006,27.9538505 C22.978819,27.7183582 21.7049883,28.2702635 21.0604848,29.31528 C20.9074314,29.5631 20.798292,29.8289376 20.7285461,30.1029936 C20.4440734,29.0374308 19.5509389,28.1725896 18.4153083,27.9538505 C17.1912038,27.7183582 15.9173731,28.2702635 15.2728696,29.31528 C14.6264288,30.3647219 14.7294331,31.7394275 15.5250526,32.6851896 C16.3203492,33.6290551 17.6697379,33.9957275 18.8470223,33.5806922 C19.7853625,33.2503709 20.4860501,32.4677149 20.7298377,31.5434474 C20.8351023,31.9556378 21.0291637,32.3479141 21.3126678,32.6851896 C22.1079644,33.6290551 23.4567073,33.9957275 24.6349604,33.5806922 C25.5729777,33.2503709 26.2733424,32.4677149 26.5174529,31.5434474 C26.6223946,31.9556378 26.8167789,32.3479141 27.100283,32.6851896 C27.8955796,33.6290551 29.2443225,33.9957275 30.4225756,33.5806922 C31.5963081,33.1672374 32.4,32.0466737 32.4,30.8259073 C32.4,29.4461442 31.3741546,28.2206363 29.9902158,27.9538505" id="Fill-13524" fill="#CCCCCC"></path>
                    <path d="M20.5715951,42.276546 C20.8768056,43.5774056 21.6550599,44.7901644 23.0165191,45.1609626 C24.3096137,45.5130434 25.7511015,44.9418399 26.4166029,43.7758747 C26.8164222,43.0755856 26.7658778,42.2839685 26.7626378,41.5097779 C26.7606938,40.9879496 26.7577777,40.4661212 26.7577777,39.9442929 C26.7581017,39.3695395 26.7581017,38.7951088 26.7606938,38.2206781 C26.7639338,37.4852132 26.7422256,36.770402 27.1102926,36.1023843 C27.6193008,35.1794226 28.6308371,34.6108008 29.6864377,34.6521082 C30.7537025,34.694061 31.7257104,35.361756 32.1495059,36.3369973 C32.4313882,36.9853295 32.3831118,37.688523 32.3853798,38.3788079 C32.3879718,38.9483979 32.3879718,39.5179879 32.3879718,40.0875779 C32.3882958,41.316795 32.4654085,42.600228 32.2249985,43.8107278 C31.6690099,46.6144659 29.719486,49.0535373 27.0769203,50.177227 C24.4346787,51.3009167 21.3038411,51.0001473 18.9220976,49.4011001 C17.747588,48.6127101 16.780116,47.5229054 16.1428028,46.2620623 C15.5132657,45.0157414 15.1315905,43.4576788 15.3732965,42.0619413 C15.553118,41.0221572 16.3793247,40.1718062 17.4180773,39.9597832 C18.4973301,39.7393696 19.6258313,40.2360262 20.1889479,41.1789962 C20.3937176,41.5217183 20.4821703,41.8934847 20.5715951,42.276546" id="Fill-13526" fill="#CCCCCC"></path>
                </g>
            </g>
        </g>
    </g>
</svg>