<?xml version="1.0" encoding="UTF-8"?>
<svg width="48px" height="48px" viewBox="0 0 48 48" version="1.1" xmlns="http://www.w3.org/2000/svg" xmlns:xlink="http://www.w3.org/1999/xlink">
    <title>ACC1DF76-8822-4F54-B349-4D06F7A0B8AE</title>
    <defs>
        <path d="M0,12.7960521 C0,19.8630848 5.72901931,25.5918899 12.7958379,25.5918899 L12.7958379,25.5918899 C19.8628706,25.5918899 25.5918899,19.8630848 25.5918899,12.7960521 L25.5918899,12.7960521 C25.5918899,5.72901931 19.8628706,0 12.7958379,0 L12.7958379,0 C5.72901931,0 0,5.72901931 0,12.7960521" id="path-1"></path>
    </defs>
    <g id="Bigbang" stroke="none" stroke-width="1" fill="none" fill-rule="evenodd">
        <g id="FintaminGames_Eng_Empty" transform="translate(-32.000000, -731.000000)">
            <g id="Stacked-Group-2" transform="translate(16.000000, 675.000000)">
                <g id="Badge-/-Medal_color" transform="translate(16.000000, 56.000000)">
                    <rect id="Rectangle" x="0" y="0" width="48" height="48"></rect>
                    <g id="Group" transform="translate(8.100000, 3.000000)">
                        <polygon id="Fill-13535" fill="#52005B" points="18.4705399 0.198442365 13.6014732 9.48228945 18.0423841 9.48228945 22.9114508 0.198442365"></polygon>
                        <g id="Group-13552">
                            <path d="M22.4100653,0.42836992 L17.8678448,9.20995328 L14.1029016,9.20995328 L18.6453362,0.42836992 L22.4100653,0.42836992 Z M23.1676375,0.0993818214 C23.1151622,0.00663973376 23.0170654,0 22.9114723,0 L18.4705613,0 L18.4705613,0 L18.4705613,0 C18.363683,0 18.2649437,0.0164922419 18.2116117,0.112875474 L13.3440443,9.35217209 C13.2928541,9.44405744 13.2934966,9.575567 13.3453294,9.66745235 C13.3982331,9.75998025 13.4963298,9.85250816 13.6014946,9.85250816 L18.0424056,9.85250816 C18.1488555,9.85250816 18.2475948,9.77176043 18.3013552,9.67516301 L23.1691368,0.371396721 C23.220327,0.279297188 23.2196844,0.190624614 23.1676375,0.0993818214 L23.1676375,0.0993818214 Z" id="Fill-13536" fill="#000000"></path>
                            <path d="M18.0246496,11.2682922 L18.0246496,9.66447518 C18.0246496,9.54517416 17.8762195,9.4406519 17.7067991,9.4406519 L13.9926178,9.4406519 C13.8234116,9.4406519 13.6749815,9.54517416 13.6749815,9.66447518 L13.6749815,11.2682922 L12.3932987,11.2682922 L12.3932987,9.66447518 C12.3932987,8.90818809 13.1108183,8.29326307 13.9926178,8.29326307 L17.7067991,8.29326307 C18.5885986,8.29326307 19.3061182,8.90818809 19.3061182,9.66447518 L19.3061182,11.2682922 L18.0246496,11.2682922 Z" id="Fill-13538" fill="#FFFFFF"></path>
                            <path d="M17.7068206,9.20995328 L13.9926392,9.20995328 C13.9345951,9.20995328 13.8797637,9.21402279 13.8272884,9.22773063 C13.5561302,9.26606974 13.3867099,9.39950697 13.3867099,9.66423958 L13.3867099,10.923433 L12.744155,10.923433 L12.744155,9.66423958 C12.744155,9.10050476 13.3029636,8.5673984 13.9926392,8.5673984 L17.7068206,8.5673984 C18.396282,8.5673984 18.9555189,9.10050476 18.9555189,9.66423958 L18.9555189,10.923433 L18.312964,10.923433 L18.312964,9.66423958 C18.312964,9.39950697 18.1433295,9.26606974 17.8721714,9.22773063 C17.8194819,9.21402279 17.7648647,9.20995328 17.7068206,9.20995328 M19.0152765,8.40247598 C18.6530897,8.10090355 18.2065141,7.92484352 17.7068206,7.92484352 L13.9926392,7.92484352 C13.4931599,7.92484352 13.04637,8.10090355 12.6837549,8.40247598 C12.2956517,8.7254669 12.1016002,9.19174756 12.1016002,9.66423958 L12.1016002,11.5659878 L14.0292648,11.5659878 L14.0292648,9.85250816 L17.6704091,9.85250816 L17.6704091,11.5659878 L19.5980738,11.5659878 L19.5980738,9.66423958 C19.5980738,9.19153337 19.4035938,8.72525271 19.0152765,8.40247598" id="Fill-13540" fill="#000000"></path>
                            <polygon id="Fill-13542" fill="#A605AD" points="8.66468121 0.198442365 13.6245623 9.57053366 18.0676151 9.57053366 13.107734 0.198442365"></polygon>
                            <path d="M13.7989303,9.20995328 L9.16718054,0.42836992 L12.9334089,0.42836992 L17.5651586,9.20995328 L13.7989303,9.20995328 Z M18.3265862,9.4502688 L13.3656341,0.101737856 C13.3131588,0.00771065856 13.2144195,0 13.1077554,0 L8.66470262,0 C8.55932362,0 8.46101273,0.0042836992 8.40832323,0.0970257868 C8.35627628,0.188482765 8.35563373,0.249311293 8.40575301,0.339483161 L13.366705,9.70921842 C13.4193946,9.80303143 13.5179196,9.85250816 13.6245837,9.85250816 L18.0676366,9.85250816 C18.1730156,9.85250816 18.2711123,9.81673927 18.3240159,9.72421137 C18.3760629,9.63275439 18.3764913,9.54044067 18.3265862,9.4502688 L18.3265862,9.4502688 Z" id="Fill-13544" fill="#000000"></path>
                            <path d="M31.3713926,26.150313 C31.3713926,34.7226376 24.4221616,41.6718686 15.8496228,41.6718686 C7.27751231,41.6718686 0.328067103,34.7226376 0.328067103,26.150313 C0.328067103,17.5779883 7.27751231,10.6285431 15.8496228,10.6285431 C24.4221616,10.6285431 31.3713926,17.5779883 31.3713926,26.150313" id="Fill-13546" fill="#FDAF27"></path>
                            <path d="M15.849687,10.9566745 C11.7913104,10.9566745 7.97581954,12.5371453 5.10638363,15.4067954 C2.23651935,18.2764455 0.656262717,22.0919363 0.656262717,26.150313 C0.656262717,30.2086896 2.23651935,34.0241805 5.10638363,36.8938306 C7.97603372,39.7634806 11.7913104,41.3439515 15.849687,41.3439515 C19.9080637,41.3439515 23.7235545,39.7634806 26.5932046,36.8938306 C29.4628547,34.0241805 31.0433255,30.2086896 31.0433255,26.150313 C31.0433255,22.0919363 29.4628547,18.2764455 26.5932046,15.4067954 C23.7235545,12.5371453 19.9080637,10.9566745 15.849687,10.9566745 M15.849687,42 C11.6161071,42 7.63590801,40.3512042 4.64224482,37.3577552 C1.64879582,34.364092 0,30.3838929 0,26.150313 C0,21.916733 1.64879582,17.9365339 4.64224482,14.9428708 C7.63590801,11.9492076 11.6161071,10.3006259 15.849687,10.3006259 C20.083267,10.3006259 24.0634661,11.9492076 27.0571292,14.9428708 C30.0507924,17.9365339 31.6993741,21.916733 31.6993741,26.150313 C31.6993741,30.3838929 30.0507924,34.364092 27.0571292,37.3577552 C24.0634661,40.3512042 20.083267,42 15.849687,42" id="Fill-13548" fill="#000000"></path>
                            <path d="M3.0541276,26.1502487 C3.0541276,19.083216 8.78314691,13.3544108 15.8499655,13.3544108 C22.9169982,13.3544108 28.6460175,19.083216 28.6460175,26.1502487 C28.6460175,33.2172815 22.9169982,38.9460866 15.8499655,38.9460866 C8.78314691,38.9460866 3.0541276,33.2172815 3.0541276,26.1502487" id="Fill-13550" fill="#CCCCCC"></path>
                        </g>
                        <g id="Group-13555" transform="translate(3.054128, 13.354218)">
                            <mask id="mask-2" fill="white">
                                <use xlink:href="#path-1"></use>
                            </mask>
                            <g id="Clip-13554"></g>
                            <path d="M2.15427233,12.7960306 C2.15427233,5.72899789 7.88329164,0.000192766464 14.9501102,0.000192766464 C22.017143,0.000192766464 27.7461623,5.72899789 27.7461623,12.7960306 C27.7461623,19.8630634 22.017143,25.5918685 14.9501102,25.5918685 C7.88329164,25.5918685 2.15427233,19.8630634 2.15427233,12.7960306" id="Fill-13553" fill="#FFFFFF" mask="url(#mask-2)"></path>
                        </g>
                        <g id="Group-13564" transform="translate(3.054155, 13.263746)">
                            <path d="M25.1861752,11.0928533 C25.0302485,11.0928533 24.8980964,10.9816913 24.87218,10.8283348 C24.3936908,8.01351609 22.9250245,5.43494336 20.7366968,3.56789306 C18.5237378,1.67963846 15.7046353,0.639770475 12.7990022,0.639770475 C9.89336902,0.639770475 7.07426657,1.67963846 4.86130757,3.56789306 C2.67297983,5.43494336 1.20431356,8.01351609 0.726038547,10.8283348 C0.699907981,10.9814771 0.567755861,11.0928533 0.41182921,11.0928533 C0.317587828,11.0928533 0.228486885,11.0515156 0.167444171,10.9793352 C0.106829827,10.9075833 0.0811276322,10.8133419 0.0969773192,10.7210282 C0.600311975,7.75906436 2.14544228,5.04576929 4.44750223,3.08126483 C6.77590692,1.09427096 9.74172606,0 12.7990022,0 C15.8562783,0 18.8220974,1.09427096 21.1505021,3.08126483 C23.4527763,5.04598347 24.9976924,7.75906436 25.501027,10.7210282 C25.5166625,10.8135561 25.4909604,10.9075833 25.430346,10.9793352 C25.3695175,11.0515156 25.2804165,11.0928533 25.1861752,11.0928533" id="Fill-13556" fill="#000000"></path>
                            <path d="M12.799045,25.773069 C9.62525228,25.773069 6.57354497,24.6040475 4.20680117,22.4810462 C1.85847727,20.3751796 0.365393911,17.50146 0.00213621893,14.3891384 C-0.0083588441,14.2989665 0.0201277556,14.2083663 0.0807420992,14.1404696 C0.141356443,14.0723588 0.228315537,14.0333772 0.319344145,14.0333772 C0.481267974,14.0333772 0.617703794,14.1541775 0.636337885,14.3143878 C0.981389856,17.2720679 2.4005794,20.0033545 4.63260087,22.004913 C6.8821855,24.0223211 9.78246404,25.1332985 12.799045,25.1332985 C15.815626,25.1332985 18.7159045,24.0223211 20.9654892,22.004913 C23.1975106,20.0033545 24.6167002,17.2720679 24.961538,14.3143878 C24.9803862,14.1541775 25.1163937,14.0333772 25.2781033,14.0333772 C25.3695603,14.0333772 25.4567336,14.0723588 25.5173479,14.1404696 C25.5779623,14.2083663 25.6064489,14.2989665 25.5959538,14.3891384 C25.2326961,17.50146 23.7393986,20.3751796 21.3912889,22.4810462 C19.0243309,24.6040475 15.9728378,25.773069 12.799045,25.773069" id="Fill-13558" fill="#000000"></path>
                            <path d="M17.0211875,5.24318356 C16.2092123,5.08361577 15.3640384,5.45758271 14.9369536,6.16567819 C14.8354299,6.33359919 14.7630354,6.51372875 14.7167715,6.69942711 C14.5278603,5.97740961 13.9356389,5.39139956 13.1821362,5.24318356 C12.3703752,5.08361577 11.5254156,5.45758271 11.0979024,6.16567819 C10.9963787,6.33359919 10.9239842,6.51372875 10.8777203,6.69942711 C10.6890233,5.97740961 10.0965877,5.39139956 9.3432992,5.24318356 C8.53132402,5.08361577 7.68636435,5.45758271 7.25885117,6.16567819 C6.83005288,6.87677225 6.89837788,7.80826264 7.42612963,8.44910404 C7.95366718,9.08866033 8.84874613,9.33711489 9.62966449,9.05589004 C10.252086,8.83206675 10.7168674,8.30174479 10.878577,7.67546797 C10.9484013,7.95476516 11.0771265,8.22056869 11.2651808,8.44910404 C11.7927184,9.08866033 12.687369,9.33711489 13.4689299,9.05589004 C14.0911372,8.83206675 14.5557044,8.30174479 14.7176282,7.67546797 C14.7872383,7.95476516 14.9161777,8.22056869 15.1042321,8.44910404 C15.6317696,9.08866033 16.5264202,9.33711489 17.3079811,9.05589004 C18.0865435,8.77573611 18.6196498,8.01645042 18.6196498,7.18926811 C18.6196498,6.25435076 17.9391842,5.42395567 17.0211875,5.24318356" id="Fill-13560" fill="#F9A719"></path>
                            <path d="M10.6858534,14.8761093 C10.8876156,15.7394889 11.4020879,16.544396 12.3020931,16.7904945 C13.1569053,17.0241703 14.1098141,16.6450629 14.54975,15.8712126 C14.8140543,15.4064313 14.7806414,14.8810356 14.7784996,14.3672058 C14.7772145,14.0208688 14.7752868,13.6745317 14.7752868,13.3281946 C14.775501,12.9467312 14.775501,12.565482 14.7772145,12.1842327 C14.7793563,11.6961052 14.7650059,11.2216855 15.00832,10.7783226 C15.3448046,10.1657537 16.0134901,9.78835976 16.7113047,9.81577544 C17.4168299,9.84361948 18.0593848,10.2867682 18.3395387,10.9340351 C18.5258796,11.3643327 18.4939661,11.8310417 18.4954654,12.2891834 C18.4971789,12.6672198 18.4971789,13.0452563 18.4971789,13.4232927 C18.497393,14.2391232 18.5483691,15.0909368 18.3894438,15.8943446 C18.0219024,17.7551835 16.7331515,19.3739935 14.986259,20.1197855 C13.2395806,20.8655775 11.1699114,20.6659571 9.59543774,19.6046707 C8.81901726,19.0814168 8.17946097,18.3581142 7.75815915,17.5212936 C7.34199777,16.6941112 7.08968789,15.6600263 7.24946987,14.7336763 C7.36834252,14.0435724 7.91451417,13.479195 8.60119115,13.3384755 C9.31464125,13.1921871 10.0606475,13.5218178 10.4329009,14.1476663 C10.5682658,14.3751307 10.6267383,14.6218718 10.6858534,14.8761093" id="Fill-13562" fill="#F9A719"></path>
                        </g>
                    </g>
                </g>
            </g>
        </g>
    </g>
</svg>