<svg width="32" height="32" viewBox="0 0 32 32" fill="none" xmlns="http://www.w3.org/2000/svg">
<path d="M10.4194 18.2005C11.1252 17.8035 11.0331 17.0614 10.7131 16.0413L9.98168 14.0318L15.4411 19.1173C15.6659 19.3252 15.9515 19.4242 16.232 19.4179C16.5126 19.4091 16.7868 19.2958 16.9897 19.0766C17.3868 18.6477 17.3592 17.9745 16.9365 17.5568L17.7863 18.3483C18.2228 18.7554 18.9066 18.731 19.3137 18.2945C19.7207 17.858 19.6963 17.1742 19.2598 16.7671L18.6342 16.1841C19.0707 16.5911 19.7545 16.5667 20.1616 16.1302C20.5686 15.6938 20.526 15.0193 20.0889 14.6123L17.7093 12.3955C18.1464 12.7505 18.7851 12.7161 19.169 12.304C19.5704 11.8732 19.5228 11.2037 19.0863 10.7973L15.8256 7.75952L12.8084 4.95091C12.4045 4.57768 11.9681 4.29588 11.5679 4.0861C10.4507 3.4987 9.58465 3.18058 8.76931 2.42035C8.46684 2.13855 8.17878 1.87052 7.87068 1.58309L7.86254 1.57557C7.62645 1.30379 7.35279 1.08211 6.98144 1.20359C6.37526 1.39772 5.39835 1.89181 4.24297 3.14175C3.01933 4.46496 2.87843 5.30536 2.81142 5.89338C2.77448 6.20023 2.88093 6.49581 3.0926 6.69119C3.74575 7.29925 4.67882 8.16845 4.67882 8.16845C3.9906 11.1042 6.86559 13.3962 7.36657 14.1789L8.87639 17.6432C9.11123 18.1642 9.65667 18.6295 10.4194 18.2005Z" fill="white"/>
<path fill-rule="evenodd" clip-rule="evenodd" d="M7.42556 0.790717C7.35733 0.751918 7.28708 0.749508 7.24783 0.752295C7.19105 0.756325 7.14031 0.773729 7.10448 0.788286C7.02986 0.818609 6.94566 0.867986 6.86044 0.923864C6.68614 1.03814 6.45863 1.21245 6.20124 1.423C5.68423 1.84596 5.0228 2.43495 4.37783 3.0363C3.73269 3.6378 3.09991 4.2555 2.64034 4.7367C2.41138 4.97644 2.22114 5.18675 2.0934 5.34611C2.03085 5.42414 1.97569 5.49927 1.93896 5.56433C1.92172 5.59485 1.89908 5.63938 1.88708 5.69024C1.87847 5.72673 1.85237 5.86683 1.96828 5.97465C1.96857 5.97492 1.96887 5.9752 1.96917 5.97547L2.93016 6.87077L2.93023 6.87084C3.25675 7.17482 3.70133 7.58903 4.0643 7.92727C4.24578 8.09638 4.40685 8.24649 4.52255 8.35433L4.60059 8.42706C4.33542 9.84752 4.85938 11.1287 5.49227 12.1339C5.82088 12.6559 6.184 13.1117 6.49247 13.4822C6.57452 13.5808 6.65115 13.6716 6.72166 13.7551C6.91665 13.9862 7.06479 14.1618 7.15107 14.2919L8.65213 17.7361C8.65261 17.7372 8.65311 17.7383 8.65361 17.7394C8.78792 18.0362 9.01938 18.339 9.35173 18.5016C9.69896 18.6714 10.1175 18.669 10.5658 18.4169C10.7761 18.2986 10.9383 18.1477 11.0504 17.9625C11.1621 17.7782 11.2159 17.5737 11.2307 17.36C11.2597 16.9433 11.1418 16.4607 10.9815 15.9498C10.981 15.9482 10.9805 15.9467 10.98 15.9452C10.9792 15.9429 10.9785 15.9407 10.9777 15.9385L10.6205 14.9571L15.2793 19.2969L15.28 19.2976C15.5567 19.5535 15.9091 19.6757 16.2553 19.668L16.2577 19.6679C16.6037 19.6571 16.9462 19.5168 17.2002 19.2424C17.4088 19.017 17.5229 18.7396 17.5469 18.4557L17.6244 18.5278C18.1672 19.0341 19.0175 19.0035 19.5234 18.461C19.9834 17.9677 20.0002 17.2207 19.5925 16.7087C19.8808 16.6646 20.157 16.5266 20.3713 16.2968C20.8833 15.7478 20.8227 14.9072 20.2856 14.407C20.2856 14.407 20.2856 14.407 20.2856 14.407L18.6364 12.8706C18.9116 12.824 19.1738 12.6906 19.3788 12.4704C19.8874 11.9246 19.8169 11.0892 19.283 10.5921C19.283 10.5921 19.283 10.592 19.283 10.592L16.0223 7.55427L16.0222 7.55419L13.0051 4.74559L13.0044 4.74493C12.58 4.35279 12.1234 4.05844 11.7077 3.84049C11.4286 3.69372 11.1696 3.56539 10.9262 3.44481C10.1656 3.06804 9.55785 2.76692 8.9661 2.21517L8.96602 2.2151C8.23773 1.53659 7.75332 1.08537 7.55673 0.902326C7.52126 0.869297 7.4951 0.844948 7.47856 0.829563C7.47221 0.82365 7.46728 0.819062 7.46378 0.815815L7.45989 0.812232C7.45885 0.811257 7.45913 0.811519 7.45976 0.812121L7.45719 0.809696L7.45633 0.808908L7.45552 0.808171L7.45353 0.806376C7.45201 0.805031 7.44191 0.796611 7.43306 0.789887C7.43054 0.790147 7.42804 0.790424 7.42556 0.790717ZM18.831 15.9789L18.8309 15.9789C18.7247 15.8799 18.5583 15.8857 18.4593 15.9919C18.3602 16.0982 18.3661 16.2645 18.4723 16.3636C18.4723 16.3636 18.4723 16.3636 18.4723 16.3636L19.0979 16.9466C19.0979 16.9466 19.0979 16.9466 19.0979 16.9467C19.4283 17.2548 19.4465 17.7722 19.1387 18.1023C18.8306 18.4327 18.3132 18.451 17.9831 18.1431L17.1332 17.3515C17.028 17.2535 16.8637 17.2581 16.7642 17.3619C16.6647 17.4656 16.6669 17.63 16.7691 17.731C17.0959 18.054 17.11 18.5655 16.8142 18.8851C16.6626 19.0489 16.457 19.1352 16.2424 19.1422C16.028 19.1467 15.8099 19.0711 15.6374 18.9117C15.6373 18.9116 15.6372 18.9115 15.6371 18.9114L10.1784 13.8265C10.0894 13.7436 9.95527 13.7325 9.85391 13.7997C9.75255 13.8668 9.71041 13.9946 9.75199 14.1089L10.4814 16.1128C10.64 16.6193 10.7274 17.016 10.706 17.3235C10.6957 17.4724 10.6601 17.5917 10.6005 17.69C10.5415 17.7875 10.4504 17.8783 10.3079 17.9585C9.9934 18.1354 9.75791 18.1147 9.58287 18.0291C9.3934 17.9364 9.23472 17.747 9.13354 17.5242L7.62448 14.0616C7.61891 14.0489 7.61234 14.0366 7.60482 14.0248C7.5001 13.8614 7.3134 13.6403 7.10053 13.3882C7.03455 13.3101 6.96605 13.229 6.8967 13.1457C6.59327 12.7812 6.24751 12.3463 5.93738 11.8537C5.31487 10.8649 4.85625 9.67651 5.14449 8.39296C5.16496 8.30182 5.13554 8.20665 5.06721 8.14296L4.88789 8.33534C5.06721 8.14296 5.06722 8.14297 5.06721 8.14296L5.06716 8.14291L5.067 8.14277L4.88116 7.96955C4.76545 7.86171 4.60437 7.71159 4.42288 7.54247C4.05993 7.20425 3.61531 6.79 3.28869 6.48593C3.28867 6.48591 3.28864 6.48589 3.28862 6.48587L2.46771 5.72107C2.47851 5.70697 2.49052 5.69165 2.5038 5.67508C2.61705 5.53379 2.79475 5.33657 3.02072 5.09997C3.47099 4.62849 4.09594 4.01825 4.73651 3.421C5.37726 2.8236 6.02952 2.24305 6.53429 1.83011C6.78779 1.62272 6.99819 1.4625 7.14884 1.36372C7.1791 1.34388 7.20519 1.3277 7.22732 1.31471L7.516 1.5836C7.51926 1.58664 7.52258 1.58957 7.52595 1.59241C7.78046 1.82947 8.1447 2.16878 8.60741 2.59986C9.26039 3.20872 9.95679 3.5532 10.7358 3.93857C10.9704 4.05458 11.2124 4.17429 11.463 4.30604L11.4632 4.30619C11.8477 4.50773 12.2638 4.77684 12.647 5.1309C12.6472 5.13101 12.6473 5.13112 12.6474 5.13123L15.6638 7.93911L15.6638 7.93918L18.9245 10.9769L18.9245 10.977C19.2636 11.2927 19.2883 11.7961 18.994 12.1119C18.7075 12.4195 18.2258 12.4492 17.8925 12.1785C17.7825 12.0891 17.6214 12.103 17.5283 12.21C17.4352 12.3169 17.4437 12.4784 17.5474 12.575L19.9271 14.7919C20.2642 15.1058 20.2888 15.614 19.9867 15.938C19.6788 16.2682 19.162 16.2867 18.8319 15.9797C18.8316 15.9795 18.8313 15.9792 18.831 15.9789Z" fill="black"/>
<path fill-rule="evenodd" clip-rule="evenodd" d="M14.0116 8.92662C14.111 8.82069 14.2774 8.81538 14.3834 8.91476L17.889 12.2037C17.9949 12.3031 18.0002 12.4695 17.9008 12.5754C17.8014 12.6814 17.635 12.6867 17.5291 12.5873L14.0235 9.29835C13.9176 9.19897 13.9122 9.03254 14.0116 8.92662Z" fill="black"/>
<path fill-rule="evenodd" clip-rule="evenodd" d="M12.5514 10.4943C12.6507 10.3883 12.8171 10.3827 12.9231 10.482L18.8397 16.0178C18.9458 16.117 18.9513 16.2834 18.8521 16.3895C18.7528 16.4955 18.5864 16.5011 18.4803 16.4018L12.5638 10.866C12.4577 10.7668 12.4522 10.6004 12.5514 10.4943Z" fill="black"/>
<path fill-rule="evenodd" clip-rule="evenodd" d="M11.0797 12.0743C11.179 11.9682 11.3454 11.9627 11.4515 12.0619L17.368 17.5977C17.4741 17.697 17.4796 17.8634 17.3804 17.9694C17.2811 18.0755 17.1147 18.081 17.0087 17.9818L11.0921 12.446C10.986 12.3468 10.9805 12.1803 11.0797 12.0743Z" fill="black"/>
<path fill-rule="evenodd" clip-rule="evenodd" d="M8.53185 12.6657C8.63192 12.5605 8.79838 12.5562 8.90365 12.6563L10.1574 13.848C10.2626 13.9481 10.2668 14.1145 10.1668 14.2198C10.0667 14.3251 9.90025 14.3293 9.79497 14.2292L8.54127 13.0375C8.436 12.9375 8.43178 12.771 8.53185 12.6657Z" fill="black"/>
<path d="M3.29838 7.91174L1.55059 6.28356C1.503 6.23909 1.50049 6.16457 1.54495 6.11698L7.06512 0.191032C7.10958 0.143439 7.1841 0.140934 7.23169 0.185395L8.97948 1.81358C9.02707 1.85804 9.02958 1.93256 8.98512 1.98015L3.46496 7.9061C3.42049 7.95307 3.34597 7.95557 3.29838 7.91174Z" fill="#FDAF27"/>
<path d="M5.36084 2.02142L6.80866 0.467134C6.99465 0.267369 7.30776 0.256097 7.50753 0.442085L8.70361 1.55614C8.90338 1.74212 8.91465 2.05524 8.72866 2.255L7.28084 3.80929L5.36084 2.02142Z" fill="#FCD22A"/>
<path fill-rule="evenodd" clip-rule="evenodd" d="M7.32893 0.635189C7.23553 0.548271 7.08885 0.553488 7.00179 0.647L1.99513 6.02125C1.90818 6.11464 1.91338 6.26135 2.00691 6.34843L3.20299 7.46248C3.20301 7.46249 3.20298 7.46247 3.20299 7.46248C3.29639 7.5494 3.44311 7.54422 3.53017 7.4507L4.26472 6.66167C4.36369 6.55536 4.5301 6.54941 4.63641 6.64838C4.74272 6.74735 4.74867 6.91376 4.6497 7.02006L3.91514 7.80911C3.63024 8.11511 3.15072 8.13246 2.84458 7.84744L1.6485 6.73339C1.64848 6.73337 1.64851 6.7334 1.6485 6.73339C1.34253 6.44848 1.32516 5.96896 1.61017 5.66284L6.61683 0.28859C6.61684 0.28857 6.61686 0.288551 6.61688 0.288531C6.90179 -0.0174172 7.38126 -0.0347361 7.68738 0.250266L8.88346 1.36432C8.88348 1.36433 8.88345 1.3643 8.88346 1.36432C9.18943 1.64922 9.20679 2.12875 8.92179 2.43487L5.7067 5.88604C5.6077 5.99231 5.44129 5.99821 5.33501 5.8992C5.22874 5.8002 5.22285 5.63379 5.32185 5.52751L8.53683 2.07646C8.53683 2.07645 8.53682 2.07646 8.53683 2.07646C8.53684 2.07644 8.53687 2.07641 8.53688 2.0764C8.62378 1.983 8.61856 1.83633 8.52505 1.74928L7.32893 0.635189C7.32891 0.635177 7.32894 0.635202 7.32893 0.635189Z" fill="black"/>
<path d="M21.5976 13.8164C20.8918 14.2134 20.9839 14.9554 21.3039 15.9756L22.0353 17.9851L16.5759 12.8996C16.3511 12.6917 16.0655 12.5927 15.785 12.599C15.5044 12.6077 15.2302 12.7211 15.0273 12.9403C14.6302 13.3692 14.6578 14.0424 15.0805 14.4601L14.2307 13.6686C13.7942 13.2615 13.1104 13.2859 12.7033 13.7224C12.2963 14.1589 12.3207 14.8427 12.7572 15.2498L13.3828 15.8328C12.9463 15.4257 12.2625 15.4502 11.8554 15.8866C11.4484 16.3231 11.491 16.9976 11.9281 17.4046L14.3077 19.6214C13.8706 19.2664 13.2319 19.3008 12.848 19.7129C12.4466 20.1437 12.4942 20.8131 12.9307 21.2196L16.1914 24.2574L19.2085 27.066C19.6125 27.4392 20.0489 27.721 20.4491 27.9308C21.5663 28.5182 22.4323 28.8363 23.2477 29.5965C23.5502 29.8783 23.8382 30.1464 24.1463 30.4338L24.1545 30.4413C24.3905 30.7131 24.6642 30.9348 25.0356 30.8133C25.6417 30.6192 26.6186 30.1251 27.774 28.8751C28.9977 27.5519 29.1386 26.7115 29.2056 26.1235C29.2425 25.8167 29.1361 25.5211 28.9244 25.3257C28.2712 24.7176 27.3382 23.8484 27.3382 23.8484C28.0264 20.9127 25.1514 18.6207 24.6504 17.838L23.1406 14.3737C22.9051 13.8527 22.3597 13.3874 21.5976 13.8164Z" fill="white"/>
<path fill-rule="evenodd" clip-rule="evenodd" d="M24.6325 31.2768C24.7008 31.3156 24.771 31.318 24.8103 31.3152C24.867 31.3112 24.9178 31.2938 24.9536 31.2792C25.0282 31.2489 25.1124 31.1995 25.1977 31.1437C25.372 31.0294 25.5995 30.8551 25.8569 30.6445C26.3739 30.2216 27.0353 29.6326 27.6803 29.0312C28.3254 28.4297 28.9582 27.812 29.4178 27.3308C29.6467 27.0911 29.837 26.8808 29.9647 26.7214C30.0273 26.6434 30.0824 26.5682 30.1191 26.5032C30.1364 26.4727 30.159 26.4281 30.171 26.3773C30.1796 26.3408 30.2057 26.2007 30.0898 26.0929C30.0895 26.0926 30.0892 26.0923 30.0889 26.092L29.1279 25.1967L29.1279 25.1967C28.8014 24.8927 28.3568 24.4785 27.9938 24.1403C27.8123 23.9711 27.6512 23.821 27.5355 23.7132L27.4575 23.6405C27.7227 22.22 27.1987 20.9388 26.5658 19.9336C26.2372 19.4116 25.8741 18.9558 25.5656 18.5853C25.4836 18.4867 25.4069 18.3959 25.3364 18.3124C25.1414 18.0813 24.9933 17.9057 24.907 17.7756L23.406 14.3315C23.4055 14.3303 23.405 14.3292 23.4045 14.3281C23.2702 14.0313 23.0387 13.7285 22.7064 13.5659C22.3591 13.3961 21.9405 13.3985 21.4923 13.6506C21.2819 13.7689 21.1198 13.9198 21.0077 14.105C20.896 14.2893 20.8422 14.4938 20.8274 14.7075C20.7984 15.1242 20.9163 15.6068 21.0766 16.1177C21.0771 16.1193 21.0776 16.1208 21.0781 16.1224C21.0788 16.1246 21.0796 16.1268 21.0804 16.129L21.4376 17.1104L16.7788 12.7706L16.7781 12.7699C16.5014 12.514 16.149 12.3918 15.8028 12.3995L15.8004 12.3996C15.4544 12.4104 15.1119 12.5507 14.8579 12.8251C14.6493 13.0505 14.5352 13.3279 14.5112 13.6118L14.4337 13.5397C13.8908 13.0334 13.0406 13.064 12.5347 13.6065C12.0746 14.0998 12.0579 14.8468 12.4656 15.3588C12.1772 15.4029 11.9011 15.5409 11.6868 15.7707C11.1748 16.3197 11.2354 17.1603 11.7725 17.6605C11.7725 17.6605 11.7725 17.6605 11.7725 17.6605L13.4217 19.1969C13.1465 19.2435 12.8843 19.377 12.6792 19.5971C12.1707 20.1429 12.2412 20.9783 12.7751 21.4754C12.7751 21.4755 12.7751 21.4755 12.7751 21.4755L16.0358 24.5133L16.0359 24.5133L19.053 27.3219L19.0537 27.3226C19.4781 27.7147 19.9347 28.0091 20.3504 28.227C20.6295 28.3738 20.8885 28.5021 21.1319 28.6227C21.8924 28.9995 22.5002 29.3006 23.092 29.8524L23.0921 29.8524C23.8204 30.5309 24.3048 30.9822 24.5014 31.1652C24.5368 31.1982 24.563 31.2226 24.5795 31.238C24.5859 31.2439 24.5908 31.2485 24.5943 31.2517L24.5982 31.2553C24.5992 31.2563 24.599 31.256 24.5983 31.2554L24.6009 31.2578L24.6018 31.2586L24.6026 31.2594L24.6046 31.2612C24.6061 31.2625 24.6162 31.2709 24.625 31.2776C24.6276 31.2774 24.6301 31.2771 24.6325 31.2768ZM13.2271 16.0886L13.2272 16.0886C13.3334 16.1877 13.4998 16.1818 13.5988 16.0756C13.6978 15.9694 13.692 15.803 13.5858 15.7039C13.5858 15.7039 13.5858 15.7039 13.5857 15.7039L12.9602 15.1209C12.9602 15.1209 12.9602 15.1209 12.9602 15.1208C12.6298 14.8127 12.6115 14.2953 12.9193 13.9652C13.2275 13.6348 13.7449 13.6165 14.075 13.9244L14.9249 14.716C15.0301 14.814 15.1944 14.8094 15.2939 14.7056C15.3934 14.6019 15.3912 14.4375 15.289 14.3365C14.9622 14.0135 14.9481 13.502 15.2439 13.1824C15.3955 13.0187 15.6011 12.9323 15.8157 12.9253C16.0301 12.9208 16.2482 12.9964 16.4207 13.1558C16.4208 13.1559 16.4209 13.156 16.421 13.1561L21.8797 18.241C21.9687 18.3239 22.1028 18.335 22.2042 18.2678C22.3055 18.2007 22.3477 18.0729 22.3061 17.9586L21.5767 15.9547C21.4181 15.4482 21.3307 15.0515 21.3521 14.744C21.3624 14.5951 21.398 14.4758 21.4576 14.3775C21.5166 14.28 21.6077 14.1892 21.7502 14.109C22.0647 13.9322 22.3002 13.9528 22.4752 14.0384C22.6647 14.1311 22.8234 14.3205 22.9246 14.5433L24.4336 18.0059C24.4392 18.0186 24.4458 18.031 24.4533 18.0427C24.558 18.2061 24.7447 18.4272 24.9576 18.6793C25.0236 18.7574 25.0921 18.8385 25.1614 18.9218C25.4648 19.2863 25.8106 19.7212 26.1207 20.2138C26.7432 21.2026 27.2018 22.391 26.9136 23.6746C26.8931 23.7657 26.9226 23.8609 26.9909 23.9246L27.1702 23.7322C26.9909 23.9246 26.9909 23.9246 26.9909 23.9246L26.9909 23.9246L26.9911 23.9248L27.1769 24.098C27.2926 24.2058 27.4537 24.3559 27.6352 24.5251C27.9982 24.8633 28.4428 25.2775 28.7694 25.5816C28.7694 25.5816 28.7695 25.5816 28.7695 25.5817L29.5904 26.3464C29.5796 26.3605 29.5676 26.3759 29.5543 26.3924C29.4411 26.5337 29.2633 26.7309 29.0374 26.9676C28.5871 27.439 27.9622 28.0493 27.3216 28.6465C26.6808 29.2439 26.0286 29.8245 25.5238 30.2374C25.2703 30.4448 25.0599 30.605 24.9093 30.7038C24.879 30.7236 24.8529 30.7398 24.8308 30.7528L24.5421 30.4839C24.5388 30.4809 24.5355 30.478 24.5321 30.4751C24.2776 30.2381 23.9134 29.8987 23.4507 29.4677C22.7977 28.8588 22.1013 28.5143 21.3222 28.129C21.0877 28.0129 20.8457 27.8932 20.5951 27.7615L20.5949 27.7613C20.2104 27.5598 19.7943 27.2907 19.411 26.9366C19.4109 26.9365 19.4108 26.9364 19.4107 26.9363L16.3943 24.1284L16.3942 24.1283L13.1336 21.0906L13.1335 21.0906C12.7945 20.7748 12.7698 20.2714 13.0641 19.9556C13.3506 19.648 13.8323 19.6183 14.1656 19.889C14.2756 19.9784 14.4367 19.9645 14.5298 19.8575C14.6228 19.7506 14.6144 19.5891 14.5106 19.4925L12.131 17.2756C11.7939 16.9617 11.7693 16.4535 12.0714 16.1295C12.3793 15.7993 12.8961 15.7808 13.2262 16.0878C13.2265 16.088 13.2268 16.0883 13.2271 16.0886Z" fill="black"/>
<path fill-rule="evenodd" clip-rule="evenodd" d="M14.1161 19.4421C14.2155 19.3362 14.3819 19.3309 14.4878 19.4303L17.9934 22.7192C18.0994 22.8186 18.1047 22.985 18.0053 23.0909C17.9059 23.1968 17.7395 23.2021 17.6336 23.1028L14.128 19.8139C14.022 19.7145 14.0167 19.548 14.1161 19.4421Z" fill="black"/>
<path fill-rule="evenodd" clip-rule="evenodd" d="M13.1642 15.6274C13.2634 15.5214 13.4299 15.5158 13.5359 15.6151L19.4531 21.1509C19.5592 21.2501 19.5647 21.4165 19.4655 21.5226C19.3663 21.6287 19.1998 21.6342 19.0938 21.535L13.1766 15.9992C13.0705 15.8999 13.065 15.7335 13.1642 15.6274Z" fill="black"/>
<path fill-rule="evenodd" clip-rule="evenodd" d="M14.6359 14.0481C14.7351 13.942 14.9015 13.9365 15.0076 14.0357L20.9248 19.5709C21.0308 19.6701 21.0364 19.8365 20.9372 19.9426C20.8379 20.0487 20.6715 20.0542 20.5655 19.955L14.6483 14.4198C14.5422 14.3206 14.5367 14.1542 14.6359 14.0481Z" fill="black"/>
<path fill-rule="evenodd" clip-rule="evenodd" d="M21.8507 17.7977C21.9508 17.6924 22.1172 17.6882 22.2225 17.7883L23.4762 18.9799C23.5815 19.08 23.5857 19.2465 23.4856 19.3517C23.3855 19.457 23.2191 19.4612 23.1138 19.3612L21.8601 18.1695C21.7548 18.0694 21.7506 17.903 21.8507 17.7977Z" fill="black"/>
<path d="M28.718 24.1057L30.4658 25.7339C30.5134 25.7784 30.5159 25.8529 30.4714 25.9005L24.9513 31.8265C24.9068 31.8741 24.8323 31.8766 24.7847 31.8321L23.0369 30.2039C22.9893 30.1595 22.9868 30.0849 23.0313 30.0373L28.5514 24.1114C28.5959 24.0638 28.6704 24.0613 28.718 24.1057Z" fill="#FDAF27"/>
<path d="M26.6684 29.9829L25.2087 31.5504C25.0227 31.7501 24.7096 31.7614 24.5098 31.5754L23.3138 30.4614C23.114 30.2754 23.1027 29.9623 23.2887 29.7625L24.7484 28.1951L26.6684 29.9829Z" fill="#FCD22A"/>
<path fill-rule="evenodd" clip-rule="evenodd" d="M28.4871 24.5662C28.4871 24.5662 28.4871 24.5662 28.4871 24.5662L27.7526 25.3552C27.6536 25.4615 27.4872 25.4675 27.3809 25.3685C27.2746 25.2695 27.2686 25.1031 27.3676 24.9968L28.1022 24.2078C28.3871 23.9018 28.8666 23.8844 29.1727 24.1695L30.3688 25.2835C30.6748 25.5684 30.6922 26.0479 30.4071 26.3541L30.4071 26.3541L25.4005 31.7283C25.1156 32.0343 24.6361 32.0516 24.3299 31.7666L23.1338 30.6526C23.1338 30.6526 23.1339 30.6526 23.1338 30.6526C22.8279 30.3677 22.8105 29.8881 23.0955 29.582L26.3106 26.1308C26.4096 26.0246 26.576 26.0187 26.6823 26.1177C26.7886 26.2167 26.7945 26.3831 26.6955 26.4894L23.4805 29.9404C23.3935 30.0338 23.3987 30.1805 23.4923 30.2676L24.6883 31.3817C24.6884 31.3817 24.6883 31.3816 24.6883 31.3817C24.7817 31.4686 24.9285 31.4634 25.0155 31.3699L30.0222 25.9956C30.1091 25.9022 30.1039 25.7555 30.0104 25.6685L28.8143 24.5544C28.7209 24.4675 28.5742 24.4727 28.4871 24.5662Z" fill="black"/>
<path d="M13.0492 9.57309C13.4462 10.2788 14.1883 10.1868 15.2084 9.86679L17.218 9.13536L12.1324 14.5948C11.9245 14.8196 11.8256 15.1051 11.8318 15.3857C11.8406 15.6662 11.9539 15.9405 12.1731 16.1434C12.6021 16.5405 13.2753 16.5129 13.693 16.0902L12.9014 16.94C12.4944 17.3765 12.5188 18.0603 12.9553 18.4673C13.3917 18.8744 14.0756 18.85 14.4826 18.4135L15.0656 17.7879C14.6586 18.2244 14.683 18.9082 15.1195 19.3152C15.556 19.7223 16.2304 19.6797 16.6375 19.2426L18.8543 16.863C18.4992 17.3001 18.5337 17.9388 18.9457 18.3227C19.3766 18.7241 20.046 18.6765 20.4524 18.24L23.4902 14.9793L26.2988 11.9621C26.6721 11.5582 26.9539 11.1217 27.1636 10.7216C27.751 9.60441 28.0692 8.73834 28.8294 7.923C29.1112 7.62053 29.3792 7.33247 29.6667 7.02437L29.6742 7.01622C29.946 6.78014 30.1676 6.50648 30.0461 6.13513C29.852 5.52894 29.3579 4.55204 28.108 3.39665C26.7848 2.17301 25.9444 2.03211 25.3564 1.96511C25.0495 1.92816 24.7539 2.03462 24.5586 2.24628C23.9505 2.89943 23.0813 3.83251 23.0813 3.83251C20.1456 3.14429 17.8536 6.01928 17.0708 6.52026L13.6065 8.03008C13.0855 8.26491 12.6202 8.81035 13.0492 9.57309Z" fill="white"/>
<path fill-rule="evenodd" clip-rule="evenodd" d="M30.4465 6.56174C30.4853 6.49351 30.4877 6.42325 30.4849 6.384C30.4809 6.32723 30.4635 6.27649 30.4489 6.24066C30.4186 6.16603 30.3692 6.08183 30.3133 5.99661C30.1991 5.82232 30.0248 5.5948 29.8142 5.33742C29.3912 4.82041 28.8023 4.15897 28.2009 3.514C27.5994 2.86886 26.9817 2.23608 26.5005 1.77651C26.2608 1.54755 26.0505 1.35731 25.8911 1.22957C25.8131 1.16702 25.7379 1.11186 25.6729 1.07513C25.6423 1.05789 25.5978 1.03525 25.547 1.02325C25.5105 1.01464 25.3704 0.988542 25.2625 1.10445C25.2623 1.10474 25.262 1.10504 25.2617 1.10534L24.3664 2.06633L24.3664 2.0664C24.0624 2.39292 23.6482 2.8375 23.3099 3.20047C23.1408 3.38195 22.9907 3.54302 22.8829 3.65873L22.8101 3.73677C21.3897 3.47159 20.1085 3.99556 19.1033 4.62844C18.5813 4.95706 18.1255 5.32017 17.755 5.62865C17.6564 5.7107 17.5656 5.78733 17.4821 5.85783C17.251 6.05283 17.0754 6.20097 16.9453 6.28725L13.5011 7.7883C13.5 7.78879 13.4989 7.78929 13.4978 7.78979C13.2009 7.9241 12.8982 8.15556 12.7356 8.48791C12.5657 8.83514 12.5682 9.25373 12.8203 9.70195C12.9386 9.91233 13.0895 10.0744 13.2747 10.1866C13.459 10.2983 13.6634 10.352 13.8772 10.3669C14.2939 10.3959 14.7765 10.2779 15.2874 10.1177C15.289 10.1172 15.2905 10.1167 15.292 10.1162C15.2942 10.1154 15.2965 10.1147 15.2987 10.1139L16.28 9.75666L11.9403 14.4155L11.9396 14.4162C11.6837 14.6929 11.5615 15.0453 11.5692 15.3915L11.5693 15.3938C11.5801 15.7399 11.7204 16.0824 11.9948 16.3364C12.2201 16.545 12.4976 16.6591 12.7815 16.6831L12.7094 16.7606C12.2031 17.3034 12.2337 18.1537 12.7762 18.6596C13.2695 19.1196 14.0165 19.1364 14.5284 18.7286C14.5726 19.017 14.7106 19.2932 14.9404 19.5075C15.4894 20.0195 16.33 19.9589 16.8302 19.4218C16.8302 19.4218 16.8302 19.4218 16.8302 19.4218L18.3666 17.7726C18.4132 18.0478 18.5466 18.31 18.7667 18.515C19.3126 19.0236 20.148 18.9531 20.6451 18.4192C20.6451 18.4192 20.6452 18.4192 20.6452 18.4192L23.6829 15.1585L23.683 15.1584L26.4916 12.1413L26.4923 12.1406C26.8844 11.7162 27.1788 11.2596 27.3967 10.8439C27.5435 10.5648 27.6718 10.3057 27.7924 10.0623C28.1692 9.30183 28.4703 8.69403 29.022 8.10228L29.0221 8.1022C29.7006 7.37391 30.1518 6.8895 30.3349 6.69291C30.3679 6.65744 30.3923 6.63128 30.4076 6.61474C30.4136 6.60839 30.4181 6.60345 30.4214 6.59996L30.425 6.59606C30.426 6.59502 30.4257 6.59531 30.4251 6.59594L30.4275 6.59336L30.4283 6.59251L30.429 6.5917L30.4308 6.58971C30.4322 6.58818 30.4406 6.57809 30.4473 6.56923C30.4471 6.56672 30.4468 6.56422 30.4465 6.56174ZM15.2583 17.9672L15.2583 17.9671C15.3573 17.8609 15.3515 17.6945 15.2453 17.5955C15.139 17.4964 14.9726 17.5023 14.8736 17.6085C14.8736 17.6085 14.8736 17.6085 14.8735 17.6085L14.2906 18.2341C14.2906 18.2341 14.2905 18.2341 14.2905 18.2341C13.9824 18.5645 13.465 18.5827 13.1349 18.2749C12.8045 17.9668 12.7862 17.4494 13.094 17.1193L13.8857 16.2694C13.9837 16.1642 13.979 15.9999 13.8753 15.9004C13.7716 15.8009 13.6072 15.803 13.5062 15.9053C13.1832 16.2321 12.6717 16.2462 12.3521 15.9504C12.1883 15.7988 12.102 15.5932 12.095 15.3786C12.0905 15.1642 12.1661 14.9461 12.3255 14.7736C12.3256 14.7735 12.3257 14.7734 12.3258 14.7733L17.4107 9.31456C17.4936 9.2256 17.5046 9.09145 17.4375 8.99009C17.3704 8.88873 17.2425 8.84659 17.1283 8.88817L15.1244 9.61756C14.6179 9.77616 14.2212 9.86355 13.9137 9.84218C13.7648 9.83183 13.6455 9.79628 13.5472 9.73672C13.4496 9.67765 13.3589 9.58658 13.2787 9.44409C13.1018 9.12958 13.1224 8.89409 13.2081 8.71905C13.3008 8.52958 13.4902 8.3709 13.713 8.26972L17.1755 6.76065C17.1883 6.75509 17.2006 6.74851 17.2124 6.74099C17.3758 6.63628 17.5969 6.44958 17.8489 6.23671C17.9271 6.17072 18.0082 6.10222 18.0915 6.03287C18.456 5.72945 18.8909 5.38368 19.3835 5.07355C20.3723 4.45105 21.5607 3.99243 22.8442 4.28067C22.9354 4.30113 23.0305 4.27172 23.0942 4.20338L22.9019 4.02407C23.0942 4.20338 23.0942 4.20339 23.0942 4.20338L23.0943 4.20333L23.0944 4.20318L23.2676 4.01734C23.3755 3.90163 23.5256 3.74055 23.6947 3.55905C24.0329 3.1961 24.4472 2.75148 24.7513 2.42486C24.7513 2.42484 24.7513 2.42482 24.7513 2.42479L25.5161 1.60388C25.5302 1.61468 25.5456 1.62669 25.5621 1.63997C25.7034 1.75322 25.9006 1.93092 26.1372 2.15689C26.6087 2.60717 27.219 3.23211 27.8162 3.87269C28.4136 4.51343 28.9942 5.16569 29.4071 5.67046C29.6145 5.92397 29.7747 6.13437 29.8735 6.28502C29.8933 6.31528 29.9095 6.34137 29.9225 6.36349L29.6536 6.65218C29.6506 6.65544 29.6476 6.65876 29.6448 6.66213C29.4077 6.91664 29.0684 7.28088 28.6373 7.74359C28.0285 8.39657 27.684 9.09297 27.2986 9.87203C27.1826 10.1065 27.0629 10.3486 26.9312 10.5991L26.931 10.5994C26.7295 10.9839 26.4604 11.4 26.1063 11.7832C26.1062 11.7834 26.1061 11.7835 26.106 11.7836L23.2981 14.7999L23.298 14.8L20.2603 18.0607L20.2602 18.0607C19.9445 18.3998 19.4411 18.4245 19.1253 18.1302C18.8177 17.8437 18.788 17.362 19.0587 17.0287C19.1481 16.9187 19.1342 16.7576 19.0272 16.6645C18.9203 16.5714 18.7588 16.5799 18.6622 16.6836L16.4453 19.0633C16.1314 19.4004 15.6231 19.425 15.2992 19.1229C14.969 18.815 14.9505 18.2982 15.2575 17.9681C15.2577 17.9678 15.258 17.9675 15.2583 17.9672Z" fill="black"/>
<path fill-rule="evenodd" clip-rule="evenodd" d="M22.3241 13.1655C22.4301 13.2649 22.4354 13.4313 22.336 13.5372L19.0471 17.0428C18.9477 17.1488 18.7813 17.1541 18.6753 17.0547C18.5694 16.9553 18.5641 16.7889 18.6635 16.683L21.9524 13.1773C22.0518 13.0714 22.2182 13.0661 22.3241 13.1655Z" fill="black"/>
<path fill-rule="evenodd" clip-rule="evenodd" d="M20.7558 11.7049C20.8619 11.8042 20.8674 11.9706 20.7682 12.0766L15.2324 17.9932C15.1331 18.0992 14.9667 18.1048 14.8607 18.0055C14.7546 17.9063 14.7491 17.7399 14.8483 17.6338L20.3841 11.7173C20.4833 11.6112 20.6498 11.6057 20.7558 11.7049Z" fill="black"/>
<path fill-rule="evenodd" clip-rule="evenodd" d="M19.1756 10.2333C19.2817 10.3325 19.2872 10.4989 19.188 10.605L13.6528 16.5216C13.5536 16.6276 13.3871 16.6332 13.2811 16.5339C13.175 16.4347 13.1695 16.2683 13.2687 16.1622L18.8039 10.2457C18.9031 10.1396 19.0695 10.1341 19.1756 10.2333Z" fill="black"/>
<path fill-rule="evenodd" clip-rule="evenodd" d="M18.5846 7.68535C18.6899 7.78542 18.6941 7.95188 18.594 8.05715L17.4023 9.31085C17.3023 9.41613 17.1358 9.42035 17.0305 9.32028C16.9253 9.22021 16.921 9.05375 17.0211 8.94848L18.2128 7.69478C18.3129 7.5895 18.4793 7.58528 18.5846 7.68535Z" fill="black"/>
<path d="M23.3389 2.45225L24.9671 0.704459C25.0115 0.656866 25.0861 0.654361 25.1337 0.698823L31.0596 6.21898C31.1072 6.26344 31.1097 6.33796 31.0652 6.38556L29.4371 8.13334C29.3926 8.18094 29.3181 8.18344 29.2705 8.13898L23.3445 2.61882C23.2969 2.57436 23.2944 2.49984 23.3389 2.45225Z" fill="#A605AD"/>
<path d="M29.2161 4.5025L30.7835 5.96223C30.9833 6.14822 30.9946 6.46133 30.8086 6.66109L29.6945 7.85718C29.5085 8.05694 29.1954 8.06822 28.9957 7.88223L27.4282 6.4225L29.2161 4.5025Z" fill="#52005B"/>
<path fill-rule="evenodd" clip-rule="evenodd" d="M25.2288 1.14864C25.1354 1.06174 24.9887 1.06696 24.9017 1.16047L23.7876 2.35656C23.7876 2.35657 23.7876 2.35654 23.7876 2.35656C23.7007 2.44995 23.7059 2.59666 23.7994 2.68373C23.7994 2.68373 23.7994 2.68373 23.7994 2.68373L24.5884 3.41829C24.6947 3.51726 24.7007 3.68367 24.6017 3.78997C24.5028 3.89628 24.3363 3.90223 24.23 3.80326L23.441 3.0687C23.135 2.7838 23.1176 2.30428 23.4027 1.99815L24.5167 0.80206C24.5167 0.802047 24.5167 0.802073 24.5167 0.80206C24.8016 0.496093 25.2811 0.478729 25.5873 0.763737L30.9615 5.77039C31.2675 6.05529 31.2849 6.53481 30.9998 6.84094L29.8858 8.03703C29.6009 8.34303 29.1214 8.36037 28.8152 8.07535L25.3641 4.86027C25.2578 4.76126 25.2519 4.59485 25.3509 4.48858C25.4499 4.3823 25.6163 4.37641 25.7226 4.47541L29.1736 7.69039C29.267 7.77735 29.4137 7.77214 29.5008 7.67862L30.6149 6.48253C30.7018 6.38913 30.6966 6.24243 30.6031 6.15535L30.603 6.1553L25.2289 1.1487C25.2288 1.14868 25.2288 1.14866 25.2288 1.14864Z" fill="black"/>
<path d="M18.9671 22.4438C18.5701 21.7381 17.828 21.8301 16.8079 22.1501L14.7983 22.8816L19.8839 17.4222C20.0918 17.1973 20.1907 16.9118 20.1845 16.6312C20.1757 16.3507 20.0623 16.0764 19.8432 15.8735C19.4142 15.4765 18.741 15.504 18.3233 15.9267L19.1149 15.077C19.5219 14.6405 19.4975 13.9566 19.061 13.5496C18.6245 13.1426 17.9407 13.167 17.5337 13.6035L16.9506 14.229C17.3577 13.7926 17.3333 13.1087 16.8968 12.7017C16.4603 12.2946 15.7859 12.3372 15.3788 12.7743L13.162 15.154C13.5171 14.7169 13.4826 14.0781 13.0706 13.6943C12.6397 13.2928 11.9703 13.3404 11.5639 13.7769L8.52606 17.0377L5.71745 20.0548C5.34423 20.4587 5.06242 20.8952 4.85264 21.2953C4.26524 22.4125 3.94712 23.2786 3.18689 24.0939C2.90509 24.3964 2.63706 24.6845 2.34963 24.9926L2.34211 25.0007C2.07033 25.2368 1.84865 25.5105 1.97013 25.8818C2.16426 26.488 2.65835 27.4649 3.9083 28.6203C5.23151 29.8439 6.0719 29.9848 6.65992 30.0518C6.96677 30.0888 7.26235 29.9823 7.45773 29.7707C8.06579 29.1175 8.93499 28.1844 8.93499 28.1844C11.8707 28.8726 14.1627 25.9977 14.9455 25.4967L18.4097 23.9869C18.9308 23.752 19.396 23.2066 18.9671 22.4438Z" fill="white"/>
<path fill-rule="evenodd" clip-rule="evenodd" d="M1.54179 25.5096C1.50299 25.5778 1.50058 25.648 1.50337 25.6873C1.5074 25.7441 1.5248 25.7948 1.53936 25.8306C1.56968 25.9053 1.61906 25.9895 1.67494 26.0747C1.78922 26.249 1.96352 26.4765 2.17408 26.7339C2.59703 27.2509 3.18603 27.9123 3.78738 28.5573C4.38888 29.2024 5.00658 29.8352 5.48778 30.2948C5.72752 30.5237 5.93783 30.714 6.09719 30.8417C6.17522 30.9043 6.25035 30.9594 6.31541 30.9962C6.34593 31.0134 6.39046 31.036 6.44132 31.048C6.47781 31.0567 6.61791 31.0827 6.72573 30.9668C6.726 30.9665 6.72628 30.9663 6.72655 30.966L7.62186 30.005L7.62192 30.0049C7.92591 29.6784 8.34012 29.2338 8.67835 28.8708C8.84747 28.6893 8.99758 28.5283 9.10541 28.4126L9.17815 28.3345C10.5986 28.5997 11.8798 28.0757 12.885 27.4428C13.407 27.1142 13.8628 26.7511 14.2333 26.4426C14.3319 26.3606 14.4227 26.284 14.5062 26.2135C14.7373 26.0185 14.9129 25.8703 15.043 25.784L18.4871 24.283C18.4883 24.2825 18.4894 24.282 18.4905 24.2815C18.7873 24.1472 19.0901 23.9157 19.2527 23.5834C19.4225 23.2362 19.4201 22.8176 19.168 22.3693C19.0497 22.159 18.8988 21.9968 18.7136 21.8847C18.5293 21.773 18.3248 21.7193 18.1111 21.7044C17.6944 21.6754 17.2118 21.7933 16.7009 21.9536C16.6993 21.9541 16.6978 21.9546 16.6963 21.9551C16.694 21.9559 16.6918 21.9566 16.6896 21.9574L15.7082 22.3146L20.048 17.6558L20.0487 17.6551C20.3046 17.3784 20.4268 17.026 20.4191 16.6798L20.419 16.6774C20.4082 16.3314 20.2679 15.9889 19.9935 15.7349C19.7681 15.5263 19.4907 15.4122 19.2068 15.3882L19.2789 15.3107C19.7852 14.7679 19.7546 13.9176 19.2121 13.4117C18.7188 12.9517 17.9718 12.9349 17.4598 13.3426C17.4157 13.0543 17.2777 12.7781 17.0479 12.5638C16.4989 12.0518 15.6583 12.1124 15.1581 12.6495C15.1581 12.6495 15.1581 12.6495 15.1581 12.6495L13.6217 14.2987C13.5751 14.0235 13.4416 13.7613 13.2215 13.5562C12.6757 13.0477 11.8403 13.1182 11.3432 13.6521C11.3431 13.6521 11.3431 13.6521 11.3431 13.6521L8.30535 16.9128L8.30527 16.9129L5.49666 19.93L5.49601 19.9307C5.10386 20.3551 4.80952 20.8117 4.59157 21.2274C4.4448 21.5065 4.31647 21.7656 4.19589 22.0089C3.81911 22.7695 3.518 23.3773 2.96624 23.969L2.96617 23.9691C2.28766 24.6974 1.83644 25.1818 1.6534 25.3784C1.62037 25.4139 1.59602 25.44 1.58064 25.4566C1.57472 25.4629 1.57014 25.4678 1.56689 25.4713L1.56331 25.4752C1.56233 25.4763 1.56259 25.476 1.56319 25.4753L1.56077 25.4779L1.55998 25.4788L1.55924 25.4796L1.55745 25.4816C1.5561 25.4831 1.54768 25.4932 1.54096 25.5021C1.54122 25.5046 1.5415 25.5071 1.54179 25.5096ZM16.73 14.1041L16.73 14.1042C16.6309 14.2104 16.6368 14.3768 16.743 14.4758C16.8492 14.5749 17.0156 14.569 17.1147 14.4628C17.1147 14.4628 17.1147 14.4628 17.1147 14.4628L17.6977 13.8372C17.6977 13.8372 17.6977 13.8372 17.6978 13.8372C18.0059 13.5068 18.5233 13.4886 18.8534 13.7963C19.1838 14.1045 19.2021 14.6219 18.8942 14.952L18.1026 15.8019C18.0046 15.9071 18.0092 16.0714 18.113 16.1709C18.2167 16.2704 18.3811 16.2682 18.4821 16.166C18.8051 15.8392 19.3166 15.8251 19.6362 16.1209C19.8 16.2725 19.8863 16.4781 19.8933 16.6927C19.8978 16.9071 19.8222 17.1252 19.6628 17.2977C19.6627 17.2978 19.6626 17.2979 19.6625 17.298L14.5776 22.7567C14.4947 22.8457 14.4836 22.9798 14.5508 23.0812C14.6179 23.1826 14.7457 23.2247 14.86 23.1831L16.8639 22.4537C17.3704 22.2951 17.7671 22.2077 18.0746 22.2291C18.2235 22.2395 18.3428 22.275 18.4411 22.3346C18.5386 22.3936 18.6294 22.4847 18.7096 22.6272C18.8864 22.9417 18.8658 23.1772 18.7802 23.3522C18.6875 23.5417 18.4981 23.7004 18.2753 23.8016L14.8127 25.3106C14.8 25.3162 14.7877 25.3228 14.7759 25.3303C14.6125 25.435 14.3914 25.6217 14.1393 25.8346C14.0612 25.9006 13.9801 25.9691 13.8968 26.0384C13.5323 26.3418 13.0974 26.6876 12.6048 26.9977C11.616 27.6202 10.4276 28.0789 9.14404 27.7906C9.0529 27.7702 8.95774 27.7996 8.89404 27.8679L9.08642 28.0472C8.89404 27.8679 8.89405 27.8679 8.89404 27.8679L8.89399 27.868L8.89385 27.8681L8.72064 28.054C8.6128 28.1697 8.46267 28.3307 8.29355 28.5122C7.95533 28.8752 7.54108 29.3198 7.23701 29.6464C7.23699 29.6465 7.23697 29.6465 7.23695 29.6465L6.47215 30.4674C6.45805 30.4566 6.44273 30.4446 6.42616 30.4313C6.28487 30.3181 6.08765 30.1404 5.85105 29.9144C5.37957 29.4641 4.76932 28.8392 4.17208 28.1986C3.57468 27.5579 2.99412 26.9056 2.58119 26.4008C2.3738 26.1473 2.21357 25.9369 2.1148 25.7863C2.09495 25.756 2.07877 25.7299 2.06578 25.7078L2.33467 25.4191C2.33771 25.4159 2.34065 25.4125 2.34349 25.4092C2.58055 25.1547 2.91986 24.7904 3.35094 24.3277C3.95979 23.6747 4.30428 22.9783 4.68965 22.1993C4.80566 21.9647 4.92537 21.7227 5.05712 21.4722L5.05727 21.4719C5.25881 21.0874 5.52792 20.6713 5.88198 20.2881C5.88209 20.2879 5.8822 20.2878 5.88231 20.2877L8.69019 17.2713L8.69026 17.2713L11.728 14.0106L11.728 14.0106C12.0438 13.6715 12.5472 13.6468 12.863 13.9411C13.1706 14.2276 13.2003 14.7093 12.9296 15.0426C12.8402 15.1526 12.8541 15.3137 12.9611 15.4068C13.068 15.4999 13.2295 15.4914 13.3261 15.3877L15.543 13.008C15.8569 12.6709 16.3651 12.6463 16.6891 12.9484C17.0193 13.2563 17.0378 13.7731 16.7308 14.1032C16.7306 14.1035 16.7303 14.1038 16.73 14.1041Z" fill="black"/>
<path fill-rule="evenodd" clip-rule="evenodd" d="M13.3417 14.9629C13.4476 15.0623 13.4529 15.2287 13.3535 15.3346L10.0646 18.8396C9.96524 18.9455 9.79881 18.9508 9.6929 18.8514C9.58698 18.752 9.58169 18.5856 9.68107 18.4797L12.97 14.9747C13.0694 14.8688 13.2358 14.8635 13.3417 14.9629Z" fill="black"/>
<path fill-rule="evenodd" clip-rule="evenodd" d="M17.1557 14.0113C17.2618 14.1105 17.2673 14.277 17.1681 14.383L11.6323 20.3002C11.5331 20.4063 11.3666 20.4118 11.2606 20.3126C11.1545 20.2134 11.149 20.0469 11.2482 19.9409L16.784 14.0237C16.8832 13.9176 17.0497 13.9121 17.1557 14.0113Z" fill="black"/>
<path fill-rule="evenodd" clip-rule="evenodd" d="M18.7353 15.4829C18.8414 15.5822 18.8469 15.7486 18.7477 15.8546L13.2119 21.7718C13.1126 21.8779 12.9462 21.8834 12.8402 21.7842C12.7341 21.685 12.7286 21.5186 12.8278 21.4125L18.3636 15.4953C18.4628 15.3892 18.6293 15.3837 18.7353 15.4829Z" fill="black"/>
<path fill-rule="evenodd" clip-rule="evenodd" d="M14.9865 22.6973C15.0917 22.7973 15.096 22.9638 14.9959 23.0691L13.8042 24.3227C13.7041 24.428 13.5377 24.4322 13.4324 24.3322C13.3271 24.2321 13.3229 24.0656 13.423 23.9604L14.6147 22.7067C14.7147 22.6014 14.8812 22.5972 14.9865 22.6973Z" fill="black"/>
<path d="M8.67803 29.5646L7.04985 31.3124C7.00538 31.36 6.93086 31.3625 6.88327 31.3181L0.957328 25.7979C0.909735 25.7534 0.90723 25.6789 0.951692 25.6313L2.57987 23.8835C2.62433 23.8359 2.69885 23.8334 2.74645 23.8779L8.67239 29.3981C8.71936 29.4425 8.72186 29.517 8.67803 29.5646Z" fill="#A605AD"/>
<path d="M2.78747 27.5031L1.23319 26.0547C1.03342 25.8687 1.02215 25.5556 1.20814 25.3558L2.32219 24.1597C2.50818 23.9599 2.82129 23.9487 3.02105 24.1347L4.57534 25.5825L2.78747 27.5031Z" fill="#52005B"/>
<path fill-rule="evenodd" clip-rule="evenodd" d="M2.84209 24.3271C2.74868 24.2402 2.60202 24.2454 2.51496 24.3389L1.40091 25.535C1.4009 25.535 1.40092 25.535 1.40091 25.535C1.31399 25.6284 1.31917 25.7751 1.41269 25.8622L6.78756 30.8689C6.78757 30.8689 6.78759 30.8689 6.78761 30.8689C6.88101 30.9558 7.02768 30.9506 7.11474 30.8571L8.22879 29.661C8.2288 29.661 8.22878 29.661 8.22879 29.661C8.31571 29.5676 8.31053 29.4209 8.21702 29.3338L7.42798 28.5993C7.32167 28.5003 7.31572 28.3339 7.41469 28.2276C7.51366 28.1213 7.68007 28.1153 7.78638 28.2143L8.57542 28.9489C8.88142 29.2338 8.89877 29.7133 8.61375 30.0194L7.4997 31.2155C7.49969 31.2155 7.49971 31.2155 7.4997 31.2155C7.21479 31.5215 6.73527 31.5388 6.42915 31.2538L6.4291 31.2538L1.05428 26.2472C1.05426 26.2472 1.05424 26.2471 1.05423 26.2471C0.748269 25.9622 0.730947 25.4827 1.01595 25.1766L2.13 23.9805C2.13002 23.9805 2.12999 23.9805 2.13 23.9805C2.41491 23.6746 2.89443 23.6572 3.20055 23.9422L6.65173 27.1573C6.758 27.2563 6.76389 27.4227 6.66489 27.529C6.56589 27.6353 6.39947 27.6412 6.2932 27.5421L2.84214 24.3272C2.84212 24.3271 2.8421 24.3271 2.84209 24.3271Z" fill="black"/>
</svg>
