<?xml version="1.0" encoding="UTF-8"?>
<svg width="32px" height="32px" viewBox="0 0 32 32" version="1.1" xmlns="http://www.w3.org/2000/svg" xmlns:xlink="http://www.w3.org/1999/xlink">
    <title>Artboard</title>
    <defs>
        <circle id="path-1" cx="12" cy="12" r="12"></circle>
    </defs>
    <g id="Artboard" stroke="none" stroke-width="1" fill="none" fill-rule="evenodd">
        <circle id="Oval" fill="#F99017" fill-rule="nonzero" cx="17" cy="17" r="14"></circle>
        <circle id="Oval" fill="#FFD940" fill-rule="nonzero" cx="15" cy="15" r="14"></circle>
        <g id="Clipped" transform="translate(3.000000, 3.000000)">
            <mask id="mask-2" fill="white">
                <use xlink:href="#path-1"></use>
            </mask>
            <g id="Oval"></g>
            <g id="Group" mask="url(#mask-2)" fill-rule="nonzero">
                <circle id="Oval" fill="#F99017" cx="12" cy="12" r="12"></circle>
                <circle id="Oval" fill="#FBAF27" cx="13" cy="13" r="12"></circle>
            </g>
        </g>
        <path d="M10.8971,23.7459 L10.8956,23.7449 C9.87554,23.0551 9.03751,22.1116 8.47988,21.0062 C7.95058,19.957 7.5762,18.5472 7.80656,17.176 L7.80738,17.1711 C8.0361,15.8417 9.0764,14.774 10.3881,14.5027 C11.9965,14.17 13.9289,15.1016 14.3394,17.2258 L14.341,17.2328 C14.4827,17.8398 14.7552,18.0628 14.9557,18.1173 C15.2091,18.1852 15.496,18.0533 15.6018,17.8669 C15.6017,17.8669 15.6023,17.866 15.6032,17.8639 C15.6042,17.8617 15.6056,17.8586 15.6072,17.8543 C15.6105,17.8455 15.6145,17.833 15.6186,17.8162 C15.627,17.7818 15.6343,17.7367 15.6394,17.6796 C15.6501,17.562 15.649,17.4305 15.6472,17.2822 L15.6472,17.2806 C15.6466,17.2355 15.6461,17.1881 15.6461,17.1426 L15.646,14.7658 C15.646,14.7337 15.6458,14.6991 15.6455,14.6605 L15.6454,14.6398 C15.6428,14.2813 15.6385,13.6793 15.861,13.0506 C15.6116,13.1058 15.3524,13.1349 15.0865,13.1349 C14.3413,13.1349 13.649,12.9061 13.077,12.5155 C12.5049,12.9061 11.8127,13.1349 11.0675,13.1349 C9.09721,13.1349 7.5,11.5377 7.5,9.56746 C7.5,7.59721 9.09721,6 11.0675,6 C11.8127,6 12.5049,6.22878 13.077,6.61947 C13.649,6.22878 14.3413,6 15.0865,6 C15.8318,6 16.524,6.22878 17.096,6.61947 C17.6681,6.22878 18.3603,6 19.1055,6 C21.0758,6 22.673,7.59721 22.673,9.56746 C22.673,10.5165 22.3021,11.379 21.6984,12.0177 C21.9138,12.2726 22.0939,12.5619 22.2284,12.8801 C22.5291,13.5824 22.5181,14.324 22.5122,14.7221 L22.5119,14.7422 C22.5111,14.7969 22.5104,14.8421 22.5104,14.8817 L22.5104,16.0642 C22.5104,16.198 22.5124,16.3419 22.5145,16.497 L22.5147,16.5176 C22.524,17.2036 22.5359,18.0924 22.365,18.9341 C21.8837,21.3446 20.2264,23.4447 17.9322,24.4168 C15.6513,25.3865 12.9589,25.1366 10.8971,23.7459 Z M11.0675,11.6349 C12.0412,11.6349 12.8577,10.9618 13.077,10.0555 C13.2963,10.9618 14.1128,11.6349 15.0865,11.6349 C16.0602,11.6349 16.8767,10.9618 17.096,10.0555 C17.3154,10.9618 18.1318,11.6349 19.1055,11.6349 C20.2474,11.6349 21.173,10.7093 21.173,9.56746 C21.173,8.42563 20.2474,7.5 19.1055,7.5 C18.1318,7.5 17.3154,8.17312 17.096,9.07942 C16.8767,8.17312 16.0602,7.5 15.0865,7.5 C14.1128,7.5 13.2963,8.17312 13.077,9.07942 C12.8577,8.17312 12.0412,7.5 11.0675,7.5 C9.92563,7.5 9,8.42563 9,9.56746 C9,10.7093 9.92563,11.6349 11.0675,11.6349 Z M12.8799,17.5714 C13.0886,18.4679 13.6218,19.3103 14.5648,19.5654 C15.4536,19.805 16.4506,19.4108 16.9066,18.607 C17.1545,18.1731 17.1508,17.6962 17.1471,17.2146 C17.1466,17.1558 17.1462,17.0969 17.1462,17.0381 L17.1462,14.7658 L17.1461,14.6831 C17.1453,14.2022 17.1445,13.7364 17.3858,13.3051 C17.7336,12.6636 18.4292,12.2771 19.1557,12.3003 C19.8899,12.3312 20.5623,12.7872 20.8483,13.4674 C21.0181,13.8613 21.0148,14.2851 21.0115,14.7073 C21.011,14.7655 21.0106,14.8237 21.0106,14.8817 L21.0106,16.0642 C21.0106,16.2288 21.0126,16.3948 21.0147,16.5615 C21.0231,17.2564 21.0318,17.9648 20.8947,18.6379 C20.5082,20.5779 19.1711,22.2628 17.3471,23.0356 C15.5309,23.8085 13.3745,23.6076 11.736,22.5023 C10.9245,21.9536 10.2598,21.2039 9.81926,20.3305 C9.38645,19.4727 9.12367,18.3906 9.28597,17.4245 C9.40964,16.7057 9.98157,16.1183 10.6926,15.9715 C11.4346,15.8169 12.2152,16.1647 12.6016,16.8139 C12.7562,17.0458 12.818,17.3009 12.8799,17.5714 Z" id="Shape" fill="#FFD940"></path>
    </g>
</svg>