<svg xmlns="http://www.w3.org/2000/svg" xmlns:xlink="http://www.w3.org/1999/xlink" width="24" height="24" viewBox="0 0 24 24">
    <defs>
        <path id="prefix__a" d="M20 5c1.1 0 2 .9 2 2v10c0 1.1-.9 2-2 2H4c-1.1 0-2-.9-2-2l.01-10c0-1.1.89-2 1.99-2zm-5 8c-1.33 0-4 .67-4 2v1h8v-1c0-1.33-2.67-2-4-2zm0-5c-1.1 0-2 .9-2 2s.9 2 2 2 2-.9 2-2-.9-2-2-2z"/>
    </defs>
    <g fill="none" fill-rule="evenodd">
        <path d="M0 0L24 0 24 24 0 24z"/>
        <mask id="prefix__b" fill="#fff">
            <use xlink:href="#prefix__a"/>
        </mask>
        <g fill="#000" fill-opacity=".4" mask="url(#prefix__b)">
            <path d="M0 0L24 0 24 24 0 24z"/>
        </g>
    </g>
</svg>
