<svg xmlns="http://www.w3.org/2000/svg" width="24" height="24" viewBox="0 0 24 24">
    <g fill="none" fill-rule="evenodd">
        <g fill="#000" fill-rule="nonzero" stroke="#FFF" stroke-width=".5">
            <g>
                <g>
                    <g>
                        <path d="M2.22 9.124h.521V6.888C2.741 3.098 5.826 0 9.6 0c3.772 0 6.859 3.1 6.859 6.888v2.236h.521c1.222 0 2.22 1.002 2.22 2.23v9.817c0 1.227-.998 2.229-2.22 2.229H2.22C.998 23.4 0 22.398 0 21.17v-9.816c0-1.228.998-2.23 2.22-2.23zm12.694 2.064c0-.503-.412-.917-.913-.917H5.2c-.501 0-.913.414-.913.917v10.148c0 .503.412.917.913.917H14c.501 0 .913-.414.913-.917V11.188zm1.143 10.148c0 .329-.078.64-.215.917h1.138c.592 0 1.078-.488 1.078-1.082v-9.817c0-.595-.486-1.083-1.078-1.083h-1.138c.137.277.215.589.215.917v10.148zM3.143 11.188c0-.328.078-.64.215-.917H2.22c-.592 0-1.078.488-1.078 1.083v9.817c0 .594.486 1.082 1.078 1.082h1.138c-.137-.276-.215-.588-.215-.917V11.188zM9.6 12.332c1.185 0 2.145.964 2.145 2.154 0 .513-.183 1.009-.516 1.399l.653 3.633c.063.352-.207.672-.56.673l-3.444.002c-.316 0-.572-.257-.572-.574 0-.053.008-.104.02-.152l.645-3.582c-.333-.39-.516-.886-.516-1.4 0-1.19.96-2.153 2.145-2.153h0zm0 1.147c-.554 0-1.003.45-1.003 1.007 0 .299.127.576.354.77.155.131.228.337.192.537l-.584 3.253h2.082l-.578-3.218c-.05-.204.015-.428.186-.573.227-.193.354-.47.354-.77 0-.555-.45-1.006-1.003-1.006h0zm3.591-4.355V7.036c0-1.979-1.62-3.606-3.591-3.606-1.97 0-3.591 1.627-3.591 3.606v2.088h7.182zm-8.324 0V7.036c0-2.612 2.132-4.753 4.733-4.753 2.6 0 4.733 2.141 4.733 4.753v2.088h.984V6.888c0-3.158-2.573-5.74-5.717-5.74-3.143 0-5.717 2.584-5.717 5.74v2.236h.984z" transform="translate(-32 -782) translate(16 763) translate(16 19) translate(3 .6)"/>
                    </g>
                </g>
            </g>
        </g>
    </g>
</svg>
