<svg xmlns="http://www.w3.org/2000/svg" width="24" height="24" viewBox="0 0 24 24">
    <g fill="none" fill-rule="evenodd">
        <g fill="#000" fill-rule="nonzero">
            <g>
                <g>
                    <path d="M21.13 5.715c.097 0 .194-.048.266-.096l2.496-2.495c.097-.097.146-.266.073-.387s-.194-.218-.34-.218h-2.132V.363c0-.145-.097-.29-.218-.339-.145-.048-.29-.024-.387.073L18.392 2.59c-.073.073-.097.17-.097.267v2.349L18.1 5.4c-1.914-1.793-4.507-2.907-7.342-2.907C4.822 2.494 0 7.314 0 13.247 0 19.181 4.822 24 10.759 24s10.759-4.82 10.759-10.753c0-2.833-1.115-5.4-2.908-7.338l.194-.194h2.326zm1.623-2.494l-1.768 1.768H19.53L21.3 3.22h1.453zm-3.755-.218l1.768-1.768v1.453l-1.768 1.768V3.003zm1.768 10.22c0 5.522-4.507 10.026-10.031 10.026C5.21 23.25.703 18.745.703 13.223S5.21 3.197 10.735 3.197c2.64 0 5.04 1.017 6.809 2.688l-1.842 1.84c-1.308-1.186-3.077-1.937-4.992-1.937-4.095 0-7.415 3.318-7.415 7.41 0 4.094 3.369 7.46 7.464 7.46 4.095 0 7.415-3.342 7.415-7.435 0-1.913-.727-3.657-1.939-4.989l1.842-1.84c1.672 1.816 2.69 4.213 2.69 6.829zm-10.274.266c.073.073.17.097.267.097s.194-.024.266-.097l2.375-2.373c.46.581.751 1.308.751 2.107 0 1.865-1.502 3.366-3.368 3.366-1.866 0-3.368-1.501-3.368-3.366 0-1.865 1.502-3.366 3.368-3.366.8 0 1.527.29 2.108.75l-2.375 2.374c-.17.145-.17.363-.024.508zm2.884-3.39c-.703-.606-1.624-.969-2.641-.969-2.254 0-4.096 1.84-4.096 4.093 0 2.252 1.842 4.093 4.096 4.093 2.253 0 4.095-1.84 4.095-4.093 0-.993-.364-1.913-.97-2.64l1.842-1.84c1.066 1.186 1.72 2.76 1.72 4.456 0 3.68-3.004 6.684-6.687 6.684-3.684 0-6.688-3.003-6.688-6.684s3.004-6.684 6.688-6.684c1.72 0 3.27.654 4.458 1.72l-1.817 1.864z" transform="translate(-32 -643) translate(16 624) translate(16 19)"/>
                </g>
            </g>
        </g>
    </g>
</svg>
