<svg width="40" height="41" viewBox="0 0 40 41" xmlns="http://www.w3.org/2000/svg">
    <g fill="none" fill-rule="evenodd">
        <path d="M0 1h40v40H0z"/>
        <circle cx="14" cy="14" r="14" transform="translate(5.69 13)" fill="#F1D8A6" fill-rule="nonzero"/>
        <path d="M30.6 18.263c0-5.866-4.71-10.622-10.52-10.622-5.811 0-10.541 4.793-10.521 10.66a10.639 10.639 0 0 0 3.071 7.462 12.083 12.083 0 0 1 3.091 5.36l.849 3.167h6.896l.803-3a12.109 12.109 0 0 1 3.186-5.453 10.64 10.64 0 0 0 3.145-7.574" fill="#FCD22A"/>
        <path d="M21.672 38H18.31c-.953 0-1.768-.71-1.822-1.612l-.284-3.478 7.615-.05-.325 3.528c-.054.902-.87 1.612-1.822 1.612" fill="#59595B"/>
        <path d="M20.937 2.24c0 .684-.36 3.145-.805 3.145-.445 0-.805-2.461-.805-3.146 0-.684.36-1.239.805-1.239.445 0 .805.555.805 1.24M30.97 6.019c-.515.446-2.129 2.326-1.839 2.666.29.341 2.374-.987 2.888-1.433.514-.446.696-1.084.406-1.424-.29-.34-.941-.255-1.456.191M34.88 17c-.673.087-3.136.036-3.192-.41-.056-.445 2.316-1.116 2.988-1.202.673-.086 1.264.205 1.32.65.056.446-.444.877-1.117.963M10.215 5.202c.534.422 2.23 2.225 1.957 2.579-.275.353-2.416-.877-2.95-1.3-.533-.421-.744-1.05-.47-1.403.275-.354.93-.298 1.463.124M5.12 15.242c.673.086 3.136.035 3.192-.41.056-.446-2.316-1.117-2.988-1.203-.673-.087-1.264.204-1.32.65-.056.445.444.876 1.117.963" stroke="#000" stroke-width=".5" fill="#F4D242"/>
        <path d="M23.454 20.842c.02-.264.089-.524.176-.773a1.6 1.6 0 0 1 .153-.32.696.696 0 0 1 .05-.062c.003.017.01.041.012.077.034.644-.019 1.34-.218 1.954-.024.076-.054.15-.087.222a3.667 3.667 0 0 1-.086-1.098zm-2.458-1.6c.023.254-.036.568-.05.722-.025.282-.074.561-.139.837-.065-.542-.021-1.099.19-1.56zm3.624 4.43c-.338-.25-.6-.577-.792-.945.381-.475.55-1.115.62-1.71.042-.363.054-.727.06-1.093.005-.352-.04-.652-.336-.871-.264-.196-.616-.02-.818.17-.233.22-.346.578-.437.877-.182.603-.178 1.25-.064 1.865.04.214.1.425.176.628-.15.119-.319.212-.505.272-.575.186-1.012-.148-1.278-.643a3.473 3.473 0 0 1-.124-.257 7.692 7.692 0 0 0 .481-2.186c.04-.512.055-1.124-.432-1.427-.157-.097-.333-.023-.432.115-.712.997-.672 2.32-.285 3.452-.124.301-.27.593-.433.875-.179.31-.52.79-.933.729-.385-.057-.693-.545-.884-.847a3.465 3.465 0 0 1-.338-.703c.05-.13.095-.261.137-.394a7.284 7.284 0 0 0 .299-1.613c.036-.456.05-1.096-.443-1.314-.144-.064-.356-.057-.432.114a4.604 4.604 0 0 0-.243 3.074c.009.035.02.07.03.104-.3.77-.754 1.482-1.307 2.088-.248.271.145.673.403.406a7.091 7.091 0 0 0 1.223-1.71c.095.18.202.353.32.517.321.451.725.873 1.305.905.542.03.982-.43 1.276-.83.14-.192.264-.401.373-.619.265.427.648.765 1.17.84.479.067.944-.083 1.336-.35.23.397.528.753.875 1.046.396.334.848-.258.432-.565z" fill="#000"/>
        <path d="M25.218 22.11a253.855 253.855 0 0 1-3.56 10.272c-.152.407.468.656.618.25 1.261-3.401 2.432-6.833 3.482-10.306.108-.358-.423-.578-.54-.217M15.044 21.891a254.306 254.306 0 0 1 2.468 10.595c.09.425.745.298.655-.126a177.294 177.294 0 0 0-2.552-10.579c-.1-.36-.665-.258-.571.11" fill="#000"/>
        <path stroke="#000" stroke-width=".5" d="M23.703 34.29h-7.499M23.703 35.29h-7.499"/>
        <path d="M20.78 38c1.776.098 2.733-.98 2.87-3.231.126-1.16 1.052-5.558 2.97-7.9 1.917-2.343 5.005-6.101 3.461-11.962-.984-3.35-3.044-7.266-9.949-7.266-5.567-.006-9.304 2.941-9.715 6.804M23.855 32.839l-6.695-.09M19.327 38.006c-2.082.061-3.123-1.018-3.123-3.237.06-1.952-1.36-6.984-3.574-9.006-1.24-1.394-3.503-2.586-3.071-8.046" stroke="#000" stroke-width=".5" stroke-linecap="round"/>
    </g>
</svg>
