<svg xmlns="http://www.w3.org/2000/svg" width="24" height="24" viewBox="0 0 24 24">
    <g fill="none" fill-rule="evenodd">
        <g>
            <g>
                <g>
                    <g>
                        <path d="M0 0H20V20H0z" transform="translate(-67 -565) translate(67 124) translate(0 441) translate(2 2)"/>
                        <path fill="#000" fill-rule="nonzero" d="M15.88 7.643c1.92 1.55 2.651 4.145 1.824 6.47-.827 2.325-3.032 3.875-5.5 3.865-1.065-.001-2.11-.294-3.022-.846-.292-.174-.486-.474-.527-.812-.036-.295.05-.59.234-.82l.084-.093c.372-.368.95-.423 1.385-.132.865.51 1.901.639 2.865.358.963-.281 1.768-.947 2.223-1.842.517-1.015.517-2.216 0-3.23-.453-.897-1.257-1.566-2.222-1.847-.964-.281-2.002-.15-2.866.363-.398.267-.918.242-1.288-.047l-.097-.085c-.242-.237-.362-.574-.323-.911.038-.337.231-.638.521-.814 2.1-1.298 4.79-1.128 6.71.423zm-3.983-5.258c.291.174.486.474.527.811.036.295-.05.59-.234.82l-.085.094c-.37.362-.941.417-1.373.132-1.42-.833-3.224-.608-4.396.55-1.389 1.393-1.403 3.643-.033 5.054 1.168 1.165 2.977 1.39 4.396.55.396-.261.91-.237 1.277.047l.096.085c.247.238.367.579.326.92-.04.34-.239.642-.534.816-.898.56-1.932.864-2.99.879-2.455-.002-4.643-1.55-5.463-3.863-.82-2.314-.096-4.894 1.81-6.442 1.905-1.549 4.578-1.73 6.676-.453z" transform="translate(-67 -565) translate(67 124) translate(0 441) translate(2 2)"/>
                    </g>
                </g>
            </g>
        </g>
    </g>
</svg>
