<svg xmlns="http://www.w3.org/2000/svg" xmlns:xlink="http://www.w3.org/1999/xlink" width="24" height="24" viewBox="0 0 24 24">
    <defs>
        <path id="tj33cf9axa" d="M18 8h-1V6c0-2.76-2.24-5-5-5S7 3.24 7 6v2H6c-1.1 0-2 .9-2 2v10c0 1.1.9 2 2 2h12c1.1 0 2-.9 2-2V10c0-1.1-.9-2-2-2zm-6 9c-1.1 0-2-.9-2-2s.9-2 2-2 2 .9 2 2-.9 2-2 2zM9 8V6c0-1.66 1.34-3 3-3s3 1.34 3 3v2H9z"/>
    </defs>
    <g fill="none" fill-rule="evenodd">
        <g>
            <g>
                <path d="M0 0L24 0 24 24 0 24z"/>
                <path d="M0 0L24 0 24 24 0 24z" opacity=".87"/>
            </g>
            <mask id="qkzvwtvtab" fill="#fff">
                <use xlink:href="#tj33cf9axa"/>
            </mask>
            <g fill="#000" mask="url(#qkzvwtvtab)">
                <path d="M0 0L24 0 24 24 0 24z"/>
            </g>
        </g>
    </g>
</svg>
