<?xml version="1.0" encoding="UTF-8"?>
<svg width="48px" height="48px" viewBox="0 0 48 48" version="1.1" xmlns="http://www.w3.org/2000/svg" xmlns:xlink="http://www.w3.org/1999/xlink">
    <title>02F05DA3-AAE6-4432-891B-EA13DDDF7576</title>
    <g id="Bigbang" stroke="none" stroke-width="1" fill="none" fill-rule="evenodd">
        <g id="FintaminGames_Eng_Empty" transform="translate(-32.000000, -871.000000)">
            <g id="Stacked-Group-2" transform="translate(16.000000, 675.000000)">
                <g id="Group-3-Copy-6" transform="translate(0.000000, 140.000000)">
                    <g id="Badge-/-Level-3" transform="translate(16.000000, 56.000000)">
                        <rect id="Rectangle" x="0" y="0" width="48" height="48"></rect>
                        <g id="Group-4" transform="translate(8.700000, 3.000000)">
                            <polygon id="Fill-11" fill="#AEAEAE" points="5.15151413 5.71165067 25.3706892 5.71165067 25.3706892 2.85564878 5.15151413 2.85564878"></polygon>
                            <polygon id="Fill-12" fill="#D5D5D5" points="5.15151413 8.56765255 25.3706892 8.56765255 25.3706892 5.71165067 5.15151413 5.71165067"></polygon>
                            <polygon id="Fill-13" fill="#959595" points="27.1326064 2.01915155 12.8355304 18.1741294 11.0482488 16.1549779 25.3459133 0"></polygon>
                            <polygon id="Fill-14" fill="#AEAEAE" points="28.8176063 3.92319204 14.5205303 20.0775814 12.7332487 18.0590184 27.0309132 1.90345199"></polygon>
                            <polygon id="Fill-15" fill="#D5D5D5" points="30.5026651 5.82717368 16.2055891 21.9815631 14.4183075 19.9624115 28.7153835 3.80743363"></polygon>
                            <polygon id="Fill-16" fill="#959595" points="3.36947018 2.01915155 17.6671347 18.1741294 19.4538278 16.1549779 5.1567518 0"></polygon>
                            <polygon id="Fill-17" fill="#AEAEAE" points="1.68447026 3.92319204 15.9821348 20.0775814 17.7688279 18.0590184 3.47175189 1.90345199"></polygon>
                            <polygon id="Fill-18" fill="#D5D5D5" points="0 5.82717368 14.297076 21.9815631 16.0843576 19.9624115 1.78669312 3.80743363"></polygon>
                            <path d="M15.2608074,42 C14.1049888,42 13.025087,41.4597548 11.9428312,41.2125839 C10.8264423,40.9577623 9.62001244,40.9689439 8.61249643,40.4816639 C7.58850235,39.9867335 6.8487549,39.0304172 5.96835539,38.3277454 C5.08442487,37.6215425 3.9898105,37.1095455 3.28301919,36.2250265 C2.58034738,35.3452155 2.32258336,34.1658568 1.82706438,33.1418627 C1.34037294,32.1343467 0.572377381,31.200982 0.317555866,30.084593 C0.0703848805,29.0023372 0.349923495,27.8300405 0.349923495,26.6742219 C0.349923495,25.5184033 0.0703848805,24.3466951 0.317555866,23.2644393 C0.572377381,22.1480504 1.34037294,21.2146857 1.82706438,20.2065811 C2.32258336,19.1831756 2.58034738,18.0032284 3.28301919,17.1234173 C3.9898105,16.2394868 5.08501337,15.7274898 5.96894389,15.0206985 C6.8487549,14.3180267 7.58850235,13.3622989 8.61249643,12.8673684 C9.62001244,12.3800884 10.8264423,12.3906815 11.9428312,12.13586 C13.025087,11.8892775 14.1049888,11.3490323 15.2608074,11.3490323 C16.416626,11.3490323 17.4965278,11.8892775 18.5787836,12.13586 C19.6951726,12.3906815 20.9016024,12.3800884 21.9091184,12.8673684 C22.9331125,13.3622989 23.67286,14.3180267 24.5532595,15.021287 C25.43719,15.7274898 26.5318043,16.2394868 27.2385957,17.1234173 C27.9412675,18.0032284 28.1990315,19.1831756 28.6945505,20.2065811 C29.1812419,21.2146857 29.9492375,22.1480504 30.204059,23.2644393 C30.45123,24.3461066 30.1716914,25.5184033 30.1716914,26.6742219 C30.1716914,27.8300405 30.45123,29.0023372 30.204059,30.084593 C29.9492375,31.200982 29.1812419,32.1343467 28.693962,33.1418627 C28.1990315,34.1658568 27.9412675,35.3452155 27.2385957,36.225615 C26.5318043,37.1095455 25.4366015,37.6215425 24.552671,38.3277454 C23.67286,39.0304172 22.9331125,39.9867335 21.9091184,40.4816639 C20.9016024,40.9689439 19.6951726,40.9577623 18.5787836,41.2125839 C17.4965278,41.4597548 16.416626,42 15.2608074,42" id="Fill-19" fill="#AEAEAE"></path>
                            <path d="M15.2608074,39.866679 C7.98691843,39.866679 2.06835034,33.9481109 2.06835034,26.6742219 C2.06835034,19.4003329 7.98691843,13.4823533 15.2608074,13.4823533 C22.5346964,13.4823533 28.4532645,19.4003329 28.4532645,26.6742219 C28.4532645,33.9481109 22.5346964,39.866679 15.2608074,39.866679" id="Fill-20" fill="#D5D5D5"></path>
                            <path d="M26.5273906,26.6742219 C26.5273906,32.8964572 21.483337,37.9410993 15.2605132,37.9410993 C9.03827787,37.9410993 3.99422427,32.8964572 3.99422427,26.6742219 C3.99422427,20.4519866 9.03827787,15.407933 15.2605132,15.407933 C21.483337,15.407933 26.5273906,20.4519866 26.5273906,26.6742219" id="Fill-21" fill="#FFFFFF"></path>
                            <polygon id="Fill-22" fill="#959595" points="5.15151413 2.85623728 25.3706892 2.85623728 25.3706892 0.000235400938 5.15151413 0.000235400938"></polygon>
                            <path d="M15.7751585,21.3828796 L17.1381299,24.1441326 C17.2234627,24.3171523 17.3882434,24.4366183 17.5783297,24.4642779 L20.6267718,24.9068317 C21.1064012,24.9768635 21.2976645,25.5659543 20.9504481,25.9043431 L18.7453298,28.0541422 C18.6076203,28.1883208 18.5446505,28.3825265 18.5770181,28.5720243 L19.0978427,31.6075194 C19.1796445,32.0847948 18.6782405,32.4490777 18.2492223,32.2236813 L15.5232795,30.7900896 C15.3526138,30.7006373 15.1495805,30.7006373 14.9789148,30.7900896 L12.2529719,32.2236813 C11.8239537,32.4490777 11.3231382,32.0847948 11.4049401,31.6075194 L11.9257646,28.5720243 C11.9581323,28.3825265 11.8951625,28.1883208 11.757453,28.0541422 L9.55174617,25.9043431 C9.20511829,25.5659543 9.39638155,24.9768635 9.87601096,24.9068317 L12.9238646,24.4642779 C13.1145394,24.4366183 13.2787315,24.3171523 13.3634759,24.1441326 L14.7270358,21.3828796 C14.9412507,20.9485649 15.5609436,20.9485649 15.7751585,21.3828796" id="Fill-23" fill="#A605AD"></path>
                        </g>
                    </g>
                </g>
            </g>
        </g>
    </g>
</svg>