<?xml version="1.0" encoding="UTF-8"?>
<svg width="160px" height="160px" viewBox="0 0 160 160" version="1.1" xmlns="http://www.w3.org/2000/svg" xmlns:xlink="http://www.w3.org/1999/xlink">
    <title>Badge / Medal_color</title>
    <g id="Badge-/-Medal_color" stroke="none" stroke-width="1" fill="none" fill-rule="evenodd">
        <rect id="Rectangle" x="0" y="0" width="160" height="160"></rect>
        <g id="Group-6" transform="translate(29.000000, 10.000000)">
            <polygon id="Fill-11" fill="#FC940F" points="17.1717138 19.0388356 84.5689641 19.0388356 84.5689641 9.51882927 17.1717138 9.51882927"></polygon>
            <polygon id="Fill-12" fill="#FFBA22" points="17.1717138 28.5588418 84.5689641 28.5588418 84.5689641 19.0388356 17.1717138 19.0388356"></polygon>
            <polygon id="Fill-13" fill="#F86F0C" points="90.4420213 6.73050516 42.7851014 60.5804315 36.827496 53.8499263 84.4863776 0"></polygon>
            <polygon id="Fill-14" fill="#FC940F" points="96.0586877 13.0773068 48.4017677 66.9252714 42.4441623 60.1967279 90.103044 6.34483996"></polygon>
            <polygon id="Fill-15" fill="#FFBA22" points="101.67555 19.4239123 54.0186303 73.2718769 48.0610249 66.5413717 95.7179448 12.6914454"></polygon>
            <polygon id="Fill-16" fill="#F86F0C" points="11.2315673 6.73050516 58.8904489 60.5804315 64.8460926 53.8499263 17.1891727 0"></polygon>
            <polygon id="Fill-17" fill="#FC940F" points="5.61490088 13.0773068 53.2737825 66.9252714 59.2294262 60.1967279 11.5725063 6.34483996"></polygon>
            <polygon id="Fill-18" fill="#FFBA22" points="0 19.4239123 47.6569199 73.2718769 53.6145254 66.5413717 5.95564374 12.6914454"></polygon>
            <path d="M50.8693581,140 C47.0166294,140 43.4169567,138.199183 39.8094373,137.37528 C36.0881408,136.525874 32.0667081,136.563146 28.7083214,134.93888 C25.2950078,133.289112 22.829183,130.101391 19.894518,127.759151 C16.9480829,125.405142 13.2993683,123.698485 10.9433973,120.750088 C8.60115795,117.817385 7.74194452,113.886189 6.09021461,110.472876 C4.46790981,107.114489 1.9079246,104.003273 1.05851955,100.281977 C0.234616268,96.6744573 1.16641165,92.7668017 1.16641165,88.9140731 C1.16641165,85.0613444 0.234616268,81.1556505 1.05851955,77.5481311 C1.9079246,73.8268346 4.46790981,70.7156189 6.09021461,67.3552705 C7.74194452,63.9439185 8.60115795,60.0107612 10.9433973,57.0780578 C13.2993683,54.1316228 16.9500446,52.424966 19.8964796,50.0689949 C22.829183,47.7267556 25.2950078,44.5409962 28.7083214,42.891228 C32.0667081,41.2669615 36.0881408,41.3022716 39.8094373,40.4528666 C43.4169567,39.630925 47.0166294,37.8301078 50.8693581,37.8301078 C54.7220868,37.8301078 58.3217595,39.630925 61.9292788,40.4528666 C65.6505753,41.3022716 69.672008,41.2669615 73.0303947,42.891228 C76.4437083,44.5409962 78.9095332,47.7267556 81.8441982,50.0709566 C84.7906333,52.424966 88.4393478,54.1316228 90.7953189,57.0780578 C93.1375582,60.0107612 93.9967716,63.9439185 95.6485016,67.3552705 C97.2708064,70.7156189 99.8307916,73.8268346 100.680197,77.5481311 C101.5041,81.1536888 100.572305,85.0613444 100.572305,88.9140731 C100.572305,92.7668017 101.5041,96.6744573 100.680197,100.281977 C99.8307916,104.003273 97.2708064,107.114489 95.6465399,110.472876 C93.9967716,113.886189 93.1375582,117.817385 90.7953189,120.75205 C88.4393478,123.698485 84.7886716,125.405142 81.8422365,127.759151 C78.9095332,130.101391 76.4437083,133.289112 73.0303947,134.93888 C69.672008,136.563146 65.6505753,136.525874 61.9292788,137.37528 C58.3217595,138.199183 54.7220868,140 50.8693581,140" id="Fill-19" fill="#FC940F"></path>
            <path d="M50.8693581,132.88893 C26.6230614,132.88893 6.89450115,113.16037 6.89450115,88.9140731 C6.89450115,64.6677764 26.6230614,44.9411778 50.8693581,44.9411778 C75.1156547,44.9411778 94.844215,64.6677764 94.844215,88.9140731 C94.844215,113.16037 75.1156547,132.88893 50.8693581,132.88893" id="Fill-20" fill="#FFBA22"></path>
            <path d="M88.4246353,88.9140731 C88.4246353,109.654857 71.6111233,126.470331 50.8683772,126.470331 C30.1275929,126.470331 13.3140809,109.654857 13.3140809,88.9140731 C13.3140809,68.1732887 30.1275929,51.3597767 50.8683772,51.3597767 C71.6111233,51.3597767 88.4246353,68.1732887 88.4246353,88.9140731" id="Fill-21" fill="#FFFFFF"></path>
            <polygon id="Fill-22" fill="#F86F0C" points="17.1717138 9.52079095 84.5689641 9.52079095 84.5689641 0.000784669794 17.1717138 0.000784669794"></polygon>
            <path d="M52.5838616,71.2762654 L57.1270997,80.4804421 C57.4115425,81.0571744 57.9608113,81.4553943 58.5944322,81.547593 L68.755906,83.0227722 C70.3546707,83.2562115 70.992215,85.2198477 69.834827,86.3478105 L62.4844327,93.5138074 C62.0254009,93.9610692 61.8155017,94.6084217 61.9233938,95.2400809 L63.6594757,105.358398 C63.9321485,106.949316 62.2608018,108.163592 60.8307411,107.412271 L51.7442649,102.633632 C51.1753793,102.335458 50.4986016,102.335458 49.929716,102.633632 L40.8432398,107.412271 C39.4131791,108.163592 37.7437941,106.949316 38.0164669,105.358398 L39.7525488,95.2400809 C39.8604409,94.6084217 39.6505417,93.9610692 39.1915099,93.5138074 L31.8391539,86.3478105 C30.6837276,85.2198477 31.3212718,83.2562115 32.9200365,83.0227722 L43.0795487,81.547593 C43.7151312,81.4553943 44.2624384,81.0571744 44.5449195,80.4804421 L49.0901193,71.2762654 C49.8041688,69.8285496 51.8698121,69.8285496 52.5838616,71.2762654" id="Fill-23" fill="#A605AD"></path>
        </g>
    </g>
</svg>