<svg width="40" height="40" viewBox="0 0 40 40" xmlns="http://www.w3.org/2000/svg">
    <g fill="none" fill-rule="evenodd">
        <path d="M0 0h40v40H0z"/>
        <g transform="translate(2)">
            <ellipse fill="#F1D8A6" fill-rule="nonzero" cx="18.538" cy="24.48" rx="15.392" ry="15.52"/>
            <g stroke="#000" stroke-linecap="round" stroke-linejoin="round" stroke-width=".538">
                <path d="M16.536 13.97c1.688-.284 2.468-.033 5.368 2.02 2.89 2.05 7.1.818 7.1.818.434 3.514 1.235 6.69-.205 11.448-.855 2.849-3.712 4.704-5.931 5.763a10.915 10.915 0 0 1-5.91.982c-2.446-.283-5.737-1.113-7.458-3.536-2.879-4.038-3.139-7.312-3.853-10.772 0 0 4.373-.207 6.462-3.078 2.078-2.87 2.738-3.361 4.427-3.645z" fill="#E5ECF1" fill-rule="nonzero"/>
                <path d="M29.297 18.903c-.822.142-1.98.23-1.98.23-1.808.152-4.406.021-6.55-1.496-2.662-1.888-3.084-1.823-3.896-1.68-.747.12-1.234.207-3.15 2.859-1.547 2.139-3.95 3.11-5.725 3.547 0 0-1.342.338-1.949.426" fill="#E5ECF1" fill-rule="nonzero"/>
                <path d="M8.916 30.625C2.919 32.098.202 28.584.008 25.08c-.195-3.503 3.42-4.005 3.42-4.005l2.208-.371.14.84-1.85.306s-3.074.316-2.9 3.252c.161 2.925 2.748 5.796 7.381 4.682l.509.84zM29.08 27.263c6.149-.556 7.6-4.758 6.657-8.142-.93-3.383-4.513-2.684-4.513-2.684l-2.208.37.14.841 1.851-.306s3.01-.687 3.789 2.129c.78 2.826-.747 6.384-5.488 6.832l-.227.96z" fill="#E5ECF1" fill-rule="nonzero"/>
                <path d="M9.706 26.718s8.789 2.739 17.665-2.947M11.243 29.708s3.853 2.227 8.075 1.517c4.686-.786 7.555-4.125 7.555-4.125M26.916 20.988s-3.182.818-5 .49c-1.408-.25-2.74-.589-4.06-.36-1.31.219-2.468.961-3.723 1.66-1.613.895-4.882 1.157-4.882 1.157"/>
            </g>
            <g transform="translate(19.675)">
                <ellipse fill="#EE2A7B" fill-rule="nonzero" cx="7.241" cy="7.302" rx="7.241" ry="7.302"/>
                <g stroke="#FFF" stroke-linecap="round" stroke-linejoin="round" stroke-width="1.091">
                    <path d="m4.514 4.551 5.455 5.501M9.969 4.551l-5.455 5.501"/>
                </g>
            </g>
        </g>
    </g>
</svg>
