<svg xmlns="http://www.w3.org/2000/svg" xmlns:xlink="http://www.w3.org/1999/xlink" width="40" height="40" viewBox="0 0 40 40">
    <defs>
        <path id="zvwbo23oha" d="M0 0L16.706 0 16.706 10.805 0 10.805z"/>
        <path id="ey41s9ahnc" d="M0 0L25.5 0 25.5 21.607 0 21.607z"/>
    </defs>
    <g fill="none" fill-rule="evenodd">
        <g>
            <g>
                <g>
                    <g>
                        <g>
                            <path fill="#D800B6" d="M4.766 10.673h3.033v-7.04c0-.352.282-.636.629-.636h8.645c.346 0 .628.284.628.636v4.04h3.033V2.36c0-1.02-.817-1.846-1.825-1.846H6.59c-1.007 0-1.825.826-1.825 1.846v8.313z" transform="translate(-35 -198) translate(15 178) translate(20 20) translate(6.5 3)"/>
                            <g transform="translate(-35 -198) translate(15 178) translate(20 20) translate(6.5 3) translate(4.397)">
                                <mask id="li0ehygy4b" fill="#fff">
                                    <use xlink:href="#zvwbo23oha"/>
                                </mask>
                                <path fill="#000" d="M0 10.432V2.219C0 .995.985-.001 2.194-.001h12.318c1.21 0 2.194.996 2.194 2.22v5.336c0 .205-.165.372-.369.372-.202 0-.367-.167-.367-.372V2.219c0-.812-.654-1.474-1.458-1.474H2.194c-.803 0-1.457.662-1.457 1.474v8.213c0 .206-.164.373-.368.373S0 10.638 0 10.432z" mask="url(#li0ehygy4b)"/>
                            </g>
                            <path fill="#000" d="M17.332 7.53V3.514c0-.028-.021-.051-.05-.051H8.429c-.144 0-.26.117-.26.263v5.299c0 .206-.165.373-.37.373-.202 0-.367-.167-.367-.373v-5.3c0-.555.447-1.007.997-1.007h8.855c.434 0 .787.357.787.796V7.53c0 .206-.165.373-.369.373s-.369-.167-.369-.373z" transform="translate(-35 -198) translate(15 178) translate(20 20) translate(6.5 3)"/>
                            <path fill="#000" d="M21.103 7.962L17.336 7.962 17.336 7.217 21.103 7.217z" transform="translate(-35 -198) translate(15 178) translate(20 20) translate(6.5 3)"/>
                            <path fill="#FBD594" d="M21.089 31.628H4.412c-2.233 0-4.044-1.831-4.044-4.09V14.855c0-2.258 1.811-4.088 4.044-4.088h16.677c2.233 0 4.043 1.83 4.043 4.088v12.685c0 2.258-1.81 4.089-4.043 4.089" transform="translate(-35 -198) translate(15 178) translate(20 20) translate(6.5 3)"/>
                            <g transform="translate(-35 -198) translate(15 178) translate(20 20) translate(6.5 3) translate(0 10.393)">
                                <mask id="w122vcomod" fill="#fff">
                                    <use xlink:href="#ey41s9ahnc"/>
                                </mask>
                                <path fill="#000" d="M21.328 21.607H4.172c-2.3 0-4.172-1.893-4.172-4.219V4.22C0 1.892 1.872 0 4.172 0h17.156C23.629 0 25.5 1.892 25.5 4.219v6.471c0 .205-.165.372-.368.372-.204 0-.369-.167-.369-.372V4.22c0-1.916-1.54-3.474-3.435-3.474H4.172C2.28.745.737 2.303.737 4.219v13.17c0 1.914 1.542 3.473 3.435 3.473h17.156c1.895 0 3.435-1.559 3.435-3.474 0-.206.165-.373.37-.373.202 0 .367.167.367.373 0 2.326-1.871 4.22-4.172 4.22" mask="url(#w122vcomod)"/>
                            </g>
                            <path fill="#FFF" d="M12.75 21.937c-1.268 0-2.295-1.039-2.295-2.32 0-1.284 1.027-2.323 2.295-2.323s2.296 1.04 2.296 2.322-1.028 2.321-2.296 2.321" transform="translate(-35 -198) translate(15 178) translate(20 20) translate(6.5 3)"/>
                            <path fill="#FFF" d="M11.46 24.38v-3.44c0-.397.318-.718.71-.718h1.16c.392 0 .709.32.709.718v3.44c0 .396-.317.719-.709.719h-1.16c-.392 0-.71-.323-.71-.72" transform="translate(-35 -198) translate(15 178) translate(20 20) translate(6.5 3)"/>
                        </g>
                        <g>
                            <path fill="#FFF" d="M.355 8C.355 3.778 3.778.355 8 .355c4.222 0 7.645 3.423 7.645 7.645 0 4.222-3.423 7.645-7.645 7.645C3.778 15.645.355 12.222.355 8" transform="translate(-35 -198) translate(15 178) translate(20 20) translate(6.5 3) translate(16 20)"/>
                            <path fill="#000" d="M8 .71C3.98.71.71 3.98.71 8S3.98 15.29 8 15.29s7.29-3.27 7.29-7.29S12.02.71 8 .71M8 16c-4.411 0-8-3.589-8-8s3.589-8 8-8 8 3.589 8 8-3.589 8-8 8" transform="translate(-35 -198) translate(15 178) translate(20 20) translate(6.5 3) translate(16 20)"/>
                            <path fill="#FDD8FF" d="M2.4 8c0-3.093 2.507-5.6 5.6-5.6 3.093 0 5.6 2.507 5.6 5.6 0 3.093-2.507 5.6-5.6 5.6-3.093 0-5.6-2.507-5.6-5.6" transform="translate(-35 -198) translate(15 178) translate(20 20) translate(6.5 3) translate(16 20)"/>
                            <path fill="#000" d="M8 2.754C5.107 2.754 2.754 5.108 2.754 8c0 2.892 2.353 5.245 5.246 5.245 2.893 0 5.246-2.353 5.246-5.245S10.893 2.754 8 2.754m0 11.201c-3.284 0-5.956-2.671-5.956-5.955 0-3.284 2.672-5.956 5.956-5.956 3.284 0 5.956 2.672 5.956 5.956 0 3.284-2.672 5.955-5.956 5.955" transform="translate(-35 -198) translate(15 178) translate(20 20) translate(6.5 3) translate(16 20)"/>
                            <path fill="#000" d="M9.924 11.779c-.098 0-.195-.04-.265-.119l-2.32-2.604c-.059-.066-.09-.15-.09-.237V4.198c0-.196.158-.355.354-.355.196 0 .356.159.356.355v4.486l2.23 2.504c.13.146.118.37-.028.501-.068.06-.153.09-.237.09" transform="translate(-35 -198) translate(15 178) translate(20 20) translate(6.5 3) translate(16 20)"/>
                        </g>
                    </g>
                </g>
            </g>
        </g>
    </g>
</svg>