<svg xmlns="http://www.w3.org/2000/svg" width="40" height="40" viewBox="0 0 40 40">
    <defs>
        <linearGradient id="1yo6q4r8pa" x1=".423%" x2="101.163%" y1="56.097%" y2="51.057%">
            <stop offset="0%" stop-color="#DDE8ED"/>
            <stop offset="76%" stop-color="#F3F8FB"/>
        </linearGradient>
        <linearGradient id="rp3kns2nkb" x1="0%" x2="99.846%" y1="49.923%" y2="49.923%">
            <stop offset="0%" stop-color="#FCD22A"/>
            <stop offset="100%" stop-color="#FDAF27"/>
        </linearGradient>
    </defs>
    <g fill="none" fill-rule="evenodd">
        <g fill-rule="nonzero">
            <g>
                <g>
                    <g transform="translate(-32 -783) translate(16 326) translate(0 447) translate(16 10)">
                        <circle cx="20" cy="20" r="20" fill="url(#1yo6q4r8pa)"/>
                        <g fill="#444" opacity=".4">
                            <path d="M20.52 1c-.803 0-1.598.17-2.33.5-.572-.435-1.185-.813-1.83-1.13-2.857 2.386-7.013 2.386-9.87 0C3.309 1.909 1.03 4.846.33 8.31c-.111.548.03 1.117.385 1.55.355.432.886.682 1.445.68h14c1.741 2.018 4.638 2.58 7.008 1.36 2.37-1.218 3.596-3.902 2.967-6.492S23.185.996 20.52 1z" transform="translate(8 21)"/>
                        </g>
                        <circle cx="19.42" cy="15.5" r="5.91" fill="#A6AAAD"/>
                        <circle cx="19.42" cy="14.5" r="5.91" fill="#FFF"/>
                        <path fill="#DEE2E9" d="M30.52 28.35c-.7-3.464-2.979-6.401-6.16-7.94-2.857 2.386-7.013 2.386-9.87 0-3.181 1.539-5.46 4.476-6.16 7.94-.111.548.03 1.117.385 1.55.355.432.886.682 1.445.68h18.53c.56.002 1.09-.248 1.445-.68.355-.433.496-1.002.385-1.55z"/>
                        <path fill="#A605AD" d="M28.52 21c-3.187 0-5.77 2.583-5.77 5.77 0 3.187 2.583 5.77 5.77 5.77 3.187 0 5.77-2.583 5.77-5.77-.006-3.184-2.586-5.764-5.77-5.77z"/>
                        <path fill="url(#rp3kns2nkb)" d="M31.05 26.08h-1.8v-1.79c0-.403-.327-.73-.73-.73-.403 0-.73.327-.73.73v1.79H26c-.403 0-.73.327-.73.73 0 .403.327.73.73.73h1.79v1.8c0 .26.14.502.365.632.226.13.504.13.73 0 .226-.13.365-.371.365-.632v-1.8h1.8c.403 0 .73-.327.73-.73 0-.403-.327-.73-.73-.73z" transform="rotate(45 28.525 26.815)"/>
                    </g>
                </g>
            </g>
        </g>
    </g>
</svg>
