<svg xmlns="http://www.w3.org/2000/svg" xmlns:xlink="http://www.w3.org/1999/xlink" width="30" height="30" viewBox="0 0 30 30">
    <defs>
        <path id="prefix__a" d="M13.687.208c.335.002.664.09.954.258.29.168.532.41.7.7.168.29.258.619.259.954v1.281c2.405.107 4.722.956 6.631 2.438 2.067 1.604 3.535 3.858 4.166 6.397.632 2.54.39 5.218-.685 7.604-.848 1.883-2.178 3.498-3.842 4.69.022.03.042.063.061.096.168.29.257.619.257.954 0 .335-.089.664-.257.954-.168.29-.41.53-.701.696l-4 2.31c-.293.166-.623.256-.96.26-.507-.005-.99-.21-1.348-.569-.358-.359-.56-.844-.562-1.351v-1.174c-2.388-.119-4.688-.97-6.583-2.444-2.064-1.606-3.527-3.86-4.156-6.398-.63-2.539-.386-5.215.689-7.599.851-1.886 2.184-3.503 3.853-4.694-.05-.061-.094-.128-.134-.197-.168-.29-.257-.619-.257-.954 0-.335.089-.664.257-.954.168-.29.41-.53.701-.696l4-2.31c.291-.166.621-.253.957-.252zM16.36 23.44v4.28l3.72-2.14-3.72-2.14zm-.76-18v1.28c-.002.34-.096.673-.272.963-.176.29-.428.528-.728.687-.263.16-.563.249-.87.26-.351.01-.698-.08-1-.26L9.963 6.78c-1.68 1.009-3.02 2.51-3.83 4.305-.892 1.976-1.094 4.195-.572 6.3.522 2.104 1.737 3.972 3.449 5.303 1.543 1.199 3.409 1.899 5.35 2.015V23.28c.003-.335.094-.662.263-.951.169-.289.41-.528.7-.695.29-.167.618-.255.953-.256.334 0 .663.087.954.252l2.863 1.646c1.64-1.018 2.943-2.506 3.733-4.279.564-1.265.846-2.629.838-3.997h-.074c-.005-2.54-1.018-4.976-2.815-6.772-1.656-1.654-3.853-2.64-6.175-2.789zm.558 6.65c.575.24 1.066.643 1.412 1.161.346.518.53 1.126.53 1.749 0 .415-.082.825-.24 1.208-.16.383-.393.73-.686 1.023-.294.293-.642.524-1.026.682-.383.158-.793.238-1.208.237-.623-.002-1.23-.188-1.747-.536-.517-.347-.92-.84-1.156-1.415-.237-.576-.298-1.21-.175-1.82.122-.61.423-1.17.864-1.61.441-.44 1.002-.738 1.613-.86.61-.12 1.244-.057 1.819.182zm-1.218 1.76c-.227.002-.448.071-.636.199-.188.127-.334.308-.42.518-.085.21-.106.441-.06.663.045.223.155.427.316.587.162.16.367.268.59.312.222.043.453.02.662-.068.21-.087.389-.234.515-.423.126-.189.193-.411.193-.638 0-.152-.03-.302-.088-.442-.059-.14-.145-.268-.252-.375-.108-.107-.236-.191-.377-.248-.14-.058-.291-.086-.443-.085zm-1.3-11.57L9.92 4.42l3.72 2.14V2.28z"/>
    </defs>
    <g fill="none" fill-rule="evenodd">
        <path d="M0 0H30V30H0z"/>
        <path d="M0 0H30V30H0z"/>
        <mask id="prefix__b" fill="#fff">
            <use xlink:href="#prefix__a"/>
        </mask>
        <use fill="#000" fill-rule="nonzero" xlink:href="#prefix__a"/>
        <g fill="#000" mask="url(#prefix__b)">
            <path d="M0 0L30 0 30 30 0 30z"/>
        </g>
    </g>
</svg>
