<svg xmlns="http://www.w3.org/2000/svg" xmlns:xlink="http://www.w3.org/1999/xlink" width="32" height="32" viewBox="0 0 32 32">
    <defs>
        <path id="41oagk5eta" d="M0 9.623L8.237 14.803 13.497 7.662 13.664 5.373 6.145 0"/>
        <path id="wf4067szgc" d="M0 9.623L8.237 14.803 13.497 7.662 13.664 5.373 6.145 0"/>
        <path id="d8qsegoxwe" d="M0 9.623L8.237 14.803 13.497 7.662 13.664 5.373 6.145 0"/>
        <path id="ggbh0pyj5g" d="M0 9.623L8.237 14.803 13.497 7.662 13.664 5.373 6.145 0"/>
        <path id="lqffocxfki" d="M0 9.623L8.237 14.803 13.497 7.662 13.664 5.373 6.145 0"/>
        <path id="ybvmhm47vk" d="M0 9.623L8.237 14.803 13.497 7.662 13.664 5.373 6.145 0"/>
        <path id="c36ns4hgzm" d="M0 9.623L8.237 14.803 13.497 7.662 13.664 5.373 6.145 0"/>
        <path id="8o4cbghryo" d="M0 9.623L8.237 14.803 13.497 7.662 13.664 5.373 6.145 0"/>
    </defs>
    <g fill="none" fill-rule="evenodd">
        <g>
            <g>
                <g>
                    <g>
                        <g>
                            <path fill="#FFAC00" d="M18.285 4l-4.01-2.598C10.23-1.217 4.826-.06 2.206 3.985l-.579.893C-.99 8.923.166 14.327 4.21 16.946l8.438 5.463c.179.115.368.2.56.269.09.121.192.23.316.31 1.527.99 5.01-1.678 7.782-5.957 2.77-4.278 3.778-8.55 2.25-9.54-.091-.058-.19-.103-.296-.136-.159-.181-.335-.352-.548-.488l-1.558-1.01" transform="translate(-39.000000, -430.000000) translate(16.000000, 414.000000) translate(23.000000, 16.000000) translate(2.307191, 4.666231)"/>
                            <path fill="#FFF" d="M2.347 3.791c-.045.066-.096.126-.14.194l-.579.894C-.99 8.924.166 14.327 4.211 16.945l8.437 5.464c.18.115.367.201.56.269.09.121.192.23.316.31 1.01.655 2.884-.3 4.837-2.262L2.347 3.79z" transform="translate(-39.000000, -430.000000) translate(16.000000, 414.000000) translate(23.000000, 16.000000) translate(2.307191, 4.666231)"/>
                            <path fill="#FF8A00" d="M2.121 3.18c-.045.066-.096.126-.14.194l-.579.894C-1.217 8.313-.06 13.715 3.985 16.334l8.437 5.463c.18.116.367.202.56.27.09.12.19.23.316.31 1.01.654 2.884-.301 4.837-2.263L2.12 3.18z" transform="translate(-39.000000, -430.000000) translate(16.000000, 414.000000) translate(23.000000, 16.000000) translate(2.307191, 4.666231)"/>
                            <path stroke="#000" stroke-linecap="round" stroke-width=".6" d="M18.285 4l-4.01-2.598C10.23-1.217 4.826-.06 2.206 3.985l-.579.893C-.99 8.923.166 14.327 4.21 16.946l8.438 5.463c.179.115.368.2.56.269.09.121.192.23.316.31 1.527.99 5.01-1.678 7.782-5.957 2.77-4.278 3.778-8.55 2.25-9.54-.091-.058-.19-.103-.296-.136-.159-.181-.335-.352-.548-.488l-1.558-1.01M2.414 7.973c-.295 2.027.135 4.104 1.208 5.845" transform="translate(-39.000000, -430.000000) translate(16.000000, 414.000000) translate(23.000000, 16.000000) translate(2.307191, 4.666231)"/>
                            <path fill="#FF8A00" d="M23.556 7.492c1.528.99.52 5.261-2.25 9.538-2.771 4.28-6.255 6.948-7.783 5.958-1.527-.988-.519-5.259 2.251-9.538 2.771-4.28 6.255-6.947 7.782-5.958" transform="translate(-39.000000, -430.000000) translate(16.000000, 414.000000) translate(23.000000, 16.000000) translate(2.307191, 4.666231)"/>
                            <path stroke="#000" stroke-width=".6" d="M23.556 7.492c1.528.99.52 5.261-2.25 9.538-2.771 4.28-6.255 6.948-7.783 5.958-1.527-.988-.519-5.259 2.251-9.538 2.771-4.28 6.255-6.947 7.782-5.958z" transform="translate(-39.000000, -430.000000) translate(16.000000, 414.000000) translate(23.000000, 16.000000) translate(2.307191, 4.666231)"/>
                        </g>
                        <g>
                            <g transform="translate(-39.000000, -430.000000) translate(16.000000, 414.000000) translate(23.000000, 16.000000) translate(2.307191, 4.666231) translate(15.806942, 10.374942)">
                                <mask id="5ig155xlqb" fill="#fff">
                                    <use xlink:href="#41oagk5eta"/>
                                </mask>
                                <path fill="#A605AD" d="M.58-2.618l11.229 7.494c.886.593 1.126 1.791.534 2.678L9.062 12.47c-.592.886-1.79 1.124-2.677.533L-4.843 5.508c-.888-.593-1.127-1.791-.535-2.678l3.28-4.914C-1.506-2.97-.307-3.21.58-2.618" mask="url(#5ig155xlqb)"/>
                            </g>
                            <g transform="translate(-39.000000, -430.000000) translate(16.000000, 414.000000) translate(23.000000, 16.000000) translate(2.307191, 4.666231) translate(15.806942, 10.374942)">
                                <mask id="2cnob5giod" fill="#fff">
                                    <use xlink:href="#wf4067szgc"/>
                                </mask>
                                <path fill="#000" d="M-5.519 5.057L6.97 13.393c.718.48 1.69.285 2.17-.433l3.686-5.522c.479-.717.285-1.692-.433-2.171L1.223-2.189c-.108-.071-.254-.043-.327.066-.072.108-.044.255.065.328l11.17 7.455c.502.334.637 1.015.302 1.515l-3.685 5.522c-.335.502-1.016.637-1.516.302L-5.256 4.664c-.502-.335-.637-1.014-.302-1.515l3.685-5.523c.335-.5 1.015-.635 1.516-.301.109.072.255.042.327-.067.073-.107.044-.254-.065-.326-.718-.479-1.691-.286-2.17.432l-3.687 5.522c-.479.72-.285 1.692.433 2.17" mask="url(#2cnob5giod)"/>
                            </g>
                            <g transform="translate(-39.000000, -430.000000) translate(16.000000, 414.000000) translate(23.000000, 16.000000) translate(2.307191, 4.666231) translate(15.806942, 10.374942)">
                                <mask id="581j5g2wif" fill="#fff">
                                    <use xlink:href="#d8qsegoxwe"/>
                                </mask>
                                <path fill="#FFF" d="M6.791 10.861c-.072.11-.043.258.066.332.111.073.26.043.333-.066.241-.363.732-.461 1.094-.22.11.075.259.045.331-.065L10.74 7.66c.074-.11.044-.258-.066-.332-.363-.24-.46-.731-.219-1.094.074-.109.044-.258-.066-.33L.28-.845C.17-.916.022-.887-.05-.776c-.241.361-.733.46-1.094.217-.11-.072-.259-.043-.331.066L-3.6 2.688c-.074.11-.044.258.066.332.362.241.46.733.218 1.094-.073.11-.044.258.066.331l10.107 6.748" mask="url(#581j5g2wif)"/>
                            </g>
                            <g transform="translate(-39.000000, -430.000000) translate(16.000000, 414.000000) translate(23.000000, 16.000000) translate(2.307191, 4.666231) translate(15.806942, 10.374942)">
                                <mask id="1nbg6f7mjh" fill="#fff">
                                    <use xlink:href="#ggbh0pyj5g"/>
                                </mask>
                                <path fill="#000" d="M-3.534 3.02c.361.241.46.733.218 1.094-.073.11-.043.259.067.331l8.9 5.942c.11.074.259.044.333-.065.073-.111.043-.258-.067-.333L5.08 9.43 2.995 8.038 1.149 6.807-.63 5.62l-2.174-1.452c.2-.476.09-1.032-.278-1.394l1.883-2.82c.475.2 1.031.09 1.394-.279l2.174 1.452 1.775 1.184 1.85 1.234 2.083 1.392 1.865 1.244c-.2.476-.09 1.032.278 1.395l-1.882 2.82c-.549-.231-1.205-.049-1.547.465-.072.11-.044.259.067.331.11.074.258.044.332-.065.241-.363.732-.46 1.093-.219.11.074.26.044.332-.066l2.124-3.18c.073-.11.044-.26-.066-.332-.363-.242-.46-.732-.219-1.095.074-.11.044-.259-.066-.331L.28-.843C.17-.916.022-.887-.052-.777c-.24.362-.731.46-1.093.219-.11-.074-.258-.044-.332.066L-3.6 2.688c-.074.11-.044.259.066.332" mask="url(#1nbg6f7mjh)"/>
                            </g>
                            <g transform="translate(-39.000000, -430.000000) translate(16.000000, 414.000000) translate(23.000000, 16.000000) translate(2.307191, 4.666231) translate(15.806942, 10.374942)">
                                <mask id="pgaash1arj" fill="#fff">
                                    <use xlink:href="#lqffocxfki"/>
                                </mask>
                                <path fill="#000" d="M6.202 8.188l1.355-2.045c.107-.16.266-.197.426-.09.161.107.187.264.08.424L6.944 8.165l.308.053c.044.007.089.021.134.05.128.084.163.258.073.393-.062.094-.165.144-.303.117l-.73-.118c-.054-.014-.105-.027-.15-.056-.135-.09-.166-.277-.074-.416" mask="url(#pgaash1arj)"/>
                            </g>
                            <g transform="translate(-39.000000, -430.000000) translate(16.000000, 414.000000) translate(23.000000, 16.000000) translate(2.307191, 4.666231) translate(15.806942, 10.374942)">
                                <mask id="wzpg1d7idl" fill="#fff">
                                    <use xlink:href="#ybvmhm47vk"/>
                                </mask>
                                <path fill="#000" d="M5.8 6.468c.362-.545.392-.93.09-1.131-.304-.2-.644-.022-1.005.524-.357.54-.378.896-.072 1.1.31.205.63.046.988-.493M4.363 5.52c.53-.8 1.234-1.05 1.837-.65.604.402.648 1.147.118 1.947-.524.788-1.202 1.017-1.815.61-.61-.403-.664-1.118-.14-1.907" mask="url(#wzpg1d7idl)"/>
                            </g>
                            <g transform="translate(-39.000000, -430.000000) translate(16.000000, 414.000000) translate(23.000000, 16.000000) translate(2.307191, 4.666231) translate(15.806942, 10.374942)">
                                <mask id="08kbv9fwgn" fill="#fff">
                                    <use xlink:href="#c36ns4hgzm"/>
                                </mask>
                                <path fill="#000" d="M3.425 4.893c.362-.546.392-.93.089-1.131-.304-.2-.644-.022-1.005.524-.358.538-.379.895-.072 1.1.31.204.63.045.988-.493m-1.439-.949c.531-.8 1.235-1.049 1.837-.65.606.401.65 1.147.12 1.947-.524.79-1.203 1.017-1.816.61-.61-.403-.664-1.117-.14-1.907" mask="url(#08kbv9fwgn)"/>
                            </g>
                            <g transform="translate(-39.000000, -430.000000) translate(16.000000, 414.000000) translate(23.000000, 16.000000) translate(2.307191, 4.666231) translate(15.806942, 10.374942)">
                                <mask id="4pf92oce9p" fill="#fff">
                                    <use xlink:href="#8o4cbghryo"/>
                                </mask>
                                <path fill="#000" d="M1.05 3.317c.361-.546.39-.93.088-1.131-.303-.2-.643-.022-1.005.524-.357.54-.378.896-.071 1.1.31.205.63.046.988-.493M-.39 2.37c.532-.8 1.236-1.05 1.837-.65.606.402.65 1.147.119 1.947-.523.788-1.202 1.017-1.815.61-.61-.403-.663-1.118-.14-1.907" mask="url(#4pf92oce9p)"/>
                            </g>
                        </g>
                        <g stroke="#000" stroke-linecap="round" stroke-width=".6">
                            <path d="M0 9.462L4.773 1.937M10.779 2.306L11.484 0M11.783 3.278L14.275 2.345M2.48 14.545L.661 15.954M4.181 14.901L4.277 17.268" transform="translate(-39.000000, -430.000000) translate(16.000000, 414.000000) translate(23.000000, 16.000000) translate(2.307191, 4.666231) translate(16.355422, 9.485022)"/>
                        </g>
                    </g>
                </g>
            </g>
        </g>
    </g>
</svg>
