<svg xmlns="http://www.w3.org/2000/svg" xmlns:xlink="http://www.w3.org/1999/xlink" width="32" height="32" viewBox="0 0 32 32">
    <defs>
        <path id="9ddyfj00la" d="M0 0L26.633 0 26.633 16.581 0 16.581z"/>
    </defs>
    <g fill="none" fill-rule="evenodd">
        <g>
            <g>
                <g>
                    <g transform="translate(-39.000000, -350.000000) translate(16.000000, 334.000000) translate(23.000000, 16.000000) translate(3.000500, 5.000300)">
                        <path fill="#A605AD" d="M3.233 23.53H1.337c-.358 0-.65-.291-.65-.65v-4.89c0-.357.292-.648.65-.648h1.896c.359 0 .65.29.65.649v4.889c0 .359-.291.65-.65.65"/>
                        <path fill="#FFF" d="M1.569 22.465v-4.521c0-.334.269-.602.6-.602h-.358c-.332 0-.601.268-.601.602v4.52c0 .333.269.602.6.602h.36c-.332 0-.601-.27-.601-.601"/>
                        <path fill="#000" d="M1.55 17.485c-.151 0-.275.123-.275.274v4.89c0 .15.124.273.275.273h1.896c.15 0 .274-.123.274-.274V17.76c0-.15-.123-.274-.274-.274H1.55zm1.896 6.188H1.55c-.565 0-1.025-.46-1.025-1.024v-4.89c0-.564.46-1.024 1.025-1.024h1.896c.564 0 1.024.46 1.024 1.024v4.89c0 .564-.46 1.023-1.024 1.023z"/>
                        <path fill="#000" d="M4.095 22.731c-.204 0-.372-.164-.375-.369-.003-.207.162-.378.37-.38l8.18-.14c.212-.006.415-.09.571-.24l3.95-3.815c.102-.1.158-.237.155-.383-.003-.146-.063-.28-.172-.379-.196-.177-.495-.18-.695-.009l-1.763 1.853c-.143.148-.38.155-.53.012-.15-.143-.156-.38-.013-.53l1.79-1.878c.515-.444 1.241-.435 1.716-.003.258.236.411.571.417.921.006.35-.134.69-.383.934l-3.95 3.816c-.292.28-.675.44-1.079.45l-8.183.14h-.006z"/>
                        <path fill="#000" d="M9.257 20.377c-.193 0-.357-.148-.373-.344-.018-.206.136-.387.342-.405l2.797-.232c.316-.042.472-.195.477-.32.006-.155-.202-.355-.61-.438l-3.766-.826c-.432-.128-.857-.125-1.26.004l-2.655.845c-.199.062-.409-.047-.472-.243-.062-.198.047-.41.244-.472l2.655-.845c.547-.174 1.125-.18 1.675-.015l3.734.818c.913.186 1.22.763 1.204 1.2-.016.444-.377.938-1.146 1.037l-2.814.235h-.032"/>
                        <path fill="#FDAF27" d="M25.011 13.631c.688 0 1.247-.558 1.247-1.247V1.621c0-.688-.559-1.246-1.247-1.246H2C1.121.375.41 1.086.41 1.964v10.42c0 .689.558 1.247 1.246 1.247H7.6l-.96 2.06c-.154.306.172.63.477.475l4.275-2.272c.326-.173.69-.263 1.057-.263h12.562z"/>
                        <path fill="#FF8B00" d="M11.152.071H1.937C1.017.071.271.817.271 1.737v10.921c0 .722.585 1.307 1.306 1.307h6.068L11.152.071z"/>
                        <path fill="#F5F5F5" d="M4.227 2.838c0 .705-.567 1.274-1.269 1.285v5.753c.007 0 .013-.004.02-.004.712 0 1.29.577 1.29 1.289l-.002.008h18.072l-.002-.008c0-.712.578-1.289 1.29-1.289V4.119c-.014.001-.026.008-.04.008-.712 0-1.289-.577-1.289-1.289H4.227z"/>
                        <path fill="#000" d="M22.338 11.543H4.266c-.207 0-.375-.167-.375-.374l.001-.03c-.012-.483-.4-.874-.882-.891-.019.003-.036.004-.052.004-.095 0-.186-.037-.255-.102-.076-.07-.12-.17-.12-.274V4.125c0-.205.164-.372.37-.375.495-.009.9-.417.9-.912 0-.207.167-.375.374-.375s.375.168.375.375c0 .775-.543 1.434-1.269 1.613v5.094c.64.144 1.128.631 1.268 1.25h17.402c.14-.622.628-1.112 1.248-1.255V4.457c-.648-.137-1.142-.624-1.286-1.244H5.932c-.207 0-.375-.167-.375-.375 0-.207.168-.375.375-.375h16.365c.207 0 .375.168.375.375 0 .51.442.943.928.914.098 0 .203.034.273.103.073.07.128.163.128.266V9.87c0 .207-.168.375-.375.375-.497 0-.903.4-.914.893l.001.03c0 .207-.168.374-.375.374"/>
                        <circle cx="13.399" cy="7" r="2.68" fill="#FDAF27" stroke="#000" stroke-width=".64"/>
                        <path fill="#FF8B00" d="M6.363 6.6h2.073c.12 0 .194.018.259.053s.116.086.151.151c.035.066.053.14.053.259v.074c0 .118-.018.193-.053.258s-.086.116-.151.151c-.065.035-.14.054-.259.054H6.363c-.12 0-.194-.019-.259-.054s-.116-.086-.151-.15c-.035-.066-.054-.14-.054-.26v-.073c0-.119.02-.193.054-.259.035-.065.086-.116.151-.15.065-.036.14-.054.259-.054zM18.363 6.6h2.073c.12 0 .194.018.259.053s.116.086.151.151c.035.066.053.14.053.259v.074c0 .118-.018.193-.053.258s-.086.116-.151.151c-.065.035-.14.054-.259.054h-2.073c-.12 0-.194-.019-.259-.054s-.116-.086-.151-.15c-.035-.066-.053-.14-.053-.26v-.073c0-.119.018-.193.053-.259.035-.065.086-.116.151-.15.065-.036.14-.054.259-.054z"/>
                        <g>
                            <mask id="huqo4811ib" fill="#fff">
                                <use xlink:href="#9ddyfj00la"/>
                            </mask>
                            <path fill="#000" d="M6.917 16.58c-.187 0-.369-.072-.51-.212-.227-.226-.282-.558-.138-.845l.707-1.517H1.621C.727 14.006 0 13.279 0 12.385V1.964C0 .88.881 0 1.964 0h23.047c.894 0 1.622.727 1.622 1.62v10.765c0 .894-.728 1.62-1.622 1.62-.207 0-.375-.167-.375-.374s.168-.375.375-.375c.481 0 .872-.391.872-.871V1.62c0-.48-.391-.871-.872-.871H1.964C1.294.75.75 1.295.75 1.964v10.42c0 .48.391.872.871.872h5.943c.128 0 .248.066.317.174.069.108.078.244.023.36l-.96 2.06 4.238-2.287c.378-.201.804-.307 1.233-.307h9.763c.207 0 .375.168.375.375s-.168.375-.375.375h-9.763c-.307 0-.611.076-.882.22l-4.275 2.272c-.111.056-.227.083-.341.083" mask="url(#huqo4811ib)"/>
                        </g>
                    </g>
                </g>
            </g>
        </g>
    </g>
</svg>
