<svg xmlns="http://www.w3.org/2000/svg" xmlns:xlink="http://www.w3.org/1999/xlink" width="32" height="32" viewBox="0 0 32 32">
    <defs>
        <path id="xzjibgrz0a" d="M17.873 9.39c1.272 1.6 2.127 5.674 2.254 7.974.015.3-.149.582-.418.718-1.887.934-3.966 1.417-6.073 1.409-2.094 0-4.162-.465-6.054-1.364-.266-.134-.43-.411-.418-.709.09-2.327.909-6.418 2.254-8.018.253-.319.71-.387 1.046-.155 1.901 1.366 4.462 1.366 6.363 0 .332-.238.792-.174 1.046.146zm-10.546-.4s.237-.2.41 0c.145.165-.028.428-.028.455-1.073 1.655-1.754 5.51-1.9 7.582-1.698.17-3.413-.057-5.009-.663-.484-.185-.777-.678-.71-1.191.128-1.264.565-4.264 1.22-5.264.312-.497.957-.664 1.472-.382 1.471.826 3.307.61 4.545-.536zm12.182 0c.182-.2.41 0 .41 0l.17.15c.694.573 1.569.888 2.475.887.673.003 1.335-.172 1.918-.509.518-.271 1.157-.101 1.473.391.645 1 1.081 3.982 1.2 5.236.06.505-.228.987-.7 1.173-1.244.493-2.571.743-3.91.737-.37 0-.74-.018-1.109-.055-.109-2.073-.845-5.927-1.927-7.582l-.006-.008c-.03-.042-.156-.241.006-.42zm3.055-5.945c1.687 0 3.054 1.368 3.054 3.055s-1.367 3.055-3.054 3.055c-1.687 0-3.055-1.368-3.055-3.055s1.368-3.055 3.055-3.055zm-17.882 0c1.687 0 3.054 1.368 3.054 3.055S6.37 9.155 4.682 9.155c-1.687 0-3.055-1.368-3.055-3.055s1.368-3.055 3.055-3.055zM13.618.51c2.355 0 4.264 1.909 4.264 4.264 0 2.354-1.91 4.263-4.264 4.263-2.355 0-4.263-1.909-4.263-4.263 0-2.355 1.908-4.264 4.263-4.264z"/>
    </defs>
    <g fill="none" fill-rule="evenodd">
        <g>
            <path d="M0 0H32V32H0z"/>
            <g transform="translate(2 6)">
                <mask id="ztrkr21sub" fill="#fff">
                    <use xlink:href="#xzjibgrz0a"/>
                </mask>
                <use fill="#000" fill-rule="nonzero" xlink:href="#xzjibgrz0a"/>
                <g fill="#000" mask="url(#ztrkr21sub)">
                    <path d="M0 0L32 0 32 32 0 32z" transform="translate(-2 -6)"/>
                </g>
            </g>
        </g>
    </g>
</svg>
