<svg xmlns="http://www.w3.org/2000/svg" width="48" height="48" viewBox="0 0 48 48">
    <g fill="none" fill-rule="evenodd">
        <g>
            <g>
                <g>
                    <path d="M0 0H48V48H0z" transform="translate(-24.000000, -178.000000) translate(16.000000, 170.000000) translate(8.000000, 8.000000)"/>
                    <path fill="#F8F1D3" fill-rule="nonzero" d="M9.332 13.03c-1.002 3.272-7.396 10.174-5.32 14.25 2.076 4.076 12.874 1.773 13.87 8.03.997 6.257 7.515 5.886 16.197 4.99 8.682-.897 11.593-6.403 9.829-16.364-1.764-9.96-8.934-4.885-13.065-11.636-4.13-6.75-19.117-7.09-21.51.73z" transform="translate(-24.000000, -178.000000) translate(16.000000, 170.000000) translate(8.000000, 8.000000)"/>
                    <g>
                        <path fill="#DE9009" fill-rule="nonzero" d="M10.661 20.4h25.153c.908 0 1.706-.592 1.953-1.45.53-1.836-.69-3.715-2.61-4.02l-.578-.093c-.287.06-.381-.229-.381-.229l2.136-10.71H12.641c-.518 0-.996.271-1.255.71-.56.95.138 2.137 1.255 2.137h1.097c1.168 0 2.024 1.078 1.739 2.19-.201.782-.918 1.33-1.74 1.33H9.863c-.772 0-1.454.495-1.678 1.22-.344 1.107.5 2.224 1.678 2.224h1.958c1.25 0 2.133 1.203 1.737 2.366-.249.734-.949 1.23-1.737 1.23h-1.159c-.753 0-1.4.522-1.547 1.247-.193.957.553 1.848 1.547 1.848z" transform="translate(-24.000000, -178.000000) translate(16.000000, 170.000000) translate(8.000000, 8.000000) translate(2.400000, 13.200000)"/>
                        <path fill="#FCAD25" fill-rule="nonzero" d="M34.095 17.925H18.067c.431-1.75-1.128-3.396-3.218-3.396l1.686-6.84c1.555 0 2.897-.93 3.218-2.233H35.78C35.35 7.206 36.91 8.853 39 8.853l-1.686 6.838c-1.554 0-2.897.932-3.218 2.234z" transform="translate(-24.000000, -178.000000) translate(16.000000, 170.000000) translate(8.000000, 8.000000) translate(2.400000, 13.200000)"/>
                        <path fill="#FFF" fill-rule="nonzero" d="M31.293 11.99c0-2.368-1.956-4.288-4.369-4.288s-4.369 1.92-4.369 4.288c0 2.369 1.956 4.288 4.37 4.288 2.412 0 4.368-1.92 4.368-4.288z" transform="translate(-24.000000, -178.000000) translate(16.000000, 170.000000) translate(8.000000, 8.000000) translate(2.400000, 13.200000)"/>
                        <path fill="#FDC362" fill-rule="nonzero" d="M36.24 2.216L33.525 16.07s5.119-1.509 4.22 2.425l3.027-16.648c.086-.474-.028-.964-.324-1.348-.439-.571-2.133-.719-3.1-.093-.518.328-.988 1.196-1.108 1.809z" transform="translate(-24.000000, -178.000000) translate(16.000000, 170.000000) translate(8.000000, 8.000000) translate(2.400000, 13.200000)"/>
                        <path stroke="#DE900A" stroke-linecap="round" stroke-linejoin="round" stroke-width="2.79" d="M.215 12.04H.002M6.215 5.577H3.259" transform="translate(-24.000000, -178.000000) translate(16.000000, 170.000000) translate(8.000000, 8.000000) translate(2.400000, 13.200000)"/>
                        <path stroke="#DE900A" stroke-linecap="round" stroke-linejoin="round" stroke-width="1.339" d="M4.178 8.864h-.685" transform="translate(-24.000000, -178.000000) translate(16.000000, 170.000000) translate(8.000000, 8.000000) translate(2.400000, 13.200000)"/>
                    </g>
                </g>
            </g>
        </g>
    </g>
</svg>
