<svg xmlns="http://www.w3.org/2000/svg" xmlns:xlink="http://www.w3.org/1999/xlink" width="160" height="160" viewBox="0 0 160 160">
    <defs>
        <path id="a" d="M66 0c6.835 0 12.375 5.492 12.375 12.267v53.16h16.5c2.278 0 4.125 1.83 4.125 4.088v4.09c0 11.291-9.234 20.445-20.625 20.445h-57.75C9.235 94.05 0 84.896 0 73.604V12.267C0 5.492 5.54 0 12.375 0zm24.75 73.604h-49.5a20.126 20.126 0 0 1-4.125 12.268h41.25c6.835 0 12.375-5.493 12.375-12.268zM66 8.178H12.375c-2.278 0-4.125 1.831-4.125 4.09v61.336c0 6.775 5.54 12.268 12.375 12.268S33 80.379 33 73.604v-4.089c0-2.258 1.847-4.089 4.125-4.089h33V12.267c0-2.258-1.847-4.089-4.125-4.089zM57.75 49.07c2.278 0 4.125 1.83 4.125 4.089 0 2.258-1.847 4.089-4.125 4.089H20.625c-2.278 0-4.125-1.83-4.125-4.09 0-2.258 1.847-4.088 4.125-4.088zm0-16.357c2.278 0 4.125 1.83 4.125 4.09 0 2.258-1.847 4.088-4.125 4.088H20.625c-2.278 0-4.125-1.83-4.125-4.089 0-2.258 1.847-4.089 4.125-4.089zm0-16.356c2.278 0 4.125 1.83 4.125 4.089 0 2.258-1.847 4.089-4.125 4.089H20.625c-2.278 0-4.125-1.831-4.125-4.09 0-2.258 1.847-4.088 4.125-4.088z"/>
    </defs>
    <g fill="none" fill-rule="evenodd">
        <circle cx="132.881" cy="149.153" r="9.492" stroke="#000" stroke-opacity=".25" stroke-width="2.712"/>
        <circle cx="154.576" cy="62.373" r="5.424" fill="#D8D8D8"/>
        <circle cx="9.492" cy="77.288" r="9.492" fill="#D8D8D8"/>
        <circle cx="42.034" cy="12.203" r="10.847" stroke="#000" stroke-opacity=".1" stroke-width="2.712"/>
        <g opacity=".2" transform="translate(29.678 45.102)">
            <mask id="b" fill="#fff">
                <use xlink:href="#a"/>
            </mask>
            <use fill="#000" fill-rule="nonzero" xlink:href="#a"/>
            <g fill="#000" mask="url(#b)">
                <path d="M-10-15h120v120H-10z"/>
            </g>
        </g>
    </g>
</svg>
