<svg width="48" height="48" xmlns="http://www.w3.org/2000/svg" xmlns:xlink="http://www.w3.org/1999/xlink">
    <defs>
        <path id="a" d="M0 39h36V0H0z"/>
    </defs>
    <g transform="translate(1.5 7.5)" fill="none" fill-rule="evenodd">
        <path d="M9.924 6.535V2.588S9.885.572 11.788.572h21.727s1.886 0 1.886 1.936v3.927l-25.477.1z" stroke="#000" stroke-width=".763"/>
        <path d="M22.91 6.434 19.27 30.626l13.343.133s2.786-.781 2.786-3.553V6.613l-12.49-.179z" fill="#FFAD00"/>
        <path d="m22.91 6.434-3.356 24.184h-4.285s-3.774 1.632-3.316-5.951V6.507l10.956-.073z" fill="#FF8B00"/>
        <path d="M34.698 5.896H9.353v22.057c0 2.211 1.747 4.007 3.897 4.007h6.218v-1.335H13.25c-1.433 0-2.6-1.197-2.6-2.672V7.235h24.048v20.718c0 1.475-1.162 2.672-2.6 2.672h-6.702v1.335h6.703c2.154 0 3.897-1.796 3.897-4.007V5.896h-1.298z" fill="#000"/>
        <path d="M24.837 31.353c0 .331.275.602.612.602.34 0 .612-.27.612-.602a.612.612 0 0 0-1.224 0M18.825 31.353c0 .331.275.602.612.602a.61.61 0 0 0 .616-.602.613.613 0 0 0-.616-.607.612.612 0 0 0-.612.607" fill="#000"/>
        <path stroke="#000" stroke-width=".763" stroke-linecap="round" d="M14.678 4.563v3.942M30.973 4.362v3.942M23.004 4.463v3.942"/>
        <mask id="b" fill="#fff">
            <use xlink:href="#a"/>
        </mask>
        <path stroke="#000" stroke-width=".763" stroke-linecap="round" stroke-linejoin="round" mask="url(#b)" d="M14.68 15.152h3.285v-3.024H14.68z"/>
        <path fill="#FFF" mask="url(#b)" d="M21.65 15.178h3.285v-3.023H21.65z"/>
        <path stroke="#000" stroke-width=".763" stroke-linecap="round" stroke-linejoin="round" mask="url(#b)" d="M21.65 15.178h3.285v-3.023H21.65z"/>
        <path fill="#FFF" mask="url(#b)" d="M28.941 15.178h3.285v-3.023h-3.285z"/>
        <path stroke="#000" stroke-width=".763" stroke-linecap="round" stroke-linejoin="round" mask="url(#b)" d="M28.941 15.178h3.285v-3.023h-3.285zM14.68 20.665h3.285V17.64H14.68zM21.65 20.688h3.285v-3.024H21.65z"/>
        <path fill="#FFF" mask="url(#b)" d="M28.941 20.688h3.285v-3.024h-3.285z"/>
        <path stroke="#000" stroke-width=".763" stroke-linecap="round" stroke-linejoin="round" mask="url(#b)" d="M28.941 20.688h3.285v-3.024h-3.285zM21.65 26.067h3.285v-3.023H21.65zM28.941 26.067h3.285v-3.023h-3.285z"/>
        <path d="M9.502 20.907c4.82 0 8.725 3.946 8.725 8.811s-3.905 8.811-8.725 8.811S.777 34.583.777 29.718s3.905-8.811 8.725-8.811" fill="#A508AC" mask="url(#b)"/>
        <path d="M9.086 20.07a9.495 9.495 0 0 0-7.54 3.65l.764.56c1.588-1.979 4.025-3.271 6.776-3.271 4.777 0 8.663 3.828 8.663 8.525 0 4.7-3.886 8.529-8.663 8.529a8.642 8.642 0 0 1-8.163-5.78l-.883.358c1.34 3.645 4.889 6.36 9.046 6.36 5.304 0 9.62-4.248 9.62-9.467 0-5.22-4.316-9.463-9.62-9.463" fill="#000" mask="url(#b)"/>
        <path d="M2.421 23.978c0 .26-.213.47-.476.47a.472.472 0 0 1-.477-.47c0-.259.213-.469.477-.469.263 0 .476.21.476.47M.955 32.453c0 .26-.213.469-.48.469a.475.475 0 0 1-.477-.47c0-.258.217-.468.477-.468.267 0 .48.21.48.469" fill="#000" mask="url(#b)"/>
        <path d="M7.147 32.965c.325.19.678.332 1.042.427a.335.335 0 0 1 .256.324v.496c0 .213.174.385.391.385h.732a.386.386 0 0 0 .388-.385v-.496c0-.153.104-.286.255-.324a4.155 4.155 0 0 0 1.047-.427.334.334 0 0 1 .41.053l.36.351c.152.153.4.149.55 0l.52-.507a.388.388 0 0 0 0-.545l-.36-.351a.33.33 0 0 1-.05-.408c.189-.32.336-.667.433-1.026a.336.336 0 0 1 .33-.255h.503a.386.386 0 0 0 .387-.381v-.72a.386.386 0 0 0-.387-.382h-.504a.336.336 0 0 1-.329-.256 4.133 4.133 0 0 0-.434-1.025.331.331 0 0 1 .05-.408l.36-.351a.383.383 0 0 0 0-.541l-.518-.511a.399.399 0 0 0-.55 0l-.36.354a.338.338 0 0 1-.411.05 4.155 4.155 0 0 0-1.047-.427.335.335 0 0 1-.255-.324v-.496a.386.386 0 0 0-.388-.385h-.732a.387.387 0 0 0-.391.385v.496a.335.335 0 0 1-.256.324 4.129 4.129 0 0 0-1.042.427.343.343 0 0 1-.415-.05l-.356-.354a.404.404 0 0 0-.554 0l-.515.51a.377.377 0 0 0 0 .542l.356.35c.112.111.132.28.05.409-.19.32-.337.667-.43 1.025a.342.342 0 0 1-.329.256h-.507a.386.386 0 0 0-.388.381v.72c0 .21.174.382.388.382h.507c.155 0 .29.107.33.255.092.359.24.706.43 1.026a.325.325 0 0 1-.05.408l-.357.35a.377.377 0 0 0 0 .542l.515.511c.151.149.399.153.554 0l.356-.35a.347.347 0 0 1 .415-.054m2.421 2.303h-.732a1.065 1.065 0 0 1-1.073-1.056v-.24a5.085 5.085 0 0 1-.732-.302l-.175.172a1.08 1.08 0 0 1-1.515 0l-.519-.507a1.042 1.042 0 0 1 0-1.491l.175-.175a4.687 4.687 0 0 1-.303-.717h-.247a1.067 1.067 0 0 1-1.074-1.056v-.72c0-.58.485-1.057 1.074-1.057h.247c.082-.244.183-.484.303-.717l-.175-.171a1.047 1.047 0 0 1 0-1.495l.52-.507a1.08 1.08 0 0 1 1.514 0l.175.172c.236-.122.48-.222.732-.302v-.24c0-.583.48-1.056 1.073-1.056h.732c.59 0 1.07.473 1.07 1.056v.24c.251.08.496.18.732.302l.174-.172a1.08 1.08 0 0 1 1.515 0l.52.507a1.043 1.043 0 0 1 0 1.495l-.175.171c.12.233.22.473.302.717h.248c.593 0 1.073.477 1.073 1.056v.72c0 .584-.48 1.057-1.073 1.057h-.248a4.687 4.687 0 0 1-.302.717l.174.175a1.039 1.039 0 0 1 0 1.49l-.519.508a1.08 1.08 0 0 1-1.515 0l-.174-.172c-.236.118-.48.221-.732.301v.24c0 .584-.48 1.057-1.07 1.057" fill="#FFF" mask="url(#b)"/>
        <path d="M7.147 32.965c.325.19.678.332 1.042.427a.335.335 0 0 1 .256.324v.496c0 .213.174.385.391.385h.732a.386.386 0 0 0 .388-.385v-.496c0-.153.104-.286.255-.324a4.155 4.155 0 0 0 1.047-.427.334.334 0 0 1 .41.053l.36.351c.152.153.4.149.55 0l.52-.507a.388.388 0 0 0 0-.545l-.36-.351a.33.33 0 0 1-.05-.408c.189-.32.336-.667.433-1.026a.336.336 0 0 1 .33-.255h.503a.386.386 0 0 0 .387-.381v-.72a.386.386 0 0 0-.387-.382h-.504a.336.336 0 0 1-.329-.256 4.133 4.133 0 0 0-.434-1.025.331.331 0 0 1 .05-.408l.36-.351a.383.383 0 0 0 0-.541l-.518-.511a.399.399 0 0 0-.55 0l-.36.354a.338.338 0 0 1-.411.05 4.155 4.155 0 0 0-1.047-.427.335.335 0 0 1-.255-.324v-.496a.386.386 0 0 0-.388-.385h-.732a.387.387 0 0 0-.391.385v.496a.335.335 0 0 1-.256.324 4.129 4.129 0 0 0-1.042.427.343.343 0 0 1-.415-.05l-.356-.354a.404.404 0 0 0-.554 0l-.515.51a.377.377 0 0 0 0 .542l.356.35c.112.111.132.28.05.409-.19.32-.337.667-.43 1.025a.342.342 0 0 1-.329.256h-.507a.386.386 0 0 0-.388.381v.72c0 .21.174.382.388.382h.507c.155 0 .29.107.33.255.092.359.24.706.43 1.026a.325.325 0 0 1-.05.408l-.357.35a.377.377 0 0 0 0 .542l.515.511c.151.149.399.153.554 0l.356-.35a.347.347 0 0 1 .415-.054zm2.421 2.303h-.732a1.065 1.065 0 0 1-1.073-1.056v-.24a5.085 5.085 0 0 1-.732-.302l-.175.172a1.08 1.08 0 0 1-1.515 0l-.519-.507a1.042 1.042 0 0 1 0-1.491l.175-.175a4.687 4.687 0 0 1-.303-.717h-.247a1.067 1.067 0 0 1-1.074-1.056v-.72c0-.58.485-1.057 1.074-1.057h.247c.082-.244.183-.484.303-.717l-.175-.171a1.047 1.047 0 0 1 0-1.495l.52-.507a1.08 1.08 0 0 1 1.514 0l.175.172c.236-.122.48-.222.732-.302v-.24c0-.583.48-1.056 1.073-1.056h.732c.59 0 1.07.473 1.07 1.056v.24c.251.08.496.18.732.302l.174-.172a1.08 1.08 0 0 1 1.515 0l.52.507a1.043 1.043 0 0 1 0 1.495l-.175.171c.12.233.22.473.302.717h.248c.593 0 1.073.477 1.073 1.056v.72c0 .584-.48 1.057-1.073 1.057h-.248a4.687 4.687 0 0 1-.302.717l.174.175a1.039 1.039 0 0 1 0 1.49l-.519.508a1.08 1.08 0 0 1-1.515 0l-.174-.172c-.236.118-.48.221-.732.301v.24c0 .584-.48 1.057-1.07 1.057z" stroke="#FFF" stroke-width=".5" mask="url(#b)"/>
        <path d="M9.201 27.713c-1.022 0-1.851.816-1.851 1.822 0 1.007.829 1.823 1.851 1.823 1.023 0 1.852-.816 1.852-1.823 0-1.006-.829-1.822-1.852-1.822m0 4.316c-1.398 0-2.533-1.117-2.533-2.494 0-1.376 1.135-2.493 2.533-2.493 1.4 0 2.534 1.117 2.534 2.493 0 1.377-1.135 2.494-2.534 2.494" fill="#FFF" mask="url(#b)"/>
        <path d="M9.201 27.713c-1.022 0-1.851.816-1.851 1.822 0 1.007.829 1.823 1.851 1.823 1.023 0 1.852-.816 1.852-1.823 0-1.006-.829-1.822-1.852-1.822zm0 4.316c-1.398 0-2.533-1.117-2.533-2.494 0-1.376 1.135-2.493 2.533-2.493 1.4 0 2.534 1.117 2.534 2.493 0 1.377-1.135 2.494-2.534 2.494z" stroke="#FFF" stroke-width=".5" mask="url(#b)"/>
    </g>
</svg>