
<svg width="48" height="48" xmlns="http://www.w3.org/2000/svg" xmlns:xlink="http://www.w3.org/1999/xlink">
    <defs>
        <path id="a" d="M0 0h39.692v20.124H0z"/>
        <path id="c" d="M0 .508h3.615v2.526H0z"/>
        <path id="e" d="M0 0h17.868v18.042H0z"/>
        <path id="g" d="M.676 0h2.263v3.541H.676z"/>
    </defs>
    <g fill="none" fill-rule="evenodd">
        <path d="M32.634 8.016H18.128S16.06 7.753 16.06 9.11v4.692s.12 1.084 1.107 1.084h15.977s1.102.127 1.102-1.084V9.11S34.503 8 32.634 8.016" fill="#FFF"/>
        <path d="m25.075 31.53-2.01 8.4h-3s-2.719.78-2.972-1.717V33.37s-.061-1.987 3.99-1.544l3.992-.294z" fill="#FF8B00"/>
        <path d="m25.075 31.53-2.01 8.4 10.595.114s1.312-.103 1.352-1.501c.036-1.396 0-5.543 0-5.543s-1.276-1.618-2.925-1.47c-1.652.15-7.012 0-7.012 0" fill="#FFAD00"/>
        <path d="m25.075 19.362-2.01 8.4h-3s-2.719.78-2.972-1.717v-4.848s-.061-1.983 3.99-1.54l3.992-.295z" fill="#FF8B00"/>
        <path d="m25.075 19.362-2.01 8.4 10.595.114s1.312-.107 1.352-1.502c.036-1.395 0-5.542 0-5.542s-1.276-1.618-2.925-1.47c-1.652.15-7.012 0-7.012 0" fill="#FFAD00"/>
        <path d="M34.247 26.077c0 .595-.495 1.083-1.106 1.083H17.168c-.611 0-1.106-.488-1.106-1.083v-4.693c0-.598.495-1.083 1.106-1.083H33.14c.611 0 1.106.485 1.106 1.083v4.693zm-1.106 2.6c1.464 0 2.657-1.166 2.657-2.6v-4.693c0-1.434-1.193-2.602-2.657-2.602H17.168c-1.464 0-2.657 1.168-2.657 2.602v1.52H8.315c-.802 0-1.457-.641-1.457-1.427V13.66c0-.79.655-1.427 1.457-1.427h2.024l-.864.846a.746.746 0 0 0 0 1.073c.3.297.792.297 1.096 0l2.19-2.142a.759.759 0 0 0 0-1.074l-2.19-2.146a.797.797 0 0 0-1.096 0 .75.75 0 0 0 0 1.077l.864.846H8.315c-1.66 0-3.007 1.321-3.007 2.947v7.816c0 1.625 1.348 2.946 3.007 2.946h6.196v1.654c0 1.434 1.193 2.6 2.657 2.6H33.14z" fill="#000"/>
        <path d="M33.142 16.404c1.464 0 2.654-1.169 2.654-2.603V9.109c0-1.435-1.19-2.6-2.654-2.6H28.44a.768.768 0 0 0-.778.758c0 .418.351.758.778.758h4.702c.608 0 1.107.485 1.107 1.084V13.8c0 .598-.5 1.084-1.107 1.084H17.17c-.611 0-1.11-.486-1.11-1.084V9.109c0-.599.499-1.084 1.11-1.084h4.45c.426 0 .773-.34.773-.758a.764.764 0 0 0-.773-.758h-4.45c-1.468 0-2.657 1.165-2.657 2.6V13.8c0 1.434 1.19 2.603 2.657 2.603h15.973z" fill="#000"/>
        <g transform="translate(5.308 20.83)">
            <mask id="b" fill="#fff">
                <use xlink:href="#a"/>
            </mask>
            <path d="M28.94 17.52c0 .596-.495 1.084-1.106 1.084H11.86c-.61 0-1.106-.488-1.106-1.083v-4.692c0-.599.495-1.084 1.106-1.084h15.974c.61 0 1.106.485 1.106 1.084v4.692zm7.746-1.67c1.66 0 3.008-1.322 3.008-2.947V5.087c0-1.625-1.348-2.946-3.008-2.946h-2.024l.864-.847a.75.75 0 0 0 0-1.076.797.797 0 0 0-1.095 0l-2.19 2.146a.75.75 0 0 0 0 1.073l2.19 2.142a.784.784 0 0 0 1.095 0 .746.746 0 0 0 0-1.073l-.864-.846h2.024c.803 0 1.457.641 1.457 1.427v7.816c0 .786-.654 1.427-1.457 1.427h-6.195v-1.501c0-1.435-1.193-2.603-2.657-2.603H11.86c-1.464 0-2.657 1.168-2.657 2.603v1.501H2.751C1.233 14.33 0 15.538 0 17.025v2.34c0 .419.347.759.774.759.43 0 .777-.34.777-.758v-2.341a1.19 1.19 0 0 1 1.2-1.176h6.452v1.672c0 1.434 1.193 2.603 2.657 2.603h15.974c1.464 0 2.657-1.169 2.657-2.603v-1.672h6.195z" fill="#000" mask="url(#b)"/>
        </g>
        <g transform="translate(23.268 6)">
            <mask id="d" fill="#fff">
                <use xlink:href="#c"/>
            </mask>
            <path d="M2.524 1.557a.754.754 0 0 0-.286-.92C1.642.247.843.83 1.074 1.504c.22.652 1.178.69 1.45.053" fill="#000" mask="url(#d)"/>
        </g>
        <path d="M31.715 36.004a.764.764 0 0 0-.774-.758H19.536a.764.764 0 0 0-.773.758c0 .418.347.758.773.758h11.405c.427 0 .774-.34.774-.758M30.94 24.422c.426 0 .773-.34.773-.758a.767.767 0 0 0-.773-.761H19.539c-.43 0-.778.34-.778.761 0 .418.347.758.778.758h11.4zM30.94 10.563H19.539c-.43 0-.778.34-.778.758 0 .421.347.761.778.761h11.4c.427 0 .774-.34.774-.761a.767.767 0 0 0-.773-.758" fill="#000"/>
        <path d="M9.774 29.255c4.612 0 8.353 3.761 8.353 8.4 0 4.636-3.74 8.397-8.353 8.397-4.613 0-8.354-3.761-8.354-8.397 0-4.639 3.741-8.4 8.354-8.4" fill="#A508AC"/>
        <g transform="translate(.715 28.458)">
            <mask id="f" fill="#fff">
                <use xlink:href="#e"/>
            </mask>
            <path d="M8.661 0a9.122 9.122 0 0 0-7.222 3.478l.733.53C3.694 2.129 6.026.893 8.661.893c4.573 0 8.292 3.648 8.292 8.128 0 4.483-3.72 8.127-8.292 8.127a8.276 8.276 0 0 1-7.819-5.51L0 11.98c1.28 3.478 4.678 6.063 8.661 6.063 5.075 0 9.207-4.048 9.207-9.023C17.868 4.048 13.736 0 8.66 0" fill="#000" mask="url(#f)"/>
        </g>
        <path d="M2.994 32.183a.449.449 0 0 1-.455.446.449.449 0 0 1-.456-.446c0-.248.203-.447.456-.447s.455.199.455.447" fill="#000"/>
        <g transform="translate(0 38.489)">
            <mask id="h" fill="#fff">
                <use xlink:href="#g"/>
            </mask>
            <path d="M1.59 1.77a.451.451 0 0 1-.456.447.452.452 0 0 1-.46-.446c0-.248.207-.447.46-.447.249 0 .455.199.455.447" fill="#000" mask="url(#h)"/>
        </g>
        <path d="M7.518 40.749c.31.18.647.315.998.404a.326.326 0 0 1 .245.311v.471c0 .206.17.365.373.365h.701c.206 0 .372-.16.372-.365v-.47c0-.146.102-.273.246-.312a3.87 3.87 0 0 0 .998-.404.328.328 0 0 1 .398.05l.343.332a.377.377 0 0 0 .528 0l.495-.485a.36.36 0 0 0 0-.517l-.344-.336a.311.311 0 0 1-.05-.386c.188-.308.325-.638.416-.978a.323.323 0 0 1 .314-.24h.484a.371.371 0 0 0 .373-.369v-.683a.371.371 0 0 0-.373-.369h-.484a.32.32 0 0 1-.314-.237 3.669 3.669 0 0 0-.416-.98.317.317 0 0 1 .05-.39l.344-.333a.36.36 0 0 0 0-.517l-.495-.485a.377.377 0 0 0-.528 0l-.343.336a.332.332 0 0 1-.398.046 4 4 0 0 0-.998-.404.323.323 0 0 1-.246-.311v-.471a.371.371 0 0 0-.372-.369h-.701a.373.373 0 0 0-.373.369v.47a.323.323 0 0 1-.245.312 4 4 0 0 0-.998.404.332.332 0 0 1-.398-.046l-.343-.336a.377.377 0 0 0-.528 0l-.491.485a.36.36 0 0 0 0 .517l.34.333a.317.317 0 0 1 .05.39 3.79 3.79 0 0 0-.416.98.32.32 0 0 1-.314.237h-.485a.373.373 0 0 0-.372.369v.683c0 .202.17.368.372.368h.485c.148 0 .278.1.314.241.09.34.232.67.416.978a.311.311 0 0 1-.05.386l-.34.336a.36.36 0 0 0 0 .517l.491.485a.377.377 0 0 0 .528 0l.343-.333a.331.331 0 0 1 .398-.05m2.317 2.196h-.701a1.02 1.02 0 0 1-1.027-1.009v-.23a4.242 4.242 0 0 1-.697-.287l-.17.167c-.405.4-1.056.386-1.453 0l-.492-.486a.99.99 0 0 1 0-1.423l.166-.163a4.365 4.365 0 0 1-.289-.684h-.239a1.02 1.02 0 0 1-1.026-1.009v-.683c0-.556.463-1.006 1.026-1.006h.239c.076-.237.174-.468.29-.687l-.167-.163a.99.99 0 0 1 0-1.424l.492-.485a1.046 1.046 0 0 1 1.453 0l.17.163c.224-.113.459-.209.697-.283v-.23c0-.556.463-1.006 1.027-1.006h.701c.568 0 1.027.45 1.027 1.006v.23c.242.074.477.17.7.283l.167-.163a1.046 1.046 0 0 1 1.453 0l.496.485a.995.995 0 0 1 0 1.424l-.17.163c.115.22.213.45.292.687h.235c.568 0 1.027.45 1.027 1.006v.683c0 .556-.459 1.01-1.027 1.01H13.8c-.079.233-.177.463-.292.683l.17.163a.995.995 0 0 1 0 1.423l-.496.486a1.04 1.04 0 0 1-1.453 0l-.166-.167c-.224.117-.46.213-.701.287v.23c0 .556-.46 1.01-1.027 1.01" fill="#FFF"/>
        <path d="M7.518 40.749c.31.18.647.315.998.404a.326.326 0 0 1 .245.311v.471c0 .206.17.365.373.365h.701c.206 0 .372-.16.372-.365v-.47c0-.146.102-.273.246-.312a3.87 3.87 0 0 0 .998-.404.328.328 0 0 1 .398.05l.343.332a.377.377 0 0 0 .528 0l.495-.485a.36.36 0 0 0 0-.517l-.344-.336a.311.311 0 0 1-.05-.386c.188-.308.325-.638.416-.978a.323.323 0 0 1 .314-.24h.484a.371.371 0 0 0 .373-.369v-.683a.371.371 0 0 0-.373-.369h-.484a.32.32 0 0 1-.314-.237 3.669 3.669 0 0 0-.416-.98.317.317 0 0 1 .05-.39l.344-.333a.36.36 0 0 0 0-.517l-.495-.485a.377.377 0 0 0-.528 0l-.343.336a.332.332 0 0 1-.398.046 4 4 0 0 0-.998-.404.323.323 0 0 1-.246-.311v-.471a.371.371 0 0 0-.372-.369h-.701a.373.373 0 0 0-.373.369v.47a.323.323 0 0 1-.245.312 4 4 0 0 0-.998.404.332.332 0 0 1-.398-.046l-.343-.336a.377.377 0 0 0-.528 0l-.491.485a.36.36 0 0 0 0 .517l.34.333a.317.317 0 0 1 .05.39 3.79 3.79 0 0 0-.416.98.32.32 0 0 1-.314.237h-.485a.373.373 0 0 0-.372.369v.683c0 .202.17.368.372.368h.485c.148 0 .278.1.314.241.09.34.232.67.416.978a.311.311 0 0 1-.05.386l-.34.336a.36.36 0 0 0 0 .517l.491.485a.377.377 0 0 0 .528 0l.343-.333a.331.331 0 0 1 .398-.05zm2.317 2.195h-.701a1.02 1.02 0 0 1-1.027-1.009v-.23a4.242 4.242 0 0 1-.697-.287l-.17.167c-.405.4-1.056.386-1.453 0l-.492-.486a.99.99 0 0 1 0-1.423l.166-.163a4.365 4.365 0 0 1-.289-.684h-.239a1.02 1.02 0 0 1-1.026-1.009v-.683c0-.556.463-1.006 1.026-1.006h.239c.076-.237.174-.468.29-.687l-.167-.163a.99.99 0 0 1 0-1.424l.492-.485a1.046 1.046 0 0 1 1.453 0l.17.163c.224-.113.459-.209.697-.283v-.23c0-.556.463-1.006 1.027-1.006h.701c.568 0 1.027.45 1.027 1.006v.23c.242.074.477.17.7.283l.167-.163a1.046 1.046 0 0 1 1.453 0l.496.485a.995.995 0 0 1 0 1.424l-.17.163c.115.22.213.45.292.687h.235c.568 0 1.027.45 1.027 1.006v.683c0 .556-.459 1.01-1.027 1.01H13.8c-.079.233-.177.463-.292.683l.17.163a.995.995 0 0 1 0 1.423l-.496.486a1.04 1.04 0 0 1-1.453 0l-.166-.167c-.224.117-.46.213-.701.287v.23c0 .556-.46 1.01-1.027 1.01z" stroke="#FFF" stroke-width=".5"/>
        <path d="M9.486 35.741c-.98 0-1.775.78-1.775 1.739 0 .956.795 1.735 1.775 1.735.98 0 1.771-.779 1.771-1.735 0-.96-.791-1.739-1.771-1.739m0 4.115c-1.341 0-2.426-1.066-2.426-2.376 0-1.31 1.085-2.38 2.426-2.38 1.337 0 2.425 1.07 2.425 2.38 0 1.31-1.088 2.376-2.425 2.376" fill="#FFF"/>
        <path d="M9.486 35.741c-.98 0-1.775.78-1.775 1.739 0 .956.795 1.735 1.775 1.735.98 0 1.771-.779 1.771-1.735 0-.96-.791-1.739-1.771-1.739zm0 4.115c-1.341 0-2.426-1.066-2.426-2.376 0-1.31 1.085-2.38 2.426-2.38 1.337 0 2.425 1.07 2.425 2.38 0 1.31-1.088 2.376-2.425 2.376z" stroke="#FFF" stroke-width=".5"/>
    </g>
</svg>
