<svg width="40" height="40" xmlns="http://www.w3.org/2000/svg" xmlns:xlink="http://www.w3.org/1999/xlink">
    <defs>
        <path id="a" d="M0 35h28.75V0H0z"/>
    </defs>
    <g transform="translate(2.5 3.75)" fill="none" fill-rule="evenodd">
        <path d="m18.348 10.76-2.891 17.862 10.603.096s2.214-.574 2.214-2.623V10.892l-9.926-.133z" fill="#FFAD00"/>
        <path d="m18.348 10.76-2.666 17.856h-3.406s-2.998 1.203-2.635-4.397V10.812l8.707-.053z" fill="#FF8B00"/>
        <path d="M25.795 26.153a.495.495 0 0 1-.492.493H22.66l.012.988h2.63a1.48 1.48 0 0 0 1.477-1.481V13.085h-.985v13.068z" fill="#000"/>
        <mask id="b" fill="#fff">
            <use xlink:href="#a"/>
        </mask>
        <path fill="#000" mask="url(#b)" d="M11.115 13.58h10.338v-.988H11.115zM22.168 27.14a.493.493 0 1 0 0 0M15.064 29.113a.493.493 0 1 0 .985.002.493.493 0 0 0-.985-.002M19.804 29.113a.493.493 0 1 0 .986.002.493.493 0 0 0-.986-.002M25.795 13.086a.493.493 0 1 0 .986.002.493.493 0 0 0-.986-.002"/>
        <path d="M20.88 13.086a.493.493 0 1 0 0 0M10.721 13.086c0 .271.222.493.493.493a.495.495 0 0 0 0-.987.495.495 0 0 0-.493.494" fill="#000" mask="url(#b)"/>
        <path d="M27.716 10.362h-1.031V3.947a.508.508 0 0 0-.517-.494c-.57 0-1.035-.441-1.035-.987a.505.505 0 0 0-.514-.494h-5.683a.508.508 0 0 0-.518.494c0 .546-.461.987-1.031.987a.506.506 0 0 0-.517.494v6.415h-1.032V.985h11.878v9.377zm-2.065 0h-1.084c-.253-1.28-1.426-2.21-2.79-2.21-1.367 0-2.537.93-2.789 2.21h-1.084V4.379a2.037 2.037 0 0 0 1.484-1.42h4.779c.187.695.757 1.238 1.484 1.42v5.983zm-5.598 0c.225-.732.927-1.234 1.724-1.234.798 0 1.5.502 1.721 1.234h-3.445zM28.231 0H14.804v10.362H7.575v16.282c0 1.636 1.388 2.963 3.097 2.963h4.942v-.988h-4.942c-1.14 0-2.066-.882-2.066-1.975V11.35h19.11v15.295c0 1.093-.926 1.975-2.065 1.975h-5.327v.988h5.327c1.711 0 3.097-1.327 3.097-2.963V.491c0-.272-.231-.49-.517-.49z" fill="#000" mask="url(#b)"/>
        <path stroke="#FFF" stroke-width=".741" stroke-linecap="round" mask="url(#b)" d="M7.207 24.604v5.134l2.102 2.441"/>
        <path d="M7.382 19.97c3.929-.106 7.202 3.085 7.313 7.124.107 4.04-2.99 7.402-6.919 7.507-3.928.105-7.2-3.082-7.309-7.124-.11-4.04 2.987-7.4 6.915-7.508" fill="#FF8B00" mask="url(#b)"/>
        <path d="M7.131 19.283c-2.521.067-4.68 1.299-6.065 3.196l.634.448c1.254-1.676 3.209-2.805 5.453-2.867 3.892-.105 7.146 2.987 7.25 6.887.105 3.907-2.977 7.165-6.871 7.27-3.091.083-5.758-1.864-6.786-4.62l-.708.322c1.173 2.996 4.125 5.171 7.515 5.079 4.323-.118 7.747-3.737 7.63-8.07-.117-4.335-3.729-7.763-8.052-7.645" fill="#000" mask="url(#b)"/>
        <path d="M1.786 22.674a.387.387 0 0 1-.379.398.389.389 0 1 1 .379-.398M.778 29.74a.39.39 0 1 1-.778.023.39.39 0 0 1 .778-.023" fill="#000" mask="url(#b)"/>
        <path stroke="#FFF" stroke-width=".741" stroke-linecap="round" mask="url(#b)" d="M7.071 23.073v5.135l2.103 2.44"/>
    </g>
</svg>
