<svg width="40" height="40" xmlns="http://www.w3.org/2000/svg" xmlns:xlink="http://www.w3.org/1999/xlink">
    <defs>
        <path id="a" d="M0 35h30V0H0z"/>
    </defs>
    <g fill="none" fill-rule="evenodd">
        <path fill="#FFF" d="m15.241 9.666 4.905 1.68L31.981 4.28z"/>
        <path fill="#FFA800" d="m18.568 10.893 1.579.454L31.98 4.279z"/>
        <path fill="#FFF" d="m20.176 11.522-.499 2.942 1.138-2.544 5.266 1.277 5.9-8.92z"/>
        <path fill="#FFA800" d="m25.204 12.778-4.65-.976-.876 2.663 1.136-2.545 5.574 1.352 5.593-8.994z"/>
        <g transform="translate(2.5 3.75)">
            <path stroke="#000" stroke-width=".839" stroke-linecap="round" stroke-linejoin="round" d="M29.482.529 17.644 7.596 12.12 5.885zM29.482.529l-5.385 9.043-5.78-1.404-1.138 2.544.495-2.938z"/>
            <path d="m18.284 10.594-2.873 17.984 10.538.097s2.2-.578 2.2-2.64V10.726l-9.865-.133z" fill="#FFAD00"/>
            <path d="m18.284 10.594-2.65 17.978h-3.383s-2.98 1.212-2.62-4.427V10.647l8.653-.053z" fill="#FF8B00"/>
            <path d="M25.685 26.092c0 .274-.22.497-.49.497h-2.624l.012.994h2.613a1.48 1.48 0 0 0 1.468-1.49V12.934h-.979v13.157z" fill="#000"/>
            <mask id="b" fill="#fff">
                <use xlink:href="#a"/>
            </mask>
            <path fill="#000" mask="url(#b)" d="M11.094 13.433h10.278v-.994H11.094zM25.685 12.936c0 .273.22.497.49.497s.49-.224.49-.497a.495.495 0 0 0-.49-.497c-.27 0-.49.224-.49.497"/>
            <path d="M20.8 12.936c0 .273.22.497.49.497.272 0 .49-.224.49-.497a.493.493 0 0 0-.49-.497c-.27 0-.49.224-.49.497M10.705 12.936c0 .273.22.497.49.497.272 0 .49-.224.49-.497a.493.493 0 0 0-.49-.497c-.27 0-.49.224-.49.497" fill="#000" mask="url(#b)"/>
            <path d="M27.595 10.193H7.578v16.394c0 1.647 1.38 2.983 3.079 2.983h4.91v-.994h-4.91c-1.133 0-2.054-.889-2.054-1.989v-15.4h18.992v15.4c0 1.1-.918 1.989-2.053 1.989h-5.293v.994h5.293c1.7 0 3.078-1.336 3.078-2.983V10.193h-1.025z" fill="#000" mask="url(#b)"/>
            <path d="M22.116 27.083c0 .27.217.49.487.49.266 0 .483-.22.483-.49s-.217-.491-.483-.491c-.27 0-.487.22-.487.49M19.806 29.073c0 .27.218.494.484.494.27 0 .483-.224.483-.494s-.214-.49-.483-.49a.488.488 0 0 0-.484.49M15.059 29.073c0 .27.217.494.483.494.27 0 .487-.224.487-.494s-.218-.49-.487-.49a.488.488 0 0 0-.483.49" fill="#000" mask="url(#b)"/>
            <path d="M7.336 19.867c3.905-.106 7.157 3.106 7.267 7.173.107 4.067-2.97 7.453-6.875 7.559-3.904.105-7.156-3.104-7.264-7.174-.107-4.066 2.968-7.45 6.872-7.558" fill="#FF8B00" mask="url(#b)"/>
            <path d="M7.087 19.175c-2.506.068-4.65 1.308-6.028 3.219l.63.45c1.246-1.687 3.189-2.824 5.42-2.886 3.867-.106 7.1 3.007 7.205 6.934.104 3.933-2.956 7.214-6.83 7.32-3.071.083-5.721-1.877-6.743-4.651l-.704.323c1.166 3.016 4.1 5.207 7.469 5.114 4.296-.119 7.698-3.763 7.582-8.124-.113-4.365-3.705-7.817-8.001-7.699" fill="#000" mask="url(#b)"/>
            <path d="M1.774 22.59A.387.387 0 1 1 1 22.61a.392.392 0 0 1 .377-.403.39.39 0 0 1 .397.382M.773 29.704a.39.39 0 0 1-.376.404.394.394 0 0 1-.021-.786.391.391 0 0 1 .397.382" fill="#000" mask="url(#b)"/>
            <path stroke="#FFF" stroke-width=".741" stroke-linecap="round" mask="url(#b)" d="M7.027 22.992v5.17l2.09 2.457"/>
        </g>
    </g>
</svg>
