
<svg width="40" height="40" xmlns="http://www.w3.org/2000/svg" xmlns:xlink="http://www.w3.org/1999/xlink">
    <defs>
        <path id="a" d="M0 33.75h31.25V0H0z"/>
    </defs>
    <g transform="translate(1.25 3.75)" fill="none" fill-rule="evenodd">
        <path d="m12.786 10.367.015-5.106s1.06-.642 1.434 1.565l.123 3.541h-1.572z" fill="#FF8B00"/>
        <path d="M21.157 10.315 18.35 27.44l10.293.092s2.148-.55 2.148-2.515V10.442l-9.635-.127z" fill="#FFAD00"/>
        <path d="m21.157 10.315-2.584 17.119h-3.308s-2.91 1.154-2.557-4.215V10.365l8.449-.05z" fill="#FF8B00"/>
        <path d="M28.385 25.073c0 .26-.215.473-.478.473h-2.563l.009.947h2.554c.792 0 1.434-.636 1.434-1.42V12.545h-.956v12.528z" fill="#000"/>
        <mask id="b" fill="#fff">
            <use xlink:href="#a"/>
        </mask>
        <path fill="#000" mask="url(#b)" d="M14.137 13.019H24.17v-.947H14.137zM24.865 26.019a.477.477 0 0 0 .956 0 .477.477 0 0 0-.956 0"/>
        <path d="M30.25 9.934h-1.002v-6.15c0-.26-.227-.474-.502-.474-.552 0-1.003-.423-1.003-.946 0-.26-.224-.474-.502-.474h-5.512c-.275 0-.502.213-.502.474 0 .523-.448.946-1.001.946-.278 0-.502.213-.502.474v6.15h-1V.944h11.525v8.99zm-2.005 0h-1.052c-.245-1.228-1.383-2.118-2.707-2.118-1.326 0-2.462.89-2.707 2.118h-1.054V4.198c.708-.175 1.258-.696 1.443-1.361h4.636c.183.665.735 1.186 1.44 1.36v5.737zm-5.432 0c.215-.701.9-1.184 1.673-1.184.774 0 1.455.483 1.67 1.184h-3.343zm-6.095 0h1.001V.944h-1v8.99zm-2.004 0h1V.944h-1v8.99zM13.71 7.097h-2.005V6.62c0-.52.448-.943 1.004-.943.553 0 1.001.423 1.001.943v.477zm-2.005 2.837h2.005V8.04h-2.005v1.894zM30.748 0H14.212c-.275 0-.502.21-.502.473v4.52a2.061 2.061 0 0 0-1-.263c-1.11 0-2.006.846-2.006 1.89v.477H9.202c-.278 0-.502.21-.502.47v3.313c0 .074.018.145.05.213l.341.64-.747.703.708.672 1.004-.947a.456.456 0 0 0 .096-.547l-.448-.846V8.04h1v17.507c0 1.568 1.348 2.837 3.006 2.837h4.795v-.947H13.71c-1.105 0-2.005-.846-2.005-1.89V10.88H30.25v14.667c0 1.044-.9 1.89-2.004 1.89h-5.169v.947h5.169c1.658 0 3.005-1.27 3.005-2.837V.473A.487.487 0 0 0 30.748 0z" fill="#000" mask="url(#b)"/>
        <path d="M17.972 27.911c0 .26.215.473.478.473a.475.475 0 0 0 .478-.473.475.475 0 0 0-.478-.473.477.477 0 0 0-.478.473M22.572 27.911c0 .26.212.473.478.473a.477.477 0 0 0 .478-.473.477.477 0 0 0-.478-.473.475.475 0 0 0-.478.473M28.385 12.545c0 .26.212.473.478.473a.477.477 0 0 0 .478-.473.477.477 0 0 0-.478-.473.475.475 0 0 0-.478.473M23.615 12.545a.477.477 0 0 0 .956 0 .477.477 0 0 0-.956 0M13.758 12.545c0 .26.212.473.478.473a.477.477 0 0 0 .478-.473.477.477 0 0 0-.478-.473.475.475 0 0 0-.478.473" fill="#000" mask="url(#b)"/>
        <path d="M7.417 19.344c3.812 0 6.904 3.142 6.904 7.017 0 3.875-3.092 7.014-6.904 7.014S.512 30.236.512 26.36c0-3.875 3.093-7.017 6.905-7.017" fill="#FF8B00" mask="url(#b)"/>
        <path d="M7.19 18.678a7.5 7.5 0 0 0-5.966 2.905l.607.447c1.255-1.574 3.182-2.603 5.36-2.603 3.779 0 6.853 3.044 6.853 6.786 0 3.745-3.074 6.789-6.854 6.789-3.002 0-5.535-1.935-6.462-4.6l-.696.284C1.09 31.59 3.898 33.75 7.19 33.75c4.195 0 7.613-3.38 7.613-7.537 0-4.153-3.418-7.535-7.613-7.535" fill="#000" mask="url(#b)"/>
        <path d="M1.917 21.79c0 .207-.17.372-.377.372a.376.376 0 0 1-.379-.373c0-.207.17-.372.38-.372.206 0 .376.165.376.372M.756 28.536c0 .208-.17.373-.377.373A.376.376 0 0 1 0 28.536c0-.207.17-.372.38-.372.206 0 .376.165.376.372" fill="#000" mask="url(#b)"/>
        <path d="M6.725 22.658s-1.963.5-2.459 2.405" stroke="#FFF" stroke-width=".72" stroke-linecap="round" mask="url(#b)"/>
        <path stroke="#FFF" stroke-width=".72" stroke-linecap="round" stroke-linejoin="round" mask="url(#b)" d="m3.478 24.486.693.829 1.183-.468"/>
        <path d="M3.88 27.108s.534 1.935 2.464 2.402" stroke="#FFF" stroke-width=".72" stroke-linecap="round" mask="url(#b)"/>
        <path stroke="#FFF" stroke-width=".72" stroke-linecap="round" stroke-linejoin="round" mask="url(#b)" d="m5.773 30.296.827-.698-.493-1.166"/>
        <path d="M8.11 29.854s1.962-.5 2.458-2.405" stroke="#FFF" stroke-width=".72" stroke-linecap="round" mask="url(#b)"/>
        <path stroke="#FFF" stroke-width=".72" stroke-linecap="round" stroke-linejoin="round" mask="url(#b)" d="m11.357 28.025-.693-.828-1.184.47"/>
        <path d="M11.04 25.321s-.535-1.934-2.465-2.402" stroke="#FFF" stroke-width=".72" stroke-linecap="round" mask="url(#b)"/>
        <path stroke="#FFF" stroke-width=".72" stroke-linecap="round" stroke-linejoin="round" mask="url(#b)" d="m9.147 22.132-.828.698.493 1.166"/>
    </g>
</svg>
