<svg width="40" height="40" xmlns="http://www.w3.org/2000/svg" xmlns:xlink="http://www.w3.org/1999/xlink">
    <defs>
        <path id="a" d="M0 0h14.891v15.309H0z"/>
        <path id="c" d="M.07 0h2.886v3.005H.07z"/>
        <path id="e" d="M.565 0h1.897v3.005H.565z"/>
    </defs>
    <g fill="none" fill-rule="evenodd">
        <path fill="#FFAD00" d="M31.205 10.228h7.258V5.171h-7.258z"/>
        <path d="M11.038 20.932c0 6.488 5.13 11.746 11.46 11.746 6.328 0 11.459-5.258 11.459-11.746 0-6.484-5.13-11.743-11.46-11.743-6.329 0-11.459 5.259-11.459 11.743" fill="#FF8B00"/>
        <path d="m23.657 9.248-6.087 22.29s4.912 3.233 12.3-1.335c0 0 5.612-4.645 4.087-12.734 0 0-1.61-7.23-10.3-8.221" fill="#FFAD00"/>
        <path d="m22.078 8.639.194 8.638s3.275.592 3.66 3.213l8.453.138s-.073-5.802-4.734-9.213c0 0-3.272-2.734-7.573-2.776" fill="#FFF"/>
        <path d="M18.023 21.133c0 2.17 1.77 3.928 3.956 3.928 2.182 0 3.953-1.758 3.953-3.928s-1.77-3.927-3.953-3.927c-2.185 0-3.956 1.758-3.956 3.927" fill="#FFF"/>
        <path d="M25.932 21.133c0 2.17-1.77 3.928-3.956 3.928-2.182 0-3.953-1.758-3.953-3.928s1.771-3.927 3.953-3.927c2.186 0 3.956 1.758 3.956 3.927z" stroke="#000" stroke-width=".72" stroke-linecap="round"/>
        <path d="M22.08 8.33c-6.998 0-12.692 5.653-12.692 12.6 0 6.025 4.29 11.064 9.995 12.296l.106-.824c-5.249-1.22-9.29-5.895-9.29-11.472 0-6.503 5.33-11.794 11.88-11.794 6.55 0 11.878 5.291 11.878 11.794 0 5.412-3.847 9.96-8.863 11.34l.13.817c5.473-1.4 9.544-6.295 9.544-12.157 0-6.947-5.69-12.6-12.688-12.6" fill="#000"/>
        <path d="M19.855 32.815a.414.414 0 0 1-.826 0c0-.228.185-.412.412-.412.23 0 .414.184.414.412M25.573 32.677a.414.414 0 0 1-.829 0 .414.414 0 0 1 .83 0" fill="#000"/>
        <path stroke="#000" stroke-width=".72" d="m12.667 12.557 6.586 5.731M22.078 17.207V8.331M34.589 20.629h-8.657"/>
        <path stroke="#000" stroke-width=".72" stroke-linecap="round" d="m28.771 14.195 2.198-1.935V8.639"/>
        <path d="M37.694 5H32.1s-1.132-.009-1.132 1.295v2.858s-.015 1.334.996 1.334l5.73.078s1.056.018 1.056-1.163V6.2S38.702 5 37.694 5zM32.69 7.782h4.158" stroke="#000" stroke-width=".72" stroke-linecap="round" stroke-linejoin="round"/>
        <path d="M7.822 22.863c3.862-.102 7.08 3.002 7.189 6.938.106 3.934-2.94 7.206-6.801 7.311-3.863.102-7.08-3.002-7.186-6.938-.106-3.933 2.936-7.206 6.798-7.31" fill="#FF8B00"/>
        <g transform="translate(.602 22.191)">
            <mask id="b" fill="#fff">
                <use xlink:href="#a"/>
            </mask>
            <path d="M6.974.003A7.585 7.585 0 0 0 1.01 3.116l.623.436C2.866 1.917 4.788.82 6.994.76c3.827-.102 7.026 2.909 7.129 6.707.103 3.804-2.924 6.977-6.753 7.08-3.042.08-5.663-1.816-6.67-4.499l-.7.313c1.153 2.917 4.056 5.036 7.388 4.945 4.25-.114 7.616-3.641 7.5-7.857-.111-4.222-3.665-7.56-7.914-7.446" fill="#000" mask="url(#b)"/>
        </g>
        <g transform="translate(.494 24.003)">
            <mask id="d" fill="#fff">
                <use xlink:href="#c"/>
            </mask>
            <path d="M1.826 1.492a.38.38 0 0 1-.373.39.381.381 0 0 1-.393-.37.383.383 0 0 1 .766-.02" fill="#000" mask="url(#d)"/>
        </g>
        <g transform="translate(0 30.886)">
            <mask id="f" fill="#fff">
                <use xlink:href="#e"/>
            </mask>
            <path d="M1.33 1.492a.38.38 0 0 1-.372.39.377.377 0 0 1-.39-.37.381.381 0 0 1 .763-.021" fill="#000" mask="url(#f)"/>
        </g>
        <path d="M7.213 26.247s-1.973.561-2.424 2.509" stroke="#FFF" stroke-width=".72" stroke-linecap="round"/>
        <path stroke="#FFF" stroke-width=".72" stroke-linecap="round" stroke-linejoin="round" d="m3.975 28.192.727.823 1.183-.51"/>
        <path d="M4.454 30.843s.593 1.95 2.564 2.371" stroke="#FFF" stroke-width=".72" stroke-linecap="round"/>
        <path stroke="#FFF" stroke-width=".72" stroke-linecap="round" stroke-linejoin="round" d="m6.46 34.029.82-.734-.533-1.169"/>
        <path d="M8.814 33.516s1.973-.561 2.424-2.509" stroke="#FFF" stroke-width=".72" stroke-linecap="round"/>
        <path stroke="#FFF" stroke-width=".72" stroke-linecap="round" stroke-linejoin="round" d="m12.052 31.571-.726-.82-1.184.508"/>
        <path d="M11.657 28.833s-.593-1.95-2.563-2.37" stroke="#FFF" stroke-width=".72" stroke-linecap="round"/>
        <path stroke="#FFF" stroke-width=".72" stroke-linecap="round" stroke-linejoin="round" d="m9.65 25.648-.817.733.53 1.17"/>
    </g>
</svg>
