<?xml version="1.0" encoding="UTF-8"?>
<svg width="24px" height="24px" viewBox="0 0 24 24" version="1.1" xmlns="http://www.w3.org/2000/svg" xmlns:xlink="http://www.w3.org/1999/xlink">
    <title>Pocket / Addons / Twotone / Income Target</title>
    <g id="Pocket-/-Addons-/-Twotone-/-Income-Target" stroke="none" stroke-width="1" fill="none" fill-rule="evenodd">
        <g id="Income-Target-2" transform="translate(2.290000, 1.000000)">
            <path d="M10.9362736,22 C10.6027419,22.0029009 10.3136922,21.7696094 10.246202,21.4430172 L9.22356575,16.796179 C9.15105666,16.4189165 9.38971636,16.0518072 9.76398326,15.9649021 C10.1422026,15.8877584 10.5123588,16.1283211 10.5953948,16.5052321 L11.618031,21.1354447 C11.6905401,21.5127072 11.4518804,21.8798165 11.0776135,21.9667217 L10.9362736,22 Z" id="Path" fill="#FFAD00" fill-rule="nonzero"></path>
            <path d="M4.75888569,21.9999727 L4.60091749,21.9999727 C4.22665059,21.9130676 3.98799089,21.5459583 4.06049998,21.1686958 L5.0831362,16.5218576 C5.11393388,16.2501952 5.29699887,16.0198852 5.55473503,15.9285494 C5.81247119,15.8372137 6.09973746,15.9008492 6.29476969,16.0924826 C6.48980191,16.2841161 6.55844129,16.570184 6.4715935,16.8294301 L5.44895728,21.4430172 C5.37856584,21.7678305 5.09129014,21.9996902 4.75888569,21.9999727 Z" id="Path" fill="#FFAD00" fill-rule="nonzero"></path>
            <rect id="Rectangle" fill="#FF8A00" fill-rule="nonzero" x="7.16166509" y="14.7844888" width="1.41339965" height="6.17638776" rx="0.706699824"></rect>
            <path d="M9.71362924,15.6982047 C9.19593507,15.8183195 8.86639365,16.3252243 8.96714301,16.84942 L9.9912962,21.5036188 C10.0844426,21.9544782 10.4824749,22.2757405 10.9384617,22.2718109 L11.135385,22.2317897 C11.6456617,22.1133042 11.9752031,21.6063995 11.8744538,21.0822037 L10.850287,16.4445689 C10.7352765,15.9225213 10.2285222,15.5931844 9.71362924,15.6982047 Z M9.8209959,16.2301475 C10.0558829,16.1823325 10.2894412,16.3341208 10.3405346,16.5660404 L11.3631708,21.196253 C11.4058771,21.419015 11.2580991,21.6463289 11.0206009,21.7014762 L10.8785021,21.734932 C10.722999,21.7300614 10.5429398,21.5847309 10.5018604,21.3859435 L9.47847152,16.7355774 C9.43571967,16.5126088 9.58349765,16.2852948 9.8209959,16.2301475 Z" id="Path" fill="#000000" fill-rule="nonzero"></path>
            <path d="M5.47034949,15.6713065 C5.11829759,15.7960656 4.86615784,16.1132771 4.82344369,16.4900531 L3.80559421,21.1080942 C3.70332788,21.6396505 4.0328693,22.1465553 4.54390486,22.2652182 L4.75888569,22.2717568 C5.21212962,22.2713716 5.60645281,21.9531141 5.70405516,21.5027391 L6.72640764,16.8904465 C6.83941983,16.5579698 6.74387091,16.1597512 6.47440561,15.8949818 C6.20852874,15.6337383 5.81952675,15.5475661 5.47034949,15.6713065 Z M6.11513377,16.2899835 C6.23573292,16.408481 6.27746275,16.5823982 6.22464582,16.74006 L5.19414314,21.3820008 C5.15067888,21.5825469 4.97045066,21.7280088 4.75867183,21.7281888 L4.60091749,21.7281888 C4.42043188,21.67958 4.2726539,21.452266 4.31692272,21.2219368 L5.33804196,16.5824592 C5.36170992,16.3871134 5.47570016,16.2437047 5.63912057,16.1857923 C5.77769978,16.136683 5.92963698,16.1570391 6.04830111,16.235804 L6.11513377,16.2899835 Z" id="Path" fill="#000000" fill-rule="nonzero"></path>
            <path d="M7.88361364,14.5127047 L7.85311618,14.5127047 C7.32682185,14.5127047 6.900176,14.9561479 6.900176,15.5031627 L6.900176,20.2422027 C6.900176,20.7892175 7.32682185,21.2326606 7.85311618,21.2326606 L7.88361364,21.2326606 C8.40990798,21.2326606 8.83655383,20.7892175 8.83655383,20.2422027 L8.83655383,15.5031627 C8.83655383,14.9561479 8.40990798,14.5127047 7.88361364,14.5127047 Z M7.85311618,15.0562728 L7.88361364,15.0562728 C8.1210751,15.0562728 8.31357564,15.2563522 8.31357564,15.5031627 L8.31357564,20.2422027 C8.31357564,20.4890131 8.1210751,20.6890925 7.88361364,20.6890925 L7.85311618,20.6890925 C7.61565473,20.6890925 7.42315418,20.4890131 7.42315418,20.2422027 L7.42315418,15.5031627 C7.42315418,15.2563522 7.61565473,15.0562728 7.85311618,15.0562728 Z" id="Rectangle" fill="#000000" fill-rule="nonzero"></path>
            <ellipse id="Oval" fill="#FFAD00" fill-rule="nonzero" cx="7.94319195" cy="9.31468643" rx="7.27485113" ry="7.27367334"></ellipse>
            <path d="M7.86836491,16.99569 C4.76043336,16.9990485 1.95665823,15.1297669 0.764972945,12.2598421 C-0.426712338,9.38991727 0.228493953,6.0848201 2.42494455,3.88634581 C4.62139514,1.68787151 7.92631606,1.0291928 10.7979943,2.2175768 C13.6696725,3.40596079 15.5422936,6.20725623 15.5422936,9.31468643 C15.5422936,13.5535409 12.1079032,16.991098 7.86836491,16.99569 Z M7.86783758,2.81 C5.23746404,2.80687189 2.86449664,4.38911716 1.85644836,6.81827386 C0.848400067,9.24743056 1.40401181,12.0445803 3.26396809,13.9042355 C5.12392438,15.7638906 7.92152706,16.3194124 10.3510771,15.3115273 C12.7806271,14.3036423 14.3631286,11.931059 14.36,9.30111135 C14.3557264,5.71794155 11.4515876,2.81427287 7.86783758,2.81 L7.86783758,2.81 Z" id="Shape" fill="#FF8A00" fill-rule="nonzero"></path>
            <ellipse id="Oval" fill="#A605AD" fill-rule="nonzero" cx="7.86836491" cy="9.31468643" rx="5.57877155" ry="5.57786836"></ellipse>
            <ellipse id="Oval" fill="#FFAD00" fill-rule="nonzero" cx="7.89330726" cy="9.30637366" rx="4.62264826" ry="4.62189986"></ellipse>
            <path d="M16.2672332,2.97340229 C16.3629678,2.87386454 16.5181843,2.87386454 16.6139189,2.97340229 C16.6959771,3.05872036 16.7076997,3.18947544 16.6490867,3.28777552 L16.6139189,3.33386036 L9.67811935,9.73544031 C9.58238473,9.83497806 9.42716825,9.83497806 9.33143363,9.73544031 C9.24937539,9.65012224 9.23765278,9.51936715 9.29626581,9.42106708 L9.33143363,9.37498224 L16.2672332,2.97340229 Z" id="Stroke-55" fill="#000000" fill-rule="nonzero"></path>
            <polygon id="Fill-57" fill="#A605AD" points="17.8621804 1.62006346 17.4244278 0.255232861 14.4813747 3.31520099 14.9191273 4.68003159 16.232385 5.13517422 19.1748637 2.07520609"></polygon>
            <path d="M17.2509701,0.0747649057 C17.3669351,-0.0458069117 17.5562459,-0.0142576495 17.6349724,0.124281081 L17.6568666,0.174361322 L18.0558252,1.41768585 L19.2523006,1.83317513 C19.4078511,1.88710869 19.4653628,2.0772299 19.3814204,2.21238945 L19.3481411,2.25514481 L18.3410803,3.30280909 C18.245373,3.40237521 18.0901565,3.40242123 17.9943946,3.30291187 C17.912313,3.21761813 17.9005545,3.08686653 17.9591406,2.98854908 L17.9942958,2.94245381 L18.7206553,2.18573132 L17.7845137,1.86161658 C17.7259725,1.84131878 17.6775139,1.79904885 17.6479778,1.74399806 L17.6295118,1.70045716 L17.3171252,0.726444925 L14.7617459,3.3833385 L15.1127919,4.47763338 L16.3097914,4.89313267 C16.4221777,4.93208298 16.4893718,5.04746588 16.4757324,5.16516699 L16.464834,5.21553617 C16.4273719,5.33238709 16.3163975,5.40225051 16.2031935,5.38806924 L16.1547489,5.37673792 L14.8414911,4.92159529 C14.7829388,4.9013025 14.7344695,4.85902994 14.7049279,4.80397217 L14.6864587,4.76042529 L14.2487061,3.39559469 C14.2252036,3.32231828 14.235174,3.24302818 14.2737231,3.17928678 L14.3079169,3.13473303 L17.2509701,0.0747649057 Z" id="Stroke-59" fill="#000000" fill-rule="nonzero"></path>
            <path d="M6.67113227,7.46925159 C6.83026214,7.46638605 6.98841979,7.49462392 7.13672274,7.55237929 C7.26832817,7.60527307 7.3894053,7.68128594 7.49422971,7.77682407 C7.59794372,7.86870611 7.6802461,7.98220826 7.73533906,8.10933485 C7.78831078,8.23580177 7.8165342,8.37125223 7.81848022,8.50834779 C7.82466036,8.66941791 7.79035848,8.82946744 7.71871083,8.97386288 C7.66460292,9.087891 7.59150659,9.19189587 7.50254383,9.28143535 C7.40752741,9.369774 7.30130462,9.44523587 7.18660744,9.50588013 L7.91824961,10.7527956 L7.08683805,10.7527956 L6.48822173,9.65550998 L6.0974583,9.65550998 L6.0974583,10.7527956 L5.34087378,10.7527956 L5.34087378,7.42768775 L6.67113227,7.46925159 Z M6.67113227,8.93229903 C6.78359453,8.93609432 6.89338195,8.89752661 6.97875455,8.82423303 C7.05088575,8.75837371 7.09041036,8.66413799 7.08683805,8.56653717 C7.09063038,8.46647328 7.05126844,8.36959805 6.97875455,8.30052855 C6.89256446,8.22949768 6.78261176,8.19384312 6.67113227,8.20077531 L6.0974583,8.20077531 L6.0974583,8.93229903 L6.67113227,8.93229903 Z" id="Shape" fill="#000000" fill-rule="nonzero"></path>
            <path d="M9.56444449,8.33377963 C9.71101315,8.3304611 9.85629455,8.36179123 9.98846438,8.42522009 C10.1235672,8.48279303 10.2452894,8.56770173 10.3459714,8.67460318 C10.4498124,8.79040603 10.5340603,8.92237306 10.5953948,9.06530335 C10.7171178,9.38094728 10.7171178,9.73056622 10.5953948,10.0462102 C10.5320303,10.1880568 10.4479746,10.3197227 10.3459714,10.4369103 C10.2452894,10.5438118 10.1235672,10.6287205 9.98846438,10.6862934 C9.85629455,10.7497223 9.71101315,10.7810524 9.56444449,10.7777339 C9.48177634,10.790274 9.39768917,10.790274 9.31502102,10.7777339 C9.24880791,10.763438 9.18459033,10.7411051 9.12379636,10.7112317 C9.06677698,10.6820414 9.01369625,10.6457289 8.96582817,10.6031657 L8.96582817,11.6173236 L8.29238481,11.6173236 L8.29238481,8.35871794 L8.81617409,8.35871794 L8.91594347,8.59147548 C8.97189281,8.54061977 9.03322609,8.49602098 9.09885402,8.45847117 C9.16767045,8.4229816 9.24015526,8.39510734 9.31502102,8.37534347 C9.39520186,8.34744175 9.47954708,8.33338649 9.56444449,8.33377963 L9.56444449,8.33377963 Z M9.98015027,9.55575675 C9.98684762,9.40292843 9.93308435,9.25361018 9.83049619,9.14011827 C9.73511931,9.03497096 9.59824621,8.97718945 9.45636099,8.98217565 C9.31734973,8.97963267 9.18400537,9.03720386 9.0905399,9.14011827 C8.98493115,9.25229449 8.92812299,9.40176546 8.93257171,9.55575675 C8.92989382,9.70944411 8.98645697,9.8582704 9.0905399,9.97139522 C9.18762055,10.0714479 9.32109629,10.1279149 9.46051804,10.1279149 C9.5999398,10.1279149 9.73341554,10.0714479 9.83049619,9.97139522 C9.9233468,9.85370965 9.96793386,9.70511016 9.95520792,9.55575675 L9.98015027,9.55575675 Z" id="Shape" fill="#000000" fill-rule="nonzero"></path>
            <path d="M5.43929441,1.83024274 C8.51373084,0.810291485 11.8996413,1.76309182 13.9927638,4.23907197 C14.088087,4.35183096 14.077415,4.52355725 13.9689272,4.62263338 C13.8604395,4.72170951 13.695218,4.71061736 13.5998948,4.59785838 C11.6448076,2.28516176 8.47590244,1.39342705 5.59831744,2.3480724 C2.72375309,3.30171564 0.72095184,5.90493574 0.536795501,8.92113373 C0.352682321,11.9366248 2.02312218,14.7627624 4.75301636,16.0555657 C5.07528763,16.1978169 5.40649721,16.3189715 5.74492634,16.4183701 C7.47818295,16.9303829 9.33863375,16.7960864 10.9783346,16.0413889 C11.3684097,15.8583567 11.7424693,15.6431055 12.0963405,15.39808 C15.0505872,13.346937 16.1044961,9.47647526 14.5998128,6.21516199 C14.5373683,6.07981701 14.5923096,5.91748392 14.7225279,5.85258087 C14.8527461,5.78767782 15.0089301,5.84478228 15.0713747,5.98012725 C16.6894242,9.48715541 15.5559723,13.6497374 12.3865654,15.8502666 C12.008638,16.1119492 11.6095702,16.3415913 11.1918071,16.5376077 C9.43857295,17.3445688 7.45261217,17.4879252 5.6023314,16.9413426 C5.24312161,16.8358409 4.89113192,16.7070851 4.54238954,16.5530505 C1.61088356,15.1648769 -0.183134017,12.1296641 0.0148671939,8.88670837 C0.212825246,5.64445952 2.36183733,2.85119611 5.43929441,1.83024274 Z" id="Path" fill="#000000" fill-rule="nonzero"></path>
        </g>
    </g>
</svg>