<svg width="32" height="32" viewBox="0 0 32 32" fill="none" xmlns="http://www.w3.org/2000/svg">
<path fill-rule="evenodd" clip-rule="evenodd" d="M18.8715 18.5157L15.8528 21.4194C13.1816 23.9702 10.7078 21.3207 10.7078 21.3207C8.54907 19.2636 10.8608 16.4841 10.8608 16.4841L13.9535 13.4731L11.9194 11.3876L9.1734 14.0652C4.52798 19.063 8.5223 23.3159 8.6942 23.4944L8.72653 23.5263C9.6926 24.4378 10.713 25.0392 11.7774 25.3244C12.3224 25.4704 12.8787 25.5333 13.4444 25.5115C16.1735 25.4113 18.0252 23.4007 18.0796 23.3379L20.8976 20.5935L18.8715 18.5157Z" fill="#FFAC00"/>
<path fill-rule="evenodd" clip-rule="evenodd" d="M13.9124 13.5191L16.925 10.6092C19.5901 8.05243 22.0696 10.6968 22.0696 10.6968C24.2325 12.7506 21.9261 15.5349 21.9261 15.5349L18.8406 18.5522L20.8771 20.6329L23.619 17.9498C28.2545 12.9438 24.2508 8.69722 24.0786 8.51967L24.0463 8.48782C23.0786 7.57811 22.0563 6.97952 20.9925 6.69667C20.4485 6.55091 19.8906 6.48977 19.3249 6.51157C16.5965 6.61755 14.748 8.63232 14.6937 8.69506L11.8807 11.4452L13.9124 13.5191Z" fill="#FFAC00"/>
<path fill-rule="evenodd" clip-rule="evenodd" d="M11.9253 10.9161L14.425 13.479L11.1076 16.7088L11.0973 16.7216C11.0829 16.74 11.0612 16.7681 11.0339 16.8051C10.9792 16.8793 10.9023 16.9889 10.8159 17.127C10.6423 17.4046 10.435 17.7912 10.2918 18.2334C10.0073 19.1126 9.98325 20.1698 10.9377 21.0792L10.9447 21.0859L10.9509 21.0926L10.9547 21.0966L10.9719 21.114C10.9878 21.13 11.0126 21.1542 11.0457 21.1848C11.1119 21.2461 11.2108 21.3326 11.338 21.4295C11.5937 21.6243 11.9565 21.8559 12.3916 22.0129C12.8251 22.1692 13.3245 22.2496 13.8623 22.152C14.3979 22.0547 14.9956 21.7766 15.6219 21.1787C15.6221 21.1785 15.6217 21.1788 15.6219 21.1787L18.8789 18.0457L21.369 20.5994L18.32 23.5688C18.2311 23.6666 17.741 24.1775 16.9456 24.6906C16.1032 25.234 14.8999 25.7914 13.4565 25.8445C12.8574 25.8675 12.268 25.8008 11.691 25.6461C10.5634 25.344 9.49571 24.7102 8.49766 23.7685L8.4924 23.7636L8.45386 23.7255C8.35215 23.6198 7.26475 22.4618 6.80434 20.6698C6.33717 18.8514 6.52787 16.4215 8.92914 13.838L8.9403 13.826L11.9253 10.9161ZM10.4718 21.5562C9.27357 20.4098 9.32641 19.0514 9.65755 18.0282C9.82252 17.5184 10.0582 17.0814 10.2506 16.7736C10.3472 16.6191 10.434 16.4954 10.4973 16.4095C10.529 16.3665 10.5549 16.3329 10.5733 16.3095L10.5951 16.2822L10.6014 16.2744L10.6033 16.2721L10.6043 16.271C10.6044 16.2708 10.6045 16.2707 10.8607 16.4839L10.6043 16.271L10.6157 16.2573L13.4818 13.4668L11.9134 11.8587L9.41191 14.2979C7.17307 16.7099 7.03877 18.9031 7.45004 20.5039C7.86354 22.1134 8.84093 23.1654 8.93141 23.2601L8.95777 23.2861C9.89107 24.166 10.8634 24.7342 11.8635 25.0022C12.3764 25.1396 12.8993 25.1988 13.4315 25.1783C14.7171 25.131 15.8049 24.633 16.5842 24.1304C16.9728 23.8797 17.2811 23.6303 17.4947 23.4405C17.6014 23.3458 17.684 23.2662 17.7409 23.2094C17.7993 23.151 17.828 23.1189 17.8275 23.1195L17.8368 23.1088L20.426 20.5873L18.8638 18.9852L16.0837 21.6595C15.3747 22.3365 14.6607 22.6845 13.9814 22.8079C13.3041 22.9309 12.6842 22.8271 12.1654 22.64C11.6481 22.4534 11.2256 22.182 10.9339 21.9598C10.7875 21.8482 10.6722 21.7476 10.5927 21.674C10.5529 21.6371 10.522 21.6069 10.5004 21.5853L10.475 21.5595L10.4718 21.5562Z" fill="black"/>
<path fill-rule="evenodd" clip-rule="evenodd" d="M21.0788 6.37461C22.2055 6.67431 23.275 7.30507 24.2746 8.24487L24.2803 8.25024L24.318 8.28747C24.4204 8.39303 25.5102 9.5491 25.9744 11.3403C26.4454 13.158 26.2598 15.5885 23.8637 18.1762L23.8525 18.1882L20.872 21.1041L18.3691 18.547L21.6789 15.3104L21.6891 15.2975C21.7035 15.2792 21.7251 15.251 21.7523 15.2139C21.8069 15.1396 21.8836 15.0299 21.9697 14.8916C22.1428 14.6136 22.3494 14.2266 22.4916 13.784C22.7745 12.9041 22.7964 11.8465 21.8401 10.9385L21.8331 10.9318L21.8269 10.9252L21.8231 10.9212L21.8059 10.9038C21.7899 10.8879 21.7651 10.8637 21.7319 10.8332C21.6656 10.772 21.5665 10.6857 21.4391 10.5891C21.183 10.3948 20.8197 10.164 20.3843 10.0079C19.9505 9.85249 19.451 9.7732 18.9135 9.87202C18.3781 9.97045 17.7811 10.2498 17.1562 10.8493C17.156 10.8494 17.1563 10.8492 17.1562 10.8493L13.9059 13.9887L11.4091 11.4401L14.4528 8.46431C14.5404 8.36767 15.0298 7.8551 15.8253 7.33969C16.6668 6.79451 17.8689 6.23445 19.312 6.1784C19.9105 6.15534 20.5019 6.22002 21.0788 6.37461ZM21.0788 6.37461C21.079 6.37467 21.0786 6.37456 21.0788 6.37461ZM22.305 10.4606C23.5056 11.6052 23.4555 12.9639 23.1263 13.988C22.9624 14.4981 22.7276 14.9356 22.5357 15.2438C22.4394 15.3986 22.3529 15.5225 22.2897 15.6085C22.2581 15.6515 22.2323 15.6852 22.2139 15.7086L22.1922 15.736L22.1859 15.7438L22.184 15.7462L22.183 15.7473C22.1829 15.7474 22.1828 15.7475 21.9261 15.5349L22.183 15.7473L22.1717 15.761L19.3121 18.5573L20.8822 20.1614L23.38 17.7172C25.614 15.3013 25.7437 13.1078 25.3291 11.5076C24.9115 9.8963 23.9295 8.84527 23.8418 8.75416L23.8152 8.72794C22.8806 7.85001 21.9066 7.28452 20.9069 7.01873C20.3958 6.88178 19.8707 6.82403 19.3378 6.84456C18.0525 6.89452 16.9663 7.39482 16.1878 7.89919C15.7996 8.15069 15.4917 8.40082 15.2785 8.59102C15.1719 8.68602 15.0894 8.76574 15.0326 8.82274C14.9764 8.8791 14.9475 8.91118 14.9457 8.91315L14.9366 8.92367L12.3524 11.4502L13.9189 13.0493L16.6934 10.3694C17.4008 9.69072 18.1139 9.34118 18.7929 9.21635C19.4699 9.09189 20.09 9.1943 20.6092 9.38034C21.1268 9.56583 21.5499 9.83631 21.842 10.0579C21.9887 10.1693 22.1042 10.2696 22.1838 10.343C22.2237 10.3798 22.2548 10.41 22.2764 10.4315L22.3018 10.4573L22.305 10.4606Z" fill="black"/>
<path fill-rule="evenodd" clip-rule="evenodd" d="M4.92771 27.0755C4.38337 26.5189 4.36213 25.6585 4.87696 25.1548L10.5176 19.6617C11.0331 19.1593 11.8917 19.2028 12.4358 19.7604C12.9798 20.3181 13.0024 21.1778 12.4868 21.6801L6.84694 27.1746C6.33005 27.6777 5.47177 27.6332 4.92771 27.0755Z" fill="#FF8A00"/>
<path fill-rule="evenodd" clip-rule="evenodd" d="M27.8388 4.93105C28.3842 5.48798 28.4077 6.34792 27.8929 6.85156L22.2635 12.3565C21.7487 12.8602 20.8888 12.8175 20.3442 12.2619C19.7988 11.705 19.7753 10.845 20.2911 10.3417L25.9198 4.83538C26.4346 4.33173 27.2945 4.3744 27.8388 4.93105Z" fill="#FF8A00"/>
<path fill-rule="evenodd" clip-rule="evenodd" d="M12.1966 19.9929C11.7638 19.5493 11.1164 19.5427 10.7496 19.9001L5.10946 25.3928C5.10938 25.3929 5.10954 25.3927 5.10946 25.3928C4.74274 25.7518 4.73334 26.4003 5.16543 26.8422C5.59834 27.2859 6.24584 27.2936 6.61385 26.9354L12.2536 21.4411C12.2536 21.4411 12.2536 21.4411 12.2536 21.4411C12.6199 21.0841 12.6295 20.4367 12.1966 19.9929ZM10.2843 19.4226C10.9487 18.7753 12.0184 18.8556 12.6738 19.5274C13.3289 20.1989 13.3836 21.2708 12.7188 21.9186L7.07894 27.413C6.41323 28.061 5.34392 27.9796 4.68868 27.3082C4.03228 26.6368 3.9806 25.5645 4.64326 24.9162L10.2843 19.4226Z" fill="black"/>
<path fill-rule="evenodd" clip-rule="evenodd" d="M27.6004 5.16412C27.1675 4.7214 26.519 4.71544 26.1528 5.07367L20.5241 10.58C20.1574 10.9378 20.1484 11.5856 20.5823 12.0287C21.0155 12.4706 21.6641 12.4765 22.0303 12.1183L27.6597 6.6133C27.6597 6.61329 27.6597 6.61332 27.6597 6.6133C28.0258 6.25509 28.0342 5.60715 27.6004 5.16412ZM28.077 4.69801C27.4213 4.02743 26.3501 3.94805 25.6866 4.59711L20.0582 10.1031C20.0583 10.1031 20.0582 10.1031 20.0582 10.1031C19.3934 10.752 19.4491 11.8244 20.106 12.4951C20.7619 13.1643 21.833 13.2439 22.4965 12.5949C22.4965 12.5949 22.4965 12.5949 22.4965 12.5949L28.1259 7.0899C28.7893 6.44086 28.7338 5.36883 28.077 4.69801Z" fill="black"/>
</svg>
