<svg xmlns="http://www.w3.org/2000/svg" width="24" height="24" viewBox="0 0 24 24">
    <g fill="none" fill-rule="evenodd">
        <path stroke="#4CAF50" stroke-width="2" d="M12 3C9.515 3 7.265 4.007 5.636 5.636 4.007 7.265 3 9.515 3 12s1.007 4.735 2.636 6.364C7.265 19.993 9.515 21 12 21s4.735-1.007 6.364-2.636C19.993 16.735 21 14.485 21 12s-1.007-4.735-2.636-6.364C16.735 4.007 14.485 3 12 3z"/>
        <path fill="#4CAF50" d="M6 12c0-3.314 2.686-6 6-6s6 2.686 6 6-2.686 6-6 6-6-2.686-6-6z"/>
    </g>
</svg>
