<svg width="200" height="200" viewBox="0 0 200 200" fill="none" xmlns="http://www.w3.org/2000/svg">
    <rect x="92" y="25" width="45.455" height="45.455" rx="8" fill="#DCCADD"/>
    <circle cx="114.727" cy="46.591" r="13.636" fill="#C969CD"/>
    <path d="m118.496 52.261-.23 7.744s-4.107 1.359-6.886.184a37.231 37.231 0 0 1 .022-4.368l7.094-3.56z" fill="#F8B498"/>
    <path d="M111.329 60.129s5.049.183 6.033-5.193c.183-2.439 0-2.965 0-2.965l-5.96 4.655-.073 3.503z" fill="#DB7368"/>
    <path d="M107.408 35.231c-.835 2.888-2.935 19.994 3.89 21.322 8.153 1.585 11.452-10.065 12.614-12.756 1.161-2.691.864-9.68-5.772-11.597-6.637-1.917-9.895.145-10.732 3.031z" fill="#F8B498"/>
    <path d="M107.096 47.557c-1.732-.552-3.314-4.446-1.383-6.037 2.036-1.681 2.752 1.894 2.752 1.894l-1.369 4.143z" fill="#DB7368"/>
    <path d="M107.155 47.343c-.551-.184-.982-.667-1.294-1.142a5.116 5.116 0 0 1-.765-1.97 3.053 3.053 0 0 1 .259-1.94c.262-.479.822-1.02 1.409-1 .835.029 1.233 1.211 1.418 1.87.014.1.039.2.075.294.035.053.037-.121 0-.085a.367.367 0 0 0-.036.113l-.408 1.214-.93 2.795c-.09.27.336.387.426.118l.895-2.693.439-1.322a.888.888 0 0 0-.043-.58c-.244-.853-.733-2.08-1.768-2.166-.655-.056-1.285.426-1.666.92a3.136 3.136 0 0 0-.551 2.087c.063.87.336 1.71.797 2.45.383.622.917 1.22 1.625 1.457.27.097.386-.33.118-.42z" fill="#000"/>
    <path d="M123.911 43.797c1.162-2.693.865-9.68-5.772-11.597-6.636-1.917-9.894.145-10.731 3.031-.837 2.886-2.936 19.994 3.89 21.322 2.374.462 4.172-.078 5.812-1.33" fill="#F8B498"/>
    <path d="M124.102 43.907c.611-1.43.661-3.099.44-4.62-.284-1.957-1.154-3.84-2.594-5.21a8.797 8.797 0 0 0-2.935-1.816 16.521 16.521 0 0 0-4.435-.977c-2.06-.184-4.354.094-5.945 1.545a5.053 5.053 0 0 0-1.328 2.001 8.641 8.641 0 0 0-.35 1.39 41.024 41.024 0 0 0-.569 4.377 46.153 46.153 0 0 0-.138 5.736c.079 1.873.283 3.771.806 5.575.424 1.455 1.086 2.973 2.284 3.953.54.445 1.179.753 1.862.898a7.29 7.29 0 0 0 4.277-.328 7.918 7.918 0 0 0 1.741-1.017c.224-.169 0-.552-.222-.382-1.086.824-2.332 1.377-3.702 1.453-.991.055-2.097-.039-2.993-.51-1.244-.653-2.018-1.931-2.497-3.208-.627-1.646-.899-3.42-1.038-5.17a41.513 41.513 0 0 1-.035-5.632c.088-1.562.24-3.127.482-4.67.169-1.074.332-2.207.903-3.15.941-1.555 2.699-2.274 4.446-2.429 1.335-.094 2.678.01 3.983.311 1.328.282 2.644.66 3.807 1.378a8.068 8.068 0 0 1 3.469 4.65c.47 1.56.525 3.216.162 4.804a5.31 5.31 0 0 1-.266.826c-.11.257.27.483.381.222h.004z" fill="#000"/>
    <path d="M121.129 49.644s3.011 1.104 4.756-1.97c1.601-2.818-.854-4.914-2.498-3.327-1.322 1.276-1.805 3.06-1.805 3.06" fill="#F8B498"/>
    <path d="M121.069 49.856a4.042 4.042 0 0 0 1.701.184 4.123 4.123 0 0 0 3.015-1.797c.774-1.095 1.242-2.7.367-3.874a1.9 1.9 0 0 0-2.793-.287 6.343 6.343 0 0 0-1.517 2.09 6.93 6.93 0 0 0-.466 1.179.22.22 0 0 0 .424.117 6.859 6.859 0 0 1 1.299-2.472c.367-.44.787-.894 1.377-.965.433-.046.862.109 1.166.42.917.92.533 2.37-.074 3.334s-1.547 1.664-2.688 1.804a3.77 3.77 0 0 1-1.686-.156c-.266-.098-.382.329-.117.425l-.008-.002z" fill="#000"/>
    <path d="M122.675 48.52c1.767.368 3.383-2.68 1.871-2.737-1.511-.057-2.104 2.688-1.871 2.737zM108.53 48.955l-.138-.035c.325.086.613-.109.868-.473.998-.256 1.614-1.453 1.789-2.41.086-.724-.052-1.471-.459-2.008.048-.289.072-.464.072-.464l-1.022-.68.108.009c1.064.105 1.714.874 1.994 1.858.25.9-.625 4.745-3.212 4.203z" fill="#DB7368"/>
    <path d="M111.864 44.597c-.468 1.233-.956 2.498-1.083 3.822-.055.552-.044 1.209.307 1.676.417.51 1.12.687 1.728.432a1.81 1.81 0 0 0 .89-1.002c.102-.265-.323-.38-.424-.116a1.19 1.19 0 0 1-.125.22 1.334 1.334 0 0 1-.418.435 1.026 1.026 0 0 1-1.343-.304c-.264-.43-.219-1.023-.158-1.503a10.49 10.49 0 0 1 .449-1.874 37.1 37.1 0 0 1 .602-1.675c.101-.265-.324-.381-.425-.118v.007zM113.713 53.362s.734-1.216.72-1.98c-.859.317-2.681.563-3.927.25.246 1.086.82 2.33 1.976 2.232 1.156-.098 1.231-.502 1.231-.502z" fill="#000"/>
    <path d="M111.096 53.299s.329-.85 3.059-.552c-.424.609-.753.959-1.672 1.126a1.383 1.383 0 0 1-1.387-.574z" fill="#EF033A"/>
    <path d="M114.406 51.936a6.242 6.242 0 0 1-3.853.039c-.044-.368-.055-.709-.055-.709s.475.45 1.752.437a5.68 5.68 0 0 0 2.228-.477l-.072.71z" fill="#fff"/>
    <path d="M110.381 51.458c.376.206.787.34 1.211.395a5.35 5.35 0 0 0 2.991-.436l-.33-.184c.018.736-.217 1.656-.848 2.11a1.724 1.724 0 0 1-1.793.12c-.442-.261-.669-.754-.788-1.234a3.415 3.415 0 0 1-.111-.955c0-.285-.431-.283-.44 0-.029.881.246 1.94.984 2.481.594.436 1.456.432 2.106.125.585-.276.956-.842 1.147-1.445.126-.388.188-.794.183-1.202a.224.224 0 0 0-.332-.184 4.792 4.792 0 0 1-2.739.368 3.017 3.017 0 0 1-1.019-.338.22.22 0 0 0-.222.379zM123.009 47.812c.061-.284.147-.563.259-.831 0-.011.02-.05 0 0l.015-.033.036-.083a3.16 3.16 0 0 1 .294-.519l.049-.07c.017-.023-.027.034.013-.014a1.803 1.803 0 0 1 .164-.182l.068-.063c.011 0 .08-.066.04-.037.051-.038.105-.073.161-.104l.09-.045c.055-.025-.042.015.015 0l.051-.018c.035-.011.072-.02.107-.028h.075-.011c.076-.005.152-.005.227 0h.015l.075.013c.044.01.088.022.132.035a.22.22 0 1 0 .116-.426 1.43 1.43 0 0 0-.939.023 1.739 1.739 0 0 0-.687.52 4.06 4.06 0 0 0-.704 1.428c-.033.11-.064.225-.088.339a.228.228 0 0 0 .154.27.221.221 0 0 0 .271-.153l.002-.022z" fill="#000"/>
    <path d="M115.253 46.089s.38-.745 1.031-.946c.945-.288 1.512.36 2.007 1.327 0 0-1.638 1.225-3.038-.381z" fill="#fff"/>
    <path d="M115.442 46.199c.234-.454.669-.872 1.201-.901.734-.043 1.164.713 1.457 1.287.13.252.51.03.38-.222-.367-.714-.927-1.553-1.835-1.501-.688.038-1.273.52-1.583 1.12-.129.252.251.476.381.223l-.001-.006z" fill="#000"/>
    <ellipse cx="116.433" cy="45.951" rx=".8" ry=".802" fill="#000"/>
    <circle cx="116.817" cy="45.666" fill="#fff" r=".224"/>
    <path d="M108.082 44.996s.381-.745 1.033-.943c.943-.29 1.509.356 2.007 1.324-.006 0-1.641 1.225-3.04-.38z" fill="#fff"/>
    <path d="M108.272 45.108c.235-.456.67-.871 1.202-.903.734-.042 1.163.716 1.457 1.288.13.252.51.03.38-.223-.367-.713-.918-1.554-1.835-1.502-.688.038-1.273.522-1.582 1.122-.13.252.25.474.38.222l-.002-.004z" fill="#000"/>
    <ellipse cx="109.264" cy="44.858" rx=".8" ry=".802" fill="#000"/>
    <circle cx="109.649" cy="44.575" fill="#fff" r=".224"/>
    <path d="M111.544 54.813c.146.123.318.213.502.263.408.099.838.033 1.197-.184a.221.221 0 1 0-.222-.383 1.24 1.24 0 0 1-.4.155l-.063.01h-.022a1.392 1.392 0 0 1-.231 0c-.051 0 0 0 0 0s-.038 0-.057-.01a.843.843 0 0 1-.17-.05.137.137 0 0 1-.039-.015c.053.034.022.01 0 0a1.375 1.375 0 0 1-.123-.066l-.071-.05.014.012a.225.225 0 0 0-.312 0 .224.224 0 0 0 0 .312l-.003.006zM123.499 46.562h-.042.051c.058.012.115.029.171.05.015 0 .035.018.049.018l-.033-.015h.013l.03.013a.975.975 0 0 1 .161.1l-.026-.021.013.01.028.025c.016.016.033.031.047.048l.024.027.011.013c.024.028-.014-.015-.014-.02 0-.006.02.03.025.037l.022.036a.263.263 0 0 1 .021.037s.023.035.022.044c-.002.01-.022-.057-.011-.025.011.03 0 .016.009.023.009.008 0 .03.014.045.015.014.019.071.026.106a.22.22 0 0 0 .27.155.226.226 0 0 0 .154-.272 1.042 1.042 0 0 0-.424-.657 1.232 1.232 0 0 0-.616-.23.22.22 0 1 0 0 .441l.005.012z" fill="#000"/>
    <path d="M106.986 40.098s5.505 2.263 10.196.644c2.644-.977 2.888-2.59 2.888-2.59l-7.801-.368-5.283 2.314z" fill="#DB7368"/>
    <path d="M124.913 37.113c.184-4.573-4.911-5.962-7.753-6.31-6.789-.827-11.653 2.576-12.66 9.54.367-.422.855-.756 1.172-1.06-.027 1.229.055 2.38.551 3.346.284-1.854.22-2.693.22-2.693 3.561 1.19 9.643.848 13.625-1.782.154 1.124.207 2.895 2.385 4.08.141 1.199-1.028 5.192-1.028 5.192s1.059-3.186 2.881-3.787c.983-.322 3.238-5.066.607-6.526z" fill="#000"/>
    <path d="M116.1 50.108h-.022l-.149-.035c.319.084.604-.105.855-.456 1.026-.234 1.651-1.453 1.835-2.423.088-.735-.061-1.508-.486-2.043.044-.27.064-.434.064-.434l-1.026-.683c.046.002.091.006.136.013 1.048.114 1.692.878 1.969 1.854.352 1.233-.613 4.735-3.176 4.207z" fill="#DB7368"/>
    <path d="M109.074 48.498c-1.253-.184-2.066-1.683-1.814-3.332a3.046 3.046 0 0 1 .777-1.698c-.528.39-.917 1.048-1.056 1.938-.25 1.656.561 3.142 1.814 3.333a2.058 2.058 0 0 0 1.76-.656 1.955 1.955 0 0 1-1.481.415z" fill="#fff"/>
    <path fill-rule="evenodd" clip-rule="evenodd" d="M109.414 42.824c.11.016.22.04.327.07 1.376.395 1.937 1.841 1.767 3.215-.259 1.416-1.332 3.092-2.984 2.846-1.638-.25-2.234-2.156-2.018-3.61.217-1.452 1.334-2.76 2.908-2.521zm-.82 5.656a1.6 1.6 0 0 0 .659-.033c.998-.256 1.615-1.453 1.789-2.406.092-.721-.052-1.473-.459-2.009-.3-.4-.746-.665-1.24-.735-1.319-.212-2.185.962-2.363 2.122-.178 1.16.249 2.853 1.614 3.06z" fill="#000"/>
    <path d="M116.653 49.652c-1.253-.184-2.066-1.683-1.817-3.333a3.049 3.049 0 0 1 .78-1.698c-.53.39-.917 1.048-1.057 1.939-.249 1.655.562 3.143 1.815 3.332a2.057 2.057 0 0 0 1.759-.656 1.953 1.953 0 0 1-1.48.416z" fill="#fff"/>
    <path fill-rule="evenodd" clip-rule="evenodd" d="M116.991 43.977c.108.016.215.04.32.07 1.377.39 1.944 1.84 1.781 3.212-.26 1.418-1.33 3.097-2.992 2.845h-.022c-1.628-.263-2.206-2.183-1.995-3.603.215-1.455 1.332-2.763 2.908-2.524zm-.82 5.656c.204.033.412.026.613-.02 1.026-.234 1.657-1.453 1.835-2.422.088-.742-.061-1.509-.486-2.044a1.88 1.88 0 0 0-1.213-.697c-1.319-.212-2.185.962-2.363 2.123-.178 1.16.251 2.852 1.614 3.06z" fill="#000"/>
    <path d="M111.364 44.856c1.062-.783 2.405-.16 3.255.62.227.208.526-.165.299-.368-1.013-.932-2.598-1.546-3.839-.632a.242.242 0 0 0-.034.324.24.24 0 0 0 .319.062v-.006zM118.831 46.168l3.204-.195c.306-.018.249-.495-.057-.476l-3.203.194c-.307.019-.25.495.056.477zM115.605 43.422c1.198-.811 2.687-.522 3.788.318a.416.416 0 0 0 .565-.149.424.424 0 0 0-.148-.566c-1.319-1.007-3.202-1.288-4.624-.317-.436.296-.024 1.014.419.714zM112.46 42.355c-.49-.644-1.264-1.028-2.044-1.192-.817-.171-1.694-.129-2.371.403a.416.416 0 0 0 .18.704.412.412 0 0 0 .404-.12c-.053.043.049-.029.051-.029l.088-.053.094-.046c-.061.028.059-.02.06-.02.069-.025.139-.044.21-.059a.96.96 0 0 1 .108-.022c.016 0 .101-.013.048 0 .319-.035.642-.015.955.059a3.296 3.296 0 0 1 1.107.454c.024.017.049.031.073.05a1.704 1.704 0 0 1 .209.175l.083.086c.011.013.081.1.033.035.119.19.366.256.563.149a.416.416 0 0 0 .149-.567v-.007z" fill="#000"/>
    <rect x="146.545" y="60.545" width="45.455" height="45.455" rx="8" fill="#DCCADD"/>
    <circle cx="168.865" cy="83.858" r="13.576" fill="#FCD22A"/>
    <mask id="oj9yojwgua" style="mask-type:alpha" maskUnits="userSpaceOnUse" x="155" y="69" width="28" height="28">
        <circle cx="168.864" cy="83.213" r="13.576" fill="#D9D9D9"/>
    </mask>
    <g mask="url(#oj9yojwgua)">
        <path d="m164.989 89.491 1.382 7.507s5.142 2.35 7.227-.723a32.243 32.243 0 0 0-.662-4.202l-7.947-2.582z" fill="#F8B498"/>
        <path d="M173.968 96.698s-3.406 1.74-7.679-2.987c-1.19-2.28-1.222-2.864-1.222-2.864l7.69 2.032 1.211 3.82z" fill="#DB7368"/>
    </g>
    <path d="M176.125 72.679c.771 3.061 2.346 21.098-4.894 22.237-8.641 1.358-11.682-10.996-12.796-13.867-1.114-2.87-.546-10.196 6.508-11.957 7.054-1.761 10.411.53 11.182 3.587z" fill="#F8B498"/>
    <path d="M175.992 85.635c1.843-.52 3.655-4.542 1.685-6.286-2.083-1.843-2.978 1.884-2.978 1.884l1.293 4.401z" fill="#DB7368"/>
    <path d="M176.096 85.865c.659-.195 1.197-.723 1.595-1.26.483-.66.82-1.416.99-2.217a3.794 3.794 0 0 0-.161-2.294c-.293-.672-.918-1.311-1.654-1.473-1.21-.267-1.926 1.103-2.255 2.04-.081.236-.198.488-.125.733.116.401.234.803.353 1.206l.923 3.139c.06.122.206.175.331.12a.259.259 0 0 0 .128-.334l-.718-2.438-.44-1.497c-.04-.135-.074-.272-.12-.406-.024-.073-.006-.123.003.076-.003-.02.043-.056-.009.037a6.298 6.298 0 0 1 .438-1.162c.2-.393.492-.843.927-1.003.553-.2 1.153.276 1.478.69.422.55.544 1.276.482 1.95a5.094 5.094 0 0 1-.824 2.306c-.373.565-.879 1.126-1.549 1.322a.252.252 0 0 0-.127.334.257.257 0 0 0 .334.131z" fill="#000"/>
    <path d="M158.436 81.054c-1.114-2.87-.546-10.195 6.508-11.957 7.054-1.761 9.364.988 10.853 3.51 1.6 2.718 2.671 21.176-4.566 22.314-2.518.395-4.389-.238-6.07-1.615" fill="#F8B498"/>
    <path d="M169.92 92.794c.171.115.366.19.571.217.44.06.886-.059 1.24-.328a.252.252 0 0 0 .021-.356.262.262 0 0 0-.355-.02 1.656 1.656 0 0 1-.266.142l-.048.019-.048.014a1.003 1.003 0 0 1-.128.03l-.061.01c-.015 0-.092.009-.024 0-.037-.003-.076.003-.113.003l-.107-.007-.05-.002c-.025-.002-.052-.026 0 0a1.366 1.366 0 0 0-.165-.047l-.069-.028-.032-.014c-.042-.017.01.001.022.012-.034-.026-.075-.04-.111-.066a.254.254 0 0 0-.349.07.259.259 0 0 0 .07.35" fill="#000"/>
    <path d="M158.666 80.951c-.557-1.431-.525-3.185-.226-4.706.394-1.996 1.404-3.873 2.992-5.168a8.986 8.986 0 0 1 3.265-1.656 15.716 15.716 0 0 1 4.445-.63 7.889 7.889 0 0 1 3.102.63 6.23 6.23 0 0 1 1.993 1.445c.503.556.944 1.164 1.317 1.814.098.167.181.342.249.523.041.112.079.227.115.342.027.09.057.2.094.343.378 1.462.533 2.988.631 4.488a39.798 39.798 0 0 1-.048 5.88c-.162 1.925-.461 3.861-1.085 5.694-.497 1.46-1.225 2.967-2.473 3.921-.547.418-1.19.69-1.871.793-1.426.216-2.871.104-4.195-.51a7.936 7.936 0 0 1-1.653-1.064c-.252-.205-.548.202-.298.407a7.6 7.6 0 0 0 3.81 1.716c.767.093 1.543.081 2.307-.035a4.844 4.844 0 0 0 1.162-.308c1.478-.611 2.47-1.976 3.132-3.38.823-1.75 1.237-3.69 1.492-5.596.262-2.057.356-4.133.282-6.206a30.964 30.964 0 0 0-.521-5.11 9.85 9.85 0 0 0-.452-1.67 7.305 7.305 0 0 0-.965-1.6 7.612 7.612 0 0 0-1.766-1.77 7.059 7.059 0 0 0-2.716-1.117c-1.306-.247-2.661-.183-3.969.017-1.477.224-2.968.58-4.293 1.294a8.961 8.961 0 0 0-4.195 5.01 10.374 10.374 0 0 0-.399 5.414c.069.333.165.659.285.976.117.301.577.096.46-.206l-.008.025z" fill="#000"/>
    <path d="M161.315 78.353s1.554-2.296 6.055-1.501c5.441.962 7.695.914 9.004-.746-2.277-1.908-7.948-2.266-7.948-2.266l-4.857 1.956-2.297 1.58.043.977z" fill="#DB7368"/>
    <path d="M161.146 87.298s-3.209 1.04-4.925-2.248c-1.581-3.018 1.091-5.13 2.752-3.4 1.343 1.391 1.786 3.282 1.786 3.282" fill="#F8B498"/>
    <path d="m161.043 87.067.032-.005-.087.023a4.128 4.128 0 0 1-.315.063 4.17 4.17 0 0 1-1.041.044 3.801 3.801 0 0 1-2.742-1.535c-.724-.96-1.286-2.428-.603-3.56.48-.798 1.469-1.064 2.237-.5.333.27.622.59.855.951.257.37.481.762.668 1.172.136.296.255.598.356.907.041.114.075.23.102.347.075.313.573.24.498-.076a7.257 7.257 0 0 0-.429-1.232 7.08 7.08 0 0 0-1.473-2.234 2.131 2.131 0 0 0-1.553-.649 2.015 2.015 0 0 0-1.39.655c-.974 1.036-.763 2.617-.141 3.776.651 1.217 1.71 2.141 3.083 2.419a4.372 4.372 0 0 0 2.148-.096c.308-.1.101-.559-.205-.46v-.01z" fill="#000"/>
    <path d="M159.556 86.055c-1.873.326-3.459-2.942-1.865-2.944 1.594-.002 2.117 2.905 1.865 2.944z" fill="#DB7368"/>
    <path d="M171.107 82.841c.326.954.654 1.92.783 2.926.054.438.099.96-.105 1.374a.839.839 0 0 1-1.069.349 1.13 1.13 0 0 1-.544-.663c-.106-.307-.565-.102-.459.203.115.325.326.607.606.808a1.374 1.374 0 0 0 1.661-.127c.391-.368.46-.943.45-1.45a7.87 7.87 0 0 0-.31-1.879 24.637 24.637 0 0 0-.548-1.74c-.104-.307-.563-.1-.459.205l-.006-.006zM167.726 80.2c-1.529-1.126-3.562-.864-5.055.189a.504.504 0 0 0 .628.784c1.14-.804 2.672-1.002 3.825-.16.523.383 1.124-.428.597-.812h.005zM171.317 80.502c.025-.029.049-.06.077-.088-.048.052-.027.026.012-.002.038-.028.116-.102.179-.149l.107-.077.059-.038.064-.037c.041-.022.083-.045.126-.065a3.667 3.667 0 0 1 .574-.231c-.055.015.087-.022.105-.026a3.856 3.856 0 0 1 .819-.12c-.073.012 0 0 .037-.005l.121.004c.094.006.189.014.284.028l.114.02c.036.008.1.024.029.006.08.02.158.046.234.077l.1.044c.032.016.112.066.039.02.072.045.14.094.206.148a.504.504 0 0 0 .597-.81c-.664-.56-1.639-.621-2.461-.476-.822.145-1.688.514-2.233 1.187a.506.506 0 0 0 .351.8.503.503 0 0 0 .461-.203l-.001-.007zM169.304 91.159s-.834-1.232-.869-2.037c.921.285 2.853.44 4.144.041-.197 1.153-.73 2.488-1.951 2.452-1.221-.035-1.324-.456-1.324-.456z" fill="#000"/>
    <path d="M172.056 90.952s-.392-.874-3.248-.418c.48.617.845.962 1.821 1.083a1.454 1.454 0 0 0 1.427-.665z" fill="#EF033A"/>
    <path d="M168.496 89.702a6.6 6.6 0 0 0 4.059-.177c.026-.386.019-.746.019-.746s-.475.498-1.819.557a6.016 6.016 0 0 1-2.367-.375l.108.741z" fill="#fff"/>
    <path d="m172.421 88.581-.018.013c.018-.014.042-.023-.013.002-.056.025-.137.073-.208.106a3.802 3.802 0 0 1-.791.27c-.973.2-1.982.113-2.906-.251a.255.255 0 0 0-.341.272c.026.966.459 2.087 1.328 2.582.71.395 1.576.389 2.28-.016.561-.35.852-.963.99-1.59.09-.405.12-.82.086-1.234-.026-.323-.524-.246-.497.076a1.596 1.596 0 0 0 .02.132c.003.022 0 .07 0 0l.001.076a5.088 5.088 0 0 1-.044.605c-.071.495-.238 1.03-.623 1.37-.485.428-1.252.466-1.828.207-.517-.234-.83-.739-1.009-1.259a3.547 3.547 0 0 1-.192-1.025l-.343.271a5.589 5.589 0 0 0 3.167.281 3.76 3.76 0 0 0 1.272-.501c.248-.174-.069-.566-.331-.387zM159.711 85.213a5.038 5.038 0 0 0-.287-1.015c-.217-.563-.551-1.132-1.097-1.426a1.49 1.49 0 0 0-1.083-.114.259.259 0 0 0-.212.286c.022.137.15.231.287.212a1.65 1.65 0 0 1 .237-.036 1.02 1.02 0 0 1 .098-.015c-.041.006.055.003.076.005a.962.962 0 0 1 .102.014l.056.01c-.008.001-.044-.012 0 0a.979.979 0 0 1 .181.071l.049.023c.033.019-.033-.019 0 0s.054.034.083.054c.053.038.104.079.152.123.054.048-.02-.021.01.008l.031.033c.024.024.046.05.069.075.043.05.085.104.124.159.021.027.039.057.059.084.019.028.056.092.033.051a3.756 3.756 0 0 1 .264.544c.046.116.086.232.122.349.005.028.009.055.026.08.018.027-.018-.061 0 0l.005.035c.007.047.026.093.037.14.028.107.053.217.072.328.02.138.149.232.286.211a.253.253 0 0 0 .212-.286l.008-.003z" fill="#000"/>
    <path d="M167.464 83.787s-.371-.793-1.05-1.03c-.982-.338-1.604.318-2.161 1.316 0-.002 1.679 1.345 3.211-.286z" fill="#fff"/>
    <circle cx="166.459" cy="83.834" r=".843" transform="rotate(-8.613 166.459 83.834)" fill="#000"/>
    <circle cx="166.228" cy="83.56" r=".237" transform="rotate(-8.613 166.228 83.56)" fill="#fff"/>
    <path d="M167.695 83.684c-.29-.611-.831-1.125-1.508-1.247-1.021-.185-1.695.7-2.137 1.485a.26.26 0 0 0 .053.352.253.253 0 0 0 .352-.053c.347-.616.848-1.43 1.674-1.283.329.069.623.255.826.524.113.128.208.271.282.426.138.293.597.09.46-.204h-.002z" fill="#000"/>
    <path d="M175.051 82.91s-.371-.793-1.05-1.03c-.982-.338-1.604.318-2.163 1.316 0 0 1.68 1.346 3.213-.287z" fill="#fff"/>
    <circle cx="174.05" cy="82.893" r=".843" transform="rotate(-8.613 174.05 82.893)" fill="#000"/>
    <circle cx="173.654" cy="82.581" r=".237" transform="rotate(-8.613 173.654 82.581)" fill="#fff"/>
    <path d="M175.282 82.808c-.289-.611-.83-1.125-1.509-1.247-1.02-.185-1.694.7-2.137 1.485a.26.26 0 0 0 .053.352.254.254 0 0 0 .352-.053c.348-.616.85-1.43 1.673-1.284.33.07.623.257.827.525.112.129.207.272.28.426.138.293.599.09.461-.204zM158.737 83.493a1.382 1.382 0 0 0-.336.076 1.2 1.2 0 0 0-.562.392 1.168 1.168 0 0 0-.213.48.252.252 0 0 0 .213.281.257.257 0 0 0 .28-.212.122.122 0 0 0 .006-.026s-.015.056-.007.03l.014-.043c.009-.029.02-.056.031-.083l.02-.039c.023-.05-.028.043-.007.01a.69.69 0 0 1 .097-.13c.029-.035-.027.024-.016.014l.031-.029a.922.922 0 0 1 .116-.088c.041-.029-.033.018-.02.002l.025-.013.061-.032c.037-.017.075-.032.112-.046a.55.55 0 0 0 .022-.003l.028-.004a.67.67 0 0 1 .083-.013.555.555 0 0 1 .091-.014.253.253 0 0 0 .211-.286.258.258 0 0 0-.286-.212l.006-.012zM176.566 71.564c.782-.27 1.548-1.12 1.258-1.992-.601-1.817-3.492-1.98-5.051-2.084-3.891-.259-15.813-.83-13.987 6.21 0 0-2.645.69-2.687 3.398-.044 2.757.815 4.09.815 4.09s2.257-.43 3.589 2.971c0 0 1.149-2.057.819-5.805 1.169-2.289 5.626-2.256 8.322-1.975 3.512.364 6.636.254 7.88-.925 1.49-1.42.782-2.484-.958-3.888z" fill="#000"/>
    <rect x="146.545" y="6" width="45.455" height="45.455" rx="8" fill="#DCCADD"/>
    <ellipse cx="168.704" cy="28.727" rx="13.068" ry="12.5" fill="#FF336D"/>
    <path d="M161.573 19.928c-.111-1.433-.492-2.591-1.306-3.208 0 0-3.918-1.283-6.526 3.5-2.015 3.687-.021 8.84.227 11.434.249 2.595-1.616 4.059-2.474 3.325 0 0 1.288 4.858 4.834 4.693 3.546-.164 6.261-1.712 6.242-5.748-.014-3.12.137-13.506.137-13.506a4.353 4.353 0 0 0-1.134-.49z" fill="#000"/>
    <path d="M175.639 26.714c-1.089-.245-2.118-.705-2.497-4.038l-.096.015a.381.381 0 0 0-.312.413c.1 1.052.593 4.036 2.904 3.61" fill="#fff"/>
    <path d="m166.126 34.456 1.409 7.234s3.679.556 6.061-.81a35.496 35.496 0 0 0-.694-4.098l-6.776-2.326z" fill="#F8B498"/>
    <path d="M173.633 40.809s-4.272.884-6.028-4.017c-.554-2.26-.457-2.784-.457-2.784l5.877 3.524.608 3.277zM175.914 29.587s1.672-1.198 1.328-3.3c-.24-1.457-1.393-1.33-1.966-.91-.574.422.638 4.21.638 4.21z" fill="#DB7368"/>
    <path d="M176.06 29.764a3.757 3.757 0 0 0 1.223-1.662 3.555 3.555 0 0 0 .176-1.885c-.088-.539-.366-1.099-.917-1.284a1.581 1.581 0 0 0-1.412.27c-.237.173.055.524.292.351a1.14 1.14 0 0 1 .889-.214c.468.112.644.611.706 1.035.13.962-.175 1.931-.833 2.644a2.768 2.768 0 0 1-.42.394c-.239.172.053.523.29.352" fill="#000"/>
    <path d="M174.944 18.986c1.548 2.404 3.041 18.49-2.691 19.431-6.67 1.095-10.589-9.52-11.726-12.066-1.138-2.547-1.363-9.057 4.924-11.025 5.701-1.786 7.779 1 9.493 3.66z" fill="#F8B498"/>
    <path d="M160.735 26.255c-.522-1.176-.674-2.564-.589-3.859.11-1.652.66-3.276 1.739-4.55 1.436-1.698 3.665-2.522 5.821-2.796a7.24 7.24 0 0 1 3.049.204 5.67 5.67 0 0 1 2.142 1.239 7.766 7.766 0 0 1 1.43 1.823c.265.434.481.896.645 1.377.004.025.008.05.023.075l.006.039c.01.058.034.114.05.172.034.12.064.242.095.363.066.273.127.546.181.823.134.666.24 1.338.33 2.012.212 1.62.326 3.251.34 4.885a26.771 26.771 0 0 1-.372 5.025c-.245 1.324-.616 2.721-1.431 3.812a3.404 3.404 0 0 1-1.199 1.042c-.8.395-1.822.4-2.712.235a6.13 6.13 0 0 1-1.802-.653c-.255-.138-.523.23-.266.37a6.345 6.345 0 0 0 4.006.76 3.366 3.366 0 0 0 1.623-.719c1.04-.847 1.589-2.185 1.935-3.443.443-1.625.609-3.319.66-4.998a39.45 39.45 0 0 0-.199-5.235 28.19 28.19 0 0 0-.671-4.093 6.87 6.87 0 0 0-.402-1.227 9.885 9.885 0 0 0-1.244-2.005 6.573 6.573 0 0 0-1.902-1.628 6.416 6.416 0 0 0-2.745-.768c-1.287-.074-2.569.167-3.794.542a8.778 8.778 0 0 0-2.946 1.503c-1.435 1.145-2.339 2.79-2.693 4.578a9.527 9.527 0 0 0 .178 4.468c.078.279.175.552.289.818a.228.228 0 0 0 .414-.19" fill="#000"/>
    <path d="M171.724 28.275c.388.368.737.776 1.042 1.215.216.284.374.608.465.953a.728.728 0 0 1-.003.377.747.747 0 0 1-.396.404.517.517 0 0 1-.473-.066.925.925 0 0 1-.098-.07c-.014-.01-.087-.077-.046-.037a1.068 1.068 0 0 1-.069-.072.228.228 0 0 0-.351.29c.207.259.512.42.843.444a1.116 1.116 0 0 0 1.061-.926c.056-.405-.123-.822-.318-1.166a6.641 6.641 0 0 0-.778-1.072 7.58 7.58 0 0 0-.53-.56.237.237 0 0 0-.321-.03.229.229 0 0 0-.03.32M169.408 25.413c-1.401-.928-3.264-.98-4.612.068-.463.36.117 1.06.578.703 1.018-.783 2.435-.737 3.5-.03.49.325 1.023-.416.534-.741zM172.2 25.608c.041-.054.083-.106.129-.157.045-.05-.048.045.015-.013l.088-.084c.117-.105.241-.203.372-.292l.063-.041.067-.04a4.063 4.063 0 0 1 .7-.326l.11-.038c-.08.025.06-.01.063-.01.073-.02.147-.039.222-.052.075-.014.161-.027.242-.04l.108-.009c.133-.01-.083-.008.048-.007.069.002.138.005.207.012l.12.019c.117.019-.073-.03.039.01.06.023.119.044.18.07.103.042-.057-.049.031.019.032.022.064.043.094.066.469.356 1-.384.534-.74-.661-.509-1.551-.41-2.292-.164-.712.235-1.431.67-1.881 1.28-.349.474.392 1.006.741.532M170.597 34.681s-.827-1.066-.91-1.789c.85.203 2.604.23 3.748-.208-.11 1.053-.512 2.294-1.62 2.332-1.108.038-1.223-.334-1.223-.334" fill="#000"/>
    <path d="M173.069 34.327s-.406-.767-2.958-.187c.47.529.82.82 1.71.875a1.315 1.315 0 0 0 1.249-.688" fill="#EF033A"/>
    <path d="M169.783 33.413a5.962 5.962 0 0 0 3.657-.401c0-.35-.027-.675-.027-.675s-.4.478-1.61.61a5.443 5.443 0 0 1-2.164-.198l.144.664z" fill="#fff"/>
    <path d="M173.265 32.156a.899.899 0 0 1-.067.046c-.053.038 0 0-.037.025l-.103.06a3.631 3.631 0 0 1-.708.296 4.614 4.614 0 0 1-2.627-.05.23.23 0 0 0-.308.248c.084.883.539 1.858 1.357 2.266a2.091 2.091 0 0 0 2.046-.138c.486-.336.722-.914.812-1.479.059-.376.063-.758.009-1.135-.048-.29-.498-.216-.45.074.038.244.044.492.018.738-.034.45-.154.942-.473 1.278-.407.422-1.114.508-1.645.303-.482-.184-.795-.616-.985-1.07a3.102 3.102 0 0 1-.234-.904l-.307.251a5.074 5.074 0 0 0 2.879.072 3.37 3.37 0 0 0 1.122-.523c.232-.18-.058-.532-.29-.352" fill="#000"/>
    <path d="M169.878 28.354s-.481-.91-1.287-1.146c-1.166-.34-1.858.459-2.455 1.658 0 0 2.04 1.484 3.742-.512z" fill="#fff"/>
    <path d="M170.081 28.26c-.366-.688-1.025-1.267-1.821-1.348-1.183-.121-1.875.95-2.339 1.874-.133.262.294.423.425.163.377-.749.942-1.706 1.919-1.578.616.082 1.139.583 1.409 1.078.138.258.551.064.414-.191" fill="#000"/>
    <path d="M166.72 28.48a.987.987 0 1 0 1.949-.32.987.987 0 0 0-1.949.32z" fill="#000"/>
    <path d="M166.94 28.023a.28.28 0 0 0 .501.119.279.279 0 1 0-.501-.12z" fill="#fff"/>
    <path d="m166.366 28.162-.565-.37-.079-.052a.228.228 0 0 0-.266.37l.564.37.08.052a.228.228 0 0 0 .266-.37z" fill="#000"/>
    <path d="M175.821 27.38s-.48-.911-1.286-1.147c-1.167-.34-1.859.459-2.455 1.658 0 0 2.039 1.484 3.741-.512z" fill="#fff"/>
    <path d="M176.027 27.284c-.365-.688-1.024-1.267-1.82-1.347-1.183-.122-1.875.95-2.34 1.873-.132.263.296.424.426.163.376-.749.944-1.706 1.918-1.578.616.082 1.139.584 1.41 1.079.138.257.553.063.414-.192" fill="#000"/>
    <path d="M172.667 27.505a.986.986 0 1 0 1.946-.318.986.986 0 0 0-1.946.318z" fill="#000"/>
    <path d="M172.887 27.047a.278.278 0 1 0 .55-.086.278.278 0 0 0-.55.086z" fill="#fff"/>
    <path d="m175.554 26.991.623-.593.087-.084c.067-.05.1-.134.087-.216a.229.229 0 0 0-.377-.135l-.622.593-.088.084a.228.228 0 0 0 .29.351zM172.465 35.538c.019-.023.051-.051.017-.02-.035.032-.042.04-.064.057l-.046.035-.026.019c-.035.022 0 0 .01-.002a.455.455 0 0 0-.066.037l-.082.04c-.03.005-.058.018-.085.03-.028.013.049-.008 0 0l-.05.009a.85.85 0 0 1-.105.017l-.054.009s-.067.002-.036.006l-.037.006-.063-.004a1.219 1.219 0 0 1-.129-.019l-.051-.01-.054-.016c-.053-.015-.106-.036-.163-.056a.229.229 0 0 0-.163.426c.37.164.79.175 1.167.029.172-.07.327-.177.452-.315a.23.23 0 0 0-.052-.318.235.235 0 0 0-.32.053M162.426 28.483s2.337-2.604 1.763-5.58c2.498 2.492 10.832-.952 10.832-.952s-3.85.405-4.213-.623c.293.847 5.049-.69 5.193.976-.492-5.722-5.396-8.882-8.844-8.448-4.991.627-12.203 6.528-7.835 13.766 1.41-1.67 3.105.867 3.105.867" fill="#000"/>
    <path d="M163.249 31.887s-2.545.962-4.058-1.62c-1.387-2.37.676-4.172 2.087-2.844 1.135 1.068 1.564 2.576 1.564 2.576" fill="#F8B498"/>
    <path d="M161.922 30.95c-1.496.335-2.899-2.234-1.61-2.3 1.29-.064 1.816 2.256 1.61 2.3z" fill="#DB7368"/>
    <path d="M162.037 30.266a4.086 4.086 0 0 0-.271-.82c-.201-.452-.498-.904-.955-1.124a1.269 1.269 0 0 0-.93-.032.232.232 0 0 0-.112.303c.058.11.19.155.303.105-.044.007.045-.007.055-.01l.09-.014.087-.014c.035-.006-.039-.002 0 0l.056.001a.987.987 0 0 1 .157.02c-.057-.013.031.011.043.015a.553.553 0 0 1 .08.032c.022.009.042.02.062.03-.052-.029.021.013.03.02.046.03.091.062.133.098l.027.022c.043.037-.024-.023 0 0l.055.057c.039.041.076.085.111.128.035.044.061.083.089.124.006.01.013.021.021.03.032.05-.017-.027 0 0a3.534 3.534 0 0 1 .302.64l.043.122.019.057a.218.218 0 0 1 .004.026c.017.048-.006-.036-.002-.012.023.085.051.169.068.257a.234.234 0 0 0 .262.188.229.229 0 0 0 .188-.262" fill="#000"/>
    <path d="M161.165 28.89a1.043 1.043 0 0 0-.275.074.986.986 0 0 0-.449.342.979.979 0 0 0-.162.406.228.228 0 1 0 .454.049l.007-.037c.011-.05-.014.05.002.01.017-.04.011-.037.019-.057a.356.356 0 0 1 .022-.053c-.002-.007.024-.047 0 0-.025.048 0 0 0 0a.475.475 0 0 1 .062-.088s.034-.038 0 0c-.034.037-.009.001 0 0a.369.369 0 0 1 .039-.036c.024-.021.051-.04.077-.059.026-.02-.06.038-.021.014l.018-.01.038-.02a.959.959 0 0 1 .145-.06l-.059.018a.816.816 0 0 1 .149-.032.229.229 0 0 0-.074-.45" fill="#000"/>
    <path d="M163.153 31.68c-.027.004-.125.038-.042.006a3.454 3.454 0 0 1-1.064.139 3.032 3.032 0 0 1-2.243-1.088c-.632-.745-1.156-1.909-.647-2.855a1.201 1.201 0 0 1 1.776-.446c.554.393.967 1.042 1.274 1.64.119.23.224.467.316.71.027.07.052.145.074.208a.162.162 0 0 0 .023.069l-.005-.029c.081.278.531.207.45-.074a6.075 6.075 0 0 0-1.635-2.704 1.767 1.767 0 0 0-1.299-.51 1.646 1.646 0 0 0-1.121.565c-.782.873-.552 2.177.003 3.1.572.952 1.451 1.665 2.567 1.836a3.562 3.562 0 0 0 1.762-.155c.275-.102.084-.516-.191-.414" fill="#000"/>
    <path d="M170.425 14.575c1.174.818-.996 1.728-3.298 4.204-2.303 2.477-5.411 5.357-4.061 11.183.015-.485-3.711-4.376-4.089-9.017-.444-5.446 8.215-8.623 11.448-6.37z" fill="#000"/>
    <path d="M160.266 16.724s-1.442 3.582-1.182 7.449c0 0-.838-2.383-.466-4.982.372-2.599 1.648-2.467 1.648-2.467z" fill="#F5A251"/>
    <path opacity=".12" d="M163.547 184.594c0 3.237-30.414 5.86-67.933 5.86-37.518 0-67.935-2.623-67.935-5.86s30.414-5.863 67.935-5.863 67.933 2.626 67.933 5.863z" fill="#000"/>
    <path d="M149.063 171.249a43.668 43.668 0 0 1-4.268 3.75c-7.7 5.927-18.345 10.193-32.486 11.615-72.311 7.265-96.205-26.803-102.046-79.208-2.6-23.357 3.49-38.77 11.036-48.681a52.134 52.134 0 0 1 2.407-2.928c.46-.515.929-1.03 1.411-1.518a42.917 42.917 0 0 1 37.67-12.425c10.874 1.804 20.752 7.629 28.767 19.286 12.832 18.638.69 34.663 37.326 35.736 28.043.822 45.813 48.709 20.183 74.373z" fill="#F5C704"/>
    <path d="M46.057 58.075c-5.68 2.062-16.251 18.373-6.378 52.099 9.873 33.725 22.949 31.071 31.398 31.071 14.759 0 44.912-11.386 50.745-22.383 5.834-10.997-5.438-14.232-26.077-15.858-20.64-1.626-28.39-52.712-49.688-44.929z" fill="#F9A906"/>
    <path d="M56.9 155.399a.62.62 0 0 1-.423-1.067c7.38-7.046 14.43-11.198 19.045-13.44 5.02-2.438 8.251-3.193 8.387-3.224a.615.615 0 0 1 .617.163.62.62 0 0 1-.342 1.04c-.149.034-12.996 3.121-26.86 16.358a.613.613 0 0 1-.424.17z" fill="#CC023B"/>
    <path d="M59.338 147.142a.615.615 0 0 1-.344-1.129c.287-.193 7.158-4.771 17.793-5.928a.617.617 0 0 1 .133 1.227c-10.337 1.134-17.172 5.688-17.238 5.734a.62.62 0 0 1-.344.103M37.041 96.115a.617.617 0 0 1-.61-.541 34.676 34.676 0 0 0-6.363-15.93c-2.623-3.608-5.063-5.556-5.09-5.574a.623.623 0 0 1 .158-1.066.617.617 0 0 1 .613.091c.103.083 2.566 2.047 5.297 5.786a35.93 35.93 0 0 1 6.616 16.541.618.618 0 0 1-.534.688h-.077" fill="#F6A706"/>
    <path d="M149.063 171.249a43.668 43.668 0 0 1-4.268 3.75c-8.9 5.368-19.762 8.896-31.716 10.278a98.95 98.95 0 0 1-41.637-4.162c-25.382-8.248-43.694-25.92-51.567-49.741-4.317-13.059-6.434-25.757-6.299-37.743.106-9.603 1.653-18.77 4.597-27.252a76.884 76.884 0 0 1 3.134-7.67 52.211 52.211 0 0 1 2.407-2.927c.46-.516.929-1.031 1.411-1.518a72.053 72.053 0 0 0-5.751 12.615c-4.537 13.118-7.92 34.883 1.732 64.085 7.74 23.412 25.757 40.78 50.738 48.906 26.537 8.631 57.232 5.134 76.377-8.706a.648.648 0 0 1 .842.069" fill="#F6A706"/>
    <path d="M124.13 163.768c.29 6.56-.831 12.486 2.408 14.686 3.373 2.293 2.588 2.681 12.356 6.183-7.111 1.598-22.775-.637-22.775-.637s-.749-16.453.121-21.279c.958-5.316 7.89 1.047 7.89 1.047z" fill="#F8B498"/>
    <path d="M123.746 163.751c.122 2.962-.083 5.928.092 8.886.119 2.035.429 4.421 2.082 5.825.499.424 1.072.77 1.596 1.159.379.281.751.57 1.136.856a17.397 17.397 0 0 0 2.809 1.644c2.371 1.124 4.851 2.015 7.326 2.894l.028-.747c-1.621.331-3.269.51-4.924.537-1.939.064-3.883.021-5.82-.067-3.32-.155-6.638-.458-9.93-.85-.665-.081-1.335-.166-1.998-.259l.371.403c-.058-1.253-.1-2.506-.142-3.76-.079-2.701-.13-5.398-.151-8.092-.018-2.618-.012-5.23.218-7.828.084-.935.091-2.015.679-2.783a1.37 1.37 0 0 1 .933-.537c.426-.042.856.009 1.262.149 1.006.347 1.952.851 2.802 1.493a18.38 18.38 0 0 1 1.662 1.305c.031.025.059.051.087.077.364.334.924-.199.56-.528a15.6 15.6 0 0 0-4.134-2.8c-.904-.394-1.997-.689-2.961-.288-1.056.457-1.375 1.651-1.525 2.691-.352 2.426-.341 4.925-.353 7.372-.015 2.885.04 5.772.123 8.656.047 1.592.084 3.186.17 4.775l.004.074a.399.399 0 0 0 .371.401c1.912.273 3.837.482 5.757.666 3.787.393 7.592.563 11.397.508a29.219 29.219 0 0 0 5.706-.568.387.387 0 0 0 .295-.362.39.39 0 0 0-.268-.385c-2.248-.807-4.509-1.615-6.689-2.599a18.228 18.228 0 0 1-2.936-1.624c-.798-.556-1.558-1.17-2.368-1.72a4.565 4.565 0 0 1-1.662-1.901 9.478 9.478 0 0 1-.706-3.099c-.285-3.167-.003-6.364-.132-9.541-.019-.495-.787-.53-.767-.033z" fill="#000"/>
    <path d="M115.661 176.048c-1.7 1.814-2.104 12.158-2.104 12.158l25.378.715a1.795 1.795 0 0 0 1.841-1.752l.033-1.337s.823-2.169-7.496-5.154c-5.026-1.799-5.299-4.091-6.664-5.505a1.224 1.224 0 0 0-1.852.109 5.81 5.81 0 0 1-4.31 2.374c-3.667.178-4.826-1.608-4.826-1.608z" fill="#fff"/>
    <path d="M115.395 175.766c-.493.554-.741 1.301-.937 1.998a24.459 24.459 0 0 0-.619 3.067 65.503 65.503 0 0 0-.596 6.024c-.03.444-.054.889-.072 1.337a.394.394 0 0 0 .371.401l2.446.068 5.901.167 7.205.2 6.356.179c1.118.03 2.236.066 3.352.094a2.228 2.228 0 0 0 2.282-1.584 6.648 6.648 0 0 0 .107-1.587c.008-.086.011-.173.007-.26-.01-.074-.021.113-.016.067.004-.046.021-.096.029-.147.128-1.028-.933-1.941-1.649-2.489a17.641 17.641 0 0 0-3.779-2.077c-1.88-.804-3.878-1.33-5.563-2.526a9.544 9.544 0 0 1-2.356-2.566 9.014 9.014 0 0 0-.859-1.151 1.643 1.643 0 0 0-2.091-.348c-.35.218-.565.578-.845.873a5.804 5.804 0 0 1-.986.851 5.43 5.43 0 0 1-3.048.903c-1.272.013-2.778-.245-3.721-1.072a2.81 2.81 0 0 1-.282-.285c-.062-.072-.103-.138-.024-.046-.271-.41-.953-.053-.68.362.419.559.985.99 1.635 1.244a7.353 7.353 0 0 0 5.283.189 6.283 6.283 0 0 0 2.308-1.52c.254-.26.465-.638.77-.836a.853.853 0 0 1 .996.069c.321.309.598.661.823 1.046.29.429.577.86.905 1.27 2.269 2.833 5.984 3.415 9.053 4.999.982.459 1.885 1.07 2.678 1.811.114.116.222.238.322.365.017.032.045.058.066.085-.037-.068-.006-.011.012.023l.091.171c.047.089.09.18.128.273-.052-.13.018.084.031.141.013.057.009.056.014.086-.011-.064.004-.078 0 0-.005.079-.009.078-.01.113-.008-.016.018-.114.004-.037-.014.089-.02.179-.021.268.023.477.005.954-.055 1.428a1.427 1.427 0 0 1-1.432 1.132c-.853-.008-1.708-.047-2.561-.072l-5.844-.161-7.114-.199-6.295-.179-3.407-.095-.157-.004.368.403a79.09 79.09 0 0 1 .232-3.512c.135-2.092.432-4.169.887-6.214.108-.458.246-.909.414-1.349.061-.167.135-.328.222-.483a2.859 2.859 0 0 1 .189-.29c.039-.053-.03.03.042-.046.352-.371-.173-.938-.51-.572z" fill="#000"/>
    <path d="m140.828 185.442-2.463-.068-5.875-.171-7.155-.201-6.161-.171c-1-.029-2.011-.099-3.013-.086l-.041-.001a.389.389 0 0 0-.03.775l2.466.067 5.898.159 7.152.202 6.161.171c1.003.028 2.013.097 3.013.085h.043a.384.384 0 0 0 .386-.37.387.387 0 0 0-.357-.401l-.024.01zM129.84 180.931l1.215-.996.176-.144a.776.776 0 0 0-.501-1.336.861.861 0 0 0-.56.211l-1.214.995-.175.146a.774.774 0 0 0 .499 1.334.852.852 0 0 0 .562-.211l-.002.001zM131.936 181.871l1.215-.995.176-.144a.776.776 0 0 0-.501-1.336.86.86 0 0 0-.56.21l-1.214.996-.175.146a.765.765 0 0 0-.239.529.79.79 0 0 0 .209.563c.14.145.329.231.529.242a.85.85 0 0 0 .56-.211zM134.157 182.786l1.225-1.004.177-.144a.775.775 0 0 0-.5-1.334.847.847 0 0 0-.561.208l-1.214.999-.176.143a.776.776 0 0 0 .5 1.334.85.85 0 0 0 .561-.208l-.012.006z" fill="#000"/>
    <path d="M124.413 175.256c.043.739.318 1.447.785 2.022a4.584 4.584 0 0 0 2.361 1.664 5.516 5.516 0 0 0 2.127.174.393.393 0 0 0 .292-.462.397.397 0 0 0-.45-.301 4.089 4.089 0 0 1-3.32-1.083 3.845 3.845 0 0 1-.779-1.087 2.161 2.161 0 0 1-.181-.487 2.647 2.647 0 0 1-.047-.232c-.009-.016-.015-.153-.01-.05l-.004-.112c.003-.498-.766-.529-.769-.032l-.005-.014zM134.852 185.759a6.758 6.758 0 0 1 .55-1.533c.189-.397.445-.757.757-1.065a1.503 1.503 0 0 1 1.07-.447c.496.008.527-.764.031-.772-1.685-.027-2.59 1.742-3.022 3.133-.045.15-.089.302-.124.455a.402.402 0 0 0 .257.484.391.391 0 0 0 .481-.255z" fill="#000"/>
    <path d="M132.671 110.439c-.67-2.213-2.823-3.141-5.952-3.139-5.764 0-36.286 6.09-36.286 6.09l-4.143 9.106 31.48-.694c-1.817 17.17-3.654 47.715-3.654 47.715l12.614-.211s8.045-51.926 5.951-58.856" fill="#4B4B4B"/>
    <path d="M153.147 158.839c3.136 5.769 4.726 11.587 8.602 12.144 4.037.583 3.502 1.276 13.816.141-5.691 4.554-20.749 9.411-20.749 9.411s-7.886-14.459-9.22-19.178c-1.47-5.198 7.551-2.518 7.551-2.518z" fill="#F8B498"/>
    <path d="M152.794 158.992c1.408 2.609 2.524 5.365 3.978 7.947.999 1.776 2.324 3.785 4.425 4.322.634.162 1.301.222 1.943.343.463.086.924.183 1.395.271 1.073.183 2.16.266 3.246.246 2.624-.029 5.243-.315 7.854-.61l-.303-.684a26.778 26.778 0 0 1-4.19 2.641c-1.715.908-3.481 1.722-5.26 2.491-3.053 1.316-6.167 2.499-9.298 3.59-.634.218-1.273.436-1.91.642l.511.2c-.602-1.1-1.189-2.209-1.776-3.317a373.232 373.232 0 0 1-3.684-7.207c-1.163-2.345-2.303-4.696-3.235-7.131-.334-.877-.802-1.851-.61-2.8.071-.367.289-.689.603-.891a2.97 2.97 0 0 1 1.2-.419 10.09 10.09 0 0 1 3.173.113 18.391 18.391 0 0 1 2.178.475c.474.142.743-.583.271-.72a15.622 15.622 0 0 0-4.942-.704c-.986.042-2.097.256-2.787 1.04-.75.873-.513 2.086-.192 3.087.747 2.335 1.853 4.575 2.914 6.78 1.252 2.6 2.567 5.17 3.905 7.726.741 1.41 1.473 2.827 2.247 4.217l.036.065c.09.19.314.277.509.198a126.385 126.385 0 0 0 5.466-1.925 96.687 96.687 0 0 0 10.466-4.54 29.288 29.288 0 0 0 4.88-3.011.39.39 0 0 0-.303-.684c-2.375.261-4.761.525-7.152.597a18.225 18.225 0 0 1-3.35-.173c-.962-.149-1.914-.369-2.883-.508a4.562 4.562 0 0 1-2.327-.98 9.495 9.495 0 0 1-1.993-2.476c-1.645-2.721-2.793-5.718-4.301-8.518-.234-.436-.94-.131-.704.307z" fill="#000"/>
    <path d="M150.918 173.589c-.733 2.376 3.438 11.85 3.438 11.85l23.123-10.482a1.794 1.794 0 0 0 .887-2.382l-.556-1.216s-.211-2.311-8.997-1.347c-5.306.586-6.556-1.353-8.403-2.026a1.223 1.223 0 0 0-1.617.91 5.81 5.81 0 0 1-2.833 4.023c-3.218 1.767-5.042.67-5.042.67z" fill="#fff"/>
    <path d="M150.554 173.452c-.2.714-.095 1.495.034 2.207.198 1.025.461 2.036.788 3.028a65.745 65.745 0 0 0 2.105 5.675c.168.412.342.823.522 1.233a.391.391 0 0 0 .509.198l2.228-1.01 5.378-2.438 6.563-2.978 5.791-2.626c1.018-.463 2.038-.92 3.054-1.385a2.227 2.227 0 0 0 1.357-2.424 6.758 6.758 0 0 0-.599-1.473 2.104 2.104 0 0 0-.108-.237c-.042-.062.03.111.014.068-.016-.044-.023-.096-.038-.145-.336-.98-1.69-1.336-2.573-1.514a17.657 17.657 0 0 0-4.307-.211c-2.042.102-4.068.505-6.108.168a9.534 9.534 0 0 1-3.241-1.273 9.17 9.17 0 0 0-1.277-.658 1.643 1.643 0 0 0-2.032.604c-.219.349-.255.767-.377 1.154a5.845 5.845 0 0 1-.513 1.198 5.42 5.42 0 0 1-2.344 2.148c-1.137.569-2.605.997-3.814.667a2.785 2.785 0 0 1-.379-.132c-.087-.038-.153-.079-.042-.03-.423-.251-.88.369-.452.623a3.742 3.742 0 0 0 2.015.401 7.348 7.348 0 0 0 4.831-2.146 6.275 6.275 0 0 0 1.408-2.378c.114-.345.139-.778.326-1.089a.852.852 0 0 1 .926-.374 4.87 4.87 0 0 1 1.198.578c.448.26.895.521 1.37.745 3.281 1.553 6.875.446 10.328.525a10.353 10.353 0 0 1 3.2.454c.154.054.304.116.45.187.03.021.066.032.097.048l.02.015.157.113c.081.06.16.123.235.19-.104-.094.053.067.09.113.036.046.033.046.05.071-.038-.053-.03-.072 0 0 .03.073.026.074.041.106-.015-.01-.035-.11-.013-.035.027.086.06.169.099.25.229.419.422.856.576 1.307a1.427 1.427 0 0 1-.791 1.646c-.77.367-1.555.707-2.333 1.058l-5.324 2.417-6.481 2.939-5.736 2.599-3.104 1.409-.142.065.507.2a80.009 80.009 0 0 1-1.332-3.258 40.68 40.68 0 0 1-1.926-5.973c-.103-.46-.177-.926-.22-1.394a3.26 3.26 0 0 1 .014-.774.904.904 0 0 1 .017-.102c.012-.064-.014.041.018-.06.154-.487-.567-.767-.71-.29z" fill="#000"/>
    <path d="m177.656 171-2.244 1.018-5.356 2.422-6.519 2.956-5.612 2.547c-.911.413-1.85.793-2.745 1.244l-.038.017a.388.388 0 0 0 .313.709l2.245-1.02 5.371-2.443 6.517-2.954 5.613-2.546c.913-.415 1.852-.796 2.745-1.245l.039-.019a.384.384 0 0 0 .184-.502.387.387 0 0 0-.496-.204l-.017.02zM165.803 171.762l.655-1.428.096-.206a.771.771 0 0 0-.193-.834.77.77 0 0 0-.843-.147.856.856 0 0 0-.411.434l-.655 1.427-.094.208a.773.773 0 0 0 1.034.98.854.854 0 0 0 .412-.436l-.001.002zM168.099 171.688l.655-1.427.096-.206a.774.774 0 0 0-.445-.992.778.778 0 0 0-.592.01.866.866 0 0 0-.411.435l-.654 1.427-.094.208a.77.77 0 0 0 .018.581.793.793 0 0 0 .434.414.801.801 0 0 0 .582-.015.85.85 0 0 0 .411-.435zM170.497 171.537l.66-1.44.096-.206a.775.775 0 0 0-1.034-.98.843.843 0 0 0-.413.433l-.653 1.429-.096.206a.774.774 0 0 0 1.034.98.843.843 0 0 0 .413-.433l-.007.011z" fill="#000"/>
    <path d="M158.437 169.04a3.555 3.555 0 0 0 1.592 1.474 4.593 4.593 0 0 0 2.852.46 5.488 5.488 0 0 0 1.988-.776.393.393 0 0 0 .06-.543.398.398 0 0 0-.537-.073 4.092 4.092 0 0 1-3.459.482 3.85 3.85 0 0 1-1.175-.636 2.136 2.136 0 0 1-.377-.359 2.38 2.38 0 0 1-.144-.187c-.015-.011-.08-.131-.031-.041l-.052-.099c-.216-.448-.921-.139-.706.309l-.011-.011zM172.423 173.904a6.741 6.741 0 0 1-.177-1.619 3.794 3.794 0 0 1 .213-1.289c.129-.381.405-.695.767-.871.448-.21.138-.918-.311-.708-1.526.716-1.565 2.702-1.343 4.142.025.154.052.31.087.463a.405.405 0 0 0 .444.323.393.393 0 0 0 .32-.441zM126.719 168.909h-12.603l.385.386c.033-.438.069-.876.102-1.311.093-1.203.186-2.4.28-3.591l.416-5.285.513-6.443.554-7.098c.189-2.376.375-4.753.56-7.131l.513-6.65.439-5.623.318-4.062c.049-.636.128-1.288.149-1.915v-.085c.039-.494-.731-.492-.77 0-.033.438-.069.877-.103 1.312l-.282 3.59-.413 5.286-.513 6.443-.557 7.098a4600.26 4600.26 0 0 0-.557 7.131l-.513 6.649-.439 5.624c-.108 1.354-.214 2.708-.319 4.061-.048.637-.128 1.289-.151 1.915v.085a.391.391 0 0 0 .385.387h12.614a.386.386 0 0 0 0-.773" fill="#000"/>
    <path d="m59.377 119.359.551 3.459c.19 2.334.5 4.657.932 6.958.654 3.278 6.258 15.008 22.563 11.518 14.448-3.093 32.216-7.298 32.216-7.298s11.473 15.42 22.64 25.109c1.178 1.022 9 9.289 9 9.289l10.584-5.967s-15.707-31.602-26.93-47.508c-4.727-6.701-71.554 4.435-71.554 4.435" fill="#4B4B4B"/>
    <path fill-rule="evenodd" clip-rule="evenodd" d="M62.981 67.466s8.7 2.467 10.477-1.727c1.915-1.536 7.385 2.692 7.385 2.692s5.239 28.1 8.937 33.485c3.698 5.384 8.466 10.052 8.466 10.052l-7.457 2.941-31.135 4.033 3.327-51.476z" fill="#fff"/>
    <path fill-rule="evenodd" clip-rule="evenodd" d="M77.27 81.451c-.618-.053-1.186.318-1.427.93-.055.143-.09.295-.104.45-.316-.831-1.178-1.252-1.927-.94-.356.149-.639.448-.787.832a1.65 1.65 0 0 0-.104.45c-.223-.577-.72-.98-1.285-1.038-.618-.053-1.187.317-1.428.93-.31.808.048 1.765.8 2.137.409.203.872.197 1.261-.015.428-.239.714-.697.764-1.226.082.223.208.424.369.59.603.62 1.532.61 2.076-.026.211-.247.341-.564.372-.905.083.222.209.423.37.59.604.62 1.534.608 2.078-.028.296-.346.428-.825.362-1.304-.112-.761-.69-1.355-1.39-1.427zM73.69 89.79c.243.678.71 1.283 1.398 1.401.665.11 1.297-.275 1.547-.942.142-.398.06-.82.001-1.235l-.115-.838-.127-.923c-.054-.394-.116-.778.014-1.156.26-.769 1.052-1.136 1.766-.819a1.5 1.5 0 0 1 .696.648c.184.331.212.71.264 1.08l.126.915c.09.66.223 1.342.195 2.005-.067 1.55-.824 2.938-2.029 3.713-1.216.758-2.723.782-4.013.065a4.482 4.482 0 0 1-1.58-1.519c-.397-.63-.696-1.442-.682-2.204.015-.772.6-1.36 1.308-1.312.374.025.726.228.963.555.125.17.196.365.267.566z" fill="#FDAF27"/>
    <mask id="n4mu0bkqgb" style="mask-type:alpha" maskUnits="userSpaceOnUse" x="72" y="60" width="37" height="56">
        <path fill-rule="evenodd" clip-rule="evenodd" d="M108.565 110.409s-10.95 1.057-15.057 3.79c-3.356 2.232-8.388.731-9.285-3.199l-11.63-50.949 20.536 1.968 15.436 48.39z" fill="#fff"/>
    </mask>
    <g mask="url(#n4mu0bkqgb)">
        <path d="m122.866 129.823-11.168 9.01s-17.91-10.524-24.652-26.327l1.485-.182c.057.128 5.993 3.198 14.238 6.664 6.99 2.938 15.266 6.362 20.097 10.835z" fill="#CE5B0D"/>
        <path d="M73.423 61.3s8.943 18.965 9.489 29.835c1.831 36.607 24.768 42.994 24.768 42.994l14.694-8.543s-30.968-13.808-30.36-25.188c1.055-19.764-.67-31.244-2.853-34.347C86.978 62.95 73.423 61.3 73.423 61.3z" fill="#FDAF27"/>
        <path d="M90.14 116.969s-.947-4.332-1.95-8.787c-.578-2.606 1.863-18.228-1.745-34.367l-6.03 2.959 2.91-4.172c-4.547-11.262-10.733-12.55-10.733-12.55s11.253 46.831 12.872 49.675c1.618 2.845 2.944 5.787 4.677 7.242z" fill="#BA8426"/>
    </g>
    <path d="M69.177 116.302c-.58 2.577-1.009 5.198-1.383 7.814-.201 1.41-.38 2.817-.537 4.221-.053.494.708.609.761.114.413-3.798.988-7.581 1.765-11.32.05-.242.1-.485.154-.727.108-.486-.653-.595-.761-.112v.01zM73.422 66.493c-.058.116.05-.069-.026.044-.076.114-.144.215-.22.316a4.04 4.04 0 0 1-.894.847c-1.227.888-2.817 1.125-4.313.963-1.52-.196-3-.635-4.382-1.3-.452-.204-.756.503-.304.71 3.202 1.455 7.8 2.459 10.417-.64.17-.195.317-.407.44-.634.23-.444-.48-.746-.708-.308l-.01.002z" fill="#000"/>
    <path d="m71.357 155.03-20.393-3.933s5.575-30.576 5.734-43.288c.014-1.147-.385-2.144-.696-2.994-1.302-3.569-3.022-8.226-4.681-12.982-3.321-9.503-6.479-19.91-5.566-22.268 1.375-3.544 16.78-8.356 16.78-8.356s6.294 21.256 8.457 31.382c4.234 19.782.365 62.439.365 62.439z" fill="#FDAF27"/>
    <path d="m56.9 108.231-.192-.418a14.672 14.672 0 0 0-.696-2.994c-1.302-3.569-3.022-8.226-4.681-12.982.518-1.193 2.052-3.4 2.73-4.726 2.734 4.901 3.232 15.525 2.838 21.12z" fill="#6113BC"/>
    <path d="M72.978 119.076s-14.412-18.398-16.574-42.133l7.715.645-6.645-3.575c-.298-9.76 4.623-15.002 4.623-15.002s12.418 28.51 10.88 60.065z" fill="#BA8426"/>
    <path d="m102.912 93.848-1.7 1.514-4.81-12.049" stroke="#000" stroke-width=".729"/>
    <path d="m99.463 97.525 11.984-12.61.531 5.284s-9.623 16.531-15.243 18.303c-.78.073-3.233-3.766-3.233-3.766l5.96-7.212z" fill="#F8B498"/>
    <path d="M89.354 65.775s2.658 2.842 5.107 11.31c2.023 7.026 4.965 13.564 6.75 18.278.241.635 2.722-3.058 2.915-2.492 0 0 6.968.26 5.688 1.742-2.844 3.295-9.201 13.72-13.413 13.806-1.13.023-4.609-6.643-4.951-7.208-3.29-5.434-1.961-24.489-1.961-24.489l-.135-10.947z" fill="#FDAF27"/>
    <path clip-rule="evenodd" d="m109.663 93.848-5.851-1.927-.901 1.927 5.49 2.381 1.262-2.381z" stroke="#000" stroke-width=".729"/>
    <path d="M89.627 80.005a.384.384 0 0 1 .506.202c2.713 6.334 3.212 11.625 1.471 15.863-1.612 3.925 1.242 9.182 8.683 15.738.16.141.176.385.035.546a.383.383 0 0 1-.543.035c-7.588-6.686-10.606-12.17-8.939-16.483l.052-.13c1.408-3.428 1.267-7.63-.44-12.61l-.13-.37a38.871 38.871 0 0 0-.896-2.283.387.387 0 0 1 .201-.508zM100.354 92.994c-.677-1.912-1.35-3.825-2.02-5.74-1.09-3.108-2.183-6.219-3.249-9.34-.62-1.832-1.195-3.676-1.833-5.5-.66-1.896-1.337-3.89-2.442-5.58a4.021 4.021 0 0 0-1.332-1.386c-.405-.214-.82-.406-1.245-.575-1.306-.553-2.634-1.048-3.964-1.539a374.208 374.208 0 0 0-6.92-2.46l-.13-.045c-.424-.145-.605.532-.183.677 1.964.672 3.922 1.364 5.875 2.074 1.411.513 2.818 1.034 4.213 1.59.504.203.998.404 1.488.628.406.163.774.407 1.084.717a8.112 8.112 0 0 1 1.24 1.97c.449.939.851 1.899 1.204 2.878.74 2.001 1.372 4.037 2.05 6.06.998 2.984 2.042 5.952 3.082 8.92.784 2.245 1.56 4.493 2.365 6.73.014.036.026.07.037.108.151.42.824.234.673-.187" fill="#000"/>
    <path d="M110.665 76.916a1.675 1.675 0 0 1-.039.234l-3.538 15.179a2.494 2.494 0 0 1-2.293 1.868h-7.836c-.984-.038-1.586-.857-1.351-1.868l3.54-15.18a2.494 2.494 0 0 1 2.293-1.868h7.764a1.4 1.4 0 0 1 1.118.467c.283.317.409.747.342 1.168z" fill="#000"/>
    <path d="M110.665 76.916a1.677 1.677 0 0 1-.04.234l-3.537 15.179a2.494 2.494 0 0 1-2.293 1.868h-7.837a2.2 2.2 0 0 1 .042-.234l3.54-15.179a2.494 2.494 0 0 1 2.293-1.868h7.832z" fill="#000"/>
    <path d="m88.133 96.329-1.016-6.8s-20.587 10.303-26.61 12.246c-.396.94-.728 1.905-.993 2.891l-2.354-.867-4.025 6.088c1.764 2.212 2.567 2.786 4.775 2.98 2.04.18 30.223-16.538 30.223-16.538z" fill="#F8B498"/>
    <path d="M45.775 69.579c-.702 1.385-2.069 4.79-2.009 7.337.278 11.771 8.338 31.407 8.338 31.407s1.699 6.056 7.419 4.45c5.013-1.407 24.78-13.491 24.78-13.491s-4.187-6.093-2.966-6.898c.595-.392-18.275 8.72-18.275 8.72l-6.61-18.572L45.775 69.58z" fill="#FDAF27"/>
    <path d="m81.027 92.607 3.327 6.853M78.496 93.848l4.088 6.582M50.025 103.089s1.793 4.989 2.74 6.731c.982 1.809 1.771 3.181 4.005 3.048 6.181-.366 27.059-13.658 27.663-14.012" stroke="#000" stroke-width=".729"/>
    <path d="m62.582 100.497-1.968-6.132a7898.69 7898.69 0 0 0-3.113-9.7c-.236-.743-.474-1.485-.712-2.226-.137-.427-.81-.234-.671.187l1.968 6.134 3.113 9.701.712 2.223c.137.427.81.234.671-.187z" fill="#000"/>
    <path d="m86.31 97.21 3.676-1.778a42.303 42.303 0 0 1 5.22-.34c.314-.003.626-.046.929-.127 1.952-.528 1.952-1.198 2.3-3.37.272-1.688.945-3.246.146-4.275a2.49 2.49 0 0 0-.636-.596s1.047.33 1.927-1.635c.485-1.08-.17-1.996-1.265-1.557-2.941 1.18-4.046.656-5.82 1.522-2.441 1.198-3.15 2.336-4.305 3.12l-6.267 5.18 4.094 3.855z" fill="#F8B498"/>
    <path d="M62.834 101.187a22.976 22.976 0 0 0 3.102-1.137c1.645-.685 1.667-.816 3.29-1.566 3.838-1.749 7.645-3.568 11.443-5.406 1.6-.778 3.196-1.557 4.788-2.335.594-.292 1.233-.549 1.801-.887.136-.094.262-.202.374-.323.258-.233.513-.467.77-.714.697-.63 1.377-1.257 2.09-1.857.531-.448 1.1-.852 1.655-1.272.633-.481 1.457-.563 2.195-.806.87-.285 1.734-.593 2.614-.843.425-.128.858-.23 1.295-.308.27-.056.546-.061.817-.017.095.105.2.201.288.313a.96.96 0 0 1 .232.584 1.744 1.744 0 0 1-.743 1.282c-.64.448-1.508.63-2.246.7-.523.047-1.045.122-1.565.185l-.72.087c-.438.053-.445.756 0 .7l1.96-.233c.522-.043 1.04-.121 1.552-.234 1.054-.275 1.948-.806 2.34-1.868a1.574 1.574 0 0 0-.232-1.544c-.26-.35-.51-.616-.952-.665-.817-.091-1.713.212-2.486.443-.85.253-1.685.556-2.53.827-.844.271-1.69.406-2.402.986-.571.467-1.18.868-1.74 1.347a73.914 73.914 0 0 0-2.09 1.868l-.717.668a1.325 1.325 0 0 1-.144.135c.107-.072-.016 0-.032 0-.073.031-.143.066-.212.106-1.428.703-2.856 1.404-4.285 2.101a728.47 728.47 0 0 1-11.647 5.551c-1.776.822-1.95 1.05-3.747 1.822-1.23.533-2.47 1.07-3.746 1.483a7.34 7.34 0 0 1-.553.161c-.434.11-.25.787.186.678" fill="#000"/>
    <path d="M111.979 90.197c-1.029 1.433-1.24 1.354-3.744 1.167-.516-.04-1.641-1.635-1.625-2.202-1.725-1.635-.118-2.86-.118-2.86a2.493 2.493 0 0 1 .211-2.64c-.513-.546-.365-1.653.155-2.01.52-.357 2.554-1.76 4.355-.934 2.472 1.135 1.931 2.052 2.302 2.802" fill="#F8B498"/>
    <path d="M106.554 83.994c.446-.142.866-.357 1.307-.511a3.092 3.092 0 0 1 1.513-.166.36.36 0 0 0 .427-.234.352.352 0 0 0-.232-.432 3.838 3.838 0 0 0-1.803.143c-.465.154-.915.385-1.393.537-.427.135-.232.81.186.675M106.322 86.593c.446-.142.866-.357 1.307-.509a3.066 3.066 0 0 1 1.513-.168.359.359 0 0 0 .427-.233.355.355 0 0 0-.232-.432 3.837 3.837 0 0 0-1.803.142c-.465.154-.915.385-1.393.537-.427.136-.232.813.186.675M106.707 89.178c.049-.044.1-.09.151-.133l.086-.072c.042-.033 0 0-.014 0a1.894 1.894 0 0 1 .371-.236c.04-.019.151-.068.065-.033.092-.037.186-.07.281-.095l.142-.03.09-.017h.033c.255-.023.512-.015.766.023a.357.357 0 0 0 .427-.233.355.355 0 0 0-.232-.432 3.147 3.147 0 0 0-1.683.126 3.28 3.28 0 0 0-.966.642.353.353 0 0 0 0 .495.351.351 0 0 0 .492 0" fill="#000"/>
    <path d="M96.91 108.804a29.955 29.955 0 0 0 3.644-2.87 44.871 44.871 0 0 0 4.612-4.956 73.13 73.13 0 0 0 5.38-7.678c.505-.817.996-1.642 1.474-2.475.125-.185.228-.383.309-.591.077-.234.13-.467.193-.717a88.074 88.074 0 0 0 1.211-5.327c.052-.208.09-.42.116-.632a1.966 1.966 0 0 0-.144-.673c-.28-.897-.791-1.854-1.664-2.289a2.508 2.508 0 0 0-.838-.233c-.443-.054-.441.647 0 .7.929.115 1.493 1.035 1.776 1.85.051.145.095.294.135.444a1.1 1.1 0 0 0 .053.233c0-.016.032-.266 0-.089-.03.124-.046.255-.07.381a84.547 84.547 0 0 1-1.07 4.808c-.086.49-.218.971-.394 1.436-.195.407-.465.794-.697 1.184-.232.39-.45.76-.68 1.138-2.75 4.53-5.879 8.927-9.749 12.577a29.78 29.78 0 0 1-3.946 3.179c-.373.247-.025.852.351.604M62.612 55.093c.21.03.357.226.327.437l-.057.4-.09.622-.087.566-.066.411-.048.285-.046.265-.045.244-.043.225-.055.268-.04.178-.038.158-.025.094-.024.085-.012.04a.387.387 0 0 1-.133.193 3.385 3.385 0 0 0-.905 1.094l-.056.11-.06.126-.064.137-.098.218-.184.425-.214.505-.035.062a.385.385 0 0 1-.223.175l-.209.062-.106.033-.218.069-.224.073-.346.116-.239.083-.245.087-.25.09-.258.095-.396.15-.272.104-.42.164-.432.174-.296.12-.455.189-.47.197-.482.206-.329.142-.676.297-.523.233-.537.243-.55.25-.563.26-.577.27-.591.277-.809.385-.832.4-.64.311-.382.187-.058.055c-3.223 3.077-4.367 7.546-3.416 13.45l.03.18c.077.46.16.925.247 1.396l.107.57.113.574.118.581c.02.098.04.195.062.293l.125.59c.064.297.13.596.199.897l.139.605c.07.305.143.611.217.92l.152.62c.077.312.157.626.237.943l.165.636.084.32.173.645.178.65.182.658.094.33.19.666c.129.447.261.897.397 1.351l.206.684.105.345.214.694.219.699.224.706.114.355.232.715.237.72.242.727.248.733.125.369.256.742.276.795-.155.834a.385.385 0 0 1-.455-.247l-.264-.754-.13-.375-.257-.746-.25-.74-.247-.733-.12-.365-.24-.724-.116-.36-.23-.715c-.077-.238-.152-.474-.226-.71l-.22-.703c-.037-.117-.073-.233-.108-.35l-.213-.693c-.14-.461-.276-.918-.409-1.37l-.197-.677c-.065-.224-.128-.447-.191-.67l-.187-.663-.18-.658-.177-.652-.086-.324-.168-.642c-.193-.747-.376-1.48-.548-2.202l-.145-.616a87.377 87.377 0 0 1-.07-.305l-.138-.606-.131-.6-.064-.299-.125-.591a84.678 84.678 0 0 1-.59-3.144c-1.053-6.293.181-11.114 3.72-14.42a.384.384 0 0 1 .094-.064l.662-.323.861-.416.837-.4.812-.383.787-.367.574-.265.375-.171.551-.25.537-.24.524-.23.51-.222.495-.212.482-.203.468-.194.304-.124.445-.179.29-.114.282-.11.277-.105.27-.102.265-.097.385-.139.371-.13.358-.12.23-.074.225-.071.155-.048.156-.372.11-.258.06-.135.087-.196.07-.15.068-.142.065-.13a4.246 4.246 0 0 1 .961-1.244l.076-.065.037-.143.025-.108.04-.18.055-.277.06-.317.078-.451.083-.515.089-.576.074-.505.077-.538a.385.385 0 0 1 .398-.332l.037.003z" fill="#000"/>
    <path fill-rule="evenodd" clip-rule="evenodd" d="m144.964 165.894 11.068-7.115c.194-.124 2.177 3.478 2.177 3.478a.387.387 0 0 1-.157.507l-10.584 5.967a.384.384 0 0 1-.464-.067l-2.108-2.175a.387.387 0 0 1 .068-.595zm12.393-3.625-1.273-2.605-10.308 6.626 1.573 1.622 10.008-5.643z" fill="#000"/>
    <path d="m56.09 112.718.763.111-5.477 37.972 19.679 3.727.103-1.635.1-1.495.099-1.393.069-.931.082-1.05.068-.816.066-.765.066-.712.066-.66.051-.491.045-.402.044-.377.044-.352.044-.326.044-.301.028-.187.03-.175.028-.165.028-.153.028-.142c.063-.3.125-.526.192-.685.126-.299.304-.488.625-.392l.056.016.116.031.124.03.064.014.133.028.139.026.146.025.075.012.156.023.162.021.168.02.175.018.182.017.188.016.293.02.309.018.213.01.22.008.227.007.352.008.242.003.376.003.39-.001.405-.004.419-.007.433-.011.448-.013.462-.017.476-.02.491-.024.505-.027.52-.03.533-.033.734-.049.346-.025 32.526-7.476.148.219c1.398 2.071 3.261 4.487 5.59 7.246l.472.556.24.282.491.57a185.19 185.19 0 0 0 2.086 2.372l.552.616.281.311.571.63.584.638.595.648.609.657.62.667.633.675.646.684.658.694.67.703.34.355.689.716.701.726.713.735.362.37.732.749.745.758.757.766.769.776.782.786.794.794.807.803.818.813.832.821.844.831.856.84.868.849.881.858.893.868-.534.556-1.312-1.275-.86-.839-1.268-1.242-.83-.817-.818-.808-.806-.8-.794-.79-.782-.782-.771-.773-.758-.765a66.65 66.65 0 0 1-.375-.379l-.741-.751-.729-.742-.716-.734-.705-.725-.693-.716-.681-.707-.67-.699-.33-.346-.651-.685-.64-.677-.315-.335-.621-.663-.61-.655-.301-.324-.591-.642-.58-.632-.568-.624-.28-.309-.55-.611-.538-.602c-.178-.199-.353-.397-.527-.594l-.514-.584-.503-.576c-.496-.572-.975-1.13-1.436-1.675l-.455-.541c-.224-.268-.444-.533-.66-.795l-.425-.519c-1.537-1.886-2.835-3.596-3.892-5.13l-.14-.204-32.07 7.372-.64.045-.787.052-.382.023-.56.031-.544.028-.354.017-.516.021-.5.018-.325.01-.317.007-.462.009-.298.004-.435.002-.418-.001-.27-.004-.263-.004-.255-.007-.248-.008-.241-.01-.234-.012-.226-.014-.22-.015-.212-.017-.204-.018-.198-.021-.19-.022-.184-.024-.176-.025a25.739 25.739 0 0 1-.169-.027l-.161-.029-.155-.031-.075-.016-.132-.031-.008.026a3.357 3.357 0 0 0-.049.182l-.033.147-.028.134-.027.141-.041.233-.042.258-.042.284-.028.204-.042.326-.058.475-.044.386-.053.496-.039.382-.078.819-.08.895-.053.638-.068.845-.082 1.083-.07.96-.084 1.222-.071 1.075-.102 1.593-.055.912-21.261-4.026 5.582-38.706z" fill="#000"/>
    <path d="M72.903 116.925c.2.002.363.157.38.353l.001.038-.281 24.108a.387.387 0 0 1-.77.028l-.002-.037.282-24.108a.385.385 0 0 1 .39-.382z" fill="#000"/>
    <path fill-rule="evenodd" clip-rule="evenodd" d="M114.51 163.45h13.587c.24 0 .421.218.378.455l-1.015 5.652a.386.386 0 0 1-.379.318h-13.353a.386.386 0 0 1-.381-.44l.782-5.652a.385.385 0 0 1 .381-.333zm12.25 5.652.876-4.879h-12.791l-.675 4.879h12.59z" fill="#000"/>
    <path fill-rule="evenodd" clip-rule="evenodd" d="M81.113 64.64c-1.003 4.595-2.622 6.578-7.2 8.437-4.422 1.796-23.429 8.822-25.403-5.62 9.343 2.06 32.603-2.816 32.603-2.816z" fill="#52005B"/>
    <path fill-rule="evenodd" clip-rule="evenodd" d="M78.066 56.692c3.352.71 6.416 11.717-3.478 13.611-8.326 1.594-19.113-3.914-19.287-11.506-.172-7.436 16.302-3.471 22.764-2.105z" fill="#52005B"/>
    <path fill-rule="evenodd" clip-rule="evenodd" d="M50.764 63.358c2.561-1.459 5.002-1.971 5.002-1.971l.82 1.21c2.612-.13 4.67.275 4.67.275l19.26 2.377c2.958 5.653-21.088 10.136-21.088 10.136-7.604-.122-10.393-5.516-10.693-7.929-.11-1.299-2.167 1.76-2.167 1.76-.279-1.277 1.942-4.575 4.196-5.858z" fill="#52005B"/>
    <path fill-rule="evenodd" clip-rule="evenodd" d="M77.749 58.364s-.148 4.83-3.835 5.257c-6.188.718-12.13-2.283-14.366-7.597 4.69 2.9 8.06 6.398 12.439 5.917 4.379-.481 5.762-3.577 5.762-3.577z" fill="#52005B"/>
    <path fill-rule="evenodd" clip-rule="evenodd" d="M78.175 56.294c1.456.322 2.37 1.89 2.878 3.164.702 1.756.867 3.785.38 5.618-.579 2.175-2.134 3.894-4.17 4.82-2.724 1.241-5.919 1.306-8.83.829-2.991-.491-5.936-1.647-8.4-3.426-2.22-1.604-4.156-3.8-4.863-6.503-.278-1.062-.429-2.27-.119-3.344.235-.815.742-1.496 1.415-2.003 1.589-1.197 3.813-1.401 5.733-1.447 2.561-.06 5.129.254 7.654.654 2.35.372 4.68.856 7.007 1.357l1.315.281c.52.11.3.907-.219.797-4.446-.941-8.91-1.964-13.46-2.218-2.059-.116-4.262-.138-6.232.56-1.467.52-2.514 1.558-2.55 3.142-.058 2.523 1.299 4.86 3.046 6.583 2.03 2 4.65 3.376 7.365 4.186 2.741.819 5.718 1.105 8.536.525 2.22-.457 4.341-1.567 5.439-3.63.842-1.584.963-3.488.572-5.219a7.876 7.876 0 0 0-.856-2.243c-.32-.552-.748-1.096-1.222-1.407-.264-.174-.351-.216-.638-.279-.519-.115-.3-.912.22-.797z" fill="#000"/>
    <path fill-rule="evenodd" clip-rule="evenodd" d="M81.934 29.64c2.062 4.754.52 33.27-9.948 32.301C57.77 60.625 55.314 43.467 54.028 38.58c-1.284-4.889.24-16.464 12.026-18.268 9.735-1.49 13.598 4.07 15.88 9.33z" fill="#F8B498"/>
    <path fill-rule="evenodd" clip-rule="evenodd" d="M82.613 32.959s-5.27-4.116-11.988-3.378c-7.006.768-10.748 5.781-10.748 5.781l3.255-10.565 11.451-.998 6.221 4.277 1.924 4.004-.115.879z" fill="#DB7368"/>
    <path fill-rule="evenodd" clip-rule="evenodd" d="M83.343 40.723c-.355 5.116-1.278 10.413-3.481 15.08-.896 1.897-2.074 3.77-3.75 5.07-.736.57-1.565 1.019-2.466 1.263-1.094.295-2.241.252-3.354.097-3.113-.433-5.809-2.167-7.925-4.434-.363-.388.22-.973.583-.584 1.79 1.916 3.988 3.45 6.572 4.04 1.101.253 2.325.397 3.446.188a6.045 6.045 0 0 0 2.305-.975c1.61-1.1 2.737-2.817 3.605-4.53 1.08-2.13 1.809-4.432 2.365-6.75.668-2.777 1.076-5.616 1.274-8.465.037-.527.862-.532.826 0zM68.996 40.677c-1.697-1.576-4.213-2.086-6.262-.972-.934.507-1.768-.92-.833-1.428 2.722-1.479 6.033-.838 8.263 1.231.78.725-.39 1.892-1.168 1.17zM73.919 39.508c.984-.958 2.392-1.525 3.733-1.739 1.394-.222 3.013-.13 4.044.964.73.773-.436 1.944-1.167 1.17-.048-.052-.1-.098-.148-.148-.106-.109.052.03-.023-.023-.108-.073-.219-.133-.332-.197-.149-.084.114.03-.066-.03-.058-.018-.115-.04-.173-.058-.132-.04-.266-.065-.4-.095-.155-.033.048.002-.05-.008a5.056 5.056 0 0 0-.638-.026 5.816 5.816 0 0 0-.453.026c-.018.002-.228.028-.14.016l-.182.031a7.485 7.485 0 0 0-1.499.44 6.07 6.07 0 0 0-.855.46l-.151.102c-.057.04-.126.092-.032.019a3.797 3.797 0 0 0-.3.265c-.763.742-1.932-.426-1.168-1.169z" fill="#000"/>
    <path fill-rule="evenodd" clip-rule="evenodd" d="M69.592 44.811s-.513-1.537-1.704-2.108c-1.723-.827-2.999.244-4.23 1.95 0 0 2.786 2.822 5.934.158z" fill="#fff"/>
    <path fill-rule="evenodd" clip-rule="evenodd" d="M69.194 44.921c-.044-.13-.045-.126-.083-.208a5.072 5.072 0 0 0-.35-.644c-.345-.533-.815-.957-1.43-1.144-1.453-.44-2.557.891-3.316 1.937-.31.426-1.026.014-.713-.417.971-1.337 2.336-2.836 4.168-2.34 1.232.334 2.12 1.416 2.52 2.596.17.505-.627.722-.796.22z" fill="#000"/>
    <path fill-rule="evenodd" clip-rule="evenodd" d="M64.666 44.202a1.552 1.552 0 1 0 3.103.002 1.552 1.552 0 0 0-3.103-.002z" fill="#000"/>
    <path fill-rule="evenodd" clip-rule="evenodd" d="M65.126 43.547a.436.436 0 1 0 .872 0 .436.436 0 0 0-.872 0z" fill="#fff"/>
    <path fill-rule="evenodd" clip-rule="evenodd" d="m63.653 44.163-.781-.72-.111-.102a.416.416 0 0 1 0-.584.421.421 0 0 1 .583 0l.781.72.111.102c.16.147.16.438 0 .584a.422.422 0 0 1-.583 0z" fill="#000"/>
    <path fill-rule="evenodd" clip-rule="evenodd" d="M80.715 44.811s-.513-1.537-1.704-2.108c-1.723-.827-2.998.244-4.23 1.95 0 0 2.787 2.822 5.934.158z" fill="#fff"/>
    <path fill-rule="evenodd" clip-rule="evenodd" d="M80.317 44.921c-.043-.13-.045-.126-.082-.208a5.06 5.06 0 0 0-.35-.644c-.346-.533-.815-.957-1.431-1.144-1.453-.44-2.556.891-3.315 1.937-.31.426-1.026.014-.713-.417.97-1.337 2.336-2.836 4.168-2.34 1.232.334 2.12 1.416 2.52 2.596.17.505-.627.722-.797.22z" fill="#000"/>
    <path fill-rule="evenodd" clip-rule="evenodd" d="M75.79 44.202a1.552 1.552 0 1 0 3.102.002 1.552 1.552 0 0 0-3.103-.002z" fill="#000"/>
    <path fill-rule="evenodd" clip-rule="evenodd" d="M76.25 43.547a.436.436 0 1 0 .871 0 .436.436 0 0 0-.871 0z" fill="#fff"/>
    <path fill-rule="evenodd" clip-rule="evenodd" d="m80.011 43.473 1.116-.763.158-.107a.42.42 0 0 1 .318-.042c.096.026.2.1.247.19.11.21.042.435-.148.565l-1.117.763-.157.108a.419.419 0 0 1-.318.041.42.42 0 0 1-.247-.19c-.11-.21-.043-.435.148-.565zM74.121 56.265c-.207.136-.48.203-.723.24-.698.106-1.402-.005-2.069-.226-.204-.068-.36-.289-.288-.509.066-.204.288-.361.508-.288.187.062.376.117.569.159.091.02.183.035.275.052.091.015-.06-.006.038.005a3.393 3.393 0 0 0 .698.014c.027-.002.06-.011.088-.01-.044-.002-.086.015-.015.002.154-.026.299-.067.446-.119.035-.012-.113.054-.029.011l.05-.024a.324.324 0 0 0 .036-.02c.181-.12.464-.043.564.147a.423.423 0 0 1-.148.566z" fill="#000"/>
    <path fill-rule="evenodd" clip-rule="evenodd" d="M62.768 58.18c-.425-.939-5.23-4.908-2.891-19.491C62.29 23.64 80.242 26.04 82.613 34.484c0 0 0-14.651-14.424-15.09-7.713-.235-15.35 6.458-16.316 14.839-.78 6.766.195 23.904 10.895 23.946z" fill="#52005B"/>
    <path fill-rule="evenodd" clip-rule="evenodd" d="M56.386 56.217c-1.73-2.656-3.227-5.484-4.168-8.52-.842-2.717-1.199-5.555-1.194-8.394.004-2.973.204-6.01 1.3-8.8a20.065 20.065 0 0 1 4.791-7.127c1.991-1.903 4.442-3.45 7.152-4.058 1.332-.299 2.722-.349 4.082-.304 1.22.04 2.443.189 3.63.475 2.09.505 4.05 1.468 5.681 2.873 1.505 1.295 2.687 2.944 3.546 4.728 1.8 3.74 2.335 8.018 2.213 12.131-.015.502-.04 1.002-.076 1.502-.037.528-.863.532-.826 0 .28-3.966-.019-8.075-1.428-11.82-1.37-3.641-3.972-6.727-7.672-8.11-2.248-.842-4.669-1.06-7.052-.926-2.65.15-5.095 1.227-7.193 2.827-2.225 1.699-4.046 3.943-5.324 6.43a17.11 17.11 0 0 0-1.432 3.832c-.34 1.414-.436 2.877-.511 4.325-.145 2.79-.018 5.599.606 8.33.653 2.853 1.822 5.543 3.283 8.072.414.718.852 1.422 1.305 2.117.29.447-.424.861-.713.417z" fill="#000"/>
    <path fill-rule="evenodd" clip-rule="evenodd" d="M75.123 44.541c.552 1.484 1.121 3.005 1.259 4.594.06.704.024 1.51-.43 2.089-.503.643-1.505.861-2.238.515-.523-.246-.913-.75-1.115-1.285-.189-.498.61-.713.796-.22.008.02-.056-.106.003.005.042.078.08.157.127.233.112.18.255.348.448.47.444.281 1.143.112 1.401-.329.29-.497.226-1.19.155-1.736-.095-.729-.292-1.447-.51-2.147a38.346 38.346 0 0 0-.692-1.969c-.185-.5.612-.715.796-.22zM75.848 53.904c-.475.422-1.134.67-1.745.8-1.644.349-3.31-.105-4.79-.827-.477-.233-.06-.946.417-.713 1.284.626 2.78 1.052 4.209.731.399-.09.69-.193 1.022-.379.096-.054.186-.116.279-.176.107-.07-.065.06.024-.02.397-.351.983.231.584.584zM79.083 57.016c.827 2.165.78 5.002-.814 6.798-1.686 1.899-4.574 2.198-6.953 2.145-2.664-.06-5.287-.758-7.654-1.974-1.184-.608-2.39-1.344-3.359-2.269-.385-.367.2-.951.584-.584.712.679 1.533 1.207 2.431 1.725 2.06 1.188 4.37 1.965 6.738 2.199 1.44.142 2.937.127 4.358-.155.996-.197 2.01-.547 2.798-1.21 1.156-.975 1.588-2.409 1.556-3.859-.019-.87-.154-1.742-.48-2.596-.19-.498.607-.713.795-.22zM76.691 70.318c-.803.445-1.635.843-2.467 1.229a54.145 54.145 0 0 1-6.083 2.405c-2.46.797-5.004 1.404-7.587 1.599-2.437.183-4.983-.029-7.205-1.118-2.354-1.153-3.949-3.28-4.767-5.738a14.049 14.049 0 0 1-.311-1.083c-.128-.516.668-.736.796-.22.605 2.45 1.887 4.705 4.106 6.01 2.01 1.18 4.408 1.461 6.7 1.363 2.518-.108 5.005-.669 7.407-1.408a51.15 51.15 0 0 0 6.064-2.311c.98-.444 1.929-.939 2.89-1.42.014-.006.027-.014.04-.022.466-.257.882.456.417.714z" fill="#000"/>
</svg>
