<svg xmlns="http://www.w3.org/2000/svg" width="24" height="24" viewBox="0 0 24 24">
    <g fill="none" fill-rule="evenodd">
        <g fill="#000" fill-rule="nonzero">
            <g>
                <g>
                    <g>
                        <g>
                            <path d="M2.4 12.6V8h1.8l2.6 4.6h2.7l-3-5c.493-.187.94-.453 1.34-.8.347-.293.66-.673.94-1.14.28-.467.42-1.053.42-1.76 0-.52-.107-1.017-.32-1.49-.213-.473-.507-.89-.88-1.25S7.183.517 6.67.31C6.157.103 5.6 0 5 0H0v12.6h2.4zM5 5.7H2.4V2.3H5c.507 0 .933.17 1.28.51.347.34.52.737.52 1.19 0 .453-.173.85-.52 1.19-.347.34-.773.51-1.28.51zm8.3 10.1v-4c.187.173.4.327.64.46.213.107.463.207.75.3s.623.14 1.01.14c.573 0 1.12-.117 1.64-.35.52-.233.977-.56 1.37-.98.393-.42.707-.917.94-1.49.233-.573.35-1.2.35-1.88 0-.68-.117-1.307-.35-1.88-.233-.573-.547-1.07-.94-1.49-.393-.42-.85-.747-1.37-.98-.52-.233-1.067-.35-1.64-.35-.4 0-.76.053-1.08.16-.32.107-.593.22-.82.34-.267.147-.5.313-.7.5l-.4-.9H11v12.4h2.3zm2.1-5.3c-.653 0-1.2-.227-1.64-.68-.44-.453-.66-1.06-.66-1.82s.22-1.367.66-1.82c.44-.453.987-.68 1.64-.68.653 0 1.2.227 1.64.68.44.453.66 1.06.66 1.82s-.22 1.367-.66 1.82c-.44.453-.987.68-1.64.68z" transform="translate(-32 -271) translate(0 175) translate(16 80) translate(16 16) translate(2 5)"/>
                        </g>
                    </g>
                </g>
            </g>
        </g>
    </g>
</svg>
