<svg xmlns="http://www.w3.org/2000/svg" xmlns:xlink="http://www.w3.org/1999/xlink" width="30" height="30" viewBox="0 0 30 30">
    <defs>
        <path id="prefix__a" d="M22.86.45c1.32.005 2.583.532 3.515 1.465.933.932 1.46 2.196 1.465 3.515v17.23c-.006 1.136-.398 2.237-1.112 3.12-.715.883-1.708 1.497-2.818 1.74v.67c0 .265-.105.52-.293.707-.188.188-.442.293-.707.293-.265 0-.52-.105-.707-.293-.188-.187-.293-.442-.293-.707v-.55H6.57v.55c0 .265-.105.52-.293.707-.188.188-.442.293-.707.293-.265 0-.52-.105-.707-.293-.188-.187-.293-.442-.293-.707v-.67c-1.11-.243-2.104-.857-2.818-1.74S.645 23.796.64 22.66V5.45c0-1.326.527-2.598 1.464-3.535C3.042.977 4.314.45 5.64.45zm0 1.98H5.64c-.796 0-1.559.316-2.121.879-.563.562-.88 1.326-.88 2.121v17.23c0 .796.317 1.559.88 2.122.562.562 1.325.878 2.12.878h17.22c.796 0 1.56-.316 2.122-.878.563-.563.879-1.326.879-2.122V5.43c0-.795-.316-1.559-.879-2.121-.562-.563-1.326-.879-2.121-.879zm-7.022 8.256c.758.314 1.407.846 1.863 1.528.456.683.7 1.485.7 2.306 0 1.1-.438 2.156-1.216 2.935-.779.778-1.834 1.215-2.935 1.215-.82 0-1.623-.243-2.306-.7-.682-.455-1.214-1.103-1.528-1.862-.314-.758-.396-1.593-.236-2.398.16-.805.555-1.544 1.136-2.124.58-.58 1.32-.976 2.124-1.136.806-.16 1.64-.078 2.398.236zm6.702.814c.552 0 1 .448 1 1v4.21c0 .552-.448 1-1 1s-1-.448-1-1V12.5c0-.552.448-1 1-1zm-8.29.88c-.426 0-.842.127-1.195.363-.354.237-.63.573-.792.967-.163.393-.205.826-.12 1.243.083.418.289.8.59 1.1.302.301.686.505 1.104.587.418.082.85.038 1.243-.126.393-.165.728-.442.963-.797.235-.355.36-.771.357-1.197-.002-.568-.23-1.113-.633-1.514-.403-.4-.948-.626-1.517-.626z"/>
    </defs>
    <g fill="none" fill-rule="evenodd" transform="translate(1)">
        <mask id="prefix__b" fill="#fff">
            <use xlink:href="#prefix__a"/>
        </mask>
        <use fill="#000" fill-rule="nonzero" xlink:href="#prefix__a"/>
        <g fill="#000" mask="url(#prefix__b)">
            <path d="M0 0L30 0 30 30 0 30z" transform="translate(-1)"/>
        </g>
    </g>
</svg>
