<svg width="40" height="40" viewBox="0 0 40 40" xmlns="http://www.w3.org/2000/svg" xmlns:xlink="http://www.w3.org/1999/xlink">
    <defs>
        <path id="a" d="M0 0h37.588v37.073H0z"/>
        <path id="c" d="M0 26h24V0H0z"/>
    </defs>
    <g fill="none" fill-rule="evenodd">
        <g transform="translate(1 1.003)">
            <mask id="b" fill="#fff">
                <use xlink:href="#a"/>
            </mask>
            <path d="M27.721 2.23c6.703 5.37 10.937 18.427 9.63 26.635-2.346 14.762-25.745 6.147-33.227.848C-9.789 19.879 14.917-8.03 27.721 2.23" fill="#FFF" mask="url(#b)"/>
        </g>
        <g transform="translate(5 9.003)">
            <path d="M6.616 4.356v-2.63S6.59.38 7.858.38h14.485s1.258 0 1.258 1.291V4.29l-16.985.066z" stroke="#000" stroke-width=".763"/>
            <path d="m15.273 4.29-2.426 16.127 8.896.09s1.857-.522 1.857-2.37V4.41l-8.327-.12z" fill="#FFAD00"/>
            <path d="m15.273 4.29-2.237 16.122h-2.857S7.664 21.5 7.97 16.444V4.338l7.304-.048z" fill="#FF8B00"/>
            <path d="M23.132 3.93H6.235v14.705c0 1.474 1.165 2.672 2.598 2.672h4.146v-.89H8.833c-.955 0-1.733-.798-1.733-1.782V4.823h16.032v13.812c0 .984-.775 1.782-1.733 1.782h-4.468v.89h4.468c1.436 0 2.598-1.198 2.598-2.672V3.931h-.865z" fill="#000"/>
            <path d="M16.558 20.902c0 .22.183.401.408.401.227 0 .408-.18.408-.401a.408.408 0 0 0-.816 0M12.55 20.902c0 .22.183.401.408.401.227 0 .41-.18.41-.401a.408.408 0 0 0-.41-.404.408.408 0 0 0-.408.404" fill="#000"/>
            <path stroke="#000" stroke-width=".763" stroke-linecap="round" d="M9.785 3.042V5.67M20.649 2.908v2.628M15.336 2.975v2.628"/>
            <mask id="d" fill="#fff">
                <use xlink:href="#c"/>
            </mask>
            <path stroke="#000" stroke-width=".763" stroke-linecap="round" stroke-linejoin="round" mask="url(#d)" d="M9.786 10.101h2.19V8.085h-2.19z"/>
            <path fill="#FFF" mask="url(#d)" d="M14.433 10.119h2.19V8.103h-2.19z"/>
            <path stroke="#000" stroke-width=".763" stroke-linecap="round" stroke-linejoin="round" mask="url(#d)" d="M14.433 10.119h2.19V8.103h-2.19z"/>
            <path fill="#FFF" mask="url(#d)" d="M19.294 10.119h2.19V8.103h-2.19z"/>
            <path stroke="#000" stroke-width=".763" stroke-linecap="round" stroke-linejoin="round" mask="url(#d)" d="M19.294 10.119h2.19V8.103h-2.19zM9.786 13.777h2.19V11.76h-2.19zM14.433 13.792h2.19v-2.016h-2.19z"/>
            <path fill="#FFF" mask="url(#d)" d="M19.294 13.792h2.19v-2.016h-2.19z"/>
            <path stroke="#000" stroke-width=".763" stroke-linecap="round" stroke-linejoin="round" mask="url(#d)" d="M19.294 13.792h2.19v-2.016h-2.19zM14.433 17.378h2.19v-2.015h-2.19zM19.294 17.378h2.19v-2.015h-2.19z"/>
            <path d="M6.335 13.938c3.213 0 5.816 2.63 5.816 5.874 0 3.243-2.603 5.874-5.816 5.874-3.213 0-5.817-2.63-5.817-5.874 0-3.243 2.604-5.874 5.817-5.874" fill="#A508AC" mask="url(#d)"/>
            <path d="M6.057 13.38a6.33 6.33 0 0 0-5.026 2.433l.509.374a5.785 5.785 0 0 1 4.517-2.181c3.185 0 5.776 2.552 5.776 5.683 0 3.134-2.591 5.686-5.776 5.686a5.761 5.761 0 0 1-5.442-3.853l-.589.239C.92 24.19 3.286 26 6.057 26c3.536 0 6.414-2.832 6.414-6.312 0-3.48-2.878-6.308-6.414-6.308" fill="#000" mask="url(#d)"/>
            <path d="M1.614 15.986a.315.315 0 0 1-.317.312.315.315 0 0 1-.318-.312c0-.173.142-.313.318-.313.175 0 .317.14.317.313M.637 21.635a.316.316 0 0 1-.32.313.317.317 0 0 1-.318-.313c0-.173.145-.312.318-.312.178 0 .32.14.32.312" fill="#000" mask="url(#d)"/>
            <path d="M4.765 21.977c.217.127.452.22.694.284.101.026.17.115.17.216v.33c0 .143.117.257.262.257h.488a.258.258 0 0 0 .258-.256v-.33c0-.102.07-.191.17-.217a2.77 2.77 0 0 0 .698-.284.222.222 0 0 1 .274.035l.24.234c.1.102.266.1.367 0l.346-.338c.098-.1.1-.262 0-.364l-.24-.233a.22.22 0 0 1-.034-.272c.127-.214.225-.445.29-.684.023-.1.113-.17.219-.17h.336a.257.257 0 0 0 .258-.255v-.48a.257.257 0 0 0-.258-.254h-.336a.224.224 0 0 1-.22-.17 2.755 2.755 0 0 0-.289-.684.22.22 0 0 1 .034-.272l.24-.234a.256.256 0 0 0 0-.36l-.346-.342a.266.266 0 0 0-.367 0l-.24.237a.226.226 0 0 1-.274.033 2.77 2.77 0 0 0-.697-.285.224.224 0 0 1-.17-.216v-.33a.258.258 0 0 0-.26-.257h-.487a.258.258 0 0 0-.261.257v.33c0 .102-.07.19-.17.216a2.753 2.753 0 0 0-.695.285.229.229 0 0 1-.277-.033l-.237-.237a.269.269 0 0 0-.37 0l-.343.341c-.101.1-.104.26 0 .361l.237.234a.217.217 0 0 1 .034.272 2.654 2.654 0 0 0-.287.684.228.228 0 0 1-.22.17h-.338a.257.257 0 0 0-.258.254v.48c0 .14.116.255.258.255h.339c.103 0 .193.07.22.17.061.239.16.47.286.684a.217.217 0 0 1-.034.272l-.237.233a.251.251 0 0 0 0 .361l.343.341c.101.1.266.102.37 0l.237-.234a.231.231 0 0 1 .277-.035m1.614 1.535H5.89a.71.71 0 0 1-.716-.704v-.16a3.39 3.39 0 0 1-.488-.201l-.116.114a.72.72 0 0 1-1.01 0l-.346-.338a.695.695 0 0 1 0-.994l.116-.117a3.125 3.125 0 0 1-.201-.477h-.166a.711.711 0 0 1-.715-.705v-.48c0-.386.323-.704.715-.704h.166c.054-.163.121-.323.201-.478l-.116-.114a.698.698 0 0 1 0-.997l.346-.338a.72.72 0 0 1 1.01 0l.116.115c.158-.082.32-.148.488-.201v-.16a.71.71 0 0 1 .716-.704h.488a.71.71 0 0 1 .713.704v.16c.168.053.33.12.488.2l.116-.114a.72.72 0 0 1 1.01 0l.346.338a.695.695 0 0 1 0 .997l-.116.114c.08.155.147.315.201.478h.166c.395 0 .715.318.715.704v.48a.71.71 0 0 1-.715.705h-.166a3.125 3.125 0 0 1-.201.477l.116.117a.692.692 0 0 1 0 .994l-.346.338a.72.72 0 0 1-1.01 0l-.116-.114a3.39 3.39 0 0 1-.488.2v.16a.71.71 0 0 1-.713.705" fill="#FFF" mask="url(#d)"/>
            <path d="M4.765 21.977c.217.127.452.22.694.284.101.026.17.115.17.216v.33c0 .143.117.257.262.257h.488a.258.258 0 0 0 .258-.256v-.33c0-.102.07-.191.17-.217a2.77 2.77 0 0 0 .698-.284.222.222 0 0 1 .274.035l.24.234c.1.102.266.1.367 0l.346-.338c.098-.1.1-.262 0-.364l-.24-.233a.22.22 0 0 1-.034-.272c.127-.214.225-.445.29-.684.023-.1.113-.17.219-.17h.336a.257.257 0 0 0 .258-.255v-.48a.257.257 0 0 0-.258-.254h-.336a.224.224 0 0 1-.22-.17 2.755 2.755 0 0 0-.289-.684.22.22 0 0 1 .034-.272l.24-.234a.256.256 0 0 0 0-.36l-.346-.342a.266.266 0 0 0-.367 0l-.24.237a.226.226 0 0 1-.274.033 2.77 2.77 0 0 0-.697-.285.224.224 0 0 1-.17-.216v-.33a.258.258 0 0 0-.26-.257h-.487a.258.258 0 0 0-.261.257v.33c0 .102-.07.19-.17.216a2.753 2.753 0 0 0-.695.285.229.229 0 0 1-.277-.033l-.237-.237a.269.269 0 0 0-.37 0l-.343.341c-.101.1-.104.26 0 .361l.237.234a.217.217 0 0 1 .034.272 2.654 2.654 0 0 0-.287.684.228.228 0 0 1-.22.17h-.338a.257.257 0 0 0-.258.254v.48c0 .14.116.255.258.255h.339c.103 0 .193.07.22.17.061.239.16.47.286.684a.217.217 0 0 1-.034.272l-.237.233a.251.251 0 0 0 0 .361l.343.341c.101.1.266.102.37 0l.237-.234a.231.231 0 0 1 .277-.035zm1.614 1.535H5.89a.71.71 0 0 1-.716-.704v-.16a3.39 3.39 0 0 1-.488-.201l-.116.114a.72.72 0 0 1-1.01 0l-.346-.338a.695.695 0 0 1 0-.994l.116-.117a3.125 3.125 0 0 1-.201-.477h-.166a.711.711 0 0 1-.715-.705v-.48c0-.386.323-.704.715-.704h.166c.054-.163.121-.323.201-.478l-.116-.114a.698.698 0 0 1 0-.997l.346-.338a.72.72 0 0 1 1.01 0l.116.115c.158-.082.32-.148.488-.201v-.16a.71.71 0 0 1 .716-.704h.488a.71.71 0 0 1 .713.704v.16c.168.053.33.12.488.2l.116-.114a.72.72 0 0 1 1.01 0l.346.338a.695.695 0 0 1 0 .997l-.116.114c.08.155.147.315.201.478h.166c.395 0 .715.318.715.704v.48a.71.71 0 0 1-.715.705h-.166a3.125 3.125 0 0 1-.201.477l.116.117a.692.692 0 0 1 0 .994l-.346.338a.72.72 0 0 1-1.01 0l-.116-.114a3.39 3.39 0 0 1-.488.2v.16a.71.71 0 0 1-.713.705z" stroke="#FFF" stroke-width=".5" mask="url(#d)"/>
            <path d="M6.134 18.475c-.682 0-1.234.544-1.234 1.215s.552 1.215 1.234 1.215c.682 0 1.235-.544 1.235-1.215 0-.67-.553-1.215-1.235-1.215m0 2.878c-.932 0-1.689-.745-1.689-1.663 0-.917.757-1.662 1.69-1.662.932 0 1.689.745 1.689 1.662 0 .918-.757 1.663-1.69 1.663" fill="#FFF" mask="url(#d)"/>
            <path d="M6.134 18.475c-.682 0-1.234.544-1.234 1.215s.552 1.215 1.234 1.215c.682 0 1.235-.544 1.235-1.215 0-.67-.553-1.215-1.235-1.215zm0 2.878c-.932 0-1.689-.745-1.689-1.663 0-.917.757-1.662 1.69-1.662.932 0 1.689.745 1.689 1.662 0 .918-.757 1.663-1.69 1.663z" stroke="#FFF" stroke-width=".5" mask="url(#d)"/>
        </g>
    </g>
</svg>
