<?xml version="1.0" encoding="UTF-8"?>
<svg width="30px" height="30px" viewBox="0 0 30 30" version="1.1" xmlns="http://www.w3.org/2000/svg" xmlns:xlink="http://www.w3.org/1999/xlink">
    <!-- Generator: sketchtool 63.1 (101010) - https://sketch.com -->
    <title>8BDB48F1-18A5-47AA-9AD8-CDAD642E9AE3</title>
    <desc>Created with sketchtool.</desc>
    <defs>
        <path d="M20.47,1 C20.7352,1 20.9896,1.10536 21.1771,1.29289 C21.3646,1.48043 21.47,1.73478 21.47,2 C21.4726,3.74431 22.1667,5.41642 23.4002,6.64984 C24.6336,7.88326 26.3057,8.57735 28.05,8.58 C28.3152,8.58 28.5696,8.68536 28.7571,8.87289 C28.9446,9.06043 29.05,9.31478 29.05,9.58 L29.05,14.66 C29.0851,18.416 27.6703,22.0409 25.1,24.78 C23.7905,26.1348 22.2209,27.2113 20.4855,27.945 C18.75,28.6787 16.8842,29.0546 15,29.0500417 L14.36,29.0500417 C10.6987,28.8263 7.26515,27.1974 4.77587,24.5032 C2.2866,21.809 0.933888,18.2576 1,14.59 L1,9.53 C1,9.26478 1.10536,9.01043 1.2929,8.82289 C1.48043,8.63536 1.73479,8.53 2,8.53 C3.72702,8.51435 5.37887,7.82134 6.60011,6.6001 C7.82134,5.37887 8.51435,3.72702 8.53,2 C8.53,1.73478 8.63536,1.48043 8.8229,1.29289 C9.01043,1.10536 9.26479,1 9.53,1 L20.47,1 Z M18.65,2.95 L11.31,2.95 C11.0829,2.94281 10.8601,3.01318 10.6784,3.1495 C10.4966,3.28582 10.3667,3.47998 10.31,3.7 C9.9675,5.32812 9.16115,6.82234 7.98825,8.00233 C6.81535,9.18233 5.32603,9.99768 3.7,10.35 C3.47998,10.4067 3.28583,10.5366 3.1495,10.7184 C3.01318,10.9001 2.94282,11.1229 2.95,11.35 L2.95,14.63 C2.94697,17.764 4.13174,20.7828 6.26565,23.0781 C8.39957,25.3735 11.3241,26.7749 14.45,27 C16.1079,27.077 17.7637,26.8093 19.3128,26.2137 C20.8619,25.6182 22.2707,24.7077 23.45,23.54 C24.6105,22.3617 25.5254,20.9647 26.1416,19.4301 C26.7579,17.8954 27.0633,16.2536 27.04,14.6 L27.04,11.31 C27.0472,11.0829 26.9768,10.8601 26.8405,10.6784 C26.7042,10.4966 26.51,10.3667 26.29,10.31 C24.6637,9.96577 23.1716,9.15866 21.9935,7.98588 C20.8155,6.81311 20.0016,5.32471 19.65,3.7 C19.5933,3.47998 19.4634,3.28582 19.2816,3.1495 C19.0999,3.01318 18.8771,2.94281 18.65,2.95 Z M16.5951,8.68877 C17.3532,9.00441 18.0007,9.53788 18.4555,10.2217 C18.9103,10.9054 19.152,11.7088 19.1500123,12.53 C19.1474,13.6289 18.709,14.6819 17.931,15.458 C17.3938095,15.9938786 16.7249863,16.3675643 16.000672,16.5475537 L16,21.62 C16,21.8852 15.8946,22.1396 15.7071,22.3271 C15.5196,22.5146 15.2652,22.62 15,22.62 C14.7348,22.62 14.4804,22.5146 14.2929,22.3271 C14.1054,22.1396 14,21.8852 14,21.62 L13.9993997,16.5475521 C13.5363551,16.4325041 13.0941277,16.2378621 12.6933,15.9699 C12.0107,15.5134 11.4788,14.8647 11.165,14.1058 C10.8511,13.3469 10.7695,12.512 10.9305,11.7067 C11.0914,10.9014 11.4877,10.162 12.0691,9.58197 C12.6504,9.00198 13.3908,8.60752 14.1965,8.44852 C15.0022,8.28952 15.8369,8.37314 16.5951,8.68877 Z M15,10.38 C14.5748,10.38 14.1591,10.5061 13.8055,10.7423 C13.452,10.9786 13.1764,11.3144 13.0137,11.7072 C12.8509,12.1001 12.8084,12.5324 12.8913,12.9494 C12.9743,13.3665 13.179,13.7496 13.4797,14.0503 C13.7804,14.351 14.1635,14.5557 14.5806,14.6387 C14.9976,14.7216 15.4299,14.6791 15.8228,14.5163 C16.2156,14.3536 16.5514,14.078 16.7877,13.7245 C17.0239,13.3709 17.15,12.9552 17.15,12.53 C17.15,12.2477 17.0944,11.9681 16.9863,11.7072 C16.8783,11.4464 16.7199,11.2094 16.5203,11.0097 C16.3206,10.8101 16.0836,10.6517 15.8228,10.5437 C15.5619,10.4356 15.2823,10.38 15,10.38 Z" id="path-1"></path>
    </defs>
    <g id="R1-Notif-Settings" stroke="none" stroke-width="1" fill="none" fill-rule="evenodd">
        <g id="GEN_2" transform="translate(-16.000000, -391.000000)">
            <g id="Notif-Settings-/-Landing">
                <g id="Group-3" transform="translate(0.000000, 378.000000)">
                    <g id="List-/-Regular-/-One-line">
                        <g id="Icon-/-Jago-/-Security">
                            <g transform="translate(16.000000, 13.000000)">
                                <g id="Security">
                                    <rect id="Rectangle" x="0" y="0" width="30" height="30"></rect>
                                    <mask id="mask-2" fill="white">
                                        <use xlink:href="#path-1"></use>
                                    </mask>
                                    <use id="Combined-Shape" fill="#000000" fill-rule="nonzero" xlink:href="#path-1"></use>
                                    <g id="Color-/-Textstyles-/-Main-Text-(White)" mask="url(#mask-2)" fill="#000000">
                                        <polygon id="Black-/-Black-800" points="0 0 30 0 30 30 0 30"></polygon>
                                    </g>
                                </g>
                            </g>
                        </g>
                    </g>
                </g>
            </g>
        </g>
    </g>
</svg>