<svg width="252" height="100" xmlns="http://www.w3.org/2000/svg" xmlns:xlink="http://www.w3.org/1999/xlink">
    <defs>
        <filter x="-5%" y="-2.5%" width="110%" height="110%" filterUnits="objectBoundingBox" id="c">
            <feOffset dy="2" in="SourceAlpha" result="shadowOffsetOuter1"/>
            <feGaussianBlur stdDeviation="1" in="shadowOffsetOuter1" result="shadowBlurOuter1"/>
            <feColorMatrix values="0 0 0 0 0 0 0 0 0 0 0 0 0 0 0 0 0 0 0.11 0" in="shadowBlurOuter1"/>
        </filter>
        <filter x="-5%" y="-2.5%" width="110%" height="110%" filterUnits="objectBoundingBox" id="f">
            <feOffset dy="2" in="SourceAlpha" result="shadowOffsetOuter1"/>
            <feGaussianBlur stdDeviation="1" in="shadowOffsetOuter1" result="shadowBlurOuter1"/>
            <feColorMatrix values="0 0 0 0 0 0 0 0 0 0 0 0 0 0 0 0 0 0 0.11 0" in="shadowBlurOuter1"/>
        </filter>
        <circle id="b" cx="40" cy="40" r="40"/>
        <circle id="e" cx="40" cy="40" r="40"/>
        <path id="a" d="M0 0h252v100H0z"/>
    </defs>
    <g fill="none" fill-rule="evenodd">
        <g transform="translate(164 10)">
            <mask id="d" fill="#fff">
                <use xlink:href="#b"/>
            </mask>
            <use fill="#000" filter="url(#c)" xlink:href="#b"/>
            <use fill="#722B79" xlink:href="#b"/>
            <path d="M51.203 31.204a5.359 5.359 0 0 1 4.661 3.203c.534 1.233.442 2.57.448 3.882.004 1.083.003 2.165.004 3.248 0 2.338.146 4.778-.309 7.08-1.052 5.33-4.742 9.967-9.744 12.104-5.002 2.136-10.928 1.565-15.436-1.476a15.809 15.809 0 0 1-5.26-5.967c-1.193-2.37-1.915-5.333-1.458-7.986a4.985 4.985 0 0 1 3.871-3.997 4.988 4.988 0 0 1 5.245 2.318c.388.651.555 1.358.724 2.087.578 2.472 2.05 4.779 4.628 5.484 2.448.67 5.177-.417 6.436-2.634.757-1.331.661-2.836.655-4.308-.004-.993-.01-1.985-.01-2.977.001-1.092.001-2.185.006-3.277.007-1.398-.034-2.757.662-4.027a5.36 5.36 0 0 1 4.877-2.757zm-21.098-13.1c2.155.425 3.853 2.1 4.395 4.166.13-.53.34-1.044.629-1.522a5.733 5.733 0 0 1 5.968-2.643c2.156.424 3.854 2.1 4.395 4.166.13-.53.34-1.044.63-1.523a5.732 5.732 0 0 1 5.968-2.643c2.628.517 4.577 2.896 4.577 5.574 0 2.37-1.527 4.546-3.757 5.348-2.237.805-4.8.094-6.31-1.74a5.616 5.616 0 0 1-1.107-2.203c-.465 1.789-1.796 3.303-3.575 3.943-2.237.805-4.8.094-6.31-1.74a5.615 5.615 0 0 1-1.107-2.201c-.466 1.788-1.797 3.301-3.575 3.941-2.237.805-4.8.094-6.31-1.74-1.511-1.834-1.708-4.503-.48-6.54a5.733 5.733 0 0 1 5.969-2.642z" fill="#FCB026" mask="url(#d)"/>
        </g>
        <g transform="translate(8 10)">
            <mask id="g" fill="#fff">
                <use xlink:href="#e"/>
            </mask>
            <use fill="#000" filter="url(#f)" xlink:href="#e"/>
            <use fill="#F9F9F9" xlink:href="#e"/>
            <path d="M51.203 31.204a5.359 5.359 0 0 1 4.661 3.203c.534 1.233.442 2.57.448 3.882.004 1.083.003 2.165.004 3.248 0 2.338.146 4.778-.309 7.08-1.052 5.33-4.742 9.967-9.744 12.104-5.002 2.136-10.928 1.565-15.436-1.476a15.809 15.809 0 0 1-5.26-5.967c-1.193-2.37-1.915-5.333-1.458-7.986a4.985 4.985 0 0 1 3.871-3.997 4.988 4.988 0 0 1 5.245 2.318c.388.651.555 1.358.724 2.087.578 2.472 2.05 4.779 4.628 5.484 2.448.67 5.177-.417 6.436-2.634.757-1.331.661-2.836.655-4.308-.004-.993-.01-1.985-.01-2.977.001-1.092.001-2.185.006-3.277.007-1.398-.034-2.757.662-4.027a5.36 5.36 0 0 1 4.877-2.757zm-21.098-13.1c2.155.425 3.853 2.1 4.395 4.166.13-.53.34-1.044.629-1.522a5.733 5.733 0 0 1 5.968-2.643c2.156.424 3.854 2.1 4.395 4.166.13-.53.34-1.044.63-1.523a5.732 5.732 0 0 1 5.968-2.643c2.628.517 4.577 2.896 4.577 5.574 0 2.37-1.527 4.546-3.757 5.348-2.237.805-4.8.094-6.31-1.74a5.616 5.616 0 0 1-1.107-2.203c-.465 1.789-1.796 3.303-3.575 3.943-2.237.805-4.8.094-6.31-1.74a5.615 5.615 0 0 1-1.107-2.201c-.466 1.788-1.797 3.301-3.575 3.941-2.237.805-4.8.094-6.31-1.74-1.511-1.834-1.708-4.503-.48-6.54a5.733 5.733 0 0 1 5.969-2.642z" fill="#FCB026" mask="url(#g)"/>
        </g>
        <g fill-rule="nonzero">
            <path d="m121.414 49.425-8 8.007c-.758.757-2.07.757-2.828 0-.78-.78-.78-2.05 0-2.83l6.586-6.592-6.586-6.593a1.99 1.99 0 0 1-.586-1.415c0-.535.208-1.037.586-1.415a2 2 0 0 1 2.828-.002l8 8.007c.378.38.586.883.586 1.418a1.99 1.99 0 0 1-.586 1.415z" fill="#C7AAC9"/>
            <path d="m141.219 49.852-10.667 10.41c-1.01.984-2.76.984-3.77 0a2.56 2.56 0 0 1 0-3.68l8.78-8.57-8.78-8.57a2.554 2.554 0 0 1 0-3.68 2.693 2.693 0 0 1 1.885-.762c.682 0 1.365.255 1.885.76l10.667 10.41a2.564 2.564 0 0 1 0 3.682z" fill="#8E5594"/>
        </g>
    </g>
</svg>
