<svg width="68" height="68" xmlns="http://www.w3.org/2000/svg">
    <g fill="none" fill-rule="evenodd">
        <path d="M0 0h68v68H0z"/>
        <path d="M8 8h52v52H8z"/>
        <path d="M46.888 53.398h-21.55a3.704 3.704 0 0 1-3.704-3.703V18.814a3.703 3.703 0 0 1 3.703-3.704H42.13l8.463 8.463v26.122a3.705 3.705 0 0 1-3.704 3.703" fill="#FDAF27"/>
        <path d="M50.591 23.572h-6.225a2.238 2.238 0 0 1-2.238-2.237v-6.226l8.463 8.463z" fill="#FF8B00"/>
        <path d="M50.591 24.182h-6.225a2.85 2.85 0 0 1-2.847-2.847v-6.226a.61.61 0 0 1 1.219 0v6.226a1.63 1.63 0 0 0 1.628 1.628h6.225a.61.61 0 0 1 0 1.219" fill="#000"/>
        <path d="M34.21 15.11h-8.873a3.704 3.704 0 0 0-3.703 3.703v30.881a3.703 3.703 0 0 0 3.703 3.704h5.148l3.724-38.289z" fill="#FF8B00"/>
        <path d="M47.336 29.561H34.209a.61.61 0 0 1 0-1.218h13.127a.61.61 0 0 1 0 1.218M47.336 35.271H34.209a.61.61 0 0 1 0-1.219h13.127a.61.61 0 0 1 0 1.22M47.336 40.803H34.209a.61.61 0 0 1 0-1.219h13.127a.61.61 0 0 1 0 1.22" fill="#FFF"/>
        <path d="M46.888 54.008h-21.55a4.316 4.316 0 0 1-4.313-4.313v-4.387a.609.609 0 1 1 1.218 0v4.387a3.097 3.097 0 0 0 3.094 3.094h21.551a3.097 3.097 0 0 0 3.094-3.094v-25.87l-8.105-8.105h-16.54a3.097 3.097 0 0 0-3.094 3.094v4.76a.61.61 0 0 1-1.218 0v-4.76a4.316 4.316 0 0 1 4.312-4.313H42.13a.61.61 0 0 1 .43.177l8.463 8.463c.114.114.179.27.179.432v26.122a4.317 4.317 0 0 1-4.313 4.313" fill="#000"/>
        <path d="M11.683 34.534A9.317 9.317 0 0 1 21 25.217a9.317 9.317 0 1 1 0 18.634 9.317 9.317 0 0 1-9.317-9.317" fill="#FFF"/>
        <path d="M21 25.65c-4.9 0-8.884 3.985-8.884 8.883 0 4.9 3.985 8.885 8.884 8.885 4.9 0 8.884-3.986 8.884-8.885 0-4.898-3.985-8.884-8.884-8.884m0 18.635c-5.376 0-9.75-4.374-9.75-9.75s4.374-9.75 9.75-9.75 9.75 4.374 9.75 9.75-4.374 9.75-9.75 9.75" fill="#000"/>
        <path d="M14.174 34.534a6.826 6.826 0 1 1 13.652 0 6.826 6.826 0 0 1-13.652 0" fill="#4CAF50"/>
        <path d="M21 28.14a6.4 6.4 0 0 0-6.393 6.394A6.4 6.4 0 0 0 21 40.926a6.4 6.4 0 0 0 6.393-6.392A6.4 6.4 0 0 0 21 28.14m0 13.65c-4.002 0-7.259-3.255-7.259-7.257 0-4.003 3.257-7.259 7.259-7.259 4.002 0 7.259 3.256 7.259 7.259 0 4.002-3.257 7.258-7.259 7.258" fill="#000"/>
        <path d="M23.345 39.14a.434.434 0 0 1-.323-.146l-2.828-3.174a.435.435 0 0 1-.11-.288V29.9a.433.433 0 0 1 .865 0v5.467l2.72 3.052a.433.433 0 0 1-.324.72" fill="#FFF"/>
    </g>
</svg>
