<svg xmlns="http://www.w3.org/2000/svg" xmlns:xlink="http://www.w3.org/1999/xlink" width="24" height="24" viewBox="0 0 24 24">
    <defs>
        <path id="a" d="M9 6.98c.55 0 1 .424 1 .944 0 .519-.45.944-1 .944H6c-.55 0-1 .425-1 .944v11.334c0 .52.45.944 1 .944h12c.55 0 1-.425 1-.944v-4.722c0-.161.043-.313.119-.445H19v-6.3c0-.495-.45-.9-1-.9h-3c-.55 0-1-.405-1-.9s.45-.9 1-.9h4c1.11 0 2 .81 2 1.8v7.2h-.119a.895.895 0 0 1 .119.445v5.666c0 1.04-.9 1.89-2 1.89H5c-1.1 0-2-.85-2-1.89V8.868c0-1.039.89-1.889 2-1.889zM11.476.294a1.016 1.016 0 0 1 1.433 0l3.581 3.582a1.016 1.016 0 0 1 0 1.433 1.016 1.016 0 0 1-1.432 0l-1.856-1.855v10.08a1.009 1.009 0 1 1-2.02 0V3.455L9.327 5.31a1.016 1.016 0 0 1-1.433 0 1.016 1.016 0 0 1 0-1.433z"/>
    </defs>
    <g fill="none" fill-rule="evenodd">
        <mask id="b" fill="#fff">
            <use xlink:href="#a"/>
        </mask>
        <use fill="#000" fill-rule="nonzero" xlink:href="#a"/>
        <g fill="#000" mask="url(#b)">
            <path d="M0 0h24v24H0z"/>
        </g>
    </g>
</svg>
