<svg width="68" height="68" xmlns="http://www.w3.org/2000/svg">
    <g fill="none" fill-rule="evenodd">
        <path d="M0 0h68v68H0z"/>
        <path d="M22.497 41.885h27.125c.98 0 1.84-.635 2.107-1.556.57-1.97-.744-3.985-2.814-4.313l-.624-.1c-.31.065-.411-.245-.411-.245l2.304-11.488H24.632a1.57 1.57 0 0 0-1.353.761c-.603 1.018.149 2.292 1.353 2.292h1.183c1.26 0 2.183 1.157 1.875 2.35a1.926 1.926 0 0 1-1.875 1.426h-4.179c-.833 0-1.568.531-1.81 1.31-.37 1.187.54 2.385 1.81 2.385h2.111c1.348 0 2.3 1.29 1.874 2.538a1.971 1.971 0 0 1-1.874 1.319h-1.25c-.812 0-1.51.56-1.668 1.338-.208 1.027.597 1.983 1.668 1.983z" fill="#DE9009" fill-rule="nonzero"/>
        <path d="M47.77 39.23H30.484c.465-1.878-1.217-3.644-3.47-3.644l1.818-7.336c1.677 0 3.124-1 3.47-2.397h17.286c-.466 1.878 1.216 3.644 3.47 3.644l-1.819 7.336c-1.676 0-3.123 1-3.47 2.397z" fill="#FCAD25" fill-rule="nonzero"/>
        <path d="M44.747 32.863c0-2.541-2.109-4.6-4.711-4.6-2.602 0-4.712 2.059-4.712 4.6 0 2.54 2.11 4.6 4.712 4.6s4.711-2.06 4.711-4.6z" fill="#FFF" fill-rule="nonzero"/>
        <path d="M50.082 22.377 47.155 37.24s5.52-1.619 4.55 2.6l3.265-17.859a1.824 1.824 0 0 0-.35-1.446c-.473-.613-2.3-.77-3.342-.1-.559.352-1.066 1.283-1.196 1.94z" fill="#FDC362" fill-rule="nonzero"/>
        <path d="M11.232 32.917h-.23M17.702 25.983h-3.188" stroke="#DE900A" stroke-width="3.009" stroke-linecap="round" stroke-linejoin="round"/>
        <path d="M15.505 29.509h-.738" stroke="#DE900A" stroke-width="1.444" stroke-linecap="round" stroke-linejoin="round"/>
        <g>
            <path d="M38.175 46.726c0-5.95 4.818-10.773 10.762-10.773 5.945 0 10.763 4.823 10.763 10.773 0 5.95-4.818 10.773-10.763 10.773-5.944 0-10.762-4.823-10.762-10.773" fill="#FFF"/>
            <path d="M48.938 36.453c-5.66 0-10.263 4.608-10.263 10.273s4.603 10.273 10.263 10.273C54.596 57 59.2 52.391 59.2 46.726s-4.603-10.273-10.263-10.273m0 21.547c-6.21 0-11.262-5.058-11.262-11.274 0-6.216 5.052-11.274 11.263-11.274 6.21 0 11.262 5.058 11.262 11.274C60.2 52.942 55.148 58 48.937 58" fill="#000"/>
            <path d="M41.053 46.726c0-4.36 3.53-7.893 7.885-7.893 4.354 0 7.884 3.534 7.884 7.893 0 4.358-3.53 7.892-7.884 7.892-4.355 0-7.885-3.534-7.885-7.892" fill="#4CAF50"/>
            <path d="M48.938 39.334c-4.073 0-7.386 3.316-7.386 7.392 0 4.075 3.313 7.392 7.386 7.392 4.072 0 7.385-3.317 7.385-7.392 0-4.076-3.313-7.392-7.386-7.392m0 15.784c-4.623 0-8.384-3.764-8.384-8.392s3.761-8.393 8.385-8.393c4.623 0 8.384 3.765 8.384 8.393s-3.761 8.392-8.385 8.392" fill="#000"/>
            <path d="M51.647 52.052a.5.5 0 0 1-.374-.168l-3.267-3.67a.503.503 0 0 1-.127-.333v-6.513a.5.5 0 1 1 1 0v6.322l3.141 3.528a.501.501 0 0 1-.373.834" fill="#FFF"/>
        </g>
    </g>
</svg>
