<svg width="68" height="68" xmlns="http://www.w3.org/2000/svg">
    <g fill="none" fill-rule="evenodd">
        <path d="M0 0h68v68H0z"/>
        <path d="M45.756 52.461H22.948c-2.325 0-4.21-1.842-4.21-4.118V20.458c0-2.276 1.885-4.12 4.21-4.12h22.808c2.324 0 4.209 1.844 4.209 4.12v27.885c0 2.276-1.885 4.118-4.21 4.118" fill="#FFAD00"/>
        <path d="M33.434 16.338H22.948c-2.325 0-4.21 1.844-4.21 4.12v27.885c0 2.276 1.885 4.118 4.21 4.118h2.455l8.031-36.123z" fill="#FF8B00"/>
        <path d="M21.193 48.253V19.748c0-2.325 1.755-4.21 1.755-4.21h-.672c-2.325 0-3.125 1.885-3.125 4.21v28.505a4.21 4.21 0 0 0 4.209 4.209h2.043a4.21 4.21 0 0 1-4.21-4.21" fill="#FFF"/>
        <path d="M45.756 52.461H22.948c-2.325 0-4.21-1.842-4.21-4.118V20.458c0-2.276 1.885-4.12 4.21-4.12h22.808c2.324 0 4.209 1.844 4.209 4.12v27.885c0 2.276-1.885 4.118-4.21 4.118zM46.991 33.124v.739" stroke="#000" stroke-width="1.6" stroke-linecap="round" stroke-linejoin="round"/>
        <path d="M46.992 36.747v10.566a2.315 2.315 0 0 1-2.314 2.316h-20.65a2.315 2.315 0 0 1-2.315-2.316V35.304" stroke="#000" stroke-width="1.6" stroke-linecap="round" stroke-linejoin="round" stroke-dasharray="1.563199996948242,3.124799919128418"/>
        <path stroke="#000" stroke-width="1.6" stroke-linecap="round" stroke-linejoin="round" d="M21.712 33.863v-.74M46.992 17.077v9.04l-12.64 7.007h-.088l-12.64-7.007v-9.04"/>
        <path stroke="#000" stroke-width="1.6" stroke-linecap="round" stroke-linejoin="round" d="m49.877 28.25-15.524 8.382h-.089l-15.525-8.381M30.643 24.153a3.665 3.665 0 1 1 7.329 0 3.665 3.665 0 0 1-7.33 0z"/>
        <path d="M33.434 24.153c0-.482.392-.874.873-.874a.875.875 0 0 1 0 1.748.874.874 0 0 1-.873-.874" fill="#000"/>
        <g transform="translate(35 35)">
            <circle stroke="#000" stroke-width=".99" fill="#FFF" fill-rule="nonzero" cx="12" cy="12" r="12.495"/>
            <circle stroke="#000" stroke-width=".914" fill="#FF0048" fill-rule="nonzero" cx="12" cy="12" r="10.286"/>
            <path d="M4.286 4.286h15.428v15.428H4.286z"/>
            <path d="M16.05 7.956a.64.64 0 0 0-.906 0L12 10.393 8.856 7.95a.64.64 0 1 0-.906.906L10.393 12 7.95 15.144a.64.64 0 1 0 .906.906L12 13.607l3.144 2.443a.64.64 0 1 0 .906-.906L13.607 12l2.443-3.144a.644.644 0 0 0 0-.9z" fill="#FFF" fill-rule="nonzero"/>
        </g>
    </g>
</svg>
