<svg xmlns="http://www.w3.org/2000/svg" width="30" height="29" viewBox="0 0 30 29">
    <g fill="none" fill-rule="evenodd">
        <g>
            <g>
                <g>
                    <g>
                        <g transform="translate(-261.000000, -844.000000) translate(0.000000, 339.000000) translate(193.000000, 485.000000) translate(34.000000, 20.148026) translate(34.937500, 0.000000)">
                            <circle cx="14.063" cy="14.063" r="14.063" fill="#D87CDB"/>
                            <path fill="#FFF" fill-rule="nonzero" d="M13 13.022V7.587c0-.566.481-1.024 1.066-1.024.58 0 1.066.46 1.066 1.024v5.435h5.37c.579 0 1.06.471 1.06 1.044 0 .567-.483 1.044-1.06 1.044h-5.37v5.428c0 .565-.486 1.024-1.066 1.024-.585 0-1.067-.458-1.067-1.024V15.11H7.63c-.576 0-1.066-.477-1.066-1.044 0-.573.488-1.044 1.066-1.044h5.37z"/>
                        </g>
                    </g>
                </g>
            </g>
        </g>
    </g>
</svg>
