<?xml version="1.0" encoding="UTF-8"?>
<svg width="16px" height="11px" viewBox="0 0 16 11" version="1.1" xmlns="http://www.w3.org/2000/svg" xmlns:xlink="http://www.w3.org/1999/xlink">
    <title>8452BAEA-1E5A-403B-9216-DBFAAAFE6AF6</title>
    <g id="Shared-Goal-Master-⭐️" stroke="none" stroke-width="1" fill="none" fill-rule="evenodd" opacity="0.399999976">
        <g id="LANDINGPOT_SEARCH_1" transform="translate(-219.000000, -481.000000)" fill="#000000" fill-rule="nonzero">
            <g id="Group" transform="translate(36.000000, 256.000000)">
                <g id="Pots-/-card-/-emoji-+-name-+-balance" transform="translate(168.000000, 210.000000)">
                    <g id="Request-Member-Status-/-Partial-Left-Icon" transform="translate(10.000000, 10.000000)">
                        <g id="Group" transform="translate(5.000000, 5.000000)">
                            <g id="noun_group_807328" transform="translate(0.500000, 0.625000)">
                                <path d="M9.32362069,2.09232759 C9.32362069,1.09681034 8.51431034,0.2875 7.51689655,0.2875 C6.52172414,0.2875 5.7137931,1.09663793 5.7137931,2.09232759 C5.7137931,3.0912931 6.52172414,3.89905175 7.51689655,3.89905175 C8.51431034,3.89922414 9.32362069,3.0912931 9.32362069,2.09232759 L9.32362069,2.09232759 Z" id="Path"></path>
                                <path d="M5.885,4.00741379 C4.22913793,4.79482759 3.36603448,6.65 3.83362069,8.42482759 C6.17965517,9.46706897 8.85793103,9.46706897 11.2044828,8.42482759 C11.6715517,6.65 10.8084483,4.79482759 9.1512069,4.00741379 C8.19413793,4.76637931 6.84327586,4.76637931 5.885,4.00741379 Z" id="Path"></path>
                                <path d="M13.3977586,1.56551724 C13.3977586,0.799827586 12.7758621,0.17637931 12.0068966,0.17637931 C11.2408621,0.17637931 10.6175862,0.799655172 10.6175862,1.56551724 C10.6175862,2.33155172 11.2406897,2.9562069 12.0068966,2.9562069 C12.7758621,2.9562069 13.3977586,2.33155172 13.3977586,1.56551724 L13.3977586,1.56551724 Z" id="Path"></path>
                                <path d="M9.74431034,3.93672414 C10.0191379,3.60482759 10.3625862,3.33689655 10.7498276,3.15275862 C11.4872414,3.73758621 12.5281034,3.73758621 13.2653448,3.15275862 C14.5422414,3.76086207 15.2062069,5.19034483 14.8456897,6.55431034 C13.8484483,7.00051724 12.7593103,7.20344828 11.6667241,7.1512069 C11.5706897,5.8337931 10.8587931,4.64224138 9.74431034,3.93672414 Z" id="Path"></path>
                                <path d="M4.42017241,1.56551724 C4.42017241,0.799827586 3.79655172,0.17637931 3.02913793,0.17637931 C2.26155172,0.17637931 1.64,0.799655172 1.64,1.56551724 C1.64,2.33155172 2.26137931,2.9562069 3.02913793,2.9562069 C3.79655172,2.9562069 4.42017241,2.33155172 4.42017241,1.56551724 L4.42017241,1.56551724 Z" id="Path"></path>
                                <path d="M3.36948276,7.1512069 C3.465,5.8337931 4.1787931,4.64224138 5.29310345,3.93672414 C5.01844828,3.60482759 4.67482759,3.33689655 4.28741379,3.15275862 C3.55034483,3.73758621 2.50948276,3.73758621 1.77189655,3.15275862 C0.495,3.76086207 -0.17,5.19034483 0.190344828,6.55431034 C1.18896552,7.00051724 2.27672414,7.20327586 3.36948276,7.1512069 Z" id="Path"></path>
                            </g>
                        </g>
                    </g>
                </g>
            </g>
        </g>
    </g>
</svg>