<svg width="68" height="68" xmlns="http://www.w3.org/2000/svg" xmlns:xlink="http://www.w3.org/1999/xlink">
    <defs>
        <path id="a" d="M0 0h23.585v15.882H0z"/>
        <path id="c" d="M0 0h36v30.385H0z"/>
    </defs>
    <g fill="none" fill-rule="evenodd">
        <path d="M0 0h68v68H0z"/>
        <path d="M22.728 29.597h4.282V17.903c0-.585.398-1.056.888-1.056h12.205c.489 0 .887.471.887 1.056v9.492h4.282V15.789c0-1.695-1.153-3.067-2.577-3.067h-17.39c-1.422 0-2.577 1.372-2.577 3.067v13.808z" fill="#D800B6"/>
        <g transform="translate(22.207 12)">
            <mask id="b" fill="#fff">
                <use xlink:href="#a"/>
            </mask>
            <path d="M0 20.125V4.28C0 1.92 1.39 0 3.098 0h17.39c1.707 0 3.097 1.919 3.097 4.28v10.296c0 .395-.233.717-.52.717-.287 0-.52-.322-.52-.717V4.28c0-1.566-.923-2.843-2.058-2.843H3.098c-1.134 0-2.058 1.277-2.058 2.843v15.845c0 .398-.232.72-.52.72-.287 0-.52-.322-.52-.72z" fill="#000" mask="url(#b)"/>
        </g>
        <path d="M40.47 22.59v-5.65a.07.07 0 0 0-.07-.072H27.897a.368.368 0 0 0-.367.37v7.451c0 .29-.233.525-.52.525a.522.522 0 0 1-.52-.525v-7.451c0-.782.63-1.418 1.407-1.418H40.4c.613 0 1.112.502 1.112 1.12v5.65c0 .29-.233.524-.521.524a.523.523 0 0 1-.52-.524z" fill="#000"/>
        <path d="M45.772 56.477H22.23c-3.153 0-5.71-2.575-5.71-5.75V32.888c0-3.175 2.557-5.749 5.71-5.749h23.543c3.153 0 5.708 2.574 5.708 5.75v17.838c0 3.175-2.555 5.75-5.708 5.75" fill="#FDAF27"/>
        <g transform="translate(16 26.615)">
            <mask id="d" fill="#fff">
                <use xlink:href="#c"/>
            </mask>
            <path d="M30.11 30.385H5.89c-3.247 0-5.89-2.662-5.89-5.933V5.933C0 2.661 2.643 0 5.89 0h24.22C33.359 0 36 2.66 36 5.933v9.1a.522.522 0 0 1-.52.523.522.522 0 0 1-.52-.523v-9.1c0-2.694-2.175-4.885-4.85-4.885H5.89c-2.673 0-4.85 2.19-4.85 4.885v18.519c0 2.693 2.177 4.885 4.85 4.885h24.22c2.675 0 4.85-2.192 4.85-4.885 0-.29.233-.525.52-.525.287 0 .52.235.52.525 0 3.271-2.641 5.933-5.89 5.933" fill="#000" mask="url(#d)"/>
        </g>
        <path d="M34 42.85c-1.79 0-3.24-1.462-3.24-3.264 0-1.805 1.45-3.266 3.24-3.266 1.79 0 3.24 1.461 3.24 3.266 0 1.802-1.45 3.264-3.24 3.264" fill="#FFF"/>
        <path d="M32.18 46.284v-4.837c0-.559.448-1.01 1.002-1.01h1.637c.553 0 1 .451 1 1.01v4.837c0 .557-.447 1.011-1 1.011h-1.637a1.007 1.007 0 0 1-1.002-1.01" fill="#FFF"/>
    </g>
</svg>
