<svg width="68" height="68" xmlns="http://www.w3.org/2000/svg" xmlns:xlink="http://www.w3.org/1999/xlink">
    <defs>
        <path id="a" d="M0 45.5h45.5V0H0z"/>
    </defs>
    <g fill="none" fill-rule="evenodd">
        <path d="M0 0h68v68H0z"/>
        <g transform="translate(14.5 11.25)">
            <path d="M24.11 43.069H7.26a3.401 3.401 0 0 1-3.4-3.401V5.635a3.401 3.401 0 0 1 3.4-3.4h16.85a3.401 3.401 0 0 1 3.401 3.4v34.033a3.401 3.401 0 0 1-3.401 3.4" fill="#FFAC00"/>
            <path d="M20.73 2.347 6.44 2.084a2.886 2.886 0 0 0-2.94 2.928l.528 35.353a3.12 3.12 0 0 0 3.045 3.075l1.216.03L20.731 2.348z" fill="#FF8A00"/>
            <mask id="b" fill="#fff">
                <use xlink:href="#a"/>
            </mask>
            <path fill="#FFF" mask="url(#b)" d="M4.386 35.86H27.51V8.609H4.386z"/>
            <path d="M24.11 43.678H7.26a4.015 4.015 0 0 1-4.01-4.01V5.635c0-2.21 1.799-4.01 4.01-4.01h16.85c2.212 0 4.01 1.8 4.01 4.01v7.748a.61.61 0 0 1-1.218 0V5.635a2.796 2.796 0 0 0-2.792-2.791H7.26A2.796 2.796 0 0 0 4.47 5.635v34.033a2.796 2.796 0 0 0 2.791 2.791h16.85a2.796 2.796 0 0 0 2.792-2.791V18.474a.61.61 0 0 1 1.218 0v21.194a4.015 4.015 0 0 1-4.01 4.01" fill="#000" mask="url(#b)"/>
            <path d="M27.51 9.218H3.86a.61.61 0 0 1 0-1.218H27.51a.61.61 0 0 1 0 1.218" fill="#000" mask="url(#b)"/>
            <path fill="#A605AD" mask="url(#b)" d="M19.825 30.9h3.25V16.275h-3.25zM13.813 30.9h3.25v-9.75h-3.25zM7.8 30.9h3.25v-4.875H7.8z"/>
            <path d="M20.011 36.469H3.861a.61.61 0 0 1 0-1.219h16.15a.61.61 0 0 1 0 1.219M14.252 39.357c0-.791.642-1.435 1.433-1.435a1.435 1.435 0 0 1 0 2.868 1.435 1.435 0 0 1-1.433-1.433" fill="#000" mask="url(#b)"/>
            <path d="M22.198 32.668c0-5.87 4.76-10.632 10.633-10.632 5.871 0 10.632 4.761 10.632 10.632 0 5.871-4.761 10.633-10.632 10.633-5.873 0-10.633-4.762-10.633-10.633" fill="#FFF" mask="url(#b)"/>
            <path d="M33.1 43.9c-6.199 0-11.243-5.044-11.243-11.241 0-6.198 5.044-11.242 11.242-11.242 6.198 0 11.242 5.044 11.242 11.242a.61.61 0 0 1-1.219 0c0-5.527-4.496-10.023-10.023-10.023-5.526 0-10.023 4.496-10.023 10.023 0 5.526 4.497 10.023 10.023 10.023 1.78 0 3.526-.472 5.052-1.364a.607.607 0 0 1 .834.218c.17.29.073.663-.218.834A11.242 11.242 0 0 1 33.1 43.9" fill="#000" mask="url(#b)"/>
            <path d="M29.56 37.06c1.027.813 2.22 1.249 3.557 1.244 1.328-.005 2.514-.439 3.538-1.253l2.392 2.392c-3.315 3.066-8.73 2.943-11.88.013.791-.791 1.58-1.583 2.393-2.395M39.908 38.617c-.808-.806-1.6-1.599-2.392-2.392 1.665-2.372 1.66-4.76-.004-7.143l2.386-2.384c1.21 1.391 1.961 3.008 2.173 4.857.305 2.668-.438 5.023-2.163 7.062M39.065 25.895c-.773.772-1.536 1.53-2.294 2.296-.09.09-.147.059-.225-.001a5.504 5.504 0 0 0-2.414-1.084c-1.097-.198-2.173-.107-3.195.344-.494.218-.953.512-1.424.77l-2.356-2.356c3.396-3.113 8.819-2.88 11.908.031M26.336 26.69c.776.777 1.54 1.544 2.309 2.308.099.097.027.154-.026.224a5.46 5.46 0 0 0-1.014 2.139c-.355 1.586-.088 3.063.791 4.43.049.074.104.142.156.214.052.071.107.141.148.196-.803.8-1.597 1.596-2.394 2.39-3.035-3.269-2.96-8.701.03-11.9" fill="#A605AD" mask="url(#b)"/>
        </g>
        <path d="M48.658 42.197c.16 0 .3.073.389.19l.057.094.033.096.09-.073c.165-.116.357-.2.568-.25l.216-.037.227-.012c1.084 0 1.884.851 1.884 1.993 0 1.149-.799 2.002-1.884 2.002-.302 0-.582-.067-.824-.191l-.173-.104-.081-.065v1.166c0 .21-.109.384-.276.466l-.107.038-.119.013a.5.5 0 0 1-.496-.396l-.013-.12v-4.3c0-.29.218-.51.51-.51zm1.456.953c-.574 0-.96.419-.96 1.048 0 .64.38 1.056.96 1.056.565 0 .975-.439.975-1.048 0-.616-.41-1.056-.975-1.056zM45.577 41.05c1.045 0 1.76.644 1.76 1.598 0 .582-.271 1.066-.737 1.347l-.053.026.976 1.338a.743.743 0 0 1 .098.162l.029.081.016.125a.475.475 0 0 1-.48.473.51.51 0 0 1-.37-.16l-.073-.088-1.166-1.697-.858-.001v1.429a.504.504 0 0 1-.51.517.5.5 0 0 1-.496-.396l-.013-.121v-4.117c0-.252.163-.452.395-.504l.122-.013h1.36zm-.858.929v1.344h.843c.464 0 .734-.25.734-.667 0-.37-.218-.616-.588-.666l-.146-.01-.843-.001z" fill="#000" fill-rule="nonzero"/>
    </g>
</svg>
