<svg width="40" height="40" viewBox="0 0 40 40" xmlns="http://www.w3.org/2000/svg">
    <g fill="none" fill-rule="evenodd">
        <path d="M23.546 35.63H10.585a2.616 2.616 0 0 1-2.616-2.616V6.834a2.616 2.616 0 0 1 2.616-2.615h12.961a2.616 2.616 0 0 1 2.616 2.616v26.179a2.616 2.616 0 0 1-2.616 2.616" fill="#DFDFDF"/>
        <path d="M20.947 4.305 9.953 4.103a2.22 2.22 0 0 0-2.261 2.252l.406 27.195a2.4 2.4 0 0 0 2.342 2.365l.935.024 9.572-31.634z" fill="#D5D5D5"/>
        <path fill="#FFF" d="M8.374 30.084h17.788V9.122H8.375z"/>
        <path d="M23.546 36.099H10.585A3.088 3.088 0 0 1 7.5 33.014V6.834a3.09 3.09 0 0 1 3.085-3.084h12.961a3.09 3.09 0 0 1 3.085 3.085v5.96a.469.469 0 0 1-.937 0v-5.96a2.15 2.15 0 0 0-2.148-2.148H10.585a2.15 2.15 0 0 0-2.148 2.148v26.179a2.15 2.15 0 0 0 2.148 2.147h12.961a2.15 2.15 0 0 0 2.148-2.147V16.71a.469.469 0 0 1 .937 0v16.303a3.088 3.088 0 0 1-3.085 3.085" fill="#959595"/>
        <path d="M26.162 9.591H7.968a.469.469 0 0 1 0-.938h18.194a.469.469 0 0 1 0 .938" fill="#959595"/>
        <path fill="#AEAEAE" d="M20.25 26.27h2.5V15.02h-2.5zM15.625 26.27h2.5v-7.5h-2.5zM11 26.27h2.5v-3.75H11z"/>
        <path d="M20.393 30.553H7.97a.469.469 0 0 1 0-.938h12.424a.469.469 0 0 1 0 .938M15.963 32.775a1.104 1.104 0 1 1 1.103 1.102 1.103 1.103 0 0 1-1.103-1.102" fill="#959595"/>
        <path d="M22.076 27.63a8.179 8.179 0 1 1 16.358 0 8.179 8.179 0 0 1-16.358 0" fill="#FFF"/>
        <path d="M30.46 36.27c-4.767 0-8.647-3.88-8.647-8.648s3.88-8.648 8.648-8.648c4.767 0 8.647 3.88 8.647 8.648a.469.469 0 0 1-.937 0c0-4.251-3.459-7.71-7.71-7.71-4.251 0-7.71 3.459-7.71 7.71 0 4.251 3.459 7.71 7.71 7.71a7.705 7.705 0 0 0 3.886-1.049.468.468 0 1 1 .474.809 8.648 8.648 0 0 1-4.36 1.178" fill="#959595"/>
        <path d="M27.739 31.008c.79.625 1.707.96 2.736.957A4.303 4.303 0 0 0 33.196 31l1.84 1.84c-2.55 2.358-6.715 2.264-9.139.01l1.842-1.843M35.698 32.206l-1.84-1.84c1.282-1.825 1.278-3.663-.002-5.495l1.835-1.834c.931 1.07 1.508 2.314 1.671 3.736.235 2.053-.336 3.864-1.664 5.433M35.05 22.42c-.595.593-1.181 1.177-1.765 1.766-.069.068-.112.045-.172-.002a4.234 4.234 0 0 0-1.858-.833c-.844-.153-1.671-.083-2.457.265-.38.167-.733.393-1.095.592l-1.813-1.812c2.612-2.395 6.784-2.217 9.16.023M25.258 23.031c.598.598 1.185 1.188 1.776 1.775.077.075.022.119-.02.172a4.2 4.2 0 0 0-.78 1.645c-.272 1.22-.067 2.357.61 3.408.037.058.08.11.12.165l.113.151c-.618.615-1.229 1.228-1.841 1.839-2.335-2.515-2.278-6.694.022-9.155" fill="#AEAEAE"/>
        <path d="M31.276 26.306c.123 0 .23.056.298.145l.045.073.025.073.07-.055c.126-.09.274-.155.436-.193l.166-.028.175-.01c.834 0 1.45.655 1.45 1.534 0 .883-.616 1.54-1.45 1.54-.232 0-.448-.052-.634-.147l-.133-.08-.063-.05.001.897a.39.39 0 0 1-.213.358l-.082.03-.091.01a.385.385 0 0 1-.382-.305l-.01-.093v-3.308c0-.222.167-.391.392-.391zm1.12.733c-.442 0-.74.322-.74.806 0 .492.294.812.74.812.434 0 .75-.338.75-.806 0-.474-.316-.812-.75-.812zM28.905 25.422c.804 0 1.354.496 1.354 1.23 0 .448-.208.82-.567 1.036l-.04.02.75 1.03a.571.571 0 0 1 .076.124l.022.063.012.096a.365.365 0 0 1-.37.363.392.392 0 0 1-.283-.123l-.057-.067-.897-1.306h-.66v1.099c0 .225-.17.397-.392.397a.385.385 0 0 1-.382-.304l-.01-.093V25.82c0-.194.126-.347.305-.387l.093-.01h1.046zm-.66.715v1.034h.649c.357 0 .564-.192.564-.513 0-.285-.167-.474-.452-.512l-.112-.007-.649-.002z" fill="#959595" fill-rule="nonzero"/>
    </g>
</svg>
