<svg width="40" height="40" viewBox="0 0 40 40" xmlns="http://www.w3.org/2000/svg">
    <g fill="none" fill-rule="evenodd">
        <path d="M0 0h40v40H0z"/>
        <circle fill="#F1D8A6" fill-rule="nonzero" cx="19.959" cy="20" r="14"/>
        <g stroke="#000" stroke-width=".5">
            <path d="M20.44 26.525c-2.28 0-4.131 1.898-4.131 4.237 0 2.34 1.851 4.238 4.131 4.238 2.28 0 4.132-1.899 4.132-4.238 0-2.339-1.851-4.237-4.132-4.237" fill="#FA6400"/>
            <path d="m30.564 22.2-.152-.157-.026-.026a15.533 15.533 0 0 0-.406-.392l-.16-.148-.087-.077-.087-.076-.01-.008a19.73 19.73 0 0 0-.532-.443 2.646 2.646 0 0 0-.526-.416l-.014-.012-.02-.015a14.122 14.122 0 0 0-8.51-2.95c-.766 0-1.52.103-2.28.211-.688.098-1.366.27-2.024.495-.84.289-1.665.656-2.448 1.082-.623.337-1.195.74-1.756 1.168a2.63 2.63 0 0 0-.56.437l-.065.051v.002a15.286 15.286 0 0 0-.897.779l-.06.058-.019.017-.062.06-.027.026a2.747 2.747 0 0 0-.08.08 2.74 2.74 0 0 0-1.174 2.311c0 .704.276 1.388.761 1.886.988 1.013 2.694 1.046 3.677 0 .158-.167.317-.331.48-.492l.024-.022.073-.071.033-.032.029-.028c.165-.155.334-.307.505-.456.118-.079.23-.169.336-.269a13.017 13.017 0 0 1 2.114-1.256 11.503 11.503 0 0 1 2.272-.64 11.3 11.3 0 0 1 2.294-.001c.781.135 1.543.352 2.283.644.714.337 1.394.74 2.038 1.203.106.098.22.186.343.266.067.057.134.115.2.174.002 0 .003.001.003.002l.018.015.045.041.06.055.047.042c.183.168.356.335.526.506l.003.003.14.145c1 1.03 2.679 1.024 3.678 0 .698-.716.907-1.76.636-2.676a2.654 2.654 0 0 0-.636-1.096z" fill="#FA6400"/>
            <path d="M38.907 16.91a2.68 2.68 0 0 0-.668-1.178 20.408 20.408 0 0 0-.117-.146 2.695 2.695 0 0 0-.214-.274c-.04-.05-.08-.098-.123-.145a2.759 2.759 0 0 0-.165-.186 27.514 27.514 0 0 0-.107-.123l-.094-.106-.011-.013a21.89 21.89 0 0 0-.664-.713l-.076-.077-.012-.012a13.494 13.494 0 0 0-.14-.14c-.01-.012-.021-.022-.032-.032l-.053-.053-.024-.024-.006-.006a16.963 16.963 0 0 0-.148-.143 22.608 22.608 0 0 0-.681-.627l-.086-.075-.033-.029-.003-.002-.034-.03-.058-.05a.273.273 0 0 1-.006-.005l-.025-.02-.03-.027-.03-.026-.008-.005a27.494 27.494 0 0 0-.167-.14c-.325-.27-.655-.535-.99-.793a2.664 2.664 0 0 0-.437-.33 15.38 15.38 0 0 0-.083-.061l-.002-.001a21.03 21.03 0 0 0-4.027-2.306c-1.012-.44-2.025-.842-3.084-1.147a20.188 20.188 0 0 0-2.507-.546c-1.29-.2-2.579-.319-3.874-.319-.578 0-1.157.024-1.738.075-1.912.168-3.807.535-5.623 1.173-2.178.763-4.266 1.834-6.126 3.227a25.744 25.744 0 0 0-2.837 2.435c-.885.89-1.66 1.87-2.409 2.879l-.262.637a2.754 2.754 0 0 0 0 1.418 2.676 2.676 0 0 0 1.195 1.594c.6.36 1.332.459 2.004.27l.62-.27c.382-.231.687-.54.916-.926a21.599 21.599 0 0 1 3.254-3.32 20.954 20.954 0 0 1 4.052-2.427 20.622 20.622 0 0 1 4.618-1.292 20.807 20.807 0 0 1 4.886 0 20.62 20.62 0 0 1 4.633 1.297 21.023 21.023 0 0 1 3.354 1.918c.102.085.211.163.327.234a4.365 4.365 0 0 1 .087.063l.282.213a24.283 24.283 0 0 1 .329.274l.089.076.085.075a22.56 22.56 0 0 1 1.185 1.117c.232.235.457.476.678.722.036.045.074.09.114.132.032.04.066.08.102.118.057.072.118.142.183.21l.015.017c.156.185.31.374.46.565l.526.417a2.54 2.54 0 0 0 1.313.364c.687 0 1.353-.283 1.839-.781A2.713 2.713 0 0 0 39 17.618l-.093-.709" fill="#24587F"/>
            <path d="M38.239 15.732a20.408 20.408 0 0 0-.117-.146 2.695 2.695 0 0 0-.214-.274c-.04-.05-.08-.098-.123-.145a2.759 2.759 0 0 0-.165-.186 27.514 27.514 0 0 0-.107-.123l-.094-.106-.011-.013a21.89 21.89 0 0 0-.664-.713l-.076-.077-.012-.012a13.494 13.494 0 0 0-.14-.14c-.01-.012-.021-.022-.032-.032l-.053-.053-.024-.024-.006-.006a16.963 16.963 0 0 0-.148-.143 22.608 22.608 0 0 0-.681-.627l-.086-.075-.033-.029-.037-.032-.058-.05a.273.273 0 0 1-.006-.005l-.025-.02-.03-.027-.03-.026-.008-.005a27.494 27.494 0 0 0-.167-.14c-.325-.27-.655-.535-.99-.793a2.664 2.664 0 0 0-.437-.33 21.059 21.059 0 0 0-4.112-2.368c-1.012-.44-2.025-.842-3.084-1.147a20.188 20.188 0 0 0-2.507-.546c-1.29-.2-2.579-.319-3.874-.319-.578 0-1.157.024-1.738.075-1.912.168-3.807.535-5.623 1.173-2.178.763-4.266 1.834-6.126 3.227a25.744 25.744 0 0 0-2.837 2.435c-.885.89-1.66 1.87-2.409 2.879l-.262.637a2.754 2.754 0 0 0 0 1.418 2.676 2.676 0 0 0 1.195 1.594c.6.36 1.332.459 2.004.27l.62-.27c.382-.231.687-.54.916-.926a21.599 21.599 0 0 1 3.254-3.32 20.954 20.954 0 0 1 4.052-2.427 20.622 20.622 0 0 1 4.618-1.292 20.807 20.807 0 0 1 4.886 0 20.62 20.62 0 0 1 4.633 1.297 21.023 21.023 0 0 1 3.354 1.918c.102.085.211.163.327.234a4.365 4.365 0 0 1 .087.063l.282.213a24.283 24.283 0 0 1 .329.274l.089.076.085.075a22.56 22.56 0 0 1 1.185 1.117c.232.235.457.476.678.722.036.045.074.09.114.132.032.04.066.08.102.118.057.072.118.142.183.21l.015.017c.156.185.31.374.46.565l.526.417a2.54 2.54 0 0 0 1.313.364c.687 0 1.353-.283 1.839-.781A2.713 2.713 0 0 0 39 17.618l-.093-.709" fill="#FA6400"/>
        </g>
    </g>
</svg>
