<svg xmlns="http://www.w3.org/2000/svg" width="30" height="30" viewBox="0 0 30 30">
    <g fill="none" fill-rule="evenodd">
        <path d="M0 0H30V30H0z"/>
        <g fill="#FF0048" fill-rule="nonzero">
            <path d="M25.994 13.548c-.204-2.749-1.369-5.338-3.29-7.315-1.922-1.976-4.478-3.213-7.22-3.494V0h-1.936v2.72c-2.82.185-5.478 1.383-7.486 3.373-2.007 1.99-3.229 4.637-3.44 7.455H0v1.936h2.632c.26 2.779 1.5 5.374 3.501 7.32 2.001 1.946 4.63 3.115 7.415 3.296v2.903h1.936v-2.922c2.708-.274 5.236-1.481 7.152-3.414 1.915-1.934 3.099-4.473 3.348-7.183h3.048v-1.936h-3.038zm-21.436 0c.208-2.305 1.224-4.462 2.87-6.09 1.645-1.628 3.813-2.62 6.12-2.803v2.584h1.936V4.684c1.851.227 3.6.975 5.042 2.158L6.774 20.603c-1.211-1.456-1.968-3.236-2.177-5.12h2.632v-1.935h-2.67zm19.49 1.936c-.246 2.195-1.226 4.243-2.78 5.812-1.554 1.57-3.592 2.57-5.784 2.84v-2.352h-1.936v2.38c-1.994-.14-3.895-.897-5.438-2.167l13.77-13.79c1.248 1.52 2.007 3.382 2.178 5.341h-2.293v1.936h2.283z"/>
            <path d="M11.971 14.352l-.087-.097v-.571c.186.073.377.134.57.184l1.694-1.694c-.803.013-1.592-.216-2.264-.658.74-.595 1.687-.873 2.632-.774.324 0 .648.026.968.078l1.587-1.588c-.82-.292-1.685-.436-2.555-.425-2.642 0-4.568 1.122-4.568 2.66V16.376l2.023-2.023zM17.148 13.965v.29c0 .106-.28.28-.696.445l-2.246 2.245h.31c.897.013 1.79-.138 2.632-.445v.523c-.096.222-1.025.774-2.642.774-.363-.001-.725-.03-1.083-.087l-1.568 1.568c.848.315 1.747.47 2.651.454 2.642 0 4.568-1.122 4.568-2.66v-5.043l-1.926 1.936z"/>
        </g>
    </g>
</svg>
