<svg xmlns="http://www.w3.org/2000/svg" width="30" height="30" viewBox="0 0 30 30">
    <defs>
        <linearGradient id="poq59cxfma" x1="-.159%" x2="100.159%" y1="50%" y2="50%">
            <stop offset="24%" stop-color="#A605AE"/>
            <stop offset="100%" stop-color="#C639D1"/>
        </linearGradient>
        <linearGradient id="jeyfig4q3b" x1="1924.991%" x2="2595.991%" y1="885.001%" y2="885.001%">
            <stop offset="42%" stop-color="#76067F"/>
            <stop offset="100%" stop-color="#4E0556"/>
        </linearGradient>
        <linearGradient id="7i7pzkbd1c" x1="1924.991%" x2="2595.991%" y1="885.001%" y2="885.001%">
            <stop offset="42%" stop-color="#76067F"/>
            <stop offset="100%" stop-color="#4E0556"/>
        </linearGradient>
    </defs>
    <g fill="none" fill-rule="evenodd">
        <path d="M21.795 27.75c5.092-4.2 8.317-14.408 7.32-20.828C27.33-4.62 9.525 2.115 3.833 6.255-6.75 13.95 12.044 35.775 21.794 27.75z"/>
        <path fill="url(#poq59cxfma)" fill-rule="nonzero" d="M19.027 23.438l-1.387.877c-.3.187-.682.187-.983 0l-1.387-.878c-.3-.187-.682-.187-.982 0l-1.388.878c-.3.187-.682.187-.982 0l-1.418-.878c-.3-.187-.682-.187-.982 0l-1.396.878c-.297.188-.677.188-.974 0l-1.365-.878c-.301-.187-.682-.187-.983 0l-1.5.968c-.072.044-.163.045-.236.002-.073-.042-.118-.12-.117-.204V2.325c.002-.083.048-.16.12-.2.073-.04.162-.038.233.005l1.5.96c.299.195.684.195.982 0l1.38-.84c.301-.187.682-.187.983 0l1.388.877c.298.195.683.195.982 0l1.387-.877c.301-.187.682-.187.983 0l1.365.84c.299.195.684.195.982 0l1.418-.84c.298-.188.677-.188.975 0l1.395.885c.3.187.682.187.983 0l1.5-.967c.071-.047.163-.051.238-.01.075.04.122.119.122.204v21.84c0 .086-.047.165-.122.206-.075.04-.167.036-.238-.01l-1.5-.96c-.3-.185-.677-.185-.976 0z"/>
        <rect width="10.973" height="1.028" x="6.915" y="8.505" fill="url(#jeyfig4q3b)" fill-rule="nonzero" rx=".514"/>
        <rect width="4.987" height="1.028" x="9.915" y="5.513" fill="url(#7i7pzkbd1c)" fill-rule="nonzero" rx=".514"/>
        <rect width="10.973" height="1.028" x="6.915" y="11.498" fill="url(#jeyfig4q3b)" fill-rule="nonzero" rx=".514"/>
        <circle cx="4.565" cy="4.875" r="4.433" fill="#4A4A4A" fill-rule="nonzero" opacity=".4" transform="translate(12.25 10.5)"/>
        <circle cx="16.815" cy="14.625" r="4.433" fill="#DEE2E9" fill-rule="nonzero"/>
        <path fill="#DEE2E9" fill-rule="nonzero" d="M25.14 25.012c-.525-2.597-2.234-4.8-4.62-5.954-2.143 1.789-5.26 1.789-7.402 0-2.386 1.154-4.095 3.357-4.62 5.954-.084.412.022.839.288 1.163.266.324.664.512 1.084.51h13.897c.42.002.818-.186 1.084-.51.266-.324.372-.751.289-1.163z"/>
    </g>
</svg>
