<svg xmlns="http://www.w3.org/2000/svg" width="30" height="30" viewBox="0 0 30 30">
    <g fill="none" fill-rule="evenodd">
        <path d="M0 0H30V30H0z"/>
        <g fill="#000" fill-rule="nonzero">
            <path d="M14.516 9.068c-2.642 0-4.568 1.122-4.568 2.661v5.574c0 1.539 1.936 2.662 4.568 2.662 2.632 0 4.568-1.123 4.568-2.662V11.73c0-1.539-1.926-2.661-4.568-2.661zm0 1.935c.93-.08 1.858.177 2.613.726-.755.55-1.683.807-2.613.726-.928.07-1.853-.169-2.632-.677.74-.596 1.687-.874 2.632-.775zm-2.632 2.904c.843.306 1.735.457 2.632.445.897.013 1.79-.138 2.632-.445v.61c-.368.294-.791.513-1.244.645-.454.13-.928.171-1.398.119-.938.079-1.873-.194-2.622-.765v-.61zm2.632 4.122c-.937.092-1.875-.166-2.632-.726v-.57c.843.306 1.735.457 2.632.445.897.012 1.79-.138 2.632-.446v.523c-.087.223-1.016.774-2.632.774z"/>
            <path d="M29.032 13.645h-3.02c-.204-2.752-1.371-5.344-3.297-7.32-1.925-1.977-4.485-3.213-7.231-3.49V.098h-1.936v2.72c-2.817.19-5.47 1.39-7.474 3.378-2.003 1.99-3.222 4.635-3.432 7.45H0v1.936h2.652c.258 2.776 1.497 5.369 3.493 7.314 1.997 1.945 4.622 3.116 7.403 3.302V29.1h1.936v-2.922c2.711-.27 5.244-1.475 7.164-3.409 1.92-1.933 3.106-4.475 3.355-7.188h3.03v-1.936zM15.484 24.194V21.88h-1.936v2.38C11.275 24.08 9.136 23.11 7.5 21.52c-1.636-1.59-2.666-3.7-2.913-5.967h2.661v-1.936h-2.67c.21-2.297 1.227-4.447 2.868-6.068 1.641-1.622 3.802-2.612 6.102-2.796v2.584h1.936V4.78c2.231.268 4.303 1.295 5.867 2.91 1.565 1.613 2.527 3.715 2.726 5.954h-2.293v1.936h2.274c-.252 2.19-1.236 4.232-2.791 5.795-1.556 1.563-3.594 2.556-5.783 2.818z"/>
        </g>
    </g>
</svg>
