<svg xmlns="http://www.w3.org/2000/svg" xmlns:xlink="http://www.w3.org/1999/xlink" width="32" height="32" viewBox="0 0 32 32">
    <defs>
        <path id="prefix__a" d="M6.667 13.333C5.2 13.333 4 14.533 4 16c0 1.467 1.2 2.667 2.667 2.667 1.466 0 2.666-1.2 2.666-2.667 0-1.467-1.2-2.667-2.666-2.667zm18.666 0c-1.466 0-2.666 1.2-2.666 2.667 0 1.467 1.2 2.667 2.666 2.667C26.8 18.667 28 17.467 28 16c0-1.467-1.2-2.667-2.667-2.667zm-9.333 0c-1.467 0-2.667 1.2-2.667 2.667 0 1.467 1.2 2.667 2.667 2.667 1.467 0 2.667-1.2 2.667-2.667 0-1.467-1.2-2.667-2.667-2.667z"/>
    </defs>
    <g fill="none" fill-rule="evenodd">
        <path d="M0 0L32 0 32 32 0 32z"/>
        <mask id="prefix__b" fill="#fff">
            <use xlink:href="#prefix__a"/>
        </mask>
        <use fill="#000" fill-rule="nonzero" xlink:href="#prefix__a"/>
        <g fill="#000" mask="url(#prefix__b)">
            <path d="M0 0L32 0 32 32 0 32z"/>
        </g>
    </g>
</svg>
