<svg xmlns="http://www.w3.org/2000/svg" width="30" height="30" viewBox="0 0 30 30">
    <g fill="none" fill-rule="evenodd">
        <path d="M0 0L22.5 0 22.5 22.5 0 22.5z" transform="translate(3.75 3.75)"/>
        <path fill="#000" fill-rule="nonzero" d="M14.063.938H8.436v1.875h5.626V.937zm-3.75 12.187h1.874V7.5h-1.874v5.625zm7.528-6.197l1.33-1.331c-.402-.478-.843-.928-1.321-1.322l-1.331 1.331C15.066 4.444 13.238 3.75 11.25 3.75c-4.66 0-8.438 3.778-8.438 8.438 0 4.659 3.77 8.437 8.438 8.437 4.669 0 8.438-3.778 8.438-8.438 0-1.987-.694-3.815-1.847-5.259zM11.25 18.75c-3.628 0-6.563-2.934-6.563-6.563 0-3.628 2.935-6.562 6.563-6.562 3.628 0 6.563 2.934 6.563 6.563 0 3.628-2.935 6.562-6.563 6.562z" transform="translate(3.75 3.75)"/>
    </g>
</svg>
