<svg xmlns="http://www.w3.org/2000/svg" width="150" height="153" viewBox="0 0 150 153">
    <defs>
        <linearGradient id="8eh6lrnm4a" x1="1867%" x2="2667%" y1="2847.004%" y2="2847.004%">
            <stop offset="0%" stop-color="#FFF"/>
            <stop offset="100%" stop-color="#F4F4F4"/>
        </linearGradient>
    </defs>
    <g fill="none" fill-rule="evenodd">
        <g>
            <g>
                <g>
                    <g transform="translate(-114 -508) translate(0 406) translate(0 16) translate(114 87)">
                        <g stroke="#FDAF27" stroke-width="2.4" opacity=".6" transform="rotate(-15 79.266 -489.428)">
                            <circle cx="6.52" cy="6.394" r="5.727"/>
                        </g>
                        <circle cx="74" cy="73" r="71.2" fill="#FFF3DF"/>
                        <path fill="#DEE2E9" fill-rule="nonzero" d="M6 14.035c.001-1.013.822-1.834 1.835-1.835h6.73c1.013.001 1.834.822 1.835 1.835v6.73c-.001 1.013-.822 1.834-1.835 1.835h-6.73c-1.013-.001-1.834-.822-1.835-1.835v-6.73z" transform="rotate(89 11.2 17.4)"/>
                        <path fill="#F7B500" fill-rule="nonzero" d="M1.2 116.355c.002-.968.787-1.753 1.755-1.755h7.49c.97 0 1.194.56.515 1.24l-8.52 8.52c-.684.684-1.24.45-1.24-.515v-7.49zm11 7.49c0 .969-.786 1.754-1.755 1.755h-1.99c-.969 0-1.197-.557-.507-1.248l3.004-3.004c.69-.69 1.248-.46 1.248.507v1.99z" opacity=".6" transform="rotate(82 6.7 120.1)"/>
                        <path stroke="#DCE0E7" stroke-linecap="round" stroke-linejoin="round" stroke-width="2.4" d="M131.6 121.8L131.6 126.6 126.8 126.6 126.8 131.4 122 131.4 122 136.2 117.2 136.2 117.2 141 112.4 141" transform="rotate(-67 122 131.4)"/>
                        <circle cx="63.636" cy="141.836" r="1.636" fill="#FCD22A" fill-rule="nonzero" opacity=".704"/>
                        <path stroke="#EFEFEF" stroke-width="2.4" d="M65.192 149.143c-.63.49-1.801.53-2.461.085l-5.388-3.634c-.66-.446-1.061-1.548-.841-2.313l1.79-6.247c.22-.767 1.146-1.489 1.941-1.516l6.494-.227c.797-.028 1.768.63 2.041 1.378l2.222 6.106c.273.75-.052 1.877-.678 2.366l-5.121 4.002h0z"/>
                        <circle cx="145.6" cy="64.6" r="2.8" stroke="#FDAF27" stroke-width="2.4" opacity=".302"/>
                        <path fill="#FBD1AD" fill-rule="nonzero" d="M84.506 102.254l-3.668 2.35c-.386.255-.837.39-1.298.39-.461 0-.913-.135-1.299-.39l-3.668-2.35c-.39-.246-.84-.376-1.298-.376-.46 0-.909.13-1.299.376l-3.668 2.35c-.386.255-.837.39-1.298.39-.461 0-.912-.135-1.299-.39l-3.667-2.35c-.39-.246-.84-.376-1.299-.376-.459 0-.909.13-1.299.376l-3.667 2.37c-.39.246-.84.376-1.299.376-.459 0-.909-.13-1.298-.376l-3.688-2.37c-.39-.246-.84-.376-1.299-.376-.459 0-.908.13-1.298.376l-3.965 2.591c-.093.057-.198.087-.306.09-.108.001-.215-.025-.309-.078s-.173-.13-.23-.224c-.055-.094-.085-.2-.087-.31V39.677c.002-.11.032-.216.088-.31.056-.094.135-.17.229-.224.094-.053.201-.08.309-.077.108.002.213.032.306.089l3.965 2.591c.386.247.833.377 1.289.377.456 0 .902-.13 1.288-.377l3.688-2.35c.382-.256.83-.392 1.288-.392.459 0 .907.136 1.29.392l3.667 2.35c.39.246.84.376 1.298.376.46 0 .91-.13 1.299-.376l3.668-2.35c.386-.255.837-.39 1.298-.39.461 0 .913.135 1.299.39l3.687 2.35c.386.247.833.377 1.289.377.456 0 .903-.13 1.289-.377l3.687-2.37c.39-.246.84-.376 1.299-.376.459 0 .909.13 1.298.376l3.688 2.37c.386.247.833.377 1.289.377.456 0 .902-.13 1.288-.377l3.965-2.591c.093-.062.2-.097.312-.102.11-.004.22.022.318.075.098.054.18.133.236.23.056.096.086.207.086.32v64.645c0 .112-.03.223-.086.32-.057.096-.138.175-.236.229-.097.053-.208.08-.318.075-.111-.005-.219-.04-.312-.102l-3.965-2.591c-.387-.242-.833-.37-1.288-.37-.455 0-.901.128-1.29.37z"/>
                        <path fill="#FFF" d="M79.632 56H53.368c-.756 0-1.368.671-1.368 1.5 0 .828.612 1.5 1.368 1.5h26.264c.756 0 1.368-.672 1.368-1.5 0-.829-.612-1.5-1.368-1.5zM71.651 48H61.35c-.745 0-1.349.672-1.349 1.5s.604 1.5 1.349 1.5H71.65c.745 0 1.349-.672 1.349-1.5s-.604-1.5-1.349-1.5zM79.632 64H53.368c-.756 0-1.368.672-1.368 1.5 0 .829.612 1.5 1.368 1.5h26.264c.756 0 1.368-.671 1.368-1.5 0-.828-.612-1.5-1.368-1.5z"/>
                        <path fill="#4A4A4A" fill-rule="nonzero" d="M100.141 74H57.86C54.623 74 52 76.664 52 79.95v21.1c0 3.286 2.623 5.95 5.859 5.95h42.282c3.236 0 5.859-2.664 5.859-5.95v-21.1c0-3.286-2.623-5.95-5.859-5.95z" opacity=".1"/>
                        <path fill="#FFF" fill-rule="nonzero" d="M100.141 72H57.86C54.623 72 52 74.664 52 77.95v21.1c0 3.286 2.623 5.95 5.859 5.95h42.282c3.236 0 5.859-2.664 5.859-5.95v-21.1c0-3.286-2.623-5.95-5.859-5.95z"/>
                        <path fill="#EDEDED" fill-rule="nonzero" d="M98.972 75H59.028C56.804 75 55 76.804 55 79.03v18.94c0 2.226 1.804 4.03 4.028 4.03h39.944c2.225 0 4.028-1.804 4.028-4.03V79.03c0-2.226-1.803-4.03-4.028-4.03z"/>
                        <path fill="url(#8eh6lrnm4a)" fill-rule="nonzero" d="M80 97c4.418 0 8-3.582 8-8s-3.582-8-8-8-8 3.582-8 8 3.582 8 8 8z"/>
                    </g>
                </g>
            </g>
        </g>
    </g>
</svg>
