<svg xmlns="http://www.w3.org/2000/svg" width="16" height="16" viewBox="0 0 16 16">
    <g fill="none" fill-rule="evenodd">
        <path fill="#A605AD" d="M8 14.4L5.929 15.727 4.8 13.543 2.343 13.657 2.457 11.2 0.273 10.071 1.6 8 0.273 5.929 2.457 4.8 2.343 2.343 4.8 2.457 5.929 0.273 8 1.6 10.071 0.273 11.2 2.457 13.657 2.343 13.543 4.8 15.727 5.929 14.4 8 15.727 10.071 13.543 11.2 13.657 13.657 11.2 13.543 10.071 15.727z"/>
        <path fill="#FFF" fill-rule="nonzero" d="M7.314 9.676l3.6-4.467c.274-.279.718-.279.992 0 .274.278.274.729 0 1.007l-4.592 5.475-3.109-3.063c-.273-.278-.273-.73 0-1.007.274-.279.718-.279.992 0l2.117 2.055z"/>
    </g>
</svg>
