<svg xmlns="http://www.w3.org/2000/svg" xmlns:xlink="http://www.w3.org/1999/xlink" width="32" height="32" viewBox="0 0 32 32">
    <defs>
        <path id="yyhi50f61a" d="M0 0H32V32H0z"/>
    </defs>
    <g fill="none" fill-rule="evenodd">
        <g>
            <mask id="eeh7bz2e0b" fill="#fff">
                <use xlink:href="#yyhi50f61a"/>
            </mask>
            <g fill="#000" fill-rule="nonzero" mask="url(#eeh7bz2e0b)">
                <path d="M29.947 7.163L25.54 1.671C24.7.614 23.42 0 22.074 0c-2.591 0-4.577 2.217-4.442 4.776-.538-.342-1.178-.546-1.884-.546-.505 0-1.01.102-1.447.307C14.3 2.08 12.349 0 9.859 0 8.513 0 7.234.614 6.393 1.671L2.02 7.163C.774 8.425 0 10.165 0 12.075 0 15.895 3.062 19 6.83 19c3.096 0 5.687-2.08 6.529-4.946.639.58 1.48.955 2.422.955 1.11 0 2.087-.512 2.76-1.33.706 3.036 3.432 5.287 6.628 5.287 3.769 0 6.831-3.104 6.831-6.925-.034-1.91-.808-3.65-2.053-4.878zM6.831 17.226c-2.827 0-5.115-2.32-5.115-5.185 0-2.865 2.288-5.185 5.115-5.185 2.826 0 5.114 2.32 5.114 5.185 0 2.866-2.321 5.185-5.114 5.185zm8.95-3.957c-1.043 0-1.884-.852-1.884-1.91 0-1.057.841-1.91 1.884-1.91s1.885.853 1.885 1.91c-.034 1.058-.875 1.91-1.885 1.91zm9.355 3.957c-2.827 0-5.115-2.32-5.115-5.185 0-2.865 2.288-5.185 5.115-5.185 2.826 0 5.114 2.32 5.114 5.185 0 2.866-2.288 5.185-5.114 5.185z" transform="translate(0 7)"/>
            </g>
        </g>
    </g>
</svg>
